<svg width="177" height="108" viewBox="0 0 177 108" fill="none" xmlns="http://www.w3.org/2000/svg">
<path d="M2.97353 1.45605L2.89258 1.48771C2.93129 1.48771 2.96298 1.47717 2.97353 1.45605Z" fill="#20BB65"/>
<path d="M0.334851 2.71506C0.334851 2.71506 0.321253 2.71165 0.314453 2.70825L0.334851 2.71506Z" fill="#20BB65"/>
<path d="M0.454993 1.25082C0.371511 1.63345 0.00628503 1.75866 0.183686 2.14825C0.162815 2.33956 0.274126 2.53436 0.336738 2.71523C0.639363 2.77437 0.364565 2.95874 0.618491 3.03527L0.458475 3.09437C0.545436 3.1222 0.608049 3.15701 0.524567 3.20223H0.475863C0.608044 3.24397 0.541955 3.31353 0.608046 3.33093H0.559364L0.587176 3.397H0.517603C0.660219 3.47004 0.681096 3.56396 0.632397 3.6544L0.830671 3.61962C0.628922 3.82833 1.05678 3.83531 0.816765 4.03358H0.768062C1.32809 4.1588 0.45501 4.41968 0.994169 4.5449C0.928079 4.53099 0.893276 4.57272 0.844578 4.57968C0.917625 4.66664 0.966338 4.76406 1.3594 4.69101C1.36636 4.76058 1.24809 4.771 1.09852 4.80578C1.26896 4.77448 1.35244 4.81968 1.37331 4.87185L1.30373 4.86145L1.3907 5.00404L1.70725 4.91015C1.63072 5.00755 1.31765 5.00754 1.41157 5.07015L1.67941 5.01448C1.65159 5.13623 1.262 5.28579 1.08807 5.43884C1.07068 5.93278 1.86724 6.24584 1.52288 6.785L1.33157 6.85807C1.04634 6.94851 1.78724 6.8546 1.52636 6.94504L1.67245 6.95548C1.62375 6.98331 1.57854 7.02851 1.50549 7.02503C1.50549 7.07373 1.55418 7.05982 1.65158 7.06677L1.4881 7.16766C1.40462 7.39028 1.7942 7.4355 1.78376 7.64072C1.49853 7.98161 1.97161 8.29814 2.25336 8.45815C2.78905 8.62164 1.84986 9.45648 2.46554 9.60257C2.43076 9.6304 2.53162 9.61997 2.56293 9.60605L2.66382 9.92953C2.66382 9.92953 2.69859 10.0269 2.78207 10.1347C2.86556 10.2426 2.99426 10.3643 3.17514 10.413C3.54038 10.5209 4.08997 10.3017 4.95262 9.25821L5.01525 9.23732C5.08482 9.02166 5.07786 8.91732 4.7335 8.95211C5.09178 8.76775 4.7161 8.81296 4.81698 8.726L4.84827 8.71555C4.52478 8.75034 4.99786 8.42684 4.70915 8.45119C4.74045 8.44075 4.84132 8.39902 4.85523 8.41641C4.78219 8.37119 4.66392 8.319 4.8761 8.22508C4.75436 8.09638 4.76828 7.84593 4.38565 7.88072L4.44826 7.86335C4.19086 7.89813 4.38564 7.80422 4.24303 7.78335C4.27085 7.76944 4.28478 7.75898 4.29521 7.7555C4.03781 7.77985 4.19085 7.58853 4.0691 7.57461L4.21519 7.51899L4.13868 7.40417L4.12477 7.46332C3.71779 7.58854 4.3439 7.27895 4.05172 7.27895C4.07259 7.17808 3.15428 7.39026 3.31777 7.23025C3.11254 7.24764 3.63779 7.16764 3.47082 7.15025C3.67953 7.0772 3.61344 7.13634 3.77693 7.06329C3.65518 7.03198 3.96128 6.88938 3.79431 6.85807L3.95779 6.80241C3.62386 6.79545 4.1178 6.54503 3.80822 6.5659C3.63778 6.50328 4.27782 6.35022 3.92301 6.33631L4.13519 6.22846C4.15954 6.1728 3.84997 6.27368 3.94388 6.19368C4.0865 6.15542 4.0378 6.09627 4.18042 6.08931C4.37173 5.91539 3.79779 5.94325 4.13519 5.68932C3.84996 5.72758 3.99605 5.60931 3.78039 5.63714C3.90213 5.60235 3.763 5.47712 4.04475 5.49799C4.0691 5.49799 4.06562 5.51537 4.0204 5.5258L4.18738 5.49451C4.47957 5.33102 3.97866 5.37973 4.00301 5.28233C3.95431 5.32059 3.97867 5.35188 3.85692 5.35536V5.2684L4.00301 5.25103L4.0552 5.11189L3.88476 5.16756C3.9578 5.08755 4.24999 5.00059 3.98911 4.99015C3.84649 4.99015 3.76648 5.09796 3.70039 5.04926C3.80126 4.9449 3.95432 4.78839 3.98562 4.67708C3.79083 4.72578 3.79431 4.69795 3.74909 4.67708L3.91953 4.63882C3.66213 4.57969 4.28477 4.52403 4.07607 4.45794L4.1978 4.44401L3.83605 4.48575C3.48125 4.45445 4.18041 4.36752 3.70039 4.34665C3.73865 4.38491 3.32819 4.43707 3.39428 4.37098L3.56124 4.35357C3.5195 4.3327 3.44994 4.3327 3.48124 4.30835C3.57168 4.30835 3.72127 4.27358 3.68648 4.23531L3.89866 4.22487L3.58213 4.20054C3.74562 4.10662 3.50907 4.04748 3.73516 3.98139C3.73516 3.98139 3.82561 3.82833 3.56821 3.84225C3.73169 3.84225 3.7804 3.75876 3.96824 3.7518C3.78388 3.74833 3.62038 3.66834 3.80474 3.59877H3.82909C4.00301 3.42485 3.51951 3.3866 3.74213 3.21615C3.54386 3.25094 3.64473 3.16398 3.3908 3.21615C3.11948 3.10484 3.8778 2.89264 3.08124 2.93786C3.02906 2.87873 3.25515 2.83698 3.29342 2.79871L3.33864 2.80916C3.25863 2.69437 3.24818 2.6596 3.25862 2.56569C3.17862 2.52742 2.8099 2.55871 2.88991 2.4648C3.03948 2.47871 3.00818 2.4474 3.0047 2.41609C3.02905 2.43349 3.0847 2.4335 3.17862 2.3848C3.1334 2.3848 3.10559 2.37783 3.08124 2.37087C3.09167 2.37087 3.1021 2.36739 3.11601 2.36739C3.06036 2.32217 3.01513 2.3326 2.99774 2.36043C2.97687 2.36043 2.94558 2.3674 2.90731 2.37784C3.09167 2.30827 2.87947 2.22826 3.12992 2.20043C3.05687 2.05434 2.79252 1.96041 2.68469 1.83866C2.81339 1.81431 2.92817 1.83869 2.98383 1.87L2.93164 1.78304C3.11948 1.7726 3.04297 1.82824 3.08124 1.85259C3.37343 1.72388 2.76469 1.64736 3.03253 1.50474L2.88296 1.48733L2.90731 1.47693C2.83079 1.48041 2.72294 1.4595 2.69511 1.44211C2.85512 1.41428 3.06732 1.42473 3.05688 1.36211C3.20994 1.30298 2.9734 1.223 2.88296 1.16386C2.85861 1.20212 2.76817 1.19166 2.70904 1.18123C2.70208 1.14992 2.86209 1.12558 2.79252 1.10123L3.01166 1.09079C2.80644 1.11166 2.78555 1.01774 2.69511 1.00731C2.85512 0.982957 2.83773 1.05253 2.95948 1.05601C2.93513 0.930786 2.94557 0.993427 2.92122 0.868203C2.75425 0.805591 2.71598 0.885588 2.52119 0.861239C2.47597 0.802105 2.31946 0.746437 2.45164 0.673389L2.25683 0.701202C2.10377 0.589891 2.12465 0.516841 2.32292 0.436836C1.52287 0.0159447 0.983727 -0.0431685 0.639361 0.0229219C0.298474 0.0890124 0.155852 0.27336 0.155852 0.27336C-0.271997 0.645553 0.298477 0.829931 0.468921 1.25082H0.454993Z" fill="#20BB65"/>
<path d="M10.1332 15.8324L10.1016 15.9134C10.1262 15.8852 10.1403 15.8535 10.1332 15.8324Z" fill="#20BB65"/>
<path d="M15.6523 19.3182C15.6523 19.3182 15.6595 19.3111 15.6667 19.304C15.6595 19.3075 15.6559 19.3111 15.6523 19.3182Z" fill="#20BB65"/>
<path d="M9.26114 18.6255C9.26114 18.6255 9.25094 18.6323 9.24414 18.6357L9.26454 18.6255H9.26114Z" fill="#20BB65"/>
<path d="M8.26814 17.5403C8.49424 17.8603 8.33771 18.2186 8.74468 18.3508C8.87686 18.4934 9.08905 18.5491 9.26297 18.6256C9.50994 18.4447 9.46125 18.7682 9.69083 18.6291L9.62474 18.7856C9.70474 18.7404 9.77083 18.7161 9.74648 18.8135L9.71516 18.8517C9.83343 18.7821 9.83691 18.8795 9.89605 18.8413L9.86475 18.8795L9.93085 18.9004L9.88214 18.9491C10.0352 18.8935 10.1187 18.9422 10.15 19.0396L10.2613 18.8691C10.2787 19.1578 10.5709 18.8517 10.55 19.1648L10.5222 19.203C10.9883 18.8761 10.5883 19.6831 11.0439 19.3804C10.9883 19.4187 10.9952 19.4744 10.9674 19.5126C11.0787 19.5196 11.1831 19.5509 11.3987 19.217C11.4544 19.2587 11.3779 19.3526 11.3048 19.4848C11.3987 19.3387 11.4892 19.3109 11.5413 19.3317L11.4857 19.3735L11.6492 19.4083L11.7988 19.1161C11.8162 19.2378 11.6005 19.4639 11.7118 19.4395L11.8579 19.21C11.924 19.3144 11.7605 19.7004 11.7501 19.93C12.0875 20.2744 12.8597 19.9231 12.9954 20.5492L12.9119 20.737C12.7727 21.0014 13.2319 20.41 13.1101 20.657L13.218 20.5631C13.204 20.6153 13.2041 20.6814 13.1484 20.7266C13.1832 20.7579 13.2075 20.7162 13.2806 20.6536L13.2354 20.8414C13.3258 21.057 13.6319 20.8135 13.7676 20.9666C13.7954 21.4118 14.3415 21.3005 14.6546 21.224C15.1555 20.977 15.0128 22.2223 15.5555 21.9093C15.5485 21.951 15.6146 21.878 15.6285 21.8466L15.9068 22.0206C15.9068 22.0206 16.2581 22.2049 16.5921 22.0449C16.9295 21.8849 17.2251 21.3701 17.1938 20.01L17.2251 19.9544C17.1347 19.7422 17.0547 19.6691 16.8147 19.9196C16.9608 19.5474 16.7068 19.8257 16.7242 19.69L16.7416 19.6622C16.519 19.9022 16.6582 19.3422 16.4529 19.5544C16.4703 19.5265 16.519 19.4291 16.5399 19.4326C16.4529 19.45 16.3277 19.4883 16.4216 19.2726C16.2407 19.2552 16.0772 19.057 15.8129 19.3457L15.8477 19.29C15.6807 19.4883 15.7572 19.29 15.639 19.37C15.6494 19.3422 15.6529 19.3248 15.6564 19.3143C15.4859 19.5056 15.4616 19.2587 15.3642 19.3317L15.4303 19.1926L15.2911 19.1648L15.3224 19.217C15.1137 19.5892 15.3503 18.9352 15.1381 19.1334C15.0824 19.043 14.5641 19.8326 14.5746 19.6031C14.4424 19.7596 14.7624 19.3352 14.6267 19.4395C14.7276 19.2413 14.7207 19.3317 14.7867 19.1648C14.6789 19.2274 14.7937 18.9143 14.6511 19.0082L14.7276 18.8552C14.4806 19.0848 14.658 18.5595 14.4493 18.7891C14.2824 18.8621 14.6302 18.3021 14.3659 18.5456L14.4389 18.3195C14.4145 18.2638 14.2685 18.5526 14.2754 18.4273C14.3485 18.2986 14.2754 18.2917 14.3693 18.1838C14.3763 17.9264 13.9902 18.3473 14.0458 17.9264C13.8719 18.156 13.8858 17.9682 13.7571 18.1421C13.8163 18.0308 13.625 18.0447 13.8406 17.8534C13.858 17.8395 13.8684 17.8499 13.8406 17.8917L13.9345 17.749C14.018 17.4255 13.7015 17.8186 13.6493 17.7282C13.6423 17.7908 13.6806 17.7977 13.6006 17.8847L13.5415 17.8221L13.6284 17.7073L13.5658 17.5716L13.4893 17.7317C13.4823 17.6203 13.6215 17.3525 13.4336 17.5334C13.3327 17.6377 13.3606 17.7664 13.2736 17.7804C13.2667 17.6343 13.2562 17.4186 13.1971 17.3142C13.0997 17.4881 13.0788 17.4673 13.0336 17.4847L13.1241 17.3351C12.9014 17.4777 13.2945 16.9907 13.0997 17.0951L13.1727 16.9977L12.9536 17.2864C12.6858 17.5229 13.1032 16.956 12.7553 17.2899C12.8075 17.2899 12.5675 17.6203 12.5605 17.5299L12.6614 17.3977C12.6162 17.4116 12.571 17.4638 12.571 17.4256C12.6336 17.3595 12.7101 17.2273 12.6579 17.2273L12.7971 17.0673L12.5605 17.2794C12.6058 17.0951 12.3971 17.2238 12.5049 17.0151C12.5049 17.0151 12.4562 16.8447 12.2857 17.0395C12.397 16.9212 12.3692 16.8307 12.4945 16.6846C12.3658 16.8168 12.1918 16.8794 12.2684 16.6985L12.2857 16.6846C12.2718 16.4342 11.917 16.7542 11.9414 16.4794C11.8301 16.6464 11.8335 16.5142 11.6979 16.7368C11.43 16.8586 11.7918 16.1629 11.2805 16.7716C11.2005 16.7681 11.3257 16.5733 11.3257 16.5212L11.364 16.4968C11.2248 16.4759 11.1935 16.462 11.1309 16.3925C11.0474 16.4273 10.8178 16.716 10.8074 16.5977C10.9187 16.4968 10.8735 16.4968 10.8491 16.4794C10.8804 16.4725 10.9152 16.4342 10.9431 16.3298C10.9118 16.3611 10.8874 16.3786 10.8665 16.3925C10.8735 16.382 10.877 16.375 10.8874 16.3646C10.8144 16.375 10.7935 16.4168 10.8005 16.4481C10.7865 16.4655 10.7691 16.4898 10.7518 16.5246C10.8248 16.3402 10.6265 16.4411 10.7761 16.2394C10.6196 16.1907 10.3691 16.3264 10.2056 16.3229C10.2752 16.2116 10.3691 16.142 10.4317 16.1281L10.3309 16.1072C10.4491 15.9611 10.4387 16.0585 10.4839 16.0446C10.5883 15.742 10.1221 16.135 10.1987 15.8394L10.0839 15.9368L10.0943 15.9124C10.0456 15.9716 9.95519 16.0377 9.92388 16.0446C10.0143 15.909 10.1639 15.7559 10.1082 15.7246C10.1708 15.5715 9.94824 15.6968 9.84388 15.7176C9.85432 15.7628 9.78473 15.822 9.73603 15.8568C9.7082 15.8394 9.79864 15.7037 9.73603 15.742L9.87518 15.575C9.74995 15.7385 9.66648 15.6898 9.60039 15.7489C9.69431 15.6133 9.72909 15.6759 9.81605 15.5889C9.70822 15.5228 9.76038 15.5541 9.65255 15.488C9.49254 15.568 9.52385 15.6516 9.37428 15.7768C9.30123 15.7698 9.15515 15.8428 9.18994 15.7002L9.07862 15.8603C8.89079 15.8985 8.856 15.8324 8.92905 15.6341C8.07683 15.9263 7.66288 16.2811 7.47504 16.5768C7.28721 16.8725 7.32547 17.102 7.32547 17.102C7.30808 17.6725 7.83332 17.3803 8.25769 17.5473L8.26814 17.5403Z" fill="#20BB65"/>
<path d="M25.4316 22.7198L25.4387 22.8043C25.4457 22.7691 25.4492 22.7339 25.4316 22.7198Z" fill="#20BB65"/>
<path d="M32.0117 23.8919C32.0117 23.8919 32.0152 23.8816 32.0186 23.8746C32.0117 23.8816 32.0117 23.885 32.0117 23.8919Z" fill="#20BB65"/>
<path d="M25.8561 25.6105C25.8561 25.6105 25.8492 25.6208 25.8457 25.6277L25.8595 25.6105H25.8561Z" fill="#20BB65"/>
<path d="M24.5374 25.0852C24.8713 25.2661 24.8818 25.6556 25.2888 25.5896C25.4592 25.6591 25.6679 25.6174 25.8523 25.6104C25.9949 25.3426 26.0818 25.6557 26.2314 25.433V25.6035C26.2871 25.527 26.3358 25.4817 26.3532 25.5756L26.3427 25.6208C26.4193 25.5061 26.461 25.593 26.4992 25.5374L26.4888 25.5861L26.5549 25.5791L26.5306 25.6452C26.6453 25.5339 26.7358 25.5408 26.8053 25.6174L26.8401 25.4191C26.9654 25.673 27.108 25.2765 27.2089 25.5687L27.1984 25.6174C27.4941 25.1339 27.435 26.0313 27.7306 25.5756C27.6924 25.6313 27.7237 25.68 27.7098 25.7287C27.8141 25.6904 27.915 25.68 27.9915 25.2904C28.0576 25.3078 28.0228 25.4226 28.0054 25.5756C28.0367 25.4052 28.1063 25.3426 28.162 25.3426L28.1272 25.4052L28.2872 25.3739L28.315 25.0469C28.3776 25.1547 28.2628 25.4435 28.3533 25.3809L28.402 25.113C28.5028 25.1861 28.4924 25.6035 28.5654 25.8191C28.9898 26.0139 29.5811 25.4087 29.9151 25.9478L29.9012 26.1531C29.8629 26.4487 30.0855 25.7356 30.0577 26.0104L30.1273 25.8817C30.1342 25.9374 30.1516 25.9965 30.1168 26.0591C30.1586 26.0765 30.169 26.0278 30.2142 25.9444L30.2351 26.1357C30.3882 26.3061 30.5934 25.9757 30.7673 26.0731C30.9343 26.48 31.4039 26.1983 31.6717 26.0278C32.0683 25.6348 32.3048 26.8627 32.7187 26.4C32.7257 26.4418 32.7674 26.3513 32.7709 26.32L33.084 26.4C33.084 26.4 33.4666 26.4731 33.7379 26.2226C34.0092 25.9722 34.1588 25.3948 33.7309 24.1008L33.7449 24.0382C33.5953 23.8608 33.4909 23.8156 33.3379 24.1251C33.3692 23.7251 33.2022 24.066 33.1813 23.9338L33.1883 23.9025C33.0457 24.1947 33.0074 23.6207 32.8752 23.8851C32.8822 23.8538 32.8996 23.746 32.9239 23.7425C32.8439 23.7842 32.7361 23.8573 32.7604 23.6277C32.5796 23.666 32.3535 23.5268 32.1935 23.8816L32.2109 23.819C32.1135 24.0591 32.1239 23.8434 32.0369 23.9616C32.0369 23.9303 32.0369 23.913 32.0369 23.9025C31.9361 24.1391 31.8317 23.9129 31.7621 24.0103L31.7795 23.8573L31.6369 23.8747L31.6821 23.913C31.6056 24.3339 31.616 23.6347 31.4769 23.8921C31.3934 23.826 31.1604 24.7408 31.0943 24.5217C31.0178 24.713 31.1812 24.2086 31.0908 24.3478C31.1221 24.1286 31.143 24.2156 31.1499 24.0382C31.0665 24.1321 31.0734 23.7982 30.9656 23.9338L30.9864 23.7634C30.8299 24.059 30.816 23.506 30.6977 23.7947C30.5655 23.9199 30.7012 23.2764 30.5343 23.5929L30.5238 23.3564C30.4786 23.3112 30.4438 23.6347 30.4056 23.5129C30.4334 23.3668 30.3534 23.3877 30.4056 23.252C30.3186 23.0051 30.1029 23.5338 30.002 23.1233C29.9186 23.4016 29.8664 23.2173 29.8038 23.426C29.8212 23.3007 29.6438 23.3773 29.7794 23.1268C29.7899 23.106 29.8038 23.1129 29.7968 23.1616L29.8351 22.9946C29.7968 22.6642 29.6368 23.1407 29.5533 23.0746C29.5707 23.1338 29.609 23.1268 29.5672 23.2381L29.4872 23.1999L29.529 23.0607L29.4177 22.9564L29.4038 23.1338C29.3551 23.0329 29.3864 22.7337 29.2751 22.9668C29.2194 23.099 29.2924 23.2138 29.2194 23.2555C29.1568 23.1234 29.0629 22.9216 28.969 22.8485C28.9446 23.0468 28.9168 23.0329 28.8785 23.0677L28.9063 22.8972C28.7498 23.1129 28.9342 22.5146 28.7881 22.6816L28.8194 22.5633L28.7255 22.9147C28.562 23.2347 28.7359 22.5529 28.5376 22.9912C28.5863 22.9703 28.4889 23.3703 28.4472 23.2868L28.4924 23.1233C28.4541 23.1512 28.4333 23.2207 28.4194 23.1825C28.4541 23.0955 28.475 22.9459 28.4228 22.9633L28.4924 22.7616L28.3533 23.0468C28.322 22.859 28.1759 23.0607 28.1933 22.8242C28.1933 22.8242 28.075 22.685 27.995 22.932C28.0541 22.779 27.988 22.7059 28.0472 22.525C27.9776 22.6955 27.8419 22.8207 27.8385 22.6224L27.8524 22.6016C27.7341 22.3755 27.5323 22.8138 27.4384 22.5494C27.4036 22.7477 27.3515 22.6259 27.3202 22.8798C27.1219 23.099 27.1602 22.3129 26.9445 23.0816C26.868 23.1094 26.9028 22.8833 26.8784 22.8346L26.9028 22.7964C26.7636 22.8346 26.7288 22.8346 26.6384 22.7964C26.5758 22.8624 26.4923 23.2207 26.4262 23.1164C26.4853 22.9772 26.4436 22.9981 26.4123 22.9912C26.4366 22.9738 26.454 22.9216 26.4332 22.8172C26.4192 22.859 26.4018 22.8868 26.3914 22.9077C26.3914 22.8973 26.3914 22.8868 26.3984 22.8729C26.3358 22.9111 26.3358 22.9599 26.3532 22.9842C26.3462 23.0051 26.3427 23.0329 26.3427 23.0746C26.3288 22.8764 26.1897 23.0538 26.2384 22.8068C26.0714 22.8277 25.9044 23.0607 25.7514 23.1233C25.7653 22.9946 25.8209 22.8868 25.8696 22.8485L25.7688 22.8729C25.8105 22.692 25.8453 22.779 25.8801 22.7511C25.8384 22.4311 25.5879 22.9912 25.5218 22.692L25.4627 22.8311V22.8068C25.4418 22.8833 25.3896 22.9807 25.3653 22.9981C25.3827 22.8346 25.4522 22.6329 25.3862 22.6294C25.3722 22.4659 25.2261 22.6712 25.1427 22.7407C25.1705 22.7755 25.1427 22.8625 25.1113 22.9112C25.08 22.9112 25.0974 22.7477 25.0557 22.8103L25.1044 22.5946C25.0696 22.7998 24.9687 22.7929 24.9374 22.8764C24.9583 22.7129 25.0209 22.7511 25.0557 22.6364C24.9235 22.6259 24.9896 22.6294 24.8574 22.6189C24.7496 22.7616 24.8192 22.8242 24.7426 23.0016C24.6731 23.0294 24.5757 23.1616 24.5409 23.019L24.5165 23.2138C24.367 23.3321 24.3044 23.2938 24.2765 23.0816C23.6608 23.7425 23.4765 24.2538 23.4521 24.6017C23.4278 24.9495 23.5634 25.1339 23.5634 25.1339C23.8 25.6382 24.1165 25.1339 24.5583 25.0817L24.5374 25.0852Z" fill="#20BB65"/>
<path d="M42.4766 24.7616L42.5012 24.8425C42.5012 24.8038 42.4977 24.7722 42.4766 24.7616Z" fill="#20BB65"/>
<path d="M49.1992 24.7407C49.1992 24.7407 49.1992 24.7303 49.2061 24.7234C49.2027 24.7303 49.1992 24.7372 49.1992 24.7407Z" fill="#20BB65"/>
<path d="M43.4404 27.5166C43.4404 27.5166 43.437 27.5302 43.4336 27.537L43.4438 27.5166H43.4404Z" fill="#20BB65"/>
<path d="M42.0631 27.2557C42.4213 27.3635 42.5083 27.7461 42.8875 27.6035C43.0649 27.6383 43.2596 27.5583 43.437 27.52C43.5275 27.2278 43.6666 27.52 43.771 27.28L43.8058 27.447C43.8405 27.3635 43.8823 27.3078 43.9136 27.3983V27.447C43.9623 27.3217 44.0179 27.3983 44.0458 27.3357V27.3844L44.1049 27.3635L44.0945 27.4331C44.1849 27.3009 44.2754 27.2974 44.3554 27.36V27.1583C44.5189 27.3878 44.5884 26.9739 44.7415 27.2383V27.287C44.9432 26.7513 45.0441 27.6452 45.2528 27.1374C45.2285 27.2 45.2632 27.2417 45.2598 27.2904C45.3537 27.2313 45.4545 27.2 45.458 26.8035C45.5241 26.8069 45.5102 26.9287 45.5206 27.0783C45.5206 26.9043 45.5798 26.8313 45.6354 26.8209L45.6111 26.8869L45.7641 26.8243L45.7363 26.4973C45.8163 26.5913 45.7537 26.8974 45.8302 26.8174V26.5461C45.9415 26.5982 46.0041 27.0087 46.112 27.207C46.5607 27.3183 47.0372 26.6191 47.4546 27.0921L47.4755 27.2974C47.486 27.5966 47.5868 26.8557 47.6042 27.1304L47.6529 26.9948C47.6668 27.047 47.6947 27.1061 47.6738 27.1722C47.719 27.1826 47.719 27.1339 47.7503 27.0435L47.799 27.2278C47.9764 27.3704 48.1225 27.0087 48.3104 27.0817C48.5399 27.4574 48.9539 27.1061 49.1904 26.8974C49.5174 26.4487 49.9452 27.6313 50.2792 27.1165C50.2931 27.1583 50.3174 27.0643 50.3174 27.0296L50.6374 27.0678C50.6374 27.0678 51.0235 27.0922 51.2531 26.8069C51.4827 26.5252 51.5453 25.9338 50.9262 24.7059L50.9331 24.6399C50.7557 24.4833 50.6479 24.452 50.54 24.779C50.5087 24.379 50.3974 24.7408 50.3557 24.6086V24.5772C50.2618 24.8868 50.1365 24.3233 50.0426 24.6016C50.0426 24.5703 50.0426 24.459 50.067 24.452C49.9939 24.5042 49.8965 24.5946 49.8861 24.3616C49.7122 24.4242 49.4687 24.3199 49.3643 24.6921L49.3713 24.6259C49.3121 24.8764 49.2878 24.6642 49.2217 24.7929C49.2182 24.7616 49.2113 24.7477 49.2113 24.7338C49.1452 24.9842 49.0095 24.7755 48.9539 24.8833L48.9469 24.7268L48.8078 24.7651L48.86 24.7964C48.8495 25.2242 48.7486 24.532 48.6547 24.8068C48.5608 24.7547 48.4773 25.6938 48.3764 25.4886C48.3312 25.6869 48.4147 25.1651 48.3451 25.3181C48.3382 25.0955 48.3764 25.179 48.3556 25.0016C48.2895 25.1095 48.2408 24.7755 48.1573 24.9286L48.1503 24.7546C48.0425 25.0712 47.9416 24.5285 47.8686 24.8312C47.7573 24.9738 47.7886 24.3198 47.6738 24.6572L47.6251 24.4242C47.5729 24.3859 47.5903 24.7129 47.5347 24.5981C47.5347 24.452 47.4616 24.4799 47.4964 24.3407C47.3677 24.1112 47.2425 24.6712 47.072 24.2851C47.0372 24.5738 46.9538 24.4033 46.9259 24.619C46.9225 24.4938 46.759 24.6016 46.8529 24.3268C46.8598 24.3059 46.8738 24.3094 46.8738 24.3581L46.8842 24.1877C46.7903 23.8676 46.7137 24.3651 46.6164 24.3198C46.6442 24.3755 46.6824 24.3616 46.6581 24.4764L46.5711 24.4555L46.5885 24.3129L46.4598 24.2294L46.4772 24.4068C46.4146 24.3164 46.3903 24.0137 46.3207 24.2677C46.2894 24.4068 46.3798 24.5042 46.3137 24.5634C46.2302 24.4451 46.1016 24.2642 45.9937 24.212C46.0042 24.4103 45.9728 24.4033 45.945 24.4451V24.2711C45.8267 24.5146 45.9033 23.892 45.7885 24.0833L45.7989 23.9615L45.7676 24.3233C45.6633 24.6677 45.7154 23.9651 45.5972 24.4347C45.6424 24.4033 45.6146 24.8173 45.5589 24.7408L45.5728 24.5738C45.5415 24.6085 45.5311 24.6781 45.5102 24.6468C45.5311 24.5564 45.5206 24.4033 45.4754 24.4312L45.5067 24.2224L45.4163 24.532C45.3502 24.3546 45.2458 24.5807 45.218 24.3442C45.218 24.3442 45.0754 24.2294 45.0406 24.4903C45.0719 24.3303 44.9919 24.2677 45.0197 24.0798C44.9815 24.2607 44.8702 24.4103 44.8284 24.219L44.8354 24.1981C44.6789 24.0033 44.5536 24.4694 44.4145 24.2259C44.4145 24.4277 44.3415 24.3164 44.3554 24.5738C44.1988 24.8242 44.091 24.0416 44.0214 24.8346C43.9519 24.8764 43.9449 24.6468 43.9101 24.6051L43.9275 24.5634C43.7988 24.626 43.7606 24.6294 43.6666 24.6086C43.6179 24.6851 43.6006 25.0538 43.5171 24.9599C43.5484 24.8138 43.5136 24.8416 43.4823 24.8381C43.5031 24.8173 43.5101 24.7616 43.4718 24.6607C43.4649 24.7059 43.4545 24.7338 43.4475 24.7581C43.4475 24.7477 43.4475 24.7373 43.4475 24.7233C43.3918 24.772 43.4023 24.8207 43.4266 24.8416C43.4266 24.8625 43.4266 24.8938 43.4336 24.932C43.3849 24.7407 43.2805 24.939 43.2805 24.6886C43.1205 24.7408 42.9988 24.9981 42.8596 25.092C42.8492 24.9633 42.884 24.8486 42.9222 24.7999L42.8248 24.8451C42.8318 24.6573 42.884 24.7407 42.9118 24.7025C42.8074 24.3964 42.6718 24.9947 42.5466 24.7164L42.5153 24.8625L42.5083 24.8381C42.5083 24.9146 42.4735 25.0225 42.4527 25.0468C42.4388 24.8833 42.4666 24.6712 42.4005 24.6816C42.3553 24.5251 42.2509 24.7546 42.1813 24.8416C42.2161 24.8694 42.2022 24.9599 42.1813 25.0155C42.15 25.019 42.1361 24.859 42.1083 24.9251V24.7059C42.1187 24.9112 42.0213 24.9251 42.0039 25.0155C41.99 24.852 42.0596 24.8764 42.0735 24.7546C41.9413 24.772 42.0074 24.7616 41.8752 24.779C41.7987 24.9425 41.8787 24.9877 41.8405 25.179C41.7778 25.2207 41.7118 25.3703 41.6457 25.2382L41.6596 25.433C41.5378 25.5791 41.4683 25.5547 41.3987 25.3564C40.4595 26.9148 41.1204 27.5131 41.1204 27.5131C41.4509 27.9548 41.6526 27.3913 42.07 27.2557H42.0631Z" fill="#20BB65"/>
<path d="M59.7227 24.1808L59.7579 24.2582C59.7543 24.2195 59.7438 24.1878 59.7227 24.1808Z" fill="#20BB65"/>
<path d="M66.4316 23.4293C66.4316 23.4293 66.4316 23.4189 66.4351 23.412C66.4316 23.4189 66.4316 23.4258 66.4316 23.4293Z" fill="#20BB65"/>
<path d="M61.0151 26.8C61.0151 26.8 61.0151 26.8137 61.0117 26.8205L61.0185 26.8H61.0151Z" fill="#20BB65"/>
<path d="M59.6241 26.7096C59.9928 26.7757 60.125 27.1409 60.4833 26.9531C60.6641 26.967 60.845 26.8627 61.0155 26.8C61.0711 26.5009 61.2451 26.7722 61.3181 26.5183L61.3737 26.6818C61.3981 26.5948 61.4329 26.5322 61.4746 26.6192V26.6679C61.5164 26.5357 61.579 26.6052 61.5964 26.5426V26.5913L61.659 26.5635V26.6331C61.7286 26.4905 61.819 26.4731 61.906 26.5252L61.8781 26.3235C62.0694 26.5322 62.0903 26.1078 62.2712 26.3583V26.407C62.4138 25.8574 62.619 26.734 62.7651 26.2122C62.7477 26.2783 62.786 26.3131 62.7895 26.3618C62.8764 26.2957 62.9704 26.2539 62.9286 25.8609C62.9947 25.8609 62.9947 25.9791 63.0225 26.1287C63.0051 25.9548 63.0539 25.8783 63.106 25.8609L63.0886 25.9304L63.2312 25.8539L63.1652 25.5304C63.2556 25.6174 63.2278 25.9269 63.2973 25.84L63.266 25.5687C63.3808 25.6104 63.4886 26.0139 63.6173 26.2018C64.073 26.2678 64.4696 25.527 64.9357 25.9548L64.9774 26.1565C65.0192 26.4522 65.04 25.7043 65.0887 25.9756L65.12 25.833C65.1409 25.8852 65.1757 25.9374 65.1583 26.0069C65.2035 26.0139 65.2 25.9652 65.2209 25.8713L65.2905 26.0487C65.4818 26.1704 65.5896 25.7983 65.781 25.8504C66.0453 26.2018 66.421 25.8052 66.6332 25.5756C66.9149 25.0921 67.4506 26.2226 67.7289 25.673C67.7463 25.7148 67.7637 25.6139 67.7567 25.5826H68.0767C68.0767 25.5826 69.6107 25.5026 68.1428 23.1999V23.1337C67.9515 22.9981 67.8402 22.9772 67.7637 23.3181C67.6941 22.9216 67.6176 23.2938 67.5619 23.172V23.1407C67.4958 23.4607 67.3149 22.9146 67.2488 23.1999C67.2488 23.1686 67.2384 23.0572 67.2593 23.0503C67.1932 23.1094 67.1027 23.2103 67.068 22.9807C66.901 23.0642 66.6436 22.9877 66.5775 23.3703V23.3042C66.5427 23.5616 66.501 23.3529 66.4418 23.4851C66.4349 23.4538 66.4279 23.4399 66.4279 23.426C66.3897 23.6799 66.2297 23.4886 66.1879 23.5999L66.1671 23.4468L66.0314 23.499L66.087 23.5268C66.1218 23.9512 65.9514 23.2729 65.8818 23.5616C65.7809 23.5199 65.7949 24.4625 65.6731 24.2677C65.6488 24.4729 65.6731 23.9408 65.6244 24.1008C65.5966 23.8816 65.6418 23.9582 65.6001 23.7843C65.5444 23.8956 65.4609 23.5721 65.3948 23.7321L65.3705 23.5616C65.2974 23.8886 65.1374 23.3599 65.0992 23.6694C65.0018 23.826 64.9635 23.1686 64.8835 23.5164L64.8105 23.2903C64.7548 23.259 64.8105 23.579 64.7374 23.4747C64.7235 23.3286 64.6539 23.3668 64.6713 23.2242C64.5183 23.0085 64.4522 23.579 64.24 23.2103C64.2365 23.499 64.1322 23.339 64.1287 23.5581C64.1113 23.4329 63.9582 23.5581 64.0209 23.2764C64.0278 23.252 64.0417 23.2555 64.0452 23.3042L64.0382 23.1337C63.9061 22.8242 63.8852 23.3286 63.7843 23.2903C63.8191 23.3425 63.8539 23.3251 63.8435 23.4433L63.753 23.4294V23.2833L63.6173 23.2138L63.6556 23.3877C63.5826 23.3042 63.5269 23.0085 63.4817 23.2659C63.4643 23.4085 63.5686 23.4955 63.506 23.5581C63.4086 23.4468 63.2591 23.2799 63.1443 23.2381C63.1756 23.4364 63.1443 23.4329 63.1199 23.4747L63.0991 23.3042C63.0086 23.5547 63.0156 22.9285 62.9217 23.1337V23.012L62.9286 23.3738C62.8625 23.7251 62.8347 23.0225 62.7686 23.5025C62.8103 23.4677 62.8312 23.8782 62.7686 23.8121V23.6451C62.7373 23.6834 62.7338 23.7529 62.7095 23.7216C62.7199 23.6312 62.6921 23.4781 62.6504 23.5129L62.6573 23.3007L62.6051 23.6173C62.5182 23.4468 62.4382 23.6799 62.386 23.4503C62.386 23.4503 62.2329 23.3494 62.226 23.6103C62.2364 23.4468 62.1529 23.3947 62.1564 23.2068C62.139 23.3912 62.0451 23.5512 61.9825 23.3633L61.9894 23.3425C61.8086 23.1616 61.7425 23.6381 61.572 23.4155C61.5998 23.6138 61.5129 23.5129 61.5546 23.7668C61.4294 24.0347 61.2277 23.2729 61.252 24.0695C61.1894 24.1182 61.1511 23.8921 61.1129 23.8538L61.1233 23.8121C61.0016 23.8886 60.9668 23.899 60.8694 23.8921C60.8311 23.9755 60.8589 24.3408 60.765 24.2608C60.7789 24.1112 60.7476 24.1425 60.7129 24.146C60.7302 24.1216 60.7337 24.066 60.6815 23.9721C60.6815 24.0173 60.6746 24.0451 60.6676 24.0695C60.6676 24.059 60.6642 24.0486 60.6642 24.0347C60.6155 24.0903 60.6294 24.1356 60.6572 24.1529C60.6572 24.1738 60.6641 24.2051 60.6746 24.2434C60.6015 24.059 60.5215 24.2712 60.4902 24.0208C60.3372 24.0938 60.2467 24.3651 60.1215 24.473C60.0937 24.3443 60.1146 24.2295 60.1494 24.1738L60.0589 24.2295C60.0415 24.0451 60.1041 24.1182 60.1285 24.0764C59.9893 23.7877 59.9232 24.3964 59.7667 24.1355L59.7528 24.2851L59.7424 24.2608C59.7493 24.3373 59.7285 24.4452 59.7111 24.473C59.6763 24.313 59.6797 24.1008 59.6137 24.1147C59.5476 23.9651 59.4745 24.2051 59.4154 24.2991C59.4536 24.3234 59.4502 24.4138 59.4397 24.473C59.4084 24.4799 59.3736 24.3199 59.3563 24.393L59.3319 24.1738C59.3632 24.3791 59.2658 24.4034 59.2623 24.4938C59.2275 24.3338 59.3006 24.3512 59.2971 24.226C59.1684 24.2573 59.231 24.2434 59.1023 24.2747C59.0467 24.4451 59.1336 24.4799 59.1162 24.6747C59.0571 24.7234 59.0119 24.8799 58.9284 24.7547L58.9667 24.946C58.8623 25.1061 58.7927 25.0887 58.6953 24.9008C57.9614 26.5531 58.6953 27.0748 58.6953 27.0748C59.078 27.4749 59.2067 26.894 59.6032 26.7061L59.6241 26.7096Z" fill="#20BB65"/>
<path d="M76.9238 22.0172L76.9625 22.0946C76.9555 22.0559 76.9449 22.0278 76.9238 22.0172Z" fill="#20BB65"/>
<path d="M83.627 20.9805C83.627 20.9805 83.6269 20.9701 83.6304 20.9631C83.6269 20.9701 83.627 20.977 83.627 20.9805Z" fill="#20BB65"/>
<path d="M78.3569 24.5599C78.3569 24.5667 78.3569 24.5735 78.3535 24.5803L78.3603 24.5599H78.3569Z" fill="#20BB65"/>
<path d="M76.9724 24.5425C77.3412 24.5877 77.4907 24.946 77.8351 24.7373C78.016 24.7408 78.1899 24.626 78.3534 24.5564C78.3916 24.2538 78.5795 24.5182 78.6386 24.2608L78.7012 24.4208C78.7221 24.3338 78.7534 24.2712 78.7986 24.3546V24.4033C78.8334 24.2712 78.903 24.3373 78.9169 24.2712V24.3199L78.9795 24.2886V24.3581C79.0456 24.212 79.1325 24.1912 79.223 24.2399L79.1882 24.0416C79.39 24.2399 79.39 23.8155 79.5813 24.059V24.1077C79.6995 23.5511 79.943 24.4207 80.0648 23.892C80.0509 23.9581 80.0891 23.9929 80.0961 24.0416C80.1796 23.972 80.27 23.9268 80.2144 23.5337C80.2804 23.5303 80.2874 23.6485 80.3187 23.7981C80.2909 23.6277 80.3396 23.5476 80.3883 23.5268L80.3744 23.5964L80.5135 23.5164L80.437 23.1963C80.5309 23.2763 80.517 23.5894 80.5796 23.499L80.5379 23.2311C80.6561 23.2694 80.7778 23.6659 80.9135 23.8468C81.3692 23.8955 81.7344 23.1407 82.2145 23.5511L82.2631 23.7494C82.3153 24.0416 82.3084 23.2972 82.3675 23.5651L82.3953 23.4224C82.4162 23.4746 82.4545 23.5268 82.4406 23.5964C82.4858 23.5998 82.4788 23.5511 82.4997 23.4572L82.5727 23.6346C82.7675 23.7529 82.8614 23.3737 83.0528 23.419C83.3276 23.7598 83.6858 23.3564 83.8945 23.1198C84.1624 22.6294 84.7259 23.7459 84.9903 23.1894C85.0076 23.2311 85.0216 23.1302 85.0181 23.0989H85.3346C85.3346 23.0989 86.8616 22.9807 85.3485 20.7092V20.6432C85.1537 20.511 85.039 20.4936 84.9694 20.8345C84.8929 20.4414 84.8233 20.8136 84.7641 20.6919V20.6605C84.705 20.9806 84.5102 20.4379 84.4511 20.7266C84.4511 20.6953 84.4372 20.584 84.458 20.5771C84.392 20.6397 84.305 20.7406 84.2667 20.511C84.0998 20.5979 83.8424 20.5284 83.7832 20.911V20.8449C83.7554 21.1023 83.7032 20.8936 83.651 21.0328C83.6441 21.0014 83.6337 20.9875 83.6337 20.9771C83.6023 21.2345 83.4354 21.0467 83.3971 21.158L83.3693 21.0049L83.2371 21.0606L83.2928 21.0849C83.338 21.5093 83.1501 20.838 83.0875 21.1232C82.9867 21.0849 83.0284 22.0276 82.8997 21.8363C82.8823 22.0415 82.8927 21.5093 82.8475 21.6728C82.8127 21.4536 82.858 21.5301 82.8162 21.3562C82.7641 21.471 82.6701 21.1475 82.6075 21.311L82.5797 21.1406C82.5171 21.471 82.3397 20.9458 82.3119 21.2554C82.2214 21.4119 82.1588 20.7579 82.0927 21.1128L82.0127 20.8866C81.9571 20.8553 82.0197 21.1754 81.9466 21.071C81.9292 20.9249 81.8596 20.9667 81.8701 20.8206C81.7101 20.6119 81.6614 21.1823 81.4388 20.8206C81.4457 21.1093 81.3344 20.9528 81.3414 21.1719C81.317 21.0502 81.1709 21.1788 81.2231 20.8936C81.2266 20.8693 81.244 20.8727 81.2474 20.9214L81.2335 20.751C81.0909 20.4484 81.0874 20.9527 80.9866 20.9179C81.0213 20.9701 81.0561 20.9493 81.0492 21.0675L80.9587 21.0571V20.911L80.8126 20.8484L80.8579 21.0223C80.7813 20.9423 80.7118 20.6467 80.6805 20.9075C80.67 21.0502 80.7779 21.1336 80.7187 21.1997C80.6144 21.0919 80.4613 20.9319 80.3431 20.8971C80.3813 21.0919 80.3535 21.0884 80.3291 21.1336L80.3013 20.9632C80.2213 21.2171 80.2039 20.5945 80.117 20.7997L80.11 20.6779L80.1343 21.0397C80.0822 21.3945 80.0265 20.6919 79.9813 21.1719C80.023 21.1371 80.0578 21.5475 79.9917 21.4814L79.9813 21.3145C79.9569 21.3527 79.957 21.4258 79.9291 21.3945C79.9326 21.304 79.9013 21.151 79.863 21.1893V20.9771L79.8213 21.2936C79.7274 21.1267 79.6578 21.3632 79.5952 21.1371C79.5952 21.1371 79.4352 21.0432 79.4421 21.3041C79.4456 21.1406 79.3587 21.0919 79.3552 20.9041C79.3447 21.0884 79.2578 21.2519 79.1847 21.0675V21.0432C79.0004 20.8728 78.9517 21.3527 78.7743 21.1371C78.8091 21.3354 78.7186 21.238 78.7743 21.4884C78.663 21.7632 78.4229 21.0119 78.4856 21.805C78.4229 21.8571 78.3777 21.6345 78.336 21.5963L78.3464 21.551C78.2281 21.6345 78.1934 21.6484 78.096 21.645C78.0612 21.7284 78.1064 22.0937 78.009 22.0206C78.016 21.871 77.9847 21.9024 77.9534 21.9093C77.9708 21.885 77.9673 21.8293 77.9116 21.7389C77.9116 21.7841 77.9081 21.8119 77.9012 21.8363C77.9012 21.8258 77.8977 21.8154 77.8942 21.8015C77.849 21.8606 77.8664 21.9058 77.8942 21.9197C77.8942 21.9406 77.9012 21.9684 77.9151 22.0102C77.8316 21.8328 77.762 22.045 77.7203 21.798C77.5707 21.878 77.4942 22.1528 77.3759 22.2711C77.3412 22.1458 77.3551 22.0276 77.3864 21.9719L77.2994 22.0345C77.2716 21.8502 77.3377 21.9197 77.362 21.878C77.2055 21.5962 77.1742 22.2085 77.0037 21.958L76.9968 22.1076L76.9864 22.0833C76.9968 22.1598 76.9864 22.2711 76.969 22.2989C76.9272 22.1424 76.9133 21.9267 76.8507 21.9476C76.7776 21.8015 76.715 22.0484 76.6629 22.1424C76.7046 22.1632 76.7046 22.2537 76.6976 22.3128C76.6663 22.3232 76.6246 22.1667 76.6072 22.2398L76.5724 22.0241C76.6142 22.2259 76.5202 22.2572 76.5202 22.3476C76.4785 22.1911 76.5516 22.2015 76.5411 22.0798C76.4124 22.118 76.4785 22.1006 76.3498 22.1389C76.3046 22.3128 76.3915 22.3406 76.3881 22.5354C76.3324 22.5876 76.2941 22.7476 76.2037 22.6259L76.2559 22.8137C76.162 22.9807 76.0889 22.9702 75.9846 22.7859C75.3584 24.4833 76.1237 24.953 76.1237 24.953C76.5272 25.3286 76.6176 24.7408 77.0003 24.532L76.9724 24.5425Z" fill="#20BB65"/>
<path d="M94.1406 19.5022L94.1793 19.5796C94.1723 19.5409 94.1617 19.5128 94.1406 19.5022Z" fill="#20BB65"/>
<path d="M100.893 18.6429C100.893 18.6429 100.893 18.6325 100.896 18.6256C100.893 18.6325 100.893 18.6395 100.893 18.6429Z" fill="#20BB65"/>
<path d="M95.5307 22.0796C95.5307 22.0796 95.5307 22.0932 95.5273 22.1L95.5342 22.0796H95.5307Z" fill="#20BB65"/>
<path d="M94.1529 22.0275C94.5216 22.0797 94.6642 22.4449 95.0121 22.2467C95.1895 22.2571 95.3669 22.1458 95.5304 22.0797C95.5721 21.7771 95.753 22.0484 95.8191 21.791L95.8782 21.951C95.8991 21.864 95.9304 21.8014 95.9756 21.8884V21.9371C96.0139 21.8049 96.08 21.8745 96.0939 21.8084V21.8571L96.1565 21.8292V21.8988C96.2226 21.7562 96.313 21.7353 96.3965 21.7875L96.3652 21.5892C96.56 21.791 96.5704 21.3701 96.7548 21.6171V21.6658C96.8835 21.1127 97.1061 21.9893 97.2417 21.464C97.2244 21.5301 97.2661 21.5649 97.2696 21.6136C97.3531 21.544 97.447 21.5023 97.3983 21.1092C97.4644 21.1092 97.4679 21.2275 97.4957 21.3771C97.4748 21.2031 97.5235 21.1266 97.5722 21.1092L97.5583 21.1788L97.7009 21.1022L97.6313 20.7788C97.7218 20.8623 97.7009 21.1718 97.767 21.0849L97.7322 20.8136C97.847 20.8518 97.9618 21.2553 98.0905 21.4396C98.5392 21.5023 98.9288 20.7544 99.3914 21.1788L99.4332 21.3805C99.4749 21.6762 99.4958 20.9283 99.541 21.1997L99.5723 21.057C99.5932 21.1092 99.628 21.1614 99.6106 21.2309C99.6558 21.2379 99.6523 21.1892 99.6732 21.0953L99.7428 21.2727C99.9306 21.3944 100.038 21.0223 100.226 21.071C100.487 21.4188 100.859 21.0222 101.072 20.7927C101.357 20.3092 101.872 21.4431 102.157 20.8935C102.171 20.9353 102.192 20.8344 102.188 20.8031H102.505C102.505 20.8031 104.032 20.7335 102.623 18.4169V18.3508C102.435 18.2151 102.324 18.1943 102.24 18.5352C102.178 18.1386 102.094 18.5108 102.042 18.3891V18.3577C101.969 18.6778 101.798 18.1282 101.729 18.4169C101.729 18.3856 101.719 18.2743 101.743 18.2673C101.673 18.3264 101.583 18.4273 101.552 18.1978C101.381 18.2812 101.124 18.2047 101.054 18.5873V18.5213C101.019 18.7787 100.974 18.5699 100.918 18.7056C100.912 18.6743 100.905 18.6604 100.905 18.6465C100.863 18.9004 100.706 18.7091 100.661 18.8239L100.64 18.6708L100.505 18.723L100.56 18.7508C100.588 19.1752 100.425 18.4969 100.355 18.7856C100.254 18.7438 100.261 19.69 100.143 19.4952C100.118 19.7004 100.146 19.1682 100.094 19.3282C100.066 19.1091 100.111 19.1856 100.073 19.0117C100.018 19.1265 99.9341 18.7995 99.868 18.9595L99.8436 18.7891C99.7706 19.116 99.6106 18.5873 99.5688 18.8969C99.4714 19.0535 99.4332 18.396 99.3532 18.7473L99.2801 18.5213C99.2245 18.49 99.2801 18.8099 99.2071 18.7056C99.1932 18.5595 99.1236 18.5978 99.1375 18.4552C98.9845 18.243 98.9149 18.8134 98.7027 18.4447C98.7027 18.7334 98.5949 18.5734 98.5949 18.7926C98.574 18.6673 98.4244 18.7926 98.487 18.5108C98.494 18.4865 98.5079 18.4899 98.5114 18.5386L98.5044 18.3682C98.3722 18.0621 98.3514 18.5665 98.2505 18.5282C98.2853 18.5804 98.3201 18.5595 98.3096 18.6813L98.2192 18.6708V18.5247L98.0801 18.4586L98.1183 18.6326C98.0418 18.5491 97.9861 18.2534 97.9409 18.5108C97.9235 18.6534 98.0314 18.7404 97.9688 18.803C97.8679 18.6952 97.7183 18.5282 97.6 18.4899C97.6348 18.6882 97.6035 18.6847 97.5792 18.7265L97.5548 18.556C97.4679 18.81 97.4644 18.1839 97.3739 18.3891V18.2673L97.3844 18.6291C97.3218 18.9839 97.2835 18.2778 97.2244 18.7578C97.2661 18.723 97.2939 19.1335 97.2244 19.0674L97.2174 18.9004C97.1896 18.9387 97.1896 19.0117 97.1652 18.9769C97.1722 18.8865 97.1444 18.7334 97.1026 18.7682V18.556L97.0574 18.8726C96.967 18.7021 96.8904 18.9387 96.8348 18.7091C96.8348 18.7091 96.6748 18.6117 96.6748 18.8726C96.6852 18.7091 96.5982 18.6604 96.5948 18.4691C96.5809 18.6534 96.4869 18.8134 96.4208 18.6291L96.4278 18.6047C96.24 18.4273 96.1843 18.9074 96.0069 18.6882C96.0382 18.8865 95.9478 18.7891 95.9999 19.0396C95.8817 19.3109 95.6591 18.5561 95.7043 19.3491C95.6417 19.4013 95.5999 19.1752 95.5582 19.1369L95.5686 19.0917C95.4469 19.1717 95.4121 19.1856 95.3147 19.1787C95.2764 19.2621 95.3147 19.6274 95.2208 19.5509C95.2312 19.4013 95.1964 19.4326 95.1651 19.4361C95.1825 19.4118 95.1825 19.3561 95.1269 19.2656C95.1269 19.3108 95.1199 19.3387 95.1164 19.363C95.1164 19.3526 95.1129 19.3422 95.1095 19.3282C95.0642 19.3874 95.0782 19.4291 95.106 19.4465C95.106 19.4674 95.113 19.4987 95.1269 19.5369C95.0469 19.3561 94.9738 19.5683 94.9355 19.3213C94.7825 19.3978 94.7025 19.6726 94.5808 19.7839C94.5494 19.6587 94.5634 19.5404 94.5981 19.4848L94.5112 19.5439C94.4868 19.3596 94.5529 19.4326 94.5773 19.3909C94.4242 19.1056 94.3825 19.7178 94.2155 19.4604L94.2086 19.61L94.1981 19.5857C94.2085 19.6622 94.1946 19.77 94.1772 19.7978C94.1355 19.6378 94.1285 19.4256 94.0659 19.443C93.9929 19.2934 93.9303 19.5404 93.8711 19.6344C93.9129 19.6587 93.9129 19.7491 93.9025 19.8048C93.8711 19.8152 93.8294 19.6552 93.8155 19.7283L93.7842 19.5126C93.8259 19.7144 93.7285 19.7456 93.7285 19.8361C93.6868 19.6761 93.7598 19.69 93.7529 19.5682C93.6242 19.603 93.6868 19.5856 93.5581 19.6239C93.5094 19.7978 93.5998 19.8291 93.5929 20.0239C93.5372 20.0726 93.4955 20.2326 93.4085 20.1109L93.4572 20.3022C93.3633 20.4657 93.2902 20.4518 93.1824 20.2674C92.5354 21.944 93.2972 22.4345 93.2972 22.4345C93.6937 22.8206 93.7911 22.2362 94.1738 22.038L94.1529 22.0275Z" fill="#20BB65"/>
<path d="M111.52 17.7249L111.551 17.8058C111.551 17.7671 111.541 17.7354 111.52 17.7249Z" fill="#20BB65"/>
<path d="M118.35 17.4918C118.35 17.4918 118.353 17.4814 118.357 17.4745C118.353 17.4814 118.35 17.4883 118.35 17.4918Z" fill="#20BB65"/>
<path d="M112.698 20.3962C112.698 20.3962 112.695 20.4099 112.691 20.4167L112.698 20.3962Z" fill="#20BB65"/>
<path d="M111.335 20.2467C111.696 20.3233 111.808 20.6954 112.166 20.525C112.343 20.5459 112.524 20.4519 112.695 20.3963C112.761 20.0971 112.921 20.3824 113.004 20.132L113.049 20.2954C113.077 20.2085 113.116 20.1493 113.154 20.2398V20.2885C113.199 20.1598 113.258 20.2328 113.279 20.1702V20.2189L113.338 20.1946L113.331 20.2641C113.411 20.125 113.502 20.1146 113.582 20.1737L113.568 19.9719C113.745 20.1911 113.79 19.7702 113.95 20.0311V20.0798C114.121 19.5406 114.267 20.4311 114.444 19.9197C114.423 19.9824 114.458 20.0241 114.458 20.0728C114.549 20.0102 114.643 19.9789 114.632 19.5823C114.698 19.5823 114.691 19.7041 114.705 19.8572C114.698 19.6832 114.754 19.6102 114.806 19.5963L114.785 19.6658L114.931 19.6032L114.893 19.2762C114.977 19.3667 114.924 19.6763 114.997 19.5928L114.987 19.3215C115.098 19.3702 115.175 19.7806 115.286 19.9789C115.724 20.0832 116.18 19.3806 116.598 19.8502L116.618 20.0554C116.632 20.3546 116.723 19.6136 116.744 19.8884L116.789 19.7528C116.803 19.805 116.831 19.8641 116.81 19.9302C116.855 19.9406 116.855 19.8919 116.883 19.8015L116.931 19.9859C117.105 20.1285 117.248 19.7667 117.432 19.8363C117.655 20.2119 118.062 19.8606 118.298 19.6589C118.632 19.2101 119.018 20.3998 119.359 19.8919C119.37 19.9337 119.398 19.8398 119.398 19.805L119.711 19.8502C119.711 19.8502 120.086 19.8815 120.326 19.6032C120.563 19.325 120.671 18.7371 120.1 17.4953L120.107 17.4292C119.933 17.2692 119.825 17.2344 119.704 17.5614C119.686 17.1614 119.561 17.5196 119.523 17.3875V17.3561C119.419 17.6622 119.311 17.0987 119.206 17.3735C119.21 17.3422 119.213 17.2309 119.238 17.2239C119.161 17.2761 119.06 17.3631 119.057 17.1301C118.879 17.1927 118.629 17.0813 118.514 17.457L118.521 17.3909C118.455 17.6414 118.438 17.4292 118.365 17.5579C118.361 17.5266 118.354 17.5127 118.358 17.4988C118.288 17.7492 118.152 17.537 118.093 17.6449V17.4883L117.947 17.5266L117.999 17.5579C117.985 17.9823 117.891 17.29 117.791 17.5683C117.693 17.5161 117.606 18.4553 117.505 18.2466C117.46 18.4449 117.544 17.9231 117.474 18.0762C117.471 17.8536 117.505 17.937 117.484 17.7596C117.415 17.864 117.366 17.5336 117.283 17.6831L117.276 17.5092C117.168 17.8257 117.06 17.2831 116.991 17.5857C116.876 17.7318 116.904 17.0744 116.789 17.4153L116.737 17.1822C116.684 17.1439 116.705 17.4709 116.646 17.3561C116.646 17.21 116.573 17.2413 116.604 17.0987C116.469 16.8691 116.347 17.4326 116.17 17.0465C116.138 17.3353 116.048 17.1648 116.027 17.3805C116.02 17.2553 115.857 17.3631 115.944 17.0918C115.951 17.0709 115.964 17.0744 115.968 17.1231L115.975 16.9527C115.871 16.6326 115.801 17.1335 115.704 17.0848C115.735 17.1405 115.77 17.1231 115.749 17.2414L115.658 17.2205L115.672 17.0779L115.537 16.9979L115.561 17.1753C115.495 17.0848 115.464 16.7857 115.394 17.0396C115.366 17.1822 115.464 17.2761 115.394 17.3353C115.304 17.217 115.168 17.0396 115.057 16.9874C115.074 17.1857 115.043 17.1787 115.015 17.2205L115.004 17.0465C114.893 17.29 114.949 16.6674 114.837 16.8622L114.844 16.7405L114.823 17.1022C114.73 17.4501 114.754 16.744 114.653 17.217C114.698 17.1857 114.688 17.5997 114.629 17.5231L114.639 17.3561C114.608 17.3909 114.601 17.464 114.58 17.4292C114.597 17.3388 114.58 17.1857 114.535 17.217L114.559 17.0083L114.483 17.3179C114.41 17.1405 114.309 17.37 114.274 17.1335C114.274 17.1335 114.124 17.0222 114.1 17.2831C114.124 17.1231 114.041 17.0639 114.058 16.8761C114.027 17.0605 113.923 17.21 113.87 17.0187L113.877 16.9979C113.703 16.8066 113.606 17.2796 113.446 17.0465C113.46 17.2483 113.38 17.1405 113.408 17.3979C113.265 17.6588 113.105 16.8866 113.084 17.6831C113.018 17.7283 112.994 17.5022 112.956 17.4605L112.969 17.4188C112.841 17.4883 112.806 17.4987 112.705 17.4848C112.66 17.5648 112.67 17.9336 112.58 17.8501C112.601 17.7005 112.566 17.7318 112.535 17.7318C112.556 17.7075 112.559 17.6553 112.51 17.5579C112.507 17.6031 112.5 17.6309 112.489 17.6553C112.489 17.6448 112.489 17.6344 112.489 17.6205C112.437 17.6761 112.451 17.7214 112.476 17.7388C112.476 17.7597 112.476 17.7909 112.489 17.8292C112.423 17.6414 112.333 17.8501 112.316 17.5996C112.156 17.6657 112.055 17.9301 111.922 18.0379C111.902 17.9092 111.926 17.7944 111.964 17.7422L111.87 17.7944C111.86 17.6066 111.919 17.6831 111.947 17.6449C111.818 17.3492 111.728 17.9579 111.578 17.6901L111.557 17.8396L111.547 17.8153C111.55 17.8918 111.526 17.9997 111.509 18.0275C111.481 17.8675 111.488 17.6518 111.425 17.6657C111.362 17.5127 111.279 17.7527 111.216 17.8431C111.255 17.8675 111.248 17.9579 111.234 18.017C111.202 18.024 111.171 17.864 111.15 17.9336L111.133 17.7144C111.157 17.9196 111.06 17.9405 111.053 18.031C111.025 17.871 111.095 17.8883 111.098 17.7666C110.966 17.7944 111.032 17.7805 110.9 17.8083C110.837 17.9788 110.924 18.0136 110.9 18.2084C110.841 18.2536 110.788 18.4101 110.708 18.2849L110.743 18.4762C110.635 18.6327 110.566 18.6153 110.472 18.424C109.703 20.0589 110.423 20.5946 110.423 20.5946C110.789 21.0016 110.928 20.4276 111.321 20.2537L111.335 20.2467Z" fill="#20BB65"/>
<path d="M129.047 18.0066L129.064 18.091C129.064 18.0523 129.064 18.0207 129.047 18.0066Z" fill="#20BB65"/>
<path d="M135.85 18.9178C135.85 18.9178 135.857 18.9074 135.86 18.9005C135.853 18.9074 135.853 18.9109 135.85 18.9178Z" fill="#20BB65"/>
<path d="M129.795 20.824C129.795 20.824 129.789 20.8342 129.785 20.8444L129.795 20.824Z" fill="#20BB65"/>
<path d="M128.479 20.4693C128.82 20.6015 128.876 20.9876 129.255 20.8693C129.426 20.918 129.617 20.8519 129.791 20.8241C129.902 20.5389 130.013 20.8449 130.135 20.6119L130.153 20.7824C130.194 20.7023 130.24 20.6501 130.264 20.7441L130.257 20.7928C130.32 20.6745 130.368 20.7545 130.4 20.6954L130.393 20.7441L130.455 20.7302L130.438 20.7962C130.539 20.6745 130.629 20.6745 130.699 20.7441L130.716 20.5423C130.855 20.7858 130.967 20.3788 131.081 20.6641L131.074 20.7128C131.332 20.2084 131.325 21.1128 131.586 20.6362C131.554 20.6954 131.586 20.7406 131.575 20.7893C131.673 20.7441 131.774 20.7267 131.826 20.3336C131.892 20.3475 131.864 20.4623 131.85 20.6154C131.874 20.4414 131.941 20.3788 131.993 20.3754L131.961 20.4379L132.114 20.3997L132.132 20.0693C132.198 20.1736 132.097 20.4693 132.184 20.3997L132.219 20.1319C132.32 20.2015 132.327 20.6154 132.4 20.8276C132.81 21.005 133.381 20.3893 133.708 20.9249L133.694 21.1302C133.655 21.4259 133.875 20.7128 133.843 20.9876L133.913 20.8589C133.916 20.9145 133.937 20.9737 133.902 21.0363C133.944 21.0537 133.951 21.0049 133.996 20.9215L134.014 21.1128C134.16 21.2832 134.362 20.9528 134.528 21.0536C134.678 21.4641 135.141 21.1893 135.409 21.0328C135.816 20.6536 135.979 21.892 136.403 21.4537C136.403 21.4989 136.452 21.4085 136.459 21.3772L136.755 21.478C136.755 21.478 137.116 21.5789 137.402 21.3528C137.683 21.1232 137.903 20.5667 137.576 19.2379L137.597 19.1753C137.457 18.984 137.353 18.9283 137.172 19.2275C137.231 18.8309 137.04 19.1579 137.023 19.0257L137.033 18.9944C136.87 19.2762 136.866 18.7022 136.713 18.9527C136.723 18.9214 136.744 18.8135 136.769 18.8135C136.685 18.8483 136.567 18.9179 136.605 18.6883C136.417 18.7162 136.191 18.5631 136.01 18.9075L136.031 18.8448C135.923 19.0814 135.941 18.8657 135.847 18.9805C135.847 18.9492 135.847 18.9318 135.847 18.9214C135.732 19.1544 135.635 18.9214 135.562 19.0188L135.586 18.8657L135.44 18.8761L135.485 18.9179C135.395 19.3353 135.426 18.6361 135.276 18.8901C135.189 18.8205 134.935 19.7319 134.873 19.5092C134.793 19.6971 134.967 19.1962 134.873 19.3353C134.908 19.1162 134.929 19.2031 134.939 19.0257C134.852 19.1196 134.862 18.7822 134.755 18.9179L134.779 18.7474C134.615 19.0396 134.605 18.4901 134.483 18.7753C134.348 18.897 134.49 18.257 134.316 18.57L134.306 18.33C134.261 18.2848 134.222 18.6083 134.184 18.4865C134.212 18.3405 134.132 18.3578 134.184 18.2257C134.09 17.9787 133.871 18.5074 133.763 18.097C133.683 18.3752 133.624 18.1944 133.565 18.4031C133.579 18.2778 133.398 18.3579 133.534 18.1039C133.544 18.0831 133.558 18.09 133.551 18.1387L133.589 17.9717C133.541 17.6378 133.388 18.1213 133.297 18.0587C133.318 18.1178 133.356 18.1109 133.315 18.2222L133.228 18.1874L133.266 18.0483L133.144 17.9474L133.137 18.1248C133.085 18.0239 133.106 17.7248 132.998 17.9613C132.946 18.097 133.026 18.2048 132.949 18.25C132.88 18.1179 132.775 17.9196 132.671 17.85C132.654 18.0483 132.626 18.0378 132.588 18.0726L132.608 17.9022C132.459 18.1248 132.619 17.5196 132.473 17.6935L132.501 17.5752L132.421 17.93C132.268 18.257 132.414 17.5648 132.233 18.0135C132.281 17.9891 132.205 18.3961 132.156 18.3126L132.194 18.1491C132.16 18.1805 132.139 18.2466 132.121 18.2118C132.153 18.1248 132.163 17.9718 132.114 17.9926L132.174 17.7909L132.045 18.0831C132 17.8952 131.864 18.1039 131.867 17.8674C131.867 17.8674 131.735 17.7352 131.669 17.9857C131.718 17.8291 131.645 17.7596 131.694 17.5752C131.631 17.7491 131.502 17.8848 131.481 17.6865L131.492 17.6656C131.349 17.45 131.175 17.8987 131.057 17.6448C131.04 17.8465 130.974 17.7283 130.963 17.9857C130.782 18.2187 130.744 17.4326 130.598 18.2153C130.525 18.25 130.539 18.0204 130.507 17.9752L130.528 17.937C130.389 17.9857 130.351 17.9891 130.257 17.9613C130.201 18.0343 130.153 18.3996 130.076 18.2987C130.121 18.1561 130.083 18.1804 130.048 18.177C130.073 18.1561 130.083 18.104 130.052 17.9996C130.041 18.0448 130.027 18.0691 130.017 18.0935C130.017 18.083 130.017 18.0726 130.017 18.0587C129.958 18.1039 129.961 18.1492 129.986 18.1735C129.982 18.1944 129.982 18.2257 129.986 18.2674C129.951 18.0726 129.829 18.2639 129.85 18.0135C129.68 18.0552 129.537 18.2987 129.394 18.3822C129.394 18.25 129.436 18.1422 129.481 18.0935L129.38 18.1318C129.401 17.9474 129.446 18.0309 129.481 17.9961C129.398 17.6831 129.217 18.2709 129.109 17.9822L129.067 18.1248L129.06 18.1004C129.053 18.177 129.012 18.2814 128.991 18.3022C128.991 18.1387 129.029 17.93 128.963 17.9335C128.925 17.7735 128.806 17.9961 128.73 18.0761C128.765 18.1074 128.744 18.1944 128.723 18.25C128.688 18.25 128.685 18.09 128.653 18.1561L128.671 17.937C128.664 18.1422 128.563 18.1492 128.542 18.2396C128.539 18.0761 128.608 18.1039 128.626 17.9857C128.49 17.9926 128.56 17.9892 128.424 17.9961C128.337 18.1526 128.417 18.2048 128.365 18.3927C128.299 18.4309 128.226 18.577 128.163 18.4378V18.6327C128.038 18.7718 127.972 18.744 127.909 18.5422C127.405 19.2936 127.318 19.8292 127.352 20.1771C127.387 20.5249 127.54 20.6849 127.54 20.6849C127.839 21.1406 128.059 20.5945 128.473 20.4797L128.479 20.4693Z" fill="#20BB65"/>
<path d="M146.254 21.5859V21.6739C146.264 21.6387 146.268 21.6035 146.254 21.5859Z" fill="#20BB65"/>
<path d="M152.701 24.0038C152.701 24.0038 152.708 23.9966 152.715 23.9895C152.708 23.9931 152.705 23.9966 152.701 24.0038Z" fill="#20BB65"/>
<path d="M146.369 24.5007C146.369 24.5007 146.362 24.5111 146.355 24.518L146.369 24.5007Z" fill="#20BB65"/>
<path d="M145.169 23.8678C145.472 24.073 145.441 24.4591 145.834 24.4313C145.987 24.5148 146.192 24.4904 146.366 24.5008C146.536 24.2469 146.578 24.5669 146.748 24.3652L146.728 24.5356C146.787 24.466 146.842 24.4243 146.842 24.5217L146.825 24.5669C146.912 24.4626 146.94 24.553 146.985 24.5008L146.968 24.546H147.03L146.999 24.6052C147.124 24.5043 147.211 24.5252 147.263 24.6052L147.326 24.4139C147.406 24.6782 147.608 24.306 147.66 24.6052L147.642 24.6504C148.004 24.2156 147.799 25.0922 148.157 24.6887C148.112 24.7408 148.129 24.7895 148.112 24.8347C148.216 24.8139 148.317 24.8174 148.456 24.4486C148.515 24.4765 148.463 24.5843 148.418 24.7304C148.481 24.5669 148.557 24.5217 148.609 24.5286L148.564 24.5843H148.724L148.815 24.2643C148.853 24.3791 148.689 24.6469 148.79 24.5982L148.888 24.3443C148.971 24.4347 148.881 24.8417 148.905 25.0643C149.263 25.3287 149.956 24.8591 150.15 25.4574L150.088 25.6522C149.98 25.9305 150.359 25.287 150.269 25.5478L150.363 25.44C150.356 25.4956 150.359 25.5583 150.31 25.6105C150.345 25.6383 150.366 25.5931 150.429 25.5235L150.401 25.7113C150.502 25.9096 150.776 25.6348 150.912 25.7739C150.961 26.2053 151.469 26.0488 151.768 25.9583C152.255 25.687 152.112 26.9253 152.627 26.6053C152.62 26.647 152.686 26.574 152.7 26.5427L152.961 26.7131C152.961 26.7131 153.284 26.8975 153.618 26.7479C153.949 26.5948 154.3 26.1113 154.311 24.7443L154.345 24.6887C154.255 24.4695 154.168 24.3895 153.921 24.633C154.074 24.2608 153.81 24.5356 153.827 24.3999L153.844 24.3721C153.618 24.6052 153.754 24.0452 153.542 24.2539C153.559 24.226 153.608 24.1286 153.632 24.1321C153.542 24.146 153.413 24.1843 153.504 23.9686C153.316 23.9477 153.128 23.746 152.87 24.0382L152.905 23.9825C152.742 24.1843 152.811 23.9825 152.693 24.0695C152.703 24.0417 152.704 24.0243 152.71 24.0138C152.543 24.2121 152.505 23.9652 152.408 24.0382L152.467 23.8956L152.321 23.8712L152.356 23.9234C152.168 24.306 152.363 23.6347 152.157 23.8469C152.091 23.7599 151.629 24.5808 151.618 24.3512C151.496 24.5147 151.785 24.0695 151.66 24.1843C151.747 23.979 151.747 24.0695 151.799 23.8991C151.695 23.9686 151.782 23.6451 151.646 23.7495L151.712 23.5895C151.486 23.8364 151.604 23.2973 151.416 23.5442C151.253 23.6312 151.542 23.0399 151.302 23.3043L151.347 23.0712C151.312 23.0155 151.201 23.3216 151.194 23.1964C151.253 23.0607 151.173 23.0608 151.256 22.9425C151.222 22.6781 150.888 23.1442 150.874 22.7199C150.731 22.9703 150.714 22.7825 150.609 22.9703C150.651 22.852 150.456 22.8868 150.648 22.6712C150.665 22.6538 150.676 22.6642 150.658 22.7094L150.731 22.5564C150.759 22.2225 150.498 22.6537 150.429 22.5703C150.436 22.6329 150.477 22.6329 150.408 22.7338L150.331 22.6781L150.401 22.5529L150.307 22.4242L150.258 22.5946C150.23 22.4868 150.317 22.1946 150.157 22.4033C150.074 22.5216 150.129 22.6468 150.042 22.6746C150.004 22.532 149.949 22.3129 149.862 22.2224C149.799 22.4137 149.775 22.3964 149.729 22.4207L149.789 22.2572C149.59 22.4381 149.882 21.885 149.705 22.0207L149.757 21.9129L149.597 22.2398C149.375 22.5216 149.67 21.8815 149.392 22.2781C149.448 22.2677 149.277 22.6433 149.249 22.5529L149.322 22.3998C149.281 22.4207 149.246 22.4833 149.239 22.445C149.288 22.3685 149.333 22.2224 149.281 22.2329L149.385 22.0485L149.194 22.3059C149.194 22.1146 149.013 22.285 149.069 22.0555C149.069 22.0555 148.971 21.8955 148.849 22.1251C148.933 21.9859 148.877 21.899 148.964 21.732C148.867 21.8885 148.707 21.9894 148.731 21.7911L148.745 21.7737C148.655 21.5337 148.383 21.9372 148.321 21.6624C148.258 21.8537 148.22 21.725 148.154 21.9755C147.924 22.1668 148.06 21.3946 147.743 22.1251C147.663 22.1425 147.726 21.9233 147.705 21.8746L147.736 21.8398C147.59 21.8607 147.552 21.8537 147.465 21.805C147.392 21.8642 147.267 22.2085 147.211 22.0972C147.284 21.9685 147.242 21.9824 147.211 21.972C147.239 21.9581 147.263 21.9094 147.253 21.8015C147.232 21.8433 147.215 21.8676 147.197 21.885C147.197 21.8746 147.201 21.8642 147.208 21.8502C147.138 21.8816 147.135 21.9268 147.152 21.9546C147.145 21.9755 147.135 22.0033 147.131 22.0451C147.138 21.8468 146.978 22.0068 147.051 21.7668C146.877 21.7668 146.682 21.979 146.522 22.0311C146.55 21.9024 146.616 21.805 146.668 21.7702L146.561 21.7842C146.62 21.6068 146.648 21.7007 146.686 21.6728C146.672 21.3493 146.366 21.8815 146.324 21.5789L146.251 21.7111V21.6868C146.227 21.7598 146.164 21.8537 146.14 21.8711C146.171 21.7111 146.258 21.5163 146.192 21.5024C146.192 21.3354 146.025 21.5302 145.931 21.5894C145.959 21.6276 145.917 21.7076 145.886 21.7598C145.851 21.7528 145.886 21.5929 145.837 21.652L145.9 21.4433C145.848 21.645 145.75 21.6276 145.708 21.7076C145.74 21.5476 145.799 21.5894 145.844 21.4781C145.712 21.4537 145.778 21.4676 145.646 21.4433C145.527 21.5789 145.594 21.645 145.503 21.8155C145.43 21.8363 145.326 21.9616 145.298 21.8155L145.26 22.0068C145.103 22.1146 145.044 22.0694 145.027 21.8572C144.376 22.4764 144.178 22.9807 144.136 23.3286C144.094 23.6764 144.209 23.8678 144.209 23.8678C144.397 24.3861 144.731 23.899 145.155 23.8816L145.169 23.8678Z" fill="#20BB65"/>
<path d="M162.083 29.3428L162.059 29.4272C162.08 29.3956 162.094 29.3674 162.083 29.3428Z" fill="#20BB65"/>
<path d="M167.426 33.7812C167.426 33.7812 167.436 33.7778 167.443 33.7743C167.436 33.7743 167.429 33.7778 167.426 33.7812Z" fill="#20BB65"/>
<path d="M161.314 32.1533C161.314 32.1533 161.304 32.1603 161.297 32.1637L161.314 32.1533Z" fill="#20BB65"/>
<path d="M160.375 31.2037C160.605 31.482 160.455 31.8437 160.838 31.9272C160.956 32.0524 161.154 32.0907 161.314 32.1533C161.554 31.9655 161.492 32.282 161.714 32.1429L161.641 32.2994C161.718 32.2507 161.784 32.2298 161.752 32.3203L161.721 32.3585C161.836 32.289 161.833 32.3794 161.892 32.3446L161.86 32.3829L161.919 32.4003L161.871 32.449C162.02 32.3933 162.093 32.442 162.118 32.5359L162.236 32.3724C162.226 32.6507 162.532 32.3585 162.483 32.6611L162.452 32.6994C162.932 32.3968 162.452 33.169 162.921 32.8942C162.862 32.929 162.862 32.9812 162.831 33.0194C162.935 33.0299 163.029 33.0681 163.283 32.762C163.332 32.8073 163.245 32.8907 163.154 33.016C163.266 32.8803 163.353 32.8629 163.401 32.8873L163.342 32.9255L163.492 32.9742L163.68 32.7029C163.68 32.8246 163.44 33.0229 163.547 33.009L163.721 32.8003C163.77 32.9116 163.554 33.2664 163.502 33.4855C163.749 33.8473 164.556 33.6317 164.532 34.2578L164.407 34.4213C164.212 34.6474 164.786 34.1673 164.608 34.383L164.734 34.3134C164.706 34.3621 164.688 34.4212 164.626 34.456C164.65 34.4943 164.681 34.456 164.768 34.4143L164.678 34.5813C164.702 34.8004 165.054 34.6334 165.134 34.8108C165.026 35.2317 165.554 35.2561 165.861 35.2769C166.414 35.1935 165.826 36.2961 166.421 36.1778C166.396 36.2161 166.487 36.1709 166.511 36.1466L166.688 36.397C166.688 36.397 166.915 36.6857 167.276 36.6683C167.635 36.6474 168.153 36.3414 168.668 35.0682L168.72 35.03C168.72 34.79 168.664 34.6821 168.341 34.8178C168.619 34.5291 168.271 34.6822 168.337 34.5639L168.365 34.543C168.066 34.6752 168.396 34.2021 168.125 34.3169C168.149 34.2995 168.233 34.223 168.254 34.2369C168.163 34.216 168.028 34.2056 168.191 34.0386C168.021 33.9517 167.916 33.6908 167.572 33.8717L167.624 33.8334C167.398 33.9656 167.537 33.7986 167.395 33.8369C167.412 33.8125 167.419 33.7986 167.429 33.7882C167.203 33.9134 167.252 33.6664 167.137 33.7012L167.241 33.5864L167.113 33.5099L167.127 33.5725C166.817 33.8647 167.235 33.3047 166.967 33.4299C166.932 33.3221 166.212 33.9343 166.285 33.7151C166.114 33.8264 166.539 33.5099 166.382 33.5725C166.532 33.409 166.504 33.496 166.612 33.3534C166.49 33.3812 166.685 33.1099 166.518 33.1586L166.633 33.0299C166.334 33.1829 166.633 32.7168 166.368 32.8873C166.184 32.9116 166.657 32.4559 166.341 32.6229L166.462 32.4177C166.448 32.3551 166.24 32.6055 166.274 32.4803C166.375 32.3725 166.299 32.3446 166.417 32.2612C166.473 32.0003 165.996 32.3237 166.128 31.9168C165.909 32.1046 165.958 31.9168 165.794 32.0629C165.874 31.9655 165.676 31.9307 165.93 31.7915C165.951 31.7811 165.958 31.7915 165.927 31.8298L166.048 31.7115C166.184 31.402 165.794 31.7254 165.753 31.6246C165.739 31.6872 165.777 31.7011 165.68 31.7707L165.624 31.6942L165.732 31.5968L165.683 31.4437L165.582 31.5898C165.593 31.4785 165.77 31.2315 165.547 31.3741C165.429 31.4576 165.44 31.5968 165.349 31.5933C165.36 31.4437 165.377 31.2176 165.321 31.1028C165.2 31.2628 165.182 31.2385 165.134 31.2489L165.241 31.1133C164.994 31.2211 165.45 30.7932 165.238 30.8628L165.325 30.7759L165.067 31.0333C164.765 31.228 165.252 30.7202 164.862 31.002C164.918 31.0089 164.636 31.3115 164.64 31.2141L164.758 31.0958C164.709 31.1028 164.657 31.1515 164.664 31.1098C164.737 31.0506 164.827 30.9289 164.772 30.9219L164.928 30.7793L164.664 30.9602C164.723 30.7758 164.497 30.8837 164.622 30.6819C164.622 30.6819 164.577 30.4976 164.389 30.6784C164.514 30.5706 164.487 30.4732 164.622 30.341C164.48 30.4593 164.299 30.501 164.382 30.3236L164.403 30.3132C164.393 30.0523 164.007 30.348 164.034 30.0628C163.916 30.2262 163.92 30.0906 163.777 30.3063C163.499 30.4106 163.867 29.7184 163.342 30.3132C163.259 30.3028 163.387 30.1149 163.384 30.0593L163.422 30.0349C163.276 30.0071 163.241 29.9897 163.175 29.9132C163.088 29.9445 162.862 30.2367 162.845 30.1115C162.956 30.0106 162.911 30.0106 162.883 29.9932C162.914 29.9862 162.953 29.948 162.973 29.8436C162.942 29.8749 162.918 29.8923 162.897 29.9062C162.904 29.8958 162.907 29.8888 162.918 29.8749C162.841 29.8853 162.824 29.9271 162.831 29.9584C162.817 29.9758 162.799 30.0002 162.782 30.0384C162.848 29.8541 162.646 29.9549 162.793 29.7462C162.626 29.694 162.379 29.8332 162.208 29.8332C162.271 29.7184 162.365 29.6453 162.427 29.628L162.319 29.6106C162.431 29.461 162.427 29.5549 162.473 29.5445C162.556 29.2314 162.104 29.6488 162.153 29.3462L162.045 29.4505L162.052 29.4262C162.006 29.4888 161.919 29.5584 161.888 29.5688C161.968 29.4262 162.107 29.2627 162.045 29.2349C162.093 29.0749 161.874 29.2105 161.77 29.2418C161.784 29.2871 161.725 29.3532 161.676 29.3914C161.645 29.3775 161.721 29.2314 161.662 29.2766L161.784 29.0957C161.676 29.2731 161.586 29.2279 161.523 29.294C161.599 29.1514 161.645 29.2105 161.721 29.1131C161.599 29.054 161.659 29.0818 161.537 29.0227C161.384 29.1166 161.429 29.2001 161.293 29.3393C161.217 29.3393 161.081 29.4297 161.095 29.2801L161.005 29.454C160.824 29.5132 160.779 29.454 160.82 29.2488C160.013 29.6593 159.683 30.0906 159.544 30.4106C159.405 30.7306 159.46 30.9428 159.46 30.9428C159.492 31.482 159.951 31.1098 160.361 31.2107L160.375 31.2037Z" fill="#20BB65"/>
<path d="M173.784 42.6444L173.721 42.7042C173.756 42.6866 173.781 42.6655 173.784 42.6444Z" fill="#20BB65"/>
<path d="M171.388 43.4513C171.45 43.7992 171.144 44.0427 171.433 44.2931C171.471 44.4566 171.624 44.5853 171.732 44.714C172.035 44.6688 171.819 44.9088 172.083 44.8984L171.944 44.9958C172.035 44.9923 172.101 45.0062 172.031 45.0688L171.986 45.0862C172.122 45.0827 172.073 45.1592 172.139 45.1558L172.094 45.1732L172.135 45.2184L172.066 45.2358C172.222 45.2601 172.261 45.3366 172.233 45.4306L172.417 45.3506C172.268 45.5836 172.678 45.4862 172.483 45.7193L172.438 45.7367C173.005 45.7193 172.201 46.1367 172.741 46.1367C172.675 46.1367 172.647 46.1819 172.602 46.1958C172.685 46.2584 172.748 46.335 173.12 46.2028C173.137 46.2654 173.022 46.2932 172.88 46.3523C173.043 46.2932 173.13 46.321 173.158 46.3662H173.088L173.193 46.4845L173.492 46.3489C173.429 46.4532 173.12 46.4984 173.221 46.5437L173.478 46.4532C173.461 46.5715 173.092 46.7628 172.935 46.9228C172.956 47.3541 173.753 47.5907 173.405 48.1055L173.214 48.1785C172.928 48.2655 173.669 48.1611 173.405 48.2516L173.548 48.2585C173.499 48.2864 173.45 48.3281 173.381 48.3211C173.381 48.3664 173.429 48.3524 173.523 48.3594L173.356 48.4533C173.259 48.6516 173.645 48.6933 173.617 48.8846C173.301 49.1803 173.736 49.4794 173.979 49.6638C174.49 49.8899 173.398 50.4986 173.962 50.7178C173.923 50.7352 174.021 50.7456 174.056 50.7387L174.069 51.0448C174.069 51.0448 174.104 51.41 174.417 51.5909C174.73 51.7683 175.332 51.7926 176.456 51.0065H176.522C176.65 50.8013 176.664 50.683 176.32 50.6204C176.71 50.5299 176.334 50.4673 176.456 50.4047H176.487C176.163 50.3525 176.699 50.1334 176.407 50.0812C176.438 50.0812 176.546 50.0604 176.56 50.0812C176.494 50.0152 176.386 49.9316 176.616 49.8795C176.518 49.7125 176.574 49.4342 176.184 49.3994L176.25 49.3925C175.99 49.3821 176.195 49.316 176.052 49.2707C176.08 49.2603 176.094 49.2499 176.108 49.2499C175.85 49.2325 176.024 49.0516 175.906 49.0203L176.056 48.982L175.99 48.8499L175.969 48.909C175.551 48.989 176.205 48.742 175.91 48.7038C175.937 48.5959 175.002 48.7246 175.179 48.5785C174.974 48.5785 175.503 48.5403 175.339 48.509C175.555 48.4533 175.482 48.509 175.649 48.4464C175.53 48.4046 175.84 48.2759 175.673 48.2307L175.84 48.182C175.506 48.1507 176.003 47.9141 175.69 47.9176C175.523 47.8411 176.163 47.7055 175.805 47.6741L176.017 47.5663C176.038 47.5037 175.732 47.6081 175.826 47.5211C175.969 47.4863 175.92 47.4167 176.063 47.4133C176.247 47.2185 175.673 47.2428 175.996 46.9645C175.711 47.0097 175.85 46.8776 175.635 46.9124C175.753 46.8706 175.603 46.7384 175.892 46.7523C175.916 46.7523 175.916 46.7698 175.868 46.7837L176.035 46.7454C176.313 46.5541 175.809 46.6202 175.83 46.5124C175.784 46.5576 175.812 46.5889 175.69 46.5993L175.683 46.5054L175.826 46.4811L175.864 46.3245L175.701 46.3975C175.767 46.3071 176.045 46.1889 175.784 46.1958C175.642 46.2062 175.576 46.3315 175.503 46.2793C175.59 46.1575 175.718 45.9697 175.732 45.8445C175.548 45.9175 175.544 45.8862 175.496 45.8689L175.659 45.8097C175.391 45.7714 176.003 45.6427 175.784 45.5906L175.903 45.5627L175.551 45.6497C175.193 45.6601 175.871 45.4758 175.388 45.514C175.429 45.5488 175.036 45.6636 175.089 45.5836L175.252 45.5419C175.207 45.5245 175.137 45.5349 175.162 45.5036C175.252 45.4932 175.395 45.4305 175.349 45.3957L175.558 45.354L175.238 45.3714C175.384 45.2427 175.134 45.2184 175.343 45.1071C175.343 45.1071 175.398 44.9227 175.144 44.9818C175.304 44.954 175.332 44.8531 175.516 44.8114C175.332 44.8392 175.155 44.7836 175.318 44.6688H175.343C175.464 44.4357 174.984 44.4949 175.151 44.2618C174.967 44.3418 175.04 44.227 174.807 44.3418C174.515 44.2896 175.179 43.8757 174.424 44.1261C174.358 44.0775 174.563 43.9766 174.588 43.9279H174.633C174.522 43.827 174.497 43.7957 174.476 43.6948C174.386 43.6774 174.045 43.82 174.09 43.7017C174.236 43.6704 174.198 43.6461 174.184 43.6183C174.216 43.6287 174.268 43.6113 174.337 43.5348C174.292 43.5487 174.264 43.5487 174.24 43.5522C174.25 43.5487 174.257 43.5417 174.271 43.5348C174.202 43.5035 174.163 43.5348 174.156 43.5626C174.136 43.5696 174.111 43.5835 174.076 43.6079C174.226 43.4792 174 43.4652 174.226 43.3574C174.104 43.2287 173.822 43.2252 173.673 43.1417C173.784 43.0722 173.902 43.0548 173.965 43.0687L173.882 42.9991C174.052 42.9226 174.003 43.0061 174.049 43.0165C174.271 42.7834 173.673 42.9261 173.864 42.6826L173.718 42.7208L173.735 42.7034C173.666 42.7382 173.558 42.7556 173.527 42.7487C173.666 42.6617 173.864 42.5886 173.826 42.5295C173.944 42.4112 173.687 42.4252 173.579 42.4008C173.572 42.446 173.485 42.4739 173.426 42.4878C173.405 42.4599 173.544 42.3695 173.468 42.38L173.662 42.2791C173.482 42.3834 173.422 42.3 173.339 42.3278C173.475 42.2373 173.489 42.3138 173.6 42.2651C173.52 42.1504 173.562 42.2095 173.482 42.0947C173.301 42.1051 173.304 42.1991 173.116 42.2547C173.05 42.2165 172.887 42.2304 172.97 42.1052L172.807 42.213C172.619 42.1782 172.605 42.1052 172.741 41.9452C171.836 41.9278 171.342 42.1539 171.071 42.373C170.796 42.5921 170.744 42.8008 170.744 42.8008C170.514 43.2843 171.092 43.1661 171.401 43.4478L171.388 43.4513Z" fill="#20BB65"/>
<path d="M176.657 60.1373L176.572 60.1549C176.611 60.1585 176.643 60.1549 176.657 60.1373Z" fill="#20BB65"/>
<path d="M175.277 66.9724C175.277 66.9724 175.288 66.9796 175.292 66.9831C175.288 66.976 175.281 66.9724 175.277 66.9724Z" fill="#20BB65"/>
<path d="M173.827 60.8328C173.827 60.8328 173.817 60.826 173.807 60.8226L173.827 60.8328Z" fill="#20BB65"/>
<path d="M174.196 59.5634C174.067 59.8973 173.678 59.9425 173.792 60.3112C173.74 60.4747 173.803 60.6625 173.827 60.833C174.109 60.9513 173.799 61.0487 174.032 61.1739L173.862 61.1843C173.942 61.2295 173.991 61.2748 173.897 61.2922L173.848 61.2817C173.966 61.3478 173.883 61.3896 173.942 61.4244L173.893 61.4139L173.907 61.4731L173.841 61.4522C173.963 61.5565 173.956 61.6435 173.883 61.7061L174.085 61.7339C173.834 61.8557 174.238 61.9844 173.949 62.0853L173.9 62.0748C174.394 62.3531 173.49 62.2974 173.952 62.5792C173.893 62.5444 173.848 62.5688 173.799 62.5583C173.841 62.6557 173.852 62.7531 174.241 62.8331C174.224 62.8957 174.109 62.8609 173.956 62.8401C174.126 62.8748 174.185 62.941 174.185 62.9931L174.123 62.9584L174.151 63.1114L174.478 63.1496C174.37 63.2053 174.081 63.0905 174.144 63.1775L174.412 63.2331C174.339 63.327 173.921 63.3062 173.705 63.3618C173.504 63.7479 174.071 64.3567 173.511 64.628L173.309 64.5932C173.017 64.5271 173.709 64.8089 173.438 64.7532L173.556 64.8332C173.5 64.8332 173.438 64.8437 173.378 64.8054C173.358 64.8437 173.403 64.8576 173.483 64.9098H173.292C173.107 65.0315 173.42 65.2611 173.298 65.4141C172.878 65.515 173.1 65.9915 173.225 66.2733C173.556 66.722 172.307 66.715 172.686 67.1846C172.645 67.1812 172.725 67.2368 172.756 67.2508L172.617 67.5221C172.617 67.5221 172.467 67.856 172.648 68.1691C172.832 68.4786 173.344 68.7917 174.711 68.663L174.77 68.6943C174.982 68.583 175.052 68.4856 174.784 68.2595C175.17 68.3743 174.871 68.1342 175.006 68.1377L175.038 68.1517C174.78 67.9499 175.354 68.0229 175.128 67.8351C175.156 67.849 175.26 67.8873 175.26 67.9117C175.236 67.8212 175.184 67.696 175.406 67.7621C175.406 67.5673 175.587 67.3586 175.267 67.1325L175.326 67.1603C175.107 67.0212 175.316 67.0664 175.215 66.9586C175.246 66.9621 175.26 66.962 175.274 66.969C175.059 66.8264 175.299 66.7568 175.215 66.6698L175.365 66.7116L175.372 66.562L175.323 66.6038C174.919 66.4646 175.612 66.5759 175.375 66.3985C175.455 66.3185 174.579 65.9637 174.805 65.9254C174.627 65.8246 175.104 66.0542 174.975 65.9429C175.191 66.002 175.1 66.0124 175.274 66.0437C175.191 65.9463 175.525 65.995 175.403 65.8698L175.57 65.9116C175.295 65.7168 175.845 65.762 175.573 65.6089C175.466 65.4594 176.092 65.6646 175.796 65.4593L176.036 65.4733C176.085 65.4315 175.768 65.3654 175.893 65.3376C176.036 65.3793 176.026 65.2958 176.154 65.3619C176.412 65.2889 175.9 65.0211 176.321 64.9445C176.053 64.8402 176.238 64.795 176.036 64.715C176.158 64.7393 176.099 64.548 176.339 64.708C176.36 64.7219 176.349 64.7358 176.304 64.7219L176.467 64.7741C176.805 64.7497 176.335 64.555 176.408 64.4715C176.346 64.4889 176.353 64.5306 176.245 64.4784L176.286 64.395L176.422 64.4471L176.533 64.3323L176.356 64.3114C176.46 64.2662 176.76 64.3114 176.53 64.1793C176.401 64.1166 176.283 64.1897 176.245 64.1097C176.384 64.0506 176.589 63.9567 176.662 63.8523C176.464 63.821 176.478 63.7932 176.443 63.7549L176.613 63.7862C176.401 63.6193 176.996 63.821 176.833 63.661L176.947 63.6958L176.6 63.5914C176.286 63.4175 176.965 63.6054 176.53 63.3932C176.551 63.4453 176.151 63.341 176.238 63.2992L176.398 63.3445C176.37 63.3062 176.304 63.2818 176.342 63.2679C176.426 63.3027 176.579 63.3236 176.561 63.2714L176.76 63.3445L176.474 63.1984C176.662 63.1636 176.464 63.014 176.7 63.0279C176.7 63.0279 176.843 62.8992 176.593 62.8192C176.746 62.8783 176.819 62.8053 177 62.8644C176.829 62.7949 176.704 62.6557 176.902 62.6418L176.923 62.6557C177.146 62.5201 176.704 62.3218 176.968 62.2105C176.77 62.1861 176.892 62.1235 176.634 62.1026C176.412 61.9078 177.194 61.8974 176.419 61.7235C176.387 61.647 176.617 61.6678 176.662 61.6365L176.7 61.6609C176.655 61.5182 176.655 61.48 176.686 61.3826C176.617 61.3235 176.255 61.2643 176.353 61.1878C176.495 61.2365 176.471 61.1983 176.478 61.1635C176.499 61.1878 176.551 61.2017 176.655 61.1704C176.61 61.1565 176.586 61.1461 176.561 61.1322C176.572 61.1322 176.582 61.1321 176.596 61.1356C176.551 61.073 176.506 61.0765 176.481 61.1008C176.46 61.0974 176.429 61.0939 176.391 61.1008C176.586 61.0695 176.398 60.9408 176.648 60.9652C176.61 60.7913 176.37 60.6417 176.286 60.4956C176.419 60.4956 176.526 60.5408 176.572 60.586L176.537 60.4817C176.721 60.5026 176.638 60.5513 176.673 60.586C176.986 60.5026 176.401 60.3113 176.69 60.2069L176.547 60.1617L176.572 60.1547C176.495 60.1478 176.391 60.106 176.37 60.0817C176.533 60.0817 176.742 60.1234 176.739 60.0538C176.902 60.0156 176.676 59.8938 176.596 59.8173C176.565 59.8521 176.478 59.8312 176.422 59.8104C176.422 59.7756 176.582 59.7721 176.516 59.7408L176.735 59.7582C176.53 59.7512 176.519 59.6503 176.433 59.6295C176.596 59.626 176.568 59.6956 176.686 59.7129C176.68 59.5773 176.683 59.6434 176.676 59.5077C176.52 59.4208 176.467 59.5042 176.28 59.4521C176.241 59.386 176.095 59.3129 176.234 59.2503L176.039 59.2573C175.9 59.1286 175.925 59.059 176.126 58.9964C175.368 58.5025 174.829 58.4329 174.481 58.4712C174.133 58.5094 173.977 58.6624 173.977 58.6624C173.525 58.9546 174.078 59.1599 174.192 59.5669L174.196 59.5634Z" fill="#20BB65"/>
<path d="M170.337 76.7056L170.256 76.6775C170.288 76.6986 170.316 76.7127 170.337 76.7056Z" fill="#20BB65"/>
<path d="M165.676 81.843C165.676 81.843 165.679 81.8534 165.683 81.8603C165.683 81.8534 165.679 81.8465 165.676 81.843Z" fill="#20BB65"/>
<path d="M167.559 75.8147C167.559 75.8147 167.552 75.8043 167.549 75.7974L167.559 75.8147Z" fill="#20BB65"/>
<path d="M168.537 74.9278C168.248 75.14 167.9 74.98 167.799 75.3522C167.671 75.4635 167.629 75.6583 167.556 75.8148C167.733 76.0618 167.42 75.9853 167.552 76.2149L167.403 76.1349C167.448 76.2149 167.465 76.2775 167.375 76.2462L167.34 76.2149C167.406 76.3331 167.312 76.3262 167.347 76.3853L167.312 76.3505L167.291 76.4096L167.246 76.3575C167.295 76.507 167.246 76.5801 167.149 76.5975L167.305 76.7227C167.031 76.6984 167.305 77.0184 167.006 76.9558L166.971 76.921C167.246 77.4149 166.505 76.9036 166.756 77.3836C166.724 77.3245 166.672 77.321 166.638 77.2862C166.62 77.3906 166.578 77.481 166.874 77.7488C166.825 77.7941 166.745 77.7036 166.627 77.6097C166.756 77.728 166.77 77.8184 166.745 77.8636L166.711 77.801L166.655 77.9506L166.916 78.1523C166.794 78.1454 166.606 77.8949 166.617 78.0062L166.818 78.1906C166.704 78.2323 166.359 77.9993 166.144 77.9402C165.771 78.1732 165.945 78.9907 165.323 78.942L165.166 78.8098C164.947 78.6045 165.403 79.1994 165.197 79.015L165.26 79.1437C165.211 79.1159 165.152 79.095 165.121 79.0324C165.083 79.0533 165.117 79.0915 165.159 79.175L164.996 79.0776C164.773 79.095 164.923 79.4498 164.745 79.5264C164.328 79.4081 164.279 79.9333 164.251 80.2464C164.314 80.7994 163.229 80.1942 163.326 80.7925C163.288 80.7681 163.333 80.8586 163.357 80.8829L163.1 81.0603C163.1 81.0603 162.804 81.2864 162.815 81.6517C162.829 82.0134 163.142 82.5247 164.404 83.0535L164.443 83.1056C164.679 83.1056 164.787 83.057 164.655 82.7335C164.94 83.0187 164.79 82.6674 164.905 82.7335L164.926 82.7613C164.797 82.4621 165.264 82.7995 165.152 82.5282C165.17 82.556 165.243 82.6361 165.232 82.657C165.253 82.57 165.27 82.4343 165.43 82.6013C165.521 82.4343 165.778 82.3369 165.608 81.9891L165.646 82.0413C165.521 81.8152 165.681 81.9543 165.646 81.8117C165.67 81.8325 165.684 81.8395 165.691 81.8499C165.573 81.6204 165.817 81.676 165.782 81.5612L165.893 81.669L165.97 81.5438L165.907 81.5578C165.625 81.2377 166.171 81.676 166.053 81.4047C166.161 81.3769 165.577 80.636 165.792 80.716C165.688 80.542 165.991 80.9769 165.931 80.8168C166.088 80.9734 166.004 80.9386 166.144 81.0534C166.119 80.9281 166.384 81.1334 166.342 80.9664L166.467 81.0882C166.324 80.7856 166.78 81.0986 166.62 80.8342C166.603 80.6499 167.041 81.1438 166.884 80.8168L167.083 80.949C167.145 80.9386 166.905 80.7194 167.027 80.7577C167.128 80.8655 167.163 80.789 167.239 80.9108C167.497 80.9769 167.194 80.4933 167.594 80.6394C167.413 80.4133 167.594 80.469 167.462 80.2986C167.556 80.382 167.598 80.1872 167.726 80.4446C167.737 80.4655 167.726 80.4725 167.688 80.4411L167.803 80.5664C168.102 80.716 167.803 80.3125 167.904 80.2777C167.841 80.2603 167.827 80.2985 167.761 80.1977L167.841 80.149L167.932 80.2603L168.085 80.2186L167.942 80.1107C168.053 80.1246 168.29 80.316 168.158 80.0864C168.078 79.9646 167.942 79.9681 167.949 79.8811C168.098 79.8985 168.321 79.9263 168.436 79.8811C168.283 79.7524 168.307 79.7351 168.3 79.6864L168.429 79.8011C168.335 79.5507 168.739 80.0272 168.679 79.8081L168.763 79.8985L168.516 79.6307C168.335 79.3176 168.822 79.829 168.554 79.4255C168.544 79.4811 168.258 79.1854 168.352 79.1924L168.467 79.3141C168.464 79.2654 168.418 79.2133 168.457 79.2203C168.512 79.2933 168.631 79.3907 168.641 79.335L168.773 79.4985L168.606 79.2272C168.787 79.2967 168.693 79.0637 168.888 79.1994C168.888 79.1994 169.076 79.1646 168.902 78.9663C169.003 79.095 169.104 79.0742 169.229 79.2168C169.118 79.0672 169.083 78.8828 169.257 78.9767L169.267 78.9976C169.528 78.9976 169.257 78.6046 169.535 78.6428C169.379 78.5176 169.514 78.528 169.305 78.375C169.212 78.0932 169.89 78.4932 169.319 77.9402C169.333 77.8602 169.518 77.9958 169.57 77.9924L169.591 78.0306C169.626 77.888 169.646 77.8497 169.723 77.7871C169.695 77.7002 169.413 77.4601 169.539 77.4462C169.632 77.561 169.636 77.5158 169.657 77.4914C169.66 77.5227 169.699 77.561 169.803 77.5888C169.772 77.5541 169.758 77.5297 169.744 77.5088C169.754 77.5158 169.761 77.5193 169.772 77.5297C169.768 77.4532 169.726 77.4323 169.692 77.4393C169.674 77.4254 169.65 77.408 169.615 77.3871C169.799 77.4636 169.705 77.2549 169.907 77.408C169.966 77.241 169.834 76.9871 169.845 76.8166C169.956 76.8862 170.026 76.9801 170.039 77.0427L170.064 76.9384C170.21 77.0532 170.113 77.0497 170.123 77.0949C170.433 77.1888 170.036 76.7227 170.339 76.7819L170.238 76.6705L170.262 76.6775C170.199 76.6288 170.133 76.5418 170.126 76.5105C170.266 76.594 170.422 76.7401 170.457 76.681C170.613 76.7331 170.488 76.5105 170.46 76.4027C170.415 76.4166 170.352 76.3505 170.314 76.3053C170.332 76.274 170.471 76.3575 170.432 76.2949L170.61 76.4236C170.436 76.3088 170.485 76.2183 170.419 76.1557C170.561 76.2357 170.499 76.2809 170.593 76.3609C170.659 76.2392 170.624 76.2984 170.69 76.1766C170.599 76.0201 170.516 76.0653 170.38 75.9227C170.38 75.8461 170.297 75.707 170.446 75.7244L170.276 75.627C170.224 75.4426 170.283 75.4009 170.488 75.4496C170.099 74.6322 169.671 74.2947 169.358 74.1487C169.041 74.0026 168.829 74.0512 168.829 74.0512C168.293 74.0617 168.655 74.5243 168.544 74.9313L168.537 74.9278Z" fill="#20BB65"/>
<path d="M157.295 88.5814L157.225 88.5286C157.246 88.5602 157.27 88.5814 157.295 88.5814Z" fill="#20BB65"/>
<path d="M151.541 92.3096C151.541 92.3096 151.541 92.3199 151.544 92.3268C151.544 92.3199 151.544 92.313 151.541 92.3096Z" fill="#20BB65"/>
<path d="M154.894 86.921C154.894 86.921 154.89 86.9074 154.887 86.9006V86.921H154.894Z" fill="#20BB65"/>
<path d="M156.123 86.3405C155.778 86.4623 155.486 86.2049 155.274 86.5388C155.114 86.6118 155.01 86.7892 154.895 86.9214C154.992 87.2101 154.714 87.0502 154.77 87.3076L154.644 87.1893C154.665 87.2762 154.665 87.3458 154.585 87.2901L154.561 87.2484C154.592 87.3806 154.502 87.3493 154.519 87.4154L154.495 87.3736L154.457 87.4258L154.425 87.3632C154.425 87.5232 154.359 87.5788 154.262 87.5719L154.38 87.7354C154.116 87.638 154.297 88.0241 154.022 87.8815L153.997 87.8397C154.13 88.3893 153.545 87.7006 153.66 88.2328C153.646 88.1667 153.594 88.1528 153.57 88.1076C153.524 88.205 153.462 88.2815 153.674 88.6154C153.615 88.6467 153.563 88.5389 153.472 88.4172C153.566 88.5633 153.559 88.6537 153.521 88.692L153.504 88.6224L153.41 88.7511L153.611 89.012C153.493 88.9737 153.378 88.685 153.357 88.7928L153.504 89.0224C153.382 89.0363 153.107 88.7233 152.912 88.612C152.484 88.7476 152.453 89.5825 151.855 89.3911L151.733 89.2276C151.569 88.9772 151.869 89.6625 151.712 89.4364L151.743 89.5755C151.705 89.5372 151.649 89.5024 151.636 89.4329C151.594 89.4468 151.618 89.4885 151.636 89.5824L151.5 89.4502C151.277 89.4189 151.34 89.7981 151.145 89.8294C150.762 89.6172 150.592 90.1251 150.491 90.4207C150.429 90.9738 149.496 90.1459 149.462 90.7547C149.43 90.7234 149.455 90.8208 149.472 90.8486L149.18 90.9668C149.18 90.9668 148.839 91.1269 148.773 91.4886C148.707 91.8469 148.912 92.4104 150.029 93.1965L150.053 93.2557C150.282 93.3079 150.397 93.2835 150.338 92.9391C150.554 93.2765 150.484 92.9044 150.582 92.9948L150.596 93.0261C150.533 92.7061 150.916 93.1374 150.863 92.8487C150.877 92.8765 150.929 92.9739 150.912 92.9913C150.95 92.9113 150.996 92.7826 151.117 92.9809C151.243 92.8383 151.51 92.8035 151.42 92.4243L151.444 92.4835C151.371 92.233 151.496 92.407 151.496 92.2609C151.514 92.2852 151.528 92.2956 151.535 92.3061C151.469 92.0556 151.691 92.1669 151.688 92.0452L151.771 92.1774L151.876 92.073H151.813C151.611 91.6973 152.043 92.2469 151.987 91.9582C152.098 91.9548 151.698 91.099 151.89 91.2277C151.827 91.0329 152.022 91.5269 152.001 91.3599C152.119 91.5477 152.046 91.4956 152.15 91.6382C152.154 91.513 152.366 91.7739 152.363 91.5999L152.456 91.746C152.387 91.419 152.756 91.8295 152.662 91.5338C152.686 91.353 152.996 91.9304 152.923 91.5791L153.086 91.753C153.149 91.7565 152.968 91.4886 153.076 91.5547C153.149 91.6834 153.197 91.6173 153.243 91.753C153.476 91.8817 153.295 91.3356 153.646 91.5756C153.524 91.3112 153.688 91.4121 153.597 91.2138C153.667 91.3182 153.754 91.1408 153.817 91.4225C153.82 91.4469 153.806 91.4504 153.782 91.4086L153.862 91.5582C154.116 91.7773 153.917 91.3147 154.025 91.3043C153.97 91.273 153.945 91.3043 153.907 91.193L153.994 91.1651L154.053 91.2973H154.21L154.098 91.1547C154.203 91.1964 154.384 91.4399 154.31 91.186C154.265 91.0503 154.13 91.019 154.157 90.9321C154.297 90.9877 154.505 91.0712 154.627 91.0538C154.512 90.8903 154.54 90.8799 154.544 90.8312L154.641 90.9738C154.61 90.706 154.884 91.2695 154.877 91.0469L154.933 91.1547L154.763 90.8347C154.665 90.4903 155.006 91.106 154.85 90.6469C154.825 90.6956 154.624 90.3373 154.714 90.3686L154.794 90.5182C154.801 90.4729 154.773 90.4068 154.808 90.4242C154.843 90.5112 154.933 90.6329 154.954 90.5842L155.041 90.7756L154.947 90.4695C155.104 90.5842 155.069 90.3338 155.222 90.5182C155.222 90.5182 155.406 90.5355 155.295 90.299C155.358 90.4486 155.458 90.4555 155.542 90.626C155.476 90.452 155.486 90.2677 155.632 90.4033V90.4277C155.886 90.5008 155.726 90.0451 155.984 90.1633C155.865 89.9999 155.994 90.0485 155.834 89.8433C155.82 89.5476 156.359 90.1216 155.963 89.4294C155.998 89.3564 156.137 89.5372 156.189 89.5511L156.199 89.5964C156.272 89.4677 156.3 89.4398 156.391 89.4015C156.391 89.3111 156.185 89.0015 156.307 89.0259C156.366 89.1615 156.38 89.1198 156.408 89.1024C156.405 89.1337 156.429 89.1824 156.519 89.2381C156.498 89.1963 156.491 89.1685 156.485 89.1441C156.491 89.1546 156.498 89.1616 156.505 89.172C156.519 89.0989 156.488 89.0676 156.457 89.0641C156.446 89.0433 156.429 89.0224 156.398 88.9946C156.551 89.1198 156.519 88.8937 156.669 89.0989C156.77 88.9598 156.721 88.6781 156.777 88.5215C156.864 88.6189 156.902 88.7337 156.898 88.7963L156.951 88.7024C157.055 88.8554 156.965 88.8207 156.961 88.8694C157.229 89.0537 156.985 88.4867 157.253 88.6363L157.191 88.5006L157.211 88.5146C157.166 88.452 157.132 88.3476 157.132 88.3163C157.239 88.438 157.344 88.6259 157.392 88.5772C157.525 88.6746 157.469 88.4276 157.476 88.3163C157.431 88.3163 157.389 88.2363 157.368 88.1772C157.392 88.1528 157.5 88.2745 157.483 88.2015L157.612 88.3789C157.483 88.2189 157.552 88.1458 157.514 88.0658C157.622 88.1876 157.552 88.2084 157.615 88.3163C157.712 88.2224 157.664 88.2676 157.761 88.1772C157.723 87.9998 157.632 88.0171 157.549 87.8397C157.577 87.7702 157.535 87.6102 157.671 87.6762L157.538 87.5301C157.545 87.3388 157.615 87.318 157.796 87.4293C157.688 86.5319 157.403 86.0692 157.152 85.8257C156.902 85.5857 156.679 85.5649 156.679 85.5649C156.158 85.4118 156.345 85.9718 156.105 86.3266L156.123 86.3405Z" fill="#20BB65"/>
<path d="M142.032 97.2426L141.973 97.1793C141.99 97.2145 142.008 97.2391 142.032 97.2426Z" fill="#20BB65"/>
<path d="M141.276 94.8279C140.914 94.8871 140.67 94.581 140.403 94.8732C140.232 94.9184 140.097 95.0714 139.961 95.1827C140.006 95.4853 139.759 95.2766 139.77 95.541L139.669 95.4053C139.672 95.4958 139.662 95.5653 139.592 95.4958L139.575 95.4506C139.582 95.5862 139.498 95.541 139.502 95.6071L139.484 95.5619L139.439 95.6071L139.422 95.541C139.397 95.6975 139.317 95.7428 139.223 95.7184L139.31 95.8993C139.067 95.7602 139.178 96.1671 138.931 95.9828L138.914 95.9375C138.949 96.5011 138.493 95.7219 138.51 96.2645C138.51 96.1985 138.458 96.1741 138.441 96.1289C138.382 96.2193 138.302 96.2819 138.458 96.6506C138.396 96.6715 138.361 96.5567 138.291 96.4211C138.361 96.5811 138.333 96.668 138.291 96.6993V96.6298L138.173 96.7411L138.326 97.0332C138.218 96.9776 138.152 96.6715 138.114 96.7758L138.222 97.0263C138.1 97.0194 137.881 96.6646 137.707 96.5185C137.262 96.5776 137.088 97.3985 136.531 97.1098L136.437 96.9255C136.319 96.6507 136.5 97.3776 136.382 97.1271L136.388 97.2698C136.357 97.2246 136.308 97.1829 136.305 97.1133C136.26 97.1203 136.277 97.1655 136.281 97.2594L136.169 97.1063C135.957 97.0368 135.954 97.4229 135.755 97.4229C135.415 97.1515 135.161 97.6246 135.011 97.896C134.858 98.4316 134.075 97.4611 133.936 98.056C133.912 98.0212 133.919 98.1186 133.929 98.1499L133.623 98.2194C133.623 98.2194 133.258 98.3238 133.136 98.6682C133.014 99.0125 133.122 99.6004 134.096 100.56L134.11 100.623C134.329 100.71 134.444 100.706 134.444 100.359C134.601 100.727 134.594 100.348 134.677 100.456L134.684 100.487C134.677 100.16 134.98 100.651 134.98 100.355C134.987 100.386 135.025 100.491 135.004 100.505C135.056 100.432 135.119 100.31 135.209 100.529C135.355 100.407 135.627 100.421 135.599 100.032L135.616 100.094C135.588 99.8369 135.682 100.028 135.703 99.8821C135.717 99.91 135.728 99.9204 135.731 99.9343C135.707 99.6769 135.908 99.823 135.926 99.7047L135.985 99.8473L136.103 99.7638L136.041 99.7534C135.902 99.3499 136.235 99.9656 136.232 99.6699C136.34 99.6838 136.089 98.776 136.256 98.9325C136.228 98.7308 136.336 99.249 136.347 99.0821C136.43 99.2873 136.368 99.2246 136.448 99.3812C136.472 99.2594 136.635 99.5516 136.663 99.3812L136.729 99.5413C136.715 99.2073 137.011 99.6734 136.969 99.3673C137.025 99.1934 137.234 99.8161 137.22 99.4578L137.352 99.656C137.415 99.6734 137.279 99.3778 137.376 99.4613C137.429 99.6004 137.488 99.5447 137.509 99.6873C137.717 99.8543 137.63 99.2838 137.933 99.583C137.86 99.3047 138.003 99.4299 137.947 99.2177C137.999 99.3325 138.114 99.1725 138.128 99.4578C138.128 99.4821 138.114 99.4821 138.096 99.4369L138.149 99.5969C138.361 99.8578 138.246 99.3673 138.354 99.3743C138.305 99.3326 138.277 99.3603 138.256 99.2421L138.347 99.2281L138.385 99.3673L138.542 99.3951L138.458 99.2386C138.552 99.2977 138.691 99.569 138.663 99.3081C138.639 99.1655 138.514 99.1099 138.556 99.0333C138.681 99.1099 138.872 99.2316 138.997 99.2351C138.91 99.0542 138.942 99.0508 138.952 99.0021L139.022 99.1621C139.039 98.8942 139.21 99.496 139.244 99.2734L139.283 99.3881L139.171 99.0438C139.136 98.6855 139.363 99.3534 139.29 98.8768C139.258 98.922 139.119 98.5325 139.203 98.5812L139.255 98.7412C139.269 98.696 139.255 98.6264 139.286 98.6508C139.303 98.7412 139.373 98.8769 139.404 98.8351L139.456 99.0403L139.418 98.7238C139.55 98.8629 139.561 98.6125 139.679 98.8177C139.679 98.8177 139.86 98.8664 139.787 98.6159C139.822 98.7759 139.923 98.8003 139.975 98.9812C139.937 98.8003 139.982 98.6194 140.1 98.7794V98.8038C140.333 98.9186 140.253 98.442 140.486 98.602C140.399 98.4211 140.514 98.4907 140.396 98.2611C140.434 97.9689 140.862 98.6264 140.594 97.8785C140.639 97.8125 140.744 98.0142 140.796 98.0385V98.0837C140.89 97.9724 140.921 97.9481 141.018 97.9272C141.032 97.8368 140.89 97.4959 141.004 97.5446C141.039 97.6907 141.06 97.6524 141.088 97.6385C141.077 97.6698 141.095 97.7185 141.175 97.7916C141.161 97.7464 141.157 97.7185 141.157 97.6942C141.161 97.7046 141.168 97.7115 141.175 97.7254C141.203 97.6559 141.175 97.6177 141.144 97.6107C141.137 97.5898 141.123 97.5655 141.098 97.5307C141.227 97.6803 141.237 97.4542 141.345 97.6803C141.47 97.5585 141.471 97.2767 141.551 97.1306C141.617 97.2419 141.637 97.3602 141.62 97.4229L141.69 97.3394C141.766 97.5098 141.683 97.4611 141.672 97.5063C141.902 97.7324 141.763 97.1341 141.999 97.3289L141.964 97.1829L141.982 97.2003C141.951 97.1307 141.933 97.0194 141.94 96.988C142.024 97.1272 142.097 97.3289 142.152 97.2906C142.267 97.4124 142.257 97.1585 142.281 97.0472C142.236 97.0367 142.208 96.9498 142.201 96.8906C142.229 96.8732 142.316 97.0124 142.309 96.9359L142.403 97.1341C142.305 96.9532 142.389 96.8941 142.361 96.8072C142.448 96.9463 142.371 96.9567 142.417 97.0715C142.528 96.9985 142.472 97.0332 142.584 96.9602C142.577 96.7793 142.483 96.7794 142.434 96.5881C142.472 96.522 142.462 96.3584 142.584 96.4489L142.479 96.2819C142.521 96.0941 142.594 96.0871 142.751 96.2297C142.806 95.3253 142.615 94.821 142.41 94.5357C142.204 94.254 141.992 94.1948 141.992 94.1948C141.505 93.9514 141.589 94.5357 141.286 94.8418L141.276 94.8279Z" fill="#20BB65"/>
<path d="M125.565 103.264L125.516 103.194C125.526 103.229 125.54 103.26 125.565 103.264Z" fill="#20BB65"/>
<path d="M125.196 100.762C124.827 100.762 124.636 100.425 124.326 100.672C124.149 100.689 123.992 100.821 123.839 100.908C123.839 101.214 123.624 100.971 123.596 101.232L123.516 101.079C123.505 101.169 123.481 101.235 123.429 101.155L123.419 101.107C123.405 101.242 123.332 101.183 123.321 101.249L123.311 101.2L123.259 101.235L123.252 101.166C123.203 101.319 123.119 101.346 123.029 101.308L123.085 101.503C122.865 101.326 122.911 101.747 122.698 101.527L122.688 101.479C122.636 102.042 122.305 101.2 122.239 101.74C122.246 101.673 122.205 101.642 122.194 101.593C122.121 101.673 122.034 101.726 122.128 102.108C122.062 102.119 122.045 102 121.999 101.854C122.041 102.021 122.003 102.108 121.958 102.129L121.965 102.06L121.836 102.154L121.944 102.463C121.843 102.39 121.829 102.08 121.773 102.174L121.839 102.439C121.721 102.414 121.561 102.028 121.411 101.858C120.963 101.847 120.664 102.633 120.156 102.258L120.093 102.063C120.017 101.774 120.083 102.519 120.006 102.254L119.992 102.397C119.968 102.348 119.926 102.3 119.937 102.227C119.891 102.227 119.902 102.272 119.891 102.369L119.804 102.199C119.606 102.098 119.54 102.48 119.349 102.449C119.053 102.129 118.73 102.557 118.542 102.804C118.309 103.312 117.683 102.23 117.456 102.797C117.436 102.759 117.429 102.856 117.436 102.891L117.123 102.912C117.123 102.912 116.747 102.957 116.573 103.281C116.399 103.601 116.416 104.199 117.23 105.294V105.361C117.436 105.482 117.554 105.493 117.606 105.148C117.703 105.538 117.756 105.159 117.822 105.281V105.312C117.867 104.988 118.09 105.517 118.135 105.228C118.135 105.26 118.159 105.368 118.135 105.381C118.197 105.315 118.281 105.208 118.333 105.434C118.497 105.336 118.761 105.392 118.796 105.002L118.803 105.068C118.813 104.808 118.876 105.013 118.921 104.874C118.931 104.901 118.938 104.915 118.942 104.929C118.959 104.672 119.137 104.846 119.168 104.731L119.206 104.881L119.335 104.815L119.276 104.794C119.203 104.373 119.439 105.034 119.477 104.741C119.582 104.773 119.477 103.834 119.617 104.018C119.617 103.813 119.648 104.345 119.683 104.178C119.735 104.394 119.683 104.321 119.738 104.491C119.784 104.373 119.898 104.686 119.951 104.522L119.992 104.689C120.031 104.355 120.25 104.863 120.253 104.554C120.333 104.39 120.444 105.037 120.486 104.679L120.584 104.898C120.643 104.922 120.556 104.609 120.636 104.707C120.667 104.853 120.733 104.804 120.733 104.95C120.911 105.145 120.914 104.571 121.171 104.912C121.14 104.623 121.265 104.769 121.241 104.554C121.276 104.675 121.411 104.533 121.384 104.821C121.384 104.846 121.366 104.846 121.356 104.797L121.384 104.964C121.554 105.253 121.516 104.752 121.62 104.776C121.578 104.728 121.547 104.752 121.544 104.634H121.638L121.651 104.78L121.801 104.828L121.742 104.661C121.825 104.735 121.919 105.023 121.933 104.759C121.933 104.616 121.818 104.543 121.871 104.47C121.985 104.568 122.156 104.714 122.274 104.738C122.215 104.547 122.246 104.547 122.267 104.498L122.312 104.665C122.368 104.404 122.445 105.023 122.514 104.811L122.532 104.929L122.476 104.571C122.497 104.213 122.618 104.905 122.618 104.421C122.58 104.46 122.504 104.056 122.577 104.115L122.605 104.282C122.625 104.241 122.618 104.171 122.65 104.199C122.653 104.289 122.698 104.439 122.737 104.397L122.758 104.606L122.768 104.286C122.879 104.442 122.928 104.199 123.012 104.421C123.012 104.421 123.182 104.498 123.151 104.237C123.161 104.401 123.255 104.439 123.279 104.627C123.272 104.442 123.342 104.268 123.436 104.446V104.47C123.645 104.62 123.641 104.136 123.843 104.331C123.784 104.14 123.888 104.223 123.805 103.98C123.888 103.694 124.208 104.415 124.059 103.632C124.114 103.573 124.187 103.792 124.232 103.82L124.226 103.865C124.337 103.768 124.368 103.75 124.469 103.743C124.497 103.656 124.406 103.298 124.514 103.361C124.525 103.51 124.553 103.475 124.584 103.465C124.57 103.493 124.577 103.545 124.643 103.628C124.636 103.583 124.639 103.552 124.643 103.528C124.643 103.538 124.65 103.548 124.653 103.562C124.692 103.5 124.671 103.458 124.643 103.444C124.639 103.423 124.629 103.395 124.612 103.357C124.716 103.524 124.758 103.305 124.831 103.545C124.973 103.444 125.015 103.166 125.12 103.034C125.168 103.155 125.168 103.274 125.144 103.333L125.224 103.26C125.273 103.441 125.199 103.378 125.182 103.423C125.373 103.684 125.328 103.068 125.533 103.301L125.52 103.152L125.533 103.173C125.513 103.096 125.513 102.988 125.526 102.957C125.589 103.107 125.627 103.319 125.687 103.291C125.78 103.427 125.808 103.176 125.85 103.072C125.808 103.054 125.794 102.964 125.794 102.905C125.826 102.891 125.888 103.04 125.892 102.967L125.954 103.176C125.885 102.981 125.975 102.94 125.965 102.849C126.027 102.999 125.954 102.999 125.979 103.117C126.1 103.061 126.041 103.089 126.163 103.034C126.187 102.856 126.093 102.839 126.073 102.644C126.121 102.585 126.139 102.421 126.243 102.529L126.166 102.348C126.236 102.171 126.309 102.171 126.441 102.341C126.64 101.458 126.528 100.926 126.372 100.616C126.215 100.303 126.013 100.213 126.013 100.213C125.568 99.8925 125.561 100.487 125.213 100.741L125.196 100.762Z" fill="#20BB65"/>
<path d="M108.371 106.683L108.336 106.606C108.339 106.645 108.35 106.676 108.371 106.683Z" fill="#20BB65"/>
<path d="M101.554 107.333C101.554 107.333 101.554 107.343 101.547 107.35C101.55 107.343 101.554 107.336 101.554 107.333Z" fill="#20BB65"/>
<path d="M107.023 104.094C107.023 104.094 107.023 104.08 107.026 104.074L107.02 104.094H107.023Z" fill="#20BB65"/>
<path d="M108.387 104.157C108.022 104.102 107.886 103.74 107.542 103.935C107.364 103.924 107.19 104.032 107.023 104.095C106.975 104.397 106.801 104.122 106.731 104.38L106.676 104.22C106.651 104.307 106.62 104.369 106.578 104.282V104.234C106.54 104.366 106.477 104.296 106.46 104.362V104.314L106.401 104.341V104.272C106.331 104.415 106.244 104.432 106.161 104.38L106.189 104.582C105.997 104.373 105.98 104.797 105.803 104.547V104.498C105.663 105.048 105.465 104.168 105.316 104.689C105.333 104.623 105.295 104.588 105.291 104.536C105.208 104.602 105.114 104.641 105.149 105.037C105.082 105.037 105.082 104.919 105.062 104.766C105.079 104.94 105.027 105.016 104.978 105.03L104.995 104.961L104.853 105.034L104.912 105.357C104.825 105.27 104.856 104.961 104.787 105.048L104.811 105.319C104.696 105.277 104.595 104.87 104.474 104.682C104.028 104.606 103.618 105.333 103.173 104.888L103.138 104.686C103.107 104.39 103.058 105.135 103.023 104.86L102.985 104.999C102.968 104.947 102.936 104.891 102.954 104.822C102.908 104.815 102.912 104.863 102.888 104.954L102.828 104.773C102.648 104.641 102.526 105.009 102.338 104.95C102.094 104.588 101.708 104.961 101.486 105.18C101.18 105.646 100.724 104.481 100.414 105.009C100.4 104.968 100.376 105.065 100.38 105.1L100.067 105.072C100.067 105.072 99.6874 105.062 99.4648 105.35C99.2456 105.642 99.1691 106.234 99.8091 107.441V107.507C99.9865 107.656 100.098 107.688 100.202 107.354C100.24 107.754 100.348 107.389 100.394 107.514V107.545C100.48 107.232 100.623 107.789 100.71 107.51C100.71 107.542 100.71 107.653 100.689 107.66C100.762 107.604 100.86 107.51 100.877 107.743C101.051 107.674 101.308 107.764 101.399 107.389V107.455C101.444 107.201 101.475 107.413 101.541 107.281C101.548 107.312 101.552 107.326 101.552 107.34C101.608 107.086 101.757 107.288 101.806 107.18L101.82 107.333L101.959 107.288L101.903 107.256C101.893 106.829 102.028 107.517 102.112 107.236C102.213 107.284 102.248 106.338 102.359 106.54C102.394 106.338 102.338 106.867 102.401 106.707C102.418 106.929 102.376 106.85 102.408 107.023C102.47 106.912 102.536 107.243 102.613 107.086L102.627 107.26C102.717 106.936 102.853 107.472 102.905 107.166C103.009 107.016 103.02 107.674 103.114 107.326L103.176 107.556C103.232 107.59 103.19 107.267 103.256 107.375C103.263 107.521 103.336 107.486 103.315 107.629C103.462 107.848 103.552 107.281 103.754 107.656C103.768 107.368 103.868 107.531 103.875 107.316C103.889 107.441 104.049 107.323 103.973 107.601C103.966 107.625 103.952 107.622 103.948 107.573V107.743C104.074 108.056 104.112 107.552 104.213 107.594C104.178 107.542 104.143 107.559 104.157 107.441L104.248 107.455L104.241 107.601L104.38 107.674L104.345 107.5C104.418 107.583 104.467 107.883 104.519 107.625C104.54 107.483 104.435 107.392 104.502 107.333C104.599 107.444 104.745 107.615 104.86 107.66C104.832 107.462 104.86 107.465 104.888 107.423L104.905 107.597C105.002 107.347 104.982 107.973 105.082 107.771V107.893V107.531C105.155 107.18 105.173 107.883 105.246 107.406C105.201 107.441 105.19 107.027 105.253 107.096V107.263C105.281 107.225 105.288 107.156 105.312 107.187C105.302 107.277 105.326 107.43 105.368 107.396L105.357 107.608L105.416 107.295C105.5 107.465 105.587 107.232 105.636 107.465C105.636 107.465 105.792 107.566 105.799 107.305C105.785 107.469 105.872 107.521 105.869 107.709C105.889 107.524 105.987 107.364 106.049 107.552L106.043 107.573C106.227 107.754 106.296 107.274 106.47 107.5C106.443 107.302 106.533 107.403 106.488 107.149C106.613 106.881 106.822 107.639 106.794 106.843C106.86 106.794 106.895 107.02 106.936 107.055L106.926 107.1C107.048 107.02 107.086 107.01 107.183 107.016C107.222 106.933 107.19 106.568 107.284 106.644C107.274 106.794 107.305 106.763 107.337 106.759C107.319 106.783 107.319 106.839 107.371 106.933C107.371 106.888 107.378 106.86 107.385 106.836C107.385 106.846 107.389 106.856 107.392 106.87C107.441 106.811 107.427 106.77 107.399 106.752C107.399 106.731 107.392 106.7 107.382 106.662C107.458 106.843 107.535 106.63 107.57 106.881C107.726 106.804 107.81 106.533 107.935 106.422C107.966 106.547 107.949 106.665 107.914 106.721L108.004 106.662C108.025 106.846 107.963 106.776 107.938 106.815C108.088 107.1 108.137 106.488 108.303 106.745L108.314 106.596L108.324 106.62C108.314 106.543 108.331 106.432 108.349 106.408C108.387 106.568 108.394 106.78 108.457 106.763C108.526 106.912 108.596 106.665 108.651 106.571C108.61 106.55 108.613 106.456 108.62 106.397C108.651 106.387 108.69 106.547 108.707 106.474L108.738 106.689C108.7 106.488 108.797 106.456 108.797 106.366C108.836 106.526 108.763 106.512 108.77 106.634C108.898 106.596 108.836 106.616 108.964 106.578C109.013 106.404 108.926 106.373 108.937 106.178C108.992 106.129 109.034 105.969 109.121 106.091L109.072 105.9C109.17 105.736 109.243 105.747 109.344 105.935C109.674 105.093 109.643 104.55 109.538 104.22C109.431 103.889 109.243 103.768 109.243 103.768C108.853 103.385 108.752 103.969 108.373 104.171L108.387 104.157Z" fill="#20BB65"/>
</svg>
