<svg width="91" height="68" viewBox="0 0 91 68" fill="none" xmlns="http://www.w3.org/2000/svg">
<path d="M72.5742 54.3832C72.6403 54.4736 72.776 54.3623 72.7412 54.3762C72.7307 54.3136 72.602 54.3832 72.5742 54.3832Z" fill="#00B14F"/>
<path d="M73.3599 56.7522C73.3177 56.6572 73.3072 56.8436 73.3599 56.7522Z" fill="#00B14F"/>
<path d="M73.7266 58.0215C73.7787 58.011 73.8448 57.931 73.904 57.8997L73.8135 57.8267C73.7961 57.8858 73.7961 57.9902 73.7266 58.0215Z" fill="#00B14F"/>
<path d="M73.9062 57.8998L74.0419 58.0112C74.0071 57.8825 73.9584 57.872 73.9062 57.8998Z" fill="#00B14F"/>
<path d="M73.9121 58.5642L73.7695 58.5259L73.9956 58.6059L73.9121 58.5642Z" fill="#00B14F"/>
<path d="M74.0575 58.9156C73.9392 58.8912 73.9253 59.0546 73.8418 59.0129C73.894 59.1033 74.0053 59.159 74.1062 59.2077C74.0366 59.1416 74.0192 59.0547 74.0575 58.9156Z" fill="#00B14F"/>
<path d="M74.2605 59.2945C74.2222 59.2632 74.1666 59.2353 74.1074 59.2075C74.1457 59.2423 74.1909 59.2736 74.2605 59.2945Z" fill="#00B14F"/>
<path d="M73.998 58.4249L74.1198 58.3205C74.1198 58.3205 74.1094 58.2823 74.1024 58.2649C74.0746 58.2858 74.005 58.3344 73.998 58.4249Z" fill="#00B14F"/>
<path d="M74.1246 58.3137H74.1211C74.1385 58.3798 74.1489 58.4215 74.1559 58.4389C74.1524 58.4215 74.142 58.3833 74.1246 58.3137Z" fill="#00B14F"/>
<path d="M74.0996 58.2476V58.2619C74.0996 58.2619 74.1211 58.2476 74.0996 58.2476Z" fill="#00B14F"/>
<path d="M74.0938 57.9903L74.2468 58.1156L74.2259 57.9556C74.1911 57.973 74.1459 58.0181 74.0938 57.9903Z" fill="#00B14F"/>
<path d="M74.3204 58.1753L74.25 58.1155L74.257 58.1788L74.3204 58.1753Z" fill="#00B14F"/>
<path d="M74.3007 58.992C74.3842 59.0337 74.4155 59.1033 74.4538 59.1798C74.4538 59.0859 74.4364 58.9885 74.4051 58.905C74.3564 58.9085 74.266 58.8981 74.3007 58.9885V58.992Z" fill="#00B14F"/>
<path d="M74.2285 58.6582L74.2423 58.6684C74.2423 58.6684 74.2525 58.6479 74.2285 58.6582Z" fill="#00B14F"/>
<path d="M74.7302 59.9706C74.7302 59.9706 74.7448 59.956 74.7521 59.9487L74.7266 59.956V59.9743L74.7302 59.9706Z" fill="#00B14F"/>
<path d="M74.4232 58.8842C74.4266 58.8112 74.3779 58.7833 74.3223 58.7625C74.3536 58.8042 74.3814 58.8529 74.4023 58.9086C74.4231 58.9086 74.4371 58.9051 74.4232 58.8842Z" fill="#00B14F"/>
<path d="M74.4029 59.4929C74.4203 59.4476 74.4307 59.4025 74.4411 59.3538C74.4098 59.4025 74.3611 59.4929 74.4029 59.4929Z" fill="#00B14F"/>
<path d="M74.2109 58.7072L74.1997 58.6997C74.1773 58.7333 74.1885 58.7258 74.2109 58.7072Z" fill="#00B14F"/>
<path d="M74.207 58.7067C74.2383 58.7345 74.2835 58.7484 74.3218 58.7623C74.2975 58.7275 74.2696 58.6962 74.2383 58.6719C74.2314 58.6823 74.2175 58.6963 74.207 58.7067Z" fill="#00B14F"/>
<path d="M74.6626 59.6599L74.6243 59.6042C74.6243 59.6808 74.593 59.7504 74.5234 59.8791C74.6243 59.9591 74.68 59.9625 74.7252 59.9556L74.6383 59.6494L74.6661 59.6634L74.6626 59.6599Z" fill="#00B14F"/>
<path d="M74.6698 60.0215L74.5098 60.0424L74.7672 60.1084L74.6698 60.0215Z" fill="#00B14F"/>
<path d="M74.6641 60.3659L74.7719 60.418L74.7997 60.3311L74.6641 60.3659Z" fill="#00B14F"/>
<path d="M79.2617 66.6863C79.4461 66.7211 79.7279 66.7803 79.6409 66.6516L79.5296 66.5437C79.4322 66.6376 79.3417 66.6759 79.2617 66.6863Z" fill="#00B14F"/>
<path d="M75.9821 63.5245C75.9578 63.6324 75.9578 63.7123 75.9752 63.7784C76.0204 63.6428 76.1108 63.5141 75.9821 63.5245Z" fill="#00B14F"/>
<path d="M88.8177 60.5547C88.8423 60.5054 88.8247 60.4808 88.779 60.4702C88.7543 60.516 88.7543 60.5512 88.8177 60.5547Z" fill="#00B14F"/>
<path d="M75.9742 63.7749C75.9429 63.8758 75.936 63.9801 76.0647 64.0323C76.0751 64.0114 76.0751 63.994 76.0821 63.9731C76.0369 63.9175 75.9916 63.8584 75.9742 63.7749Z" fill="#00B14F"/>
<path d="M74.5996 53.7256C74.6309 53.7256 74.6796 53.743 74.7248 53.7569C74.7074 53.7395 74.6692 53.7291 74.5996 53.7256Z" fill="#00B14F"/>
<path d="M75.1808 61.6161C75.159 61.6125 75.1481 61.5507 75.1808 61.6161Z" fill="#00B14F"/>
<path d="M75.2092 61.4895C75.2023 61.5208 75.1953 61.5556 75.1953 61.5904C75.2023 61.573 75.2058 61.5417 75.2092 61.4895Z" fill="#00B14F"/>
<path d="M75.1465 61.5285C75.1465 61.5039 75.143 61.4827 75.1394 61.4651C75.1113 61.4651 75.1007 61.4792 75.1465 61.5285Z" fill="#00B14F"/>
<path d="M75.2175 61.7051C75.2001 61.6668 75.1967 61.6285 75.1932 61.5938C75.1897 61.6111 75.1827 61.6181 75.1758 61.6181C75.1827 61.6355 75.1967 61.6633 75.2175 61.7085V61.7051Z" fill="#00B14F"/>
<path d="M90.114 59.1555L90.2427 59.1416C89.9296 58.9955 89.5505 58.9989 89.2096 59.0163C89.1957 58.9746 89.3383 58.9711 89.3939 58.9607C89.06 58.7311 88.8965 58.6964 88.1591 58.7207L88.326 58.5954C88.2078 58.6059 88.1069 58.5016 87.9086 58.3729C87.7173 58.2476 87.4216 58.1015 87.0981 58.0946C87.1155 58.0807 87.1434 58.0529 87.2025 58.0494C87.0182 58.039 86.8616 57.9798 86.6981 57.8963C86.5868 57.8302 86.4964 57.7502 86.399 57.6807C86.2111 57.545 86.0372 57.4719 85.8598 57.7398L85.5433 57.792C85.8737 57.959 85.4042 58.032 85.5085 58.178C85.3589 58.1641 85.2198 57.8789 85.3972 57.9032L85.4146 57.9415C85.5816 57.6528 85.025 57.6841 85.105 57.4754C84.4197 57.2563 83.818 56.8528 83.1884 56.6197L83.1779 56.8841L82.9623 56.7936C82.924 56.7171 82.9484 56.578 83.1049 56.6441C83.0701 56.4806 82.7988 56.6649 82.7779 56.7171C82.5031 56.5119 82.9971 56.4806 82.9032 56.4388L82.7675 56.411L82.7883 56.4493C82.6492 56.5119 82.604 56.6128 82.4197 56.5327C82.3153 56.4423 82.4092 56.3623 82.364 56.3379C82.3709 56.3205 82.357 56.3067 82.2944 56.3067L82.0231 56.1884L82.0648 56.3971C81.9605 56.4076 81.6961 56.2858 81.4248 56.2093C81.1639 56.1049 80.8787 56.0422 80.8022 55.9692L80.9622 55.8301L80.6735 55.7571C80.6213 55.7188 80.6039 55.7223 80.5969 55.7397C80.5448 55.7327 80.5726 55.8545 80.4334 55.8614C80.2386 55.8093 80.263 55.7014 80.19 55.5692L80.2282 55.5518L80.103 55.4892C80.0056 55.4649 80.3778 55.7919 80.0334 55.7849C80.0474 55.7327 79.9465 55.4197 79.8178 55.5275C79.9326 55.5588 79.9326 55.6284 79.8943 55.684C79.8317 55.6423 79.7656 55.5936 79.7239 55.5136L79.7656 55.4579C79.7447 55.4509 79.7238 55.4475 79.7064 55.444C79.703 55.4266 79.696 55.4162 79.6926 55.3988C79.696 55.4162 79.696 55.4301 79.6926 55.4406C79.4178 55.3606 79.1255 55.3014 78.8334 55.2457C78.569 55.124 78.3081 54.9048 77.9916 54.8387C77.9672 54.8839 77.9916 54.9709 77.9255 55.0266C77.9046 55.0196 77.8838 55.0162 77.8629 55.0092L77.7446 54.6892C77.6472 54.6892 77.5463 54.9953 77.4559 54.7379C77.4629 54.7936 77.4698 54.8805 77.4037 54.877C77.2646 54.7727 77.1185 54.6961 76.9619 54.63C76.948 54.3866 76.7811 54.3448 76.5724 54.3378C76.4541 54.3344 76.3324 54.3413 76.2037 54.3274C76.0263 54.2961 75.8628 54.2474 75.7097 54.143C75.7515 54.1813 75.7584 54.2196 75.7619 54.2439C75.5984 54.1222 75.4106 54.0561 75.2401 54.0178C75.0871 53.9204 74.9445 53.8022 74.8123 53.6491C74.8958 53.8022 74.8123 53.7848 74.7149 53.757C74.7601 53.7987 74.687 53.8787 74.6592 53.9553C74.6453 53.9553 74.6314 53.9518 74.6175 53.9483L74.3496 53.6352C74.2348 53.7917 74.0435 53.6213 73.9148 53.6456C73.7548 53.5656 73.6157 53.5413 73.414 53.5309C73.4522 53.5726 73.5635 53.6631 73.5252 53.6874C73.2644 53.4683 72.9652 53.2317 72.6278 53.1587L72.7217 53.2456L72.2695 53.0752L72.3148 53.2247C72.7496 53.6352 72.6939 53.7187 72.673 53.8787C72.6487 54.0353 72.6661 54.2822 73.1009 54.6266C72.9165 54.5744 73.0035 54.9535 72.9791 55.1031C73.007 55.117 73.0417 55.1413 73.087 55.1866C72.9443 55.2179 73.0383 55.4092 73.1635 55.5901C73.2887 55.7779 73.4453 55.9483 73.4696 56.0631C73.4522 56.2092 73.3305 56.1466 73.2018 56.0596C73.3896 56.2405 73.4 56.4527 73.4 56.6823C73.4 56.7171 73.4 56.7484 73.4 56.7832C73.3896 56.7693 73.3792 56.7519 73.3652 56.731C73.3583 56.745 73.3548 56.7519 73.3478 56.7588C73.3548 56.7797 73.3653 56.804 73.3757 56.8562C73.3827 56.8493 73.3896 56.8458 73.3965 56.8458C73.3965 56.9014 73.3965 56.9572 73.3965 57.0059C73.3965 57.0441 73.4 57.0788 73.4035 57.1032C73.4035 57.1101 73.4105 57.1136 73.414 57.1206C73.3931 57.1728 73.4035 57.2493 73.3583 57.2284C73.4452 57.3397 73.4905 57.3015 73.5496 57.2041C73.5879 57.1971 73.6261 57.1763 73.6679 57.1589L73.7131 57.2006C73.7409 57.1728 73.7896 57.1484 73.7061 57.145C73.727 57.138 73.7479 57.1345 73.7688 57.1345C73.7757 57.1763 73.7653 57.2076 73.7479 57.2319L73.7131 57.1971C73.7131 57.1971 73.6957 57.2285 73.7374 57.2424C73.6365 57.3467 73.3652 57.305 73.6157 57.4963C73.6226 57.4511 73.6157 57.378 73.6539 57.3919C73.7235 57.4754 74.1653 57.4963 74.287 57.5867C74.214 57.6041 74.1653 57.6598 74.0366 57.5937C74.0888 57.6215 74.1479 57.6667 74.207 57.6841C74.2384 57.785 74.3636 57.8615 74.461 57.9276C74.4401 57.9659 74.4192 58.0041 74.4018 58.0215C74.4366 57.9972 74.4644 57.9729 74.4923 57.952C74.5757 58.0146 74.6106 58.0703 74.4749 58.1363L74.3114 58.1746C74.6557 58.4737 74.3114 58.3554 74.6314 58.6685L74.6557 58.6546C74.687 58.832 74.9166 58.8494 74.694 59.0233L74.6384 58.9781C74.6627 59.072 74.6836 59.1277 74.7044 59.1764C74.6871 59.1694 74.6662 59.1625 74.6488 59.1451C74.7845 59.4233 74.541 59.0894 74.534 59.326C74.4888 59.2773 74.4644 59.2286 74.4401 59.1834C74.4401 59.2425 74.4401 59.2982 74.4297 59.3573L74.4366 59.3468C74.4505 59.3294 74.461 59.319 74.454 59.3364L74.4575 59.3399C74.4784 59.3364 74.4958 59.3329 74.5166 59.3329C74.5166 59.4268 74.4853 59.3573 74.4575 59.3399C74.4505 59.3399 74.4436 59.3399 74.4366 59.3434L74.6175 59.6077C74.6175 59.5382 74.5862 59.4651 74.5201 59.3329C74.6279 59.3329 74.7149 59.3885 74.7984 59.3781C74.8018 59.3885 74.8053 59.3955 74.8123 59.4059C74.7984 59.4407 74.7984 59.5555 74.861 59.5625C74.7601 59.6042 74.7775 59.7329 74.8297 59.8651C74.7984 59.893 74.767 59.9208 74.7427 59.9486C74.781 59.9382 74.8192 59.9312 74.8714 59.9556C74.9201 60.053 74.9723 60.1364 74.9897 60.1712C74.9584 59.9938 75.0766 60.039 75.181 60.0564C75.0453 60.2164 75.0523 60.2895 75.2262 60.3799C75.1392 60.4217 75.0488 60.4634 74.9723 60.5121C74.9653 60.4877 74.9584 60.4634 74.9584 60.4356C74.8331 60.5503 74.9132 60.5156 74.8888 60.5747C74.7949 60.6582 74.7462 60.7591 74.7879 60.8982C74.8123 60.8426 74.8088 60.7695 74.8749 60.7764C74.9375 60.7834 74.9027 60.8669 74.8923 60.8947C74.941 60.9017 74.9619 60.8391 75.014 60.8113C75.021 60.8286 75.0245 60.846 75.0314 60.8599C74.9723 60.9851 75.0245 61.0617 75.0836 61.1556C75.0836 61.2182 75.0766 61.2913 75.0036 61.4026C75.0697 61.3747 75.1079 61.2947 75.1323 61.4617C75.1532 61.4617 75.1845 61.4686 75.2019 61.4756C75.2019 61.4826 75.2019 61.4826 75.2019 61.4895V61.4791C75.2019 61.4791 75.2228 61.4791 75.2088 61.4756C75.2262 61.4269 75.2506 61.3851 75.2819 61.3608C75.3027 61.3608 75.3271 61.3712 75.3445 61.3782C75.2158 61.4965 75.748 61.6113 75.3654 61.6495C75.4454 61.7295 75.508 61.8304 75.5671 61.9348C75.5045 62.0217 75.4627 62.1087 75.3479 61.98L75.4106 62.1783C75.3688 62.3209 75.3932 62.4914 75.4871 62.5679C75.4871 62.6722 75.7341 62.7452 75.588 62.7035L75.7862 62.9783L75.7515 62.9957C75.8384 63.3053 76.2141 63.5348 76.0715 63.9731C76.1445 64.0635 76.228 64.1505 76.2454 64.3384L76.1306 64.4149C76.221 64.5297 76.1411 64.8532 76.2941 64.8636C76.148 64.9993 76.1793 65.1489 76.2663 65.3367C76.395 65.6498 76.5585 65.9454 76.6037 66.175L76.7533 66.0671C76.8402 66.3419 76.9724 66.5681 77.1324 66.8081L77.1846 66.7072C77.1985 66.7872 77.2089 66.8776 77.2194 66.9681C77.2611 67.2881 77.3272 67.6533 77.4768 67.7229C77.4768 67.7229 77.4768 67.7229 77.4768 67.7264C77.4802 67.7264 77.4837 67.7264 77.4872 67.7264C77.4907 67.7264 77.4942 67.7298 77.4976 67.7333C77.6577 67.7681 77.9325 67.5177 78.162 67.2916C78.409 67.0481 78.6073 66.8324 78.8125 66.8498C78.9099 66.7211 78.9795 66.7002 79.0595 66.6933C79.049 66.7002 79.0421 66.7072 79.0351 66.7176C79.0456 66.7142 79.063 66.7037 79.0769 66.6933C79.129 66.6933 79.1847 66.6933 79.2438 66.6863C79.1882 66.6759 79.1395 66.6724 79.0977 66.6793C79.1777 66.6272 79.2925 66.5298 79.3934 66.4219L79.5117 66.5472C79.5117 66.5472 79.5291 66.5333 79.5395 66.5263C79.6891 66.5054 79.5986 66.3976 79.4838 66.3176C79.529 66.2584 79.5638 66.1959 79.5812 66.1368C79.8143 66.3107 79.7343 65.9315 79.9778 66.1194C79.9534 65.9698 80.2978 65.7924 80.1795 65.5176C80.2039 65.5489 80.2352 65.5489 80.1969 65.5767C80.2978 65.5524 80.3987 65.528 80.43 65.4097L80.5795 65.5663L80.6074 65.208C80.7882 65.2497 80.8717 65.2845 80.8509 65.4897C80.9796 65.1106 81.0143 65.2741 81.1048 64.9228L81.1674 65.0445C81.2439 64.9888 81.2752 64.7523 81.3831 64.8184C81.7031 64.9263 82.2909 64.2897 82.8823 64.2027C82.5762 63.9175 83.1918 64.2201 83.0457 63.9453C83.1223 64.0079 83.2162 64.0149 83.1849 64.1332C83.3692 63.9071 83.6197 64.0392 83.6406 63.7122C83.7206 63.7783 83.6649 63.8618 83.7206 63.8966C83.7275 63.8653 83.7519 63.7783 83.8075 63.8131C83.8632 63.8479 83.8145 63.9036 83.8006 63.9627C84.0336 63.7958 83.898 63.5314 83.7693 63.2879C83.9606 63.3226 84.0128 63.267 84.0023 63.0583C84.0928 63.107 84.2145 63.1453 84.0824 63.2671C84.1728 63.2253 84.6667 63.0548 84.5554 62.8635C84.6111 62.8948 84.6807 62.8044 84.6911 62.7661C84.8859 62.6583 84.9137 62.6652 85.0876 62.5296H85.018C84.9485 62.2583 85.1398 62.3835 85.272 62.2617L85.2824 62.2861C85.7276 62.2339 85.3798 62.1156 85.8355 62.0878L85.7277 61.9592C85.5676 61.6357 86.1381 61.9486 86.2633 61.7086L86.1416 61.6739C86.1833 61.5035 86.7016 61.8965 86.8338 61.8687C86.8755 61.8791 86.8234 61.9347 86.8025 61.973C87.1955 61.973 86.7225 61.7643 86.9069 61.5904C87.0077 61.6669 87.0182 61.8756 87.1712 61.806C87.1851 61.8095 87.2025 61.8061 87.2164 61.7922C87.2338 61.7713 87.2547 61.7469 87.2825 61.7191C87.3451 61.646 87.4077 61.5556 87.4773 61.4652C87.6164 61.2843 87.7556 61.1209 88.013 61.093C87.8599 61.0826 87.7243 61.0617 87.7973 60.9329C87.8843 60.8564 88.1139 60.8148 88.326 60.7452C88.5347 60.6756 88.7261 60.5817 88.6321 60.4739C88.6948 60.4634 88.7365 60.4669 88.7678 60.4739C88.8409 60.3417 89.1365 60.0947 88.9626 60.0216C89.5157 60.0112 89.6826 59.8269 89.7592 59.6877C89.8426 59.5451 89.8496 59.4442 90.4409 59.3851L90.5661 59.2946L90.1035 59.1555H90.114ZM75.4836 60.2373C75.494 60.2164 75.5045 60.1955 75.5149 60.1712C75.4454 60.2477 75.3828 60.2999 75.3341 60.279L75.3479 60.0147C75.4106 60.039 75.4767 60.0773 75.5462 60.0912C75.5358 60.119 75.5219 60.1468 75.5115 60.1712C75.5323 60.1503 75.5567 60.1225 75.5775 60.0982C75.5984 60.0982 75.6228 60.0982 75.6436 60.0982L75.6819 60.206C75.6193 60.2582 75.5497 60.2825 75.4801 60.2407L75.4836 60.2373ZM76.0715 61.2912C76.0715 61.2912 76.0645 61.2912 76.061 61.2912C76.061 61.2773 76.061 61.2669 76.061 61.253L76.075 61.2878L76.0715 61.2912ZM77.6368 65.7332L77.6542 65.782C77.6333 65.8133 77.609 65.8411 77.5881 65.8689C77.602 65.8237 77.6194 65.7784 77.6368 65.7332ZM78.5655 66.0985L78.6072 66.0741C78.5968 66.1124 78.5794 66.1541 78.5655 66.1924C78.5655 66.1611 78.5655 66.1298 78.5655 66.0985ZM74.3288 57.6493C74.3288 57.6493 74.3288 57.6493 74.3323 57.6458C74.3323 57.6458 74.3323 57.6493 74.3323 57.6528H74.3288V57.6493ZM75.5636 62.2931C75.5636 62.2931 75.5706 62.2931 75.5741 62.2931C75.5497 62.4218 75.5601 62.3766 75.5636 62.2931ZM77.5498 67.6812C77.5498 67.6812 77.5602 67.6672 77.5672 67.6568L77.5429 67.6847C77.5429 67.6847 77.5185 67.6986 77.5081 67.7021C77.5011 67.6916 77.4942 67.6812 77.4907 67.6673V67.6324C77.4907 67.6324 77.4907 67.6533 77.4907 67.6638C77.4733 67.6255 77.4629 67.5768 77.4733 67.5177C77.4768 67.5316 77.4837 67.542 77.4872 67.5559C77.4942 67.5942 77.5046 67.629 77.5116 67.6638C77.515 67.6638 77.522 67.6568 77.5255 67.6533C77.5255 67.6568 77.5289 67.6638 77.5324 67.6707C77.5602 67.6499 77.5916 67.6221 77.6194 67.6012C77.6298 67.5942 77.6402 67.5907 77.6542 67.5803C77.6263 67.6359 77.5881 67.6673 77.5533 67.6881L77.5498 67.6812ZM82.3118 56.3936L82.3397 56.4493C82.2249 56.4597 82.2666 56.4284 82.3118 56.3936ZM80.4508 64.9089L80.6004 64.8149L80.6178 65.1698C80.59 65.0967 80.5239 65.0063 80.4508 64.9089ZM83.7588 63.1418C83.7101 63.1279 83.6928 63.0479 83.6823 62.947C83.6754 62.9713 83.6684 62.9991 83.6684 63.02C83.6162 63.0131 83.5849 62.9852 83.5606 62.947L83.6754 62.8739C83.6754 62.8983 83.6788 62.9226 83.6823 62.947C83.6893 62.9192 83.6997 62.8878 83.7067 62.8565L83.7588 62.8253C83.8319 62.8566 83.8945 62.8844 83.9328 62.8914L83.7554 63.1418H83.7588Z" fill="#00B14F"/>
<path d="M74.8652 60.9503L74.9556 61.0791C74.9243 61.013 74.9487 60.9747 74.9626 60.9294C74.9278 60.9468 74.8826 60.9921 74.8652 60.9469V60.9503Z" fill="#00B14F"/>
<path d="M75.3658 61.7955C75.3832 61.7364 75.1849 61.8269 75.2301 61.7782C75.0423 61.7852 75.5467 62.0251 75.3658 61.7955Z" fill="#00B14F"/>
<path d="M74.1684 53.3743L74.0605 53.2561L74.1058 53.3987L74.1684 53.3743Z" fill="#00B14F"/>
<path d="M73.8231 53.5308L73.8649 53.3081L73.7188 53.4716C73.7535 53.4716 73.8161 53.4716 73.8231 53.5308Z" fill="#00B14F"/>
<path d="M72.9102 55.1418C72.9629 55.177 72.9841 55.1523 72.9946 55.0995C72.9489 55.0784 72.9207 55.089 72.9102 55.1418Z" fill="#00B14F"/>
<path d="M2.88719 1.82959L2.80273 1.84712C2.84144 1.85064 2.87311 1.84719 2.88719 1.82959Z" fill="#20BB65"/>
<path d="M0.0692263 2.61226C0.0692263 2.61226 0.0590276 2.60545 0.0488281 2.60205L0.0692263 2.61226Z" fill="#20BB65"/>
<path d="M0.444223 1.1827C0.29465 1.54445 -0.0914468 1.60356 0.0198634 2.02097C-0.0323133 2.20881 0.0337823 2.42106 0.0685667 2.60889C0.353799 2.7202 0.0546402 2.8524 0.294653 2.97415L0.124212 3.0054C0.204217 3.04714 0.25987 3.09239 0.165952 3.12369H0.117249C0.242473 3.17935 0.162468 3.23497 0.22508 3.26628H0.176398L0.193786 3.32887L0.124212 3.31503C0.252915 3.4159 0.259876 3.50975 0.193786 3.59323H0.395541C0.162486 3.76716 0.57642 3.84374 0.30858 4.00375H0.259877C0.792079 4.21246 -0.105373 4.33066 0.399002 4.54284C0.33639 4.51849 0.294648 4.55677 0.24595 4.55329C0.301605 4.65068 0.33988 4.75854 0.736422 4.7481C0.736422 4.81767 0.614684 4.80722 0.461633 4.82114C0.635555 4.81766 0.708602 4.87681 0.722516 4.92899L0.652943 4.90461L0.715552 5.06121L1.04253 5.01943C0.952087 5.10639 0.642494 5.05772 0.725977 5.13425L0.997306 5.12032C0.948607 5.23511 0.538153 5.32553 0.346838 5.45075C0.259877 5.94469 0.997308 6.37605 0.586852 6.86999L0.388578 6.91865C0.0963883 6.97082 0.844243 6.97781 0.572924 7.03346L0.715552 7.06472C0.663376 7.08559 0.614677 7.12737 0.54163 7.10998C0.538152 7.15868 0.586837 7.1517 0.680755 7.17257L0.506833 7.25256C0.392044 7.46823 0.781631 7.56214 0.746847 7.77085C0.416394 8.08391 0.868601 8.46308 1.12601 8.65787C1.39037 8.77614 1.26167 9.00918 1.15036 9.25267C1.04253 9.49268 0.948597 9.74668 1.24774 9.84407C1.21296 9.86842 1.31384 9.86835 1.34515 9.85792L1.42863 10.1953C1.42863 10.1953 1.45993 10.2962 1.53298 10.4145C1.61298 10.5328 1.73822 10.6649 1.91562 10.724C2.0965 10.7867 2.32607 10.7763 2.62522 10.6163C2.92436 10.4597 3.28612 10.1502 3.75223 9.66667L3.81484 9.64926C3.89484 9.44403 3.9018 9.34313 3.55395 9.35704C3.92267 9.20051 3.54701 9.22143 3.65484 9.14142L3.68614 9.13446C3.35916 9.14837 3.86005 8.86313 3.57134 8.86661C3.60265 8.85965 3.70702 8.82485 3.72093 8.84572C3.65136 8.8005 3.54005 8.73788 3.75919 8.66135C3.64788 8.52917 3.69311 8.28913 3.307 8.28913L3.36961 8.27877C3.1122 8.28921 3.31395 8.21616 3.17133 8.18485C3.19916 8.17441 3.21307 8.16395 3.22698 8.16048C2.9661 8.16048 3.14003 7.98653 3.02524 7.96218L3.17482 7.92048L3.10872 7.80219L3.08785 7.85781C2.67044 7.94129 3.32438 7.70127 3.03567 7.67344C3.06698 7.57953 2.12779 7.68392 2.31563 7.54478C2.1104 7.54131 2.63913 7.52046 2.47913 7.4822C2.69479 7.43698 2.62173 7.48215 2.79217 7.43345C2.67738 7.38823 2.99392 7.28394 2.83391 7.23524L3.00437 7.20042C2.67392 7.1552 3.1922 6.97086 2.88262 6.95347C2.72609 6.86998 3.38003 6.80038 3.02871 6.74473L3.25481 6.66821C3.28612 6.61603 2.96611 6.67867 3.07047 6.6091C3.21656 6.59171 3.17829 6.52911 3.3209 6.53607C3.53309 6.39345 2.95916 6.34471 3.33135 6.14296C3.04264 6.14296 3.20263 6.04555 2.98697 6.04555C3.11219 6.02816 2.98696 5.88901 3.26872 5.94815C3.29307 5.95163 3.2896 5.96556 3.24091 5.97252L3.41135 5.96556C3.72093 5.84729 3.21655 5.82645 3.25829 5.73601C3.20264 5.76732 3.22351 5.79859 3.10524 5.78815L3.12263 5.70467H3.26526L3.34177 5.58298L3.16785 5.61423C3.25481 5.54814 3.55396 5.50642 3.29655 5.45772C3.15394 5.43685 3.06351 5.53078 3.00089 5.47165C3.11568 5.38468 3.28959 5.25592 3.33481 5.15157C3.13654 5.17244 3.1435 5.14466 3.10176 5.11684L3.27568 5.10639C3.03219 5.00899 3.65484 5.05076 3.46005 4.95336H3.58179L3.22004 4.94291C2.87219 4.85943 3.57831 4.88032 3.10524 4.7864C3.13655 4.82814 2.72261 4.81768 2.79914 4.76203L2.9661 4.77247C2.93131 4.74465 2.85828 4.73764 2.89306 4.71676C2.9835 4.73068 3.13655 4.71681 3.10524 4.67855L3.31394 4.70292L3.00437 4.6298C3.18178 4.56371 2.95567 4.46987 3.1922 4.44204C3.1922 4.44204 3.30698 4.30987 3.04958 4.27856C3.20958 4.30639 3.27221 4.23332 3.46005 4.25419C3.27917 4.2194 3.12959 4.11505 3.32439 4.07679L3.34526 4.08375C3.54005 3.93765 3.08089 3.81934 3.32439 3.69064C3.12264 3.69064 3.23395 3.6211 2.97654 3.63153C2.72957 3.475 3.50874 3.3985 2.71566 3.30458C2.67392 3.23501 2.90697 3.23848 2.94871 3.20717L2.99045 3.22458C2.93479 3.09936 2.92784 3.06111 2.95567 2.97415C2.88262 2.92197 2.51391 2.89059 2.60783 2.81407C2.75044 2.85233 2.72609 2.81412 2.72956 2.7863C2.75043 2.80717 2.80261 2.8176 2.90697 2.7863C2.86175 2.77586 2.83391 2.76539 2.81304 2.75496C2.82348 2.75496 2.83393 2.75496 2.84784 2.75496C2.79914 2.6993 2.75392 2.70623 2.73305 2.7271C2.71218 2.7271 2.68087 2.7271 2.6426 2.7271C2.83392 2.68884 2.64261 2.57757 2.89306 2.59148C2.85132 2.43495 2.60435 2.29929 2.52087 2.15668C2.65305 2.15668 2.76088 2.19841 2.80958 2.24016L2.7713 2.14275C2.95566 2.16362 2.87218 2.20537 2.90697 2.23667C3.21655 2.16363 2.63216 1.98274 2.92087 1.88535L2.77827 1.84017H2.80262C2.72609 1.82625 2.62521 1.78444 2.60086 1.76357C2.76435 1.76357 2.97306 1.81233 2.96958 1.74624C3.13306 1.71842 2.91044 1.59662 2.83391 1.52009C2.80261 1.5514 2.71565 1.52704 2.65999 1.50617C2.65999 1.47486 2.82349 1.47836 2.7574 1.44358L2.97654 1.47143C2.77131 1.45404 2.76782 1.36008 2.68086 1.33573C2.84435 1.3392 2.81305 1.4053 2.93132 1.42965C2.93132 1.30095 2.93132 1.36702 2.92784 1.23832C2.77479 1.14788 2.72261 1.22093 2.53477 1.15832C2.49999 1.09223 2.35738 1.00881 2.5 0.960112L2.3052 0.953148C2.1765 0.817489 2.20781 0.751412 2.41652 0.706192C1.70691 0.149641 1.18513 -0.00342081 0.833808 5.7636e-05C0.485963 0.00353608 0.312041 0.160053 0.312041 0.160053C-0.171463 0.452242 0.350309 0.730494 0.447705 1.17921L0.444223 1.1827Z" fill="#20BB65"/>
<path d="M9.12463 15.7471L9.10352 15.8315C9.12463 15.7999 9.13519 15.7682 9.12463 15.7471Z" fill="#20BB65"/>
<path d="M15.0781 18.3874C15.0781 18.3874 15.0853 18.3766 15.0889 18.373C15.0817 18.3766 15.0781 18.3838 15.0781 18.3874Z" fill="#20BB65"/>
<path d="M8.6462 18.6304C8.6462 18.6304 8.63583 18.6373 8.62891 18.6442L8.6462 18.6304Z" fill="#20BB65"/>
<path d="M7.49842 17.6844C7.76974 17.9696 7.66191 18.3558 8.08976 18.4288C8.23934 18.5506 8.46195 18.5853 8.64631 18.634C8.86545 18.4184 8.86198 18.7488 9.07069 18.5819L9.02547 18.7488C9.09851 18.6932 9.16112 18.6619 9.15068 18.7593L9.12633 18.8011C9.23417 18.7141 9.25156 18.808 9.30374 18.7662L9.27939 18.8079L9.34548 18.8184L9.30374 18.8741C9.44983 18.7976 9.53679 18.8323 9.58549 18.9262L9.67245 18.7419C9.73159 19.0271 9.97508 18.6827 10.0029 18.9923L9.97856 19.0341C10.3925 18.641 10.1142 19.5037 10.5212 19.135C10.469 19.1802 10.4864 19.2323 10.4655 19.2776C10.5768 19.2637 10.6847 19.2776 10.8516 18.9193C10.9143 18.9541 10.8516 19.055 10.796 19.1976C10.869 19.0376 10.9525 18.9993 11.0047 19.0097L10.956 19.0619L11.123 19.0723L11.2273 18.7593C11.2621 18.8775 11.0847 19.1349 11.189 19.0932L11.2969 18.8428C11.3769 18.9402 11.276 19.3402 11.2969 19.5698C11.683 19.862 12.3961 19.4028 12.6187 19.9976L12.563 20.1958C12.4656 20.4776 12.8309 19.8237 12.7474 20.0881L12.8413 19.9767C12.8344 20.0324 12.8413 20.095 12.7961 20.1507C12.8344 20.1785 12.8518 20.1333 12.9144 20.0602L12.897 20.2515C13.0187 20.4533 13.2866 20.1645 13.4396 20.2967C13.5301 20.7315 14.0553 20.5403 14.351 20.4255C14.8136 20.1055 14.8449 21.3647 15.3353 20.9751C15.3353 21.0203 15.391 20.9368 15.398 20.902L15.6971 21.0342C15.6971 21.0342 16.0693 21.1699 16.3754 20.9646C16.685 20.7594 16.9146 20.2133 16.6954 18.8671L16.7198 18.8079C16.6015 18.6097 16.5076 18.5506 16.3058 18.8323C16.3998 18.4427 16.1841 18.7524 16.1841 18.6167L16.198 18.5854C16.0137 18.8532 16.0693 18.2793 15.8954 18.5158C15.9093 18.488 15.9406 18.3801 15.9649 18.3801C15.8815 18.4079 15.7597 18.4671 15.8258 18.241C15.6449 18.248 15.4501 18.074 15.231 18.3975L15.2588 18.3384C15.1232 18.5575 15.1684 18.3489 15.064 18.4497C15.071 18.4184 15.071 18.4045 15.0745 18.3905C14.9318 18.6062 14.8727 18.3628 14.7858 18.4463L14.831 18.2966L14.6918 18.2862L14.7301 18.3349C14.5771 18.7349 14.7162 18.0497 14.5353 18.2793C14.4657 18.1993 14.0692 19.0549 14.0449 18.8254C13.9335 18.9993 14.1909 18.5332 14.0727 18.6549C14.1422 18.4462 14.1492 18.5332 14.1909 18.3593C14.0936 18.4358 14.1631 18.1088 14.0344 18.2236L14.0901 18.0601C13.8814 18.321 13.9753 17.7783 13.8048 18.0392C13.6518 18.1331 13.9127 17.5314 13.6866 17.8097L13.7248 17.5732C13.6935 17.521 13.5927 17.8305 13.5787 17.7053C13.6344 17.5696 13.5544 17.5696 13.6344 17.4514C13.6031 17.194 13.2831 17.6705 13.2761 17.2461C13.1405 17.5001 13.1265 17.3122 13.0222 17.5C13.0639 17.3818 12.8796 17.4201 13.0639 17.2044C13.0778 17.187 13.0918 17.1939 13.0709 17.2392L13.1439 17.0861C13.1787 16.7557 12.9248 17.187 12.8587 17.1105C12.8622 17.1731 12.9004 17.1731 12.8343 17.2705L12.7648 17.2184L12.8343 17.0931L12.7509 16.9679L12.6987 17.1384C12.6778 17.0305 12.7752 16.7453 12.6117 16.9505C12.5283 17.0688 12.5735 17.194 12.49 17.2184C12.4622 17.0757 12.4204 16.8601 12.3439 16.7696C12.2743 16.9575 12.25 16.9401 12.2082 16.9644L12.2743 16.8044C12.0761 16.9818 12.3891 16.4391 12.2152 16.5713L12.2743 16.4635L12.1004 16.7835C11.8708 17.0549 12.1978 16.4322 11.9056 16.8148C11.9578 16.8044 11.7665 17.1731 11.7491 17.0792L11.8291 16.9331C11.7874 16.954 11.7491 17.0131 11.7456 16.9714C11.7978 16.8984 11.8534 16.7522 11.8047 16.7627L11.9195 16.5853L11.7178 16.8322C11.7352 16.6444 11.5473 16.8044 11.6239 16.5818C11.6239 16.5818 11.5508 16.4183 11.4117 16.6374C11.5056 16.5052 11.4639 16.4183 11.5647 16.2548C11.4569 16.4044 11.2969 16.4913 11.3421 16.3L11.3595 16.2826C11.3073 16.0391 11.0047 16.4113 10.9908 16.133C10.9038 16.3139 10.8899 16.1852 10.789 16.4218C10.542 16.5818 10.7995 15.8409 10.382 16.5192C10.302 16.5261 10.3994 16.3174 10.389 16.2653L10.4238 16.2374C10.2846 16.2374 10.2499 16.227 10.1803 16.1644C10.1038 16.2096 9.91942 16.5296 9.88811 16.4113C9.98203 16.2965 9.94029 16.3035 9.91247 16.2896C9.94029 16.2791 9.97159 16.2339 9.9855 16.1296C9.95767 16.1678 9.9368 16.1852 9.91941 16.2026C9.92636 16.1922 9.92638 16.1853 9.93682 16.1713C9.86725 16.1922 9.85333 16.2374 9.86376 16.2653C9.85333 16.2827 9.83942 16.3105 9.8255 16.3487C9.87072 16.1574 9.68985 16.2861 9.80812 16.0635C9.64811 16.0357 9.422 16.2061 9.25852 16.2235C9.31417 16.1052 9.39766 16.0218 9.45679 15.9974L9.35244 15.9905C9.44984 15.8304 9.45331 15.9244 9.49505 15.907C9.55766 15.5974 9.1472 16.0496 9.18546 15.747L9.08459 15.8582L9.09156 15.8339C9.04982 15.9 8.96979 15.9765 8.94197 15.987C9.01153 15.8409 9.14373 15.6704 9.08459 15.6461C9.12634 15.4861 8.92458 15.6391 8.82023 15.6773C8.83414 15.7191 8.77501 15.7887 8.73327 15.8305C8.70544 15.8165 8.77849 15.6704 8.71936 15.7156L8.83762 15.5313C8.73674 15.7122 8.64631 15.6739 8.58718 15.74C8.66023 15.5939 8.70544 15.6496 8.77849 15.5522C8.6637 15.5 8.71936 15.5243 8.60457 15.4722C8.45499 15.573 8.50021 15.6495 8.36455 15.7922C8.29151 15.7922 8.15585 15.8861 8.17324 15.74L8.0828 15.9139C7.90192 15.9765 7.8567 15.9139 7.90888 15.7087C7.0984 16.1052 6.7262 16.4983 6.57663 16.8148C6.42705 17.1279 6.49663 17.3575 6.49663 17.3575C6.55228 17.9314 7.04622 17.5766 7.49146 17.6914L7.49842 17.6844Z" fill="#20BB65"/>
<path d="M25.2578 20.6274L25.2719 20.7119C25.2754 20.6732 25.2719 20.6415 25.2578 20.6274Z" fill="#20BB65"/>
<path d="M31.9395 21.3681C31.9395 21.3681 31.9429 21.3577 31.9464 21.3508C31.9429 21.3577 31.9395 21.3612 31.9395 21.3681Z" fill="#20BB65"/>
<path d="M25.9184 23.4727C25.9184 23.4727 25.9116 23.4829 25.9082 23.4931L25.9184 23.4727Z" fill="#20BB65"/>
<path d="M24.5756 23.0623C24.92 23.2119 24.9652 23.5979 25.3583 23.5005C25.5322 23.5562 25.734 23.4936 25.9148 23.4727C26.0366 23.191 26.1444 23.4971 26.2731 23.2675L26.2905 23.4379C26.3357 23.3579 26.3809 23.3058 26.4053 23.3997L26.3983 23.4484C26.4644 23.3301 26.5131 23.4101 26.5444 23.351L26.5375 23.3997L26.6001 23.3858L26.5792 23.4518C26.6836 23.3301 26.774 23.3336 26.8471 23.4032L26.8644 23.2014C27.0071 23.4484 27.1219 23.038 27.2401 23.3232L27.2332 23.3718C27.4906 22.8675 27.4975 23.7684 27.7584 23.2918C27.7271 23.351 27.7584 23.3962 27.748 23.4449C27.8454 23.3997 27.9497 23.3788 27.9949 22.9857C28.061 22.9996 28.0367 23.1144 28.0263 23.2675C28.0471 23.0936 28.1132 23.031 28.1654 23.024L28.1341 23.0866L28.2906 23.0449L28.2976 22.7145C28.3671 22.8188 28.2732 23.1145 28.3567 23.0449L28.388 22.7736C28.4924 22.8397 28.5098 23.2571 28.5932 23.4658C29.0246 23.6293 29.5742 22.9927 29.9359 23.5109V23.7162C29.9116 24.0154 30.0924 23.2884 30.0785 23.5632L30.1411 23.431C30.1481 23.4866 30.1724 23.5457 30.1411 23.6084C30.1829 23.6257 30.1898 23.5771 30.2316 23.4901L30.2594 23.6779C30.4194 23.8379 30.6038 23.497 30.7812 23.5875C30.9655 23.9875 31.4143 23.6814 31.6751 23.5005C32.0508 23.09 32.336 24.3076 32.7256 23.831C32.7326 23.8728 32.7708 23.7823 32.7743 23.7475L33.0874 23.8171C33.0874 23.8171 34.604 24.0605 33.6544 21.5004L33.6683 21.4378C33.5117 21.2674 33.4074 21.2222 33.2613 21.5387C33.2787 21.1387 33.1257 21.4865 33.0943 21.3508L33.1013 21.3196C32.9691 21.6187 32.91 21.0448 32.7848 21.3126C32.7917 21.2813 32.8022 21.1734 32.8265 21.1665C32.75 21.2117 32.6421 21.2883 32.6561 21.0587C32.4752 21.1039 32.2421 20.9752 32.096 21.3334L32.1099 21.2709C32.023 21.5143 32.023 21.2987 31.9395 21.4204C31.9395 21.3891 31.936 21.3752 31.9395 21.3613C31.8456 21.6013 31.7343 21.3822 31.6682 21.4796L31.6786 21.3265L31.536 21.3508L31.5847 21.3891C31.5256 21.81 31.5047 21.1143 31.3795 21.3787C31.2925 21.3161 31.1047 22.2413 31.0247 22.0256C30.9586 22.2204 31.0977 21.7056 31.0142 21.8517C31.0351 21.6291 31.0594 21.7161 31.0594 21.5387C30.9794 21.6361 30.969 21.3022 30.8716 21.4413L30.8855 21.2674C30.7429 21.57 30.7012 21.0204 30.5968 21.3126C30.4681 21.4448 30.5725 20.7943 30.4194 21.1178L30.3986 20.8813C30.3533 20.8396 30.3325 21.1631 30.2907 21.0448C30.3081 20.8987 30.2316 20.9196 30.2803 20.7839C30.1794 20.5404 29.9916 21.083 29.8663 20.6761C29.8002 20.9578 29.7342 20.7804 29.6855 20.9891C29.6959 20.8639 29.5185 20.9509 29.6437 20.69C29.6542 20.6691 29.6681 20.676 29.6611 20.7212L29.6889 20.5543C29.6298 20.2238 29.4976 20.7108 29.4107 20.6517C29.4315 20.7108 29.4698 20.7004 29.435 20.8152L29.3515 20.7839L29.3863 20.6447L29.2646 20.5473V20.7247C29.2089 20.6273 29.2193 20.3247 29.1219 20.5682C29.0732 20.7039 29.1567 20.8117 29.0837 20.8604C29.0106 20.7317 28.9063 20.5369 28.8019 20.4708C28.788 20.6691 28.7602 20.6587 28.7254 20.6969L28.7428 20.523C28.6002 20.7491 28.7428 20.1404 28.6071 20.3178L28.6315 20.1995L28.5619 20.5543C28.4193 20.8847 28.548 20.1925 28.381 20.6447C28.4297 20.6204 28.3567 21.0274 28.3115 20.9439L28.3463 20.7804C28.3115 20.8117 28.2941 20.8813 28.2767 20.843C28.3045 20.756 28.315 20.603 28.2663 20.6274L28.3219 20.4221L28.2002 20.7177C28.155 20.5334 28.0228 20.7421 28.0263 20.5056C28.0263 20.5056 27.8975 20.3735 27.8349 20.6274C27.8836 20.4709 27.8106 20.4012 27.8558 20.2169C27.7967 20.3943 27.6714 20.5265 27.6506 20.3317L27.661 20.3108C27.5253 20.0951 27.3549 20.5438 27.2401 20.2899C27.2227 20.4917 27.1601 20.3734 27.1462 20.6308C26.9653 20.8638 26.941 20.0778 26.7879 20.8604C26.7149 20.8952 26.7323 20.6656 26.701 20.6204L26.7218 20.5821C26.5862 20.6308 26.5479 20.6343 26.4575 20.603C26.4018 20.6726 26.3461 21.0378 26.2731 20.9404C26.3183 20.7978 26.2801 20.8221 26.2487 20.8152C26.2731 20.7943 26.2835 20.7421 26.2557 20.6378C26.2453 20.683 26.2314 20.7073 26.2209 20.7317C26.2209 20.7212 26.2209 20.7109 26.2244 20.6969C26.1653 20.7422 26.1688 20.7873 26.1896 20.8117C26.1861 20.8325 26.1827 20.8639 26.1861 20.9021C26.1583 20.7073 26.0331 20.8952 26.0574 20.6447C25.8905 20.6795 25.7444 20.923 25.5983 21.003C25.5983 20.8708 25.647 20.763 25.6922 20.7177L25.5913 20.7526C25.6192 20.5682 25.6609 20.6552 25.6922 20.6204C25.6226 20.3074 25.4209 20.8848 25.3305 20.5926L25.2818 20.7352V20.7109C25.2678 20.7874 25.2226 20.8882 25.1983 20.9126C25.2018 20.7491 25.2539 20.5403 25.1878 20.5438C25.16 20.3803 25.0313 20.5995 24.9513 20.6761C24.9826 20.7074 24.9583 20.7943 24.9339 20.85C24.8991 20.85 24.9061 20.6865 24.8713 20.7526L24.8991 20.5335C24.8817 20.7387 24.7809 20.7421 24.7565 20.8291C24.7635 20.6656 24.8261 20.6969 24.8539 20.5786C24.7217 20.5786 24.7878 20.5786 24.6556 20.5786C24.5617 20.7317 24.6382 20.7839 24.5756 20.9718C24.5095 21.0065 24.4261 21.1456 24.3739 21.0065L24.3669 21.2013C24.2278 21.3335 24.1617 21.2987 24.1165 21.0934C23.5669 21.81 23.4347 22.3353 23.4417 22.6866C23.4521 23.0344 23.6017 23.2049 23.6017 23.2049C23.8799 23.6849 24.1478 23.1493 24.5756 23.0623Z" fill="#20BB65"/>
<path d="M42.4902 22.1995L42.5113 22.2839C42.5113 22.2452 42.5113 22.2135 42.4902 22.1995Z" fill="#20BB65"/>
<path d="M49.2676 22.641C49.2676 22.641 49.271 22.6307 49.2745 22.6238C49.271 22.6307 49.2676 22.6341 49.2676 22.641Z" fill="#20BB65"/>
<path d="M43.3408 24.9927C43.3408 24.9927 43.3374 25.0029 43.334 25.0131L43.3442 24.9927H43.3408Z" fill="#20BB65"/>
<path d="M41.9952 24.6795C42.3466 24.8013 42.4161 25.1839 42.7953 25.0587C42.9692 25.1005 43.164 25.0273 43.3414 24.996C43.4423 24.7073 43.5675 25.0065 43.6823 24.77L43.7066 24.9404C43.7449 24.8604 43.7901 24.8047 43.8179 24.8952L43.811 24.9439C43.8701 24.8222 43.9223 24.9021 43.9501 24.8395L43.9432 24.8883L44.0058 24.8709L43.9919 24.9404C44.0893 24.8117 44.1797 24.8117 44.2528 24.8778L44.2597 24.6761C44.4128 24.9126 44.5032 24.4987 44.6389 24.7769L44.6319 24.8256C44.8615 24.3073 44.9102 25.2082 45.1467 24.7177C45.1189 24.7804 45.1467 24.8222 45.1467 24.8709C45.2441 24.8187 45.3415 24.7978 45.3728 24.4012C45.4389 24.4117 45.418 24.53 45.4146 24.683C45.4285 24.5091 45.4911 24.443 45.5433 24.4361L45.5154 24.5021L45.6685 24.4535L45.6615 24.1229C45.7346 24.2238 45.6511 24.523 45.7346 24.45L45.752 24.1787C45.8563 24.2413 45.8911 24.6552 45.9816 24.8604C46.4129 25.0065 46.9381 24.3491 47.3103 24.8535V25.0587C47.2999 25.3579 47.4599 24.6273 47.4529 24.9021L47.5121 24.77C47.5225 24.8256 47.5468 24.8848 47.5155 24.9474C47.5573 24.9613 47.5642 24.9126 47.6025 24.8256L47.6373 25.0134C47.8008 25.17 47.9747 24.8221 48.1521 24.9091C48.3434 25.3021 48.7817 24.9822 49.0356 24.7978C49.4043 24.3769 49.7035 25.5874 50.0861 25.1039C50.0931 25.1456 50.1313 25.0552 50.1313 25.0204L50.4409 25.083C50.4409 25.083 51.954 25.3022 50.994 22.7594L51.0079 22.6968C50.8479 22.5264 50.7435 22.4846 50.5974 22.8046C50.6113 22.4046 50.4583 22.7525 50.4305 22.6203L50.4374 22.589C50.3087 22.8881 50.2427 22.3177 50.1174 22.589C50.1244 22.5577 50.1348 22.4464 50.1592 22.4429C50.0826 22.4881 49.9748 22.5716 49.9852 22.3385C49.8044 22.3872 49.5678 22.262 49.4252 22.6273L49.4391 22.5646C49.3556 22.8116 49.3522 22.5959 49.2721 22.7176C49.2721 22.6863 49.2652 22.6724 49.2687 22.6585C49.1782 22.902 49.06 22.6829 48.9974 22.7838L49.0043 22.6307L48.8617 22.6585L48.9104 22.6968C48.8582 23.1212 48.8269 22.422 48.7017 22.6899C48.6113 22.6307 48.4408 23.5594 48.3608 23.3438C48.2982 23.5386 48.4269 23.0238 48.3434 23.1733C48.3573 22.9507 48.3851 23.0377 48.3817 22.8603C48.3051 22.9612 48.2843 22.6273 48.1904 22.7699L48.2008 22.5959C48.0651 22.902 48.0095 22.3559 47.9121 22.6516C47.7869 22.7872 47.8738 22.1333 47.7312 22.4637L47.7034 22.2272C47.6547 22.1855 47.6442 22.5124 47.599 22.3942C47.6129 22.2481 47.5364 22.2724 47.5816 22.1333C47.4703 21.8933 47.2964 22.4429 47.1573 22.0394C47.0981 22.3211 47.0286 22.1473 46.9833 22.3594C46.9868 22.2342 46.8164 22.3281 46.9312 22.0637C46.9416 22.0429 46.9555 22.0464 46.952 22.0951L46.9764 21.9246C46.9033 21.5977 46.7886 22.0881 46.6981 22.0324C46.7225 22.0915 46.7607 22.0777 46.7259 22.1925L46.639 22.1646L46.6668 22.022L46.5416 21.9281V22.1055C46.4894 22.0116 46.4894 21.7089 46.399 21.9524C46.3572 22.0915 46.4407 22.1959 46.3711 22.2446C46.2946 22.1194 46.1798 21.9281 46.072 21.8654C46.0685 22.0637 46.0372 22.0568 46.0059 22.0951L46.0163 21.9211C45.8807 22.1542 46.0024 21.5385 45.8702 21.7194L45.8876 21.6011L45.832 21.9594C45.7033 22.2933 45.8007 21.5976 45.6511 22.0568C45.6998 22.0289 45.6441 22.4394 45.5954 22.3594L45.6233 22.1925C45.5885 22.2238 45.5746 22.2933 45.5572 22.2585C45.5815 22.1716 45.585 22.015 45.5363 22.0428L45.5815 21.8377L45.4737 22.1368C45.418 21.9524 45.2963 22.1716 45.2859 21.9316C45.2859 21.9316 45.1502 21.8063 45.098 22.0603C45.1398 21.9037 45.0632 21.8342 45.098 21.6498C45.0493 21.8272 44.9276 21.9698 44.8963 21.7715L44.9067 21.7507C44.7571 21.542 44.6076 22.0012 44.4789 21.7507C44.4719 21.9525 44.4023 21.8377 44.4023 22.0951C44.2319 22.3386 44.1623 21.5559 44.051 22.342C43.978 22.3803 43.9814 22.1507 43.9501 22.1089L43.971 22.0672C43.8388 22.1229 43.8006 22.1264 43.7032 22.102C43.651 22.1751 43.6162 22.5438 43.5362 22.4499C43.5745 22.3073 43.5362 22.3316 43.5049 22.3281C43.5258 22.3072 43.5362 22.255 43.5049 22.1507C43.4945 22.1959 43.484 22.2237 43.4736 22.2446C43.4736 22.2342 43.4736 22.2237 43.4736 22.2098C43.4179 22.2585 43.4214 22.3037 43.4458 22.3246C43.4458 22.3455 43.4458 22.3768 43.4458 22.4151C43.404 22.2237 43.2892 22.4151 43.2997 22.1646C43.1327 22.2133 43.0005 22.4637 42.8614 22.5507C42.8544 22.4185 42.8962 22.3072 42.9379 22.262L42.8405 22.3037C42.8544 22.1194 42.9031 22.1994 42.9344 22.1646C42.8405 21.855 42.6805 22.4499 42.5657 22.1646L42.5275 22.3107L42.5205 22.2863C42.517 22.3628 42.4788 22.4672 42.4579 22.4916C42.4509 22.3281 42.4857 22.1194 42.4196 22.1228C42.3779 21.9628 42.2666 22.1925 42.1935 22.2725C42.2283 22.3038 42.2109 22.3907 42.1935 22.4464C42.1587 22.4464 42.1518 22.2864 42.1239 22.356L42.1344 22.1368C42.1344 22.3455 42.0335 22.3525 42.0161 22.4429C42.0092 22.2794 42.0753 22.3073 42.0927 22.1855C41.9605 22.1959 42.0266 22.1924 41.8944 22.2028C41.8144 22.3628 41.8944 22.4116 41.8457 22.5994C41.7796 22.6377 41.71 22.7872 41.6474 22.6481L41.6578 22.8429C41.5326 22.9855 41.4631 22.9577 41.397 22.7559C40.423 24.276 41.07 24.9021 41.07 24.9021C41.383 25.3543 41.5952 24.8013 42.0126 24.6795H41.9952Z" fill="#20BB65"/>
<path d="M59.877 23.6777L59.8946 23.7622C59.8981 23.7235 59.8945 23.6918 59.877 23.6777Z" fill="#20BB65"/>
<path d="M66.6543 24.7805C66.6543 24.7805 66.6612 24.7701 66.6647 24.7632C66.6578 24.7701 66.6578 24.7736 66.6543 24.7805Z" fill="#20BB65"/>
<path d="M60.5434 26.5198C60.5434 26.5198 60.5366 26.53 60.5332 26.5402L60.5434 26.5198Z" fill="#20BB65"/>
<path d="M59.2365 26.1232C59.5774 26.2658 59.6192 26.6519 60.0018 26.5475C60.1722 26.5997 60.367 26.5406 60.541 26.5197C60.6627 26.238 60.7636 26.5475 60.8923 26.3145L60.9062 26.4849C60.9514 26.4049 60.9966 26.3563 61.0175 26.4502L61.0071 26.4989C61.0731 26.3806 61.1184 26.4641 61.1532 26.4049L61.1427 26.4537L61.2054 26.4397L61.1845 26.5058C61.2888 26.3841 61.3793 26.391 61.4453 26.4606L61.4697 26.2589C61.6019 26.5058 61.7236 26.1023 61.8349 26.391L61.8245 26.4397C62.0958 25.9423 62.068 26.8432 62.3393 26.3736C62.3045 26.4327 62.3324 26.478 62.3254 26.5267C62.4228 26.485 62.5237 26.471 62.5898 26.078C62.6559 26.0954 62.6245 26.2102 62.6071 26.3632C62.635 26.1928 62.7011 26.1301 62.7567 26.1266L62.7219 26.1893L62.8785 26.1545L62.9028 25.8275C62.9654 25.9354 62.8576 26.2241 62.9446 26.158L62.9863 25.8901C63.0837 25.9597 63.0802 26.3771 63.1498 26.5928C63.5568 26.7771 64.1411 26.1788 64.4542 26.7214L64.4333 26.9267C64.3846 27.2224 64.6247 26.5128 64.5899 26.7876L64.6629 26.6623C64.6629 26.718 64.6838 26.7771 64.649 26.8397C64.6908 26.8606 64.7012 26.8119 64.7464 26.7284L64.7568 26.9197C64.896 27.0937 65.1081 26.7702 65.2716 26.8746C65.4108 27.2885 65.8769 27.0276 66.1482 26.878C66.5691 26.5093 66.6874 27.7545 67.1257 27.3302C67.1257 27.3754 67.1743 27.2884 67.1848 27.2536L67.477 27.365C67.477 27.365 67.8318 27.4798 68.124 27.2641C68.4127 27.045 68.6597 26.4988 68.3814 25.1596L68.4057 25.1005C68.2735 24.9057 68.1692 24.8466 67.9779 25.1353C68.0509 24.7423 67.8457 25.0622 67.8352 24.9266L67.8457 24.8953C67.6718 25.17 67.6891 24.5961 67.5257 24.8431C67.5361 24.8118 67.5639 24.7075 67.5883 24.704C67.5048 24.7353 67.3831 24.8014 67.4283 24.5718C67.2405 24.5927 67.0144 24.4327 66.823 24.7736L66.8439 24.711C66.7256 24.944 66.7534 24.7283 66.656 24.8396C66.656 24.8083 66.6561 24.791 66.6595 24.7805C66.5378 25.0101 66.4474 24.777 66.3708 24.8675L66.3986 24.7145L66.2526 24.7213L66.2978 24.7631C66.1934 25.177 66.2456 24.4813 66.0891 24.7318C66.0056 24.6587 65.7238 25.5596 65.6682 25.337C65.5847 25.5249 65.7725 25.0274 65.6717 25.1631C65.7134 24.944 65.7308 25.0344 65.7482 24.857C65.6577 24.9475 65.6786 24.6135 65.5673 24.7422L65.5986 24.5718C65.4282 24.8605 65.4316 24.3074 65.3029 24.5892C65.1638 24.7075 65.3238 24.0709 65.1395 24.3804V24.1405C65.0908 24.0952 65.0455 24.4152 65.0108 24.2935C65.0421 24.1474 64.9621 24.1648 65.0212 24.0326C64.9342 23.7822 64.7012 24.3074 64.6038 23.8935C64.5168 24.1683 64.4611 23.984 64.3951 24.1927C64.4125 24.0675 64.2281 24.1439 64.3707 23.8935C64.3812 23.8726 64.3951 23.8796 64.3881 23.9283L64.4299 23.7613C64.3881 23.4273 64.2246 23.904 64.1377 23.8379C64.155 23.897 64.1968 23.89 64.1516 24.0014L64.0681 23.9631L64.1098 23.8239L63.9916 23.7196L63.9811 23.897C63.9324 23.7961 63.9603 23.4935 63.8455 23.73C63.7898 23.8622 63.8663 23.977 63.7898 24.0188C63.7237 23.8866 63.6263 23.6848 63.522 23.6117C63.5011 23.81 63.4698 23.7996 63.435 23.8344L63.4594 23.664C63.3028 23.8831 63.4768 23.2813 63.3307 23.4517L63.362 23.3334L63.2715 23.6848C63.1115 24.0048 63.2716 23.3195 63.0802 23.7648C63.1324 23.7439 63.042 24.1439 62.9968 24.0605L63.0385 23.897C63.0002 23.9283 62.9793 23.9944 62.9654 23.9561C62.9967 23.8691 63.0141 23.7161 62.9654 23.737L63.0281 23.5352L62.8924 23.8239C62.8541 23.6361 62.7115 23.8413 62.7219 23.6048C62.7219 23.6048 62.5932 23.4691 62.5202 23.7161C62.5723 23.563 62.5028 23.49 62.555 23.3057C62.4889 23.4796 62.3567 23.6083 62.3393 23.41L62.3497 23.3891C62.2141 23.17 62.0297 23.6152 61.9149 23.3543C61.8906 23.5526 61.8315 23.4343 61.8106 23.6917C61.6228 23.9213 61.6088 23.1352 61.4384 23.9109C61.3619 23.9422 61.3827 23.7161 61.3514 23.6709L61.3723 23.6326C61.2332 23.6778 61.1949 23.6813 61.101 23.65C61.0418 23.7196 60.9827 24.0848 60.9097 23.9839C60.9584 23.8413 60.9201 23.8656 60.8853 23.8587C60.9097 23.8378 60.9236 23.7856 60.8958 23.6813C60.8819 23.7265 60.8714 23.7509 60.8575 23.7752C60.8575 23.7648 60.8575 23.7544 60.861 23.7405C60.8019 23.7857 60.8018 23.8309 60.8262 23.8552C60.8227 23.8761 60.8193 23.9074 60.8227 23.9456C60.7914 23.7509 60.6662 23.9352 60.694 23.6848C60.5235 23.7195 60.374 23.963 60.2279 24.0431C60.2279 23.9109 60.2766 23.8031 60.3218 23.7579L60.2209 23.7926C60.2453 23.6083 60.2905 23.6953 60.3253 23.6605C60.2522 23.3474 60.0505 23.9283 59.9531 23.6361L59.9079 23.7787V23.7544C59.894 23.8309 59.8487 23.9317 59.8279 23.9561C59.8279 23.7926 59.8766 23.5839 59.8105 23.5874C59.7792 23.4239 59.6539 23.6465 59.5739 23.7231C59.6087 23.7544 59.5844 23.8413 59.5601 23.897C59.5253 23.897 59.5287 23.7335 59.4939 23.7996L59.5183 23.5805C59.5044 23.7857 59.4035 23.7891 59.3827 23.8796C59.3827 23.7161 59.4522 23.7474 59.4731 23.6257C59.3374 23.6291 59.407 23.6257 59.2713 23.6326C59.1809 23.7891 59.2574 23.8413 59.2018 24.0256C59.1357 24.0604 59.0556 24.2031 59 24.0639V24.2588C58.8643 24.3944 58.7982 24.3631 58.7426 24.1579C57.6921 25.6292 58.3043 26.2866 58.3043 26.2866C58.5895 26.7527 58.8296 26.2136 59.247 26.1127L59.2365 26.1232Z" fill="#20BB65"/>
<path d="M76.9301 28.3215L76.916 28.406C76.9336 28.3743 76.9442 28.3391 76.9301 28.3215Z" fill="#20BB65"/>
<path d="M82.4766 32.847C82.4766 32.847 82.4869 32.847 82.4938 32.8401C82.4869 32.8401 82.48 32.8401 82.4766 32.847Z" fill="#20BB65"/>
<path d="M76.4548 31.1982C76.4548 31.1982 76.4444 31.2052 76.4375 31.2121L76.4548 31.1982Z" fill="#20BB65"/>
<path d="M75.4605 30.3843C75.7144 30.6243 75.6031 31.0035 75.9753 31.0348C76.104 31.1391 76.2918 31.1565 76.4519 31.1982C76.671 30.9861 76.6362 31.2991 76.838 31.1426L76.7788 31.3026C76.8484 31.247 76.911 31.2191 76.8867 31.3131L76.8588 31.3513C76.9667 31.2713 76.9701 31.3618 77.0223 31.32L76.9945 31.3582L77.0536 31.3722L77.0084 31.4243C77.1475 31.3547 77.2241 31.3931 77.2519 31.4835L77.3597 31.3131C77.3597 31.5879 77.6449 31.2783 77.6102 31.5774L77.5789 31.6156C78.038 31.2852 77.5963 32.0678 78.0415 31.7721C77.9859 31.8104 77.9859 31.8626 77.9546 31.9009C78.0554 31.9044 78.1459 31.9357 78.3894 31.6226C78.4381 31.6643 78.3546 31.7513 78.2676 31.8765C78.3719 31.7374 78.4624 31.7165 78.5076 31.7374L78.4485 31.7756L78.5946 31.8174L78.7755 31.5426C78.7755 31.6643 78.5424 31.8695 78.6468 31.8521L78.8172 31.64C78.8659 31.7478 78.6502 32.1061 78.5981 32.3218C78.8276 32.6592 79.6242 32.4505 79.5616 33.0627L79.4294 33.2192C79.2242 33.4349 79.8155 32.9792 79.6312 33.1844L79.7599 33.1183C79.7286 33.1636 79.7077 33.2227 79.6451 33.254C79.6625 33.2922 79.7007 33.2575 79.7842 33.2158L79.6799 33.3757C79.6799 33.5879 80.0346 33.4418 80.0938 33.6123C79.9372 34.0158 80.4416 34.0575 80.7338 34.1166C81.0052 34.1027 80.9669 34.3497 80.9112 34.5862C80.8591 34.8263 80.8138 35.0454 81.1095 35.0385C81.0782 35.0698 81.1721 35.0384 81.1999 35.021L81.3147 35.2819C81.3147 35.2819 81.3564 35.355 81.4364 35.4384C81.5165 35.5219 81.6382 35.6124 81.8121 35.6402C81.9895 35.668 82.2191 35.6333 82.5078 35.4593C82.7965 35.2854 83.1444 34.9723 83.527 34.3914L83.5861 34.3671C83.6348 34.1236 83.5966 33.9984 83.2487 34.061C83.5792 33.8314 83.2035 33.9079 83.287 33.8036L83.3183 33.7897C82.9983 33.8627 83.4087 33.4453 83.1131 33.5079C83.1409 33.494 83.2348 33.4349 83.2557 33.4523C83.1653 33.414 83.0296 33.3723 83.2174 33.2366C83.0539 33.1114 82.9878 32.8192 82.6087 32.9479L82.6643 32.9166C82.4209 33.014 82.5809 32.8679 82.4313 32.8818C82.4522 32.861 82.4626 32.847 82.4731 32.8401C82.2296 32.934 82.3061 32.6905 82.1878 32.7079L82.3061 32.607C82.2678 32.5757 82.2261 32.5444 82.1843 32.5131L82.1948 32.5757C81.8539 32.8331 82.3269 32.3183 82.0452 32.4122C82.0173 32.2974 81.2417 32.8331 81.3356 32.621C81.1547 32.7149 81.6069 32.44 81.4434 32.4852C81.6069 32.3357 81.5687 32.4191 81.6904 32.287C81.5652 32.3009 81.7809 32.0435 81.6069 32.0783L81.7321 31.96C81.4191 32.0887 81.7461 31.64 81.4713 31.7896C81.2834 31.8 81.7843 31.3721 81.4539 31.5147L81.586 31.3131C81.5721 31.247 81.353 31.4869 81.3912 31.3652C81.4991 31.2643 81.4191 31.226 81.5443 31.153C81.6034 30.8886 81.113 31.1878 81.2486 30.7774C81.0225 30.9582 81.0712 30.7704 80.9043 30.9095C80.9843 30.8156 80.7825 30.7704 81.0399 30.6417C81.0608 30.6312 81.0712 30.6417 81.0399 30.68L81.1652 30.5617C81.3008 30.2521 80.9008 30.5616 80.8591 30.4573C80.8451 30.5199 80.8869 30.5374 80.786 30.6069L80.7304 30.5269L80.8416 30.433L80.7895 30.273L80.6886 30.4191C80.6956 30.3043 80.873 30.0573 80.6469 30.1964C80.5286 30.2799 80.5425 30.4191 80.4486 30.4156C80.4555 30.266 80.4625 30.0365 80.4034 29.9182C80.2851 30.0817 80.2643 30.0538 80.2156 30.0643L80.3234 29.9286C80.0729 30.033 80.5251 29.6017 80.306 29.6712L80.3895 29.5843L80.139 29.8452C79.8364 30.0434 80.3129 29.5251 79.9233 29.8173C79.9825 29.8243 79.7077 30.1338 79.7042 30.0364L79.819 29.9147C79.7703 29.9217 79.7181 29.9704 79.7216 29.9286C79.7912 29.8695 79.8781 29.7408 79.8225 29.7338L79.9755 29.5877L79.7146 29.7755C79.7668 29.5877 79.5372 29.6991 79.6555 29.4904C79.6555 29.4904 79.5999 29.3025 79.4155 29.4904C79.5338 29.379 79.5025 29.2782 79.6312 29.1425C79.492 29.2643 79.3077 29.3199 79.3807 29.1321L79.4016 29.1181C79.3668 28.8538 78.9981 29.1634 79.0015 28.8781C78.8937 29.0486 78.8868 28.9129 78.7615 29.1355C78.4867 29.2608 78.7998 28.5372 78.3163 29.1703C78.2328 29.1668 78.3441 28.9651 78.3337 28.9129L78.372 28.8886C78.2224 28.8677 78.1841 28.8538 78.1076 28.7842C78.0241 28.8225 77.8224 29.1355 77.7945 29.0103C77.8954 28.899 77.8502 28.906 77.8224 28.8886C77.8537 28.8816 77.885 28.8363 77.8989 28.732C77.8711 28.7668 77.8467 28.7877 77.8258 28.8016C77.8328 28.7912 77.8363 28.7842 77.8432 28.7703C77.7667 28.7842 77.7528 28.8294 77.7667 28.8607C77.7528 28.8781 77.7424 28.906 77.7285 28.9442C77.7772 28.7529 77.5823 28.8711 77.7041 28.652C77.5302 28.6137 77.2937 28.7808 77.1232 28.7981C77.1719 28.6764 77.2588 28.5929 77.318 28.5685L77.2067 28.5616C77.3006 28.3981 77.311 28.4955 77.3562 28.4781C77.4015 28.1581 76.9945 28.6207 77.0084 28.3111L76.911 28.4259V28.4016C76.8797 28.4711 76.7997 28.5476 76.7719 28.5616C76.831 28.4085 76.9527 28.2311 76.8867 28.2067C76.911 28.0433 76.7127 28.2068 76.6084 28.2485C76.6292 28.2903 76.5771 28.3633 76.5353 28.4085C76.504 28.3981 76.5597 28.245 76.504 28.2937L76.6014 28.099C76.518 28.2868 76.4205 28.2555 76.3684 28.3285C76.4275 28.1755 76.4797 28.2276 76.5423 28.1233C76.4101 28.078 76.4762 28.0989 76.344 28.0537C76.2049 28.1685 76.2605 28.245 76.1423 28.3981C76.0657 28.4085 75.944 28.5129 75.937 28.3633L75.8709 28.5476C75.697 28.6311 75.6448 28.5824 75.6588 28.3702C74.9178 28.892 74.657 29.3686 74.5665 29.706C74.4761 30.0434 74.5561 30.2451 74.5561 30.2451C74.6535 30.7704 75.0466 30.3286 75.4605 30.3773V30.3843Z" fill="#20BB65"/>
<path d="M85.3227 43.571L85.2383 43.5921C85.277 43.5921 85.3087 43.5922 85.3227 43.571Z" fill="#20BB65"/>
<path d="M83.9492 50.4443C83.9492 50.4443 83.9607 50.4515 83.9645 50.4551C83.9607 50.4479 83.953 50.4443 83.9492 50.4443Z" fill="#20BB65"/>
<path d="M82.5087 44.3291C82.5087 44.3291 82.4985 44.3222 82.4883 44.3188L82.5087 44.3291Z" fill="#20BB65"/>
<path d="M82.8426 43.0875C82.7208 43.4145 82.3417 43.4702 82.4599 43.825C82.4147 43.985 82.4843 44.1659 82.5087 44.3328C82.7904 44.4441 82.4878 44.5415 82.7208 44.6667L82.5504 44.6807C82.6304 44.7224 82.6791 44.7676 82.5852 44.785L82.5365 44.7781C82.6547 44.8407 82.5713 44.8824 82.6304 44.9172L82.5817 44.9067L82.5956 44.9659L82.5295 44.945C82.6512 45.0459 82.6478 45.1329 82.5747 45.1955L82.7765 45.2198C82.5295 45.3416 82.9295 45.4703 82.6408 45.5677L82.5921 45.5572C83.0861 45.832 82.1886 45.7764 82.6478 46.0546C82.5887 46.0199 82.5434 46.0442 82.4947 46.0337C82.5365 46.1311 82.5469 46.2286 82.9365 46.3051C82.9191 46.3677 82.8043 46.3329 82.6513 46.312C82.8217 46.3468 82.8808 46.4164 82.8843 46.4651L82.8217 46.4303L82.8495 46.5834L83.1765 46.6217C83.0687 46.6773 82.78 46.559 82.8426 46.646L83.1104 46.7017C83.0339 46.7956 82.6199 46.7712 82.4008 46.8268C82.1991 47.2095 82.7626 47.8217 82.1956 48.0896L81.9939 48.0547C81.7051 47.9852 82.3939 48.2739 82.1226 48.2182L82.2408 48.2982C82.1852 48.2982 82.1225 48.3087 82.0634 48.2705C82.0425 48.3087 82.0878 48.3226 82.1678 48.3747H81.9764C81.7921 48.493 82.0982 48.7261 81.9799 48.8792C81.559 48.9766 81.7747 49.4566 81.8999 49.7418C82.2234 50.194 80.9816 50.1835 81.3538 50.6566C81.312 50.6566 81.3921 50.7123 81.4234 50.7227L81.2842 50.9975C81.2842 50.9975 81.1312 51.335 81.3155 51.6515C81.4999 51.9611 82.0182 52.2671 83.3817 52.1315L83.4409 52.1593C83.6496 52.048 83.7226 51.9541 83.4513 51.728C83.8374 51.8428 83.5383 51.6027 83.6739 51.6062L83.7052 51.6202C83.4478 51.4184 84.0183 51.4915 83.7922 51.3036C83.82 51.3176 83.9244 51.3558 83.9244 51.3802C83.9 51.2932 83.8513 51.1645 84.074 51.2341C84.074 51.0428 84.2548 50.8306 83.9348 50.608L83.994 50.6357C83.7748 50.4966 83.9835 50.5419 83.8861 50.434C83.9174 50.441 83.9313 50.4375 83.9453 50.4445C83.7296 50.3019 83.9696 50.2323 83.8861 50.1453L84.0357 50.1871L84.0427 50.0374L83.994 50.0792C83.5905 49.9366 84.2826 50.0514 84.0461 49.874C84.1261 49.794 83.253 49.4357 83.4826 49.3975C83.3052 49.2966 83.7817 49.5296 83.653 49.4183C83.8652 49.4774 83.7783 49.4879 83.9522 49.5226C83.8687 49.4252 84.2027 49.4739 84.0809 49.3487L84.2479 49.394C83.9731 49.1992 84.5262 49.2478 84.2548 49.0948C84.1505 48.9452 84.7731 49.154 84.4775 48.9452L84.714 48.9592C84.7627 48.9174 84.4461 48.8478 84.5713 48.82C84.714 48.8617 84.7035 48.7783 84.8287 48.8478C85.0862 48.7748 84.5818 48.5035 85.0027 48.4304C84.7348 48.3226 84.9227 48.2808 84.7175 48.2008C84.8392 48.2252 84.7766 48.0339 85.0201 48.1939C85.041 48.2078 85.0305 48.2217 84.9853 48.2078L85.1488 48.26C85.4827 48.2391 85.0201 48.0408 85.0896 47.9539C85.027 47.9712 85.034 48.0095 84.9262 47.9573L84.9714 47.8739L85.107 47.9261L85.2218 47.8113L85.0444 47.7904C85.1488 47.7452 85.4479 47.7904 85.2183 47.6582C85.0896 47.5922 84.9714 47.6687 84.9331 47.5852C85.0688 47.5261 85.2775 47.4321 85.354 47.3277C85.1557 47.2964 85.1696 47.2687 85.1383 47.2269L85.3088 47.2582C85.1001 47.0877 85.6914 47.293 85.5314 47.133L85.6462 47.1677L85.2984 47.0634C84.9853 46.886 85.6636 47.0773 85.2288 46.8651C85.2496 46.9173 84.8496 46.813 84.9366 46.7677L85.0966 46.8164C85.0688 46.7781 85.0027 46.7538 85.041 46.7399C85.1245 46.7781 85.2775 46.799 85.2601 46.7434L85.4584 46.8164L85.1732 46.6669C85.361 46.6321 85.1627 46.479 85.3992 46.4964C85.3992 46.4964 85.5419 46.3677 85.2949 46.2877C85.4479 46.3468 85.521 46.2738 85.7018 46.3329C85.5314 46.2599 85.4027 46.1208 85.601 46.1069L85.6218 46.1207C85.8445 45.9816 85.4062 45.7834 85.6671 45.6686C85.4688 45.6442 85.5871 45.5816 85.3297 45.5607C85.1001 45.3659 85.8897 45.3485 85.1105 45.1781C85.0792 45.1015 85.3088 45.1189 85.354 45.0876L85.3923 45.112C85.347 44.9694 85.3436 44.9276 85.3749 44.8302C85.3053 44.7711 84.9401 44.7189 85.0375 44.6389C85.1801 44.6841 85.1558 44.6459 85.1627 44.6111C85.1836 44.6355 85.2358 44.6494 85.3401 44.6146C85.2949 44.6042 85.2705 44.5902 85.2462 44.5798C85.2566 44.5798 85.2671 44.5798 85.281 44.5798C85.2357 44.5172 85.1905 44.5241 85.1662 44.545C85.1453 44.5415 85.114 44.5415 85.0723 44.545C85.2671 44.5102 85.0792 44.385 85.3297 44.4059C85.2879 44.2319 85.0409 44.0858 84.9574 43.9397C85.0896 43.9362 85.201 43.978 85.2462 44.0232L85.2079 43.9189C85.3923 43.9363 85.3088 43.985 85.3436 44.0198C85.6567 43.9259 85.0688 43.7519 85.354 43.6337L85.2079 43.5954L85.2323 43.5884C85.1557 43.5814 85.0514 43.5432 85.027 43.5223C85.1905 43.5154 85.3992 43.5502 85.3957 43.4806C85.5557 43.4354 85.3297 43.3206 85.2462 43.244C85.2149 43.2823 85.1279 43.2614 85.0723 43.244C85.0723 43.2092 85.2323 43.1988 85.1662 43.1675L85.3853 43.178C85.1801 43.178 85.1662 43.0771 85.0792 43.0597C85.2427 43.0493 85.2149 43.1189 85.3401 43.1363C85.3262 42.9971 85.3331 43.0667 85.3192 42.9275C85.1557 42.8475 85.1105 42.931 84.9227 42.8893C84.8809 42.8232 84.7314 42.7571 84.867 42.6875L84.6722 42.7049C84.5261 42.5797 84.5505 42.5136 84.7488 42.4371C83.9626 41.9814 83.42 41.9536 83.0791 42.0092C82.7348 42.0684 82.5887 42.2214 82.5887 42.2214C82.1573 42.5205 82.7139 42.691 82.8461 43.084L82.8426 43.0875Z" fill="#20BB65"/>
<path d="M80.1809 59.3149L80.1035 59.2832C80.1387 59.3008 80.1668 59.3149 80.1809 59.3149Z" fill="#20BB65"/>
<path d="M79.4434 60.793C79.4434 60.793 79.451 60.8001 79.4587 60.8037L79.4434 60.793Z" fill="#20BB65"/>
<path d="M77.6384 58.2953C77.6384 58.2953 77.628 58.2884 77.6211 58.2849L77.6384 58.2953Z" fill="#20BB65"/>
<path d="M77.9831 58.111C77.8579 58.1423 77.5101 57.9893 77.6075 58.1354C77.5623 58.1597 77.6179 58.2363 77.6388 58.2954C77.8927 58.4484 77.6179 58.3441 77.8266 58.4763L77.6736 58.4067C77.7431 58.4519 77.7918 58.4868 77.7083 58.452L77.6666 58.4311C77.7744 58.5007 77.7014 58.4763 77.7535 58.5111L77.7118 58.4867L77.7257 58.5111L77.6666 58.4763C77.7744 58.5563 77.7744 58.5771 77.7118 58.5667L77.8927 58.6572C77.6736 58.5876 78.0388 58.7929 77.7848 58.7024L77.7431 58.678C78.1953 58.9633 77.3883 58.5737 77.8127 58.8485C77.7605 58.8137 77.7188 58.8033 77.677 58.7789C77.7188 58.8242 77.7327 58.8589 78.0875 59.0433C78.0736 59.0537 77.9727 58.9981 77.8335 58.9285C77.9866 59.0085 78.0457 59.0537 78.0492 59.0711L77.9936 59.0363L78.0284 59.0954L78.324 59.2415C78.2301 59.2137 77.9657 59.0607 78.0284 59.1129L78.2684 59.2381C78.2092 59.2381 77.8371 59.0606 77.6457 58.9876C77.4962 59.0259 78.0562 59.4468 77.5866 59.3111L77.4022 59.2207C77.1379 59.0816 77.7814 59.4503 77.5344 59.3251L77.6492 59.3981C77.6005 59.3772 77.5483 59.3564 77.4892 59.3181C77.4753 59.3216 77.517 59.3459 77.5936 59.3946L77.4231 59.3181C77.277 59.2868 77.5761 59.4851 77.4927 59.492C77.1344 59.3599 77.3953 59.6103 77.5483 59.7564C77.9031 60.0382 76.8144 59.5581 77.2248 59.8711C77.1866 59.8537 77.2666 59.906 77.2979 59.9199L77.2248 59.9651C77.2248 59.9651 76.957 60.2329 79.2597 61.1616L79.3154 61.193C79.4754 61.2312 79.5171 61.2243 79.2423 61.0434C79.5971 61.2278 79.2945 61.0329 79.4128 61.0851L79.4406 61.1025C79.1797 60.9321 79.6911 61.1756 79.458 61.026C79.4858 61.0434 79.5832 61.0956 79.5867 61.1025C79.5519 61.0643 79.4824 60.9982 79.6911 61.106C79.6563 61.0399 79.7815 61.0364 79.465 60.8381L79.5206 60.8695C79.305 60.7373 79.4962 60.8347 79.3919 60.7582C79.4197 60.7721 79.4336 60.779 79.4441 60.7825C79.2319 60.6503 79.4337 60.7199 79.3467 60.6573L79.4823 60.7303L79.465 60.6816H79.4302C79.0545 60.4729 79.6771 60.7791 79.4441 60.6295C79.5032 60.633 78.6823 60.1738 78.8806 60.2503C78.7101 60.146 79.1623 60.4103 79.0336 60.3233C79.2284 60.4277 79.1519 60.3964 79.3119 60.4764C79.2249 60.4138 79.5241 60.5599 79.4023 60.4694L79.5554 60.5494C79.2876 60.379 79.7815 60.6121 79.5206 60.4556C79.4058 60.3651 79.9832 60.6781 79.698 60.4938L79.9102 60.5947C79.9485 60.6016 79.6598 60.452 79.7676 60.4938C79.8963 60.5634 79.8789 60.5321 80.0006 60.6051C80.2198 60.6851 79.7397 60.3964 80.105 60.5425C79.8545 60.3999 80.0145 60.4625 79.8267 60.3547C79.938 60.4103 79.865 60.3268 80.0945 60.4729C80.1119 60.4833 80.1085 60.4868 80.0632 60.4624L80.2128 60.5425C80.5085 60.6712 80.0772 60.4208 80.1294 60.4242C80.0772 60.4034 80.0841 60.4208 79.9832 60.3582L80.0145 60.3512L80.1398 60.4208L80.2302 60.4312L80.0702 60.3512C80.1572 60.379 80.4285 60.5146 80.2128 60.3825C80.0911 60.3094 79.9937 60.2851 79.952 60.2433C80.0702 60.2816 80.2441 60.3373 80.3033 60.3373C80.1259 60.2468 80.1363 60.2433 80.1015 60.219L80.2546 60.299C80.0528 60.1633 80.5989 60.466 80.4424 60.3512L80.5468 60.4103L80.2302 60.2364C79.938 60.0555 80.5537 60.3894 80.1537 60.1494C80.1746 60.1738 79.8128 59.979 79.8858 59.9999L80.0319 60.0799C80.0041 60.0555 79.945 60.0207 79.9763 60.0346C80.0528 60.0798 80.192 60.1494 80.1711 60.125L80.3519 60.2294L80.0876 60.0694C80.2545 60.139 80.0667 60.0103 80.2789 60.1146C80.2789 60.1146 80.3972 60.1355 80.1711 60.0103C80.3102 60.0903 80.3728 60.1008 80.5363 60.1947C80.3798 60.1042 80.2615 60.0103 80.4354 60.0903L80.4528 60.1008C80.6476 60.1564 80.2441 59.9164 80.4737 59.9929C80.2928 59.9025 80.4007 59.9373 80.1711 59.8225C79.9624 59.6729 80.6685 60.0033 79.9658 59.6277C79.9345 59.5929 80.1398 59.6937 80.1815 59.7077L80.2163 59.732C80.1746 59.6729 80.1711 59.6625 80.1989 59.652C80.1363 59.6068 79.8093 59.4363 79.8963 59.4572C80.025 59.5303 80.0041 59.5094 80.0076 59.5024C80.025 59.5163 80.0737 59.5442 80.1641 59.579C80.1259 59.5546 80.1015 59.5407 80.0807 59.5302C80.0911 59.5372 80.098 59.5407 80.1119 59.5477C80.0702 59.5129 80.0319 59.492 80.0111 59.4886C79.9902 59.4781 79.9658 59.4676 79.9276 59.4468C80.1015 59.5198 79.9345 59.4085 80.1572 59.5198C80.1224 59.4572 79.9032 59.3146 79.8337 59.2415C79.9519 59.2972 80.0493 59.3564 80.0911 59.3877L80.0598 59.3459C80.2267 59.4294 80.1502 59.405 80.178 59.4294C80.4598 59.5407 79.938 59.2415 80.1989 59.3389L80.0702 59.2659L80.0945 59.2763C80.025 59.2415 79.9345 59.1859 79.9136 59.172C80.0597 59.2415 80.2476 59.3425 80.2441 59.3251C80.3902 59.3842 80.192 59.259 80.1189 59.2033C80.0911 59.1998 80.0111 59.1546 79.9624 59.1268C79.9624 59.1163 80.1084 59.1859 80.0493 59.1512L80.2441 59.2485C80.0598 59.158 80.0563 59.1302 79.9763 59.085C80.1224 59.1546 80.0946 59.1581 80.2024 59.2172C80.2024 59.179 80.2024 59.1998 80.1989 59.1615C80.0598 59.0711 80.0111 59.0711 79.8441 58.9772C79.8128 58.9459 79.6841 58.8624 79.8093 58.9076L79.6319 58.8241C79.5102 58.7302 79.538 58.7268 79.7224 58.7998C78.404 57.8989 77.8092 57.7841 77.8092 57.7841C77.3883 57.6623 77.8753 57.9546 77.9657 58.1076L77.9831 58.111Z" fill="#20BB65"/>
</svg>
