<svg width="77" height="39" viewBox="0 0 77 39" fill="none" xmlns="http://www.w3.org/2000/svg">
<path d="M2.85659 1.5957L2.79883 1.65073C2.83092 1.63698 2.85338 1.61633 2.85659 1.5957Z" fill="#ACDE45"/>
<path d="M5.97852 6.87733C5.97852 6.87733 5.98792 6.87396 5.99419 6.87061C5.98792 6.87061 5.98165 6.87061 5.97852 6.87733Z" fill="#ACDE45"/>
<path d="M0.637215 2.24832C0.686062 2.62264 0.415765 2.8596 0.68931 3.1515C0.738158 3.33008 0.89122 3.47087 1.00194 3.61511C1.27549 3.56703 1.10289 3.82457 1.34713 3.8074L1.22664 3.91388C1.31131 3.90701 1.37319 3.9173 1.31457 3.98942L1.27549 4.01004C1.39924 3.99974 1.36341 4.08558 1.42528 4.07871L1.3862 4.09934L1.4318 4.14398L1.36993 4.16457C1.51647 4.18517 1.56206 4.26418 1.55229 4.36034L1.71185 4.26417C1.6109 4.5183 1.97237 4.38092 1.82908 4.64192L1.79001 4.66255C2.30127 4.58356 1.64673 5.10898 2.14497 5.04373C2.0831 5.05404 2.06682 5.10211 2.02774 5.12615C2.11892 5.17766 2.19055 5.24975 2.49992 5.05744C2.52923 5.11926 2.42829 5.16735 2.31432 5.24977C2.45109 5.16392 2.53575 5.17767 2.56831 5.21888L2.50318 5.23259L2.62367 5.33219L2.86464 5.14329C2.83208 5.25662 2.56505 5.36311 2.66274 5.38715L2.87442 5.24977C2.88745 5.36997 2.60087 5.63438 2.49992 5.83013C2.6432 6.27657 3.41827 6.29717 3.29126 6.89815L3.15122 7.02865C2.93629 7.20379 3.54201 6.87413 3.34662 7.0424L3.47363 7.00463C3.44106 7.04584 3.41499 7.10077 3.35312 7.12138C3.3694 7.16259 3.40524 7.13858 3.4899 7.11111L3.38243 7.25532C3.37918 7.48197 3.72438 7.3961 3.77974 7.58498C3.63971 7.98335 4.13795 8.11387 4.42778 8.17225C4.93579 8.15165 4.36914 9.19905 4.94229 9.13723C4.91949 9.17157 5.00416 9.13381 5.02696 9.10977L5.20282 9.37077C5.20282 9.37077 5.43728 9.67296 5.77921 9.65236C6.1244 9.63862 6.54448 9.28147 6.99713 8.06577L7.04273 8.028C7.04273 7.80822 7.00039 7.71549 6.71382 7.84942C6.97108 7.57469 6.65846 7.72581 6.72034 7.61592L6.74314 7.59873C6.47285 7.7258 6.78873 7.28624 6.54449 7.39613C6.56729 7.37896 6.64544 7.31028 6.66172 7.32059C6.58682 7.30342 6.46634 7.28967 6.62265 7.13857C6.48262 7.05615 6.41423 6.82263 6.0951 6.97373L6.14393 6.9394C5.93226 7.04929 6.07229 6.90505 5.94203 6.93252C5.96157 6.91192 5.9681 6.89818 5.97787 6.89132C5.76294 6.99434 5.83458 6.77111 5.73037 6.79515L5.83782 6.69898L5.73363 6.62L5.74013 6.6784C5.42751 6.92223 5.87365 6.44143 5.61964 6.53415C5.60662 6.43456 4.88043 6.92223 4.97486 6.72305C4.80553 6.80547 5.23213 6.5616 5.08233 6.59938C5.2419 6.46545 5.19956 6.54104 5.32005 6.42427C5.20607 6.43458 5.42099 6.20791 5.26794 6.23538L5.39168 6.13234C5.10511 6.23193 5.4503 5.8473 5.18978 5.96407C5.0237 5.96063 5.52846 5.61379 5.21584 5.72025L5.36565 5.55198C5.36565 5.4936 5.13442 5.68934 5.18978 5.58288C5.3005 5.50389 5.2419 5.46268 5.36239 5.40773C5.46985 5.18451 4.99115 5.39742 5.19956 5.05744C4.96509 5.18794 5.05302 5.03 4.87717 5.12959C4.96835 5.05747 4.81203 4.98879 5.06278 4.91667C5.08231 4.9098 5.08558 4.92353 5.04976 4.951L5.18328 4.86859C5.38193 4.62476 4.96835 4.83424 4.95859 4.73465C4.92928 4.78616 4.95859 4.80675 4.85763 4.8514L4.83158 4.77242L4.94881 4.71059V4.56638L4.82506 4.67282C4.86414 4.57666 5.08559 4.40154 4.85763 4.48052C4.73389 4.5286 4.70458 4.65221 4.62968 4.62817C4.68178 4.49767 4.7632 4.30535 4.75668 4.19546C4.60689 4.30535 4.60035 4.27792 4.55476 4.27448L4.68829 4.18519C4.44731 4.21953 4.96509 3.95853 4.76318 3.96884L4.86087 3.91732L4.56454 4.07527C4.24866 4.168 4.81855 3.85549 4.40172 3.99629C4.44405 4.0169 4.11188 4.20234 4.1477 4.11992L4.28449 4.04782C4.24215 4.04095 4.18354 4.06841 4.20308 4.03407C4.28123 4.00316 4.39846 3.92073 4.35612 3.90013L4.53199 3.82115L4.25191 3.90357C4.36263 3.76276 4.14119 3.79024 4.31379 3.65288C4.31379 3.65288 4.34311 3.48462 4.12492 3.58421C4.26495 3.52927 4.27797 3.43998 4.43753 3.36786C4.27797 3.42624 4.11514 3.40907 4.25191 3.282H4.27145C4.36263 3.05878 3.93929 3.18239 4.07281 2.95917C3.91324 3.05533 3.9686 2.94546 3.76996 3.07596C3.50293 3.06566 4.08583 2.6192 3.41825 2.92827C3.35638 2.8905 3.5355 2.78062 3.55504 2.73255H3.59411C3.48991 2.65013 3.46711 2.62263 3.44757 2.53677C3.36616 2.52991 3.06005 2.681 3.10238 2.57111C3.23264 2.53333 3.19682 2.51616 3.18705 2.48869C3.21311 2.49556 3.25869 2.47839 3.32382 2.40284C3.28474 2.41657 3.25868 2.42003 3.23589 2.42346C3.24566 2.42003 3.25218 2.41314 3.26521 2.40627C3.20333 2.38223 3.16751 2.4097 3.161 2.44061C3.14146 2.44748 3.11865 2.46121 3.08934 2.48525C3.22286 2.35819 3.02097 2.36165 3.22613 2.25175C3.11867 2.14186 2.85814 2.15216 2.72788 2.07317C2.82883 2.00792 2.93629 1.99072 2.99165 2.00446L2.92002 1.94267C3.07633 1.87055 3.02747 1.94612 3.0698 1.95642C3.28148 1.7435 2.73766 1.87744 2.92002 1.65765L2.78649 1.69198L2.80279 1.67479C2.73766 1.7057 2.6367 1.71943 2.61065 1.71257C2.74091 1.63358 2.92327 1.57179 2.89396 1.52027C3.00794 1.41725 2.77998 1.42413 2.68228 1.40009C2.67251 1.4413 2.5911 1.46532 2.53899 1.47219C2.52271 1.44472 2.65298 1.36915 2.58785 1.37259L2.77021 1.29017C2.60088 1.37602 2.55204 1.29703 2.47388 1.32107C2.60414 1.24551 2.60739 1.3142 2.71486 1.27642C2.65298 1.16996 2.68554 1.22492 2.62367 1.11846C2.46084 1.11846 2.45107 1.20431 2.27848 1.24552C2.21986 1.20775 2.07007 1.20777 2.15799 1.09788L2.00169 1.18717C1.8356 1.13566 1.83234 1.06354 1.97563 0.92617C1.15825 0.809408 0.676283 0.933003 0.402737 1.10471C0.129192 1.27642 0.0640694 1.49277 0.0640694 1.49277C-0.18668 1.97356 0.360416 1.94953 0.640475 2.27577L0.637215 2.24832Z" fill="#ACDE45"/>
<path d="M13.1957 13.0352L13.1797 13.1132C13.1957 13.0826 13.2054 13.0521 13.1957 13.0352Z" fill="#ACDE45"/>
<path d="M18.709 15.6337C18.709 15.6337 18.7153 15.6274 18.7184 15.6211C18.7121 15.6242 18.709 15.6305 18.709 15.6337Z" fill="#ACDE45"/>
<path d="M12.8621 15.8271C12.8621 15.8271 12.8527 15.8339 12.8496 15.8406L12.8653 15.8271H12.8621Z" fill="#ACDE45"/>
<path d="M11.8142 14.986C12.065 15.2435 11.9803 15.6075 12.3613 15.659C12.4981 15.7689 12.6967 15.7827 12.8596 15.8273C13.0517 15.6144 13.055 15.9269 13.2406 15.7621L13.2047 15.9235C13.2666 15.8651 13.3252 15.8342 13.3155 15.9269L13.2927 15.9681C13.3871 15.8823 13.4034 15.9716 13.4522 15.9304L13.4294 15.9716L13.4913 15.9819L13.4555 16.0368C13.5858 15.9613 13.6639 15.9922 13.7063 16.078L13.7811 15.8995C13.8333 16.1673 14.0547 15.8342 14.0775 16.133L14.058 16.1742C14.4325 15.793 14.1785 16.6206 14.5432 16.2635C14.4976 16.3081 14.5106 16.3596 14.4911 16.4008C14.592 16.3905 14.6865 16.4043 14.8395 16.0574C14.8949 16.0883 14.8395 16.1879 14.7874 16.3253C14.8525 16.1742 14.9307 16.133 14.9795 16.1467L14.934 16.1948L15.0837 16.2051L15.1814 15.9063C15.214 16.0197 15.0479 16.2669 15.1424 16.2257L15.2433 15.9853C15.315 16.078 15.2173 16.4661 15.2336 16.6825C15.5755 16.9641 16.23 16.5314 16.4157 17.1083L16.3603 17.2971C16.2658 17.565 16.611 16.9469 16.5296 17.1976L16.6176 17.0945C16.611 17.1461 16.6176 17.2079 16.572 17.2594C16.6078 17.2869 16.6241 17.2422 16.6827 17.1735L16.6599 17.3555C16.7641 17.5479 17.0116 17.2834 17.1484 17.4139C17.2168 17.8329 17.6954 17.668 17.969 17.565C18.3988 17.2766 18.3793 18.482 18.8385 18.1317C18.8385 18.1729 18.8906 18.0973 18.9004 18.0664L19.1674 18.2072C19.1674 18.2072 19.4995 18.3549 19.7861 18.1694C20.0759 17.9874 20.3137 17.4723 20.1704 16.1707L20.1964 16.1158C20.0955 15.9201 20.0141 15.8583 19.8187 16.1158C19.9196 15.7449 19.7112 16.0334 19.7145 15.9029L19.7275 15.8754C19.5451 16.1227 19.62 15.5766 19.454 15.7964C19.467 15.7689 19.5028 15.6694 19.5223 15.6694C19.4442 15.6934 19.3335 15.7415 19.3986 15.5285C19.2325 15.5285 19.0599 15.3534 18.8482 15.6522L18.8743 15.5973C18.7408 15.8033 18.7929 15.6041 18.6919 15.6969C18.6985 15.6694 18.6984 15.6522 18.705 15.6419C18.5682 15.8445 18.5193 15.611 18.4379 15.6865L18.4835 15.5457L18.3533 15.532L18.3858 15.5801C18.2328 15.9578 18.3858 15.3054 18.21 15.5183C18.1481 15.4393 17.7606 16.2497 17.7443 16.0265C17.6401 16.1879 17.8843 15.7484 17.7769 15.8651C17.8485 15.6659 17.8518 15.7518 17.8941 15.5869C17.8029 15.6591 17.8746 15.3465 17.7541 15.4496L17.8094 15.2916C17.6108 15.5389 17.7117 15.0135 17.5489 15.2607C17.4056 15.3466 17.6596 14.7765 17.4447 15.034L17.487 14.8074C17.4577 14.7559 17.36 15.0512 17.3503 14.931C17.4024 14.8005 17.3307 14.8005 17.4056 14.6872C17.3796 14.4399 17.08 14.8864 17.0767 14.4777C16.9465 14.7181 16.9367 14.5361 16.839 14.7181C16.8781 14.6048 16.7055 14.6391 16.8813 14.4331C16.8944 14.4159 16.9074 14.4262 16.8879 14.4674L16.9562 14.3198C16.992 14.0004 16.7511 14.4124 16.6925 14.3335C16.6925 14.3953 16.7315 14.3953 16.6697 14.488L16.6078 14.4331L16.6729 14.3129L16.598 14.1893L16.5492 14.3541C16.5296 14.2511 16.6208 13.9763 16.471 14.1721C16.3929 14.282 16.4319 14.4056 16.357 14.4296C16.331 14.2923 16.2919 14.0828 16.2268 13.9935C16.1616 14.1721 16.1388 14.1549 16.0998 14.1789L16.1616 14.0244C15.9793 14.1927 16.2691 13.6741 16.1063 13.7978L16.1584 13.6947L15.9988 14.0004C15.7839 14.2614 16.09 13.6638 15.8197 14.0313C15.8686 14.0244 15.6927 14.3747 15.6764 14.2854L15.7513 14.1446C15.7122 14.1652 15.6764 14.2202 15.6732 14.1824C15.722 14.1103 15.7741 13.9729 15.7253 13.9798L15.8295 13.8081L15.6439 14.0416C15.6602 13.8596 15.4876 14.0141 15.5559 13.7978C15.5559 13.7978 15.4876 13.6398 15.3573 13.8527C15.442 13.7256 15.4029 13.6398 15.4941 13.4852C15.3931 13.6295 15.2466 13.7153 15.2889 13.5299L15.3052 13.5127C15.2563 13.2757 14.9763 13.6329 14.9567 13.365C14.8818 13.5402 14.8623 13.4165 14.7744 13.6432C14.5497 13.8012 14.7679 13.08 14.3999 13.7394C14.3282 13.7462 14.4129 13.5436 14.3999 13.4955L14.4292 13.468C14.2989 13.468 14.2664 13.4612 14.198 13.4028C14.1263 13.4475 13.9668 13.76 13.9375 13.6466C14.0221 13.5333 13.9831 13.5402 13.957 13.5264C13.9831 13.5161 14.0091 13.4715 14.0189 13.3685C13.9961 13.4063 13.9765 13.4234 13.9603 13.4406C13.9635 13.4303 13.9668 13.4234 13.9733 13.4097C13.9082 13.4303 13.8984 13.4749 13.9082 13.5024C13.8984 13.5196 13.8886 13.5471 13.8756 13.5848C13.9114 13.3994 13.7486 13.5264 13.8495 13.3101C13.6997 13.2895 13.4946 13.4612 13.348 13.4818C13.3936 13.365 13.4685 13.2826 13.5206 13.2586H13.4262C13.5076 13.0972 13.5141 13.1899 13.5532 13.1727C13.5955 12.8671 13.2406 13.3204 13.2569 13.0285L13.1689 13.1384V13.1144C13.1396 13.1796 13.068 13.2551 13.0419 13.2689C13.1005 13.1246 13.208 12.9529 13.1526 12.9323C13.182 12.7778 13.0029 12.9323 12.9117 12.9735C12.928 13.0148 12.8791 13.0834 12.84 13.1246C12.8107 13.1143 12.8693 12.9701 12.8205 13.0148L12.9182 12.8293C12.8335 13.0079 12.7521 12.977 12.7 13.0456C12.7586 12.9014 12.8042 12.9529 12.8661 12.8534C12.7554 12.8087 12.8107 12.8327 12.7 12.7881C12.5697 12.8911 12.6153 12.9667 12.5014 13.1109C12.433 13.1178 12.3157 13.2139 12.319 13.0731L12.2474 13.2449C12.0878 13.3135 12.0422 13.2586 12.0715 13.0594C11.3616 13.499 11.062 13.918 10.948 14.2305C10.834 14.543 10.9089 14.7525 10.9089 14.7525C10.9903 15.2882 11.4039 14.9104 11.8077 14.986H11.8142Z" fill="#ACDE45"/>
<path d="M27.8867 18.334L27.897 18.4155C27.9039 18.3815 27.9039 18.351 27.8867 18.334Z" fill="#ACDE45"/>
<path d="M33.9375 19.3947C33.9375 19.3947 33.9408 19.3846 33.9442 19.3779C33.9408 19.3846 33.9375 19.388 33.9375 19.3947Z" fill="#ACDE45"/>
<path d="M28.3402 21.1055C28.3402 21.1055 28.3334 21.1155 28.3301 21.1222L28.3402 21.1055Z" fill="#ACDE45"/>
<path d="M27.1383 20.635C27.4444 20.7999 27.4639 21.1708 27.8319 21.0987C27.9882 21.1605 28.1771 21.1158 28.3432 21.1021C28.4702 20.8411 28.5516 21.1399 28.6819 20.9235L28.6884 21.0884C28.734 21.0162 28.7796 20.9682 28.7926 21.0609L28.7828 21.1055C28.8512 20.9956 28.887 21.0781 28.9228 21.0197L28.9131 21.0643L28.9717 21.054L28.9522 21.1192C29.0531 21.0094 29.1378 21.0162 29.1997 21.0884L29.2257 20.896C29.3429 21.1398 29.4667 20.7552 29.5644 21.0334L29.5546 21.078C29.8151 20.6076 29.776 21.473 30.0366 21.03C30.004 21.0849 30.03 21.1296 30.0203 21.1776C30.1115 21.1399 30.2059 21.1261 30.271 20.7518C30.3297 20.769 30.3003 20.8789 30.2841 21.0265C30.3101 20.8617 30.3752 20.8033 30.4241 20.7999L30.3915 20.8582L30.5381 20.8274L30.5609 20.5114C30.6195 20.6144 30.5185 20.8926 30.5999 20.8308L30.639 20.5732C30.7302 20.6419 30.7269 21.0437 30.7921 21.2497C31.1796 21.4318 31.7104 20.8445 32.0165 21.3631L32.0035 21.5588C31.9677 21.8439 32.1696 21.157 32.1435 21.4215L32.2054 21.2978C32.2086 21.3493 32.2282 21.4077 32.1956 21.4695C32.2347 21.4867 32.2412 21.4421 32.2835 21.3597L32.2998 21.5416C32.4399 21.7031 32.6222 21.3871 32.7818 21.4799C32.9316 21.8713 33.3582 21.6001 33.6024 21.4386C33.9639 21.0609 34.1723 22.2457 34.5501 21.8026C34.5566 21.8439 34.5924 21.758 34.5956 21.7237L34.879 21.8061C34.879 21.8061 35.2241 21.8816 35.4716 21.6447C35.7224 21.4077 35.8689 20.8548 35.4944 19.6048L35.5107 19.543C35.3739 19.3713 35.2828 19.3232 35.1362 19.622C35.1688 19.2373 35.0125 19.5636 34.9929 19.4365L34.9995 19.4056C34.866 19.6872 34.8366 19.1343 34.7129 19.385C34.7194 19.3541 34.7357 19.2511 34.7585 19.2476C34.6868 19.2854 34.5826 19.3575 34.6087 19.1343C34.4426 19.1686 34.2374 19.0347 34.0876 19.3747L34.1039 19.3129C34.0128 19.543 34.0258 19.3369 33.9443 19.4502C33.9443 19.4193 33.9443 19.4056 33.9443 19.3919C33.8499 19.6185 33.7555 19.4022 33.6904 19.4949L33.7066 19.3472L33.5764 19.361L33.6187 19.3987C33.5471 19.8005 33.5601 19.1309 33.4331 19.3781C33.3549 19.3129 33.1433 20.1955 33.0814 19.9826C33.013 20.1646 33.1628 19.6804 33.0814 19.8177C33.1107 19.6048 33.1302 19.6906 33.1367 19.5189C33.0618 19.6082 33.0651 19.2854 32.9707 19.4194L32.9902 19.2545C32.8469 19.5396 32.8339 19.0072 32.7264 19.2854C32.6027 19.4056 32.7264 18.784 32.5766 19.0896L32.5669 18.8596C32.5278 18.8149 32.4952 19.1274 32.4594 19.0107C32.4822 18.8699 32.4105 18.887 32.4594 18.76C32.378 18.523 32.1826 19.0313 32.0882 18.6364C32.0133 18.9042 31.9644 18.7291 31.909 18.9282C31.9221 18.8081 31.7593 18.8836 31.8863 18.6398C31.896 18.6192 31.9091 18.626 31.9025 18.6707L31.9384 18.5093C31.8993 18.1899 31.756 18.6501 31.6811 18.5883C31.6974 18.6467 31.7332 18.6363 31.6941 18.7462L31.6192 18.7119L31.6583 18.578L31.5541 18.4784L31.5443 18.6501C31.502 18.5539 31.5248 18.2654 31.4238 18.4921C31.375 18.6192 31.4434 18.7291 31.375 18.7703C31.3164 18.6432 31.2284 18.4475 31.1405 18.3822C31.1177 18.5745 31.0949 18.5608 31.0624 18.5951L31.0852 18.4303C30.9451 18.6398 31.1047 18.0629 30.9744 18.2243L31.0005 18.1109L30.9191 18.4509C30.7725 18.76 30.9256 18.1006 30.7497 18.5265C30.7953 18.5059 30.7107 18.8905 30.6716 18.8115L30.7107 18.6535C30.6781 18.681 30.6586 18.7462 30.6455 18.7119C30.6748 18.6295 30.6911 18.4818 30.6455 18.5024L30.7042 18.3101L30.5804 18.5883C30.5478 18.4063 30.4176 18.602 30.4306 18.3754C30.4306 18.3754 30.3199 18.2414 30.2515 18.4818C30.3036 18.3342 30.2417 18.262 30.2906 18.0903C30.2287 18.2552 30.1082 18.3788 30.0984 18.1865L30.1082 18.1659C29.9942 17.9495 29.8151 18.3754 29.7272 18.1212C29.7012 18.3135 29.649 18.1968 29.623 18.4406C29.4471 18.657 29.4667 17.898 29.2843 18.6398C29.2159 18.6673 29.242 18.4509 29.2192 18.4028L29.242 18.365C29.115 18.4028 29.0824 18.4028 29.001 18.3685C28.9456 18.4337 28.874 18.7806 28.8154 18.681C28.8642 18.5471 28.8284 18.5677 28.8024 18.5608C28.8252 18.5436 28.8382 18.4921 28.8186 18.3925C28.8056 18.4338 28.7926 18.4578 28.7796 18.4784C28.7796 18.4681 28.7796 18.4578 28.7861 18.4441C28.7307 18.4818 28.7307 18.5265 28.747 18.5505C28.7405 18.5711 28.7405 18.5986 28.7372 18.6398C28.7209 18.4509 28.5972 18.6226 28.6363 18.3857C28.4832 18.4097 28.3334 18.6364 28.1967 18.7016C28.2064 18.578 28.2553 18.475 28.2976 18.4337L28.2032 18.4612C28.2357 18.2861 28.2716 18.3719 28.3041 18.341C28.2585 18.0354 28.0436 18.5814 27.9752 18.2964L27.9231 18.4303V18.4062C27.9068 18.4784 27.8612 18.5745 27.8384 18.5951C27.8515 18.4372 27.9068 18.2414 27.8482 18.238C27.8319 18.08 27.7017 18.2826 27.6268 18.3513C27.6528 18.3857 27.6268 18.4681 27.604 18.5162C27.5747 18.5162 27.5877 18.3582 27.5519 18.42L27.591 18.214C27.5649 18.4097 27.4737 18.4062 27.4444 18.4887C27.4574 18.3307 27.516 18.3685 27.5454 18.2517C27.4249 18.2449 27.4835 18.2517 27.363 18.2414C27.2686 18.3822 27.3369 18.4406 27.2685 18.6123C27.2067 18.6398 27.122 18.7737 27.0829 18.6329L27.0666 18.8218C26.9331 18.942 26.8745 18.9042 26.8452 18.705C26.3046 19.3609 26.1548 19.8589 26.1451 20.1955C26.1353 20.532 26.2623 20.7037 26.2623 20.7037C26.4903 21.1811 26.7638 20.6831 27.1611 20.6213L27.1383 20.635Z" fill="#ACDE45"/>
<path d="M43.5156 20.5898L43.5317 20.6679C43.5317 20.6339 43.5317 20.6 43.5156 20.5898Z" fill="#ACDE45"/>
<path d="M49.6875 21.2082C49.6875 21.2082 49.6909 21.1981 49.6942 21.1914C49.6909 21.1981 49.6875 21.2015 49.6875 21.2082Z" fill="#ACDE45"/>
<path d="M44.2073 23.2998C44.2073 23.2998 44.2006 23.3099 44.1973 23.3166L44.2073 23.2998Z" fill="#ACDE45"/>
<path d="M42.9888 22.9597C43.3047 23.0868 43.3568 23.4576 43.7052 23.3478C43.8615 23.3924 44.0439 23.3271 44.2035 23.3031C44.3044 23.0284 44.4086 23.3203 44.5226 23.0936L44.5422 23.2585C44.5812 23.1795 44.6203 23.1314 44.6431 23.2207L44.6366 23.2653C44.6952 23.1486 44.7375 23.2275 44.7669 23.1692L44.7603 23.2173L44.819 23.2035L44.8027 23.2688C44.8939 23.1486 44.9785 23.1486 45.0436 23.2138L45.0567 23.0215C45.1902 23.255 45.2846 22.8601 45.3986 23.1314L45.3921 23.1795C45.6201 22.6884 45.6331 23.5572 45.8643 23.0902C45.835 23.1486 45.8643 23.1898 45.8578 23.2379C45.9457 23.1898 46.0369 23.1726 46.0792 22.7914C46.1378 22.8017 46.115 22.9151 46.1085 23.0627C46.1248 22.8979 46.1834 22.8326 46.2323 22.8258L46.203 22.8876L46.343 22.8464L46.3495 22.5304C46.4114 22.6266 46.33 22.9151 46.4049 22.8464L46.4309 22.5854C46.5254 22.6472 46.5449 23.0456 46.6198 23.2482C47.0073 23.4027 47.5088 22.7846 47.8345 23.2791V23.4748C47.8084 23.7598 47.9778 23.0627 47.9647 23.3272L48.0201 23.2001C48.0266 23.2516 48.0461 23.31 48.0201 23.3718C48.0592 23.3856 48.0657 23.3409 48.1015 23.2585L48.1276 23.4405C48.2708 23.595 48.4402 23.2653 48.5997 23.3546C48.7626 23.7393 49.1729 23.4439 49.4106 23.2722C49.7623 22.8773 49.9935 24.0518 50.3582 23.595C50.3648 23.6363 50.4006 23.5469 50.4038 23.516L50.6839 23.5847C50.6839 23.5847 52.0581 23.8388 51.2603 21.3662L51.2733 21.3044C51.1333 21.1362 51.0389 21.0915 50.8956 21.3937C50.9184 21.0091 50.7718 21.3422 50.749 21.2117L50.7555 21.1808C50.6285 21.4658 50.5862 20.9164 50.4625 21.1705C50.469 21.1396 50.482 21.0366 50.5048 21.0297C50.4331 21.0709 50.3322 21.1465 50.3517 20.9233C50.1856 20.9645 49.9707 20.8374 49.8307 21.1843L49.8437 21.1224C49.759 21.3559 49.7656 21.1499 49.6841 21.2667C49.6841 21.2358 49.6809 21.222 49.6841 21.2083C49.5962 21.4384 49.4953 21.2254 49.4302 21.3216L49.4432 21.1739L49.3129 21.1945L49.3585 21.2323C49.2999 21.6376 49.2901 20.9679 49.1696 21.222C49.0882 21.1602 48.9059 22.0496 48.8375 21.8401C48.7756 22.0256 48.9091 21.5345 48.8277 21.6753C48.8472 21.4624 48.87 21.5448 48.8733 21.3731C48.7984 21.4658 48.7919 21.1464 48.7007 21.2804L48.7137 21.1155C48.5802 21.4074 48.5444 20.8786 48.4499 21.1602C48.3327 21.2873 48.4304 20.6623 48.2904 20.9748L48.2708 20.7481C48.2285 20.7069 48.209 21.0194 48.1699 20.9061C48.1862 20.7653 48.1178 20.7859 48.1601 20.6554C48.0657 20.4219 47.8898 20.9438 47.7758 20.5558C47.714 20.8271 47.6554 20.6554 47.6065 20.858C47.6163 20.7378 47.4535 20.8237 47.5674 20.573C47.5772 20.5524 47.5902 20.5592 47.5837 20.6039L47.6098 20.4425C47.5544 20.1265 47.4339 20.5936 47.3525 20.5386C47.372 20.5936 47.4079 20.5833 47.3753 20.6931L47.2971 20.6623L47.3265 20.5283L47.2157 20.4356V20.6073C47.1636 20.5146 47.1734 20.2227 47.0822 20.4562C47.0399 20.5867 47.1148 20.6897 47.0464 20.7378C46.9813 20.6142 46.8803 20.4287 46.7859 20.3669C46.7761 20.5592 46.7501 20.5489 46.7175 20.5867L46.7305 20.4218C46.6002 20.6416 46.7305 20.0544 46.6035 20.2261L46.6231 20.1128L46.5612 20.4562C46.4342 20.7756 46.5449 20.1059 46.3951 20.5455C46.4407 20.5215 46.3788 20.9129 46.3332 20.834L46.3625 20.676C46.33 20.7069 46.3137 20.7721 46.2974 20.7378C46.3235 20.6519 46.33 20.5077 46.2844 20.5283L46.3332 20.3326L46.2258 20.6176C46.1834 20.439 46.0629 20.6451 46.0597 20.415C46.0597 20.415 45.9392 20.2914 45.8838 20.5352C45.9262 20.3841 45.8578 20.3188 45.8968 20.1403C45.8447 20.312 45.7308 20.4424 45.708 20.2536L45.7177 20.233C45.5875 20.0269 45.4377 20.4665 45.327 20.2227C45.3139 20.415 45.2553 20.3051 45.2455 20.5523C45.0827 20.7824 45.0436 20.0269 44.9166 20.7824C44.8483 20.8168 44.8613 20.597 44.832 20.5523L44.8515 20.5146C44.7278 20.5661 44.692 20.5695 44.6073 20.5421C44.5552 20.6107 44.5161 20.9645 44.4445 20.8717C44.4835 20.7344 44.4477 20.755 44.4184 20.755C44.4379 20.7344 44.451 20.6829 44.4184 20.5867C44.4086 20.6314 44.3989 20.6554 44.3891 20.676C44.3891 20.6657 44.3891 20.6554 44.3891 20.6416C44.337 20.6863 44.3403 20.7309 44.3598 20.7515C44.3598 20.7721 44.3565 20.7996 44.3598 20.8408C44.3272 20.6554 44.2165 20.8408 44.236 20.597C44.083 20.6382 43.956 20.8752 43.8225 20.9576C43.8225 20.8305 43.8615 20.724 43.9006 20.6794L43.8094 20.7172C43.829 20.5386 43.8681 20.6211 43.9006 20.5867C43.8257 20.2879 43.6596 20.8511 43.5652 20.5764L43.5261 20.7138L43.5196 20.6897C43.5131 20.7653 43.4773 20.8649 43.4545 20.8855C43.4545 20.7275 43.4903 20.5283 43.4284 20.5318C43.3959 20.3772 43.2851 20.5936 43.2168 20.6691C43.2461 20.7 43.2298 20.7825 43.2102 20.8374C43.1809 20.8374 43.1777 20.6829 43.1484 20.7481L43.1646 20.5386C43.1581 20.7378 43.067 20.7447 43.0474 20.8271C43.0474 20.6691 43.106 20.6966 43.1256 20.5833C43.0051 20.5901 43.0637 20.5867 42.9432 20.5935C42.8651 20.7446 42.9367 20.7928 42.8879 20.9748C42.826 21.0091 42.7576 21.1499 42.7055 21.016V21.2048C42.5883 21.3388 42.5264 21.3113 42.4743 21.1155C41.5397 22.551 42.1095 23.1726 42.1095 23.1726C42.3798 23.6156 42.5915 23.0902 42.9758 22.9838L42.9888 22.9597Z" fill="#ACDE45"/>
<path d="M59.3574 22.9531V23.0347C59.3712 23.0007 59.3746 22.9701 59.3574 22.9531Z" fill="#ACDE45"/>
<path d="M65.334 25.2391C65.334 25.2391 65.3403 25.2328 65.3466 25.2266C65.3403 25.2297 65.3371 25.2328 65.334 25.2391Z" fill="#ACDE45"/>
<path d="M59.5824 25.748C59.5824 25.748 59.5756 25.7581 59.5723 25.7649L59.5857 25.748H59.5824Z" fill="#ACDE45"/>
<path d="M58.4824 25.2022C58.7657 25.3773 58.7527 25.7551 59.1044 25.7036C59.2444 25.7791 59.4268 25.7448 59.5831 25.7482C59.7296 25.4975 59.7752 25.8066 59.9217 25.604L59.9087 25.7688C59.9608 25.7001 60.0064 25.6589 60.0129 25.7516L59.9966 25.7963C60.0715 25.6933 60.1009 25.7791 60.1367 25.7276L60.1204 25.7723H60.179L60.1497 25.8306C60.2604 25.731 60.3386 25.7482 60.3874 25.8306L60.4395 25.6452C60.5177 25.8993 60.6903 25.5353 60.7424 25.8238L60.7261 25.8684C61.0452 25.4392 60.8726 26.2908 61.1885 25.889C61.1494 25.9405 61.1657 25.9852 61.1495 26.0298C61.2439 26.0058 61.3351 26.0092 61.4556 25.6486C61.5109 25.6727 61.4621 25.7791 61.423 25.9199C61.4751 25.7619 61.5467 25.7139 61.5923 25.7207L61.5533 25.7723L61.6965 25.7654L61.7747 25.4597C61.8138 25.5696 61.6672 25.8272 61.7552 25.7826L61.8398 25.5353C61.9147 25.6177 61.8398 26.0126 61.8626 26.2256C62.185 26.4728 62.8103 26.0161 62.9796 26.5896L62.921 26.7784C62.8233 27.0463 63.1685 26.4282 63.0838 26.6789L63.1717 26.5758C63.1652 26.6274 63.1652 26.6892 63.1229 26.7407C63.1554 26.7681 63.1717 26.7235 63.2304 26.6548L63.201 26.8368C63.289 27.0292 63.5397 26.7647 63.6602 26.8987C63.696 27.3142 64.1519 27.1665 64.4222 27.091C64.8749 26.8403 64.6893 28.0251 65.1647 27.7332C65.1549 27.7744 65.2168 27.7057 65.2331 27.6748L65.4578 27.8465C65.4578 27.8465 65.7346 28.0388 66.0407 27.9117C66.3435 27.7812 66.7083 27.3485 66.7864 26.0298L66.8223 25.9783C66.7506 25.7585 66.6725 25.6761 66.4315 25.8993C66.591 25.5525 66.3305 25.7963 66.3533 25.6692L66.3696 25.6418C66.1514 25.8547 66.298 25.3189 66.0928 25.5078C66.1091 25.4838 66.1579 25.3911 66.1807 25.3945C66.0961 25.4048 65.9723 25.4357 66.0667 25.2331C65.8909 25.2056 65.7248 24.9995 65.4773 25.2708L65.5099 25.2194C65.3536 25.4082 65.4252 25.2159 65.3112 25.2949C65.321 25.2674 65.321 25.2502 65.3275 25.2399C65.168 25.4254 65.1386 25.185 65.0475 25.2537L65.1061 25.1163L64.9726 25.0889L65.0051 25.1404C64.826 25.5044 65.0182 24.8622 64.826 25.0614C64.7641 24.9755 64.3278 25.7585 64.3245 25.5353C64.2106 25.6898 64.4808 25.2674 64.3636 25.3739C64.445 25.1781 64.445 25.264 64.4939 25.1026C64.3962 25.1678 64.4808 24.8553 64.3538 24.9549L64.4157 24.8004C64.204 25.0339 64.318 24.5188 64.1454 24.7557C63.9956 24.8381 64.2627 24.2715 64.038 24.5222L64.0803 24.2956C64.0477 24.2406 63.9468 24.5359 63.937 24.4123C63.9924 24.2818 63.9175 24.2818 63.9956 24.1685C63.9631 23.9144 63.6537 24.3608 63.6407 23.9487C63.5104 24.1891 63.4941 24.0071 63.3964 24.1891C63.4355 24.0758 63.2531 24.1101 63.429 23.9006C63.4453 23.8834 63.455 23.8938 63.4388 23.935L63.5071 23.7873C63.5299 23.4645 63.2922 23.8835 63.2238 23.8045C63.2303 23.8663 63.2694 23.8663 63.2076 23.9624L63.1359 23.9109L63.201 23.7873L63.1131 23.6637L63.0708 23.8285C63.0447 23.722 63.1196 23.4439 62.9763 23.6431C62.9014 23.7564 62.9535 23.88 62.8754 23.9041C62.8396 23.7632 62.781 23.5572 62.6995 23.4713C62.6442 23.6568 62.6214 23.6396 62.5823 23.6637L62.6344 23.5057C62.4553 23.6843 62.7158 23.1451 62.553 23.2791L62.5986 23.1726L62.4585 23.4885C62.2599 23.7633 62.5172 23.1451 62.2697 23.5297C62.3185 23.5194 62.172 23.8835 62.1459 23.7976L62.2111 23.6499C62.172 23.6705 62.1427 23.7323 62.1329 23.6946C62.1785 23.619 62.2143 23.4782 62.1655 23.4885L62.2566 23.3099L62.0841 23.5606C62.0775 23.3752 61.9147 23.5469 61.9603 23.3237C61.9603 23.3237 61.8659 23.1726 61.7584 23.3958C61.8301 23.2584 61.7779 23.176 61.8528 23.0146C61.7649 23.1657 61.6249 23.2688 61.6412 23.0764L61.6542 23.0593C61.563 22.8292 61.3253 23.2206 61.2602 22.9528C61.2113 23.1382 61.1722 23.0146 61.1169 23.255C60.9117 23.4404 61.0094 22.6918 60.7456 23.4061C60.674 23.4267 60.7229 23.2104 60.7033 23.1623L60.7294 23.1279C60.5958 23.1485 60.56 23.1451 60.4786 23.1005C60.4135 23.1588 60.3125 23.4954 60.2572 23.3889C60.319 23.2619 60.2832 23.2756 60.2539 23.2687C60.2767 23.2516 60.2995 23.2069 60.2865 23.1039C60.2702 23.1451 60.2539 23.1657 60.2409 23.1863C60.2409 23.176 60.2441 23.1657 60.2507 23.152C60.1888 23.1863 60.1855 23.2309 60.2018 23.255C60.1953 23.2756 60.1888 23.3031 60.1855 23.3408C60.1855 23.152 60.0422 23.31 60.1009 23.0764C59.9413 23.0867 59.772 23.2928 59.6287 23.3512C59.6482 23.2275 59.7036 23.1279 59.7524 23.0936L59.6547 23.1142C59.7003 22.9425 59.7296 23.0283 59.7654 23.0009C59.7361 22.6918 59.4821 23.2172 59.43 22.9288L59.3681 23.0593V23.0352C59.3486 23.1074 59.2965 23.2 59.2737 23.2172C59.2965 23.0627 59.3649 22.8704 59.303 22.8635C59.2933 22.7056 59.15 22.8978 59.0685 22.9631C59.0946 22.9974 59.062 23.0798 59.036 23.1279C59.0067 23.1279 59.0262 22.97 58.9871 23.0284L59.036 22.8223C59.0002 23.0181 58.9057 23.0077 58.8764 23.0902C58.8959 22.9356 58.9546 22.9734 58.9904 22.8601C58.8666 22.8464 58.9285 22.8532 58.8048 22.8395C58.7038 22.9768 58.7689 23.0352 58.694 23.2069C58.6289 23.231 58.541 23.358 58.5052 23.2172L58.4824 23.4027C58.3456 23.516 58.287 23.4782 58.2609 23.2756C57.7008 23.9144 57.551 24.4123 57.5315 24.7489C57.512 25.0854 57.6292 25.2571 57.6292 25.2571C57.8278 25.7345 58.1014 25.2434 58.4856 25.1987L58.4824 25.2022Z" fill="#ACDE45"/>
<path d="M73.002 31.5176L72.957 31.5819C72.9827 31.5582 73.002 31.5379 73.002 31.5176Z" fill="#ACDE45"/>
<path d="M71.4532 33.7051C71.4532 33.7051 71.4438 33.7084 71.4375 33.7118L71.4563 33.7051H71.4532Z" fill="#ACDE45"/>
<path d="M71.0787 32.8399C71.1536 33.0906 70.9191 33.3619 71.1732 33.4683C71.2187 33.5817 71.3523 33.6332 71.4532 33.7018C71.7007 33.5816 71.5379 33.8255 71.7593 33.743L71.6486 33.8564C71.7235 33.8289 71.7821 33.8186 71.7268 33.8873L71.6909 33.9113C71.8049 33.8701 71.7691 33.9422 71.8244 33.9216L71.7854 33.9457L71.8244 33.9697L71.7691 34.0006C71.8994 33.9766 71.9384 34.0247 71.9222 34.1002L72.0719 33.9903C71.9612 34.2066 72.3032 34.0212 72.1534 34.2513L72.1143 34.2754C72.593 34.114 71.9384 34.636 72.3976 34.4952C72.339 34.5123 72.3194 34.5535 72.2804 34.5776C72.3585 34.6016 72.4139 34.6428 72.7232 34.4505C72.7428 34.4951 72.6451 34.5432 72.5279 34.6257C72.6646 34.5398 72.7395 34.5398 72.7656 34.5673L72.7037 34.5844L72.8014 34.6462L73.0489 34.4677C73 34.5638 72.7395 34.6737 72.8275 34.6806L73.0424 34.5501C73.0359 34.6428 72.733 34.8798 72.606 35.0377C72.6483 35.3502 73.3583 35.3365 73.088 35.8001L72.9251 35.8963C72.6809 36.0268 73.3192 35.7795 73.0977 35.9066L73.2248 35.8791C73.1857 35.91 73.1466 35.9512 73.0847 35.9649C73.0847 35.9959 73.127 35.9787 73.2117 35.9615L73.0717 36.068C73.0033 36.2328 73.3387 36.1813 73.3257 36.329C73.0717 36.614 73.4625 36.7376 73.6937 36.8235C74.1561 36.8922 73.2345 37.5447 73.7425 37.5962C73.71 37.6168 73.7979 37.6065 73.8272 37.5962L73.8565 37.816C73.8565 37.816 73.9086 38.0735 74.1984 38.1525C74.4883 38.2246 75.0321 38.1525 75.9797 37.3695L76.0384 37.3558C76.1361 37.1807 76.1426 37.0845 75.8299 37.0982C76.1719 36.9609 75.8299 36.9815 75.9341 36.9093L75.9634 36.9025C75.6736 36.9231 76.1328 36.6587 75.869 36.6724C75.8983 36.6655 75.9928 36.6312 76.0026 36.6449C75.9407 36.6072 75.8365 36.5591 76.0351 36.4801C75.9374 36.3702 75.9602 36.147 75.615 36.195L75.6704 36.1779C75.4392 36.2191 75.615 36.1298 75.488 36.1229C75.5141 36.1092 75.5238 36.0989 75.5369 36.0954C75.3056 36.1332 75.4457 35.9615 75.3415 35.9581L75.4717 35.8997L75.4033 35.8104L75.3903 35.8619C75.0256 36.0062 75.5857 35.6868 75.3252 35.7143C75.3415 35.625 74.5273 35.9169 74.6739 35.7692C74.4948 35.8139 74.9572 35.6731 74.8074 35.6834C74.993 35.5941 74.9344 35.6525 75.0744 35.57C74.967 35.5632 75.2307 35.4018 75.0809 35.3983L75.2242 35.3262C74.9279 35.3743 75.348 35.0858 75.0744 35.1545C74.9214 35.1339 75.475 34.8901 75.1558 34.945L75.335 34.8145C75.348 34.763 75.0875 34.9072 75.1624 34.8214C75.2861 34.763 75.2372 34.7218 75.361 34.684C75.5075 34.4917 75.0061 34.6394 75.2666 34.3509C75.0223 34.4505 75.1298 34.3166 74.9474 34.3921C75.0484 34.3337 74.9051 34.2616 75.1591 34.2101C75.1786 34.2067 75.1819 34.217 75.1428 34.2376L75.2828 34.1689C75.5075 33.956 75.0809 34.1208 75.0842 34.0315C75.0484 34.0761 75.0744 34.0968 74.9702 34.1311L74.9572 34.059L75.0777 34.0075L75.0972 33.877L74.9605 33.9697C75.0093 33.8839 75.2438 33.7259 75.0158 33.7911C74.8921 33.8323 74.8465 33.9457 74.7781 33.9216C74.8432 33.8049 74.9409 33.6297 74.9409 33.5267C74.7879 33.6297 74.7814 33.6057 74.7358 33.6022L74.8725 33.5164C74.6381 33.5507 75.1558 33.3035 74.9605 33.3138L75.0582 33.2623L74.7618 33.4168C74.4524 33.513 75.0223 33.2004 74.6088 33.3515C74.6478 33.3687 74.3157 33.5542 74.3547 33.4786L74.4915 33.4065C74.4525 33.4031 74.3938 33.4305 74.4134 33.3996C74.4915 33.3687 74.6088 33.2863 74.5664 33.2691L74.7423 33.1867L74.4687 33.2794C74.5827 33.1455 74.3645 33.1867 74.5371 33.0493C74.5371 33.0493 74.5697 32.8914 74.3547 33.0013C74.4915 32.9394 74.5045 32.8536 74.6608 32.7712C74.5045 32.8364 74.345 32.8399 74.4785 32.7094L74.498 32.7025C74.5827 32.4861 74.1724 32.6544 74.2961 32.4312C74.1463 32.5411 74.1952 32.4312 74.0095 32.5823C73.7555 32.6201 74.2864 32.1153 73.6644 32.5136C73.6025 32.493 73.7686 32.3591 73.7849 32.3144L73.8239 32.3007C73.7197 32.2526 73.6969 32.232 73.6709 32.1599C73.5927 32.1736 73.3159 32.3728 73.3452 32.2698C73.4657 32.2045 73.4299 32.1977 73.4169 32.1771C73.4429 32.1771 73.4853 32.1496 73.5406 32.0672C73.5048 32.0878 73.4788 32.0981 73.4592 32.1084C73.469 32.1015 73.4755 32.0981 73.4853 32.0878C73.4234 32.0844 73.3941 32.1152 73.3908 32.1427C73.3746 32.153 73.355 32.1736 73.3257 32.2011C73.4397 32.0603 73.2476 32.1118 73.4299 31.9642C73.3159 31.8955 73.075 31.9745 72.9447 31.947C73.0326 31.8611 73.1303 31.813 73.1824 31.8096L73.1043 31.7787C73.241 31.6688 73.2085 31.7478 73.2475 31.7478C73.4136 31.5006 72.9219 31.7787 73.0619 31.5349L72.9447 31.607L72.9577 31.5864C72.9023 31.6345 72.8112 31.6791 72.7851 31.6825C72.8926 31.5727 73.0522 31.4593 73.0163 31.425C73.1043 31.2979 72.8926 31.3804 72.7981 31.3941C72.7981 31.4319 72.7265 31.4799 72.6776 31.504C72.6581 31.4868 72.7656 31.3769 72.7037 31.4044L72.8568 31.2705C72.7167 31.4044 72.6581 31.3563 72.5897 31.401C72.6939 31.2911 72.7135 31.346 72.8014 31.2773C72.7232 31.2087 72.7623 31.243 72.6874 31.1777C72.5376 31.2361 72.5474 31.3116 72.3976 31.4112C72.339 31.4009 72.2055 31.4593 72.2641 31.3357L72.1403 31.4696C71.9808 31.4971 71.9645 31.4456 72.0622 31.2739C71.3132 31.528 70.9322 31.8611 70.7238 32.1118C70.5186 32.3659 70.4893 32.5445 70.4893 32.5445C70.3362 32.9875 70.7987 32.7197 71.0755 32.8433L71.0787 32.8399Z" fill="#ACDE45"/>
</svg>
