<svg width="73" height="52" viewBox="0 0 73 52" fill="none" xmlns="http://www.w3.org/2000/svg">
<path d="M3.45783 2.37988L3.38672 2.41106C3.42227 2.4076 3.45137 2.3972 3.45783 2.37988Z" fill="#20BB65"/>
<path d="M5.23242 8.32893C5.23242 8.32893 5.24287 8.32893 5.24984 8.3252C5.24287 8.3252 5.23591 8.3252 5.23242 8.32893Z" fill="#20BB65"/>
<path d="M1.04434 3.74329C1.04434 3.74329 1.0304 3.73957 1.02344 3.73584L1.04434 3.74329Z" fill="#20BB65"/>
<path d="M1.10467 2.23051C1.03002 2.62339 0.698979 2.76593 0.877479 3.1588C0.864497 3.35698 0.978092 3.55515 1.043 3.73942C1.32536 3.78462 1.0787 3.98976 1.32211 4.05582L1.17606 4.12536C1.26044 4.14622 1.31886 4.18099 1.24422 4.23314L1.19878 4.24008C1.32535 4.27137 1.26694 4.34787 1.3286 4.36178L1.28316 4.36872L1.31561 4.43132H1.2507C1.39025 4.50433 1.41622 4.59819 1.37402 4.69554L1.55577 4.64688C1.38376 4.87635 1.78297 4.852 1.57201 5.07104L1.52657 5.08148C2.05558 5.16144 1.26368 5.49869 1.77971 5.58214C1.7148 5.57171 1.68884 5.62036 1.6434 5.63079C1.72129 5.71424 1.77647 5.80812 2.13022 5.70381C2.1432 5.77335 2.03285 5.7942 1.89979 5.84635C2.05557 5.79768 2.13672 5.83942 2.15944 5.88809L2.09128 5.88113L2.18539 6.02019L2.47099 5.89503C2.40933 6.00281 2.12049 6.03062 2.21461 6.08625L2.45802 6.00629C2.44504 6.13146 2.09778 6.32269 1.95497 6.49653C1.9712 6.74686 2.18215 6.93806 2.35091 7.12929C2.51643 7.32399 2.64949 7.51871 2.52941 7.82119L2.36391 7.92201C2.11401 8.05412 2.78581 7.85594 2.55863 7.98459L2.69493 7.97417C2.65598 8.00893 2.61704 8.06107 2.55213 8.06802C2.56187 8.1167 2.60406 8.09584 2.69493 8.08888L2.55863 8.21404C2.51643 8.45047 2.88317 8.44004 2.90589 8.65212C2.70143 9.03805 3.1915 9.28838 3.48035 9.39616C3.74647 9.4344 3.68805 9.69864 3.65559 9.9594C3.61989 10.2202 3.59392 10.4913 3.89251 10.4983C3.86654 10.5331 3.95742 10.5018 3.98339 10.4844L4.13916 10.7869C4.13916 10.7869 4.1911 10.8773 4.28846 10.9677C4.38907 11.0581 4.53186 11.1485 4.70712 11.1624C5.06412 11.1937 5.51523 10.8529 6.09942 9.65692L6.15135 9.62216C6.17407 9.39964 6.1481 9.3023 5.83978 9.4066C6.13187 9.15627 5.79759 9.27446 5.87548 9.17016L5.90145 9.15278C5.61585 9.25013 5.98584 8.84684 5.7262 8.9268C5.75216 8.91289 5.83655 8.85032 5.85278 8.86422C5.77813 8.83641 5.66128 8.80858 5.83978 8.67646C5.70996 8.57564 5.67751 8.33574 5.33674 8.44352L5.39191 8.4157C5.16472 8.49567 5.32375 8.37051 5.19069 8.37746C5.21341 8.36008 5.22315 8.34618 5.23288 8.33922C5.00246 8.41224 5.10956 8.19667 4.99922 8.20362L5.12255 8.12367C5.09009 8.09237 5.06412 8.06108 5.03491 8.02979L5.02842 8.08888C4.67466 8.28358 5.20043 7.86986 4.93431 7.92549C4.9408 7.82466 4.12617 8.18623 4.25275 8.00196C4.06776 8.05412 4.53836 7.88724 4.38257 7.89767C4.56432 7.79336 4.5124 7.85942 4.65195 7.76207C4.53512 7.75511 4.79476 7.5639 4.63573 7.56043L4.77853 7.48045C4.47346 7.52912 4.88887 7.20579 4.60976 7.27533C4.44424 7.24056 5.01544 6.99371 4.6844 7.03891L4.86614 6.90331C4.88237 6.8442 4.60976 6.99022 4.68765 6.89635C4.81422 6.83724 4.7623 6.78856 4.89536 6.76075C5.05114 6.56605 4.52862 6.67385 4.80773 6.38527C4.54809 6.46524 4.67143 6.32617 4.47346 6.38527C4.58056 6.3366 4.44099 6.23228 4.70387 6.21489C4.72659 6.21489 4.72659 6.22881 4.6844 6.24271L4.83695 6.19057C5.08685 5.99587 4.63247 6.1106 4.64546 6.01325C4.60326 6.05498 4.62922 6.08279 4.51888 6.10365L4.5124 6.02019L4.64221 5.98543L4.67792 5.84635L4.52862 5.92285C4.58704 5.83593 4.84992 5.71772 4.60976 5.74205C4.4767 5.75944 4.41504 5.87418 4.35013 5.83245C4.43451 5.71772 4.56107 5.55084 4.58054 5.44306C4.40529 5.51259 4.40529 5.48478 4.35985 5.47088L4.5124 5.41524C4.26899 5.38742 4.84018 5.26574 4.63896 5.2275L4.74931 5.19968L4.41827 5.27966C4.08723 5.28661 4.72659 5.13015 4.28197 5.16144C4.31767 5.19273 3.94444 5.28659 3.99961 5.21706L4.15214 5.1823C4.11319 5.16491 4.04829 5.17535 4.07425 5.14754C4.15863 5.14058 4.29494 5.08843 4.25924 5.05714L4.45398 5.02584L4.15864 5.0328C4.30468 4.92849 4.0775 4.89372 4.28521 4.8068C4.28521 4.8068 4.35661 4.65383 4.11969 4.68512C4.26898 4.67121 4.31118 4.58776 4.48643 4.56342C4.31442 4.57385 4.15864 4.51128 4.32741 4.42784H4.35013C4.49942 4.24705 4.04829 4.24703 4.24302 4.06624C4.06128 4.11144 4.1489 4.02104 3.91523 4.09058C3.65883 4.00018 4.35012 3.74639 3.6134 3.84026C3.56147 3.78463 3.77243 3.73247 3.80164 3.69422L3.84384 3.70118C3.7627 3.59688 3.75296 3.56212 3.75945 3.47172C3.68156 3.44043 3.34078 3.4891 3.41218 3.39522C3.55174 3.3987 3.52253 3.3709 3.51604 3.3396C3.53876 3.35699 3.59068 3.35352 3.67507 3.30136C3.63287 3.30136 3.6069 3.29788 3.58418 3.2944C3.59392 3.2944 3.60367 3.29092 3.61665 3.28744C3.56148 3.24572 3.52252 3.25963 3.5063 3.28744C3.48682 3.28744 3.45761 3.2944 3.42191 3.3083C3.59067 3.23181 3.38947 3.16577 3.62315 3.12753C3.54526 2.98845 3.2986 2.90848 3.19474 2.79027C3.31483 2.76245 3.42192 2.77983 3.47385 2.81113L3.42191 2.72769C3.59392 2.7103 3.52577 2.76941 3.56471 2.79027C3.83408 2.65467 3.26613 2.60253 3.50954 2.44955L3.36999 2.43563L3.39271 2.42521C3.32131 2.43216 3.21746 2.41129 3.19474 2.39739C3.34403 2.3661 3.542 2.36957 3.52902 2.30699C3.67182 2.24788 3.44788 2.17487 3.36349 2.11577C3.34078 2.15054 3.25639 2.14706 3.20122 2.13663C3.19473 2.10534 3.34402 2.07753 3.27911 2.05667L3.48357 2.03929C3.29209 2.06363 3.27263 1.96974 3.18825 1.96279C3.33754 1.93497 3.32131 2.00451 3.4349 2.00451C3.40894 1.88282 3.42192 1.94194 3.39596 1.82025C3.23693 1.76114 3.20447 1.84111 3.02272 1.82025C2.98053 1.76114 2.83124 1.70898 2.95456 1.63597L2.77282 1.66379C2.63002 1.55601 2.64951 1.483 2.83125 1.40303C2.0848 0.989294 1.5785 0.926714 1.26044 0.992773C0.942386 1.05883 0.809318 1.25005 0.809318 1.25005C0.413371 1.63598 0.945628 1.82024 1.11439 2.24789L1.10467 2.23051Z" fill="#20BB65"/>
<path d="M12.188 14.917L12.1719 15.0001C12.188 14.9689 12.1977 14.9378 12.188 14.917Z" fill="#20BB65"/>
<path d="M17.8457 17.633C17.8457 17.633 17.8529 17.6258 17.8601 17.6187C17.8529 17.6222 17.8493 17.6294 17.8457 17.633Z" fill="#20BB65"/>
<path d="M11.8651 17.8203C11.8651 17.8203 11.8546 17.8278 11.8477 17.8353L11.8651 17.8203Z" fill="#20BB65"/>
<path d="M10.7895 16.9514C11.0491 17.2156 10.9648 17.5981 11.3542 17.6468C11.4938 17.7581 11.695 17.7755 11.8638 17.8172C12.0585 17.5947 12.0617 17.9215 12.25 17.7442L12.2143 17.9111C12.2792 17.852 12.3376 17.8172 12.3279 17.9146L12.3052 17.9563C12.4025 17.8659 12.4187 17.9598 12.4674 17.9146L12.4447 17.9563L12.5064 17.9633L12.4674 18.0224C12.5972 17.9424 12.6816 17.9737 12.7238 18.0641L12.8017 17.8798C12.8569 18.158 13.0808 17.8103 13.1035 18.1198L13.0808 18.1615C13.4605 17.765 13.2041 18.6239 13.5774 18.2519C13.5319 18.2971 13.5449 18.3492 13.5254 18.3945C13.6293 18.3805 13.7267 18.3944 13.8792 18.0363C13.9344 18.0711 13.8792 18.1719 13.8273 18.3145C13.8954 18.1545 13.9733 18.1163 14.022 18.1267L13.9766 18.1789L14.1291 18.1893L14.2297 17.8763C14.2622 17.9946 14.0934 18.2484 14.1908 18.2101L14.2946 17.9633C14.3692 18.0572 14.2686 18.4605 14.2849 18.6865C14.6321 18.9786 15.2975 18.5301 15.4857 19.1316L15.4273 19.3264C15.3267 19.6046 15.6837 18.9613 15.5993 19.222L15.6902 19.1142C15.6837 19.1699 15.6902 19.2325 15.6415 19.2847C15.6772 19.3125 15.6934 19.2673 15.7551 19.1977L15.7324 19.3889C15.8362 19.5906 16.0926 19.3159 16.2289 19.4516C16.2938 19.8897 16.7806 19.7193 17.0597 19.6185C17.5044 19.3229 17.4589 20.5747 17.9328 20.22C17.9295 20.2618 17.9847 20.1853 17.9977 20.154L18.2638 20.3035C18.2638 20.3035 18.5949 20.4634 18.8934 20.2792C19.1953 20.0983 19.4517 19.5698 19.3381 18.2136L19.364 18.1545C19.2634 17.9494 19.1823 17.8798 18.9746 18.1441C19.0882 17.7616 18.8642 18.0572 18.8707 17.9215L18.8837 17.8937C18.6922 18.1476 18.7798 17.5808 18.6013 17.8033C18.6143 17.7755 18.6533 17.6712 18.676 17.6747C18.5948 17.6955 18.478 17.7442 18.5527 17.5251C18.3807 17.5217 18.2054 17.3339 17.9847 17.6434L18.0139 17.5842C17.8744 17.7964 17.9295 17.5912 17.8257 17.6851C17.8322 17.6538 17.8322 17.6399 17.8387 17.626C17.6959 17.8311 17.6504 17.5877 17.566 17.6677L17.6147 17.5217L17.4816 17.5043L17.5141 17.553C17.3551 17.9424 17.5141 17.2678 17.3324 17.4869C17.2707 17.4034 16.865 18.238 16.8488 18.0085C16.7385 18.1754 16.9948 17.7233 16.8812 17.8381C16.9559 17.6295 16.9591 17.7199 17.0046 17.5495C16.9105 17.6225 16.9851 17.2956 16.8618 17.4069L16.9202 17.2435C16.7157 17.4973 16.8196 16.9549 16.6541 17.2087C16.5048 17.2991 16.7709 16.7045 16.5502 16.9722L16.5956 16.7393C16.5664 16.6836 16.4626 16.9896 16.4561 16.8644C16.5113 16.7288 16.4366 16.7288 16.5145 16.6106C16.4885 16.3498 16.177 16.8158 16.177 16.3915C16.0407 16.6419 16.0342 16.4507 15.9303 16.6384C15.9725 16.5202 15.794 16.555 15.9758 16.3428C15.992 16.3255 16.0017 16.3359 15.9822 16.3776L16.0537 16.2246C16.0926 15.8943 15.8427 16.322 15.781 16.2385C15.781 16.3011 15.82 16.3011 15.7551 16.3985L15.6902 16.3428L15.7583 16.2177L15.6804 16.089L15.6285 16.2594C15.609 16.1516 15.7031 15.8665 15.5474 16.0682C15.4662 16.1829 15.5084 16.3116 15.4305 16.3359C15.4045 16.1899 15.3656 15.9743 15.2942 15.8839C15.2261 16.0716 15.2066 16.0508 15.1644 16.0786L15.2261 15.9186C15.0378 16.0925 15.3364 15.5535 15.1676 15.6822L15.2228 15.5744L15.0605 15.8908C14.8431 16.162 15.1514 15.5396 14.8756 15.9221C14.9242 15.9152 14.7457 16.2768 14.7295 16.1864L14.8074 16.0403C14.7684 16.0612 14.7327 16.1203 14.7295 16.0786C14.7814 16.0056 14.8333 15.863 14.7814 15.8699L14.8885 15.6926L14.6971 15.936C14.71 15.7482 14.5348 15.9082 14.6062 15.6822C14.6062 15.6822 14.5348 15.5187 14.405 15.7378C14.4926 15.6057 14.4504 15.5153 14.5445 15.3553C14.4439 15.5048 14.2914 15.5918 14.3336 15.4005L14.3498 15.3831C14.2946 15.1397 14.0122 15.5118 13.9928 15.2336C13.9149 15.4179 13.8987 15.2858 13.8078 15.5257C13.5806 15.6891 13.798 14.9415 13.4248 15.6265C13.3502 15.6335 13.4346 15.4249 13.4248 15.3727L13.454 15.3414C13.321 15.3414 13.2885 15.3345 13.2171 15.2753C13.1457 15.324 12.9834 15.6474 12.951 15.5327C13.0354 15.4144 12.9964 15.4214 12.9705 15.4075C12.9964 15.397 13.0256 15.3518 13.0321 15.244C13.0094 15.2823 12.9899 15.3031 12.9705 15.3205C12.9737 15.3101 12.9769 15.3032 12.9834 15.2892C12.9185 15.3101 12.9055 15.3553 12.9185 15.3866C12.9088 15.4075 12.8991 15.4318 12.8861 15.4735C12.9218 15.2788 12.7563 15.4144 12.8569 15.1884C12.7011 15.1675 12.4966 15.3449 12.3441 15.3692C12.3895 15.2475 12.4642 15.1606 12.5193 15.1328H12.422C12.5064 14.9659 12.5128 15.0597 12.5518 15.0423C12.594 14.7259 12.2337 15.1988 12.25 14.8928L12.1623 15.0076V14.9832C12.1331 15.0528 12.0617 15.1293 12.0325 15.1432C12.0909 14.9937 12.2013 14.8163 12.1461 14.7955C12.1753 14.6355 11.9936 14.7955 11.8995 14.8407C11.9157 14.8824 11.867 14.9554 11.8281 14.9971C11.7988 14.9867 11.8573 14.8337 11.8053 14.8824L11.9027 14.6911C11.8183 14.8789 11.7339 14.8441 11.682 14.9172C11.7404 14.7676 11.7859 14.8198 11.8475 14.719C11.7339 14.6738 11.7923 14.6946 11.6788 14.6494C11.5457 14.7572 11.5944 14.8372 11.4775 14.9867C11.4094 14.9937 11.2893 15.0945 11.2925 14.9485L11.2212 15.1293C11.0556 15.2023 11.0102 15.1467 11.0427 14.938C10.3189 15.4005 10.0106 15.8317 9.897 16.1586C9.78341 16.4854 9.85806 16.701 9.85806 16.701C9.94569 17.2574 10.3676 16.8645 10.7798 16.941L10.7895 16.9514Z" fill="#20BB65"/>
<path d="M27.1621 20.9912V21.0778C27.176 21.0432 27.176 21.0085 27.1621 20.9912Z" fill="#20BB65"/>
<path d="M33.2246 22.9421C33.2246 22.9421 33.2318 22.9349 33.2354 22.9277C33.2282 22.9313 33.2246 22.9385 33.2246 22.9421Z" fill="#20BB65"/>
<path d="M27.3528 23.9048C27.3491 23.9122 27.3454 23.916 27.3379 23.9235L27.3528 23.9048Z" fill="#20BB65"/>
<path d="M26.1924 23.2931C26.4845 23.4913 26.4683 23.8808 26.8415 23.8425C26.9908 23.9225 27.1823 23.8947 27.3511 23.9016C27.5036 23.6443 27.5555 23.9642 27.7081 23.7556L27.6951 23.926C27.747 23.8564 27.7989 23.8112 27.8054 23.9086L27.7892 23.9538C27.8671 23.846 27.8996 23.9364 27.9385 23.8843L27.9223 23.9295H27.9839L27.9547 23.9886C28.0683 23.8877 28.1527 23.9051 28.2046 23.9886L28.2533 23.7938C28.3442 24.0581 28.5129 23.6756 28.5778 23.9782L28.5616 24.0233C28.8797 23.5713 28.7369 24.458 29.0517 24.0338C29.0127 24.0859 29.0322 24.1346 29.0192 24.1833C29.1166 24.1555 29.214 24.1555 29.3211 23.7764C29.3795 23.8008 29.3373 23.9121 29.3016 24.0616C29.347 23.8947 29.4184 23.8425 29.4703 23.8495L29.4314 23.9051L29.5807 23.8912L29.6424 23.5678C29.6878 23.6826 29.5515 23.9573 29.6424 23.9016L29.717 23.6408C29.8014 23.7243 29.7462 24.1381 29.7852 24.3606C30.1487 24.6006 30.762 24.0755 30.999 24.6527L30.96 24.8544C30.8854 25.143 31.1807 24.4649 31.119 24.7327L31.2002 24.618C31.2002 24.6736 31.2067 24.7362 31.1677 24.7918C31.2034 24.8162 31.2196 24.7709 31.2716 24.691L31.2651 24.8822C31.3819 25.07 31.6124 24.7709 31.7552 24.8961C31.8493 25.3238 32.3134 25.1117 32.5828 24.9865C33.0047 24.6597 33.0306 25.908 33.4753 25.522C33.4753 25.5672 33.5272 25.4838 33.5337 25.449L33.803 25.5812C33.803 25.5812 35.1369 26.1375 34.7734 23.4357L34.7994 23.3765C34.6891 23.1749 34.6014 23.1088 34.4067 23.387C34.4976 22.9975 34.2931 23.307 34.2899 23.1714L34.3028 23.1401C34.1243 23.4044 34.1795 22.8306 34.014 23.0671C34.027 23.0392 34.0594 22.9315 34.0822 22.935C34.001 22.9628 33.8874 23.0184 33.9458 22.7924C33.7706 22.7993 33.5824 22.6255 33.3779 22.9488L33.4038 22.8898C33.2773 23.1123 33.3195 22.9002 33.2188 23.001C33.2221 22.9697 33.2221 22.9558 33.2286 22.9419C33.0988 23.1575 33.0339 22.921 32.956 23.0045L32.9949 22.855L32.8619 22.848L32.9008 22.8967C32.7677 23.3 32.8781 22.6116 32.7126 22.8446C32.6412 22.7646 32.3004 23.6339 32.2679 23.4079C32.1706 23.5852 32.3945 23.1088 32.2874 23.2375C32.3458 23.0254 32.3556 23.1123 32.388 22.9384C32.2971 23.0184 32.3491 22.688 32.2322 22.8063L32.2777 22.6394C32.0927 22.9106 32.1543 22.3612 32.005 22.629C31.8655 22.7333 32.0765 22.1143 31.8785 22.4029L31.9012 22.1665C31.8655 22.1143 31.7909 22.4307 31.7714 22.3056C31.8136 22.1665 31.7389 22.1734 31.8071 22.0482C31.7552 21.7909 31.4858 22.2847 31.4403 21.8639C31.33 22.1282 31.3008 21.9405 31.2164 22.1387C31.2456 22.017 31.0704 22.0691 31.2294 21.8396C31.2424 21.8222 31.2554 21.8292 31.2391 21.8744L31.2943 21.7144C31.2943 21.3806 31.0898 21.8327 31.0184 21.7562C31.0282 21.8188 31.0671 21.8153 31.0119 21.9196L30.9405 21.8709L30.9957 21.7388L30.9016 21.6205L30.8691 21.7944C30.8367 21.6901 30.8983 21.3945 30.7653 21.6136C30.6971 21.7388 30.7556 21.8605 30.6777 21.8918C30.6322 21.7527 30.5673 21.5406 30.4829 21.4571C30.4375 21.6519 30.4148 21.6345 30.3758 21.6658L30.4213 21.4988C30.2525 21.6936 30.4862 21.1233 30.3304 21.2728L30.3726 21.1615L30.246 21.4988C30.0578 21.7979 30.2947 21.1372 30.061 21.5545C30.1097 21.5405 29.9766 21.9265 29.9474 21.8361L30.0059 21.6796C29.9669 21.704 29.941 21.7666 29.9312 21.7283C29.9734 21.6483 30.0058 21.4988 29.9572 21.5127L30.0415 21.3215L29.8793 21.5892C29.8695 21.398 29.7105 21.5823 29.7527 21.3493C29.7527 21.3493 29.6553 21.1963 29.5547 21.4328C29.6229 21.2867 29.571 21.2067 29.6424 21.0329C29.5612 21.1963 29.4217 21.3041 29.4346 21.1059L29.4476 21.0885C29.3568 20.8521 29.1231 21.2658 29.0582 20.9946C29.0095 21.1893 28.9705 21.0607 28.9186 21.3145C28.7141 21.5127 28.8148 20.7338 28.5486 21.478C28.474 21.4988 28.5259 21.2763 28.5065 21.2276L28.5324 21.1928C28.3994 21.2172 28.3637 21.2137 28.2825 21.1685C28.2176 21.2276 28.1105 21.5788 28.0586 21.4675C28.1235 21.3354 28.0845 21.3528 28.0586 21.3423C28.0845 21.325 28.104 21.2763 28.091 21.1685C28.0748 21.2102 28.0586 21.2346 28.0424 21.2554C28.0424 21.245 28.0456 21.2346 28.0521 21.2207C27.9904 21.2554 27.9872 21.3006 28.0034 21.3284C27.9969 21.3493 27.9904 21.3771 27.9872 21.4188C27.9872 21.2206 27.8444 21.3841 27.906 21.1442C27.747 21.1546 27.5718 21.3667 27.4257 21.4223C27.4484 21.2937 27.5069 21.1928 27.5555 21.158L27.4582 21.1754C27.5101 20.9981 27.5361 21.0885 27.5718 21.0607C27.5523 20.7408 27.2797 21.2798 27.2375 20.9773L27.1726 21.1094V21.085C27.1499 21.1581 27.0947 21.252 27.072 21.2693C27.0979 21.1094 27.1758 20.9112 27.1141 20.9007C27.1109 20.7373 26.9616 20.932 26.8772 20.9946C26.9032 21.0329 26.8675 21.1128 26.8383 21.165C26.8091 21.1615 26.835 21.0016 26.7928 21.0607L26.8513 20.8486C26.8058 21.0503 26.715 21.0363 26.6793 21.1198C26.7052 20.9598 26.7636 21.0016 26.8026 20.8868C26.6793 20.8695 26.7409 20.8764 26.6176 20.859C26.5105 20.9981 26.5722 21.0607 26.491 21.2346C26.4229 21.2589 26.3288 21.3876 26.2995 21.2381L26.2671 21.4293C26.121 21.5406 26.0659 21.4988 26.0496 21.2867C24.8423 22.549 25.2967 23.3035 25.2967 23.3035C25.4849 23.8147 25.7965 23.3244 26.2022 23.3001L26.1924 23.2931Z" fill="#20BB65"/>
<path d="M42.6602 26.3035V26.39C42.6705 26.3554 42.674 26.3242 42.6602 26.3035Z" fill="#20BB65"/>
<path d="M48.6035 28.8213C48.6035 28.8213 48.6107 28.8141 48.6179 28.8069C48.6107 28.8105 48.6071 28.8141 48.6035 28.8213Z" fill="#20BB65"/>
<path d="M42.6888 29.2207C42.6888 29.2207 42.6813 29.2319 42.6738 29.2393L42.6888 29.2207Z" fill="#20BB65"/>
<path d="M41.5731 28.5465C41.8522 28.7586 41.8133 29.148 42.1832 29.1307C42.326 29.2211 42.5175 29.2037 42.683 29.2211C42.8518 28.9742 42.881 29.2976 43.0465 29.0994L43.0238 29.2698C43.079 29.2037 43.1342 29.1619 43.1342 29.2593L43.1147 29.3045C43.1991 29.2037 43.2218 29.2941 43.2672 29.2454L43.2477 29.2906H43.3062L43.2737 29.3532C43.3938 29.2593 43.4749 29.2837 43.5204 29.3671L43.582 29.1759C43.6534 29.4471 43.8449 29.0785 43.8871 29.381L43.8676 29.4262C44.2149 28.9985 44.0072 29.8748 44.3512 29.4749C44.309 29.5236 44.3252 29.5758 44.3058 29.621C44.4031 29.6001 44.4972 29.607 44.6368 29.2384C44.692 29.2662 44.64 29.3741 44.5946 29.5201C44.653 29.3567 44.7277 29.3115 44.7764 29.3219L44.7342 29.374H44.8834L44.9711 29.0576C45.0068 29.1759 44.851 29.4367 44.9419 29.3914L45.036 29.1376C45.1106 29.228 45.0262 29.6348 45.0457 29.8574C45.38 30.1286 46.0323 29.6662 46.2141 30.2642L46.1557 30.459C46.0551 30.7371 46.4121 30.0939 46.3244 30.3547L46.4153 30.2468C46.4088 30.3025 46.4121 30.3651 46.3666 30.4172C46.3991 30.445 46.4186 30.3998 46.477 30.3303L46.451 30.5181C46.5451 30.7163 46.8015 30.4451 46.9313 30.5842C46.98 31.0188 47.4571 30.8588 47.7362 30.7684C48.1906 30.4937 48.0673 31.7351 48.5476 31.4117C48.5411 31.4535 48.6027 31.3805 48.6157 31.3492L48.8624 31.5161C48.8624 31.5161 49.1707 31.7003 49.479 31.5439C49.7873 31.3874 50.1054 30.8971 50.0957 29.5305L50.1281 29.4749C50.0437 29.2558 49.9626 29.1793 49.7322 29.4262C49.8717 29.0541 49.6251 29.3289 49.6413 29.1933L49.6575 29.1654C49.4466 29.4019 49.5699 28.842 49.3752 29.0507C49.3914 29.0229 49.4336 28.9255 49.4563 28.929C49.3719 28.9429 49.2518 28.9846 49.3362 28.769C49.161 28.7516 48.989 28.55 48.7488 28.8455L48.7812 28.7899C48.632 28.995 48.6936 28.7899 48.5833 28.8768C48.5898 28.8455 48.593 28.8316 48.5995 28.8177C48.447 29.0159 48.408 28.769 48.3204 28.8455L48.3756 28.703L48.2425 28.6786L48.275 28.7308C48.0997 29.1133 48.2814 28.4422 48.0932 28.6543C48.0315 28.5673 47.5999 29.3914 47.5934 29.1585C47.4798 29.3219 47.7492 28.8768 47.6324 28.9916C47.7135 28.7864 47.7103 28.8768 47.7622 28.7064C47.6648 28.776 47.7492 28.4526 47.6194 28.5569L47.681 28.397C47.4701 28.6438 47.5804 28.1049 47.4084 28.3552C47.2559 28.4422 47.5285 27.851 47.3013 28.1153L47.3468 27.8823C47.3143 27.8267 47.2104 28.1327 47.204 28.004C47.2591 27.8684 47.1845 27.8684 47.2624 27.7502C47.2332 27.4859 46.9184 27.9519 46.9086 27.5276C46.7756 27.778 46.7626 27.5867 46.662 27.778C46.7009 27.6598 46.5192 27.6945 46.7009 27.4789C46.7171 27.4616 46.7269 27.472 46.7074 27.5172L46.7788 27.3642C46.808 27.0304 46.5614 27.4615 46.4964 27.3781C46.5029 27.4407 46.5386 27.4407 46.477 27.5416L46.4088 27.4859L46.477 27.3607L46.3893 27.2321L46.3439 27.4025C46.3179 27.2947 46.4056 27.006 46.253 27.2112C46.1751 27.3294 46.2238 27.4546 46.1427 27.4824C46.1102 27.3364 46.0583 27.1208 45.9804 27.0304C45.9187 27.2181 45.896 27.2008 45.8571 27.2286L45.9155 27.0651C45.7305 27.2459 46.0096 26.6966 45.8409 26.8287L45.8928 26.7209L45.7402 27.0443C45.5293 27.3225 45.8149 26.6896 45.552 27.0825C45.6039 27.0721 45.4384 27.4442 45.4157 27.3538L45.4871 27.2042C45.4482 27.2251 45.4157 27.2877 45.4092 27.246C45.4579 27.1695 45.5001 27.0234 45.4514 27.0338L45.5488 26.8495L45.367 27.1034C45.367 26.9122 45.1983 27.0825 45.2534 26.853C45.2534 26.853 45.1658 26.6931 45.049 26.9191C45.1301 26.78 45.0782 26.6931 45.1626 26.5262C45.0684 26.6827 44.9191 26.78 44.9484 26.5818L44.9646 26.5644C44.8867 26.321 44.627 26.7139 44.5784 26.4392C44.5167 26.6305 44.4842 26.4984 44.4161 26.7452C44.1986 26.9261 44.3447 26.1576 44.0331 26.8809C43.9585 26.8948 44.0234 26.6792 44.0039 26.627L44.0331 26.5922C43.8968 26.6061 43.8611 26.5992 43.7832 26.5505C43.7151 26.6061 43.5885 26.9469 43.5398 26.8357C43.6112 26.707 43.5723 26.7209 43.5431 26.7105C43.569 26.6966 43.5918 26.6479 43.5885 26.5401C43.569 26.5818 43.5528 26.6027 43.5366 26.6235C43.5398 26.6131 43.5431 26.6026 43.5463 26.5887C43.4814 26.62 43.4749 26.6653 43.4911 26.6931C43.4814 26.7139 43.4749 26.7418 43.4684 26.7835C43.4814 26.5853 43.3289 26.7417 43.4035 26.5018C43.2412 26.5018 43.0563 26.7035 42.907 26.7487C42.9362 26.6235 43.0011 26.5262 43.0498 26.4914L42.9492 26.5018C43.0108 26.3279 43.0335 26.4219 43.0692 26.394C43.0692 26.0706 42.7642 26.5957 42.7382 26.2897L42.6668 26.4184V26.394C42.6441 26.4671 42.5824 26.5575 42.5565 26.5749C42.5922 26.4149 42.6765 26.2236 42.6149 26.2097C42.6181 26.0428 42.4591 26.2306 42.3715 26.2897C42.3942 26.3279 42.3552 26.4079 42.3228 26.4566C42.2936 26.4496 42.326 26.2932 42.2806 26.3488L42.3487 26.1402C42.2936 26.3384 42.2027 26.321 42.1638 26.401C42.1995 26.241 42.2546 26.2862 42.3001 26.175C42.1767 26.1471 42.2384 26.1611 42.1151 26.1367C42.0015 26.2689 42.0599 26.3349 41.969 26.5053C41.9009 26.5262 41.8003 26.6479 41.7776 26.4984L41.7354 26.6896C41.5861 26.7904 41.5309 26.7487 41.5244 26.5366C40.2652 27.7363 40.6871 28.5152 40.6871 28.5152C40.8493 29.0333 41.1804 28.5604 41.5828 28.5534L41.5731 28.5465Z" fill="#20BB65"/>
<path d="M57.4706 33.845L57.4512 33.9281C57.4706 33.897 57.4803 33.8657 57.4706 33.845Z" fill="#20BB65"/>
<path d="M62.7168 37.8581C62.7168 37.8581 62.7272 37.8507 62.7342 37.8469C62.7272 37.8469 62.7203 37.8544 62.7168 37.8581Z" fill="#20BB65"/>
<path d="M56.9041 36.696C56.9041 36.696 56.8937 36.7035 56.8867 36.711L56.9041 36.696Z" fill="#20BB65"/>
<path d="M55.9725 35.7955C56.2029 36.0632 56.0828 36.4317 56.4431 36.4978C56.5632 36.616 56.7482 36.6438 56.9039 36.6994C57.1181 36.4978 57.0792 36.8177 57.2772 36.6647L57.2187 36.8246C57.2869 36.7725 57.3486 36.7447 57.3258 36.8385L57.2999 36.8768C57.4037 36.8003 57.407 36.8907 57.4589 36.8524L57.4329 36.8906L57.4914 36.9046L57.4459 36.9567C57.5822 36.8907 57.6536 36.9359 57.6828 37.0297L57.7834 36.8594C57.7932 37.1375 58.0593 36.8281 58.0334 37.134L58.0074 37.1723C58.4358 36.842 58.0431 37.6416 58.4618 37.3357C58.4098 37.3739 58.4131 37.4261 58.3871 37.4643C58.4877 37.4678 58.5753 37.4991 58.7895 37.1758C58.8382 37.2175 58.7636 37.3079 58.6857 37.4365C58.7798 37.294 58.8609 37.2696 58.9064 37.2905L58.8512 37.3322L58.994 37.3704L59.1498 37.0888C59.1563 37.2105 58.9486 37.4261 59.0459 37.4052L59.192 37.1827C59.2439 37.2905 59.0687 37.6591 59.0362 37.8816C59.2958 38.2258 60.0293 37.9511 60.0585 38.5769L59.9547 38.7508C59.7891 38.9907 60.2857 38.4691 60.1429 38.6951L60.2565 38.6152C60.237 38.6638 60.224 38.7264 60.1689 38.7646C60.1948 38.7994 60.224 38.7647 60.2987 38.709L60.2273 38.8829C60.2695 39.1019 60.581 38.9072 60.6719 39.0776C60.6102 39.5052 61.1036 39.4878 61.3924 39.4809C61.8987 39.3488 61.4573 40.503 61.9993 40.3292C61.9798 40.3674 62.0577 40.3153 62.0805 40.2875L62.2719 40.5204C62.2719 40.5204 62.5153 40.7847 62.8496 40.7325C63.1839 40.6769 63.6253 40.3083 63.9823 38.9941L64.0277 38.9524C64.0018 38.716 63.9466 38.6152 63.6577 38.782C63.8914 38.4657 63.5798 38.6569 63.6318 38.5317L63.6545 38.5108C63.3916 38.6743 63.6545 38.1701 63.4111 38.3127C63.4338 38.2918 63.502 38.2084 63.5214 38.2188C63.4371 38.2084 63.3105 38.2084 63.4468 38.0276C63.2813 37.958 63.1644 37.7112 62.8594 37.9233L62.9048 37.8781C62.7068 38.0311 62.8204 37.8537 62.6906 37.9059C62.7068 37.8815 62.7101 37.8642 62.7198 37.8537C62.5218 37.9997 62.5445 37.7529 62.4407 37.7946L62.5283 37.6729L62.405 37.6104L62.4245 37.6694C62.1616 37.9893 62.5023 37.3948 62.2654 37.5443C62.2265 37.44 61.6066 38.1145 61.6553 37.8885C61.506 38.0136 61.8727 37.6625 61.7332 37.7355C61.8598 37.5617 61.837 37.6486 61.9279 37.4956C61.8143 37.5338 61.9766 37.2453 61.824 37.3114L61.9214 37.1723C61.6553 37.3496 61.8955 36.8629 61.665 37.0541C61.4963 37.0958 61.9019 36.6021 61.6163 36.7933L61.7137 36.5778C61.6975 36.5152 61.5222 36.7829 61.5449 36.6577C61.6326 36.543 61.5579 36.5186 61.6618 36.4282C61.6942 36.164 61.2788 36.5256 61.3697 36.1119C61.1815 36.317 61.2107 36.1292 61.0711 36.2857C61.1393 36.1814 60.9543 36.164 61.1782 36.0076C61.1977 35.9937 61.2042 36.0076 61.1782 36.0458L61.2821 35.9172C61.3892 35.6008 61.0484 35.9519 61.003 35.8546C60.9932 35.9172 61.0322 35.9276 60.9478 36.0076L60.8926 35.9345L60.9867 35.8303L60.9315 35.6842L60.8472 35.8372C60.8472 35.726 60.9965 35.4687 60.8017 35.6251C60.6979 35.719 60.7174 35.8546 60.633 35.8581C60.633 35.7085 60.633 35.4826 60.5778 35.3748C60.4772 35.5417 60.4577 35.5174 60.4123 35.5347L60.5031 35.3922C60.2825 35.5173 60.6784 35.0584 60.4837 35.1419L60.5583 35.0515L60.3376 35.3261C60.0715 35.5417 60.4869 34.9993 60.1429 35.3122C60.1948 35.3122 59.9514 35.6355 59.9514 35.5417L60.052 35.413C60.0098 35.4234 59.9644 35.4721 59.9644 35.4339C60.0261 35.3713 60.104 35.2427 60.052 35.2392L60.1883 35.0862L59.9547 35.2844C60.0001 35.1001 59.7956 35.2183 59.8995 35.0097C59.8995 35.0097 59.8476 34.8289 59.6853 35.0236C59.7924 34.9089 59.7632 34.8115 59.8833 34.6725C59.7567 34.7976 59.5912 34.8567 59.6593 34.6725L59.6788 34.6586C59.6528 34.4013 59.3153 34.7177 59.325 34.4361C59.2244 34.6064 59.2212 34.4708 59.1011 34.6933C58.8512 34.815 59.153 34.1023 58.6987 34.7281C58.6208 34.7281 58.7311 34.5264 58.7246 34.4743L58.7603 34.45C58.624 34.4291 58.5916 34.4152 58.5234 34.3457C58.4455 34.3839 58.2508 34.6864 58.2281 34.5647C58.3255 34.4569 58.2833 34.4604 58.2573 34.443C58.2865 34.4361 58.319 34.3943 58.3352 34.2865C58.306 34.3213 58.2865 34.3387 58.267 34.3526C58.2735 34.3422 58.2768 34.3352 58.2833 34.3213C58.2151 34.3352 58.1989 34.377 58.2086 34.4083C58.1956 34.4256 58.1826 34.45 58.1697 34.4882C58.2216 34.3005 58.0399 34.4117 58.1632 34.1996C58.0042 34.1579 57.7802 34.3144 57.6244 34.3213C57.6763 34.2031 57.7607 34.1232 57.8159 34.1023L57.7153 34.0919C57.8094 33.9354 57.8127 34.0328 57.8549 34.0154C57.9165 33.699 57.5173 34.1405 57.5498 33.8346L57.4557 33.9423L57.4621 33.918C57.4232 33.9841 57.3453 34.0571 57.3193 34.0675C57.3843 33.9215 57.5076 33.7511 57.4492 33.7233C57.4849 33.5634 57.2902 33.7094 57.1928 33.7477C57.209 33.7894 57.1538 33.8589 57.1149 33.9006C57.0857 33.8867 57.1506 33.7407 57.0954 33.7859L57.2025 33.5981C57.1116 33.7789 57.024 33.7407 56.9689 33.8102C57.0338 33.6607 57.0792 33.7198 57.1441 33.619C57.0273 33.5669 57.0857 33.5912 56.9689 33.5391C56.8325 33.6434 56.878 33.7233 56.7579 33.8693C56.6865 33.8693 56.5632 33.9702 56.5696 33.8207L56.4918 33.998C56.3262 34.064 56.2808 34.0119 56.3133 33.7998C55.583 34.2518 55.2909 34.6933 55.1741 35.0201C55.0605 35.347 55.1222 35.5556 55.1222 35.5556C55.1806 36.0945 55.5895 35.6981 55.9822 35.7816L55.9725 35.7955Z" fill="#20BB65"/>
<path d="M69.4118 45.252L69.3633 45.3143C69.3891 45.2901 69.4118 45.2693 69.4118 45.252Z" fill="#20BB65"/>
<path d="M71.8652 48.9762C71.8652 48.9762 71.8757 48.9762 71.8826 48.9688C71.8757 48.9688 71.8687 48.9688 71.8652 48.9762Z" fill="#20BB65"/>
<path d="M67.7752 47.4458C67.7752 47.4458 67.7648 47.4495 67.7578 47.4532L67.7787 47.4458H67.7752Z" fill="#20BB65"/>
<path d="M67.4457 46.6256C67.5041 46.8655 67.2607 47.1437 67.5074 47.2341C67.5463 47.3419 67.6794 47.3837 67.7735 47.4428C68.0234 47.3072 67.8579 47.5541 68.0754 47.4567L67.965 47.5749C68.0397 47.5402 68.0981 47.5262 68.0397 47.5993L68.004 47.6271C68.1176 47.5784 68.0786 47.6514 68.137 47.6271L68.0981 47.6549L68.137 47.6723L68.0818 47.7071C68.2117 47.6723 68.2506 47.714 68.2311 47.7905L68.3804 47.6688C68.2701 47.8879 68.6076 47.6758 68.4583 47.9122L68.4194 47.94C68.89 47.7279 68.2506 48.3086 68.7017 48.1174C68.6466 48.1417 68.6271 48.1835 68.5881 48.2113C68.6628 48.2252 68.7212 48.2599 69.023 48.0304C69.0425 48.0687 68.9484 48.1313 68.8348 48.2217C68.9679 48.1209 69.0425 48.1104 69.0685 48.1313L69.01 48.1556L69.1074 48.2008L69.3476 47.9992C69.3021 48.0965 69.049 48.2391 69.1366 48.2321L69.3443 48.0757C69.3443 48.1661 69.049 48.4338 68.9289 48.6042C68.9873 48.8998 69.6818 48.7642 69.4482 49.251L69.2956 49.3727C69.0652 49.5396 69.6754 49.1884 69.4676 49.3518L69.591 49.3031C69.5553 49.3379 69.5196 49.3866 69.4579 49.4109C69.4644 49.4422 69.5034 49.4144 69.5813 49.3831L69.4514 49.5083C69.3963 49.6787 69.7241 49.5639 69.7273 49.703C69.5001 50.0264 69.9058 50.0612 70.1427 50.0821C70.6036 50.0299 69.7825 50.8644 70.292 50.7879C70.2628 50.8158 70.3472 50.781 70.3731 50.7636L70.4348 50.9583C70.4348 50.9583 70.5289 51.1809 70.8243 51.1704C71.1196 51.1565 71.6291 50.9236 72.4405 49.9638L72.4957 49.936C72.5671 49.7552 72.5606 49.6752 72.2588 49.7726C72.5736 49.557 72.2458 49.6682 72.3366 49.5813L72.3626 49.5674C72.0835 49.6648 72.4957 49.3101 72.2425 49.3936C72.2685 49.3796 72.3561 49.324 72.3691 49.3344C72.3042 49.317 72.2003 49.3066 72.3853 49.1814C72.2782 49.1119 72.2815 48.9137 71.9504 49.0423L72.0056 49.0111C71.7849 49.1084 71.9472 48.9832 71.8239 49.0111C71.8466 48.9937 71.8563 48.9797 71.8693 48.9763C71.6486 49.0667 71.7719 48.8789 71.6681 48.9032L71.7882 48.8198L71.7135 48.7607L71.7038 48.8094C71.363 49.0284 71.879 48.6077 71.6259 48.6981C71.6356 48.6146 70.8632 49.0667 70.9963 48.8998C70.8243 48.9797 71.2656 48.7468 71.1196 48.792C71.2916 48.6703 71.2397 48.7363 71.3728 48.6285C71.2657 48.6459 71.5123 48.4408 71.3663 48.4755L71.4993 48.3782C71.2137 48.486 71.6064 48.1348 71.3435 48.26C71.1942 48.2739 71.7168 47.9366 71.4117 48.0548L71.5772 47.9018C71.5902 47.8531 71.3403 48.0374 71.4084 47.9435C71.5253 47.8635 71.4766 47.8392 71.5967 47.7801C71.733 47.5784 71.2527 47.8148 71.4961 47.5019C71.2624 47.641 71.363 47.4984 71.1878 47.6027C71.2819 47.5297 71.1423 47.495 71.3857 47.3976C71.4052 47.3906 71.4084 47.3976 71.3695 47.4254L71.5058 47.3385C71.72 47.1055 71.3078 47.3385 71.3111 47.2585C71.2786 47.3072 71.3013 47.3176 71.204 47.3698L71.191 47.3072L71.3078 47.2376L71.3241 47.1159L71.1942 47.2272C71.2429 47.1403 71.4669 46.956 71.2462 47.0568C71.1261 47.1194 71.0839 47.2272 71.0157 47.2203C71.0774 47.1055 71.1715 46.9282 71.1715 46.8378C71.0222 46.956 71.0157 46.9351 70.9735 46.9421L71.1066 46.8412C70.8794 46.9142 71.3825 46.6013 71.1942 46.643L71.2916 46.5804L71.0028 46.7717C70.7009 46.9108 71.2559 46.5352 70.8567 46.7369C70.8957 46.7439 70.5744 46.9699 70.6101 46.8934L70.7431 46.8064C70.7042 46.8064 70.649 46.8447 70.6652 46.8134C70.7399 46.7717 70.8535 46.6778 70.8145 46.6708L70.9865 46.5665L70.7204 46.6952C70.8308 46.5561 70.623 46.6256 70.7918 46.4726C70.7918 46.4726 70.8275 46.3266 70.6198 46.4587C70.7529 46.3822 70.7691 46.3022 70.9216 46.2049C70.7691 46.2883 70.6165 46.3162 70.7464 46.1771L70.7658 46.1701C70.8535 45.965 70.4575 46.1736 70.5841 45.9545C70.4348 46.0762 70.49 45.9684 70.3017 46.1319C70.0551 46.1979 70.5906 45.6694 69.9739 46.111C69.9155 46.1005 70.0843 45.9545 70.1005 45.9128L70.1395 45.8954C70.0421 45.8641 70.0226 45.8467 69.9999 45.7841C69.9253 45.805 69.6462 46.0206 69.6786 45.9232C69.7987 45.8502 69.7662 45.8467 69.7532 45.8293C69.7792 45.8293 69.8214 45.798 69.8798 45.7146C69.8441 45.7389 69.8182 45.7493 69.7987 45.7598C69.8084 45.7528 69.8149 45.7459 69.8247 45.7389C69.7662 45.7389 69.7338 45.7737 69.7305 45.798C69.7143 45.8119 69.6916 45.8293 69.6656 45.8571C69.7857 45.7146 69.5975 45.7806 69.7825 45.6276C69.6786 45.5755 69.4417 45.6729 69.3184 45.659C69.4092 45.572 69.5066 45.5199 69.5585 45.5094L69.4871 45.4886C69.6267 45.3738 69.5877 45.4538 69.6267 45.4469C69.8052 45.2034 69.3151 45.506 69.4676 45.266L69.3476 45.3425L69.3638 45.3216C69.3054 45.3703 69.2178 45.419 69.1918 45.4225C69.3054 45.3147 69.4677 45.193 69.4352 45.1652C69.5293 45.04 69.3216 45.1339 69.2307 45.1512C69.2242 45.186 69.1528 45.2382 69.1074 45.2625C69.0912 45.2486 69.2015 45.1374 69.1399 45.1687L69.2989 45.033C69.1529 45.1686 69.1009 45.1269 69.0328 45.1756C69.1431 45.0643 69.1561 45.1165 69.247 45.0435C69.182 44.9878 69.2145 45.0157 69.1463 44.9565C68.9971 45.0226 69.0003 45.0921 68.8445 45.193C68.7894 45.186 68.653 45.2521 68.7244 45.1304L68.5914 45.2625C68.4356 45.2973 68.4259 45.2452 68.5395 45.0817C67.7962 45.3529 67.3873 45.6764 67.1634 45.9232C66.9394 46.1701 66.8972 46.3475 66.8972 46.3475C66.7123 46.7856 67.1861 46.5178 67.449 46.6291L67.4457 46.6256Z" fill="#20BB65"/>
</svg>
