<svg width="163" height="134" viewBox="0 0 163 134" fill="none" xmlns="http://www.w3.org/2000/svg">
<path d="M90.0747 111.159C90.016 112.093 90.1162 113.053 90.0747 113.987L99.6413 114.159C100.16 113.987 99.8244 112.093 99.7726 111.564C103.125 111.654 106.526 111.602 109.871 111.764C110.773 111.809 112.346 112.169 113.203 112.169H116.234C117.074 112.169 118.615 112.303 119.566 112.369C120.433 112.428 121.391 112.504 122.289 112.573C126.906 112.922 131.545 113.416 136.127 113.983C135.768 115.587 135.564 117.246 135.118 118.829L141.553 119.406C141.827 119.236 141.968 115.556 141.982 114.92C142.03 114.733 142.255 114.806 142.39 114.792C143.589 114.66 147.619 115.604 149.06 115.898C152.095 116.513 161.157 118.383 162.67 121.068C163.4 122.357 162.822 123.028 161.882 123.885C157.628 127.77 141.246 129.85 135.215 130.545C110.269 133.41 83.7501 133.469 58.6726 132.56C43.2272 132 24.5573 131.181 9.68223 127.217C3.36446 125.533 -4.44289 121.942 6.35054 118.02C11.7559 116.057 17.773 115.366 23.4203 114.387C23.4203 114.415 23.6414 114.602 23.6311 114.878C23.6034 115.766 23.2267 116.838 23.4203 117.823L31.905 117.014C32.0018 115.787 31.8082 114.588 31.7011 113.378C34.9982 113.136 38.2919 112.701 41.5994 112.57C42.0037 112.552 42.536 112.57 42.9127 112.57H48.1625C49.4102 112.57 50.8963 112.155 52.1025 111.965C53.9239 111.678 56.0736 111.643 57.9606 111.56C62.9616 111.343 68.125 111.229 73.1087 111.156C78.7594 111.073 84.424 111.218 90.0747 111.156V111.159Z" fill="#A0D92A"/>
<path d="M78.968 20.4711C72.0904 21.145 66.336 27.0066 65.8314 33.8946C65.4892 38.5604 68.1435 42.6627 65.9489 47.1419C65.2922 48.4828 64.0169 49.765 63.2531 51.1129C61.4041 54.372 61.0205 57.5586 61.1933 61.2739C61.2036 61.4743 61.1795 61.6782 61.1933 61.8787C56.9354 62.7289 53.4481 61.5676 50.2823 58.7509C48.9863 57.5966 48.0013 56.1416 46.7571 55.0045C40.8921 49.651 32.6804 49.2052 25.8477 52.9896C27.6379 47.3596 30.4339 45.3654 34.0317 41.2769C38.3173 36.4037 36.2333 29.4466 37.9682 23.4986C39.4682 18.3559 42.1916 16.341 45.2364 12.4875C49.3768 7.24454 53.0403 0.753998 60.6956 0.0731445C73.0996 -1.03281 76.8253 10.6177 78.9715 20.4711H78.968Z" fill="#A0D92A"/>
<path d="M141.377 39.4555C131.873 42.5591 130.242 49.3815 127.442 58.039C123.658 58.0114 119.542 57.1405 116.808 54.3306C114.554 52.015 114.548 49.8031 113.511 47.0244C111.022 40.3507 104.635 36.4314 97.5504 37.2332C97.5228 37.1745 97.3845 37.1123 97.3499 37.0328C97.3154 36.9533 97.1737 36.8911 97.1495 36.8324C95.9157 34.0744 94.9618 31.2265 93.5137 28.5515C93.8558 28.3407 93.8904 28.0054 93.9215 27.646C94.2498 24.1069 93.5863 21.7775 94.9238 18.1452C101.394 0.546652 134.462 3.15601 137.489 22.2441C138.288 27.2693 136.539 31.2888 139.259 36.231C139.884 37.3681 140.873 38.2494 141.384 39.459L141.377 39.4555Z" fill="#A0D92A"/>
<path d="M93.5099 28.548C94.958 31.2264 95.9119 34.0709 97.1457 36.8288L97.3462 37.0293C97.3842 37.1122 97.5224 37.1709 97.5466 37.2297C98.504 39.3725 99.1779 41.6432 100.298 43.8724C102.33 47.9126 105.181 51.5622 107.041 55.6128C102.879 60.8315 98.1342 66.1262 90.98 66.7172C79.3744 67.678 78.386 57.0194 68.1628 58.0355C65.5016 58.3016 63.4141 60.002 61.1918 61.267C61.019 57.5516 61.3992 54.3651 63.2517 51.106C64.0155 49.7616 65.2908 48.4759 65.9474 47.1349C68.1421 42.6558 65.4878 38.5534 65.8299 33.8877C66.3345 26.9997 72.0889 21.1381 78.9666 20.4642C85.5436 19.8179 90.4824 22.9422 93.5099 28.5445V28.548Z" fill="#28BD3B"/>
<path d="M141.782 39.4555L141.982 39.6559C150.09 39.49 155.026 45.4587 155.523 53.2799C155.665 55.4814 155.316 57.3754 155.859 59.6115C156.633 62.798 158.952 64.1217 160.396 66.7898C162.937 71.4728 163.006 76.6397 161.775 81.6684C160.825 81.6476 159.961 81.1811 159.024 81.0877C152.627 80.4449 151.431 86.2858 146.479 88.2868C143.344 89.5518 140.178 89.3617 137.202 87.765C132.927 85.4701 129.302 78.1017 123.554 80.3101C122.504 80.7145 121.774 81.6373 120.776 82.0762C120.734 81.5647 120.537 81.1638 120.575 80.4587C120.703 77.9151 121.75 74.9773 122.594 72.5823C124.308 67.7195 125.863 62.9155 127.442 58.039C130.242 49.3814 131.873 42.5591 141.377 39.4555C141.46 39.4278 141.661 39.452 141.782 39.4555Z" fill="#28BD3B"/>
<path d="M37.9632 23.4987C36.2283 29.4432 38.3123 36.4003 34.0267 41.2769C30.4324 45.3655 27.6329 47.3597 25.8426 52.9897C24.1111 58.4296 24.0731 65.131 26.4475 70.3601C16.6701 76.1352 5.81449 69.966 0.191406 61.4744C1.00705 55.1151 3.2639 53.9954 6.61978 49.4229C10.0171 44.7952 8.77984 41.8402 9.50908 36.7597C11.4307 23.4019 26.8069 20.0391 37.9598 23.5021L37.9632 23.4987Z" fill="#28BD3B"/>
<path d="M26.4513 70.36C27.4985 72.6686 31.5007 76.0522 33.7887 77.2618C34.5974 77.6904 37.2793 78.544 37.5593 79.0452C37.6042 79.1281 37.5455 79.4184 37.6733 79.6292C38.921 81.6856 40.6974 83.3687 41.7999 85.5081C41.0845 85.4839 39.4912 86.2408 38.5754 86.424C36.0904 86.9216 33.0318 86.773 30.692 85.7085C28.7151 84.8099 27.8096 83.4482 25.2383 83.2858C22.7879 83.1303 20.1025 84.5162 17.5622 84.295C16.6844 84.2189 14.8319 83.8802 13.9264 83.6902C3.75163 81.537 -1.0489 71.1445 0.191844 61.4708C5.81493 69.9659 16.6706 76.1351 26.4479 70.3565L26.4513 70.36Z" fill="#027D40"/>
<path d="M161.777 81.6719C160.008 88.909 152.567 98.1368 144.206 95.4064C142.82 94.9537 142.295 94.2694 140.57 93.9929C138.365 93.6404 137.149 94.6392 135.117 94.8016C134.235 94.8742 133.171 94.729 132.29 94.6011C127.32 93.8754 123.01 90.2672 121.382 85.5116C120.909 84.1257 120.888 83.4967 120.777 82.0762C121.776 81.6373 122.505 80.7145 123.556 80.3101C129.304 78.1017 132.929 85.4701 137.204 87.765C140.18 89.3617 143.346 89.5518 146.48 88.2869C151.433 86.2892 152.632 80.4449 159.026 81.0878C159.963 81.1811 160.827 81.6477 161.777 81.6684V81.6719Z" fill="#027D40"/>
<path d="M30.6914 85.7086C30.3561 85.9194 30.4909 86.4759 30.4875 86.8181C30.4425 90.3191 30.4978 93.8305 30.4978 97.3315C30.4978 102.682 31.2271 108.045 31.7005 113.382C31.8077 114.591 32.0012 115.794 31.9045 117.018L23.4197 117.826C23.2262 116.841 23.6029 115.766 23.6305 114.882C23.6409 114.605 23.4163 114.419 23.4197 114.391C23.513 112.348 24.0176 110.292 23.8137 108.222L24.3978 99.1805L15.0421 90.3502L13.9258 83.6903C14.8313 83.8804 16.6838 84.2191 17.5616 84.2951C17.7206 85.7467 17.8657 87.2708 18.36 88.6463C20.1641 89.9873 21.8437 91.5184 23.6409 92.8593C23.831 93.001 24.6916 93.7475 24.8298 93.5851L25.2342 83.2859C27.8055 83.4483 28.711 84.81 30.6879 85.7086H30.6914Z" fill="#BE6632"/>
<path d="M144.205 95.4064L142.183 113.489L142.387 114.795C142.253 114.809 142.028 114.736 141.98 114.923C141.966 115.559 141.824 119.24 141.551 119.409L135.116 118.832C135.565 117.246 135.769 115.587 136.125 113.986C136.792 111 137.732 108.059 138.147 105.007L132.849 98.3717L132.285 94.5942C133.166 94.7221 134.231 94.8672 135.112 94.7946C135.219 95.434 135.185 96.692 135.416 97.2174C135.679 97.8049 137.573 99.5295 138.136 100.152C138.572 100.635 138.603 101.434 139.353 101.261L140.566 93.9894C142.291 94.2659 142.816 94.9502 144.202 95.4029L144.205 95.4064Z" fill="#BE6632"/>
<path d="M141.986 39.6593L141.785 39.4589C141.937 39.4623 141.972 39.6628 141.986 39.6593Z" fill="#A0D92A"/>
<path d="M65.0297 77.2274L66.0423 99.2428C66.8338 98.5654 68.8107 97.7359 69.1425 96.7889C69.6712 91.2419 71.5133 85.2282 71.9039 79.7399C71.9315 79.3529 71.9108 78.9762 71.6965 78.6409C71.9557 78.6997 72.246 78.7757 72.5052 78.8414C73.6838 79.1455 74.6308 79.7227 75.7367 80.0545L75.1319 86.5174L82.5453 82.0175L83.0084 80.2549C84.377 79.8782 85.476 78.9554 86.8447 78.6375C86.3539 80.0095 86.1672 82.9507 85.2306 83.991L75.0593 91.19L74.6135 91.7534L73.5179 103.788L73.1135 111.159C68.1298 111.232 62.9664 111.343 57.9654 111.564C58.2315 103.915 58.6428 96.2982 58.7672 88.6429L55.5565 84.2225C55.1556 83.7249 55.128 84.3988 54.9379 84.5923C54.1879 85.3734 51.0186 88.7017 50.9011 89.4586C50.7836 90.2154 51.0878 90.7753 51.1016 91.4561C51.2329 98.1403 51.1465 104.797 51.4818 111.474L52.1039 111.965C50.8977 112.155 49.415 112.57 48.1639 112.57H42.9141C42.5373 112.57 42.0051 112.552 41.6007 112.57L44.7492 88.8261C44.1479 88.2731 42.406 85.5255 41.8012 85.5047C40.6987 83.3654 38.9223 81.6823 37.6746 79.6259C37.5467 79.4151 37.6055 79.1248 37.5605 79.0418C37.7575 78.6582 38.2414 78.9105 38.5352 78.9727C39.7967 79.2354 41.1238 79.5603 42.406 79.6467C42.8035 80.2999 44.8045 83.0129 45.3333 83.0855C45.7515 83.1442 45.7861 82.4288 45.8172 82.1489C45.914 81.3229 45.7999 80.4727 45.8414 79.6467C47.2238 79.5222 49.3113 79.0003 50.6903 78.6375L50.991 83.0785C51.461 82.7502 52.9471 81.5752 53.0785 81.1155C53.317 80.2964 52.4598 79.0591 52.3043 78.2331C54.1326 77.6905 55.7362 76.7953 57.758 76.4152C57.8894 77.1997 56.697 78.5787 56.7419 79.1282C56.7661 79.4393 58.8744 82.2664 59.0714 82.2698C59.2891 82.2698 59.3617 81.7825 59.3859 81.5751C59.5691 79.9093 59.2303 77.9186 59.3755 76.2113C62.1542 76.0903 62.6761 76.5776 65.0297 77.2205V77.2274ZM66.4467 111.159C66.8338 111.09 66.7819 110.738 66.858 110.461C67.4213 108.415 67.5216 105.802 67.9605 103.691C67.6563 104.029 66.6195 104.728 66.4294 104.983C65.7451 105.91 66.6817 109.846 66.4467 111.159Z" fill="#BE6632"/>
<path d="M117.343 70.9649L117.951 82.681C118.912 82.1004 119.493 80.8251 120.575 80.4588C120.54 81.1604 120.737 81.5613 120.775 82.0762C120.889 83.4932 120.906 84.1223 121.38 85.5116L118.542 88.2281C117.993 89.182 118.504 91.7533 118.553 92.8869C118.826 99.3879 119.185 105.882 119.565 112.376C118.615 112.31 117.07 112.176 116.234 112.176H113.203C112.342 112.176 110.773 111.816 109.871 111.771C110.338 109.141 110.282 106.452 110.479 103.794C111.019 96.5781 111.686 89.417 111.9 82.1868C112.01 78.4439 111.865 74.7009 112.093 70.9683C114.025 70.4465 114.613 70.1216 116.801 70.6123C117.112 70.6815 117.295 70.958 117.343 70.9683V70.9649Z" fill="#BE6632"/>
<path d="M97.9519 76.2181L96.7319 86.2063C97.7445 94.6496 98.8988 103.11 99.7698 111.567C99.8251 112.096 100.157 113.99 99.6384 114.163L90.0719 113.99C90.1134 113.053 90.0166 112.096 90.0719 111.163C90.0719 111.132 90.2655 110.935 90.2828 110.676C90.853 101.593 91.2505 92.5275 91.8518 83.431C91.7758 82.9368 88.7586 79.3252 88.1815 78.6132C87.9672 78.3471 87.9015 78.005 87.4453 78.0361C88.5374 77.1409 89.6261 76.6847 91.0811 76.6225C91.2505 76.9474 92.1594 78.5268 92.2977 78.6409C92.8921 79.1386 92.6191 77.1651 92.899 76.823C94.0603 76.8264 96.8839 76.5361 97.9484 76.2181H97.9519Z" fill="#BE6632"/>
<path d="M61.1929 61.8753C61.6802 68.6493 66.1662 74.967 71.969 78.2745C72.242 78.43 72.6153 78.3402 72.5013 78.8413C72.2421 78.7757 71.9517 78.6962 71.6925 78.6409C69.4737 78.1432 67.2445 77.8322 65.0257 77.2274C62.6686 76.5845 62.1468 76.0937 59.3715 76.2182C58.7287 76.2458 58.3692 76.3045 57.754 76.4186C55.7322 76.7988 54.1286 77.6939 52.3003 78.2365C51.8476 78.3713 51.1978 78.5061 50.6829 78.6409C49.3039 79.0072 47.2164 79.5257 45.8339 79.6501C44.8628 79.7365 43.3835 79.7158 42.3986 79.6501C41.1129 79.5637 39.7857 79.2388 38.5277 78.9761C38.2339 78.9139 37.7467 78.6616 37.5531 79.0453C37.2732 78.5441 34.5912 77.6905 33.7825 77.2619C31.4945 76.0523 27.4924 72.6688 26.4452 70.3601C24.0708 65.131 24.1088 58.4296 25.8404 52.9897C32.6731 49.2052 40.8882 49.6511 46.7498 55.0046C47.994 56.1416 48.979 57.5966 50.275 58.751C53.4408 61.5677 56.928 62.729 61.186 61.8788L61.1929 61.8753Z" fill="#62B529"/>
<path d="M107.041 55.6162C108.838 59.532 108.911 64.0422 107.076 68.072L104.214 72.3783C103.384 72.4716 102.254 73.7573 101.411 74.3241C100.703 74.8011 98.6082 76.0211 97.9515 76.2181C96.8836 76.536 94.0634 76.8298 92.9021 76.8229C92.4528 76.8229 91.7927 76.5913 91.0842 76.6224C89.6292 76.6847 88.5405 77.1408 87.4484 78.036C87.1857 78.2503 87.1201 77.8632 86.8436 78.6408C85.4715 78.9588 84.3725 79.8815 83.0073 80.2582C80.6087 80.9183 78.11 80.7628 75.7356 80.0578C74.6297 79.7295 73.6827 79.1488 72.5042 78.8447C72.6148 78.3436 72.2415 78.4334 71.9719 78.2779C66.1691 74.9704 61.6831 68.6526 61.1958 61.8787C61.182 61.6782 61.2062 61.4743 61.1958 61.2739C63.4146 60.0089 65.5056 58.3085 68.1668 58.0424C78.3899 57.0229 79.3784 67.6849 90.984 66.7241C98.1416 66.1332 102.883 60.8384 107.045 55.6197L107.041 55.6162Z" fill="#027D40"/>
<path d="M97.5469 37.2333C104.635 36.4314 111.019 40.3507 113.507 47.0244C114.544 49.8031 114.551 52.0151 116.804 54.3307C119.538 57.1405 123.654 58.0114 127.439 58.039C125.859 62.9156 124.308 67.7161 122.59 72.5823C120.896 71.8773 119.089 71.4177 117.34 70.9649C117.292 70.9511 117.108 70.678 116.797 70.6089C114.606 70.1216 114.019 70.443 112.09 70.9649C111.976 70.996 111.803 70.9338 111.686 70.9649L111.485 71.1653C108.807 71.8704 106.927 72.0743 104.214 72.3784L107.075 68.0721C108.907 64.0423 108.838 59.5286 107.041 55.6163C105.181 51.5692 102.33 47.9161 100.298 43.8759C99.1782 41.6467 98.5042 39.376 97.5469 37.2333Z" fill="#62B529"/>
<path d="M97.3469 37.0328L97.1465 36.8324C97.1741 36.8946 97.3124 36.9533 97.3469 37.0328Z" fill="#62B529"/>
<path d="M45.8397 79.65C45.7982 80.476 45.9122 81.3262 45.8155 82.1522C45.7844 82.4287 45.7498 83.1476 45.3316 83.0888C44.8028 83.0163 42.8017 80.3032 42.4043 79.65C43.3893 79.7157 44.8685 79.7364 45.8397 79.65Z" fill="#027D40"/>
<path d="M111.484 71.1687L111.685 70.9683C111.626 70.9855 111.547 71.1549 111.484 71.1687Z" fill="#BE6632"/>
</svg>
