<svg width="89" height="37" viewBox="0 0 89 37" fill="none" xmlns="http://www.w3.org/2000/svg">
<path d="M88.1031 2.90475L88.0293 2.89795C88.0582 2.9117 88.0871 2.9185 88.1031 2.90475Z" fill="#ACDE45"/>
<path d="M84.002 7.90137C84.002 7.90137 84.0019 7.91146 84.0053 7.91818C84.0053 7.91146 84.0053 7.90473 84.002 7.90137Z" fill="#ACDE45"/>
<path d="M85.6102 2.53992C85.6102 2.53992 85.6039 2.53048 85.5977 2.52734L85.6102 2.53992Z" fill="#ACDE45"/>
<path d="M86.2386 1.69247C86.0497 1.91226 85.7273 1.8229 85.724 2.13541C85.6361 2.23843 85.6394 2.40333 85.6101 2.5407C85.7957 2.73645 85.5221 2.6918 85.6654 2.87724L85.5286 2.8188C85.5775 2.88405 85.6035 2.93901 85.5221 2.91497L85.4863 2.88755C85.558 2.98371 85.4798 2.98368 85.5156 3.03176L85.4798 3.00426L85.47 3.05583L85.4244 3.01458C85.4831 3.13821 85.4472 3.20349 85.3691 3.2241L85.5156 3.32714C85.2811 3.31684 85.5482 3.58809 85.2876 3.54001L85.2551 3.51251C85.5254 3.93835 84.8611 3.49884 85.1085 3.91781C85.0792 3.86629 85.0336 3.86286 85.0011 3.83539C84.9978 3.92811 84.962 4.00364 85.2258 4.2406C85.1867 4.27837 85.1151 4.19935 85.0109 4.11349C85.1248 4.21652 85.1411 4.29899 85.1216 4.33676L85.089 4.28176L85.0467 4.41231L85.2746 4.59433C85.1704 4.58746 85.0043 4.36419 85.0141 4.46035L85.19 4.62518C85.0955 4.66639 84.7992 4.45006 84.6136 4.38824C84.3107 4.57369 84.4475 5.31545 83.9199 5.22616L83.7897 5.0957C83.6138 4.89652 83.9753 5.45974 83.806 5.28116L83.8548 5.40131C83.8157 5.3704 83.7669 5.34985 83.7441 5.28803C83.7115 5.30521 83.7376 5.33951 83.7701 5.41849L83.6366 5.31545C83.4543 5.31545 83.5585 5.64173 83.4021 5.68981C83.0635 5.5387 82.9853 5.99886 82.93 6.2736C82.93 6.77842 82.08 6.08473 82.093 6.62733C82.0637 6.59985 82.093 6.68571 82.1061 6.71318L81.8683 6.82997C81.8683 6.82997 81.5915 6.98104 81.5492 7.31072C81.5134 7.63697 81.686 8.15894 82.6922 8.83547L82.715 8.89047C82.9202 8.92825 83.0244 8.90073 82.9593 8.58479C83.1612 8.88356 83.0863 8.54361 83.1774 8.61916L83.1905 8.64666C83.1221 8.35476 83.4803 8.72907 83.4249 8.46464C83.438 8.49211 83.4901 8.57449 83.4738 8.59166C83.5064 8.51611 83.5389 8.39254 83.6562 8.56424C83.7604 8.42001 84.0013 8.3616 83.8971 8.02162L83.9232 8.0731C83.845 7.84988 83.9655 8.00103 83.9558 7.86366C83.9753 7.88427 83.9851 7.89109 83.9916 7.90139C83.9167 7.67817 84.1218 7.75372 84.1088 7.64383L84.1935 7.75374L84.2781 7.64726L84.2228 7.65414C84.0111 7.33476 84.441 7.78812 84.3693 7.52712C84.4703 7.50995 84.0306 6.77498 84.2098 6.8677C84.1349 6.69599 84.3563 7.12528 84.3237 6.97418C84.4475 7.13215 84.3758 7.09435 84.4866 7.20768C84.4768 7.09092 84.6917 7.30042 84.6689 7.14245L84.7666 7.26268C84.6689 6.97078 85.0434 7.29697 84.9262 7.03597C84.9262 6.86426 85.2714 7.34504 85.1607 7.03254L85.3267 7.16308C85.3853 7.15621 85.1867 6.94328 85.2942 6.98449C85.3756 7.08752 85.4114 7.01882 85.47 7.13558C85.6947 7.20769 85.4635 6.74409 85.8054 6.88833C85.6589 6.67197 85.8185 6.72694 85.711 6.56554C85.7892 6.64452 85.838 6.46248 85.9357 6.70631C85.9422 6.72691 85.9324 6.73377 85.9031 6.69943L85.9976 6.81966C86.2581 6.9639 86.0139 6.58269 86.1083 6.54835C86.0562 6.53118 86.0366 6.56553 85.9845 6.47281L86.0562 6.42468L86.1311 6.53116L86.2711 6.48999L86.1506 6.39039C86.2483 6.40413 86.4535 6.57924 86.3428 6.36289C86.2776 6.24956 86.1539 6.25641 86.1636 6.17056C86.2939 6.18773 86.4958 6.20841 86.6033 6.16033C86.4698 6.04356 86.4926 6.02638 86.4861 5.97831L86.6 6.08126C86.5186 5.84431 86.8736 6.28396 86.8247 6.07447L86.8964 6.15689L86.6814 5.91299C86.5251 5.62452 86.9517 6.0882 86.7205 5.71731C86.7107 5.76882 86.4567 5.50435 86.5414 5.50778L86.6424 5.6177C86.6391 5.57306 86.6 5.52498 86.6358 5.52841C86.6847 5.59709 86.7889 5.67953 86.7987 5.62801L86.9159 5.77566L86.7661 5.52497C86.9289 5.57992 86.841 5.36352 87.0168 5.48028C87.0168 5.48028 87.1829 5.43224 87.0266 5.2571C87.1178 5.37042 87.209 5.34299 87.323 5.46662C87.222 5.33269 87.1862 5.16092 87.3458 5.23303L87.3555 5.25366C87.5933 5.22962 87.3295 4.87244 87.5835 4.87931C87.4369 4.77628 87.5607 4.77288 87.3653 4.65268C87.2676 4.39855 87.8961 4.69047 87.3523 4.23716C87.3555 4.15817 87.5281 4.26121 87.577 4.25091L87.5998 4.2852C87.6193 4.14097 87.6323 4.10663 87.6975 4.03451C87.6649 3.95553 87.3946 3.77357 87.5053 3.7461C87.5998 3.83882 87.5965 3.79755 87.6128 3.77008C87.6193 3.79755 87.6584 3.82852 87.7496 3.83883C87.717 3.81135 87.7007 3.79068 87.6877 3.77351C87.6975 3.77695 87.704 3.7804 87.7137 3.7907C87.7007 3.71858 87.6616 3.70829 87.6356 3.7186C87.6193 3.70829 87.5965 3.69452 87.564 3.68422C87.73 3.722 87.6258 3.54347 87.8179 3.65337C87.8505 3.48509 87.704 3.26872 87.6877 3.11418C87.7951 3.15539 87.8701 3.23094 87.8896 3.28589C87.8896 3.25155 87.8961 3.21719 87.8961 3.18285C88.0394 3.26183 87.9547 3.27905 87.971 3.32026C88.2576 3.3443 87.8375 2.98372 88.1078 2.97685L88.0036 2.89443H88.0264C87.9645 2.86696 87.8929 2.79824 87.8831 2.77076C88.0199 2.81884 88.1762 2.91843 88.1957 2.85318C88.339 2.86348 88.1957 2.68834 88.1501 2.59218C88.1143 2.61622 88.0492 2.5716 88.0068 2.53726C88.0133 2.50636 88.1501 2.54753 88.1045 2.49945L88.2804 2.57499C88.111 2.51318 88.1338 2.41364 88.0654 2.37243C88.2022 2.41364 88.1599 2.46856 88.2543 2.52008C88.2869 2.38958 88.2706 2.4548 88.2999 2.3243C88.1924 2.20411 88.1273 2.26594 87.984 2.16978C87.971 2.09767 87.8668 1.99462 88.0003 1.97401L87.8342 1.92941C87.7496 1.77831 87.7854 1.72332 87.971 1.71301C87.4435 1.09143 86.9973 0.936928 86.6977 0.892284C86.3981 0.851074 86.2386 0.930012 86.2386 0.930012C85.812 1.04334 86.232 1.33188 86.2353 1.68903L86.2386 1.69247Z" fill="#ACDE45"/>
<path d="M75.4863 12.2249L75.4414 12.1641C75.451 12.1945 75.4671 12.2215 75.4863 12.2249Z" fill="#ACDE45"/>
<path d="M75.0507 9.95515C74.7348 9.97575 74.5557 9.67359 74.2985 9.91054C74.1487 9.93458 74.0184 10.0616 73.8914 10.1475C73.9012 10.4256 73.7091 10.2128 73.696 10.4532L73.6211 10.3192C73.6146 10.4016 73.5983 10.4634 73.5495 10.3913L73.5397 10.3501C73.5332 10.4738 73.4681 10.4222 73.4616 10.484L73.4518 10.4394L73.4095 10.4737L73.3997 10.4119C73.3639 10.5527 73.2922 10.5836 73.2108 10.5527L73.2662 10.7278C73.0708 10.5733 73.1261 10.958 72.934 10.7622L72.9242 10.7175C72.8982 11.2361 72.5856 10.4771 72.5465 10.9716C72.5497 10.9098 72.5107 10.8824 72.5009 10.8412C72.439 10.9167 72.3674 10.9648 72.4618 11.3151C72.4065 11.3288 72.3869 11.2189 72.3413 11.0884C72.3837 11.2395 72.3544 11.3185 72.312 11.3426V11.2773L72.2078 11.3666L72.312 11.6483C72.2241 11.5864 72.198 11.3014 72.1557 11.3907L72.2208 11.6311C72.1166 11.6105 71.9668 11.267 71.8301 11.1159C71.4393 11.1228 71.2016 11.844 70.7489 11.5177L70.687 11.3426C70.6121 11.0816 70.6935 11.7581 70.6186 11.5177L70.6089 11.6483C70.5861 11.6036 70.547 11.5589 70.5535 11.4971C70.5144 11.4971 70.5242 11.5418 70.5177 11.6276L70.4363 11.4765C70.2572 11.3907 70.2148 11.741 70.0455 11.7204C69.7752 11.4388 69.5082 11.844 69.3551 12.0775C69.1728 12.5514 68.5833 11.5933 68.4108 12.1256C68.3912 12.0912 68.3879 12.1805 68.3977 12.2114L68.1242 12.2492C68.1242 12.2492 66.8216 12.5102 68.3293 14.4264L68.3358 14.4849C68.5149 14.5845 68.6159 14.5879 68.6452 14.2685C68.7494 14.6188 68.7722 14.2685 68.8374 14.375V14.4058C68.8634 14.107 69.0816 14.581 69.1044 14.3132C69.1076 14.3406 69.1304 14.4402 69.1109 14.4505C69.163 14.3887 69.2281 14.2856 69.2835 14.4917C69.4203 14.3955 69.6515 14.4333 69.6645 14.0761L69.671 14.1346C69.671 13.8976 69.7329 14.0831 69.7654 13.9526C69.7752 13.98 69.785 13.9903 69.785 14.004C69.7882 13.7671 69.9478 13.9216 69.9739 13.8151L70.0129 13.9526L70.1237 13.8873L70.0716 13.8701C69.9901 13.489 70.2214 14.0796 70.2442 13.8117C70.3353 13.8357 70.2051 12.9841 70.3353 13.1455C70.3288 12.9566 70.3744 13.4408 70.3972 13.2897C70.4493 13.4855 70.4005 13.4202 70.4558 13.5713C70.4884 13.4614 70.6024 13.7465 70.6414 13.592L70.6838 13.743C70.7066 13.4374 70.9117 13.8942 70.9052 13.6091C70.9703 13.4546 71.0876 14.0453 71.1104 13.7156L71.2048 13.9113C71.2569 13.9319 71.169 13.6503 71.2439 13.7362C71.2764 13.8667 71.3318 13.8221 71.3351 13.956C71.4979 14.1277 71.4783 13.6057 71.7128 13.9079C71.677 13.6469 71.7877 13.7774 71.7617 13.5782C71.7942 13.6881 71.9115 13.5542 71.8919 13.8186C71.8919 13.8392 71.8757 13.8393 71.8659 13.798L71.8952 13.9491C72.0515 14.2101 72.0027 13.7499 72.0938 13.774C72.058 13.7293 72.0287 13.7533 72.0222 13.6434H72.1036L72.1231 13.774L72.2534 13.8151L72.1981 13.6641C72.273 13.7293 72.3641 13.9903 72.3674 13.7499C72.3609 13.6194 72.2599 13.5542 72.3055 13.4889C72.4065 13.5748 72.5595 13.7018 72.667 13.719C72.6116 13.5473 72.6377 13.5439 72.6539 13.5027L72.6995 13.6538C72.7419 13.4134 72.8265 13.9766 72.8786 13.7809L72.8982 13.8907L72.8363 13.5645C72.8428 13.2348 72.9698 13.8667 72.9568 13.4237C72.9242 13.4615 72.8461 13.094 72.9112 13.1455L72.9405 13.2966C72.9568 13.2588 72.9503 13.1936 72.9763 13.2176C72.9829 13.3 73.0284 13.434 73.0577 13.3962L73.0838 13.5885V13.2966C73.1848 13.4374 73.2173 13.2108 73.2987 13.4099C73.2987 13.4099 73.4485 13.4718 73.4127 13.2382C73.429 13.3859 73.5104 13.4203 73.5397 13.592C73.5267 13.4237 73.582 13.2623 73.67 13.4203V13.4409C73.8556 13.5714 73.8361 13.1283 74.0217 13.2966C73.9663 13.1214 74.0575 13.197 73.9761 12.9772C74.038 12.7128 74.3441 13.3584 74.1845 12.6476C74.2301 12.5892 74.3017 12.7884 74.3408 12.8124V12.8536C74.4287 12.7609 74.458 12.7437 74.546 12.7334C74.5655 12.651 74.4743 12.3282 74.5688 12.3831C74.585 12.5205 74.6078 12.4862 74.6339 12.4759C74.6241 12.5033 74.6339 12.5514 74.6925 12.6235C74.686 12.5823 74.686 12.5548 74.686 12.5342C74.6893 12.5445 74.6925 12.5514 74.6958 12.5651C74.7283 12.5033 74.7055 12.469 74.6795 12.4587C74.673 12.4381 74.6665 12.414 74.6469 12.3797C74.7446 12.5308 74.7739 12.3247 74.8456 12.5411C74.9661 12.4449 74.9921 12.184 75.0768 12.0603C75.1256 12.1702 75.1289 12.2767 75.1126 12.3316L75.181 12.2629C75.2298 12.4243 75.1647 12.3729 75.1517 12.4141C75.3308 12.6442 75.2657 12.0843 75.4513 12.2835L75.435 12.1462L75.448 12.1634C75.4252 12.0947 75.422 11.9951 75.4317 11.9676C75.4936 12.1015 75.5359 12.2938 75.588 12.2629C75.676 12.3831 75.689 12.1496 75.7216 12.0535C75.6825 12.0397 75.6662 11.9608 75.6662 11.9058C75.6923 11.8921 75.7541 12.026 75.7541 11.9573L75.8193 12.1462C75.7509 11.971 75.829 11.9264 75.8127 11.8474C75.8746 11.9813 75.8128 11.9847 75.8388 12.0912C75.943 12.0328 75.8909 12.0637 75.9951 12.0053C76.0049 11.8405 75.9267 11.8303 75.8974 11.6551C75.9365 11.6002 75.943 11.4491 76.0407 11.5418L75.9658 11.3804C76.0179 11.2155 76.083 11.2121 76.2035 11.3563C76.3273 10.539 76.197 10.0582 76.0472 9.78344C75.8942 9.50871 75.7151 9.43315 75.7151 9.43315C75.3178 9.16528 75.3438 9.70445 75.0605 9.95515H75.0507Z" fill="#ACDE45"/>
<path d="M60.7846 16.2763L60.7461 16.2085C60.7525 16.2424 60.7653 16.2695 60.7846 16.2763Z" fill="#ACDE45"/>
<path d="M60.5989 13.9697C60.2798 13.9525 60.13 13.6297 59.8434 13.8392C59.6871 13.846 59.5438 13.9594 59.407 14.0315C59.3908 14.3097 59.2149 14.0762 59.1791 14.3166L59.1172 14.1757C59.1042 14.2581 59.0814 14.3165 59.0358 14.2409L59.0293 14.1963C59.0098 14.32 58.9479 14.2615 58.9381 14.3233L58.9316 14.2787L58.8828 14.3097V14.2444C58.8307 14.3817 58.7557 14.4058 58.6776 14.3646L58.7199 14.5432C58.5376 14.3715 58.5571 14.7595 58.3812 14.5432L58.3747 14.4985C58.3031 15.0136 58.0524 14.2272 57.9709 14.7183C57.9807 14.6565 57.9449 14.6256 57.9384 14.5809C57.87 14.6496 57.7918 14.6943 57.8602 15.0514C57.8016 15.0583 57.7918 14.9484 57.7593 14.8145C57.7886 14.969 57.7527 15.0446 57.7104 15.0652L57.7202 15L57.603 15.0789L57.6844 15.3673C57.5997 15.2952 57.5997 15.0102 57.5476 15.096L57.5932 15.3399C57.4922 15.3125 57.3652 14.9518 57.2415 14.7904C56.8474 14.763 56.5609 15.4704 56.131 15.1098L56.0822 14.9278C56.0268 14.6599 56.0594 15.3433 56.0007 15.0995L55.9812 15.23C55.9617 15.1854 55.9291 15.1373 55.9356 15.0721C55.8966 15.0721 55.9031 15.1132 55.89 15.1991L55.8184 15.0411C55.6458 14.9415 55.5807 15.2884 55.4113 15.2541C55.1638 14.9519 54.8675 15.333 54.6949 15.5528C54.4767 16.0096 53.9622 15.0034 53.7473 15.5185C53.731 15.4807 53.7212 15.5735 53.7277 15.6044L53.4542 15.618C53.4542 15.618 52.132 15.7554 53.4965 17.8022V17.8606C53.6724 17.9773 53.7701 17.991 53.8222 17.6751C53.9003 18.0323 53.9492 17.6889 54.0045 17.7988V17.8297C54.0501 17.5344 54.2325 18.0254 54.2781 17.761C54.2781 17.7919 54.2944 17.8915 54.2781 17.8984C54.3334 17.84 54.4083 17.7438 54.4474 17.9533C54.5907 17.8709 54.8187 17.9259 54.8577 17.5721V17.6305C54.8773 17.3935 54.9261 17.5824 54.9684 17.4553C54.9782 17.4828 54.9847 17.4965 54.9847 17.5068C55.0075 17.2699 55.1541 17.4381 55.1866 17.3317L55.2127 17.4691L55.3267 17.4141L55.2778 17.3936C55.2257 17.0055 55.4113 17.6167 55.4537 17.3523C55.5448 17.3832 55.4765 16.5213 55.5937 16.693C55.6035 16.5041 55.61 16.9917 55.6458 16.8406C55.6849 17.0398 55.6393 16.9711 55.6849 17.1291C55.7272 17.0227 55.8184 17.3145 55.8672 17.1634L55.8966 17.318C55.9421 17.0158 56.1115 17.4863 56.1278 17.2012C56.2027 17.0536 56.2776 17.6511 56.3232 17.3248L56.4013 17.5275C56.4502 17.5515 56.385 17.263 56.4534 17.3557C56.4729 17.4897 56.5348 17.4484 56.5283 17.5824C56.6749 17.7678 56.6976 17.2425 56.9061 17.5653C56.8898 17.3008 56.9907 17.4381 56.9777 17.2424C57.0037 17.3523 57.1275 17.2322 57.0917 17.4932C57.0884 17.5138 57.0754 17.5137 57.0689 17.4691L57.0884 17.6236C57.2252 17.8949 57.2089 17.4348 57.3001 17.4622C57.2675 17.4176 57.2382 17.4381 57.2382 17.3282H57.3164L57.3229 17.4657L57.4499 17.5171L57.4043 17.3626C57.4759 17.4313 57.5443 17.6992 57.5639 17.4622C57.5671 17.3317 57.4727 17.2596 57.5215 17.1978C57.616 17.2905 57.756 17.4313 57.8602 17.4588C57.8179 17.2802 57.8439 17.2836 57.8602 17.239L57.8928 17.3936C57.9514 17.1566 57.9937 17.7266 58.0621 17.5343L58.0752 17.6442L58.0393 17.3146C58.0719 16.9883 58.15 17.627 58.1696 17.184C58.1338 17.2184 58.0849 16.844 58.1468 16.9024L58.1631 17.0536C58.1826 17.0158 58.1793 16.9506 58.2054 16.978C58.2054 17.0639 58.238 17.1978 58.2738 17.1634L58.2836 17.3557L58.3063 17.0639C58.3943 17.2116 58.4464 16.9917 58.5115 17.1978C58.5115 17.1978 58.6548 17.2733 58.6385 17.0364C58.6385 17.1841 58.7199 17.2253 58.7329 17.4004C58.7329 17.2322 58.8013 17.0775 58.873 17.2424V17.263C59.0456 17.4107 59.0619 16.9677 59.2312 17.1565C59.1889 16.978 59.2768 17.0604 59.2149 16.8337C59.2996 16.5796 59.5438 17.2493 59.4494 16.5281C59.5015 16.4766 59.5536 16.6793 59.5894 16.7102L59.5829 16.7513C59.6806 16.6689 59.7132 16.6552 59.7978 16.6517C59.8239 16.5727 59.7653 16.2431 59.8564 16.3049C59.8564 16.4422 59.8825 16.4113 59.9118 16.4045C59.8988 16.4285 59.902 16.48 59.9574 16.559C59.9574 16.5178 59.9574 16.4903 59.9574 16.4663C59.9574 16.4766 59.9639 16.4835 59.9639 16.4972C59.9997 16.4388 59.9834 16.401 59.9607 16.3873C59.9607 16.3667 59.9509 16.3426 59.9379 16.3083C60.0193 16.4663 60.0681 16.2671 60.1202 16.4903C60.2472 16.4079 60.2993 16.1538 60.397 16.0404C60.4328 16.1538 60.4263 16.2637 60.4035 16.3152L60.4752 16.2534C60.5077 16.4217 60.4491 16.3598 60.4296 16.3976C60.5826 16.6449 60.5729 16.0816 60.739 16.3049V16.1675L60.7455 16.1882C60.7324 16.1195 60.7357 16.0164 60.7487 15.9924C60.7943 16.1332 60.8171 16.3289 60.8692 16.3049C60.9408 16.4354 60.9799 16.2053 61.0223 16.1126C60.9864 16.0954 60.9799 16.013 60.9832 15.958C61.0092 15.9477 61.0548 16.0886 61.0646 16.0199L61.1069 16.2156C61.0581 16.0336 61.1395 15.9993 61.133 15.9168C61.1786 16.0576 61.1167 16.0508 61.133 16.1641C61.2404 16.1195 61.1883 16.1435 61.2958 16.0989C61.3251 15.9375 61.247 15.9168 61.2405 15.7383C61.286 15.6868 61.3088 15.5391 61.3935 15.6421L61.3381 15.4738C61.4098 15.3159 61.4717 15.3227 61.5759 15.4841C62.0155 13.8941 61.3251 13.5129 61.3251 13.5129C60.9571 13.197 60.9148 13.7362 60.5989 13.9525V13.9697Z" fill="#ACDE45"/>
<path d="M45.8426 19.0135L45.8105 18.9458C45.8138 18.9797 45.8234 19.0068 45.8426 19.0135Z" fill="#ACDE45"/>
<path d="M39.9955 19.8252C39.9955 19.8252 39.9955 19.8353 39.9922 19.842C39.9922 19.8353 39.9955 19.8319 39.9955 19.8252Z" fill="#ACDE45"/>
<path d="M44.625 16.6579C44.625 16.6579 44.625 16.6478 44.6284 16.6377V16.6579H44.625Z" fill="#ACDE45"/>
<path d="M45.8237 16.7034C45.5046 16.6553 45.3776 16.3256 45.0747 16.5076C44.9184 16.5007 44.7654 16.6003 44.6221 16.6621C44.5863 16.9369 44.4267 16.693 44.3713 16.9266L44.3192 16.7789C44.2997 16.8579 44.2737 16.9163 44.2346 16.8373V16.7927C44.202 16.9129 44.1467 16.851 44.1304 16.9128V16.8682L44.0783 16.8956V16.8304C44.0196 16.9609 43.9448 16.9815 43.8666 16.9334L43.8959 17.1155C43.7233 16.93 43.72 17.318 43.5572 17.0914V17.0468C43.4498 17.5516 43.2479 16.7515 43.1339 17.2357C43.1469 17.1739 43.1143 17.1429 43.1078 17.0983C43.0362 17.1601 42.9548 17.2013 43.0004 17.5585C42.9417 17.5585 42.9385 17.452 42.9157 17.3147C42.9352 17.4726 42.8929 17.5447 42.8506 17.5619L42.8636 17.4966L42.7431 17.5688L42.805 17.8641C42.7268 17.7885 42.7431 17.5035 42.6845 17.5825L42.717 17.8298C42.6161 17.7954 42.5151 17.4279 42.3979 17.2562C42.0039 17.2013 41.675 17.8847 41.2679 17.5L41.2288 17.3181C41.1897 17.0468 41.18 17.7336 41.1377 17.4829L41.1116 17.6134C41.0953 17.5653 41.0628 17.5173 41.0758 17.4554C41.0367 17.4486 41.0399 17.4932 41.0237 17.5791L40.9618 17.4176C40.7957 17.3077 40.7078 17.6477 40.5417 17.6031C40.3105 17.2837 39.9914 17.6477 39.809 17.8606C39.568 18.3037 39.1023 17.27 38.8614 17.7748C38.8483 17.737 38.8321 17.8263 38.8353 17.8572H38.5585C38.5585 17.8572 37.2298 17.9294 38.4966 20.0414V20.0997C38.6627 20.2234 38.7604 20.244 38.8288 19.9315C38.8874 20.292 38.9558 19.9521 39.0046 20.0654V20.0963C39.0633 19.8044 39.2196 20.3024 39.2782 20.0414C39.2782 20.0723 39.288 20.1718 39.2684 20.1787C39.327 20.1238 39.4052 20.031 39.4345 20.2439C39.581 20.1684 39.8057 20.2371 39.8611 19.8869V19.9452C39.8904 19.7083 39.9295 19.9006 39.9783 19.7769C39.9849 19.8044 39.9914 19.8181 39.9914 19.8284C40.0239 19.5949 40.164 19.77 40.1998 19.667L40.2193 19.8079L40.3365 19.7597L40.2877 19.7357C40.2551 19.3476 40.4082 19.9658 40.4668 19.7048C40.5547 19.7426 40.5352 18.8772 40.6427 19.0557C40.6622 18.8703 40.6427 19.3546 40.685 19.2069C40.711 19.4095 40.672 19.3373 40.7078 19.4953C40.7566 19.3923 40.8315 19.6877 40.8869 19.5434L40.9097 19.7014C40.9716 19.4026 41.1148 19.8834 41.1474 19.6018C41.2288 19.4576 41.2712 20.0585 41.3363 19.7391L41.4014 19.9452C41.4503 19.9727 41.4014 19.6808 41.4633 19.7769C41.4763 19.9109 41.5382 19.8765 41.5252 20.007C41.6619 20.2027 41.714 19.6808 41.9029 20.0139C41.9029 19.7494 41.9941 19.8937 41.9941 19.6945C42.0137 19.8078 42.1439 19.6945 42.0918 19.9521C42.0885 19.9727 42.0755 19.9727 42.069 19.928L42.0788 20.0825C42.1993 20.3641 42.209 19.9006 42.297 19.9349C42.2677 19.8868 42.2351 19.904 42.2448 19.7976L42.323 19.8079V19.9418L42.4467 20.0036L42.4109 19.8456C42.4761 19.9212 42.5314 20.1925 42.564 19.9555C42.577 19.825 42.4826 19.746 42.5379 19.6876C42.6259 19.7872 42.7594 19.9384 42.8603 19.9727C42.8278 19.7941 42.8538 19.7975 42.8766 19.7563L42.8994 19.9143C42.971 19.6807 42.9808 20.2543 43.059 20.0689L43.0655 20.1787L43.0492 19.8456C43.1013 19.5228 43.1404 20.165 43.186 19.7255C43.1502 19.7564 43.1241 19.382 43.1795 19.4438L43.186 19.5984C43.2088 19.564 43.2088 19.4988 43.2316 19.5262C43.2251 19.6087 43.2511 19.7495 43.2869 19.7186V19.9108L43.3227 19.6224C43.4009 19.777 43.466 19.5606 43.5181 19.7701C43.5181 19.7701 43.6549 19.8594 43.6549 19.619C43.6484 19.7666 43.7233 19.8147 43.7265 19.9864C43.7363 19.8181 43.8145 19.6705 43.8764 19.8387V19.8594C44.0359 20.0208 44.0815 19.5812 44.2378 19.7838C44.2085 19.6018 44.2899 19.6911 44.2411 19.461C44.342 19.2138 44.5407 19.904 44.4951 19.176C44.5505 19.1279 44.5863 19.3339 44.6221 19.3683L44.6123 19.4095C44.7165 19.3339 44.7491 19.3236 44.8338 19.3305C44.8663 19.2549 44.8305 18.9184 44.9152 18.9905C44.9087 19.1279 44.9347 19.097 44.964 19.0935C44.9477 19.1176 44.951 19.1656 44.9966 19.2515C44.9966 19.2103 44.9999 19.1828 45.0064 19.1622C45.0064 19.1725 45.0096 19.1794 45.0129 19.1966C45.0519 19.1416 45.0389 19.1038 45.0129 19.0867C45.0129 19.0661 45.0064 19.042 44.9933 19.0042C45.065 19.1691 45.1269 18.9734 45.1627 19.2035C45.2962 19.1313 45.3646 18.8806 45.4688 18.7776C45.4981 18.8944 45.4851 19.0008 45.4558 19.0523L45.5339 18.9974C45.5567 19.1656 45.4981 19.1004 45.4785 19.1381C45.6121 19.3991 45.6446 18.8394 45.7912 19.0729L45.7977 18.9356L45.8075 18.9561C45.7977 18.884 45.8107 18.7845 45.8237 18.7604C45.8596 18.9047 45.8661 19.1004 45.9214 19.0832C45.9866 19.2206 46.0387 18.9939 46.0875 18.9081C46.0517 18.8875 46.0517 18.8051 46.0582 18.7501C46.0875 18.7398 46.1201 18.8875 46.1364 18.8188L46.1657 19.018C46.1299 18.8326 46.2145 18.805 46.2145 18.7226C46.2503 18.8669 46.1885 18.8565 46.195 18.9664C46.3057 18.9321 46.2503 18.9493 46.3611 18.915C46.4034 18.757 46.3252 18.7295 46.3317 18.5509C46.3806 18.5063 46.4132 18.3586 46.4913 18.4719L46.449 18.2968C46.5304 18.1457 46.5955 18.1595 46.6867 18.3277C47.2436 16.7858 46.5825 16.3428 46.5825 16.3428C46.2373 15.9925 46.1527 16.5248 45.8205 16.7102L45.8237 16.7034Z" fill="#ACDE45"/>
<path d="M30.8856 21.0947L30.8535 21.0269C30.8599 21.0607 30.8696 21.0879 30.8856 21.0947Z" fill="#ACDE45"/>
<path d="M30.83 18.7808C30.5076 18.743 30.3741 18.4167 30.0712 18.609C29.9116 18.609 29.7618 18.7155 29.6186 18.7808C29.5893 19.0589 29.4232 18.8185 29.3711 19.0554L29.3157 18.9112C29.2994 18.9936 29.2734 19.0486 29.231 18.973L29.2245 18.9284C29.1985 19.0486 29.1399 18.9902 29.1268 19.052L29.1203 19.0074L29.0715 19.0349V18.9696C29.0128 19.1035 28.938 19.1241 28.8598 19.0829L28.8956 19.2649C28.7165 19.0864 28.723 19.4744 28.5504 19.2581L28.5439 19.2134C28.456 19.7251 28.2248 18.9353 28.1271 19.4229C28.1401 19.3611 28.101 19.3302 28.0978 19.2856C28.0261 19.3508 27.948 19.3954 28.0066 19.7526C27.948 19.7594 27.9415 19.6496 27.9089 19.5122C27.935 19.6702 27.8959 19.7423 27.8535 19.7629L27.8633 19.6977L27.7428 19.7766L27.8177 20.0686C27.7363 19.9965 27.7396 19.7114 27.6842 19.7973L27.7265 20.0411C27.6223 20.0102 27.5051 19.6495 27.3814 19.4881C26.9808 19.4572 26.6845 20.1647 26.2513 19.8076L26.2025 19.6255C26.1439 19.3577 26.1797 20.0445 26.1178 19.7973L26.0983 19.9277C26.0788 19.8831 26.0429 19.835 26.0527 19.7732C26.0136 19.7732 26.0201 19.8144 26.0071 19.9002L25.9355 19.7423C25.7596 19.6461 25.6945 19.993 25.5219 19.9621C25.2646 19.6633 24.9683 20.0548 24.7989 20.2814C24.5938 20.7451 24.0337 19.7629 23.835 20.2883C23.8187 20.254 23.809 20.3433 23.8188 20.3742L23.5387 20.4017C23.5387 20.4017 23.2033 20.4566 23.0567 20.7588C22.9102 21.061 22.959 21.6001 23.6885 22.5823L23.695 22.6408C23.8709 22.7472 23.9685 22.7541 24.0044 22.4381C24.0988 22.7918 24.1314 22.445 24.19 22.5549V22.5858C24.2225 22.2904 24.4244 22.7712 24.4538 22.5033C24.4538 22.5342 24.4766 22.6305 24.457 22.6408C24.5091 22.5824 24.5775 22.4827 24.6264 22.6888C24.7631 22.5995 24.9878 22.6476 25.0139 22.2939L25.0204 22.3523C25.0269 22.1153 25.0823 22.3042 25.1213 22.1737C25.1311 22.2011 25.1376 22.2149 25.1376 22.2252C25.1507 21.9882 25.3037 22.153 25.333 22.0466L25.3656 22.184L25.4763 22.1256L25.4275 22.105C25.3656 21.7204 25.5642 22.3247 25.6 22.0569C25.688 22.0878 25.6066 21.2293 25.7271 21.3975C25.7336 21.2087 25.7498 21.6963 25.7824 21.5452C25.8247 21.7444 25.7792 21.6757 25.8247 21.8303C25.8638 21.7238 25.9583 22.0123 26.0038 21.8612L26.0364 22.0157C26.0755 21.7135 26.2514 22.184 26.2611 21.8989C26.3328 21.7513 26.4142 22.3454 26.4565 22.0226L26.5347 22.2252C26.5835 22.2492 26.5184 21.9607 26.5835 22.0534C26.6063 22.1874 26.6649 22.1462 26.6584 22.2767C26.8049 22.4622 26.8212 21.9367 27.0296 22.2595C27.0134 21.9951 27.1143 22.1325 27.1013 21.9367C27.1241 22.0466 27.2478 21.9264 27.212 22.1874C27.2088 22.208 27.1957 22.208 27.1892 22.1634L27.2088 22.3179C27.3423 22.5892 27.326 22.129 27.4139 22.1599C27.3813 22.1153 27.352 22.1325 27.3553 22.0226L27.4334 22.0295L27.44 22.1599L27.5637 22.2149L27.5214 22.0569C27.5898 22.129 27.6581 22.3969 27.6777 22.1565C27.6842 22.026 27.5898 21.9504 27.6354 21.8886C27.7265 21.9813 27.8666 22.1256 27.9675 22.1565C27.9284 21.9779 27.9545 21.9814 27.974 21.9402L28.0033 22.0947C28.0652 21.8577 28.0978 22.4312 28.1662 22.2389L28.1759 22.3488L28.1466 22.0192C28.1824 21.6929 28.2508 22.3351 28.2769 21.892C28.2411 21.9264 28.1987 21.5521 28.2606 21.6105L28.2736 21.765C28.2932 21.7273 28.2932 21.662 28.316 21.6929C28.316 21.7788 28.3453 21.9126 28.3778 21.8817L28.3843 22.0741L28.4104 21.7822C28.4951 21.9333 28.5504 21.7135 28.609 21.923C28.609 21.923 28.7491 22.0054 28.736 21.765C28.736 21.9127 28.8109 21.9574 28.8207 22.1291C28.824 21.9608 28.8956 21.8096 28.964 21.9745V21.9951C29.1268 22.1496 29.1561 21.7066 29.3157 21.9024C29.2799 21.7204 29.3613 21.8097 29.3092 21.5796C29.4004 21.3254 29.6186 22.0088 29.5502 21.2842C29.6023 21.2361 29.6479 21.4387 29.6837 21.4731L29.6772 21.5143C29.7781 21.4354 29.8074 21.425 29.8921 21.425C29.9214 21.3495 29.8758 21.0129 29.9637 21.0816C29.9637 21.219 29.9865 21.1881 30.0126 21.1847C29.9996 21.2087 29.9996 21.2568 30.0517 21.3392C30.0517 21.298 30.0517 21.2705 30.0582 21.2499C30.0582 21.2602 30.0614 21.267 30.0647 21.2808C30.1038 21.2258 30.0875 21.1847 30.0647 21.1709C30.0647 21.1503 30.0582 21.1263 30.0452 21.0885C30.1201 21.2499 30.1754 21.0541 30.2177 21.2808C30.348 21.2052 30.4099 20.9511 30.5108 20.8446C30.5401 20.9614 30.5304 21.0678 30.5043 21.1194L30.5792 21.0644C30.6053 21.2327 30.5467 21.1709 30.5271 21.2087C30.6639 21.4662 30.6867 20.903 30.8365 21.1331V20.9958L30.8495 21.0163C30.8397 20.9442 30.8495 20.8447 30.8625 20.8206C30.9016 20.9649 30.9114 21.1606 30.9667 21.14C31.0319 21.2739 31.0807 21.0473 31.1296 20.958C31.0937 20.9374 31.0937 20.855 31.097 20.8C31.1231 20.7897 31.1621 20.9339 31.1752 20.8687L31.2077 21.0679C31.1687 20.8824 31.25 20.8549 31.25 20.7725C31.2891 20.9167 31.224 20.9064 31.2338 21.0198C31.3445 20.982 31.2891 21.0026 31.3999 20.9648C31.4389 20.8069 31.3608 20.7794 31.364 20.6008C31.4129 20.5527 31.4422 20.4051 31.5203 20.5149L31.4747 20.3432C31.5562 20.1921 31.618 20.2025 31.7125 20.3707C32.2563 18.8185 31.592 18.3858 31.592 18.3858C31.2403 18.0424 31.1589 18.5816 30.8267 18.7739L30.83 18.7808Z" fill="#ACDE45"/>
<path d="M16.4219 24.8509L16.377 24.79C16.3898 24.8205 16.4026 24.8475 16.4219 24.8509Z" fill="#ACDE45"/>
<path d="M15.922 22.5994C15.5931 22.6338 15.3977 22.3453 15.1339 22.5994C14.9776 22.6338 14.8473 22.7746 14.7171 22.8742C14.7431 23.1523 14.5282 22.9566 14.5282 23.2004L14.4435 23.0734C14.4435 23.1558 14.4305 23.2176 14.3719 23.1558L14.3588 23.1145C14.3588 23.2382 14.2872 23.1969 14.2872 23.2587L14.2742 23.2176L14.2318 23.2587L14.2188 23.197C14.1895 23.3412 14.1211 23.3824 14.0332 23.3584L14.1048 23.5266C13.8899 23.3996 13.9811 23.7739 13.7629 23.6056L13.7466 23.5644C13.7694 24.083 13.3721 23.3755 13.3819 23.8735C13.3819 23.8117 13.3363 23.7911 13.32 23.7499C13.2647 23.8323 13.1963 23.8941 13.3331 24.2272C13.2777 24.2478 13.2451 24.1448 13.1832 24.0178C13.2451 24.162 13.2223 24.2444 13.1832 24.2753V24.21L13.079 24.3165L13.2191 24.5775C13.1214 24.5294 13.0595 24.2513 13.0269 24.3474L13.1246 24.5741C13.0172 24.5741 12.8185 24.2547 12.659 24.1276C12.2551 24.2066 12.1347 24.969 11.6234 24.7458L11.5289 24.5844C11.4085 24.344 11.6071 24.9931 11.4899 24.7733L11.5029 24.9037C11.4703 24.866 11.428 24.8316 11.4215 24.7664C11.3824 24.7767 11.3987 24.8144 11.4085 24.9037L11.2977 24.7733C11.1024 24.7286 11.1219 25.0823 10.9493 25.1029C10.6236 24.89 10.4315 25.3536 10.3273 25.6249C10.2524 26.1298 9.44479 25.3605 9.39268 25.9271C9.36663 25.8996 9.38292 25.9889 9.3992 26.0164L9.13543 26.1332C9.13543 26.1332 8.82606 26.2946 8.7707 26.6277C8.71209 26.9642 8.92377 27.4587 9.89746 28.1662L9.92023 28.2212C10.1156 28.2658 10.2068 28.2452 10.1547 27.9327C10.3436 28.2418 10.2752 27.9017 10.3631 27.9876L10.3729 28.0151C10.3175 27.7232 10.6399 28.1216 10.5976 27.8571C10.6074 27.8846 10.653 27.9739 10.6399 27.9876C10.6725 27.9155 10.7083 27.7987 10.8125 27.9876C10.9167 27.864 11.1414 27.8434 11.073 27.4965L11.0926 27.5515C11.0372 27.3214 11.1382 27.4863 11.1414 27.3523C11.1577 27.3764 11.1675 27.3866 11.1707 27.3969C11.1219 27.1668 11.3075 27.2802 11.3075 27.1703L11.3726 27.2939L11.4638 27.2046H11.4117C11.2521 26.8474 11.6006 27.3729 11.5648 27.1051C11.656 27.1085 11.3564 26.3049 11.5159 26.4354C11.4736 26.2533 11.6136 26.717 11.6071 26.5625C11.6983 26.741 11.6364 26.6895 11.7211 26.8269C11.7309 26.7136 11.8969 26.9642 11.9002 26.8063L11.9718 26.947C11.9328 26.6448 12.2193 27.0501 12.1575 26.7719C12.19 26.6105 12.4147 27.1635 12.3756 26.8372L12.5026 27.0089C12.5548 27.0192 12.4212 26.7582 12.5059 26.8303C12.5612 26.954 12.6068 26.899 12.6329 27.026C12.8185 27.1668 12.7045 26.6552 12.9813 26.9127C12.8999 26.6621 13.0302 26.7685 12.9683 26.5796C13.0172 26.6792 13.1051 26.5315 13.1344 26.7925C13.1344 26.8131 13.1246 26.8165 13.1051 26.7753L13.1604 26.9196C13.3526 27.1497 13.2288 26.7067 13.32 26.7135C13.2777 26.6758 13.2549 26.7032 13.2288 26.5967L13.3037 26.5831L13.3428 26.7101L13.4731 26.7307L13.3949 26.59C13.4763 26.6415 13.6066 26.8818 13.5675 26.6449C13.5415 26.5144 13.434 26.4697 13.4666 26.3976C13.5773 26.4663 13.7434 26.5693 13.8443 26.5728C13.7662 26.4114 13.789 26.4045 13.7987 26.3598L13.8639 26.5041C13.8671 26.2603 14.0332 26.8062 14.0527 26.6036L14.0886 26.7067L13.9843 26.3942C13.942 26.0679 14.1537 26.6724 14.0788 26.2397C14.0527 26.2809 13.9257 25.9271 13.9974 25.9718L14.0462 26.116C14.0592 26.0748 14.043 26.013 14.069 26.0336C14.0853 26.116 14.1472 26.2396 14.1732 26.2019L14.2221 26.3873L14.1797 26.0988C14.2937 26.2259 14.297 25.9992 14.4012 26.1847C14.4012 26.1847 14.551 26.2293 14.4891 26.0026C14.5217 26.1469 14.6031 26.171 14.6519 26.3358C14.6194 26.171 14.6519 26.0061 14.7529 26.1538V26.1744C14.9483 26.2842 14.8799 25.8481 15.0753 25.9992C15.0036 25.8309 15.0981 25.8962 14.9971 25.6867C15.0329 25.4189 15.3879 26.0336 15.1665 25.3433C15.2055 25.2849 15.2935 25.4738 15.3325 25.4944V25.5356C15.414 25.4361 15.44 25.4188 15.5214 25.4017C15.5344 25.3192 15.4204 25.0033 15.5181 25.0514C15.5442 25.1853 15.5637 25.151 15.5865 25.1407C15.5768 25.1681 15.5898 25.2163 15.6549 25.285C15.6452 25.2437 15.6419 25.2163 15.6419 25.1957C15.6451 25.206 15.6517 25.2128 15.6549 25.2265C15.681 25.1647 15.6582 25.1304 15.6321 25.1201C15.6256 25.0995 15.6159 25.0755 15.5963 25.0446C15.7005 25.1888 15.7168 24.9827 15.8015 25.1957C15.9122 25.0926 15.9187 24.8317 15.9969 24.7046C16.049 24.8111 16.0587 24.9174 16.0457 24.9724L16.1076 24.9003C16.1662 25.0583 16.0978 25.0102 16.0848 25.0514C16.2704 25.2712 16.176 24.7183 16.3681 24.914L16.3453 24.7801L16.3583 24.7972C16.3355 24.732 16.3258 24.629 16.3323 24.6016C16.3974 24.7355 16.4462 24.9243 16.4951 24.8934C16.583 25.0102 16.5895 24.7801 16.6188 24.684C16.5798 24.6702 16.5635 24.5912 16.557 24.5362C16.583 24.5225 16.6449 24.6531 16.6449 24.5878L16.7133 24.7767C16.6416 24.605 16.7133 24.5569 16.697 24.4779C16.7621 24.6118 16.697 24.6152 16.7296 24.7217C16.8305 24.6633 16.7784 24.6908 16.8794 24.6324C16.8859 24.4676 16.8077 24.4573 16.7784 24.2821C16.8142 24.2272 16.8208 24.0761 16.9152 24.1654L16.8403 24.004C16.8891 23.8392 16.9543 23.8357 17.0748 23.98C17.1985 23.1626 17.0845 22.6784 16.9347 22.4036C16.7849 22.1255 16.596 22.0568 16.596 22.0568C16.1825 21.7924 16.1955 22.3384 15.9024 22.6029L15.922 22.5994Z" fill="#ACDE45"/>
<path d="M4.34878 32.5721L4.29102 32.5308C4.31348 32.5548 4.33594 32.5721 4.34878 32.5721Z" fill="#ACDE45"/>
<path d="M2.15039 35.3198C2.15039 35.3198 2.15668 35.3261 2.15982 35.3324C2.15668 35.3261 2.15353 35.323 2.15039 35.3198Z" fill="#ACDE45"/>
<path d="M2.27374 31.2394C2.27374 31.2394 2.26703 31.2294 2.26367 31.2227L2.27374 31.2394Z" fill="#ACDE45"/>
<path d="M2.94194 30.814C2.74004 30.8964 2.47301 30.6938 2.41765 30.9479C2.32973 31.0029 2.31018 31.1402 2.2711 31.2398C2.42416 31.4596 2.18645 31.3394 2.30368 31.5352L2.18319 31.4459C2.22227 31.5146 2.24506 31.5661 2.17341 31.5249L2.14412 31.4939C2.20599 31.5935 2.13433 31.573 2.16689 31.621L2.1376 31.5901L2.12782 31.6279L2.08874 31.5798C2.14085 31.7 2.11153 31.7447 2.04315 31.7413L2.17341 31.8648C1.965 31.7996 2.2125 32.0847 1.98129 31.9851L1.95197 31.9541C2.22226 32.3628 1.60354 31.8649 1.85754 32.2598C1.82498 32.2117 1.7859 32.2014 1.75333 32.1705C1.75659 32.2461 1.74031 32.3078 2.00083 32.5482C1.97152 32.5723 1.89988 32.4968 1.79567 32.4075C1.90965 32.5105 1.93569 32.5791 1.92592 32.61L1.8901 32.5586L1.87708 32.6582L2.10178 32.8402C2.0106 32.8196 1.83149 32.6101 1.85754 32.6891L2.03665 32.8505C1.96175 32.8642 1.66865 32.6479 1.49606 32.5757C1.25833 32.7062 1.56119 33.3209 1.09552 33.2316L0.94897 33.1252C0.743811 32.9603 1.2095 33.4274 1.01736 33.2798L1.09552 33.3793C1.05318 33.3552 1.00433 33.3347 0.968508 33.2866C0.945712 33.3004 0.978278 33.3278 1.03038 33.393L0.887096 33.3106C0.727528 33.3106 0.922923 33.5785 0.812203 33.6232C0.476784 33.5167 0.577732 33.9048 0.646119 34.1246C0.854534 34.516 -0.11264 34.0799 0.141366 34.5126C0.108801 34.4954 0.167426 34.5607 0.190222 34.5779L0.0632138 34.7083C0.0632138 34.7083 -0.0768185 34.8801 0.0599541 35.1376C0.190214 35.3952 0.607042 35.7111 1.6654 36.0683L1.711 36.1026C1.87382 36.1026 1.92592 36.0786 1.72402 35.8588C2.0171 36.0546 1.79241 35.8176 1.89662 35.8657L1.91942 35.8828C1.72728 35.6768 2.16365 35.9206 1.99431 35.7352C2.01711 35.7523 2.09526 35.8107 2.092 35.8244C2.07572 35.7661 2.04315 35.6768 2.20923 35.7969C2.21574 35.6905 2.35903 35.6424 2.13108 35.3952L2.17341 35.433C2.01385 35.2716 2.17342 35.378 2.10178 35.2784C2.12458 35.2921 2.13759 35.299 2.14736 35.3059C1.9943 35.141 2.17994 35.196 2.12132 35.117L2.23203 35.1994L2.24831 35.1204H2.20923C1.91615 34.8869 2.42743 35.2234 2.2646 35.0311C2.32973 35.0208 1.70773 34.4645 1.88358 34.5332C1.75983 34.4027 2.09526 34.7289 2.01059 34.6156C2.16364 34.7358 2.09853 34.7083 2.22553 34.7976C2.17342 34.7083 2.41765 34.8766 2.3395 34.7564L2.45999 34.8526C2.27762 34.6293 2.68142 34.8938 2.4958 34.6912C2.43393 34.5641 2.8703 34.9487 2.67491 34.7083L2.84751 34.8217C2.88984 34.8217 2.66188 34.6431 2.75632 34.6843C2.85727 34.7701 2.85728 34.7221 2.9452 34.8148C3.14059 34.8938 2.80518 34.5229 3.12106 34.6774C2.9387 34.4988 3.07872 34.5607 2.9452 34.4267C3.02987 34.4954 3.01358 34.3684 3.16338 34.5641C3.17641 34.5813 3.16991 34.5847 3.13734 34.5538L3.24805 34.6569C3.49229 34.8045 3.18292 34.4851 3.24805 34.4748C3.20246 34.4542 3.19921 34.4749 3.13082 34.3993L3.17316 34.3787L3.26433 34.4714H3.36204L3.23829 34.3718C3.31971 34.3993 3.52812 34.5676 3.38158 34.389C3.30017 34.2928 3.20246 34.2722 3.18944 34.2138C3.2969 34.2482 3.45974 34.3066 3.52813 34.2963C3.39135 34.1829 3.40762 34.1761 3.39134 34.1383L3.50533 34.2413C3.38484 34.0524 3.7691 34.4508 3.68117 34.2928L3.75606 34.3684L3.52813 34.1383C3.33599 33.891 3.78212 34.3306 3.51183 34.0043C3.51508 34.0387 3.25458 33.7846 3.32296 33.8052L3.42715 33.9116C3.41413 33.8773 3.37181 33.8326 3.40112 33.8429C3.45322 33.9047 3.55742 33.9941 3.55416 33.9597L3.68117 34.0971L3.50857 33.8773C3.6486 33.9597 3.53462 33.7811 3.69745 33.915C3.69745 33.915 3.81794 33.9288 3.66163 33.7571C3.75607 33.867 3.82121 33.8738 3.93519 33.9974C3.83098 33.8738 3.7691 33.7365 3.90913 33.8395L3.91889 33.8567C4.10125 33.9151 3.83747 33.5819 4.03938 33.6747C3.90912 33.551 4.00355 33.5923 3.83422 33.4377C3.7235 33.2214 4.26082 33.6575 3.7756 33.1389C3.7756 33.084 3.92215 33.2248 3.96122 33.2351L3.98076 33.2694C3.98402 33.1802 3.9938 33.1595 4.03614 33.1355C4.00357 33.0668 3.77561 32.8333 3.86027 32.8539C3.94169 32.957 3.93844 32.926 3.94821 32.9157C3.95472 32.9398 3.98728 32.9741 4.06217 33.0222C4.03612 32.9913 4.02311 32.9706 4.01008 32.9534C4.01659 32.9603 4.02311 32.9672 4.03288 32.9775C4.01985 32.9226 3.98728 32.8985 3.96774 32.8951C3.95472 32.8814 3.93518 32.8642 3.90587 32.8402C4.04264 32.9398 3.95146 32.7715 4.11103 32.9295C4.13057 32.8299 4.01007 32.6204 3.99704 32.5071C4.08171 32.5861 4.14358 32.6719 4.15987 32.7165V32.6513C4.28036 32.7715 4.21197 32.7406 4.225 32.7749C4.4497 32.9261 4.12406 32.4933 4.34225 32.6203L4.26084 32.5139L4.27711 32.5276C4.22827 32.4761 4.17615 32.3971 4.16638 32.3731C4.27385 32.4727 4.39434 32.617 4.41388 32.5861C4.52786 32.6685 4.42039 32.4796 4.39108 32.3972C4.36178 32.3937 4.30968 32.3284 4.28037 32.2872C4.29014 32.2701 4.39435 32.3697 4.36179 32.3147L4.49529 32.4555C4.36503 32.325 4.3911 32.277 4.34225 32.2151C4.44646 32.3147 4.40737 32.3251 4.47902 32.4109C4.51484 32.3491 4.49529 32.38 4.53111 32.3182C4.45621 32.1842 4.40086 32.1877 4.29665 32.0469C4.29665 31.9954 4.225 31.8717 4.32921 31.9301L4.20546 31.8099C4.15987 31.6657 4.19895 31.6553 4.34549 31.7549C4.03612 31.0647 3.73978 30.68 3.50857 30.474C3.28061 30.2679 3.1243 30.2405 3.1243 30.2405C2.72701 30.0928 2.99405 30.5427 2.92566 30.8071L2.94194 30.814Z" fill="#ACDE45"/>
</svg>
