<svg width="71" height="46" viewBox="0 0 71 46" fill="none" xmlns="http://www.w3.org/2000/svg">
<path d="M70.7817 2.52173L70.7031 2.54278C70.7391 2.54629 70.7686 2.54276 70.7817 2.52173Z" fill="#20BB65"/>
<path d="M68.5371 9.30786C68.5371 9.30786 68.5447 9.31928 68.5485 9.32308C68.5485 9.31548 68.5409 9.31166 68.5371 9.30786Z" fill="#20BB65"/>
<path d="M68.1245 3.1323C68.1245 3.1323 68.1142 3.12499 68.1074 3.12134L68.1245 3.1323Z" fill="#20BB65"/>
<path d="M68.4756 1.96765C68.3618 2.27785 67.9941 2.31269 68.1015 2.65078C68.0494 2.79717 68.1015 2.97144 68.1243 3.13177C68.3878 3.25725 68.0885 3.32698 68.3 3.46292H68.1405C68.2121 3.50823 68.2577 3.55351 68.1698 3.56396L68.1275 3.55005C68.2349 3.61976 68.1568 3.65458 68.2088 3.68944L68.1633 3.67552L68.1731 3.73475L68.1112 3.71037C68.2186 3.81842 68.2056 3.89856 68.134 3.95084L68.3195 3.99616C68.0787 4.08678 68.4431 4.2506 68.1666 4.31334L68.1243 4.29939C68.5602 4.62005 67.7241 4.45623 68.1243 4.77689C68.0755 4.73506 68.0299 4.7525 67.9844 4.73856C68.0136 4.83615 68.0136 4.93027 68.365 5.05923C68.3422 5.11848 68.2381 5.06621 68.1015 5.02438C68.2544 5.08015 68.3032 5.15684 68.2967 5.20563L68.2446 5.16381L68.2511 5.31366L68.5472 5.39731C68.4398 5.43565 68.1893 5.27882 68.2349 5.37293L68.4724 5.46704C68.391 5.54721 68.0104 5.46004 67.8054 5.47747C67.685 5.64128 67.7338 5.88878 67.7436 6.12231C67.7436 6.35234 67.7078 6.56494 67.4345 6.63117L67.2556 6.5545C67.0018 6.42902 67.5809 6.84379 67.3434 6.73226L67.4378 6.83331C67.389 6.81936 67.3304 6.81938 67.2816 6.7671C67.2556 6.79847 67.2946 6.81938 67.3564 6.88908L67.184 6.84377C66.9953 6.91697 67.236 7.20974 67.0961 7.32128C66.696 7.3143 66.8033 7.81273 66.8489 8.11248C66.9497 8.36691 66.7155 8.41571 66.4877 8.45753C66.26 8.50284 66.0485 8.54468 66.1526 8.82003C66.1136 8.8026 66.1721 8.87928 66.1982 8.90019L66.0062 9.1128C66.0062 9.1128 65.9541 9.18251 65.9086 9.29056C65.863 9.3986 65.8273 9.55197 65.8663 9.72972C65.9509 10.0748 66.3055 10.5453 67.5647 10.8242L67.607 10.8695C67.8282 10.8207 67.9225 10.7475 67.7436 10.4512C68.0559 10.6708 67.8575 10.3536 67.9778 10.3955L68.0006 10.4163C67.8249 10.148 68.3227 10.378 68.1698 10.1306C68.1926 10.1515 68.2739 10.2177 68.2674 10.2421C68.2707 10.148 68.2577 10.0086 68.4399 10.134C68.4919 9.94235 68.7132 9.77853 68.4822 9.47529L68.5277 9.51712C68.3618 9.32193 68.5407 9.423 68.4789 9.28707C68.5049 9.30101 68.5212 9.30448 68.5309 9.31145C68.3715 9.11626 68.6058 9.10584 68.5505 9.00128L68.6774 9.07795L68.7197 8.93155L68.6644 8.9629C68.3292 8.72938 68.9344 9.00475 68.762 8.77123C68.8531 8.70849 68.1373 8.15432 68.352 8.17174C68.2121 8.03233 68.596 8.3669 68.5049 8.23097C68.6871 8.33902 68.6025 8.32855 68.7554 8.39826C68.7034 8.28324 68.9962 8.40526 68.9149 8.25539L69.058 8.33555C68.853 8.0846 69.3411 8.24493 69.1263 8.03581C69.058 7.86154 69.5883 8.19961 69.3606 7.93123L69.5786 7.99398C69.6339 7.96261 69.3541 7.83013 69.4777 7.82665C69.6014 7.89636 69.6079 7.80925 69.712 7.90336C69.9658 7.87896 69.5493 7.50601 69.9527 7.50601C69.725 7.34917 69.9072 7.33869 69.7348 7.22018C69.8421 7.26898 69.8226 7.05986 70.0146 7.2655C70.0308 7.28292 70.0211 7.29688 69.9788 7.27596L70.1187 7.35612C70.4375 7.39098 70.0406 7.10868 70.1187 7.032C70.0601 7.03897 70.0569 7.08078 69.9658 7.01107L70.0211 6.93091L70.1382 7.00409L70.2618 6.90304L70.1024 6.85424C70.2065 6.82287 70.4766 6.91347 70.2879 6.74617C70.1805 6.65903 70.0569 6.7183 70.0341 6.62768C70.174 6.58934 70.3822 6.52313 70.4635 6.42554C70.2846 6.36628 70.3009 6.3384 70.2781 6.29309L70.431 6.34883C70.2618 6.14318 70.7792 6.43599 70.6555 6.24778L70.7596 6.30007L70.4505 6.1432C70.1838 5.92013 70.7889 6.20594 70.4148 5.9271C70.4245 5.98287 70.0699 5.82253 70.1545 5.79116L70.2976 5.8609C70.2781 5.81907 70.2195 5.78422 70.2553 5.77376C70.3301 5.82256 70.4668 5.86437 70.4571 5.80512L70.6327 5.90621L70.3887 5.71798C70.5677 5.70404 70.4017 5.52278 70.6197 5.56809C70.6197 5.56809 70.7694 5.44962 70.5481 5.33808C70.6815 5.41476 70.7629 5.34854 70.9223 5.42871C70.7726 5.3346 70.675 5.17773 70.8572 5.1847L70.8735 5.19866C71.0947 5.07318 70.7043 4.82573 70.9613 4.73162C70.7759 4.68979 70.8963 4.63402 70.6588 4.59219C70.4701 4.3761 71.1989 4.41441 70.4896 4.17741C70.4668 4.09724 70.6783 4.1321 70.7206 4.10074L70.7564 4.1286C70.7238 3.97524 70.7271 3.93692 70.7629 3.83584C70.7011 3.76962 70.3659 3.69294 70.4603 3.61974C70.5904 3.67551 70.5709 3.63371 70.5774 3.59885C70.5937 3.62325 70.6425 3.64065 70.7401 3.61277C70.6978 3.59882 70.675 3.58488 70.6555 3.57094C70.6653 3.57094 70.675 3.57095 70.688 3.57792C70.649 3.5117 70.6067 3.51518 70.5839 3.5361C70.5644 3.52913 70.5384 3.52912 70.4993 3.52912C70.6815 3.50472 70.5123 3.36182 70.7466 3.39667C70.7173 3.21194 70.5026 3.05164 70.4245 2.89828C70.5449 2.89828 70.649 2.94704 70.6913 2.99584L70.6588 2.88781C70.8312 2.91221 70.7531 2.96098 70.7824 2.99584C71.0752 2.91219 70.5319 2.70654 70.8019 2.59849L70.6685 2.55322L70.6913 2.54624C70.6197 2.53927 70.5221 2.49393 70.5026 2.47302C70.6555 2.47302 70.8507 2.51486 70.8507 2.44166C71.0036 2.39984 70.7922 2.27438 70.7141 2.19421C70.6848 2.23255 70.6035 2.21164 70.5514 2.19072C70.5514 2.15587 70.7011 2.14891 70.636 2.11405L70.841 2.12797C70.649 2.12797 70.6392 2.01992 70.5547 1.99901C70.7076 1.98855 70.6815 2.06174 70.7954 2.07917C70.7857 1.93626 70.7889 2.00597 70.7792 1.86307C70.6295 1.77942 70.5839 1.86307 70.4082 1.81776C70.3725 1.75153 70.2325 1.68184 70.3594 1.61213L70.1772 1.62608C70.0406 1.50061 70.0601 1.43089 70.2456 1.35421C69.5103 0.897617 69.0027 0.883657 68.6839 0.942909C68.3618 1.00565 68.2251 1.15207 68.2251 1.15207C67.8217 1.43788 68.3455 1.59471 68.4626 1.97463L68.4756 1.96765Z" fill="#20BB65"/>
<path d="M60.9868 16.8021L60.9277 16.7458C60.9441 16.7775 60.9671 16.8021 60.9868 16.8021Z" fill="#20BB65"/>
<path d="M58.9176 14.9025C58.9176 14.9025 58.9176 14.8882 58.9141 14.8811V14.9025H58.9176Z" fill="#20BB65"/>
<path d="M60.0751 14.4665C59.753 14.5537 59.5057 14.2643 59.2942 14.5711C59.1445 14.6234 59.0339 14.7837 58.9201 14.9022C58.9851 15.202 58.7444 15.0034 58.7704 15.2683L58.6695 15.1358C58.6793 15.2264 58.6695 15.2926 58.6077 15.2264L58.5882 15.1811C58.6012 15.3171 58.5264 15.2718 58.5329 15.3415L58.5134 15.2962L58.4743 15.3415L58.4548 15.2753C58.4418 15.4321 58.3735 15.4775 58.2824 15.4565L58.3702 15.6343C58.1425 15.5019 58.2596 15.9062 58.0286 15.7285L58.0091 15.6831C58.0644 16.2478 57.6154 15.4774 57.6544 16.0177C57.6512 15.9515 57.6056 15.9271 57.5861 15.8818C57.534 15.9724 57.4657 16.0387 57.6154 16.4012C57.5568 16.4221 57.521 16.3105 57.456 16.1746C57.5243 16.3349 57.5015 16.4221 57.4625 16.4535L57.456 16.3838L57.3551 16.4953L57.5048 16.7846C57.4039 16.7288 57.3356 16.4256 57.303 16.5302L57.4072 16.7777C57.2933 16.7708 57.0851 16.4186 56.9256 16.2757C56.5189 16.3349 56.3628 17.1542 55.8487 16.8579L55.7641 16.6731C55.6568 16.3977 55.8194 17.1262 55.7121 16.8718L55.7186 17.0147C55.6893 16.9694 55.647 16.9276 55.6437 16.8544C55.6015 16.8579 55.6177 16.9067 55.621 17.0008L55.5169 16.8439C55.3216 16.7707 55.3151 17.1576 55.1329 17.1507C54.8206 16.8718 54.5831 17.3354 54.4367 17.6038C54.2805 18.1372 53.581 17.1333 53.4378 17.7259C53.4151 17.6875 53.4183 17.7886 53.4281 17.82L53.1418 17.8758C53.1418 17.8758 52.8002 17.9629 52.6733 18.3045C52.5464 18.6427 52.6212 19.2388 53.4964 20.2392L53.5094 20.302C53.7111 20.3996 53.8218 20.3996 53.8315 20.0475C53.9649 20.424 53.9714 20.0405 54.0463 20.1521L54.0528 20.1834C54.056 19.8557 54.3261 20.3577 54.3358 20.0614C54.3423 20.0928 54.3716 20.1974 54.3521 20.2113C54.4042 20.1381 54.4692 20.0196 54.5441 20.2392C54.684 20.1242 54.941 20.1451 54.928 19.7511L54.941 19.814C54.9215 19.5525 55.006 19.7512 55.0288 19.6048C55.0418 19.6327 55.0516 19.6466 55.0549 19.657C55.0418 19.3991 55.2273 19.549 55.2436 19.4305L55.2956 19.5769L55.4095 19.4967L55.3509 19.4827C55.2305 19.0749 55.5299 19.6989 55.5331 19.4026C55.6372 19.42 55.4193 18.5032 55.5722 18.6636C55.5494 18.4614 55.6405 18.9843 55.6535 18.8135C55.7283 19.0226 55.6698 18.9564 55.7446 19.1168C55.7706 18.9948 55.9203 19.2911 55.9463 19.1168L56.0049 19.2771C55.9984 18.9425 56.2684 19.4131 56.2326 19.1028C56.2879 18.9285 56.4734 19.556 56.4669 19.1934L56.5873 19.3956C56.6458 19.413 56.5222 19.1133 56.6133 19.2004C56.6621 19.3399 56.7174 19.2841 56.7369 19.427C56.9321 19.5943 56.8573 19.0226 57.1436 19.3189C57.0753 19.04 57.2119 19.1656 57.1599 18.9529C57.2087 19.068 57.3193 18.9076 57.3291 19.1934C57.3291 19.2179 57.3161 19.2178 57.2998 19.1725L57.3486 19.3329C57.5503 19.5943 57.443 19.0993 57.5438 19.1063C57.4983 19.0645 57.469 19.0958 57.4495 18.9773L57.5373 18.9633L57.5731 19.1028L57.7228 19.1272L57.6414 18.9703C57.7325 19.0296 57.8627 19.298 57.8366 19.0366C57.8139 18.8937 57.6935 18.8414 57.7358 18.7612C57.8562 18.8379 58.0383 18.9529 58.1587 18.9564C58.0741 18.7786 58.1034 18.7716 58.1164 18.7228L58.1848 18.8797C58.1978 18.6112 58.3669 19.2108 58.3995 18.9877L58.4353 19.1028L58.3247 18.7577C58.2856 18.3987 58.5134 19.0645 58.4353 18.5869C58.406 18.6322 58.2694 18.2452 58.3474 18.2906L58.3995 18.4509C58.4125 18.4056 58.3962 18.3359 58.4288 18.3603C58.4483 18.4509 58.5134 18.5869 58.5426 18.5415L58.5947 18.7472L58.5524 18.4266C58.6826 18.5625 58.6858 18.308 58.8029 18.5137C58.8029 18.5137 58.9754 18.5555 58.9038 18.308C58.9428 18.4649 59.0372 18.4858 59.0925 18.6671C59.0534 18.4858 59.0925 18.3045 59.2096 18.4579V18.4823C59.4374 18.5869 59.3463 18.1093 59.574 18.2592C59.4862 18.0815 59.6001 18.1441 59.4764 17.921C59.5025 17.6247 59.9352 18.2592 59.6489 17.5237C59.6911 17.454 59.7985 17.6526 59.8473 17.6701V17.7154C59.9352 17.5969 59.9644 17.5725 60.0555 17.5411C60.062 17.4505 59.9091 17.1193 60.023 17.1576C60.0621 17.3006 60.0816 17.2587 60.1076 17.2448C60.1011 17.2762 60.1174 17.3249 60.1987 17.3912C60.1824 17.3493 60.1792 17.318 60.1759 17.2936C60.1824 17.3041 60.1857 17.311 60.1922 17.325C60.215 17.2517 60.1889 17.2169 60.1564 17.21C60.1466 17.1891 60.1336 17.1646 60.1076 17.1332C60.2377 17.2726 60.2345 17.0461 60.3516 17.2657C60.4622 17.1333 60.446 16.8508 60.5143 16.6975C60.5859 16.802 60.6119 16.9206 60.6021 16.9833L60.6607 16.8927C60.7453 17.0565 60.6607 17.0147 60.6542 17.0635C60.8885 17.2692 60.716 16.6801 60.9535 16.8544L60.908 16.7114L60.9275 16.7289C60.8917 16.6626 60.8657 16.5545 60.8722 16.5232C60.9633 16.6556 61.0446 16.8509 61.0967 16.8056C61.2138 16.9171 61.1845 16.6626 61.2008 16.5476C61.1585 16.5441 61.126 16.4605 61.1097 16.4012C61.1357 16.3803 61.2268 16.5092 61.2138 16.436L61.3212 16.6243C61.2138 16.4535 61.2854 16.3873 61.2528 16.3036C61.3472 16.4326 61.2756 16.45 61.3277 16.5616C61.4285 16.4744 61.3765 16.5163 61.4773 16.4291C61.4578 16.2513 61.3667 16.2583 61.3017 16.0736C61.3309 16.0038 61.3082 15.8399 61.4285 15.9166L61.3147 15.7633C61.3342 15.5715 61.4025 15.5541 61.5619 15.6796C61.5164 14.7733 61.2691 14.2992 61.0479 14.0412C60.8266 13.7833 60.6282 13.7449 60.6282 13.7449C60.1629 13.5497 60.3126 14.1179 60.0718 14.4456L60.0751 14.4665Z" fill="#20BB65"/>
<path d="M45.4624 22.6618L45.416 22.5908C45.426 22.6263 45.4392 22.6583 45.4624 22.6618Z" fill="#20BB65"/>
<path d="M45.1304 20.1512C44.7823 20.1546 44.6034 19.8165 44.304 20.0675C44.1348 20.0884 43.9884 20.2243 43.842 20.315C43.842 20.6217 43.6371 20.3812 43.611 20.6461L43.5362 20.4963C43.5264 20.5869 43.5069 20.6531 43.4516 20.5764L43.4418 20.5276C43.4288 20.6635 43.3572 20.6078 43.3507 20.674L43.341 20.6252L43.2922 20.6636L43.2824 20.5939C43.2369 20.7473 43.1588 20.7821 43.0709 20.7437L43.1295 20.9355C42.918 20.7647 42.9701 21.1864 42.7618 20.9703L42.7521 20.9215C42.713 21.4897 42.3844 20.6566 42.3324 21.2004C42.3389 21.1342 42.2966 21.1028 42.2868 21.054C42.2185 21.1341 42.1372 21.1899 42.238 21.5734C42.1762 21.5873 42.1567 21.4688 42.1111 21.3224C42.1567 21.4897 42.1209 21.5769 42.0786 21.6013V21.5281L41.9647 21.6257L42.0753 21.9324C41.981 21.8627 41.955 21.5525 41.9062 21.6501L41.9777 21.9116C41.8639 21.8907 41.7012 21.5106 41.5515 21.3468C41.1221 21.3573 40.8748 22.1556 40.377 21.807L40.3087 21.6152C40.2241 21.3294 40.3217 22.0719 40.2339 21.8105L40.2273 21.9534C40.2013 21.9046 40.1623 21.8592 40.1655 21.786C40.1232 21.786 40.133 21.8348 40.1297 21.9289L40.0386 21.7651C39.8434 21.6745 39.8044 22.0614 39.6189 22.0405C39.3196 21.7372 39.0366 22.1869 38.8739 22.4483C38.6884 22.9677 38.0182 21.936 37.8458 22.5216C37.823 22.4833 37.823 22.5844 37.8327 22.6157L37.5367 22.661C37.5367 22.661 36.1279 22.9713 37.8425 25.0245L37.8523 25.0872C38.0507 25.1918 38.1548 25.1953 38.1744 24.8467C38.298 25.2267 38.3143 24.8467 38.3826 24.9618L38.3891 24.9931C38.4021 24.6689 38.6526 25.1813 38.6689 24.8885C38.6754 24.9199 38.7014 25.028 38.6819 25.0384C38.734 24.9687 38.8023 24.8571 38.8674 25.0802C39.0105 24.9722 39.2578 25.0106 39.2611 24.6201L39.2708 24.6829C39.261 24.4249 39.3359 24.6236 39.3651 24.4807C39.3782 24.5085 39.3847 24.5225 39.3879 24.5364C39.3879 24.2784 39.5604 24.4423 39.5831 24.3273L39.6287 24.4737L39.7458 24.4005L39.6905 24.383C39.5929 23.9682 39.8564 24.6096 39.8727 24.3168C39.9703 24.3412 39.8109 23.4139 39.9541 23.5847C39.9443 23.3791 40.0028 23.909 40.0256 23.7417C40.0874 23.9543 40.0321 23.8846 40.0972 24.0484C40.133 23.9299 40.2599 24.2367 40.2957 24.0693L40.3445 24.2332C40.3607 23.8985 40.5917 24.3935 40.5787 24.0833C40.6438 23.916 40.7837 24.5573 40.8 24.1983L40.9041 24.411C40.9594 24.4319 40.8618 24.1251 40.9431 24.2192C40.9789 24.3621 41.0375 24.3133 41.044 24.4562C41.2197 24.6445 41.1904 24.0693 41.4442 24.4005C41.4019 24.1146 41.5223 24.2541 41.4897 24.0414C41.5255 24.1599 41.6459 24.0135 41.6329 24.3029C41.6329 24.3273 41.6166 24.3272 41.6068 24.2784L41.6394 24.4458C41.8086 24.7282 41.75 24.2262 41.8476 24.2506C41.8086 24.2053 41.7793 24.2296 41.7695 24.1076H41.8541L41.8736 24.2471L42.0135 24.2924L41.9517 24.1251C42.0331 24.1948 42.1307 24.4807 42.1307 24.2157C42.1241 24.0728 42.0135 24.0031 42.0623 23.9298C42.1697 24.024 42.3324 24.1635 42.4463 24.1844C42.3844 23.9962 42.4137 23.9926 42.43 23.9473L42.4788 24.1146C42.5211 23.8497 42.6154 24.4702 42.6708 24.2541L42.6935 24.3726L42.6285 24.017C42.635 23.6579 42.7716 24.3482 42.7553 23.8636C42.7228 23.9055 42.6382 23.5011 42.7065 23.5604L42.7358 23.7242C42.7553 23.6824 42.7456 23.6127 42.7749 23.6406C42.7814 23.7312 42.8302 23.8776 42.8627 23.8358L42.8887 24.0449V23.7242C42.9928 23.8776 43.0319 23.6336 43.1165 23.8532C43.1165 23.8532 43.2759 23.9264 43.2401 23.6684C43.2564 23.8322 43.341 23.8671 43.3703 24.0554C43.3573 23.8706 43.4191 23.6963 43.5069 23.8706V23.895C43.7021 24.0415 43.6859 23.5569 43.8778 23.7487C43.8193 23.5569 43.9169 23.6406 43.8355 23.3966C43.9071 23.1107 44.2162 23.8253 44.0633 23.0445C44.1153 22.9852 44.1836 23.2013 44.2259 23.2327V23.278C44.3203 23.1804 44.3528 23.163 44.4439 23.1525C44.4667 23.0653 44.3821 22.7063 44.4797 22.7691C44.4927 22.919 44.5155 22.8841 44.5448 22.8737C44.5318 22.9016 44.5415 22.9539 44.6034 23.0375C44.5968 22.9922 44.5968 22.9643 44.6034 22.9364C44.6066 22.9469 44.6098 22.9573 44.6131 22.9712C44.6489 22.905 44.6294 22.8667 44.6001 22.8528C44.5968 22.8318 44.5871 22.8039 44.5708 22.7656C44.6684 22.9329 44.7075 22.7098 44.7758 22.9504C44.9059 22.8493 44.945 22.5669 45.0393 22.4345C45.0849 22.5565 45.0849 22.6749 45.0621 22.7342L45.1369 22.661C45.1825 22.8423 45.1142 22.7795 45.0979 22.8248C45.2736 23.0863 45.2313 22.4693 45.42 22.6994L45.407 22.5494L45.42 22.5704C45.4005 22.4937 45.4005 22.3857 45.4135 22.3543C45.472 22.5077 45.5046 22.7168 45.5631 22.6889C45.6477 22.8249 45.677 22.5738 45.7161 22.4693C45.677 22.4518 45.664 22.3612 45.664 22.3019C45.6933 22.288 45.7486 22.4379 45.7551 22.3647L45.8137 22.5773C45.7518 22.3821 45.8364 22.3368 45.8234 22.2497C45.882 22.4031 45.8137 22.3996 45.8364 22.5181C45.9503 22.4623 45.8918 22.4902 46.0056 22.4345C46.0284 22.2567 45.9438 22.2392 45.9243 22.044C45.9698 21.9847 45.9861 21.8209 46.0837 21.9289L46.0154 21.7477C46.0837 21.5699 46.152 21.5734 46.2724 21.7408C46.6661 19.9699 45.9048 19.5969 45.9048 19.5969C45.4883 19.2762 45.4688 19.8723 45.1369 20.1302L45.1304 20.1512Z" fill="#20BB65"/>
<path d="M29.9574 27.7013L29.9082 27.6345C29.9213 27.6697 29.9344 27.6978 29.9574 27.7013Z" fill="#20BB65"/>
<path d="M29.4784 25.2192C29.1303 25.2436 28.9286 24.9194 28.6423 25.1878C28.4731 25.2192 28.3332 25.3621 28.1933 25.4632C28.2128 25.77 27.9915 25.5434 27.9818 25.8083L27.8972 25.6619C27.8939 25.7526 27.8777 25.8188 27.8191 25.7456L27.8061 25.7002C27.7996 25.8362 27.728 25.7839 27.7248 25.8536L27.7118 25.8083L27.6629 25.8501L27.6499 25.7804C27.6141 25.9373 27.5361 25.9756 27.4482 25.9442L27.5165 26.1325C27.2953 25.9791 27.3734 26.3939 27.1521 26.1917L27.1391 26.1464C27.1391 26.7146 26.752 25.9093 26.7357 26.4566C26.7357 26.3869 26.6934 26.3626 26.6804 26.3172C26.6186 26.4044 26.5405 26.4671 26.6674 26.8401C26.6055 26.8576 26.5795 26.7425 26.521 26.5996C26.5763 26.7635 26.5502 26.8506 26.5047 26.8785V26.8052L26.3908 26.9133L26.521 27.2131C26.4201 27.1504 26.3745 26.8436 26.3322 26.9447L26.4201 27.1992C26.3062 27.1852 26.1143 26.8227 25.9581 26.6693C25.5286 26.7146 25.3367 27.5339 24.8161 27.2341L24.7315 27.0493C24.6241 26.7739 24.7771 27.5024 24.6729 27.2514V27.3979C24.6469 27.3526 24.6014 27.3107 24.6014 27.2375C24.5591 27.241 24.5753 27.2898 24.5753 27.3839L24.4712 27.2271C24.2695 27.1539 24.2565 27.5443 24.071 27.5443C23.7489 27.2724 23.5017 27.7464 23.3585 28.0253C23.2186 28.5656 22.4638 27.6035 22.3369 28.2101C22.3109 28.1752 22.3206 28.2728 22.3337 28.3077L22.0441 28.3879C22.0441 28.3879 21.6992 28.5064 21.5919 28.8585C21.4845 29.2106 21.6179 29.7893 22.5549 30.7165L22.5712 30.7792C22.7761 30.8594 22.8802 30.8524 22.8672 30.5038C23.0234 30.8699 23.0039 30.4899 23.0852 30.5945L23.095 30.6259C23.0787 30.2982 23.3715 30.7827 23.3618 30.4899C23.3683 30.5213 23.4073 30.6258 23.3878 30.6398C23.4333 30.5665 23.4887 30.4446 23.5765 30.6607C23.7066 30.5387 23.9572 30.5492 23.9246 30.1622L23.9409 30.2249C23.9116 29.967 23.9995 30.1588 24.019 30.0158C24.032 30.0437 24.0418 30.0542 24.045 30.0681C24.0222 29.8101 24.2077 29.9566 24.2207 29.8381L24.276 29.981L24.3834 29.8973L24.3281 29.8868C24.1979 29.4825 24.5103 30.096 24.5038 29.8032C24.6046 29.8206 24.3704 28.9073 24.5265 29.0642C24.5005 28.862 24.6014 29.3814 24.6079 29.2141C24.686 29.4197 24.6274 29.3569 24.7022 29.5138C24.7283 29.3918 24.8779 29.6846 24.9007 29.5138L24.9625 29.6742C24.9528 29.3396 25.2195 29.8136 25.1838 29.5033C25.2358 29.329 25.4213 29.9565 25.4115 29.5975L25.5286 29.7997C25.5839 29.8171 25.4636 29.5173 25.5514 29.6044C25.597 29.7439 25.6523 29.6882 25.6718 29.8311C25.8605 30.0019 25.7889 29.4337 26.0622 29.7404C26.0004 29.4581 26.1305 29.5905 26.0817 29.3779C26.1273 29.4929 26.2346 29.336 26.2412 29.6254C26.2412 29.6498 26.2281 29.6498 26.2119 29.6044L26.2574 29.7683C26.4461 30.0367 26.3518 29.5417 26.4494 29.5557C26.4071 29.5138 26.3778 29.5382 26.3615 29.4197L26.4461 29.4093L26.4754 29.5487L26.6186 29.5801L26.5437 29.4197C26.6283 29.4824 26.7487 29.7579 26.7292 29.4964C26.7129 29.3535 26.599 29.2942 26.6381 29.2176C26.7519 29.3012 26.9244 29.4267 27.035 29.4406C26.9602 29.2559 26.9895 29.2524 27.0025 29.2036L27.061 29.3639C27.0838 29.099 27.2205 29.7091 27.2595 29.4895L27.2888 29.6079L27.1977 29.2559C27.1782 28.8968 27.3636 29.5731 27.3116 29.0955C27.2823 29.1373 27.1684 28.7435 27.2432 28.7958L27.2855 28.9596C27.3018 28.9143 27.2855 28.8446 27.3181 28.8724C27.3311 28.9631 27.3864 29.106 27.4189 29.0607L27.458 29.2663L27.4352 28.9456C27.5523 29.092 27.5719 28.8446 27.6727 29.0572C27.6727 29.0572 27.8354 29.1165 27.7833 28.862C27.8094 29.0223 27.8972 29.0537 27.9395 29.2385C27.9135 29.0537 27.9623 28.8759 28.0631 29.0433V29.0676C28.2681 29.2001 28.2226 28.719 28.4243 28.8968C28.356 28.7085 28.4568 28.7852 28.3592 28.5517C28.4113 28.2624 28.7659 28.9526 28.5642 28.1857C28.613 28.123 28.6943 28.3356 28.7366 28.36V28.4053C28.8277 28.3007 28.8602 28.2798 28.9481 28.2659C28.9644 28.1753 28.857 27.8266 28.9611 27.8824C28.9806 28.0288 29.0034 27.994 29.0327 27.9835C29.0229 28.0114 29.0327 28.0637 29.101 28.1439C29.0912 28.0985 29.0913 28.0706 29.0913 28.0462C29.0945 28.0567 29.0978 28.0637 29.1043 28.0811C29.1368 28.0149 29.114 27.973 29.0847 27.9626C29.0782 27.9417 29.0685 27.9138 29.049 27.8789C29.1563 28.0393 29.1823 27.8162 29.2669 28.0532C29.3906 27.9452 29.4101 27.6593 29.5012 27.5234C29.5533 27.6419 29.563 27.7604 29.5435 27.8197L29.6118 27.743C29.6671 27.9208 29.5956 27.8615 29.5825 27.9068C29.7745 28.1543 29.6964 27.5442 29.8981 27.7639L29.8786 27.614L29.8916 27.6349C29.8688 27.5617 29.8623 27.4501 29.8721 27.4222C29.9372 27.5687 29.986 27.7779 30.0413 27.7465C30.1356 27.879 30.1486 27.6244 30.1812 27.5199C30.1389 27.5059 30.1226 27.4153 30.1194 27.356C30.1454 27.3421 30.2137 27.4885 30.2137 27.4153L30.282 27.621C30.2072 27.4292 30.2886 27.3805 30.2723 27.2933C30.3374 27.4397 30.2723 27.4432 30.2983 27.5617C30.4089 27.499 30.3536 27.5304 30.4642 27.4676C30.4772 27.2898 30.3894 27.2758 30.3634 27.0806C30.4057 27.0214 30.4122 26.8541 30.5163 26.9587L30.4382 26.7809C30.4968 26.5996 30.5651 26.5996 30.692 26.76C30.9881 24.9752 30.2072 24.6475 30.2072 24.6475C29.7712 24.3512 29.7842 24.9473 29.4654 25.2227L29.4784 25.2192Z" fill="#20BB65"/>
<path d="M15.0226 34.285L14.9668 34.2217C14.9832 34.2568 15.0029 34.2815 15.0226 34.285Z" fill="#20BB65"/>
<path d="M9.54688 37.4807C9.54688 37.4807 9.54688 37.4917 9.55053 37.499C9.55053 37.4917 9.55053 37.4844 9.54688 37.4807Z" fill="#20BB65"/>
<path d="M14.2778 31.8795C13.9329 31.9492 13.6986 31.6494 13.4449 31.9527C13.2822 32.0049 13.1553 32.1688 13.0252 32.2873C13.0772 32.5871 12.8332 32.3953 12.8527 32.6602L12.7518 32.5278C12.7584 32.6184 12.7519 32.6881 12.6835 32.6219L12.664 32.5766C12.6738 32.7125 12.5957 32.6707 12.5989 32.7404L12.5794 32.6951L12.5371 32.7439L12.5176 32.6777C12.4981 32.838 12.4265 32.8868 12.3321 32.8694L12.4232 33.0471C12.1825 32.9251 12.3094 33.326 12.0654 33.1587L12.0458 33.1133C12.1109 33.678 11.6294 32.9356 11.6782 33.4793C11.6717 33.4131 11.6229 33.3922 11.6034 33.3468C11.5513 33.4409 11.4797 33.5141 11.6522 33.8662C11.5936 33.894 11.5513 33.7826 11.4797 33.6501C11.5546 33.8035 11.5383 33.8976 11.4992 33.929L11.4895 33.8592L11.3886 33.9847L11.5578 34.2601C11.4504 34.2148 11.3658 33.915 11.3366 34.0231L11.4569 34.2636C11.3431 34.267 11.1056 33.9359 10.9266 33.8104C10.5004 33.9254 10.4191 34.7654 9.85621 34.5598L9.74558 34.3925C9.59917 34.138 9.85622 34.8352 9.71631 34.6016L9.73907 34.7445C9.70328 34.7062 9.65123 34.6713 9.64147 34.5981C9.59917 34.6121 9.62194 34.6539 9.63821 34.748L9.51134 34.6121C9.29661 34.5807 9.34215 34.9641 9.15669 34.9989C8.7923 34.7898 8.61335 35.3126 8.52225 35.6194C8.47345 36.177 7.5527 35.3998 7.53318 36.0307C7.50065 36.0028 7.52667 36.0968 7.54619 36.1247L7.26965 36.2747C7.26965 36.2747 6.94754 36.4803 6.91175 36.8532C6.8727 37.2262 7.14601 37.7455 8.24571 38.4251L8.27498 38.4809C8.48646 38.5122 8.58407 38.4809 8.49947 38.1498C8.72397 38.4704 8.62637 38.108 8.72723 38.1916L8.74025 38.2195C8.65891 37.9058 9.03305 38.3137 8.96798 38.0313C8.981 38.0592 9.03632 38.1533 9.02331 38.1707C9.05259 38.0905 9.08513 37.9616 9.20876 38.1533C9.30962 38.0104 9.54713 37.9721 9.44952 37.5991L9.47553 37.6584C9.4007 37.4109 9.5211 37.5851 9.51134 37.4387C9.53086 37.4631 9.54062 37.4736 9.54712 37.4841C9.4788 37.2366 9.68701 37.3447 9.67725 37.2262L9.75535 37.3551L9.84644 37.2506H9.79114C9.59593 36.8742 10.0026 37.4214 9.9473 37.1355C10.0482 37.1355 9.67076 36.2781 9.8497 36.4071C9.79114 36.2119 9.97334 36.7069 9.95382 36.5396C10.0612 36.7278 9.99611 36.6755 10.0937 36.8184C10.097 36.6929 10.2922 36.9578 10.2857 36.7835L10.3703 36.9299C10.3084 36.6022 10.6436 37.024 10.559 36.7278C10.5817 36.5465 10.8615 37.1355 10.7965 36.7835L10.9429 36.9648C11.0014 36.9717 10.8388 36.6964 10.9364 36.7696C11.0015 36.8985 11.047 36.8358 11.086 36.9752C11.2943 37.1147 11.1414 36.5639 11.4537 36.8253C11.3528 36.5569 11.496 36.665 11.4212 36.4629C11.483 36.5709 11.5643 36.4001 11.6131 36.6824C11.6164 36.7068 11.6034 36.7103 11.5806 36.665L11.6489 36.8184C11.8702 37.0554 11.7075 36.5813 11.8051 36.5813C11.7563 36.5465 11.7335 36.5744 11.701 36.4629L11.7823 36.442L11.8311 36.5778L11.9743 36.5883L11.8799 36.442C11.971 36.4907 12.1239 36.7451 12.0719 36.4907C12.0361 36.3513 11.9157 36.3095 11.945 36.2293C12.0686 36.2955 12.2541 36.3966 12.3647 36.3931C12.2671 36.2223 12.2964 36.2154 12.3029 36.1631L12.381 36.3164C12.3679 36.0515 12.5827 36.6336 12.5924 36.4106L12.638 36.5221L12.5046 36.1875C12.4395 35.8355 12.7063 36.4803 12.5957 36.0098C12.5729 36.0586 12.4102 35.6821 12.4916 35.7204L12.5534 35.8738C12.5631 35.8285 12.5404 35.7622 12.5729 35.7832C12.5957 35.8703 12.6705 36.0027 12.6965 35.9574L12.7616 36.1561L12.6998 35.8425C12.8332 35.9714 12.8202 35.724 12.9471 35.9191C12.9471 35.9191 13.113 35.9574 13.0284 35.7135C13.074 35.8703 13.1651 35.8877 13.2269 36.0655C13.1781 35.8877 13.2041 35.7031 13.3245 35.8564V35.8808C13.5457 35.9853 13.4416 35.5148 13.6628 35.6647C13.5717 35.4869 13.6824 35.5497 13.5587 35.3301C13.575 35.0339 14.0077 35.6751 13.7182 34.9397C13.7572 34.87 13.8646 35.0686 13.9101 35.0896V35.1349C13.9947 35.0199 14.0207 34.9955 14.1086 34.9711C14.1151 34.8805 13.9687 34.5458 14.0793 34.5877C14.1183 34.7306 14.1346 34.6922 14.1606 34.6783C14.1541 34.7097 14.1704 34.7584 14.2452 34.8281C14.2322 34.7863 14.229 34.7549 14.2257 34.7305C14.2322 34.741 14.2355 34.748 14.242 34.7619C14.2647 34.6922 14.2387 34.6539 14.2094 34.6469C14.1997 34.626 14.1867 34.6016 14.1639 34.5667C14.2875 34.7131 14.2875 34.4866 14.3981 34.7097C14.5088 34.5877 14.4958 34.3019 14.5706 34.1555C14.6357 34.267 14.6584 34.3821 14.6454 34.4448L14.7072 34.3612C14.7821 34.5285 14.7072 34.4831 14.6975 34.5284C14.9155 34.7515 14.769 34.1555 14.9935 34.3472L14.9578 34.2008L14.974 34.2182C14.9415 34.1485 14.922 34.0405 14.9285 34.0091C15.0098 34.1485 15.0814 34.3472 15.1302 34.3088C15.2375 34.4273 15.2213 34.1729 15.2441 34.0649C15.2018 34.0544 15.1757 33.9708 15.166 33.9115C15.192 33.8941 15.2734 34.03 15.2668 33.9568L15.3579 34.152C15.2636 33.9708 15.3384 33.915 15.3124 33.8279C15.3937 33.9673 15.3254 33.9777 15.3677 34.0893C15.4718 34.0126 15.4198 34.0509 15.5206 33.9777C15.5141 33.7965 15.4263 33.7965 15.3775 33.6082C15.4132 33.542 15.4002 33.3782 15.5141 33.4654L15.4165 33.2981C15.4555 33.1099 15.5206 33.1029 15.667 33.2458C15.7646 31.4369 14.9512 31.2103 14.9512 31.2103C14.486 30.9698 14.5641 31.5588 14.281 31.876L14.2778 31.8795Z" fill="#20BB65"/>
<path d="M3.37038 43.6296L3.30078 43.5906C3.33061 43.6119 3.35712 43.626 3.37038 43.6296Z" fill="#20BB65"/>
<path d="M2.58203 45.2603C2.58203 45.2603 2.59227 45.2639 2.59908 45.2712L2.58203 45.2603Z" fill="#20BB65"/>
<path d="M1.04242 42.4655C1.04242 42.4655 1.0322 42.4582 1.02539 42.4509L1.04242 42.4655Z" fill="#20BB65"/>
<path d="M1.43265 42.2071C1.29926 42.2524 0.983665 42.0781 1.04548 42.2628C0.993426 42.2977 1.03247 42.3953 1.04223 42.465C1.26672 42.6393 1.0097 42.5312 1.19515 42.6846L1.05523 42.6114C1.11705 42.6637 1.15935 42.702 1.08127 42.6672L1.04223 42.6428C1.13658 42.7195 1.06826 42.6986 1.11381 42.737L1.07477 42.7125L1.08452 42.7405L1.02922 42.7021C1.12357 42.7927 1.11705 42.8241 1.05523 42.8136L1.22117 42.9113C1.01294 42.845 1.34481 43.0716 1.10404 42.981L1.065 42.9565C1.47169 43.2703 0.723383 42.8659 1.1073 43.1657C1.0585 43.1274 1.01945 43.1169 0.980408 43.0925C1.01294 43.1448 1.02596 43.1866 1.35132 43.3783C1.3383 43.3923 1.2407 43.3331 1.11381 43.2633C1.25697 43.347 1.30902 43.3958 1.30902 43.4167L1.25697 43.3783L1.28624 43.448L1.55955 43.5945C1.4717 43.5701 1.22767 43.4097 1.28298 43.469L1.50748 43.598C1.44892 43.6015 1.10079 43.4236 0.91859 43.3609C0.759167 43.4341 1.27323 43.8838 0.820988 43.7827L0.648541 43.6956C0.398018 43.5666 1.00319 43.9256 0.76894 43.8071L0.876292 43.8803C0.830743 43.8594 0.778699 43.8419 0.726642 43.8071C0.710375 43.8141 0.752667 43.835 0.824244 43.8838L0.661568 43.8141C0.518412 43.8001 0.798207 43.9988 0.713615 44.0198C0.365487 43.9222 0.606264 44.1905 0.749419 44.3439C1.09104 44.6193 0.0271344 44.2533 0.424066 44.5601C0.385023 44.5462 0.463099 44.5914 0.495634 44.6054L0.424066 44.6821C0.424066 44.6821 0.355729 44.7832 0.573716 44.9575C0.788449 45.1352 1.296 45.3653 2.42172 45.6895L2.47705 45.7174C2.62996 45.7348 2.66899 45.7244 2.39894 45.564C2.74707 45.7139 2.44775 45.5466 2.56488 45.5849L2.59417 45.5989C2.34039 45.4525 2.83492 45.6477 2.60718 45.5117C2.6332 45.5257 2.72756 45.571 2.73081 45.578C2.69502 45.5396 2.62995 45.4803 2.82841 45.571C2.79263 45.5047 2.90975 45.4873 2.60392 45.3095L2.65924 45.3375C2.45102 45.2189 2.63647 45.3026 2.53561 45.2329C2.56164 45.2433 2.57464 45.2503 2.58766 45.2538C2.38268 45.1318 2.57465 45.1875 2.49331 45.1283L2.6267 45.191L2.61043 45.1422H2.57791C2.21676 44.9575 2.81541 45.2259 2.59091 45.0865C2.64622 45.0865 1.86213 44.6612 2.05083 44.7239C1.88816 44.6263 2.32086 44.8738 2.19723 44.7901C2.38593 44.8843 2.3111 44.8598 2.46402 44.9295C2.38268 44.8668 2.669 44.9993 2.55187 44.9122L2.69828 44.9854C2.44451 44.8215 2.91301 45.0342 2.66899 44.8843C2.56163 44.7936 3.10823 45.09 2.83818 44.9122L3.0399 45.0063C3.07569 45.0098 2.8024 44.8703 2.90326 44.9087C3.02689 44.9749 3.01062 44.9435 3.1245 45.0132C3.32947 45.0864 2.88048 44.8041 3.22536 44.94C2.9911 44.8006 3.14077 44.8598 2.96508 44.7552C3.06919 44.811 3.00085 44.7239 3.21559 44.8703C3.23185 44.8808 3.22861 44.8842 3.18631 44.8598L3.32621 44.94C3.60277 45.0655 3.19931 44.8181 3.25137 44.8181C3.20257 44.7971 3.20908 44.8145 3.11473 44.7552L3.14402 44.7449L3.26114 44.8146L3.34574 44.8215L3.19607 44.7449C3.2774 44.7727 3.53119 44.9086 3.32947 44.7727C3.2156 44.6995 3.1245 44.6751 3.08546 44.6333C3.19608 44.6681 3.36199 44.7239 3.4173 44.7239C3.25137 44.6333 3.26113 44.6298 3.23185 44.6019L3.37501 44.6821C3.18955 44.5426 3.69387 44.8529 3.55071 44.7344L3.64831 44.7936L3.35225 44.6158C3.0822 44.4276 3.65482 44.7762 3.28392 44.5252C3.30344 44.5496 2.96832 44.3474 3.03665 44.3684L3.17329 44.452C3.14726 44.4276 3.09196 44.3927 3.12124 44.4032C3.19282 44.452 3.3197 44.5217 3.30018 44.4973L3.46937 44.6054L3.22861 44.4381C3.38478 44.5078 3.21234 44.3754 3.40755 44.4834C3.40755 44.4834 3.51816 44.5078 3.31319 44.3718C3.44008 44.4555 3.49865 44.4695 3.65157 44.5671C3.50841 44.4695 3.40104 44.3718 3.56372 44.4555L3.57998 44.4695C3.75892 44.5322 3.39453 44.2707 3.60601 44.3579C3.44334 44.2603 3.54095 44.2951 3.32947 44.1731C3.14402 44.0093 3.78495 44.3719 3.15051 43.9605C3.12448 43.9222 3.30995 44.0372 3.34899 44.0477L3.38152 44.072C3.34573 44.0093 3.34574 43.9953 3.37177 43.9849C3.31646 43.9326 3.02038 43.7444 3.10172 43.7688C3.21559 43.849 3.19933 43.828 3.20258 43.821C3.21885 43.8385 3.26114 43.8664 3.34574 43.9082C3.30995 43.8838 3.29043 43.8664 3.27091 43.8524C3.28067 43.8594 3.28717 43.8629 3.30018 43.8699C3.26439 43.8315 3.22861 43.8106 3.20909 43.8036C3.18957 43.7931 3.16678 43.7792 3.13425 43.7583C3.29367 43.842 3.14402 43.7165 3.34574 43.8455C3.31971 43.7792 3.12774 43.6153 3.06917 43.5317C3.17329 43.5979 3.26114 43.6642 3.29692 43.6991L3.27091 43.6537C3.42057 43.7513 3.34898 43.7234 3.37501 43.7478C3.62878 43.8803 3.16679 43.5352 3.4043 43.6502L3.29043 43.5666L3.30995 43.577C3.24813 43.5352 3.16678 43.4724 3.15051 43.455C3.28065 43.5387 3.44659 43.6537 3.44659 43.6328C3.57674 43.706 3.4043 43.5561 3.34574 43.4934C3.31971 43.4864 3.24813 43.4376 3.20584 43.4027C3.20584 43.3923 3.33597 43.476 3.28392 43.4307L3.45634 43.5491C3.29041 43.4411 3.29368 43.4097 3.2221 43.3574C3.35224 43.441 3.32621 43.4446 3.42056 43.5143C3.42056 43.4725 3.42056 43.4933 3.42056 43.4515C3.30018 43.3469 3.25464 43.3435 3.10823 43.2284C3.0822 43.1901 2.97158 43.0925 3.08546 43.1483L2.92927 43.0472C2.82841 42.9356 2.85445 42.9321 3.02038 43.0227C2.46403 42.4824 2.05408 42.1652 1.77753 41.9909C1.50098 41.8166 1.35783 41.7818 1.35783 41.7818C0.964151 41.6389 1.37734 41.9979 1.43265 42.1896V42.2071Z" fill="#20BB65"/>
</svg>
