<svg width="43" height="67" viewBox="0 0 43 67" fill="none" xmlns="http://www.w3.org/2000/svg">
<path d="M0.632812 55.1925C0.717542 55.2546 0.805554 55.1097 0.779483 55.1338C0.753413 55.0751 0.658883 55.1856 0.632812 55.1925Z" fill="white"/>
<path d="M2.04865 57.156C2.02843 57.2643 1.98124 57.0765 2.04865 57.156Z" fill="white"/>
<path d="M2.75717 58.2268C2.79953 58.2027 2.83538 58.1065 2.87774 58.055L2.77348 58.0137C2.77348 58.0755 2.80931 58.1718 2.75391 58.2268H2.75717Z" fill="white"/>
<path d="M2.88086 58.0552L3.03405 58.1173C2.96562 58.0068 2.91671 58.0138 2.88086 58.0552Z" fill="white"/>
<path d="M3.08542 58.6738L2.94531 58.6843L3.17015 58.6878L3.08542 58.6738Z" fill="white"/>
<path d="M3.31984 58.9556C3.20904 58.9693 3.24489 59.1271 3.16016 59.1134C3.23185 59.1819 3.34918 59.199 3.45346 59.2127C3.37199 59.175 3.32962 59.0962 3.3231 58.9556H3.31984Z" fill="white"/>
<path d="M3.61476 59.2478C3.57239 59.2304 3.51374 59.2234 3.45508 59.2129C3.49744 59.2338 3.54958 59.2478 3.61476 59.2478Z" fill="white"/>
<path d="M3.11924 58.5155L3.19423 58.3781C3.19423 58.3781 3.17138 58.3472 3.16161 58.3301C3.14531 58.3575 3.09643 58.4262 3.11924 58.512V58.5155Z" fill="white"/>
<path d="M3.19727 58.375C3.23007 58.4342 3.2563 58.469 3.26614 58.4865C3.2563 58.4725 3.23659 58.4412 3.20051 58.375H3.19727Z" fill="white"/>
<path d="M3.1543 58.3198L3.16557 58.3319C3.16557 58.3319 3.17691 58.3077 3.1543 58.3198Z" fill="white"/>
<path d="M3.07227 58.0797L3.24822 58.1485L3.17979 58.0039C3.15372 58.0314 3.12767 58.0866 3.07227 58.0797Z" fill="white"/>
<path d="M3.33024 58.1831L3.25 58.1479L3.27343 58.2042L3.33024 58.1831Z" fill="white"/>
<path d="M3.55901 58.952C3.647 58.9657 3.69261 59.0206 3.75127 59.0789C3.71868 58.9897 3.67631 58.9074 3.62417 58.8389C3.5818 58.856 3.49709 58.8765 3.55901 58.952Z" fill="white"/>
<path d="M3.39258 58.6645L3.41144 58.6726C3.41144 58.6726 3.41147 58.6443 3.39258 58.6645Z" fill="white"/>
<path d="M4.23351 59.7309C4.23351 59.7309 4.24393 59.7123 4.2474 59.7012L4.22656 59.7161L4.23698 59.7309H4.23351Z" fill="white"/>
<path d="M3.6336 58.8115C3.61405 58.7389 3.56517 58.732 3.50977 58.7285C3.54887 58.7597 3.58797 58.7943 3.62382 58.8392C3.64337 58.8323 3.65316 58.8219 3.63686 58.8115H3.6336Z" fill="white"/>
<path d="M3.80059 59.3852C3.80059 59.337 3.80058 59.2923 3.7908 59.2441C3.77777 59.2992 3.76474 59.3989 3.80059 59.3852Z" fill="white"/>
<path d="M3.39025 58.7114H3.37946C3.36869 58.7499 3.37947 58.7345 3.39025 58.7114Z" fill="white"/>
<path d="M3.38867 58.7115C3.42452 58.7252 3.46688 58.7253 3.50925 58.7253C3.47666 58.7013 3.44079 58.6807 3.40494 58.667C3.40494 58.6807 3.39519 58.6978 3.38867 58.7081V58.7115Z" fill="white"/>
<path d="M4.08276 59.4601L4.03387 59.4189C4.05994 59.491 4.05016 59.5664 4.02734 59.707C4.13814 59.7482 4.19028 59.7344 4.22939 59.7139L4.05992 59.4567H4.08928L4.08276 59.4601Z" fill="white"/>
<path d="M4.19743 59.7974L4.06055 59.8696L4.31148 59.8455L4.19743 59.7974Z" fill="white"/>
<path d="M4.29492 60.1209L4.40571 60.1381L4.40245 60.0449L4.29492 60.1209Z" fill="white"/>
<path d="M10.2812 64.571C10.4572 64.5435 10.7245 64.5091 10.6071 64.4198L10.4768 64.3545C10.4181 64.4713 10.3497 64.5366 10.2845 64.571H10.2812Z" fill="white"/>
<path d="M6.41602 62.6531C6.42579 62.7629 6.45189 62.8349 6.48448 62.8898C6.48448 62.7492 6.52356 62.5983 6.41602 62.6531Z" fill="white"/>
<path d="M16.909 55.796C16.9156 55.743 16.8922 55.7218 16.8488 55.7289C16.8387 55.7819 16.8521 55.8137 16.909 55.796Z" fill="white"/>
<path d="M6.48438 62.894C6.48438 62.9971 6.5137 63.0968 6.64405 63.1071C6.64405 63.0865 6.64405 63.0693 6.64405 63.0452C6.5854 63.0074 6.53 62.9662 6.48764 62.894H6.48438Z" fill="white"/>
<path d="M2.23242 53.928C2.26175 53.9175 2.30737 53.9175 2.353 53.9175C2.33019 53.907 2.29434 53.9071 2.23242 53.928Z" fill="white"/>
<path d="M5.132 61.1257C5.11118 61.1257 5.07995 61.0736 5.132 61.1257Z" fill="white"/>
<path d="M5.11914 61C5.11914 61.0313 5.12572 61.066 5.13884 61.0973C5.13884 61.0799 5.13226 61.0487 5.11914 61Z" fill="white"/>
<path d="M5.07436 61.0558C5.06452 61.0316 5.05797 61.0143 5.04813 60.9971C5.02517 61.004 5.01859 61.0212 5.07436 61.0558Z" fill="white"/>
<path d="M5.19258 61.1976C5.16634 61.1663 5.14992 61.1349 5.1368 61.0967C5.1368 61.1141 5.13679 61.1245 5.12695 61.1245C5.14007 61.1384 5.15978 61.1593 5.1893 61.1976H5.19258Z" fill="white"/>
<path d="M17.6335 54.0723L17.7443 54.0208C17.4249 53.983 17.086 54.1067 16.7895 54.2304C16.7634 54.196 16.8905 54.1445 16.9361 54.1205C16.5711 54.0105 16.4147 54.0346 15.7662 54.2889L15.877 54.1205C15.776 54.1686 15.6521 54.1033 15.4403 54.0449C15.235 53.9899 14.9254 53.9452 14.6354 54.0449C14.6452 54.0243 14.6647 53.9933 14.7136 53.9692C14.5474 54.0173 14.391 54.0139 14.2215 53.9864C14.1042 53.9589 13.9967 53.9142 13.8924 53.8798C13.6838 53.8111 13.5078 53.7974 13.4329 54.1067L13.1689 54.2579C13.5111 54.3095 13.1168 54.526 13.2569 54.6291C13.1233 54.6635 12.9115 54.44 13.0744 54.4091L13.1005 54.4401C13.1624 54.117 12.6768 54.3232 12.6866 54.1033C12.012 54.1136 11.357 53.9314 10.7281 53.9108L10.7997 54.1617L10.5814 54.1445C10.5227 54.086 10.5064 53.9487 10.6629 53.959C10.5814 53.8146 10.3989 54.0758 10.3957 54.1308C10.0893 54.0277 10.5162 53.8386 10.425 53.8318L10.2979 53.849L10.3272 53.8798C10.2229 53.9829 10.2132 54.0895 10.0241 54.0758C9.90357 54.0242 9.9655 53.9211 9.91662 53.9108C9.91662 53.8936 9.90029 53.8833 9.84489 53.9039L9.5679 53.8798L9.66895 54.062C9.5777 54.1067 9.3072 54.0758 9.0465 54.0895C8.78253 54.0758 8.51204 54.1067 8.42079 54.062L8.52183 53.8798L8.24484 53.9039C8.18944 53.8867 8.17312 53.8936 8.17312 53.9108C8.12749 53.9211 8.18617 54.0242 8.06559 54.0758C7.87658 54.0895 7.86678 53.9795 7.7625 53.8798L7.79186 53.849L7.66476 53.8318C7.57025 53.8386 8.00041 54.0277 7.69408 54.1308C7.69082 54.0758 7.50834 53.8146 7.42361 53.959C7.53441 53.9521 7.55721 54.0173 7.53766 54.0792C7.46923 54.0586 7.39427 54.0345 7.33562 53.9761L7.35515 53.9108C7.3356 53.9108 7.31606 53.9142 7.29651 53.9142C7.28674 53.9005 7.27697 53.8902 7.27046 53.8765C7.28023 53.8902 7.28347 53.9039 7.28673 53.9177C7.01624 53.9314 6.7425 53.9692 6.4655 54.007C6.19501 53.9795 5.89849 53.8558 5.59542 53.8936C5.5889 53.9452 5.63452 54.0173 5.59542 54.093C5.57586 54.093 5.55303 54.093 5.53348 54.093L5.33143 53.8318C5.24344 53.8593 5.24671 54.1788 5.09028 53.9692C5.11309 54.0207 5.14568 54.0964 5.08702 54.117C4.93385 54.0655 4.77745 54.038 4.62103 54.0242C4.5363 53.7974 4.37333 53.8146 4.18758 53.873C4.0833 53.9074 3.97575 53.952 3.85844 53.9795C3.68898 54.007 3.53255 54.0105 3.36635 53.9624C3.41523 53.9865 3.43478 54.0174 3.44456 54.038C3.26532 53.9761 3.07957 53.9727 2.91337 53.9933C2.75043 53.952 2.58423 53.8868 2.42455 53.7837C2.54512 53.9005 2.46368 53.9142 2.37243 53.9177C2.42457 53.9417 2.38548 54.0414 2.38222 54.1205C2.36918 54.1239 2.35611 54.1239 2.34308 54.1274L2.01071 53.9211C1.95531 54.1033 1.73695 54.0036 1.62941 54.0689C1.46321 54.0448 1.33287 54.0689 1.15037 54.1205C1.196 54.148 1.32308 54.196 1.29701 54.2304C1.00045 54.1067 0.661557 53.983 0.342192 54.0208L0.452981 54.0723L0 54.0551L0.0847326 54.1789C0.593109 54.4229 0.567024 54.5191 0.599612 54.6772C0.625683 54.8284 0.716925 55.0587 1.20575 55.2408C1.02651 55.2511 1.21556 55.5776 1.24163 55.7254C1.27096 55.7288 1.31006 55.7425 1.36221 55.77C1.24489 55.8422 1.38826 55.9934 1.5512 56.124C1.72066 56.258 1.90968 56.3714 1.96508 56.4676C1.99115 56.612 1.86732 56.5879 1.72719 56.5501C1.94553 56.6601 2.02048 56.8525 2.08892 57.069C2.09869 57.1 2.10846 57.1309 2.11824 57.1618C2.1052 57.1515 2.0889 57.1413 2.07261 57.1241C2.07261 57.1413 2.06934 57.1446 2.06608 57.155C2.07912 57.1721 2.09542 57.1928 2.11824 57.234C2.12475 57.2271 2.12803 57.2203 2.13455 57.2169C2.15084 57.2719 2.1671 57.3234 2.1834 57.3681C2.19643 57.4024 2.2095 57.4334 2.21928 57.4574C2.22254 57.4643 2.22903 57.4643 2.23555 57.4677C2.23555 57.5227 2.2649 57.5914 2.21928 57.5845C2.33008 57.6601 2.35615 57.6086 2.37896 57.4986C2.40829 57.478 2.44084 57.4471 2.47017 57.4196L2.52233 57.4437C2.53862 57.4093 2.57449 57.3715 2.49953 57.3956C2.51583 57.3818 2.53209 57.3715 2.55164 57.3646C2.5712 57.4024 2.57121 57.4368 2.56143 57.4643L2.51906 57.4437C2.50929 57.4643 2.5158 57.4781 2.55491 57.4781C2.49951 57.6087 2.24533 57.6567 2.52559 57.7564C2.51907 57.7117 2.48974 57.6465 2.52885 57.6465C2.61684 57.7049 3.01117 57.5811 3.1513 57.6258C3.09264 57.6636 3.06655 57.7358 2.93294 57.7117C2.98834 57.7186 3.05679 57.7461 3.10893 57.7427C3.16759 57.8286 3.30117 57.8561 3.40546 57.8904C3.39894 57.9351 3.39244 57.9729 3.38266 57.997C3.40547 57.9661 3.42178 57.9317 3.44134 57.9008C3.53258 57.9317 3.58147 57.9729 3.48044 58.0795L3.34682 58.1654C3.7444 58.3338 3.39895 58.3372 3.78023 58.5262L3.79654 58.5056C3.87801 58.6603 4.08655 58.6053 3.93991 58.839L3.87801 58.8149C3.93015 58.8974 3.96273 58.9386 3.99532 58.9798C3.97577 58.9798 3.9562 58.9798 3.93665 58.9695C4.14195 59.186 3.82258 58.9524 3.89102 59.1757C3.83888 59.1448 3.79981 59.107 3.76722 59.0726C3.78677 59.1276 3.79977 59.1826 3.80955 59.2376V59.2273C3.81606 59.2032 3.82259 59.1929 3.82259 59.2135C3.82259 59.2135 3.82586 59.2135 3.82912 59.2135C3.84541 59.2032 3.86171 59.1964 3.87801 59.1895C3.90734 59.2789 3.85845 59.2238 3.82912 59.2135C3.8226 59.2169 3.81606 59.2204 3.80955 59.2238L4.04747 59.4128C4.02466 59.351 3.97577 59.2892 3.87801 59.1861C3.97577 59.1517 4.07026 59.1757 4.13869 59.1413C4.14521 59.1482 4.14849 59.1551 4.15826 59.162C4.155 59.1963 4.19086 59.3063 4.24952 59.296C4.17131 59.3681 4.22995 59.4816 4.31142 59.5881C4.29186 59.6259 4.2723 59.6603 4.25927 59.6947C4.28859 59.6741 4.32122 59.6534 4.37662 59.6603C4.44831 59.7359 4.51997 59.7977 4.54604 59.8252C4.46457 59.6706 4.58516 59.674 4.67967 59.6568C4.60797 59.8493 4.63732 59.918 4.81655 59.9455C4.75138 60.0108 4.68292 60.0796 4.63078 60.1483C4.61448 60.1277 4.60471 60.107 4.59493 60.083C4.51998 60.2273 4.57866 60.1724 4.5754 60.2342C4.51674 60.3408 4.50368 60.4507 4.58515 60.5676C4.58841 60.5092 4.56559 60.4404 4.62425 60.4266C4.68291 60.4129 4.6764 60.5023 4.67314 60.5332C4.71877 60.5229 4.71877 60.461 4.75788 60.4163C4.76765 60.4301 4.77742 60.4438 4.78719 60.4576C4.77416 60.5951 4.84261 60.65 4.92408 60.7188C4.94363 60.7806 4.95993 60.8459 4.92734 60.9765C4.97622 60.9284 4.98927 60.8425 5.0577 60.9903C5.07725 60.9834 5.10657 60.98 5.12286 60.98C5.12286 60.9868 5.12286 60.9869 5.12286 60.9903V60.9765C5.12286 60.9765 5.13916 60.9765 5.12286 60.9731C5.12286 60.925 5.13267 60.8768 5.15222 60.8425C5.17177 60.839 5.19457 60.839 5.21412 60.8425C5.13591 60.9937 5.6443 60.9319 5.31516 61.09C5.40967 61.1415 5.49438 61.2136 5.57911 61.2927C5.54978 61.3958 5.53998 61.4886 5.39985 61.4061L5.51394 61.5711C5.52046 61.7188 5.59214 61.87 5.69968 61.9113C5.73227 62.0075 5.97017 61.9972 5.83004 62.0075L6.09072 62.2L6.06467 62.2274C6.23738 62.4886 6.63823 62.5814 6.64475 63.0419C6.73599 63.1004 6.837 63.1588 6.90869 63.3272L6.83048 63.4371C6.94454 63.5162 6.97387 63.8427 7.11074 63.8049C7.02275 63.9801 7.09448 64.1073 7.22809 64.2551C7.43665 64.506 7.67127 64.7328 7.78207 64.9321L7.88308 64.7843C8.04276 65.0146 8.22854 65.183 8.44362 65.3582L8.45989 65.2482C8.49574 65.3204 8.53162 65.3994 8.57072 65.4819C8.70433 65.7671 8.87376 66.0902 9.02693 66.104C9.02693 66.104 9.02693 66.104 9.02693 66.1074C9.03019 66.1074 9.03345 66.1074 9.03671 66.1074C9.03997 66.1074 9.04324 66.1074 9.0465 66.1074C9.0465 66.1074 9.0465 66.1074 9.0465 66.104C9.19966 66.0868 9.36913 65.7637 9.50274 65.4819C9.64939 65.176 9.75693 64.9115 9.94594 64.8599C9.99156 64.7087 10.0502 64.6674 10.1187 64.6365C10.1121 64.6468 10.1089 64.6572 10.1056 64.6675C10.1154 64.6606 10.1252 64.6468 10.1349 64.6296C10.1806 64.6124 10.2295 64.5953 10.2816 64.5678C10.2295 64.5781 10.1838 64.5884 10.1512 64.6056C10.2034 64.53 10.2783 64.4029 10.3337 64.2688L10.4739 64.3479C10.4739 64.3479 10.4836 64.3307 10.4901 64.3204C10.6172 64.2516 10.5032 64.1795 10.3761 64.1451C10.3989 64.0729 10.4087 64.0076 10.4087 63.9457C10.6661 64.0351 10.4836 63.7052 10.7541 63.8049C10.6857 63.6708 10.9366 63.3993 10.7509 63.1794C10.7802 63.2 10.8095 63.1932 10.7834 63.231C10.8649 63.176 10.9496 63.121 10.9399 63.0041L11.1191 63.1038L11.0376 62.7601C11.2104 62.7395 11.2951 62.7464 11.3375 62.9457C11.3375 62.5505 11.4189 62.6914 11.3928 62.334L11.4841 62.4302C11.5362 62.3546 11.4906 62.1243 11.6079 62.1484C11.924 62.1484 12.2532 61.3648 12.7518 61.0968C12.3933 60.9249 13.032 61.0143 12.8169 60.8047C12.9049 60.8391 12.9897 60.815 12.9995 60.9352C13.094 60.6638 13.3579 60.7085 13.2764 60.3958C13.3644 60.4301 13.3449 60.5298 13.4035 60.5435C13.4035 60.5126 13.3938 60.4232 13.4524 60.437C13.5111 60.4507 13.4883 60.5195 13.4915 60.5779C13.648 60.3511 13.4491 60.1449 13.2601 59.9559C13.4394 59.9284 13.4687 59.8596 13.397 59.6672C13.4915 59.6843 13.6121 59.6809 13.5306 59.8355C13.5991 59.7668 13.9836 59.4506 13.8304 59.3063C13.8891 59.3166 13.9249 59.2101 13.9217 59.1723C14.0618 59.0108 14.0879 59.0073 14.2019 58.8252L14.14 58.8493C13.9967 58.6156 14.2052 58.6706 14.2834 58.5159L14.2997 58.5365C14.6777 58.3475 14.3356 58.344 14.7331 58.1756L14.5995 58.0897C14.3617 57.8388 14.9613 57.9488 15.0004 57.6877H14.8831C14.8668 57.5193 15.4468 57.7255 15.5544 57.6533C15.5935 57.6533 15.5641 57.7186 15.5576 57.7632C15.9096 57.6395 15.424 57.5949 15.5316 57.3715C15.6456 57.4093 15.714 57.6017 15.8281 57.4883C15.8444 57.4883 15.8542 57.478 15.864 57.4609C15.8737 57.4368 15.8868 57.4059 15.8998 57.3715C15.9324 57.2856 15.9617 57.1756 15.9976 57.0725C16.066 56.856 16.1409 56.6635 16.3593 56.5535C16.2192 56.5948 16.0921 56.6154 16.1214 56.4711C16.1768 56.3714 16.3658 56.2614 16.5353 56.1274C16.7015 55.9968 16.8416 55.849 16.7243 55.7734C16.7764 55.7459 16.8155 55.7322 16.8448 55.7288C16.8677 55.581 17.06 55.258 16.8807 55.2443C17.3695 55.0587 17.4608 54.8318 17.4869 54.6806C17.5162 54.5225 17.4934 54.4263 18.0017 54.1823L18.0865 54.0586L17.6335 54.0758V54.0723ZM4.98275 59.7393C4.98601 59.7187 4.98924 59.6912 4.9925 59.6672C4.9534 59.7599 4.91432 59.8287 4.86544 59.8252L4.79698 59.5744C4.8589 59.5778 4.93059 59.5915 4.99902 59.5812C4.99902 59.6087 4.99576 59.6397 4.9925 59.6672C5.00554 59.6397 5.01861 59.6087 5.02838 59.5778C5.04794 59.5744 5.06747 59.564 5.08702 59.5537L5.15222 59.6396C5.10986 59.7084 5.05771 59.7531 4.98275 59.7359V59.7393ZM5.82352 60.5401C5.82352 60.5401 5.81699 60.5435 5.81373 60.547C5.81047 60.5366 5.80398 60.5229 5.80072 60.5126L5.82352 60.5435V60.5401ZM8.55115 64.1966L8.58047 64.2379C8.57069 64.2723 8.55767 64.3066 8.54789 64.341C8.54789 64.2929 8.54789 64.2447 8.54789 64.2L8.55115 64.1966ZM9.48643 64.2413L9.51575 64.2035C9.51575 64.2447 9.51575 64.286 9.51575 64.3272C9.50597 64.2997 9.49621 64.2688 9.48969 64.2379L9.48643 64.2413ZM3.18062 57.6877C3.18062 57.6877 3.18062 57.6842 3.18062 57.6808C3.18062 57.6808 3.18062 57.6808 3.18062 57.6877ZM5.67689 61.6398C5.67689 61.6398 5.68337 61.6398 5.68663 61.6398C5.70618 61.7704 5.6997 61.7223 5.67689 61.6398ZM9.06603 66.0456C9.06603 66.0456 9.07256 66.0283 9.07582 66.018L9.06281 66.0524C9.06281 66.0524 9.04649 66.073 9.03671 66.0799C9.02694 66.073 9.01717 66.0627 9.01066 66.0524L8.99761 66.018C8.99761 66.018 9.00414 66.0352 9.00739 66.0456C8.98132 66.0146 8.95524 65.9733 8.94872 65.9149C8.95524 65.9252 8.96503 65.9356 8.97155 65.9459C8.99111 65.9768 9.00737 66.0112 9.02693 66.0387C9.03019 66.0352 9.03345 66.0284 9.03671 66.0249C9.03997 66.0284 9.04324 66.0352 9.0465 66.0387C9.06605 66.0077 9.08236 65.9768 9.10191 65.9459C9.10843 65.9356 9.11819 65.9287 9.12471 65.9149C9.11819 65.9733 9.0921 66.0146 9.06603 66.0456ZM9.884 53.9726L9.92637 54.0174C9.8286 54.0655 9.85467 54.0208 9.884 53.9726ZM10.803 62.5299L10.9073 62.3958L11.0311 62.7224C10.9822 62.6639 10.8975 62.5986 10.803 62.5333V62.5299ZM13.2048 59.8252C13.1591 59.8287 13.12 59.7599 13.0777 59.6672C13.0777 59.6946 13.0809 59.7187 13.0874 59.7393C13.0418 59.7496 13.0027 59.7325 12.9701 59.705L13.0516 59.6019C13.0614 59.6225 13.0711 59.6465 13.0777 59.6672C13.0777 59.6397 13.0744 59.6053 13.0711 59.5744L13.107 59.5263C13.1819 59.5332 13.2471 59.5366 13.283 59.5332L13.2015 59.8252H13.2048Z" fill="#A0D92A"/>
<path d="M4.65039 60.6018L4.77097 60.6946C4.72208 60.643 4.73512 60.5984 4.73186 60.5537C4.70579 60.5812 4.67972 60.6362 4.65039 60.6018Z" fill="white"/>
<path d="M5.34792 61.2342C5.34792 61.1724 5.19801 61.3199 5.22082 61.2616C5.05462 61.3268 5.57604 61.3919 5.34792 61.2342Z" fill="white"/>
<path d="M1.7469 53.7385L1.61328 53.6631L1.69801 53.7831L1.7469 53.7385Z" fill="white"/>
<path d="M1.4897 53.9958L1.46038 53.7725L1.37891 53.9752C1.40824 53.9649 1.46688 53.9477 1.4897 53.9958Z" fill="white"/>
<path d="M1.1605 55.7954C1.21734 55.8095 1.23069 55.7813 1.22066 55.7284C1.17385 55.7213 1.15047 55.7425 1.1605 55.7954Z" fill="white"/>
<path d="M13.3379 1.79492L13.368 1.87629C13.368 1.83737 13.358 1.80554 13.3379 1.79492Z" fill="#ACDE45"/>
<path d="M19.8984 1.7976C19.8984 1.7976 19.9024 1.78544 19.9065 1.77734C19.9024 1.78544 19.8984 1.78951 19.8984 1.7976Z" fill="#ACDE45"/>
<path d="M14.3983 4.5166C14.3983 4.5166 14.3945 4.53202 14.3906 4.53972L14.3983 4.5166Z" fill="#ACDE45"/>
<path d="M13.1037 4.3342C13.4459 4.42355 13.5469 4.79818 13.8891 4.63323C14.0553 4.66072 14.2313 4.5679 14.3942 4.51635C14.4659 4.21736 14.6093 4.50948 14.694 4.2586L14.7331 4.42699C14.7625 4.34108 14.7983 4.28269 14.8342 4.37204V4.42011C14.8765 4.29296 14.9319 4.36862 14.9547 4.30332V4.3514L15.0102 4.32732L15.0004 4.39603C15.0818 4.25857 15.1666 4.24826 15.2415 4.31012L15.2317 4.10741C15.3947 4.33423 15.4501 3.90807 15.5967 4.17957V4.22764C15.7727 3.68809 15.8867 4.59195 16.0725 4.07989C16.0497 4.14519 16.0823 4.18297 16.0823 4.23452C16.167 4.1761 16.2615 4.1452 16.2615 3.74655C16.3235 3.75342 16.3137 3.87029 16.3202 4.02494C16.3202 3.84967 16.3756 3.7775 16.4245 3.76719L16.4016 3.8359L16.545 3.77751L16.519 3.44752C16.5939 3.54375 16.5385 3.84967 16.6102 3.77063V3.49568C16.7145 3.55067 16.7732 3.96649 16.8742 4.16925C17.2881 4.28953 17.7475 3.59533 18.1256 4.08677L18.1386 4.293C18.1386 4.59543 18.2559 3.84968 18.2625 4.12805L18.3113 3.99054C18.3243 4.04552 18.3472 4.10395 18.3244 4.16925C18.3667 4.18299 18.3667 4.13149 18.3993 4.04214L18.4384 4.23108C18.5981 4.37886 18.748 4.02493 18.9175 4.10397C19.113 4.49231 19.5138 4.15547 19.7485 3.96302C20.0874 3.53 20.397 4.74316 20.7424 4.25172C20.7489 4.2964 20.7815 4.20017 20.7848 4.16581L21.0781 4.22764C21.0781 4.22764 21.4333 4.28267 21.6744 4.01462C21.9123 3.75 22.0557 3.16234 21.5767 1.87704L21.5897 1.81177C21.4333 1.63994 21.329 1.59863 21.1921 1.91824C21.1987 1.51272 21.0585 1.86668 21.0259 1.73609L21.0325 1.70177C20.9119 2.0042 20.8369 1.43028 20.7228 1.70177C20.7294 1.67084 20.7359 1.56089 20.7587 1.55402C20.6837 1.5987 20.5827 1.6846 20.5893 1.4509C20.4133 1.50245 20.1786 1.38213 20.0515 1.74985L20.0613 1.68457C19.9864 1.93545 19.9798 1.71893 19.9049 1.84264C19.9049 1.81171 19.8984 1.79456 19.8984 1.78425C19.8202 2.03169 19.6996 1.81514 19.6377 1.91824V1.76361L19.504 1.79457L19.5529 1.82888C19.5203 2.25846 19.4617 1.55395 19.3509 1.82888C19.2596 1.77046 19.1358 2.71552 19.0478 2.50245C18.9957 2.70177 19.0967 2.17597 19.025 2.33062C19.0283 2.10724 19.0608 2.18974 19.0478 2.01104C18.9794 2.11413 18.9468 1.77735 18.8588 1.92856V1.75329C18.7447 2.06946 18.6633 1.51614 18.5851 1.81856C18.471 1.95947 18.5231 1.29971 18.3993 1.6365L18.3602 1.39931C18.3113 1.3615 18.3179 1.68798 18.2657 1.57114C18.2722 1.42336 18.1973 1.45085 18.2331 1.30995C18.1125 1.07282 17.9757 1.63301 17.816 1.23779C17.7769 1.52647 17.6954 1.35463 17.6661 1.57114C17.6661 1.44398 17.4999 1.54713 17.5976 1.27563C17.6074 1.25501 17.6205 1.2584 17.6172 1.30651L17.6302 1.13468C17.5422 0.808199 17.4575 1.30998 17.3663 1.25843C17.3923 1.31686 17.4282 1.29966 17.4054 1.41995L17.3207 1.39587L17.3402 1.25155L17.2131 1.16564L17.2294 1.34435C17.1675 1.25156 17.1479 0.949164 17.0762 1.20004C17.0437 1.34094 17.1349 1.44055 17.0665 1.49554C16.985 1.37182 16.8579 1.18966 16.7536 1.13468C16.7634 1.33744 16.7341 1.32719 16.7047 1.36843V1.19316C16.5874 1.43716 16.6624 0.808235 16.5483 1.00069L16.5581 0.880371L16.5287 1.24467C16.4277 1.59177 16.4733 0.883851 16.3625 1.35467C16.4082 1.32374 16.3821 1.73954 16.33 1.66393L16.343 1.49554C16.3137 1.52991 16.3039 1.60206 16.2811 1.5677C16.3006 1.47834 16.2908 1.32374 16.2452 1.35123L16.2745 1.14156L16.1898 1.4509C16.1247 1.26876 16.0204 1.499 15.9943 1.25843C15.9943 1.25843 15.8542 1.14156 15.8216 1.40275C15.8477 1.24122 15.7727 1.17938 15.7922 0.990367C15.7564 1.17251 15.6521 1.32369 15.6065 1.1278L15.613 1.10724C15.4533 0.907918 15.3425 1.38212 15.1992 1.14156C15.2089 1.34432 15.1307 1.23435 15.1535 1.4921C15.0101 1.74985 14.8765 0.969754 14.8374 1.77049C14.7723 1.81516 14.756 1.58494 14.7201 1.5437L14.7364 1.50242C14.6126 1.57115 14.5767 1.578 14.4822 1.56082C14.4366 1.63986 14.4366 2.01104 14.3519 1.92512C14.3747 1.77734 14.3421 1.80489 14.3128 1.80489C14.3323 1.78083 14.3356 1.72584 14.2932 1.62962C14.2899 1.67429 14.2802 1.70523 14.2737 1.72585C14.2737 1.71554 14.2737 1.7052 14.2737 1.68801C14.2215 1.743 14.2345 1.78771 14.2573 1.80833C14.2573 1.83238 14.2574 1.8598 14.2671 1.90104C14.2085 1.71202 14.1172 1.91824 14.1042 1.66393C13.951 1.72579 13.8435 1.99385 13.7164 2.09351C13.6968 1.96292 13.7262 1.84612 13.762 1.79457L13.6707 1.84608C13.6675 1.65707 13.7196 1.73614 13.749 1.69833C13.6316 1.39591 13.5306 2.00758 13.3938 1.73265L13.371 1.88048L13.3612 1.8564C13.3612 1.93545 13.3384 2.04202 13.3188 2.06951C13.296 1.90799 13.309 1.69147 13.2471 1.70521C13.1917 1.55056 13.107 1.78769 13.0451 1.88048C13.0809 1.90798 13.0744 1.99733 13.0581 2.05575C13.0255 2.06263 13.0027 1.90111 12.9799 1.96984L12.9701 1.74985C12.9897 1.95605 12.8952 1.97673 12.8854 2.06951C12.8626 1.90799 12.931 1.92517 12.9342 1.80145C12.8072 1.8255 12.8723 1.81515 12.7452 1.8392C12.6833 2.0076 12.7648 2.04889 12.7387 2.24135C12.6801 2.28602 12.6279 2.44409 12.553 2.3135L12.5823 2.50933C12.4748 2.66398 12.4096 2.64682 12.3248 2.45093C11.9403 3.26885 11.9208 3.81526 11.9957 4.15893C12.0707 4.50259 12.2369 4.64011 12.2369 4.64011C12.5758 5.05937 12.7192 4.48195 13.1004 4.31356L13.1037 4.3342Z" fill="#ACDE45"/>
<path d="M30.1348 3.32373L30.1419 3.41228C30.1527 3.37332 30.1527 3.34144 30.1348 3.32373Z" fill="#ACDE45"/>
<path d="M36.3848 6.04731C36.3848 6.04731 36.3961 6.0392 36.4036 6.03516C36.3961 6.03516 36.3923 6.04326 36.3848 6.04731Z" fill="#ACDE45"/>
<path d="M30.3686 6.25195C30.3686 6.25195 30.3611 6.26412 30.3535 6.27221L30.3686 6.25195Z" fill="#ACDE45"/>
<path d="M29.2286 5.6878C29.5252 5.8665 29.5089 6.26516 29.8707 6.20673C30.0173 6.2789 30.1998 6.25146 30.3627 6.25489C30.5159 5.99371 30.5615 6.3099 30.7147 6.1037L30.6984 6.27553C30.7505 6.20336 30.8027 6.16211 30.8059 6.25833L30.7896 6.30297C30.8711 6.19643 30.8972 6.2858 30.9363 6.23081L30.92 6.27553H30.9787L30.9493 6.33737C31.0634 6.23427 31.1448 6.25489 31.1937 6.33737L31.2491 6.14146C31.3241 6.40951 31.5098 6.0315 31.5554 6.33393L31.5392 6.37856C31.8781 5.93524 31.6793 6.81848 32.0149 6.40952C31.9726 6.46107 31.9889 6.5126 31.9693 6.55728C32.0671 6.53322 32.1583 6.54013 32.2985 6.16554C32.3539 6.19303 32.3017 6.29959 32.2561 6.44736C32.3148 6.28241 32.3897 6.2377 32.4386 6.24457L32.393 6.29953H32.5429L32.6341 5.97995C32.67 6.09679 32.507 6.3614 32.6015 6.31673L32.6993 6.06242C32.7742 6.15521 32.6797 6.56077 32.6928 6.78759C33.0089 7.05221 33.6802 6.60889 33.8106 7.2206L33.7389 7.41299C33.6183 7.68449 34.0191 7.06245 33.9116 7.31676L34.0093 7.21372C33.9963 7.26871 33.9963 7.33057 33.9474 7.38212C33.9768 7.40961 33.9996 7.36837 34.0648 7.29964L34.0191 7.48515C34.0908 7.69135 34.3678 7.43705 34.4786 7.58482C34.4689 8.02128 34.9479 7.901 35.2314 7.85289C35.4693 7.74979 35.5182 7.99384 35.554 8.24127C35.5899 8.48871 35.6257 8.71546 35.8897 8.60205C35.8734 8.64329 35.9483 8.58147 35.9679 8.55398L36.1602 8.76365C36.1602 8.76365 36.2221 8.82201 36.3231 8.87012C36.4241 8.92167 36.5643 8.96296 36.7305 8.92516C36.8967 8.88736 37.0922 8.77396 37.291 8.5059C37.4865 8.23784 37.6918 7.81514 37.8352 7.13125L37.8808 7.08653C37.8417 6.83909 37.7668 6.73944 37.4767 6.92158C37.6951 6.58823 37.3855 6.79442 37.4278 6.66383L37.4507 6.63975C37.19 6.82189 37.4181 6.28585 37.1736 6.4508C37.1932 6.42675 37.2584 6.33738 37.2812 6.34769C37.19 6.34425 37.0563 6.35454 37.1769 6.15866C36.9944 6.0968 36.8348 5.85283 36.5415 6.1037L36.5806 6.0521C36.3948 6.22737 36.4893 6.03497 36.3622 6.1037C36.3752 6.07621 36.3785 6.05897 36.385 6.04866C36.1993 6.22049 36.1895 5.9628 36.0885 6.02123L36.1634 5.88715L36.0233 5.84251L36.0526 5.90091C35.8278 6.25832 36.0918 5.61222 35.8669 5.79779C35.8082 5.69813 35.277 6.46794 35.2933 6.23425C35.1597 6.38546 35.4791 5.96964 35.3487 6.0693C35.4497 5.87341 35.4432 5.96275 35.5084 5.79779C35.4009 5.85278 35.5149 5.54005 35.3715 5.6294L35.4465 5.47477C35.2053 5.69815 35.3618 5.16548 35.1597 5.39918C34.9968 5.47134 35.3194 4.90087 35.0619 5.14487L35.1206 4.91112C35.0913 4.85269 34.9642 5.1517 34.9609 5.02111C35.0294 4.89052 34.9446 4.88022 35.0359 4.77025C35.0131 4.49875 34.6611 4.94207 34.6676 4.50906C34.5177 4.75306 34.508 4.56059 34.3939 4.74617C34.4395 4.62932 34.244 4.65342 34.4428 4.44722C34.459 4.43004 34.4721 4.4403 34.4493 4.48498L34.5275 4.33379C34.5666 3.997 34.2929 4.41626 34.2244 4.33035C34.2277 4.39564 34.27 4.39907 34.2016 4.4953L34.1299 4.43346L34.2016 4.30971L34.1104 4.17228L34.0582 4.34411C34.0322 4.2307 34.1267 3.94199 33.9637 4.14476C33.879 4.2616 33.9311 4.3922 33.8464 4.41282C33.8106 4.26505 33.7584 4.04172 33.6737 3.94893C33.6118 4.13794 33.5857 4.1207 33.5434 4.14476L33.602 3.98324C33.4065 4.15851 33.6998 3.60867 33.5205 3.73926L33.5727 3.62926L33.413 3.95581C33.1914 4.23761 33.4847 3.59835 33.2109 3.99012C33.2631 3.97981 33.0969 4.35786 33.0708 4.26507L33.1425 4.11388C33.1001 4.1345 33.0675 4.19632 33.0578 4.15508C33.1066 4.07603 33.1523 3.93174 33.0969 3.93861L33.1979 3.75302L33.0089 4.00732C33.0089 3.81144 32.8297 3.98327 32.8851 3.74958C32.8851 3.74958 32.7873 3.5846 32.67 3.81829C32.7514 3.67739 32.696 3.59151 32.7775 3.41967C32.683 3.57776 32.5298 3.68083 32.5494 3.48151L32.5657 3.46431C32.4712 3.21687 32.2137 3.62244 32.1486 3.34064C32.0932 3.53653 32.0541 3.40591 31.9922 3.65678C31.7738 3.84923 31.8846 3.06566 31.5978 3.80797C31.5196 3.82516 31.575 3.60178 31.5522 3.55023L31.5815 3.51591C31.4381 3.53653 31.4023 3.52963 31.3143 3.48495C31.2459 3.54337 31.1351 3.89739 31.0797 3.78742C31.1481 3.65339 31.1057 3.67053 31.0764 3.66022C31.1025 3.64304 31.122 3.59492 31.109 3.48495C31.0894 3.52619 31.0732 3.55025 31.0601 3.57087C31.0601 3.56056 31.0634 3.55021 31.0699 3.53647C31.0047 3.57083 31.0015 3.61897 31.0178 3.64302C31.0112 3.66364 31.0047 3.69114 31.0015 3.73582C31.0015 3.53649 30.8515 3.70143 30.9135 3.45743C30.744 3.4643 30.5648 3.68427 30.4149 3.7427C30.4344 3.61211 30.4931 3.50899 30.5419 3.47119L30.4377 3.49183C30.4866 3.30969 30.5159 3.40245 30.555 3.37495C30.5224 3.05191 30.2552 3.60178 30.1998 3.29592L30.1379 3.43343V3.40591C30.1183 3.48152 30.0629 3.57776 30.0369 3.59495C30.0597 3.42999 30.1314 3.23063 30.0662 3.22032C30.0531 3.05537 29.9065 3.25815 29.8185 3.32688C29.8478 3.36468 29.8152 3.44716 29.7859 3.49871C29.7533 3.49871 29.7729 3.33374 29.7338 3.39559L29.7827 3.17913C29.7468 3.38532 29.649 3.37495 29.6165 3.46087C29.636 3.29591 29.6979 3.33717 29.7338 3.22032C29.6034 3.20658 29.6686 3.21343 29.5382 3.19968C29.434 3.34402 29.5024 3.40592 29.4275 3.58463C29.359 3.61212 29.2677 3.74616 29.2286 3.59839L29.2058 3.79421C29.0625 3.9145 29.0038 3.87674 28.9712 3.6671C28.3911 4.34412 28.2445 4.86993 28.2315 5.22046C28.2184 5.571 28.339 5.75316 28.339 5.75316C28.5475 6.24803 28.8278 5.72903 29.2254 5.68092L29.2286 5.6878Z" fill="#ACDE45"/>
<path d="M42.0632 15.5244L41.9863 15.5638C42.0231 15.5602 42.0532 15.5495 42.0632 15.5244Z" fill="#ACDE45"/>
<path d="M41.2598 22.6997C41.2598 22.6997 41.2704 22.7073 41.2739 22.7148C41.2704 22.7073 41.2633 22.7035 41.2598 22.6997Z" fill="#ACDE45"/>
<path d="M39.5138 16.7001C39.5138 16.7001 39.4994 16.6962 39.4922 16.6924L39.5138 16.7001Z" fill="#ACDE45"/>
<path d="M39.6464 15.4726C39.5877 15.8025 39.2358 15.9125 39.3987 16.2252C39.3791 16.3798 39.4639 16.5448 39.5127 16.696C39.793 16.7647 39.5193 16.8988 39.7539 16.9847L39.5942 17.0191C39.6757 17.05 39.7278 17.0877 39.6398 17.1152H39.5942C39.7148 17.1599 39.6398 17.2115 39.7017 17.2321H39.6561L39.6757 17.2836L39.6105 17.2734C39.7376 17.3559 39.7409 17.4383 39.679 17.5105H39.8712C39.6496 17.6583 40.0472 17.7373 39.78 17.8645L39.7344 17.8576C40.233 18.0775 39.3694 18.1084 39.8354 18.3352C39.7767 18.3078 39.7344 18.3352 39.6887 18.3284C39.7376 18.4177 39.7572 18.514 40.1319 18.5587C40.1189 18.6205 40.0081 18.5964 39.8614 18.5861C40.0276 18.6067 40.0896 18.6686 40.0928 18.7202L40.0309 18.6892L40.07 18.837L40.3829 18.8507C40.2851 18.916 40.0016 18.8199 40.0667 18.9023L40.3242 18.9367C40.259 19.0363 39.8614 19.0432 39.6594 19.1119C39.4932 19.4934 40.07 20.0742 39.5453 20.356L39.3498 20.3285C39.0695 20.2701 39.7409 20.5278 39.4802 20.4797L39.5975 20.5519C39.5453 20.5519 39.4867 20.5657 39.428 20.5279C39.4085 20.5657 39.4541 20.576 39.5323 20.6275H39.3498C39.1803 20.7478 39.4801 20.9677 39.3726 21.1155C38.975 21.2117 39.1934 21.6653 39.3074 21.9471C39.4639 22.1671 39.239 22.2736 39.0272 22.3664C38.8121 22.4626 38.6068 22.552 38.773 22.7925C38.7306 22.7857 38.8056 22.8476 38.8349 22.8613L38.6883 23.1088C38.6883 23.1088 38.5286 23.4111 38.6752 23.7342C38.8252 24.0435 39.2684 24.449 40.5914 24.4353L40.6436 24.4697C40.8554 24.37 40.9369 24.2703 40.699 24.0194C41.0574 24.1638 40.7935 23.8957 40.9238 23.906L40.9499 23.9232C40.7185 23.6964 41.2627 23.8029 41.0574 23.5933C41.0835 23.6105 41.1813 23.6517 41.178 23.6792C41.1617 23.583 41.1193 23.449 41.3312 23.528C41.3442 23.3253 41.53 23.1018 41.2302 22.8647L41.2855 22.8957C41.0802 22.7479 41.279 22.7995 41.1878 22.6826C41.2171 22.6895 41.2334 22.6894 41.2432 22.6929C41.0412 22.5417 41.2725 22.473 41.1943 22.3802L41.3377 22.4249L41.3475 22.2702L41.3018 22.3149C40.9173 22.1706 41.5789 22.2839 41.354 22.0983C41.4322 22.0124 40.5947 21.6585 40.8098 21.6172C40.637 21.5176 41.0965 21.7444 40.976 21.6344C41.1813 21.6894 41.0965 21.7032 41.2627 21.7341C41.1845 21.6379 41.5039 21.6791 41.3866 21.552L41.5463 21.5932C41.2823 21.4007 41.8102 21.4317 41.5463 21.2805C41.4387 21.1293 42.0416 21.3183 41.7548 21.1155H41.9829C42.0285 21.0743 41.7222 21.0158 41.8428 20.9814C41.9797 21.0158 41.9699 20.9299 42.0905 20.9952C42.3349 20.9058 41.8395 20.6515 42.2371 20.5484C41.9732 20.4556 42.1491 20.3972 41.9536 20.3285C42.0709 20.3457 42.0025 20.1532 42.2404 20.301C42.2599 20.3147 42.2534 20.3285 42.2078 20.3182L42.3642 20.3629C42.6836 20.3182 42.2306 20.1429 42.2925 20.0536C42.2339 20.0742 42.2437 20.1154 42.1361 20.0708L42.172 19.9814L42.3055 20.0261L42.4066 19.8989L42.2371 19.8886C42.3349 19.8336 42.6217 19.8577 42.3968 19.7409C42.2697 19.6859 42.1622 19.7683 42.1198 19.6893C42.2502 19.6171 42.4392 19.5037 42.5044 19.3903C42.3121 19.3731 42.3251 19.3422 42.2893 19.3044L42.4555 19.325C42.2437 19.167 42.8237 19.3284 42.6575 19.1772L42.7716 19.2047L42.4326 19.1257C42.1198 18.971 42.7813 19.105 42.3479 18.9263C42.3707 18.9779 41.9829 18.9057 42.0611 18.8542L42.2176 18.8886C42.1883 18.8508 42.1231 18.8336 42.1589 18.813C42.2436 18.8439 42.3903 18.8508 42.3675 18.7958L42.563 18.8507L42.2795 18.7236C42.4555 18.6686 42.2534 18.5312 42.4783 18.5243C42.4783 18.5243 42.6021 18.3765 42.3577 18.318C42.5076 18.3627 42.5728 18.2802 42.752 18.318C42.5825 18.2596 42.4489 18.1291 42.6347 18.0947L42.6543 18.105C42.8563 17.9366 42.4164 17.7819 42.651 17.6307C42.4587 17.6307 42.5663 17.5483 42.3219 17.5586C42.0872 17.3867 42.8302 17.2665 42.0709 17.1909C42.0318 17.1153 42.2502 17.105 42.2893 17.0672L42.3284 17.0844C42.2697 16.9435 42.2599 16.9022 42.2762 16.7956C42.2013 16.7441 41.8493 16.7407 41.9341 16.6479C42.0742 16.6754 42.0481 16.6375 42.0481 16.6032C42.0709 16.6238 42.1231 16.6307 42.2143 16.5826C42.172 16.5757 42.1426 16.5688 42.1198 16.5585C42.1296 16.5585 42.1394 16.5585 42.1556 16.5585C42.1035 16.5001 42.0612 16.5138 42.0416 16.5413C42.0188 16.5413 41.9927 16.5413 41.9536 16.5517C42.1328 16.4864 41.9373 16.3867 42.1752 16.3695C42.1166 16.1942 41.8591 16.0843 41.7581 15.9502C41.8819 15.9262 41.9927 15.9502 42.0416 15.9914L41.9894 15.8919C42.1687 15.8815 42.0937 15.9434 42.1329 15.9743C42.4131 15.83 41.8298 15.744 42.0807 15.5756L41.9373 15.5585L41.9601 15.5482C41.8852 15.5551 41.7809 15.5344 41.7581 15.5138C41.9112 15.4794 42.1133 15.4794 42.1002 15.4072C42.2436 15.3351 42.009 15.2526 41.9178 15.1908C41.895 15.232 41.8102 15.232 41.7516 15.2216C41.7418 15.1873 41.8949 15.1461 41.8265 15.1289L42.0351 15.098C41.8395 15.1358 41.8135 15.0327 41.7255 15.0327C41.8787 14.9915 41.8656 15.067 41.9829 15.0636C41.9438 14.9227 41.9634 14.9949 41.9243 14.854C41.7581 14.8024 41.7287 14.8986 41.543 14.8883C41.4941 14.8299 41.3409 14.7921 41.455 14.6959L41.2758 14.7509C41.1128 14.6546 41.1226 14.5859 41.2953 14.469C40.4708 14.1769 39.956 14.2766 39.6496 14.4072C39.34 14.5378 39.2325 14.7096 39.2325 14.7096C38.8805 15.0739 39.4378 15.1152 39.6235 15.4623L39.6464 15.4726Z" fill="#ACDE45"/>
<path d="M34.4502 31.2648L34.3867 31.2085C34.4068 31.2402 34.4268 31.2648 34.4502 31.2648Z" fill="#ACDE45"/>
<path d="M32.289 29.4172C32.289 29.4172 32.289 29.4017 32.2852 29.394V29.4172H32.289Z" fill="#ACDE45"/>
<path d="M33.4445 28.9474C33.1219 29.0436 32.8644 28.7618 32.6559 29.071C32.506 29.126 32.4017 29.291 32.2876 29.4113C32.3593 29.7068 32.1084 29.5178 32.1443 29.779L32.04 29.6485C32.053 29.7378 32.0465 29.8065 31.9781 29.7412L31.9585 29.6965C31.9748 29.8306 31.8966 29.7893 31.9064 29.8581L31.8868 29.8134L31.8477 29.8615L31.8249 29.7962C31.8151 29.9543 31.7434 30.0024 31.6522 29.9818L31.7467 30.1605C31.5088 30.0334 31.6424 30.4354 31.4012 30.2635L31.3817 30.2189C31.4469 30.7825 30.9776 30.0196 31.0265 30.5626C31.02 30.4938 30.9743 30.4732 30.9548 30.4285C30.9026 30.5213 30.8342 30.59 30.9971 30.9509C30.9385 30.9749 30.8994 30.8616 30.8309 30.7241C30.9026 30.8822 30.8831 30.9715 30.844 31.0025L30.8375 30.9303L30.7364 31.0471L30.8929 31.3358C30.7886 31.2843 30.7136 30.9784 30.6811 31.085L30.7918 31.3324C30.6778 31.3324 30.4562 30.9819 30.2867 30.8375C29.8728 30.9097 29.7295 31.7379 29.195 31.4527L29.1038 31.2705C28.9865 30.9956 29.1722 31.7241 29.0549 31.4732L29.0646 31.6176C29.0321 31.573 28.9864 31.5317 28.9832 31.4595C28.9408 31.4664 28.9571 31.5111 28.9636 31.6073L28.8529 31.4527C28.6508 31.384 28.654 31.7757 28.465 31.7757C28.1359 31.5077 27.9012 31.9853 27.7611 32.2637C27.621 32.8067 26.8617 31.8341 26.7346 32.439C26.7086 32.4046 26.7183 32.5043 26.7281 32.5352L26.4348 32.6108C26.4348 32.6108 25.0335 33.0541 26.9171 34.9615L26.9334 35.0233C27.142 35.1092 27.2528 35.1023 27.2462 34.7518C27.4027 35.123 27.3864 34.7381 27.4679 34.8446L27.4744 34.8756C27.4613 34.5456 27.7579 35.037 27.7546 34.7415C27.7612 34.7724 27.797 34.8755 27.7807 34.8927C27.8296 34.8171 27.8882 34.6968 27.9762 34.9133C28.1131 34.7896 28.3738 34.7999 28.3445 34.4081L28.3608 34.47C28.3314 34.2088 28.4227 34.4047 28.4422 34.257C28.4553 34.2844 28.465 34.2982 28.4716 34.3085C28.4455 34.0507 28.641 34.1951 28.6541 34.0748L28.7127 34.2191L28.8268 34.1332L28.7681 34.1229C28.6313 33.7174 28.9571 34.3325 28.9506 34.037C29.0549 34.0507 28.804 33.1366 28.9669 33.2912C28.9376 33.0885 29.0484 33.6108 29.0549 33.439C29.1364 33.6452 29.0777 33.5799 29.1559 33.7415C29.1787 33.6177 29.3384 33.9098 29.3612 33.738L29.4264 33.8995C29.4101 33.5627 29.6969 34.0301 29.6545 33.7208C29.7034 33.5421 29.912 34.1676 29.8957 33.8067L30.0228 34.0061C30.0814 34.0198 29.9478 33.7243 30.0423 33.8067C30.0944 33.9442 30.1498 33.8858 30.1727 34.0302C30.3747 34.1917 30.2835 33.6212 30.5833 33.9133C30.5083 33.6315 30.6485 33.7552 30.5898 33.5455C30.6419 33.659 30.7495 33.494 30.769 33.7827C30.769 33.8067 30.756 33.8102 30.7364 33.7621L30.7918 33.9236C31.0037 34.1814 30.8831 33.6899 30.9874 33.6933C30.9385 33.6521 30.9124 33.683 30.8896 33.5662L30.9776 33.549L31.0167 33.6899L31.1666 33.7105L31.0819 33.5559C31.1764 33.6109 31.3133 33.8789 31.2807 33.6177C31.2546 33.4734 31.1308 33.4253 31.1699 33.3428C31.2937 33.415 31.4827 33.5318 31.6033 33.5283C31.5153 33.3496 31.5446 33.3428 31.5544 33.2947L31.6261 33.4527C31.6326 33.1813 31.8184 33.7827 31.8444 33.5559L31.8835 33.6693L31.763 33.3256C31.7173 32.9648 31.9618 33.6281 31.8738 33.1504C31.8445 33.1985 31.6978 32.8135 31.7793 32.8548L31.8346 33.0129C31.8477 32.9682 31.8282 32.8994 31.8607 32.9201C31.8803 33.0094 31.952 33.1469 31.9813 33.0988L32.04 33.3016L31.9911 32.982C32.1247 33.1126 32.128 32.8617 32.2485 33.061C32.2485 33.061 32.4278 33.0988 32.3463 32.8513C32.3887 33.0094 32.4864 33.0266 32.5451 33.2088C32.5027 33.0266 32.5386 32.8411 32.6591 32.9957V33.0197C32.8938 33.1194 32.7928 32.6417 33.0307 32.7861C32.9361 32.6108 33.0535 32.6692 32.9231 32.4493C32.9427 32.1503 33.4022 32.7827 33.0926 32.0472C33.1317 31.9751 33.249 32.1709 33.2979 32.1915V32.2362C33.3859 32.1125 33.4152 32.0884 33.5097 32.0575C33.5162 31.9647 33.3533 31.6348 33.4673 31.6726C33.5097 31.8169 33.5293 31.7757 33.5586 31.7585C33.5521 31.7894 33.5716 31.841 33.6531 31.9063C33.6368 31.8616 33.6335 31.8341 33.627 31.81C33.6335 31.8203 33.6368 31.8272 33.6466 31.841C33.6694 31.7688 33.6401 31.731 33.6075 31.7276C33.5977 31.7069 33.5814 31.6829 33.5586 31.652C33.6955 31.7894 33.6857 31.5592 33.8095 31.7792C33.9203 31.6417 33.8975 31.3564 33.9627 31.2017C34.0376 31.3048 34.067 31.4217 34.0572 31.487L34.1158 31.3942C34.2071 31.5557 34.1223 31.5179 34.1158 31.566C34.3602 31.7654 34.168 31.1777 34.4189 31.3461L34.37 31.2052L34.3896 31.2224C34.3505 31.1571 34.3211 31.0472 34.3277 31.0162C34.4254 31.1468 34.5134 31.3392 34.5655 31.2945C34.6894 31.4011 34.6536 31.1468 34.6633 31.0334C34.6177 31.0334 34.5818 30.9475 34.5655 30.889C34.5916 30.865 34.6894 30.9922 34.6731 30.92L34.7872 31.1056C34.6698 30.9372 34.7448 30.8684 34.709 30.7825C34.81 30.9096 34.7383 30.9303 34.7937 31.0402C34.8947 30.9474 34.8426 30.9921 34.9436 30.8994C34.9175 30.7207 34.8263 30.731 34.7513 30.5488C34.7807 30.4766 34.7513 30.3151 34.8784 30.3873L34.7578 30.2361C34.7741 30.0437 34.8393 30.023 35.0088 30.1399C34.9273 29.2292 34.647 28.7687 34.4124 28.5212C34.1745 28.2738 33.9725 28.2429 33.9725 28.2429C33.4967 28.0641 33.6759 28.6243 33.4445 28.9611V28.9474Z" fill="#ACDE45"/>
<path d="M19.1989 38.3723L19.1387 38.3125C19.1554 38.3477 19.1755 38.3723 19.1989 38.3723Z" fill="#ACDE45"/>
<path d="M14.2324 42.1992C14.2324 42.1992 14.2364 42.2114 14.2445 42.2195C14.2445 42.2114 14.2405 42.2033 14.2324 42.1992Z" fill="#ACDE45"/>
<path d="M17.0566 36.4797C17.0566 36.4797 17.0566 36.4642 17.0527 36.4565V36.4797H17.0566Z" fill="#ACDE45"/>
<path d="M18.3671 35.9789C18.0053 36.0614 17.7512 35.7795 17.4872 36.1026C17.3145 36.1679 17.1874 36.3466 17.057 36.4772C17.1254 36.7762 16.8582 36.6043 16.8941 36.8724L16.78 36.7487C16.793 36.8415 16.7865 36.9102 16.7116 36.8518L16.6888 36.8071C16.7083 36.9445 16.6203 36.9102 16.6301 36.9789L16.6073 36.9343L16.5649 36.9858L16.5389 36.9205C16.5291 37.082 16.4574 37.1404 16.3564 37.1335L16.4639 37.3019C16.2032 37.2057 16.3662 37.5976 16.0957 37.4567L16.0728 37.4154C16.1869 37.9755 15.6231 37.2916 15.7209 37.8346C15.7079 37.7659 15.6557 37.7556 15.6329 37.711C15.5873 37.8141 15.5189 37.8965 15.7339 38.2265C15.6753 38.2608 15.6199 38.1543 15.5319 38.034C15.6264 38.1783 15.6199 38.2746 15.5808 38.3158L15.5645 38.247L15.4732 38.388L15.6785 38.6388C15.5612 38.6079 15.4406 38.3226 15.4243 38.4326L15.5743 38.656C15.4569 38.6767 15.1734 38.3811 14.9714 38.2848C14.5347 38.4773 14.5705 39.3365 13.9611 39.2471L13.821 39.1027C13.6287 38.8793 14.0068 39.522 13.821 39.3227L13.8699 39.4601C13.8275 39.4292 13.7689 39.4052 13.7461 39.3365C13.7037 39.3605 13.733 39.3983 13.7656 39.4877L13.6124 39.3811C13.3843 39.3983 13.4951 39.7695 13.3159 39.8554C12.902 39.7386 12.814 40.3125 12.788 40.639C12.8205 40.9208 12.5664 40.9345 12.3154 40.962C12.0645 40.9895 11.807 41.0272 11.8787 41.34C11.8396 41.3228 11.8918 41.4087 11.9146 41.4293L11.6734 41.6665C11.6734 41.6665 11.6018 41.7386 11.5464 41.8658C11.4877 41.9929 11.4388 42.1648 11.4714 42.3504C11.5333 42.7319 11.9602 43.1202 13.2181 43.4363L13.2637 43.4811C13.4756 43.4501 13.557 43.3951 13.3843 43.103C13.6906 43.347 13.4951 43.0274 13.6157 43.0824L13.6385 43.1064C13.4723 42.8281 13.9481 43.1202 13.8047 42.8659C13.8243 42.89 13.9025 42.9655 13.896 42.9861C13.9025 42.9002 13.896 42.7731 14.0687 42.9243C14.1306 42.7628 14.3457 42.67 14.1566 42.3332L14.1958 42.3847C14.0622 42.1682 14.2218 42.3023 14.1795 42.1648C14.2023 42.182 14.2153 42.1923 14.2251 42.1991C14.098 41.9757 14.3294 42.0342 14.2903 41.9208L14.3978 42.0273L14.4597 41.9071L14.4043 41.9174C14.1306 41.5978 14.6487 42.0376 14.5314 41.773C14.6292 41.7524 14.0752 40.9998 14.2805 41.0857C14.1827 40.907 14.463 41.3537 14.4108 41.1922C14.5575 41.3537 14.4793 41.3159 14.6064 41.4362C14.5836 41.3125 14.828 41.529 14.7889 41.3641L14.9029 41.4912C14.7726 41.182 15.1897 41.529 15.0463 41.2575C15.0333 41.0754 15.4211 41.5977 15.2907 41.2678L15.4667 41.4191C15.5254 41.4191 15.3135 41.1785 15.4211 41.2301C15.5091 41.3469 15.5417 41.2747 15.6068 41.4053C15.835 41.5084 15.584 40.9963 15.936 41.2025C15.7893 40.9551 15.949 41.041 15.8382 40.852C15.9164 40.9482 15.9686 40.7661 16.0631 41.0376C16.0696 41.0616 16.0598 41.0651 16.0305 41.0273L16.125 41.1681C16.3792 41.3675 16.1413 40.931 16.239 40.9138C16.1869 40.8863 16.1673 40.9173 16.1185 40.8108L16.1934 40.7798L16.2651 40.9036L16.4052 40.8967L16.2912 40.7661C16.389 40.8039 16.578 41.0342 16.4834 40.7902C16.428 40.6596 16.3042 40.6321 16.3205 40.5496C16.4509 40.5977 16.6464 40.6733 16.7572 40.6595C16.6366 40.5014 16.6627 40.4912 16.6627 40.4431L16.7605 40.5839C16.7116 40.3227 17.0016 40.8726 16.9788 40.6526L17.0375 40.7592L16.8582 40.4431C16.7442 40.1028 17.0961 40.7111 16.9234 40.2575C16.9071 40.3056 16.6985 39.9516 16.7833 39.9825L16.8647 40.1304C16.868 40.0822 16.8387 40.0204 16.8745 40.0376C16.9104 40.1235 16.9983 40.2437 17.0179 40.1956L17.1092 40.3847L17.0081 40.0822C17.1548 40.1956 17.1124 39.9516 17.2591 40.1337C17.2591 40.1337 17.4253 40.1544 17.3145 39.9207C17.3764 40.0719 17.4676 40.0822 17.5491 40.2506C17.4807 40.0788 17.4872 39.8932 17.6208 40.0376L17.6273 40.0616C17.8522 40.1475 17.699 39.6904 17.9337 39.821C17.8261 39.6526 17.9402 39.7076 17.7968 39.4945C17.787 39.1956 18.2693 39.8073 17.9206 39.0959C17.9532 39.0238 18.077 39.2162 18.1259 39.2334L18.1324 39.278C18.2009 39.1577 18.2269 39.1337 18.3116 39.1027C18.3116 39.0099 18.1422 38.6869 18.253 38.7213C18.3019 38.8622 18.3149 38.821 18.341 38.8072C18.3345 38.8382 18.3573 38.8862 18.4355 38.955C18.4192 38.9137 18.4127 38.8828 18.4094 38.8587C18.4159 38.869 18.4192 38.876 18.429 38.8897C18.4486 38.8175 18.4192 38.7831 18.3899 38.7763C18.3801 38.7556 18.3638 38.7316 18.341 38.7007C18.4746 38.8416 18.4616 38.6148 18.5854 38.8347C18.6864 38.7076 18.6571 38.4189 18.7255 38.2711C18.7972 38.3776 18.8233 38.4945 18.8135 38.5564L18.8689 38.4704C18.9537 38.6354 18.8722 38.5907 18.8689 38.6388C19.097 38.8553 18.9243 38.2642 19.1557 38.4498L19.1133 38.3055L19.1296 38.3227C19.0938 38.254 19.071 38.1439 19.0775 38.113C19.1655 38.2505 19.2437 38.4464 19.2926 38.4086C19.4034 38.5254 19.3773 38.2711 19.3969 38.1611C19.3545 38.1542 19.3252 38.0683 19.3121 38.0099C19.3382 37.9893 19.4229 38.1268 19.4131 38.0546L19.5109 38.2504C19.4099 38.0717 19.4848 38.0133 19.4555 37.9274C19.5402 38.0649 19.4751 38.0752 19.5207 38.1886C19.6217 38.113 19.5696 38.1508 19.6706 38.0717C19.6576 37.893 19.5696 37.8897 19.5174 37.7041C19.55 37.6388 19.537 37.4738 19.6543 37.5597L19.5533 37.3947C19.5891 37.2057 19.6576 37.1954 19.8075 37.3398C19.8466 36.4291 19.6706 35.9136 19.4751 35.6318C19.2795 35.3465 19.0645 35.295 19.0645 35.295C18.5756 35.0613 18.6506 35.6593 18.3573 35.9926L18.3671 35.9789Z" fill="#ACDE45"/>
<path d="M10.2834 50.5708H10.2031C10.2399 50.578 10.27 50.5815 10.2834 50.5708Z" fill="#ACDE45"/>
<path d="M9.94531 54.5088C9.94531 54.5088 9.95662 54.5088 9.96418 54.5128C9.95662 54.5128 9.94909 54.5088 9.94531 54.5088Z" fill="#ACDE45"/>
<path d="M7.61137 50.747C7.61137 50.747 7.60062 50.7393 7.58984 50.7393L7.61137 50.747Z" fill="#ACDE45"/>
<path d="M7.96062 49.9072C7.83026 50.1168 7.46199 50.1133 7.56627 50.3814C7.52065 50.4914 7.57931 50.6288 7.60864 50.7457C7.87912 50.8419 7.59235 50.8935 7.81721 50.9931H7.65753C7.73574 51.0275 7.78462 51.0584 7.69663 51.0687L7.65101 51.0618C7.76506 51.1134 7.69013 51.1375 7.74879 51.1615L7.70316 51.1546L7.71943 51.1959L7.65427 51.1787C7.77484 51.2543 7.77486 51.3127 7.70968 51.354L7.90194 51.3746C7.67382 51.4537 8.06486 51.5464 7.8009 51.6083L7.75531 51.6014C8.24739 51.787 7.38704 51.756 7.85631 51.9382C7.79765 51.9141 7.75531 51.9347 7.70968 51.9279C7.75856 51.9932 7.78138 52.0585 8.1594 52.0997C8.14962 52.1409 8.0388 52.1203 7.89216 52.11C8.05836 52.1272 8.12353 52.1719 8.13004 52.2063L8.06814 52.1856L8.11377 52.2853L8.42661 52.2991C8.3321 52.3403 8.04534 52.2716 8.11703 52.3266L8.37445 52.3506C8.3158 52.4124 7.92148 52.4159 7.72595 52.464C7.58908 52.7389 8.2311 53.086 7.75857 53.3163H7.56301C7.27949 53.3025 7.98017 53.4125 7.71621 53.4091L7.84327 53.4469C7.79112 53.4538 7.73576 53.4675 7.67384 53.4469C7.6608 53.4744 7.70643 53.4778 7.79441 53.5019L7.61516 53.5225C7.47177 53.6256 7.81069 53.739 7.73574 53.8524C7.36749 53.9761 7.69336 54.2579 7.88237 54.4091C8.30602 54.6256 7.16218 54.8559 7.65101 55.0827C7.6119 55.0895 7.69989 55.1068 7.73248 55.1068L7.69011 55.3061C7.69011 55.3061 7.66404 55.5466 7.93452 55.6944C8.205 55.8422 8.76879 55.8765 9.94523 55.5191H10.0071C10.157 55.4195 10.1897 55.3576 9.87681 55.2889C10.2613 55.2786 9.91591 55.2064 10.0397 55.1823H10.0723C9.77904 55.1205 10.3167 55.0586 10.0528 54.9968C10.0821 54.9968 10.1896 55.0002 10.1962 55.014C10.1473 54.9693 10.0625 54.9108 10.2874 54.9108C10.232 54.8077 10.3363 54.6669 9.98107 54.5913L10.043 54.5981C9.80182 54.5535 10.0071 54.55 9.88655 54.5019C9.91588 54.5019 9.93219 54.4985 9.94197 54.5019C9.70733 54.4538 9.90937 54.3816 9.80835 54.3438H9.95502L9.9224 54.2648L9.88982 54.2958C9.48246 54.2717 10.1473 54.2407 9.88329 54.172C9.93543 54.1204 9.04253 54.0242 9.24458 53.9726C9.05556 53.9348 9.55416 54.0105 9.40752 53.9624C9.61934 53.9693 9.54115 53.9864 9.7106 53.983C9.61284 53.9383 9.92894 53.9246 9.78881 53.8696L9.95502 53.8765C9.6552 53.7975 10.1766 53.7664 9.88982 53.708C9.7562 53.6324 10.3819 53.6909 10.0625 53.6015L10.2874 53.5878C10.3265 53.5603 10.0136 53.55 10.1244 53.5225C10.2646 53.5328 10.2385 53.4881 10.3721 53.5156C10.597 53.4572 10.0658 53.3438 10.4471 53.2751C10.1734 53.2338 10.3395 53.196 10.1375 53.1651C10.2581 53.172 10.1636 53.0688 10.4177 53.1444C10.4373 53.1513 10.434 53.1582 10.3884 53.1548L10.5514 53.1754C10.861 53.1445 10.3884 53.062 10.4406 53.0105C10.3852 53.0208 10.3982 53.0448 10.2874 53.0207L10.3135 52.9726L10.4503 52.9933L10.5351 52.9245H10.3656C10.4569 52.8902 10.7436 52.9039 10.509 52.8421C10.3754 52.8111 10.2776 52.8558 10.2287 52.8111C10.3493 52.7733 10.5285 52.7149 10.5839 52.6565C10.3917 52.6427 10.4015 52.6289 10.3656 52.6049L10.5318 52.6186C10.3069 52.5293 10.8968 52.6324 10.7208 52.5465L10.8349 52.5637L10.4927 52.5121C10.1733 52.4193 10.8382 52.5156 10.3982 52.4022C10.4243 52.4331 10.0332 52.3746 10.1082 52.3506L10.2679 52.3746C10.2353 52.354 10.1701 52.3403 10.2027 52.33C10.2874 52.3506 10.434 52.3609 10.408 52.33L10.6068 52.3678L10.32 52.2853C10.496 52.2647 10.2874 52.1822 10.5123 52.1925C10.5123 52.1925 10.6296 52.1237 10.3884 52.0756C10.5383 52.11 10.6035 52.0757 10.7795 52.1066C10.61 52.0653 10.4764 51.9829 10.6622 51.9829L10.6817 51.9897C10.8805 51.921 10.4438 51.7973 10.6817 51.7457C10.4895 51.7217 10.6003 51.6942 10.3558 51.6701C10.1277 51.5498 10.8707 51.5842 10.1212 51.4433C10.0854 51.3987 10.3037 51.4227 10.3461 51.4089L10.3852 51.4227C10.333 51.3402 10.3298 51.3162 10.3558 51.2646C10.2874 51.2268 9.93872 51.1649 10.03 51.1305C10.1668 51.1684 10.144 51.1444 10.1473 51.1272C10.1668 51.1409 10.219 51.1546 10.3135 51.1443C10.2711 51.134 10.245 51.1237 10.2255 51.1169C10.2353 51.1169 10.245 51.1169 10.2613 51.1203C10.2157 51.0825 10.1733 51.079 10.1505 51.0894C10.131 51.0859 10.1016 51.0825 10.0625 51.079C10.245 51.079 10.0625 50.9863 10.3037 51.0241C10.2646 50.9244 10.0267 50.8144 9.94849 50.7182C10.0723 50.7319 10.1766 50.7697 10.2222 50.8006L10.1864 50.7388C10.3624 50.7697 10.2809 50.7869 10.3135 50.811C10.6068 50.7972 10.0527 50.6254 10.3265 50.5979L10.1896 50.5567H10.2124C10.1375 50.5429 10.043 50.5051 10.0202 50.4914C10.1733 50.5086 10.3721 50.5601 10.3689 50.5223C10.522 50.5223 10.3102 50.4226 10.2353 50.3676C10.2059 50.3848 10.1212 50.3608 10.0691 50.3402C10.0691 50.3196 10.2222 50.3402 10.1603 50.3127L10.3656 50.354C10.1701 50.323 10.1668 50.2611 10.0821 50.2371C10.2352 50.2577 10.2092 50.2921 10.3233 50.323C10.32 50.2439 10.3233 50.2817 10.3167 50.2061C10.1701 50.1339 10.1212 50.1717 9.94523 50.1133C9.91264 50.0686 9.77577 50.0034 9.90613 49.9862L9.72035 49.9587C9.59 49.859 9.6226 49.8213 9.81487 49.8178C9.12726 49.3951 8.62865 49.237 8.29951 49.1992C7.97037 49.1614 7.81395 49.2404 7.81395 49.2404C7.36423 49.371 7.8726 49.6082 7.9671 49.8934L7.96062 49.9072Z" fill="#ACDE45"/>
</svg>
