<svg width="84" height="110" viewBox="0 0 84 110" fill="none" xmlns="http://www.w3.org/2000/svg">
<path d="M83.4372 1.49328L83.3633 1.47949C83.3954 1.49326 83.4243 1.50016 83.4372 1.49328Z" fill="#20BB65"/>
<path d="M82.0977 4.71924C82.0977 4.71924 82.1042 4.72579 82.1107 4.72907C82.1075 4.72252 82.1009 4.72251 82.0977 4.71924Z" fill="#20BB65"/>
<path d="M80.8981 1.01152C80.8981 1.01152 80.8889 1.00498 80.8828 1.00171L80.8981 1.01152Z" fill="#20BB65"/>
<path d="M81.296 0.49989C81.1571 0.624496 80.8147 0.534489 80.8922 0.745628C80.8373 0.811392 80.8857 0.92216 80.8987 1.01215C81.141 1.15407 80.8664 1.11255 81.0634 1.24407L80.9148 1.19908C80.9827 1.24407 81.0247 1.28213 80.9407 1.26482L80.8987 1.24754C80.9988 1.31677 80.9245 1.31328 80.9762 1.34789L80.9342 1.32714L80.9439 1.36175L80.8857 1.33061C80.9859 1.41714 80.9794 1.46211 80.9148 1.47249L81.0893 1.54521C80.8664 1.53136 81.2153 1.71827 80.96 1.6802L80.918 1.65941C81.3412 1.95016 80.5562 1.64558 80.9536 1.93287C80.9051 1.89825 80.8631 1.89478 80.8211 1.87401C80.8534 1.93631 80.8631 1.99171 81.1991 2.15093C81.1829 2.17862 81.0828 2.12324 80.9536 2.0644C81.1022 2.13362 81.1507 2.18898 81.1507 2.21667L81.099 2.17861L81.1216 2.2686L81.4059 2.38974C81.3122 2.38628 81.0634 2.23398 81.1183 2.29974L81.3477 2.41053C81.2831 2.43822 80.9213 2.29282 80.7339 2.25474C80.5562 2.38973 81.044 2.89161 80.5659 2.85354L80.3915 2.77047C80.1427 2.63894 80.7371 3.01622 80.5045 2.89854L80.6079 2.97818C80.5627 2.96088 80.5078 2.947 80.4561 2.90547C80.4367 2.91931 80.4787 2.94008 80.5465 2.99546L80.385 2.92972C80.23 2.93664 80.4981 3.1616 80.4012 3.20313C80.0458 3.1166 80.2461 3.44889 80.3592 3.64619C80.6467 4.00616 79.6032 3.57698 79.9392 3.96811C79.9037 3.9508 79.9715 4.00961 80.0006 4.02692L79.8972 4.13078C79.8972 4.13078 79.7906 4.26575 79.9554 4.50804C80.1233 4.74687 80.5562 5.11031 81.6804 5.50143L81.7289 5.5395C81.9001 5.54642 81.955 5.51182 81.7224 5.2903C82.0455 5.48759 81.7903 5.24877 81.9034 5.29723L81.9292 5.31455C81.7095 5.11034 82.1877 5.34568 81.9938 5.16223C82.0197 5.17954 82.1069 5.23492 82.1069 5.24877C82.0843 5.18992 82.039 5.09994 82.2264 5.21416C82.2199 5.1034 82.3686 5.04108 82.094 4.80918L82.1456 4.84378C81.9583 4.69148 82.136 4.78842 82.0487 4.6915C82.0746 4.70535 82.0875 4.70879 82.0972 4.71571C81.9131 4.56342 82.1133 4.60498 82.0423 4.52537L82.1683 4.59804V4.51844L82.1327 4.52537C81.7903 4.31423 82.375 4.60496 82.1747 4.42498C82.2393 4.40421 81.4931 3.92307 81.6869 3.97499C81.5351 3.86077 81.9421 4.14462 81.8323 4.04078C82.0164 4.14462 81.9389 4.12037 82.0875 4.19306C82.0164 4.11345 82.3007 4.24847 82.1941 4.13771L82.3363 4.21731C82.1004 4.02002 82.5721 4.22424 82.3363 4.05117C82.2426 3.93349 82.7788 4.24846 82.5236 4.04078L82.7272 4.12385C82.7692 4.11692 82.4978 3.97848 82.6044 4.00271C82.7272 4.07194 82.7175 4.02003 82.8273 4.09964C83.047 4.14117 82.6108 3.82965 82.9727 3.92311C82.7401 3.78119 82.9016 3.81581 82.7272 3.70851C82.8338 3.76043 82.7788 3.63583 82.9856 3.79851C83.0017 3.81235 82.9953 3.81581 82.9565 3.79851L83.0954 3.87811C83.3862 3.97156 82.9856 3.71542 83.047 3.69465C82.9921 3.68427 82.9985 3.70849 82.9048 3.64619L82.9436 3.61505L83.0599 3.68426L83.1568 3.65658L83.005 3.5908C83.0954 3.59772 83.3539 3.71543 83.1568 3.57351C83.047 3.49737 82.9436 3.50083 82.9113 3.44545C83.0308 3.45583 83.2117 3.46967 83.2796 3.43852C83.1083 3.35891 83.1213 3.34853 83.0922 3.31738L83.2408 3.38659C83.0631 3.23083 83.5703 3.52158 83.4346 3.38659L83.5348 3.44198L83.2343 3.27931C82.9662 3.08894 83.5509 3.397 83.1762 3.15125C83.1923 3.18586 82.8499 3.00586 82.9242 3.00932L83.0631 3.08546C83.0405 3.05431 82.9824 3.02314 83.0147 3.0266C83.089 3.0716 83.2182 3.13047 83.2053 3.09586L83.3765 3.1962L83.1342 3.03007C83.2989 3.06814 83.131 2.92971 83.3345 3.00932C83.3345 3.00932 83.4605 2.98508 83.2473 2.8674C83.3797 2.94355 83.4476 2.92972 83.6026 3.01625C83.4572 2.92626 83.3506 2.81548 83.5251 2.8674L83.5412 2.88126C83.7415 2.8778 83.3636 2.63896 83.5962 2.65973C83.4217 2.58704 83.5316 2.59052 83.3054 2.50052C83.1148 2.33092 83.8061 2.55936 83.1342 2.23746C83.1083 2.189 83.3087 2.2686 83.3506 2.26514L83.3829 2.28935C83.3506 2.20282 83.3506 2.18207 83.3829 2.14054C83.3248 2.08862 83.0082 1.95014 83.0987 1.94322C83.2214 2.00898 83.202 1.98132 83.2085 1.96747C83.2247 1.98478 83.2699 2.00902 83.3636 2.02286C83.3248 2.0021 83.3022 1.98825 83.2828 1.97787C83.2925 1.98133 83.3022 1.98476 83.3151 1.99168C83.2796 1.94669 83.2376 1.93634 83.2182 1.9398C83.1988 1.92941 83.173 1.92246 83.1374 1.91208C83.3119 1.95362 83.1536 1.83248 83.3733 1.91901C83.3507 1.81863 83.1439 1.67326 83.0825 1.57288C83.1988 1.61095 83.2925 1.66633 83.3313 1.70095L83.3054 1.63862C83.4669 1.70439 83.3894 1.70093 83.4185 1.72862C83.6995 1.77708 83.1956 1.51059 83.4605 1.54174L83.3377 1.47942H83.3603C83.2925 1.45865 83.2053 1.40673 83.1859 1.38942C83.3313 1.43442 83.5122 1.5175 83.5154 1.48288C83.6608 1.51057 83.4702 1.38252 83.4056 1.32021C83.3765 1.3306 83.299 1.29251 83.2505 1.26482C83.2505 1.24751 83.3959 1.2925 83.3377 1.25443L83.5316 1.32714C83.3474 1.26484 83.3507 1.2129 83.2731 1.17482C83.4185 1.21982 83.3862 1.24408 83.4928 1.28907C83.496 1.21639 83.4928 1.25444 83.4992 1.18175C83.3668 1.09176 83.3151 1.11944 83.1536 1.03983C83.1245 0.994832 83.0018 0.918699 83.1277 0.925621L82.9533 0.873694C82.837 0.769855 82.8693 0.74219 83.0534 0.76988C82.4202 0.31299 81.9454 0.129519 81.6352 0.0533702C81.3219 -0.0227781 81.1733 0.00490714 81.1733 0.00490714C80.7501 0.0187523 81.2249 0.271448 81.296 0.503354V0.49989Z" fill="#20BB65"/>
<path d="M76.1611 11.9072L76.0977 11.8596C76.1199 11.8868 76.1421 11.9106 76.1611 11.9072Z" fill="#20BB65"/>
<path d="M73.9111 10.3157C73.9111 10.3157 73.9077 10.302 73.9043 10.2952L73.9111 10.3157Z" fill="#20BB65"/>
<path d="M74.9638 9.74484C74.6634 9.86944 74.392 9.62021 74.224 9.94557C74.0851 10.0148 74.0044 10.1879 73.9107 10.316C74.0108 10.5963 73.7524 10.4371 73.817 10.6898L73.7007 10.5721C73.7233 10.6586 73.7233 10.7244 73.6522 10.669L73.6296 10.6275C73.6619 10.759 73.5812 10.7244 73.5973 10.7902L73.5747 10.7486L73.5424 10.7971L73.5133 10.7348C73.5198 10.8905 73.4616 10.9425 73.3712 10.9321L73.481 11.0947C73.2419 10.9944 73.4132 11.3751 73.1676 11.2297L73.145 11.1882C73.271 11.7316 72.7412 11.0359 72.8478 11.5585C72.8349 11.4928 72.7897 11.4755 72.7671 11.4339C72.7283 11.5274 72.6701 11.6001 72.864 11.9358C72.8123 11.9635 72.7638 11.8562 72.6798 11.7316C72.7638 11.877 72.7574 11.967 72.7218 12.0016L72.7057 11.9324L72.6217 12.057L72.8026 12.3201C72.696 12.2785 72.5926 11.9912 72.5765 12.0951L72.7089 12.3269C72.5991 12.3339 72.3568 12.0189 72.1791 11.8943C71.7979 12.0016 71.7527 12.8219 71.2229 12.5935L71.1195 12.4239C70.9806 12.1677 71.2293 12.86 71.0937 12.6246L71.1163 12.7665C71.084 12.725 71.0355 12.6869 71.0226 12.6177C70.9838 12.6281 71.0032 12.6696 71.0226 12.7631L70.9063 12.6212C70.7092 12.5727 70.7512 12.95 70.5768 12.9673C70.244 12.7285 70.0728 13.2096 69.9662 13.49C69.879 14.0299 69.0939 13.123 69.0261 13.7149C69.0003 13.6803 69.0132 13.7772 69.0261 13.8084L68.758 13.8949C68.758 13.8949 68.4414 14.0161 68.3574 14.3622C68.2734 14.7083 68.4026 15.2863 69.3556 16.1794L69.375 16.2417C69.5818 16.3178 69.6884 16.304 69.6593 15.9579C69.8305 16.3144 69.795 15.9371 69.879 16.0375L69.8886 16.0686C69.8563 15.7467 70.173 16.2105 70.1471 15.9198C70.1568 15.9509 70.1988 16.0513 70.1794 16.0651C70.2214 15.989 70.2699 15.8644 70.3668 16.0721C70.4895 15.9405 70.7415 15.9302 70.6866 15.5494L70.706 15.6117C70.6575 15.3591 70.7609 15.5425 70.7674 15.3971C70.7835 15.4213 70.7932 15.4352 70.7997 15.4456C70.7544 15.1929 70.9547 15.321 70.958 15.1998L71.0258 15.3348L71.1259 15.2414L71.0678 15.2344C70.9063 14.8468 71.2681 15.4248 71.2358 15.1341C71.3359 15.1375 71.0193 14.2618 71.1873 14.4037C71.1389 14.2064 71.2907 14.7083 71.2842 14.5422C71.3812 14.736 71.3165 14.6807 71.407 14.8295C71.4167 14.7049 71.5976 14.9783 71.6008 14.8087L71.6784 14.961C71.6331 14.6322 71.9497 15.0648 71.8787 14.7637C71.9077 14.5837 72.1662 15.1791 72.1145 14.826L72.2566 15.0094C72.3148 15.0198 72.1597 14.7395 72.2566 14.8122C72.318 14.9437 72.3665 14.8814 72.402 15.0198C72.612 15.1617 72.4666 14.608 72.7832 14.8641C72.6831 14.5976 72.8284 14.7049 72.7541 14.5041C72.8155 14.6114 72.9027 14.4383 72.948 14.7187C72.9512 14.7429 72.9383 14.7464 72.9157 14.7014L72.9835 14.8537C73.2096 15.0821 73.0449 14.6149 73.145 14.608C73.0966 14.5733 73.074 14.6079 73.0384 14.4937L73.1192 14.4695L73.1709 14.601H73.3163L73.2193 14.4626C73.313 14.5076 73.4746 14.7568 73.4164 14.5006C73.3776 14.3622 73.2549 14.3276 73.2839 14.2445C73.4099 14.3034 73.6005 14.3968 73.7168 14.383C73.6135 14.2168 73.6393 14.2099 73.6458 14.158L73.733 14.3034C73.7104 14.0368 73.9494 14.6045 73.9527 14.3795L74.0044 14.4868L73.8525 14.1614C73.7685 13.8153 74.0722 14.4349 73.9365 13.978C73.9139 14.0264 73.733 13.6665 73.8138 13.7011L73.8848 13.8499C73.8913 13.8049 73.8654 13.7391 73.901 13.7565C73.9301 13.843 74.0108 13.9676 74.0367 13.9192L74.1142 14.113L74.0334 13.8084C74.1756 13.9226 74.1497 13.6769 74.2886 13.8603C74.2886 13.8603 74.4631 13.8776 74.3597 13.6457C74.4179 13.7945 74.5116 13.8049 74.5859 13.9745C74.5245 13.8015 74.5374 13.618 74.6699 13.7565V13.7807C74.9057 13.8534 74.7571 13.4 74.9961 13.5142C74.8863 13.3515 75.0058 13.3999 74.8572 13.1957C74.8443 12.9015 75.3483 13.4692 74.9735 12.7873C75.0026 12.7112 75.135 12.8946 75.1835 12.905L75.1932 12.95C75.2578 12.8219 75.2836 12.7943 75.3676 12.7527C75.3644 12.6627 75.1706 12.3581 75.2836 12.3823C75.3418 12.5173 75.3547 12.4758 75.3773 12.455C75.3773 12.4862 75.3999 12.5346 75.4839 12.5865C75.4646 12.545 75.4549 12.5173 75.4484 12.4931C75.4549 12.5035 75.4613 12.5069 75.4678 12.5208C75.4807 12.4481 75.4484 12.4169 75.4193 12.4135C75.4096 12.3962 75.3903 12.372 75.3644 12.3443C75.5098 12.4654 75.4743 12.2439 75.6164 12.4412C75.7069 12.2993 75.6519 12.0224 75.6972 11.8666C75.7812 11.9601 75.8199 12.0708 75.8199 12.1331L75.8651 12.0397C75.9685 12.1885 75.8845 12.1573 75.8813 12.2058C76.1365 12.3789 75.8878 11.8251 76.143 11.9635L76.0816 11.8285L76.101 11.8424C76.0558 11.7801 76.0202 11.6797 76.0202 11.6485C76.1268 11.7662 76.2302 11.9462 76.2754 11.8977C76.4046 11.9877 76.3433 11.7454 76.34 11.6347C76.298 11.6347 76.256 11.5585 76.2334 11.5032C76.2528 11.4789 76.3626 11.5932 76.34 11.5239L76.4692 11.6935C76.34 11.5412 76.4046 11.4651 76.3594 11.3889C76.466 11.5032 76.4047 11.5309 76.466 11.6313C76.55 11.5343 76.508 11.5828 76.592 11.4824C76.5468 11.3093 76.4628 11.3301 76.3756 11.1605C76.3949 11.0878 76.3497 10.932 76.4789 10.9909L76.3497 10.8559C76.3433 10.669 76.4046 10.6413 76.5759 10.7417C76.4079 9.86252 76.1042 9.43331 75.8555 9.21178C75.6067 8.99026 75.4096 8.9799 75.4096 8.9799C74.9348 8.84838 75.1577 9.38139 74.9703 9.73444L74.9638 9.74484Z" fill="#20BB65"/>
<path d="M61.6792 19.0858L61.6348 19.0178C61.6443 19.0518 61.657 19.0824 61.6792 19.0858Z" fill="#20BB65"/>
<path d="M61.3121 16.6053C60.9826 16.6053 60.8049 16.2695 60.5271 16.5153C60.3688 16.5326 60.2299 16.6641 60.0942 16.7506C60.0942 17.0552 59.9003 16.813 59.8777 17.0726L59.8034 16.9237C59.797 17.0137 59.7744 17.0794 59.7259 16.9998L59.7162 16.9514C59.7033 17.0864 59.6387 17.0275 59.6322 17.0933L59.6225 17.0448L59.5741 17.0795L59.5676 17.0102C59.5256 17.1591 59.4513 17.1902 59.3673 17.1522L59.4222 17.346C59.2219 17.1694 59.2672 17.5883 59.0733 17.3668L59.0636 17.3183C59.0216 17.879 58.7147 17.0414 58.663 17.5779C58.6695 17.5121 58.6307 17.481 58.621 17.4325C58.5564 17.5086 58.4789 17.5641 58.5694 17.9448C58.5112 17.9552 58.4951 17.8375 58.4498 17.6921C58.4886 17.8582 58.4563 17.9413 58.4143 17.9656L58.4208 17.8963L58.3045 17.9898L58.4046 18.2978C58.3141 18.2251 58.2948 17.9171 58.2463 18.0106L58.3077 18.2736C58.2011 18.2494 58.0493 17.8652 57.9136 17.6956C57.5065 17.6852 57.2449 18.464 56.7829 18.0936L56.7215 17.8998C56.6504 17.6125 56.7215 18.3532 56.644 18.0902L56.631 18.2321C56.6084 18.1836 56.5697 18.1352 56.5761 18.0659C56.5341 18.0659 56.5438 18.111 56.5374 18.2079L56.4566 18.0382C56.2757 17.9378 56.2208 18.3186 56.0463 18.2875C55.775 17.969 55.4874 18.3948 55.3194 18.6405C55.1159 19.1459 54.5344 18.0729 54.3374 18.6405C54.318 18.6025 54.3115 18.6993 54.3212 18.7339L54.0369 18.7582C54.0369 18.7582 52.6704 18.9555 54.1758 21.1257L54.1823 21.1915C54.3664 21.3092 54.4698 21.323 54.5118 20.9769C54.6087 21.3611 54.6443 20.9873 54.7056 21.105V21.1361C54.7412 20.8142 54.9512 21.3403 54.9867 21.0496C54.9867 21.0807 55.0093 21.188 54.9899 21.1984C55.0448 21.1326 55.1159 21.0253 55.1676 21.2503C55.313 21.1534 55.552 21.2053 55.5779 20.8211L55.5844 20.8869C55.5908 20.6273 55.6522 20.8315 55.6877 20.693C55.6974 20.7207 55.7039 20.7346 55.7071 20.7484C55.7168 20.4923 55.8816 20.6653 55.9074 20.5511L55.9429 20.7L56.0592 20.6342L56.0076 20.6134C55.9365 20.1946 56.1562 20.8488 56.1885 20.5615C56.2854 20.5927 56.1723 19.6616 56.3048 19.8416C56.3048 19.6374 56.3371 20.1635 56.3661 20.0008C56.4146 20.2154 56.3661 20.1427 56.4211 20.3123C56.4598 20.1946 56.5697 20.5061 56.6117 20.3435L56.6504 20.5096C56.6827 20.1808 56.883 20.6827 56.8862 20.3746C56.9573 20.2119 57.0639 20.8558 57.0962 20.4992L57.1867 20.7138C57.2416 20.7381 57.1576 20.4265 57.2319 20.5234C57.261 20.6654 57.3192 20.6203 57.3224 20.7657C57.4871 20.9596 57.4807 20.3884 57.7165 20.7277C57.6874 20.4404 57.7973 20.5858 57.7746 20.3712C57.807 20.4923 57.9297 20.3504 57.9039 20.6342C57.9039 20.6584 57.8877 20.6584 57.878 20.61L57.9039 20.7761C58.0589 21.0634 58.0202 20.565 58.1139 20.5892C58.0751 20.5407 58.046 20.565 58.0428 20.4473H58.1268L58.1429 20.5927L58.2786 20.6411L58.2237 20.475C58.3012 20.5477 58.3885 20.835 58.3982 20.5719C58.3982 20.43 58.2915 20.3573 58.3368 20.2846C58.4402 20.3816 58.5952 20.5269 58.705 20.5511C58.6501 20.3608 58.6792 20.3608 58.6954 20.3158L58.7374 20.4819C58.7858 20.2223 58.8634 20.8384 58.9215 20.6273L58.9409 20.745L58.886 20.3885C58.8989 20.0319 59.0184 20.7207 59.0152 20.2431C58.9829 20.2811 58.9086 19.8797 58.9764 19.9385L59.0023 20.1046C59.0216 20.0631 59.0152 19.9939 59.041 20.0216C59.0443 20.1116 59.0895 20.2569 59.1218 20.2189L59.1444 20.4265L59.1509 20.1081C59.251 20.2639 59.293 20.0215 59.3738 20.2431C59.3738 20.2431 59.5288 20.3192 59.4965 20.0631C59.5094 20.2258 59.5934 20.2639 59.6161 20.4508C59.6064 20.2673 59.6677 20.0977 59.755 20.2708V20.295C59.9456 20.4438 59.9359 19.9627 60.1233 20.1565C60.0683 19.9662 60.1652 20.0493 60.0845 19.807C60.1556 19.5266 60.456 20.2396 60.3106 19.4609C60.3623 19.402 60.4269 19.62 60.4689 19.6477V19.6927C60.5626 19.5958 60.5949 19.5785 60.6821 19.5716C60.7047 19.4851 60.6208 19.1286 60.7177 19.1909C60.7306 19.3397 60.7532 19.3051 60.7823 19.2947C60.7694 19.3224 60.7791 19.3743 60.8404 19.4574C60.834 19.4124 60.834 19.3847 60.8404 19.357C60.8437 19.3674 60.8469 19.3778 60.8501 19.3916C60.8857 19.3293 60.8663 19.2878 60.8372 19.2739C60.834 19.2532 60.8243 19.2255 60.8081 19.1874C60.905 19.3535 60.9406 19.1355 61.0084 19.3743C61.1344 19.2739 61.17 18.997 61.2636 18.8655C61.3089 18.9866 61.3121 19.1043 61.2895 19.1631L61.3606 19.0939C61.4058 19.2739 61.3412 19.2116 61.325 19.2566C61.5027 19.5162 61.4542 18.907 61.6416 19.1355L61.6287 18.9867L61.6416 19.0074C61.6222 18.9313 61.619 18.824 61.6319 18.7928C61.6901 18.9416 61.7288 19.1528 61.7838 19.1251C61.871 19.2601 61.8936 19.0109 61.9291 18.907C61.8904 18.8897 61.8774 18.8032 61.8742 18.7443C61.9 18.7305 61.9614 18.8794 61.9647 18.8067L62.026 19.0143C61.9614 18.8205 62.0422 18.7789 62.0293 18.689C62.0874 18.8378 62.0228 18.8378 62.0454 18.9555C62.1553 18.9001 62.1003 18.9278 62.2102 18.8724C62.2296 18.6959 62.1456 18.6786 62.123 18.4847C62.165 18.4259 62.1779 18.2632 62.2748 18.3705L62.2037 18.1905C62.2651 18.014 62.3297 18.014 62.4525 18.1802C62.6172 17.3044 62.5042 16.7749 62.3556 16.4668C62.207 16.1588 62.0228 16.0688 62.0228 16.0688C61.619 15.7538 61.6222 16.3422 61.3121 16.5949V16.6053Z" fill="#20BB65"/>
<path d="M46.2788 22.752L46.2402 22.6797C46.2467 22.7176 46.2595 22.7451 46.2788 22.752Z" fill="#20BB65"/>
<path d="M46.1359 20.2431C45.7999 20.2119 45.6513 19.8589 45.3477 20.0735C45.1861 20.0735 45.0311 20.1946 44.8857 20.2673C44.8631 20.5685 44.6854 20.3123 44.6402 20.5719L44.5788 20.4161C44.5626 20.5061 44.54 20.5685 44.4916 20.4854L44.4851 20.4369C44.4625 20.5685 44.3979 20.5062 44.3882 20.5719L44.3817 20.5235L44.33 20.5546V20.4854C44.2719 20.6308 44.1944 20.655 44.1136 20.61L44.1556 20.8073C43.965 20.6169 43.9844 21.0358 43.8002 20.8038L43.7938 20.7554C43.713 21.3092 43.4578 20.4542 43.3706 20.9838C43.3803 20.918 43.3415 20.8834 43.335 20.835C43.264 20.9077 43.18 20.9561 43.2478 21.3438C43.1864 21.3507 43.1767 21.233 43.1444 21.0842C43.1735 21.2538 43.1348 21.3334 43.0928 21.3542L43.1024 21.2849L42.9797 21.368L43.0637 21.683C42.9764 21.6034 42.9764 21.2953 42.9215 21.3853L42.97 21.6518C42.8634 21.6172 42.7342 21.2296 42.6049 21.0496C42.1914 21.015 41.891 21.7764 41.4419 21.3819L41.3903 21.1846C41.3321 20.8938 41.3676 21.638 41.303 21.368L41.2836 21.5099C41.261 21.4615 41.2287 21.4095 41.2352 21.3403C41.1932 21.3369 41.2029 21.3853 41.19 21.4788L41.1157 21.3057C40.9348 21.195 40.8669 21.5722 40.6892 21.5342C40.4276 21.2019 40.1207 21.6172 39.943 21.8561C39.7233 22.351 39.1677 21.2607 38.9512 21.818C38.9351 21.7799 38.9254 21.8768 38.9318 21.9114L38.6443 21.9253C38.6443 21.9253 37.2681 22.0845 38.7347 24.2928V24.3586C38.9189 24.4832 39.0223 24.497 39.0707 24.1578C39.158 24.5455 39.2032 24.1717 39.2613 24.2928V24.324C39.3033 24.0055 39.5004 24.5351 39.5424 24.2478C39.5424 24.279 39.5618 24.3862 39.5424 24.3966C39.6005 24.3343 39.6716 24.2305 39.7201 24.4555C39.8655 24.3655 40.1045 24.4278 40.1368 24.0436V24.1094C40.153 23.8532 40.2079 24.0575 40.2499 23.919C40.2596 23.9467 40.266 23.964 40.266 23.9744C40.2854 23.7182 40.4405 23.9017 40.4728 23.7875L40.5019 23.9398L40.6182 23.8809L40.5665 23.8567C40.5083 23.4379 40.7086 24.099 40.7474 23.8117C40.8411 23.8463 40.7635 22.9117 40.8863 23.0986C40.8928 22.8944 40.9057 23.424 40.9412 23.2614C40.9832 23.4794 40.938 23.4033 40.9832 23.5729C41.0252 23.4587 41.1221 23.7736 41.1738 23.6144L41.2061 23.784C41.2481 23.4552 41.4322 23.9709 41.4452 23.6628C41.5227 23.5036 41.6035 24.1509 41.6487 23.7978L41.7295 24.0194C41.7811 24.047 41.7133 23.7321 41.7812 23.8325C41.8038 23.9778 41.8652 23.9363 41.8587 24.0782C42.0138 24.2824 42.0331 23.7113 42.2496 24.0644C42.2334 23.7771 42.3368 23.9294 42.3239 23.7148C42.3497 23.8359 42.4789 23.7044 42.4402 23.9882C42.437 24.0124 42.424 24.009 42.4143 23.9605L42.4337 24.1301C42.5759 24.4278 42.5565 23.9259 42.6502 23.9571C42.6146 23.9086 42.5856 23.9294 42.5856 23.8082L42.6696 23.8152L42.6792 23.9571L42.8117 24.0159L42.7632 23.8463C42.8375 23.9224 42.9086 24.2132 42.928 23.9571C42.9312 23.8152 42.8311 23.7355 42.8828 23.6698C42.9797 23.7736 43.1251 23.9294 43.2317 23.9605C43.1864 23.7667 43.2155 23.7702 43.2349 23.7252L43.2672 23.8948C43.3286 23.6386 43.3706 24.2582 43.4416 24.0505L43.4546 24.1717L43.419 23.8117C43.4513 23.4586 43.5321 24.1543 43.5515 23.6732C43.5159 23.7113 43.4675 23.3029 43.5289 23.3686L43.545 23.5348C43.5676 23.4932 43.5644 23.424 43.587 23.4552C43.587 23.5452 43.6193 23.694 43.6549 23.6594L43.6645 23.8705L43.6872 23.5556C43.7776 23.7182 43.8325 23.4794 43.8972 23.7044C43.8972 23.7044 44.0458 23.7909 44.0296 23.5348C44.0296 23.6974 44.1136 23.7424 44.1265 23.9294C44.1265 23.7459 44.2008 23.5798 44.2719 23.7632V23.7875C44.4463 23.9502 44.469 23.4725 44.6402 23.6836C44.5982 23.4898 44.6886 23.5832 44.6273 23.334C44.7177 23.0571 44.9632 23.7944 44.876 23.0087C44.9309 22.9533 44.9794 23.1748 45.0181 23.2094L45.0117 23.2544C45.1151 23.1679 45.1474 23.154 45.2346 23.154C45.2637 23.071 45.2055 22.7075 45.2992 22.7802C45.2992 22.9291 45.3251 22.8944 45.3541 22.891C45.3412 22.9187 45.3444 22.9706 45.3993 23.0606C45.3993 23.0156 45.3993 22.9879 45.4026 22.9637C45.4026 22.9741 45.409 22.9844 45.409 22.9983C45.4478 22.9395 45.4317 22.8945 45.409 22.8806C45.409 22.8599 45.3993 22.8322 45.3864 22.7906C45.4672 22.9671 45.5221 22.7491 45.5706 22.9948C45.703 22.9083 45.7612 22.6348 45.8645 22.5137C45.9001 22.6383 45.8936 22.756 45.8645 22.8114L45.9421 22.7491C45.9744 22.9325 45.913 22.8633 45.8936 22.9048C46.0455 23.1783 46.0487 22.5691 46.2134 22.8148V22.666L46.2231 22.6902C46.2102 22.6141 46.2167 22.5033 46.2296 22.4756C46.2748 22.6314 46.2942 22.8425 46.3491 22.8218C46.4234 22.9671 46.4654 22.7179 46.5139 22.621C46.4751 22.6003 46.4719 22.5102 46.4751 22.4514C46.5042 22.441 46.5494 22.5968 46.5591 22.5241L46.6011 22.7387C46.5527 22.5379 46.6399 22.5068 46.6334 22.4168C46.6786 22.5725 46.6108 22.5622 46.627 22.6833C46.74 22.6383 46.6851 22.6626 46.7982 22.6176C46.8337 22.4445 46.7497 22.4168 46.7465 22.223C46.7949 22.171 46.8208 22.0084 46.908 22.126L46.8531 21.9391C46.9306 21.7695 46.9952 21.7799 47.1018 21.9599C47.6026 20.257 46.8918 19.8104 46.8918 19.8104C46.5139 19.4504 46.4525 20.0354 46.1165 20.2569L46.1359 20.2431Z" fill="#20BB65"/>
<path d="M30.9265 26.0232L30.8848 25.9509C30.8944 25.9854 30.9073 26.0163 30.9265 26.0232Z" fill="#20BB65"/>
<path d="M30.6745 23.5245C30.3353 23.5106 30.1673 23.168 29.8701 23.3999C29.7053 23.4102 29.5567 23.5417 29.4114 23.6248C29.4049 23.9294 29.2111 23.6837 29.1788 23.9433L29.1077 23.7909C29.098 23.8809 29.0754 23.9433 29.0237 23.8671L29.014 23.8187C28.9979 23.9537 28.93 23.8948 28.9235 23.9606L28.9139 23.9121L28.8654 23.9467L28.8589 23.8775C28.8105 24.0263 28.7329 24.0575 28.649 24.0194L28.7006 24.2133C28.4971 24.0367 28.5391 24.4555 28.342 24.234L28.3324 24.1855C28.2871 24.7463 27.977 23.9121 27.9188 24.4486C27.9253 24.3828 27.8833 24.3517 27.8736 24.3033C27.8058 24.3829 27.725 24.4348 27.8219 24.8155C27.7606 24.8259 27.7444 24.7082 27.6992 24.5663C27.7412 24.7325 27.7089 24.8155 27.6636 24.8397L27.6701 24.7705L27.5538 24.8674L27.6604 25.1755C27.5667 25.1062 27.5441 24.7947 27.4989 24.8917L27.5667 25.1513C27.4569 25.127 27.2986 24.7497 27.1564 24.5836C26.7365 24.5871 26.4942 25.3762 26.0096 25.0336L25.9418 24.8432C25.8578 24.5594 25.9579 25.2966 25.8707 25.037L25.8642 25.1789C25.8384 25.1305 25.7996 25.0855 25.8029 25.0128C25.7609 25.0128 25.7738 25.0613 25.7673 25.1547L25.6769 24.992C25.4863 24.9021 25.4475 25.2862 25.2698 25.2689C24.9726 24.9713 24.7012 25.4213 24.5494 25.6878C24.3814 26.207 23.703 25.2032 23.5447 25.7916C23.5221 25.7535 23.5253 25.8539 23.535 25.885L23.2475 25.9439C23.2475 25.9439 22.9051 26.0374 22.7855 26.38C22.6628 26.7192 22.7758 27.3007 23.6384 28.2803L23.6513 28.3426C23.8419 28.436 23.9453 28.4395 23.9485 28.0933C24.0842 28.4672 24.081 28.0899 24.1521 28.2007L24.1585 28.2318C24.1585 27.9099 24.4137 28.4083 24.4202 28.1176C24.4266 28.1487 24.4557 28.2526 24.4396 28.2664C24.488 28.1972 24.5462 28.083 24.6173 28.301C24.7497 28.1903 24.9855 28.2214 24.9758 27.8372L24.9888 27.8995C24.9726 27.6434 25.0501 27.8407 25.0727 27.6988C25.0857 27.7264 25.0921 27.7403 25.0954 27.7541C25.0857 27.498 25.2601 27.6572 25.2763 27.543L25.3215 27.6884L25.4313 27.6157L25.3764 27.5984C25.2763 27.1899 25.5412 27.8234 25.5509 27.5326C25.6445 27.5568 25.4733 26.6362 25.6155 26.8058C25.6026 26.6015 25.6672 27.1276 25.6866 26.9615C25.7479 27.1726 25.6962 27.1034 25.7576 27.2661C25.7899 27.1449 25.9159 27.4496 25.9482 27.2834L25.9967 27.4461C26.0064 27.1138 26.2357 27.6053 26.2196 27.2972C26.281 27.1311 26.4199 27.768 26.4328 27.4115L26.533 27.6226C26.5846 27.6434 26.4877 27.3388 26.5685 27.4322C26.604 27.5741 26.6589 27.5257 26.6686 27.6676C26.8366 27.8545 26.8075 27.2869 27.0498 27.6157C27.0078 27.3319 27.1241 27.4738 27.0918 27.2592C27.1274 27.3768 27.2437 27.2349 27.2307 27.5188C27.2307 27.543 27.2146 27.543 27.2049 27.4946L27.2372 27.6607C27.402 27.9445 27.3406 27.4461 27.4343 27.4703C27.3955 27.4218 27.3664 27.4461 27.36 27.3284H27.4407L27.4601 27.4703L27.5926 27.5153L27.5312 27.3492C27.6087 27.4184 27.7024 27.7022 27.7024 27.4426C27.6959 27.3007 27.5893 27.228 27.6346 27.1588C27.7379 27.2523 27.893 27.3942 27.9996 27.4184C27.9415 27.228 27.9705 27.228 27.9867 27.183L28.0319 27.3492C28.0739 27.0896 28.1611 27.7057 28.2128 27.4911L28.2322 27.6088L28.1708 27.2522C28.1773 26.8957 28.3065 27.5845 28.2936 27.1034C28.2613 27.1415 28.1838 26.7434 28.2484 26.7988L28.2774 26.9615C28.2968 26.92 28.2871 26.8507 28.313 26.8784C28.3194 26.9684 28.3614 27.1138 28.397 27.0757L28.4196 27.2834V26.965C28.5197 27.1207 28.5585 26.8784 28.6393 27.1C28.6393 27.1 28.7911 27.1761 28.7588 26.92C28.7717 27.0826 28.8557 27.1207 28.8783 27.3076C28.8686 27.1242 28.9268 26.9546 29.0108 27.1311V27.1554C29.1949 27.3076 29.1852 26.8265 29.3694 27.0238C29.3177 26.83 29.4081 26.92 29.3338 26.6742C29.4081 26.3939 29.6924 27.1138 29.56 26.335C29.6117 26.2762 29.673 26.4942 29.7118 26.5254V26.5704C29.8055 26.4769 29.8346 26.4596 29.9218 26.4562C29.9444 26.3696 29.8701 26.0131 29.9638 26.0789C29.9735 26.2277 29.9961 26.1931 30.0252 26.1862C30.0122 26.2139 30.0187 26.2658 30.0768 26.3523C30.0704 26.3073 30.0736 26.2797 30.0768 26.252C30.0768 26.2623 30.0833 26.2727 30.0865 26.2866C30.1221 26.2243 30.1027 26.1827 30.0768 26.1689C30.0736 26.1481 30.0639 26.1204 30.0478 26.0824C30.1382 26.252 30.1802 26.0339 30.2416 26.2762C30.3676 26.1827 30.4128 25.9058 30.5065 25.7812C30.5485 25.9023 30.5453 26.0201 30.5227 26.0789L30.5937 26.0131C30.6325 26.1931 30.5711 26.1308 30.5517 26.1723C30.7165 26.4388 30.6906 25.8297 30.8651 26.065L30.8586 25.9162L30.8716 25.937C30.8554 25.8608 30.8586 25.7535 30.8716 25.7224C30.9233 25.8747 30.9523 26.0858 31.0072 26.0616C31.0848 26.2 31.1203 25.9543 31.1591 25.8539C31.1203 25.8366 31.1106 25.7466 31.1139 25.6878C31.1429 25.6739 31.1914 25.8297 31.2011 25.7535L31.2495 25.9646C31.1946 25.7674 31.2786 25.7293 31.2689 25.6393C31.3206 25.7916 31.2528 25.7847 31.2721 25.9058C31.382 25.8574 31.3271 25.8816 31.4369 25.8331C31.4627 25.6566 31.382 25.6358 31.3691 25.442C31.4143 25.3866 31.4369 25.224 31.5241 25.3382L31.4628 25.1547C31.5338 24.9817 31.5984 24.9886 31.7115 25.1651C32.1476 23.4379 31.424 23.026 31.424 23.026C31.0299 22.6834 30.9878 23.2718 30.6583 23.5106L30.6745 23.5245Z" fill="#20BB65"/>
<path d="M16.4792 31.6474L16.4219 31.5928C16.4378 31.6235 16.4601 31.6474 16.4792 31.6474Z" fill="#20BB65"/>
<path d="M11.8184 35.4556C11.8184 35.4556 11.8216 35.4653 11.8249 35.4719C11.8249 35.4653 11.8216 35.4588 11.8184 35.4556Z" fill="#20BB65"/>
<path d="M14.3569 29.8549C14.3569 29.8549 14.3569 29.8413 14.3535 29.8345V29.8549H14.3569Z" fill="#20BB65"/>
<path d="M15.5754 29.329C15.2362 29.4224 14.981 29.1525 14.7484 29.4744C14.5869 29.5436 14.477 29.7201 14.3575 29.8516C14.435 30.1424 14.1766 29.9762 14.2218 30.2393L14.1087 30.1216C14.1249 30.2116 14.1217 30.2809 14.0506 30.2255L14.028 30.184C14.0506 30.3189 13.9698 30.2843 13.9795 30.3536L13.9569 30.312L13.9182 30.364L13.8923 30.3016C13.8923 30.4608 13.8245 30.5162 13.7308 30.5128L13.8406 30.6754C13.5919 30.5854 13.7598 30.9662 13.5014 30.8347L13.4788 30.7931C13.6112 31.3366 13.0459 30.6754 13.1622 31.205C13.146 31.1393 13.0976 31.1289 13.0717 31.0873C13.033 31.1877 12.9716 31.2708 13.188 31.5927C13.1331 31.6273 13.0782 31.5234 12.9878 31.4058C13.0847 31.5442 13.0782 31.6377 13.0459 31.6757L13.0265 31.6065L12.9458 31.745L13.1493 31.9907C13.0394 31.963 12.9134 31.6827 12.9005 31.7935L13.0524 32.0081C12.9425 32.0323 12.6615 31.7415 12.4676 31.6515C12.0606 31.8384 12.122 32.6761 11.5405 32.5791L11.4048 32.4373C11.2174 32.2157 11.5889 32.8457 11.4113 32.6484L11.4597 32.7834C11.4177 32.7522 11.3628 32.728 11.3402 32.6622C11.3014 32.683 11.3305 32.7211 11.3628 32.8111L11.2142 32.7037C11.001 32.7176 11.114 33.081 10.9396 33.1537C10.5455 33.0326 10.4712 33.5795 10.4485 33.8944C10.5196 34.4379 9.46646 33.9152 9.58276 34.5278C9.54722 34.5071 9.59247 34.5936 9.61831 34.6178L9.38894 34.8324C9.38894 34.8324 9.32109 34.9017 9.26294 35.0159C9.20479 35.1336 9.1531 35.2962 9.18218 35.4762C9.23387 35.8466 9.62477 36.2551 10.8265 36.6358L10.8685 36.6842C11.0753 36.6635 11.156 36.615 10.9977 36.3208C11.2885 36.5735 11.1076 36.2516 11.2206 36.3104L11.24 36.3347C11.0882 36.0578 11.5372 36.3589 11.408 36.1062C11.4274 36.1304 11.5017 36.2066 11.492 36.2274C11.5017 36.1443 11.4985 36.0162 11.66 36.172C11.7214 36.0162 11.9314 35.9262 11.7569 35.5974L11.7957 35.6493C11.6697 35.4312 11.8215 35.5697 11.7828 35.4312C11.8054 35.4485 11.8183 35.459 11.828 35.4659C11.7085 35.2444 11.9281 35.3067 11.8926 35.1924L11.996 35.2997L12.0574 35.1855L12.0024 35.1959C11.7375 34.8775 12.2415 35.3205 12.1284 35.0574C12.2221 35.0367 11.6891 34.2925 11.8861 34.379C11.7924 34.2025 12.0638 34.6421 12.0121 34.4863C12.1543 34.6455 12.08 34.6109 12.2027 34.7286C12.1801 34.6075 12.4159 34.8221 12.3772 34.6594L12.487 34.784C12.361 34.4828 12.7616 34.8255 12.6227 34.5556C12.6098 34.379 12.9877 34.8913 12.8553 34.5659L13.0265 34.7148C13.0814 34.7148 12.8747 34.4759 12.9813 34.5278C13.0685 34.6421 13.0976 34.5763 13.1622 34.7009C13.3819 34.8013 13.1363 34.2994 13.4756 34.5002C13.3302 34.2579 13.4852 34.341 13.3786 34.1575C13.4562 34.251 13.5046 34.0744 13.5983 34.341C13.6048 34.3617 13.5951 34.3686 13.566 34.3306L13.6597 34.469C13.9117 34.6629 13.6726 34.2336 13.7631 34.2198C13.7114 34.1921 13.6952 34.2233 13.6435 34.1194L13.7146 34.0883L13.7857 34.2094L13.9214 34.199L13.8083 34.071C13.9052 34.1056 14.0894 34.3305 13.9957 34.0917C13.9375 33.9637 13.818 33.9394 13.8342 33.8564C13.9634 33.9048 14.154 33.9775 14.2574 33.9568C14.1378 33.8045 14.1637 33.7941 14.1604 33.7456L14.2606 33.8806C14.2057 33.6245 14.5029 34.161 14.4738 33.9464L14.5352 34.0467L14.3543 33.7421C14.2347 33.4098 14.5901 33.9983 14.4124 33.5622C14.3963 33.6106 14.1863 33.268 14.2703 33.2957L14.351 33.4376C14.351 33.3926 14.322 33.3303 14.3575 33.3476C14.393 33.4306 14.4835 33.5483 14.4996 33.4999L14.5933 33.6833L14.4867 33.3891C14.6321 33.4964 14.5836 33.2576 14.729 33.4341C14.729 33.4341 14.8905 33.4514 14.7742 33.2229C14.8388 33.3683 14.9261 33.3752 15.0133 33.5414C14.9422 33.3752 14.9422 33.1953 15.0747 33.3303L15.0811 33.351C15.2976 33.4307 15.1361 32.9841 15.3654 33.1053C15.2556 32.9426 15.3654 32.9945 15.2233 32.7903C15.2039 32.503 15.6885 33.0845 15.3267 32.3957C15.3557 32.323 15.4817 32.5099 15.527 32.5273L15.5366 32.5723C15.598 32.4511 15.6206 32.4269 15.7014 32.3957C15.7014 32.3057 15.5205 31.9942 15.6303 32.0253C15.682 32.1638 15.6949 32.1223 15.7175 32.1049C15.7143 32.1361 15.7369 32.1846 15.8145 32.2469C15.7951 32.2053 15.7886 32.1776 15.7854 32.1534C15.7919 32.1638 15.7983 32.1707 15.8048 32.1845C15.8177 32.1153 15.7886 32.0807 15.7628 32.0773C15.7531 32.0565 15.7369 32.0357 15.7111 32.0046C15.8468 32.1361 15.8209 31.9181 15.9469 32.1257C16.0374 31.9977 15.9986 31.7173 16.0535 31.5719C16.1278 31.6758 16.1569 31.79 16.1537 31.8488L16.2021 31.7623C16.2893 31.9215 16.2118 31.88 16.2086 31.925C16.438 32.1292 16.2409 31.5546 16.4735 31.7311L16.425 31.5927L16.4412 31.61C16.4057 31.5442 16.3766 31.4369 16.3798 31.4058C16.4703 31.5373 16.5543 31.7277 16.5995 31.6896C16.7126 31.8004 16.6738 31.5546 16.6867 31.4473C16.6447 31.4404 16.6124 31.3573 16.5995 31.3019C16.6221 31.2812 16.7126 31.4127 16.6996 31.34L16.803 31.5269C16.6996 31.3539 16.7675 31.295 16.7352 31.2119C16.8224 31.3435 16.761 31.3573 16.8095 31.4681C16.8999 31.3885 16.8547 31.43 16.9484 31.3504C16.929 31.1739 16.845 31.1773 16.7836 30.9939C16.8127 30.9281 16.7901 30.7654 16.9064 30.8485L16.803 30.6893C16.8289 30.5058 16.8935 30.492 17.0421 30.627C17.0356 29.734 16.8482 29.2321 16.6447 28.9621C16.4444 28.6887 16.2377 28.6437 16.2377 28.6437C15.7596 28.4325 15.8629 29.014 15.598 29.3498L15.5754 29.329Z" fill="#20BB65"/>
<path d="M7.10446 43.8145L7.02734 43.8076C7.05948 43.8214 7.0884 43.8283 7.10446 43.8145Z" fill="#20BB65"/>
<path d="M5.17969 49.9238C5.17969 49.9238 5.18877 49.9303 5.19482 49.9336C5.1918 49.9271 5.18574 49.9238 5.17969 49.9238Z" fill="#20BB65"/>
<path d="M4.40002 43.7653C4.40002 43.7653 4.39087 43.7555 4.38477 43.7522L4.40002 43.7653Z" fill="#20BB65"/>
<path d="M5.05708 42.5857C4.8471 42.8765 4.49174 42.828 4.49497 43.2261C4.40775 43.3784 4.42068 43.5861 4.40129 43.7626C4.62743 43.9426 4.33021 43.9737 4.51112 44.1537L4.35283 44.1295C4.41421 44.1918 4.45298 44.2472 4.36253 44.2472L4.32053 44.2299C4.41422 44.3199 4.33022 44.3475 4.37868 44.3925L4.33668 44.3752V44.4375L4.27853 44.4029C4.36576 44.531 4.34638 44.6175 4.26562 44.6694L4.44329 44.7317C4.19454 44.8113 4.5402 45.0121 4.25592 45.064L4.21392 45.0467C4.61773 45.4067 3.80042 45.2094 4.18162 45.5659C4.13316 45.5209 4.08794 45.5417 4.04594 45.5244C4.06856 45.6282 4.06531 45.732 4.41098 45.8636C4.38513 45.9224 4.28499 45.874 4.1493 45.8324C4.30114 45.8878 4.34637 45.9674 4.33991 46.0194L4.28823 45.9744L4.29468 46.1336L4.59188 46.2132C4.48528 46.2547 4.23331 46.1024 4.28177 46.1994L4.52082 46.2859C4.44006 46.369 4.06208 46.2962 3.8521 46.3343C3.61627 46.715 4.0944 47.3727 3.55813 47.6115L3.37075 47.5665C3.10262 47.4835 3.72935 47.8054 3.4806 47.7361L3.58719 47.8227C3.5355 47.8227 3.47736 47.8296 3.42567 47.7881C3.40305 47.8261 3.44506 47.8434 3.51936 47.8988L3.34167 47.8885C3.16722 48.0131 3.44506 48.2554 3.33199 48.4077C2.93786 48.508 3.13815 49.003 3.26091 49.2868C3.57427 49.7229 2.41775 49.7818 2.78926 50.2456C2.74726 50.2456 2.82801 50.2975 2.85709 50.3044L2.74726 50.5952C2.74726 50.5952 2.6342 50.9551 2.83449 51.2494C3.03479 51.547 3.54843 51.7582 4.78573 51.5193L4.84064 51.5436C5.01832 51.4224 5.07648 51.3324 4.80834 51.142C5.1734 51.2251 4.87618 51.0209 5.00217 51.0174L5.03125 51.0278C4.77927 50.8513 5.30907 50.8928 5.08617 50.7302C5.11524 50.7406 5.21216 50.7717 5.21216 50.7959C5.18309 50.7163 5.12817 50.5986 5.33816 50.654C5.32523 50.4775 5.47707 50.2802 5.1734 50.0794L5.22831 50.1037C5.01833 49.9756 5.21538 50.0171 5.11846 49.9168C5.14754 49.9202 5.16047 49.9202 5.1734 49.9237C4.96987 49.7921 5.18955 49.7264 5.10878 49.6433L5.24769 49.6814V49.5429L5.20893 49.581C4.83419 49.446 5.47384 49.5603 5.25416 49.3906C5.32523 49.3214 4.51436 48.9649 4.72435 48.9337C4.55959 48.8334 5.00217 49.0653 4.88264 48.9545C5.0797 49.0168 4.99894 49.0237 5.16046 49.0583C5.08293 48.9649 5.38983 49.0203 5.27999 48.8991L5.43507 48.9476C5.18309 48.7538 5.69027 48.823 5.44475 48.6673C5.34783 48.5219 5.91964 48.7468 5.65151 48.5391L5.87118 48.5669C5.91964 48.5322 5.62567 48.4492 5.74197 48.4319C5.8712 48.4803 5.86473 48.4042 5.98103 48.4734C6.22009 48.4284 5.76134 48.1411 6.15224 48.1065C5.90995 47.9853 6.08118 47.9611 5.90027 47.8711C6.01334 47.9058 5.96487 47.7257 6.17809 47.8954C6.19424 47.9092 6.18779 47.9196 6.14579 47.9057L6.29438 47.9681C6.60451 47.9819 6.18778 47.7569 6.25562 47.6877C6.19747 47.6946 6.20071 47.7327 6.10379 47.6738L6.149 47.6011L6.27177 47.6635L6.38161 47.57L6.22009 47.5319C6.317 47.5043 6.58837 47.5769 6.38808 47.4315C6.27501 47.3589 6.16193 47.4108 6.12962 47.3312C6.26207 47.2931 6.45914 47.2342 6.53667 47.1546C6.35899 47.0992 6.37193 47.075 6.34608 47.037L6.49791 47.0889C6.32023 46.9054 6.84358 47.172 6.7079 47.0093L6.81128 47.0577L6.50114 46.9124C6.22978 46.7081 6.83388 46.9781 6.45591 46.722C6.46883 46.7739 6.11348 46.6182 6.19747 46.5905L6.33961 46.6597C6.317 46.6216 6.25885 46.587 6.29762 46.5801C6.37192 46.6251 6.5076 46.6701 6.49791 46.6182L6.67235 46.7151L6.42685 46.5351C6.60452 46.5351 6.43652 46.3655 6.65297 46.4174C6.65297 46.4174 6.79512 46.3274 6.57867 46.2132C6.71112 46.2928 6.78866 46.2409 6.94696 46.3274C6.79835 46.234 6.70144 46.0851 6.88558 46.1128L6.90172 46.1266C7.12463 46.0505 6.74989 45.7874 7.00187 45.739C6.82419 45.6767 6.94372 45.6455 6.71435 45.5728C6.5399 45.3479 7.25386 45.5105 6.5819 45.1817C6.56575 45.1056 6.76927 45.1748 6.81449 45.1575L6.84681 45.1852C6.83066 45.0467 6.83388 45.0121 6.88234 44.9325C6.83065 44.8633 6.51406 44.7248 6.61744 44.6798C6.73697 44.756 6.72404 44.7145 6.73373 44.6868C6.74665 44.7145 6.7919 44.7387 6.89204 44.7352C6.85328 44.7144 6.83388 44.6971 6.81449 44.6798C6.82419 44.6833 6.83389 44.6867 6.84681 44.6902C6.81774 44.6244 6.77574 44.6175 6.7499 44.6314C6.73052 44.621 6.70467 44.6141 6.66914 44.6071C6.85005 44.6244 6.7079 44.4652 6.92757 44.5483C6.92757 44.3856 6.7402 44.1883 6.70143 44.0326C6.81773 44.0672 6.90818 44.1364 6.93726 44.1883L6.92757 44.0879C7.0891 44.1572 7.00187 44.1745 7.02449 44.216C7.3217 44.2264 6.84035 43.8976 7.12463 43.8837L7.0051 43.8041H7.02772C6.95988 43.7764 6.87911 43.7107 6.86296 43.6865C7.00833 43.7315 7.18601 43.8249 7.19893 43.7661C7.35076 43.7799 7.17955 43.6068 7.12787 43.5134C7.09233 43.5342 7.01802 43.4926 6.97602 43.4545C6.98248 43.4234 7.12785 43.4684 7.07617 43.4199L7.26678 43.4995C7.08587 43.4338 7.10526 43.3403 7.03095 43.2953C7.17633 43.3403 7.13432 43.3922 7.23769 43.4476C7.26354 43.323 7.25063 43.3853 7.27648 43.2607C7.15695 43.1361 7.09556 43.1949 6.94049 43.0911C6.92434 43.0184 6.81451 42.9077 6.95019 42.8938L6.77573 42.8384C6.68527 42.6757 6.73051 42.6238 6.92757 42.6273C6.401 41.935 5.95519 41.6789 5.63859 41.6028C5.322 41.5266 5.13785 41.627 5.13785 41.627C4.6468 41.7758 5.06677 42.1565 5.05708 42.5857Z" fill="#20BB65"/>
<path d="M3.47556 59.7986L3.39844 59.8193C3.43379 59.8193 3.4627 59.8192 3.47556 59.7986Z" fill="#20BB65"/>
<path d="M0.888262 60.6396C0.888262 60.6396 0.878702 60.6328 0.869141 60.6294L0.888262 60.6396Z" fill="#20BB65"/>
<path d="M1.17936 59.2863C1.05983 59.6359 0.707711 59.7051 0.82401 60.0893C0.785244 60.2659 0.856319 60.4597 0.888625 60.6362C1.15676 60.7331 0.882158 60.8647 1.10506 60.972L0.950006 61.0031C1.02754 61.0412 1.07923 61.0827 0.992004 61.1104H0.946772C1.06307 61.1623 0.988768 61.2143 1.04692 61.2419H1.00169L1.01783 61.3008L0.953239 61.2869C1.076 61.3804 1.07922 61.4704 1.02107 61.5465H1.20844C0.995229 61.7092 1.38289 61.7819 1.12768 61.9273H1.08245C1.57026 62.128 0.740014 62.2215 1.20521 62.4326C1.14706 62.4084 1.10829 62.443 1.06307 62.4395C1.11475 62.533 1.14383 62.6299 1.51212 62.6368C1.50565 62.7026 1.39582 62.6887 1.25368 62.6957C1.4152 62.6957 1.47981 62.7545 1.4895 62.8064L1.42812 62.7822L1.48303 62.9311L1.7867 62.9033C1.69948 62.9795 1.4152 62.9206 1.4895 62.9968H1.74149C1.69303 63.1041 1.30859 63.1699 1.12445 63.2772C1.01784 63.7237 1.6704 64.1771 1.24074 64.5994L1.05015 64.6236C0.772325 64.6409 1.46366 64.7205 1.20844 64.7482L1.33767 64.7898C1.28922 64.8036 1.23752 64.8347 1.17291 64.814C1.16322 64.859 1.20845 64.859 1.29568 64.8867L1.12445 64.942C0.998456 65.122 1.33766 65.2536 1.27951 65.4405C0.940301 65.6828 1.28598 66.0774 1.49273 66.2989C1.92562 66.5931 0.862771 67.0846 1.3635 67.3823C1.32474 67.3961 1.4152 67.4169 1.4475 67.4134L1.43782 67.7319C1.43782 67.7319 1.45074 68.116 1.73826 68.3133C2.02254 68.5175 2.57496 68.5141 3.65396 67.8184H3.71534C3.84133 67.6384 3.86394 67.5345 3.55058 67.4584C3.91886 67.3996 3.57643 67.32 3.69273 67.2681H3.72181C3.42783 67.2023 3.93825 67.0396 3.67658 66.9738C3.70565 66.9738 3.80903 66.9669 3.81549 66.9877C3.7638 66.9254 3.67333 66.8388 3.88655 66.8111C3.81548 66.6519 3.89624 66.4131 3.54411 66.3369H3.6055C3.36967 66.2989 3.56673 66.2643 3.44073 66.2054C3.46981 66.1985 3.48275 66.195 3.49567 66.1916C3.25984 66.1431 3.4472 66.0012 3.34382 65.9562L3.48597 65.9424L3.44397 65.8143L3.4149 65.8662C3.01755 65.8766 3.6572 65.7485 3.39552 65.6724C3.44075 65.5789 2.56528 65.5443 2.75265 65.437C2.56528 65.4024 3.05631 65.4578 2.90771 65.3989C3.11446 65.3851 3.04015 65.4232 3.20168 65.3955C3.10153 65.3366 3.4052 65.2778 3.26306 65.2051L3.42459 65.1913C3.12738 65.1013 3.62811 64.9836 3.34382 64.9282C3.20814 64.8244 3.81872 64.8347 3.4989 64.7344L3.71534 64.6824C3.74765 64.634 3.4472 64.6582 3.55058 64.6028C3.68626 64.6028 3.65719 64.5301 3.78964 64.5578C3.99962 64.4298 3.47951 64.326 3.83487 64.1564C3.56674 64.1287 3.72179 64.0456 3.52473 64.0248C3.64103 64.0179 3.54089 63.8656 3.79287 63.9486C3.81226 63.9556 3.80902 63.9694 3.76379 63.9694L3.9221 63.9764C4.21931 63.8794 3.75411 63.8171 3.79934 63.7271C3.74765 63.7548 3.76057 63.7894 3.65396 63.7687L3.67334 63.6856L3.80579 63.6994L3.8801 63.5748L3.71534 63.5956C3.79934 63.5333 4.07715 63.5091 3.84455 63.4433C3.71533 63.4122 3.62488 63.5022 3.56996 63.4398C3.68303 63.3568 3.85103 63.2356 3.89948 63.1353C3.71534 63.1456 3.72179 63.1179 3.68302 63.0903H3.84455C3.62164 62.976 4.19992 63.0487 4.01901 62.938L4.13207 62.9483L3.79611 62.9172C3.47628 62.8168 4.12885 62.8653 3.69596 62.7545C3.7218 62.7961 3.3406 62.7718 3.41167 62.7199L3.56673 62.7337C3.53443 62.7026 3.46981 62.6922 3.50212 62.6749C3.58611 62.6922 3.72825 62.6853 3.70241 62.6437L3.89625 62.6749L3.61196 62.5919C3.77995 62.5295 3.57319 62.4292 3.78964 62.4049C3.78964 62.4049 3.89949 62.2734 3.66043 62.2353C3.80903 62.2665 3.86718 62.1938 4.04163 62.218C3.87364 62.1799 3.73796 62.0727 3.91887 62.0346L3.93825 62.0415C4.12562 61.8961 3.69273 61.7715 3.91887 61.6435C3.7315 61.6435 3.83487 61.5742 3.59581 61.5846C3.36645 61.4323 4.09009 61.3458 3.35676 61.2627C3.31799 61.1969 3.5312 61.1935 3.5732 61.1623L3.61196 61.1796C3.55704 61.055 3.55058 61.0204 3.5732 60.9304C3.50213 60.882 3.16292 60.8543 3.25014 60.7781C3.38583 60.8128 3.35997 60.7781 3.36321 60.747C3.38259 60.7677 3.43428 60.7781 3.52797 60.7435C3.48597 60.7366 3.46012 60.7262 3.44073 60.7158C3.45043 60.7158 3.46013 60.7158 3.47305 60.7158C3.42782 60.6639 3.38582 60.6674 3.36644 60.6916C3.34706 60.6916 3.31798 60.6916 3.28244 60.6916C3.46012 60.6501 3.27922 60.5428 3.51182 60.5531C3.46659 60.3974 3.23076 60.2728 3.15 60.1378C3.26953 60.1308 3.37614 60.1689 3.41814 60.2105L3.37935 60.117C3.55057 60.1309 3.47628 60.1759 3.50858 60.207C3.7961 60.1205 3.24368 59.9647 3.50858 59.8609L3.37291 59.8228L3.39552 59.8159C3.32445 59.809 3.22753 59.7743 3.20491 59.7536C3.35675 59.7466 3.55058 59.7813 3.54735 59.719C3.69595 59.6809 3.48597 59.5736 3.40844 59.5009C3.37936 59.5321 3.2986 59.5147 3.24691 59.494C3.24691 59.4628 3.39552 59.4559 3.33414 59.4282L3.53767 59.442C3.34707 59.4386 3.33738 59.3417 3.25661 59.3244C3.40845 59.3209 3.3826 59.3832 3.49567 59.404C3.48598 59.2759 3.49243 59.3417 3.48273 59.2136C3.33413 59.134 3.28892 59.2067 3.11447 59.1582C3.07893 59.0959 2.94324 59.0232 3.06924 58.9679H2.88833C2.7591 58.8467 2.78494 58.781 2.97554 58.7256C2.28097 58.2306 1.7867 58.1233 1.46365 58.151C1.1406 58.1787 0.992004 58.3345 0.992004 58.3345C0.562343 58.6356 1.06952 58.8675 1.17936 59.2863Z" fill="#20BB65"/>
<path d="M5.36227 75.9663L5.29883 76.0173C5.33055 76.0037 5.35593 75.9901 5.36227 75.9663Z" fill="#20BB65"/>
<path d="M3.06355 76.4786C3.08294 76.849 2.78572 77.067 3.0377 77.3716C3.07001 77.5516 3.20569 77.7004 3.30261 77.8493C3.58367 77.825 3.38338 78.0639 3.6289 78.0673L3.49645 78.1608C3.58045 78.1608 3.64506 78.1781 3.57722 78.2439L3.53522 78.2577C3.66121 78.2577 3.61598 78.3408 3.67736 78.3408L3.63536 78.3581L3.67413 78.4065L3.60951 78.4204C3.75489 78.455 3.79365 78.5346 3.76781 78.6315L3.93903 78.5519C3.80335 78.7942 4.18778 78.6938 4.0101 78.9361L3.9681 78.9534C4.49144 78.9292 3.76781 79.3757 4.275 79.3653C4.21362 79.3653 4.191 79.4172 4.14901 79.4345C4.233 79.4968 4.29438 79.5765 4.63359 79.4207C4.65297 79.483 4.54637 79.5211 4.42038 79.5868C4.56899 79.5176 4.64974 79.5418 4.67882 79.5868H4.61099L4.71758 79.7045L4.98572 79.5453C4.93404 79.6561 4.65299 79.7253 4.7499 79.7599L4.97926 79.6491C4.97603 79.7703 4.64975 79.9953 4.52053 80.1752C4.59483 80.6287 5.3637 80.7602 5.1311 81.3348L4.96958 81.4421C4.72406 81.5805 5.38307 81.3486 5.16017 81.4836L5.29263 81.4663C5.25386 81.5009 5.21833 81.5528 5.15372 81.5598C5.16341 81.6048 5.20217 81.584 5.29263 81.5736L5.15693 81.6982C5.1117 81.9197 5.46707 81.892 5.48969 82.0859C5.27324 82.4562 5.73844 82.6639 6.01303 82.7747C6.52023 82.8508 5.73843 83.7681 6.31024 83.82C6.28116 83.8511 6.37162 83.8269 6.39747 83.8096L6.51053 84.1038C6.51053 84.1038 6.66883 84.4465 7.00481 84.5053C7.34401 84.5642 7.84475 84.3184 8.56193 83.2143L8.61684 83.1866C8.6653 82.9651 8.64268 82.8612 8.32932 82.9305C8.64268 82.7124 8.30024 82.7954 8.38747 82.6951L8.41655 82.6812C8.12257 82.7504 8.52639 82.3766 8.26149 82.432C8.28734 82.4182 8.37778 82.3662 8.39393 82.3835C8.32286 82.3489 8.20656 82.3109 8.39393 82.1897C8.26794 82.0755 8.2518 81.8228 7.89967 81.9094L7.95459 81.8851C7.72199 81.9509 7.88998 81.8332 7.75429 81.8367C7.77691 81.8194 7.7866 81.8055 7.79953 81.8021C7.56693 81.8609 7.68322 81.6498 7.57015 81.6532L7.69615 81.5771L7.60892 81.4767L7.60245 81.5355C7.24386 81.719 7.77691 81.3244 7.50877 81.3659C7.51523 81.2621 6.70113 81.6117 6.83358 81.4317C6.64944 81.4836 7.11788 81.3175 6.96281 81.3279C7.14372 81.224 7.09204 81.2933 7.23095 81.1963C7.11465 81.186 7.3731 80.999 7.2148 80.9956L7.35695 80.9125C7.05004 80.961 7.46354 80.6321 7.18248 80.7083C7.01773 80.6737 7.57985 80.4141 7.25033 80.466L7.42801 80.3241C7.44093 80.2653 7.17603 80.421 7.2471 80.3241C7.36986 80.2618 7.31817 80.2133 7.44739 80.1787C7.59276 79.971 7.07587 80.1026 7.33754 79.791C7.08233 79.8845 7.19541 79.7391 7.00157 79.8084C7.10495 79.753 6.95634 79.6561 7.21801 79.6214C7.24063 79.6214 7.24063 79.6318 7.20187 79.6526L7.35048 79.5903C7.58308 79.3722 7.13726 79.5176 7.14372 79.4172C7.10818 79.4657 7.13403 79.4899 7.02419 79.5176L7.01128 79.4345L7.13725 79.3895L7.15987 79.2442L7.01772 79.3342C7.06941 79.2407 7.31816 79.0988 7.0791 79.1403C6.94988 79.1715 6.90144 79.2926 6.82713 79.2546C6.8982 79.13 7.00481 78.9465 7.01128 78.8323C6.84652 78.9223 6.84004 78.8946 6.79482 78.8842L6.94019 78.8115C6.69467 78.8115 7.2471 78.6212 7.04681 78.6004L7.15342 78.5589L6.83358 78.68C6.50407 78.7284 7.11787 78.4896 6.67852 78.5761C6.72052 78.6038 6.36194 78.7457 6.40393 78.6696L6.55253 78.6142C6.51053 78.6004 6.44915 78.6211 6.47176 78.5865C6.55576 78.5658 6.68176 78.5 6.64299 78.4689L6.83037 78.4135L6.53961 78.4619C6.66883 78.3339 6.44269 78.3304 6.63329 78.2162C6.63329 78.2162 6.68174 78.0466 6.44915 78.1193C6.59775 78.0812 6.62038 77.9912 6.7916 77.9358C6.62361 77.9739 6.45884 77.9358 6.61067 77.8251H6.63329C6.74959 77.6105 6.31025 77.6866 6.46855 77.4685C6.29733 77.5481 6.36516 77.4408 6.15194 77.5516C5.88381 77.5135 6.51376 77.1189 5.80951 77.3612C5.75136 77.3162 5.94519 77.2228 5.9678 77.1778H6.0098C5.91288 77.0878 5.89351 77.0566 5.88059 76.9666C5.79659 76.9528 5.47676 77.0739 5.52522 76.9666C5.6609 76.9389 5.62537 76.9182 5.61568 76.8905C5.64153 76.9009 5.68997 76.8905 5.76427 76.8143C5.72228 76.8247 5.69644 76.8282 5.67383 76.8282C5.68352 76.8247 5.68997 76.8178 5.70613 76.8143C5.64475 76.7867 5.60922 76.8074 5.5963 76.8386C5.57692 76.8455 5.55108 76.8559 5.51877 76.8767C5.66737 76.7624 5.46062 76.7417 5.67706 76.6517C5.57692 76.5305 5.31201 76.5167 5.18925 76.4267C5.29909 76.3713 5.40892 76.3609 5.46384 76.3782L5.39601 76.309C5.56077 76.2467 5.50584 76.3228 5.54783 76.3367C5.7772 76.1359 5.2151 76.2294 5.41862 76.0182L5.27969 76.0425L5.29908 76.0286C5.23124 76.0529 5.12786 76.0633 5.10202 76.0529C5.2377 75.9837 5.43153 75.9317 5.40246 75.8764C5.52522 75.7794 5.29263 75.769 5.19572 75.7379C5.18279 75.7794 5.09879 75.7967 5.04387 75.8036C5.03095 75.7759 5.16663 75.7068 5.09879 75.7068L5.29263 75.634C5.11495 75.7102 5.07295 75.6271 4.98896 75.6444C5.12787 75.5752 5.12786 75.6444 5.2377 75.6133C5.18278 75.5025 5.21185 75.5579 5.15693 75.4472C4.99218 75.4368 4.97926 75.5233 4.79835 75.5544C4.74343 75.5129 4.5916 75.5025 4.68852 75.3987L4.52376 75.4783C4.359 75.4195 4.35899 75.3468 4.51083 75.2152C3.69027 75.0526 3.19601 75.1633 2.90849 75.3225C2.62098 75.4817 2.54021 75.6929 2.54021 75.6929C2.25592 76.1532 2.80834 76.1532 3.06355 76.4924V76.4786Z" fill="#20BB65"/>
<path d="M13.2065 89.9397L13.168 90.012C13.1937 89.9879 13.2097 89.9604 13.2065 89.9397Z" fill="#20BB65"/>
<path d="M17.5391 94.3697C17.5391 94.3697 17.5482 94.3631 17.5543 94.3599C17.5482 94.3599 17.5452 94.3664 17.5391 94.3697Z" fill="#20BB65"/>
<path d="M11.9918 92.5288C11.9918 92.5288 11.9822 92.5322 11.9727 92.5356L11.9918 92.5288Z" fill="#20BB65"/>
<path d="M11.2783 91.3726C11.4333 91.7049 11.2363 92.0268 11.5755 92.1999C11.6692 92.3522 11.8501 92.4318 11.989 92.5253C12.2377 92.3834 12.1376 92.6879 12.3669 92.5876L12.2797 92.7295C12.3573 92.6949 12.4219 92.6845 12.3831 92.771L12.3508 92.8021C12.4671 92.7502 12.4542 92.8437 12.5123 92.8195L12.48 92.8506L12.5349 92.8783L12.4833 92.9199C12.6286 92.8887 12.6932 92.9476 12.7062 93.0479L12.8354 92.9025C12.7966 93.1794 13.1132 92.9303 13.0357 93.2279L13.0034 93.2625C13.4783 93.0237 12.9678 93.7333 13.4298 93.5152C13.3717 93.5429 13.3684 93.5948 13.3361 93.6294C13.433 93.6536 13.5203 93.6986 13.7755 93.4183C13.8142 93.4702 13.7302 93.5429 13.6365 93.6606C13.7496 93.536 13.8336 93.5256 13.8756 93.5533L13.8175 93.5844L13.9564 93.6433L14.147 93.3871C14.1373 93.5083 13.9015 93.6883 14.0048 93.6813L14.1793 93.4841C14.2181 93.5983 13.9952 93.9375 13.937 94.1555C14.1631 94.5432 14.9191 94.3563 14.9029 94.9793L14.7866 95.142C14.6057 95.367 15.1388 94.8893 14.9805 95.1039L15.0968 95.0347C15.0741 95.0832 15.058 95.1455 14.9998 95.1766C15.0225 95.2147 15.0548 95.1766 15.1323 95.1316L15.0515 95.3012C15.0838 95.5228 15.4069 95.3566 15.4909 95.5296C15.4134 95.9588 15.9173 95.9692 16.2081 95.9658C16.7088 95.8412 16.2856 96.9973 16.8348 96.8207C16.8186 96.8588 16.8962 96.8034 16.9155 96.7792L17.1191 97.0076C17.1191 97.0076 17.3808 97.2672 17.7135 97.1911C18.0462 97.1184 18.4404 96.7031 18.744 95.3947L18.786 95.3497C18.7569 95.1247 18.702 95.0347 18.4307 95.2182C18.6503 94.8963 18.3564 95.1005 18.4048 94.9758L18.4274 94.9516C18.1755 95.1282 18.4274 94.6263 18.1981 94.7786C18.2207 94.7578 18.2853 94.6713 18.3047 94.6816C18.2239 94.6782 18.1044 94.6816 18.2368 94.5017C18.0818 94.4428 17.9784 94.2144 17.6812 94.429L17.7264 94.384C17.5326 94.5363 17.6489 94.3597 17.5229 94.4151C17.539 94.3909 17.5455 94.3736 17.552 94.3667C17.3549 94.512 17.3904 94.2697 17.2871 94.3147L17.3775 94.1936L17.2612 94.1348L17.2774 94.1936C17.0092 94.5051 17.3678 93.9271 17.132 94.0725C17.1029 93.9721 16.4633 94.6194 16.5246 94.3978C16.3728 94.519 16.7508 94.1798 16.6086 94.2525C16.7411 94.0828 16.7153 94.1694 16.8122 94.024C16.7023 94.0586 16.8736 93.7817 16.725 93.844L16.8283 93.7125C16.5602 93.8786 16.8283 93.4113 16.5957 93.5879C16.431 93.6225 16.8639 93.1587 16.5731 93.3352L16.6862 93.131C16.6765 93.0722 16.4827 93.3214 16.5182 93.2002C16.6119 93.0929 16.544 93.0687 16.6539 92.9856C16.7153 92.7364 16.2824 93.0618 16.4148 92.6672C16.2113 92.8541 16.263 92.6741 16.1111 92.816C16.1854 92.7226 16.0142 92.6914 16.2468 92.5564C16.2662 92.546 16.2727 92.5564 16.2404 92.591L16.3534 92.4733C16.4923 92.1791 16.1305 92.4907 16.1014 92.3937C16.0853 92.4526 16.1176 92.4664 16.0271 92.5357L15.9852 92.463L16.0885 92.3695L16.0562 92.2241L15.9561 92.3661C15.9722 92.2588 16.1499 92.0268 15.9432 92.1618C15.8333 92.2414 15.8301 92.3729 15.7526 92.3695C15.7752 92.2276 15.8075 92.013 15.7752 91.9022C15.6524 92.0511 15.6395 92.0268 15.5943 92.0372L15.7041 91.9092C15.4747 92.0061 15.9238 91.608 15.7267 91.6703L15.8107 91.5907L15.5587 91.8295C15.2712 92.0061 15.7558 91.5353 15.3778 91.7949C15.4263 91.8053 15.1452 92.0822 15.1581 91.9922L15.2744 91.8815C15.2324 91.8849 15.1808 91.9299 15.1905 91.8918C15.2615 91.8399 15.3552 91.7257 15.3067 91.7153L15.4618 91.5873L15.2066 91.7499C15.2809 91.5769 15.0677 91.6669 15.2066 91.4834C15.2066 91.4834 15.1937 91.3069 15.0031 91.4661C15.1258 91.3726 15.1161 91.2757 15.255 91.158C15.1129 91.2619 14.9449 91.293 15.0451 91.1269L15.0645 91.1165C15.0935 90.8708 14.7156 91.1165 14.7834 90.8534C14.6542 90.9988 14.68 90.8708 14.5217 91.0612C14.2568 91.1373 14.6994 90.5108 14.1373 91.0265C14.0662 91.0092 14.2116 90.8431 14.2181 90.7912L14.2568 90.7738C14.1341 90.7323 14.105 90.7116 14.0598 90.632C13.979 90.6527 13.7238 90.9019 13.7335 90.7808C13.8498 90.7012 13.811 90.6943 13.7916 90.67C13.8207 90.67 13.8595 90.6354 13.9015 90.5385C13.8659 90.5662 13.8433 90.5766 13.8207 90.587C13.8271 90.58 13.8336 90.5731 13.8433 90.5627C13.7755 90.5627 13.7496 90.5973 13.7529 90.6285C13.7367 90.6423 13.7173 90.6631 13.6947 90.6977C13.7884 90.5316 13.5913 90.5973 13.7593 90.4242C13.6236 90.3516 13.3749 90.4485 13.2263 90.4242C13.307 90.3273 13.404 90.272 13.4621 90.265L13.3717 90.2304C13.5009 90.1058 13.4783 90.1958 13.5203 90.1924C13.6592 89.9085 13.1746 90.2304 13.2844 89.9535L13.1681 90.0331L13.181 90.0124C13.1261 90.0643 13.0357 90.1162 13.0066 90.1162C13.1068 89.9951 13.265 89.867 13.2198 89.8289C13.2973 89.687 13.0777 89.777 12.9775 89.7874C12.9775 89.8324 12.9097 89.8843 12.8612 89.9085C12.8386 89.8878 12.9388 89.7666 12.8774 89.7943L13.026 89.6455C12.8903 89.7908 12.8225 89.732 12.7514 89.7839C12.8515 89.6628 12.8774 89.7285 12.9678 89.6524C12.8774 89.5728 12.9226 89.6109 12.8289 89.5312C12.6738 89.5901 12.6932 89.6766 12.5382 89.7805C12.4703 89.7631 12.3282 89.822 12.3799 89.6836L12.2571 89.8255C12.0827 89.8393 12.0568 89.7736 12.1505 89.5866C11.3396 89.7839 10.9261 90.0955 10.7194 90.3654C10.5159 90.6354 10.5191 90.8604 10.5191 90.8604C10.4254 91.4038 10.9358 91.1685 11.2912 91.3692L11.2783 91.3726Z" fill="#20BB65"/>
<path d="M25.2407 100.126L25.2246 100.209C25.2407 100.178 25.2503 100.147 25.2407 100.126Z" fill="#20BB65"/>
<path d="M30.6387 102.977C30.6387 102.977 30.6452 102.971 30.6518 102.964C30.6452 102.968 30.6419 102.974 30.6387 102.977Z" fill="#20BB65"/>
<path d="M24.8317 102.989C24.8317 102.989 24.8225 102.995 24.8164 103.002L24.8317 102.989Z" fill="#20BB65"/>
<path d="M23.8286 102.134C24.0709 102.397 23.9772 102.767 24.3487 102.815C24.4779 102.926 24.6717 102.944 24.8333 102.985C25.0303 102.767 25.0206 103.089 25.208 102.919L25.166 103.082C25.2306 103.023 25.2888 102.992 25.2759 103.089L25.2532 103.13C25.3502 103.044 25.3631 103.137 25.4115 103.092L25.3889 103.134L25.4471 103.144L25.4083 103.2C25.5375 103.124 25.6151 103.158 25.6538 103.248L25.7346 103.068C25.7766 103.345 26.006 103.006 26.0156 103.31L25.993 103.352C26.3775 102.971 26.09 103.812 26.4679 103.456C26.4195 103.501 26.4324 103.553 26.4098 103.594C26.5099 103.584 26.6036 103.601 26.7716 103.252C26.8233 103.286 26.7651 103.387 26.707 103.525C26.7781 103.369 26.8588 103.331 26.904 103.345L26.8556 103.394L27.0042 103.407L27.1173 103.103C27.1431 103.22 26.9687 103.466 27.0624 103.432L27.1754 103.189C27.2433 103.286 27.127 103.681 27.1302 103.906C27.45 104.203 28.122 103.785 28.2738 104.387L28.2092 104.577C28.0994 104.851 28.4773 104.228 28.3836 104.48L28.4773 104.377C28.4676 104.428 28.4676 104.494 28.4224 104.543C28.4547 104.57 28.4741 104.529 28.5355 104.46L28.5032 104.647C28.5936 104.847 28.8553 104.588 28.9813 104.726C29.0233 105.159 29.5046 105.013 29.7825 104.92C30.2283 104.646 30.1281 105.882 30.6062 105.546C30.5998 105.588 30.6579 105.512 30.6709 105.481L30.9228 105.64C30.9228 105.64 31.2394 105.81 31.5366 105.64C31.8371 105.47 32.1052 104.951 32.0535 103.605L32.0826 103.549C31.9954 103.342 31.9211 103.272 31.7078 103.529C31.8338 103.151 31.6077 103.439 31.6174 103.304L31.6335 103.276C31.4365 103.522 31.5463 102.961 31.3654 103.179C31.3816 103.151 31.4203 103.051 31.443 103.054C31.3654 103.075 31.2491 103.117 31.3299 102.902C31.1651 102.892 31.0036 102.705 30.7742 102.999L30.8033 102.944C30.6579 103.148 30.7225 102.944 30.6159 103.034C30.6256 103.006 30.6256 102.989 30.6321 102.978C30.4835 103.179 30.4512 102.937 30.364 103.009L30.4189 102.867L30.2929 102.847L30.322 102.895C30.1475 103.276 30.3349 102.611 30.1507 102.822C30.0958 102.736 29.6597 103.553 29.6565 103.324C29.5434 103.487 29.8148 103.047 29.6985 103.158C29.7825 102.957 29.7792 103.044 29.8309 102.878C29.734 102.947 29.8245 102.629 29.6985 102.729L29.7631 102.57C29.5499 102.812 29.6823 102.279 29.5046 102.525C29.356 102.608 29.6435 102.03 29.4142 102.289L29.4691 102.061C29.4432 102.006 29.3269 102.307 29.3269 102.182C29.3883 102.051 29.3173 102.047 29.398 101.933C29.3883 101.673 29.0621 102.123 29.0814 101.704C28.9393 101.947 28.9393 101.76 28.8294 101.943C28.8747 101.829 28.7002 101.857 28.8876 101.652C28.9037 101.635 28.9134 101.646 28.8941 101.687L28.9716 101.538C29.0233 101.213 28.7616 101.625 28.7067 101.538C28.7067 101.601 28.7422 101.604 28.6744 101.697L28.613 101.639L28.6841 101.517L28.613 101.389L28.5549 101.556C28.5419 101.448 28.6453 101.168 28.487 101.365C28.403 101.476 28.4385 101.604 28.361 101.625C28.3416 101.483 28.3158 101.265 28.2512 101.171C28.1769 101.355 28.1575 101.334 28.1155 101.358L28.1833 101.203C27.9927 101.369 28.3061 100.846 28.1381 100.967L28.1963 100.863L28.0218 101.171C27.7957 101.431 28.1284 100.829 27.8409 101.196C27.8894 101.189 27.6988 101.545 27.6858 101.452L27.7666 101.31C27.7278 101.327 27.6891 101.386 27.6891 101.344C27.7407 101.272 27.7989 101.133 27.7504 101.137L27.8635 100.964L27.6665 101.199C27.6891 101.012 27.5114 101.164 27.5889 100.943C27.5889 100.943 27.5243 100.78 27.3886 100.991C27.4791 100.863 27.4436 100.773 27.5405 100.618C27.4339 100.763 27.2852 100.846 27.3337 100.656L27.3499 100.638C27.3079 100.393 27.0171 100.756 27.0042 100.479C26.9234 100.659 26.9105 100.528 26.8136 100.763C26.5842 100.919 26.8265 100.181 26.4356 100.853C26.3613 100.86 26.4518 100.652 26.4421 100.6L26.4744 100.573C26.3452 100.573 26.3129 100.562 26.245 100.503C26.1739 100.548 26.0027 100.87 25.9769 100.753C26.0641 100.638 26.0253 100.645 25.9995 100.631C26.0253 100.621 26.0544 100.576 26.0673 100.472C26.0415 100.51 26.0221 100.531 26.006 100.545C26.0124 100.534 26.0124 100.528 26.0221 100.514C25.9575 100.534 25.9446 100.579 25.9543 100.607C25.9446 100.628 25.9317 100.652 25.9187 100.69C25.9607 100.5 25.7927 100.631 25.8993 100.406C25.7475 100.382 25.5408 100.559 25.3922 100.58C25.4406 100.458 25.5149 100.375 25.5698 100.351H25.4761C25.5601 100.185 25.5666 100.278 25.6054 100.261C25.6538 99.9461 25.2888 100.413 25.3114 100.112L25.2209 100.226L25.2274 100.202C25.1919 100.271 25.1208 100.348 25.0917 100.361C25.1531 100.213 25.2629 100.04 25.208 100.015C25.2403 99.8561 25.0594 100.015 24.9657 100.057C24.9819 100.098 24.9302 100.171 24.8914 100.213C24.8623 100.202 24.9237 100.053 24.872 100.102L24.9722 99.9115C24.885 100.095 24.8042 100.064 24.7525 100.133C24.8139 99.9841 24.8559 100.036 24.9205 99.9357C24.8107 99.8907 24.8656 99.9115 24.7525 99.8665C24.6201 99.9738 24.6653 100.05 24.549 100.199C24.4811 100.206 24.3616 100.309 24.3681 100.161L24.2938 100.337C24.1323 100.41 24.087 100.355 24.1193 100.147C23.4086 100.611 23.1082 101.047 22.9951 101.372C22.882 101.697 22.9499 101.909 22.9499 101.909C23.0209 102.452 23.4312 102.057 23.8286 102.127V102.134Z" fill="#20BB65"/>
<path d="M38.9229 106.111L38.916 106.19C38.9263 106.155 38.9298 106.124 38.9229 106.111Z" fill="#20BB65"/>
<path d="M41.9395 106.861C41.9395 106.861 41.9427 106.851 41.946 106.844C41.9427 106.851 41.9395 106.854 41.9395 106.861Z" fill="#20BB65"/>
<path d="M38.7409 108.866C38.7409 108.866 38.7376 108.875 38.7344 108.882L38.7441 108.866H38.7409Z" fill="#20BB65"/>
<path d="M38.166 108.475C38.3049 108.617 38.2597 108.99 38.4664 108.893C38.5407 108.945 38.6473 108.886 38.7378 108.866C38.8444 108.592 38.8444 108.89 38.9445 108.665L38.9219 108.831C38.9575 108.755 38.9898 108.703 38.9833 108.797L38.9704 108.842C39.0221 108.727 39.0317 108.807 39.0576 108.748L39.0447 108.797L39.077 108.783L39.0576 108.848C39.1287 108.731 39.1707 108.734 39.1933 108.803L39.2353 108.606C39.2611 108.845 39.3839 108.45 39.3936 108.727L39.3806 108.776C39.5906 108.284 39.442 109.163 39.6456 108.7C39.6197 108.758 39.6262 108.8 39.6165 108.848C39.6714 108.803 39.7231 108.786 39.8103 108.402C39.8394 108.416 39.8103 108.53 39.778 108.679C39.8168 108.509 39.8588 108.447 39.8846 108.443L39.8588 108.506L39.9395 108.468L39.9977 108.146C40.0138 108.246 39.9202 108.533 39.9718 108.468L40.03 108.205C40.0688 108.27 40.0074 108.675 40.0138 108.883C40.1947 109.049 40.5598 108.43 40.647 108.942L40.6115 109.143C40.5533 109.433 40.7569 108.727 40.7052 108.997L40.7569 108.869C40.7536 108.921 40.7536 108.98 40.7278 109.042C40.7472 109.06 40.7569 109.011 40.7892 108.928L40.773 109.115C40.8247 109.274 40.9669 108.945 41.0347 109.035C41.0605 109.426 41.3222 109.136 41.474 108.963C41.7131 108.565 41.6679 109.762 41.9263 109.302C41.9263 109.343 41.9554 109.253 41.9619 109.222L42.1008 109.295C42.1008 109.295 42.272 109.361 42.4335 109.111C42.595 108.862 42.7372 108.295 42.7016 107.031L42.7178 106.969C42.6693 106.799 42.6273 106.754 42.5143 107.062C42.5789 106.671 42.4594 107.007 42.4658 106.879L42.4723 106.848C42.3689 107.139 42.4238 106.578 42.3269 106.837C42.3334 106.806 42.356 106.699 42.3689 106.695C42.3269 106.737 42.2655 106.813 42.3075 106.585C42.2171 106.626 42.1298 106.498 42.0071 106.848L42.0232 106.785C41.9457 107.024 41.978 106.813 41.9231 106.931C41.9263 106.9 41.9295 106.886 41.9295 106.872C41.8488 107.107 41.8294 106.889 41.7842 106.986L41.8132 106.834L41.7422 106.855L41.7583 106.893C41.6646 107.305 41.7648 106.623 41.6646 106.879C41.6323 106.817 41.403 107.72 41.3997 107.505C41.3384 107.696 41.4837 107.194 41.4223 107.336C41.4676 107.121 41.4644 107.204 41.4934 107.031C41.4417 107.125 41.487 106.799 41.4191 106.934L41.4514 106.765C41.3384 107.059 41.403 106.522 41.3093 106.806C41.2285 106.931 41.3803 106.301 41.2576 106.616L41.2867 106.384C41.2705 106.342 41.2124 106.657 41.2091 106.543C41.2414 106.401 41.2027 106.422 41.2447 106.291C41.235 106.052 41.0605 106.578 41.067 106.183C40.9895 106.457 40.9895 106.284 40.9313 106.488C40.9572 106.367 40.8602 106.45 40.9604 106.197C40.9701 106.176 40.9733 106.183 40.9604 106.228L41.0024 106.066C41.0282 105.744 40.8893 106.218 40.857 106.159C40.857 106.218 40.8764 106.207 40.8409 106.318L40.8053 106.287L40.8441 106.149L40.8053 106.052L40.7762 106.225C40.7665 106.128 40.8215 105.834 40.7375 106.069C40.6922 106.201 40.7116 106.308 40.6696 106.353C40.6567 106.225 40.6406 106.034 40.6018 105.972C40.563 106.166 40.5501 106.156 40.5307 106.19L40.5663 106.021C40.4629 106.239 40.6309 105.647 40.5372 105.82L40.5695 105.706L40.4758 106.052C40.353 106.37 40.5307 105.699 40.3757 106.138C40.4015 106.114 40.3014 106.509 40.2917 106.429L40.3337 106.27C40.311 106.301 40.2917 106.367 40.2917 106.332C40.3207 106.246 40.3498 106.097 40.324 106.121L40.3854 105.924L40.2787 106.211C40.2884 106.031 40.1915 106.235 40.2335 106.003C40.2335 106.003 40.1948 105.875 40.1237 106.121C40.1721 105.969 40.1495 105.899 40.2044 105.723C40.1463 105.892 40.0655 106.024 40.0881 105.834L40.0978 105.813C40.072 105.602 39.9137 106.041 39.904 105.792C39.862 105.986 39.8523 105.872 39.8006 106.121C39.6746 106.349 39.8006 105.584 39.5906 106.342C39.5486 106.374 39.5971 106.152 39.5906 106.111L39.6068 106.072C39.5357 106.121 39.5163 106.121 39.4776 106.093C39.4388 106.162 39.3484 106.516 39.3322 106.419C39.3774 106.28 39.358 106.301 39.3419 106.297C39.358 106.277 39.371 106.228 39.3774 106.128C39.3645 106.169 39.3548 106.197 39.3451 106.218C39.3451 106.207 39.3484 106.197 39.3516 106.183C39.316 106.225 39.3096 106.273 39.3161 106.294C39.3096 106.315 39.3031 106.342 39.2967 106.384C39.3161 106.194 39.2256 106.377 39.2805 106.135C39.1965 106.169 39.0834 106.408 38.9994 106.484C39.0253 106.356 39.0641 106.252 39.0931 106.207L39.0382 106.242C39.0834 106.062 39.0867 106.145 39.1093 106.114C39.1319 105.809 38.9348 106.374 38.9413 106.09L38.8929 106.228V106.204C38.8767 106.28 38.8379 106.377 38.8218 106.398C38.8541 106.239 38.9122 106.038 38.8799 106.038C38.8961 105.882 38.7959 106.093 38.7442 106.169C38.7539 106.201 38.7281 106.287 38.7055 106.339C38.6893 106.339 38.7216 106.183 38.6926 106.246L38.7442 106.034C38.699 106.235 38.6506 106.239 38.6247 106.322C38.657 106.162 38.6829 106.194 38.7152 106.076C38.6505 106.076 38.6829 106.076 38.6215 106.079C38.5504 106.228 38.5762 106.28 38.5149 106.46C38.4761 106.495 38.4115 106.633 38.4115 106.495L38.3727 106.685C38.2823 106.813 38.2564 106.782 38.2726 106.585C37.4843 107.987 37.6491 108.634 37.6491 108.634C37.7008 109.094 37.9237 108.575 38.1466 108.485L38.166 108.475Z" fill="#20BB65"/>
</svg>
