<svg width="85" height="123" viewBox="0 0 85 123" fill="none" xmlns="http://www.w3.org/2000/svg">
<path d="M83.962 2.44446L83.8867 2.43042C83.9194 2.44444 83.9489 2.45147 83.962 2.44446Z" fill="#20BB65"/>
<path d="M82.6445 5.69287C82.6445 5.69287 82.6516 5.70048 82.6587 5.70428C82.6552 5.69668 82.6481 5.69667 82.6445 5.69287Z" fill="#20BB65"/>
<path d="M81.4018 1.97092C81.4018 1.97092 81.3916 1.96361 81.3848 1.95996L81.4018 1.97092Z" fill="#20BB65"/>
<path d="M81.8012 1.44764C81.6613 1.57314 81.3164 1.48598 81.3945 1.69862C81.3392 1.76485 81.388 1.87641 81.401 1.96704C81.645 2.10997 81.3685 2.06815 81.5669 2.20062L81.4173 2.1553C81.4856 2.20061 81.5279 2.23894 81.4433 2.22151L81.401 2.20406C81.5019 2.27378 81.427 2.27031 81.4791 2.30517L81.4368 2.28776L81.4466 2.32261L81.388 2.29121C81.4889 2.37836 81.4823 2.42369 81.4173 2.43415L81.593 2.50734C81.3685 2.49688 81.7198 2.68164 81.4628 2.64678L81.4205 2.62589C81.8467 2.91871 81.0561 2.6154 81.4563 2.90125C81.4075 2.86639 81.3652 2.86642 81.3229 2.8455C81.3555 2.90825 81.3652 2.964 81.7068 3.12086C81.6906 3.14875 81.5897 3.09647 81.4596 3.03721C81.6092 3.10692 81.6613 3.16272 81.6613 3.18712L81.6092 3.14878L81.632 3.23942L81.9183 3.35793C81.824 3.35793 81.5734 3.20455 81.6255 3.27078L81.8565 3.38231C81.7914 3.4102 81.427 3.27078 81.2383 3.23244C81.0594 3.37187 81.5572 3.87385 81.0724 3.84248L80.8967 3.76231C80.6429 3.63333 81.2448 4.00283 81.0106 3.89128L81.1147 3.97145C81.0659 3.95402 81.0138 3.94005 80.9618 3.90171C80.9423 3.91565 80.9845 3.93657 81.0529 3.99235L80.8869 3.92962C80.7308 3.94008 81.0041 4.16316 80.9065 4.20847C80.5453 4.1283 80.7535 4.45947 80.8707 4.65817C81.1667 5.01374 80.1094 4.60936 80.4542 4.9963C80.4184 4.97887 80.49 5.03814 80.516 5.05557L80.4119 5.16366C80.4119 5.16366 80.3046 5.30657 80.477 5.5471C80.6527 5.78414 81.0984 6.13622 82.2372 6.49875L82.286 6.5336C82.4552 6.5336 82.5105 6.50225 82.2729 6.28612C82.6048 6.47436 82.3413 6.2408 82.4551 6.28612L82.4812 6.30352C82.2534 6.10482 82.7415 6.33143 82.543 6.14667C82.569 6.1641 82.6569 6.21988 82.6569 6.23382C82.6341 6.17456 82.5853 6.08393 82.7772 6.19548C82.7675 6.08393 82.9171 6.02117 82.6341 5.7911L82.6861 5.82595C82.4942 5.67606 82.6731 5.7702 82.5853 5.67608C82.6113 5.69002 82.6243 5.69349 82.6373 5.70046C82.4486 5.55057 82.6504 5.58894 82.5788 5.51225L82.7089 5.58195V5.50178L82.6699 5.50876C82.3218 5.30309 82.9139 5.58195 82.7089 5.40766C82.774 5.38674 82.0159 4.91265 82.2079 4.96494C82.0517 4.85339 82.4682 5.13228 82.3575 5.03119C82.543 5.13228 82.4649 5.10786 82.6178 5.18106C82.5462 5.10089 82.8326 5.23334 82.7252 5.12527L82.8716 5.202C82.6308 5.00679 83.1091 5.20545 82.8716 5.03464C82.7773 4.9196 83.3206 5.22639 83.0603 5.02072L83.2685 5.10089C83.3108 5.09392 83.0343 4.95798 83.1417 4.97889C83.2653 5.04513 83.2555 4.99633 83.3661 5.07302C83.5874 5.11137 83.1449 4.80809 83.5093 4.89523C83.275 4.7558 83.4377 4.78718 83.262 4.6826C83.3694 4.73489 83.3141 4.60939 83.5256 4.76975C83.5418 4.78369 83.5353 4.78718 83.4963 4.76975L83.6362 4.84643C83.929 4.93706 83.5223 4.68606 83.5841 4.66166C83.5288 4.6512 83.5353 4.6756 83.441 4.61285L83.48 4.58149L83.5971 4.65119L83.6947 4.62332L83.5418 4.55707C83.6329 4.56404 83.8932 4.6791 83.6947 4.53966C83.5809 4.46646 83.48 4.46995 83.4442 4.41417C83.5646 4.42463 83.7468 4.43508 83.8151 4.40371C83.6427 4.32702 83.6557 4.31657 83.6264 4.2852L83.7761 4.3549C83.5939 4.20152 84.1112 4.49085 83.9713 4.3549L84.0722 4.40719L83.7696 4.24686C83.4963 4.05862 84.0884 4.36538 83.711 4.11788C83.7273 4.15274 83.3791 3.97495 83.454 3.97843L83.5939 4.05162C83.5711 4.02374 83.5126 3.98886 83.5451 3.99235C83.6199 4.03766 83.7533 4.09346 83.737 4.06209L83.9095 4.15971L83.6622 3.99584C83.8281 4.03418 83.6557 3.89476 83.8639 3.97145C83.8639 3.97145 83.9908 3.94704 83.7761 3.82852C83.9095 3.90521 83.9778 3.89128 84.134 3.97494C83.9843 3.88431 83.8769 3.77274 84.0526 3.82852L84.0689 3.84248C84.2706 3.8355 83.8867 3.60194 84.1242 3.61937C83.9485 3.54617 84.0591 3.54967 83.8314 3.46252C83.6394 3.2952 84.3357 3.52178 83.6557 3.20108C83.6297 3.15227 83.8314 3.22895 83.8737 3.22895L83.9062 3.25333C83.8737 3.16618 83.8737 3.14529 83.9062 3.10346C83.8477 3.05117 83.5256 2.9152 83.6199 2.90474C83.7435 2.97097 83.724 2.94311 83.7305 2.92916C83.7468 2.94659 83.7924 2.97101 83.8867 2.98495C83.8477 2.96403 83.8249 2.95009 83.8054 2.93963C83.8151 2.94312 83.8249 2.94657 83.8379 2.95355C83.8021 2.90823 83.7598 2.89776 83.737 2.90125C83.7175 2.89428 83.6915 2.88383 83.6557 2.87338C83.8314 2.91521 83.672 2.79321 83.8932 2.88036C83.8704 2.77926 83.6622 2.63286 83.5971 2.53525C83.7143 2.5736 83.8086 2.62937 83.8477 2.66423L83.8216 2.60146C83.9843 2.6677 83.9062 2.66421 83.9355 2.6921C84.2186 2.7409 83.711 2.47252 83.9746 2.50389L83.8509 2.44112H83.8737C83.8054 2.42021 83.7175 2.36792 83.698 2.35049C83.8444 2.3958 84.0266 2.47947 84.0299 2.44112C84.1763 2.46901 83.9843 2.34004 83.9192 2.2773C83.89 2.28775 83.8119 2.2494 83.7631 2.225C83.7631 2.20757 83.9095 2.25288 83.8509 2.21453L84.0461 2.28427C83.8607 2.22153 83.8639 2.16922 83.7858 2.13087C83.9323 2.17619 83.8997 2.20057 84.0071 2.24589V2.13785C83.8769 2.0507 83.8281 2.07509 83.6622 1.9984C83.6329 1.95309 83.5093 1.87641 83.6362 1.88338L83.4605 1.83109C83.3434 1.72651 83.3759 1.6986 83.5614 1.72649C82.9237 1.26635 82.4454 1.08161 82.133 1.00492C81.8175 0.928232 81.6678 0.956114 81.6678 0.956114C81.2383 0.970058 81.7166 1.22455 81.7914 1.45811L81.8012 1.44764Z" fill="#20BB65"/>
<path d="M76.9342 13.3754L76.8613 13.3328C76.8845 13.3612 76.911 13.3789 76.9342 13.3754Z" fill="#20BB65"/>
<path d="M71.8145 17.6165C71.8145 17.6165 71.8145 17.6274 71.8181 17.6347C71.8181 17.6274 71.8181 17.6201 71.8145 17.6165Z" fill="#20BB65"/>
<path d="M74.5227 12.0158C74.5227 12.0158 74.5192 12.0015 74.5156 11.9944L74.5227 12.0158Z" fill="#20BB65"/>
<path d="M75.5666 11.3112C75.2673 11.4715 74.9712 11.252 74.8216 11.6005C74.6849 11.6876 74.6133 11.8724 74.5255 12.0153C74.6491 12.2906 74.3726 12.1582 74.4572 12.4056L74.3303 12.3011C74.3596 12.3847 74.3661 12.4544 74.288 12.4056L74.2619 12.3673C74.3042 12.4963 74.2196 12.4718 74.2424 12.5346L74.2131 12.4962L74.1839 12.5485L74.1513 12.4893C74.1708 12.6461 74.1123 12.7054 74.0212 12.7089L74.1448 12.8622C73.8943 12.789 74.096 13.155 73.8325 13.04L73.8065 13.0017C73.9789 13.5349 73.3802 12.9006 73.5331 13.4164C73.5136 13.3502 73.4648 13.3397 73.4388 13.3014C73.4063 13.4025 73.3542 13.4826 73.582 13.7998C73.5299 13.8347 73.4713 13.7336 73.377 13.6185C73.4778 13.758 73.4746 13.8486 73.4453 13.8869L73.4258 13.8207L73.351 13.9567L73.5592 14.2006C73.4486 14.1727 73.3184 13.8939 73.3087 14.002L73.4648 14.2181C73.3542 14.239 73.0744 13.9497 72.8857 13.8521C72.505 14.0124 72.5343 14.8489 71.9682 14.6886L71.8446 14.5317C71.6786 14.2912 71.9975 14.957 71.838 14.7409L71.8739 14.8803C71.8348 14.8454 71.7827 14.8141 71.7665 14.7444C71.7274 14.7583 71.7535 14.8001 71.7762 14.8907L71.6428 14.7653C71.4379 14.7444 71.516 15.1208 71.3403 15.1591C70.9759 14.9674 70.849 15.4763 70.7676 15.7761C70.7351 16.3337 69.8371 15.5356 69.8274 16.142C69.7981 16.1107 69.8209 16.2082 69.8404 16.2361L69.5769 16.3616C69.5769 16.3616 69.2678 16.5324 69.2157 16.8914C69.1669 17.2504 69.3654 17.8116 70.4358 18.5679L70.4618 18.6271C70.6798 18.6724 70.7839 18.6446 70.7188 18.2995C70.9303 18.6306 70.8522 18.2577 70.9498 18.3483L70.9628 18.3797C70.8945 18.059 71.2654 18.4807 71.2101 18.1914C71.2231 18.2193 71.2752 18.3134 71.2589 18.3344C71.2947 18.2507 71.3305 18.1218 71.4509 18.3135C71.5615 18.1636 71.8153 18.1183 71.7177 17.7453L71.7437 17.8046C71.6689 17.5571 71.7925 17.7279 71.7827 17.578C71.8023 17.6024 71.812 17.6129 71.8185 17.6234C71.7469 17.3759 71.9617 17.477 71.9519 17.355L72.0333 17.4839L72.1244 17.3759H72.0658C71.8608 17.0099 72.287 17.5432 72.2252 17.2539C72.3293 17.2434 71.9161 16.4069 72.0983 16.5254C72.03 16.3337 72.235 16.8182 72.209 16.6509C72.3261 16.8321 72.2578 16.7868 72.3619 16.9228C72.3619 16.7973 72.5701 17.0448 72.5571 16.874L72.6514 17.0168C72.5733 16.6927 72.9377 17.0831 72.8336 16.7938C72.8466 16.6091 73.1687 17.1702 73.0809 16.8217L73.2436 16.9855C73.3054 16.9855 73.1167 16.7276 73.2241 16.7868C73.3021 16.9088 73.3444 16.8426 73.3932 16.975C73.621 17.09 73.4193 16.5533 73.7642 16.7694C73.6373 16.515 73.7967 16.6021 73.6991 16.4104C73.7707 16.508 73.8422 16.3233 73.9171 16.6021C73.9236 16.6265 73.9106 16.63 73.8845 16.5916L73.9691 16.738C74.2197 16.9402 74.0082 16.4906 74.109 16.4697C74.057 16.4418 74.0342 16.4766 73.9887 16.3651L74.07 16.3302L74.135 16.4557L74.2847 16.4418L74.1708 16.3093C74.2717 16.3442 74.4572 16.5707 74.3726 16.3233C74.3205 16.1908 74.1936 16.1699 74.2131 16.0828C74.3465 16.1281 74.5482 16.1943 74.6654 16.1664C74.545 16.0131 74.571 15.9991 74.571 15.9503L74.6719 16.0863C74.6263 15.8214 74.9192 16.3616 74.9029 16.1386L74.9647 16.2396L74.7825 15.9329C74.6686 15.5948 75.0298 16.1839 74.8508 15.7377C74.8313 15.79 74.6166 15.4484 74.7012 15.4728L74.7858 15.6157C74.789 15.5669 74.7565 15.5077 74.7923 15.5216C74.8313 15.6053 74.9257 15.7203 74.9419 15.668L75.0395 15.8527L74.9289 15.553C75.0818 15.6506 75.033 15.4066 75.1892 15.5739C75.1892 15.5739 75.3649 15.5739 75.2413 15.3474C75.3128 15.4903 75.4072 15.4903 75.5015 15.6506C75.4234 15.4833 75.4202 15.2985 75.5666 15.4205L75.5731 15.4415C75.8139 15.4903 75.6252 15.0476 75.8757 15.1382C75.7521 14.9884 75.8757 15.0197 75.7065 14.835C75.6675 14.5422 76.2271 15.0546 75.7878 14.4097C75.8139 14.3296 75.9603 14.4969 76.0091 14.5074L76.0221 14.5492C76.0774 14.4132 76.1002 14.3819 76.1815 14.3331C76.1685 14.2425 75.9505 13.9566 76.0676 13.9671C76.136 14.0961 76.1457 14.0542 76.1685 14.0298C76.1685 14.0612 76.1945 14.1065 76.2856 14.1518C76.2629 14.1135 76.2531 14.0856 76.2433 14.0612C76.2499 14.0682 76.2564 14.0752 76.2661 14.0891C76.2726 14.0124 76.2368 13.9845 76.2075 13.988C76.1945 13.9706 76.175 13.9497 76.1457 13.9253C76.3019 14.0298 76.2499 13.8103 76.4093 13.995C76.4906 13.8416 76.4093 13.5698 76.4451 13.4059C76.5362 13.4931 76.585 13.6011 76.5882 13.6639L76.6273 13.5628C76.7444 13.7022 76.6565 13.6813 76.6565 13.7301C76.9266 13.8765 76.6338 13.3432 76.9038 13.4582L76.829 13.3293L76.8485 13.3432C76.7997 13.2875 76.7542 13.1864 76.7509 13.155C76.868 13.263 76.9851 13.4338 77.0274 13.3816C77.1641 13.4617 77.0828 13.2212 77.0763 13.1097C77.034 13.1167 76.9852 13.04 76.9591 12.9877C76.9787 12.9598 77.0958 13.0679 77.0697 12.9982L77.2129 13.155C77.073 13.0121 77.1316 12.9319 77.0827 12.8587C77.1999 12.9633 77.1381 12.9982 77.2096 13.0923C77.2877 12.9842 77.2487 13.04 77.3268 12.9319C77.2682 12.7611 77.1836 12.789 77.0827 12.6252C77.099 12.552 77.0405 12.3986 77.1739 12.444L77.034 12.3185C77.0177 12.1268 77.0763 12.0954 77.2585 12.1826C77.0307 11.3077 76.6988 10.8999 76.432 10.6978C76.1653 10.4956 75.9603 10.5061 75.9603 10.5061C75.4658 10.4259 75.7228 10.9452 75.5536 11.3251L75.5666 11.3112Z" fill="#20BB65"/>
<path d="M62.9776 22.6744L62.9219 22.6111C62.9383 22.6462 62.9547 22.6709 62.9776 22.6744Z" fill="#20BB65"/>
<path d="M62.2804 20.2549C61.9421 20.3107 61.7176 20.0039 61.467 20.2968C61.3076 20.3386 61.1807 20.4955 61.0539 20.607C61.0961 20.9103 60.8652 20.7011 60.8749 20.9661L60.7805 20.8266C60.7838 20.9173 60.7708 20.987 60.709 20.9173L60.6927 20.8719C60.6992 21.0079 60.6211 20.9591 60.6244 21.0288L60.6081 20.9835L60.5658 21.0288L60.5496 20.9626C60.5268 21.1194 60.452 21.1648 60.3641 21.1369L60.4454 21.3216C60.2177 21.1787 60.3218 21.5901 60.0908 21.4018L60.0745 21.3565C60.1071 21.9212 59.6808 21.1403 59.6971 21.6842C59.6971 21.6179 59.6516 21.5936 59.6353 21.5447C59.58 21.6319 59.5052 21.6981 59.6483 22.0676C59.5898 22.0886 59.5572 21.9735 59.4922 21.8341C59.5572 21.9944 59.5312 22.085 59.4922 22.1129V22.0432L59.3815 22.1548L59.5247 22.4476C59.4238 22.3918 59.362 22.0851 59.3262 22.1896L59.4238 22.4406C59.31 22.4336 59.1082 22.0781 58.9455 21.9317C58.5291 21.9909 58.3664 22.8136 57.8459 22.5208L57.758 22.336C57.6474 22.0606 57.8166 22.7892 57.706 22.5382L57.7125 22.6811C57.6832 22.6358 57.6376 22.594 57.6344 22.5243C57.5921 22.5312 57.6084 22.5766 57.6116 22.6707L57.5075 22.5173C57.309 22.4476 57.3058 22.8345 57.1203 22.8345C56.8015 22.5626 56.564 23.0367 56.4273 23.3121C56.2874 23.8489 55.5489 22.8798 55.4252 23.4794C55.4025 23.4446 55.409 23.5422 55.4187 23.5735L55.1324 23.6467C55.1324 23.6467 53.7659 24.079 55.5977 25.9858L55.6107 26.0485C55.8156 26.1357 55.923 26.1287 55.9165 25.7801C56.0662 26.1496 56.0532 25.7697 56.1345 25.8742L56.141 25.9056C56.1312 25.5779 56.4176 26.066 56.4143 25.7731C56.4208 25.8045 56.4566 25.9091 56.4371 25.9231C56.4859 25.8499 56.5445 25.7279 56.6258 25.944C56.7592 25.822 57.013 25.8324 56.9837 25.4455L56.9999 25.5083C56.9707 25.2503 57.0618 25.442 57.0813 25.2956C57.0943 25.3235 57.1041 25.3339 57.1073 25.3479C57.0845 25.0899 57.2732 25.2363 57.2863 25.1178L57.3416 25.2607L57.4522 25.1771L57.3936 25.1666C57.2635 24.7622 57.5791 25.3758 57.5726 25.0829C57.6734 25.0969 57.4359 24.1871 57.5921 24.3439C57.5628 24.1417 57.6669 24.6612 57.6767 24.4938C57.7548 24.6995 57.6962 24.6368 57.7743 24.7936C57.7971 24.6716 57.95 24.9644 57.9727 24.7936L58.0346 24.954C58.0215 24.6193 58.2948 25.0864 58.2558 24.7797C58.3046 24.6054 58.5031 25.2293 58.4868 24.8703L58.6104 25.069C58.669 25.0864 58.5421 24.7901 58.63 24.8738C58.6788 25.0132 58.7341 24.9575 58.7536 25.1004C58.9456 25.2677 58.8642 24.6995 59.1505 24.9958C59.0822 24.7169 59.2156 24.8424 59.1635 24.6298C59.2124 24.7448 59.3197 24.5845 59.3327 24.8703C59.3327 24.8947 59.3197 24.8947 59.3034 24.8494L59.3522 25.0097C59.5507 25.2712 59.4433 24.7797 59.541 24.7901C59.4954 24.7483 59.4694 24.7762 59.4499 24.6577L59.5344 24.6437L59.5702 24.7831L59.7134 24.8111L59.6353 24.6542C59.7232 24.7134 59.85 24.9854 59.824 24.7239C59.8012 24.581 59.6841 24.5252 59.7264 24.4485C59.8435 24.5287 60.0225 24.6472 60.1364 24.6507C60.055 24.4694 60.0843 24.466 60.0973 24.4172L60.1624 24.5775C60.1787 24.3091 60.3381 24.9121 60.3674 24.6925L60.4031 24.8076L60.299 24.4625C60.2665 24.1034 60.478 24.7727 60.4096 24.2951C60.3804 24.3404 60.2535 23.95 60.3283 23.9988L60.3771 24.1592C60.3901 24.1139 60.3771 24.0442 60.4064 24.0686C60.4227 24.1592 60.4877 24.2986 60.517 24.2533L60.5658 24.459L60.53 24.1418C60.6537 24.2812 60.6634 24.0302 60.7741 24.2394C60.7741 24.2394 60.9432 24.2881 60.8749 24.0372C60.9074 24.1975 60.9985 24.2219 61.0506 24.4032C61.0181 24.2219 61.0571 24.0407 61.1677 24.201V24.2254C61.3825 24.3404 61.3109 23.8629 61.5289 24.0267C61.4475 23.8455 61.5549 23.9151 61.4443 23.6851C61.4801 23.3923 61.8802 24.0546 61.6297 23.3016C61.672 23.2354 61.7696 23.4411 61.8152 23.462V23.5073C61.903 23.3957 61.9323 23.3714 62.0234 23.3504C62.0364 23.2598 61.903 22.9182 62.0104 22.967C62.0429 23.1134 62.0624 23.0751 62.0885 23.0611C62.0787 23.089 62.095 23.1413 62.1666 23.2145C62.1535 23.1692 62.1503 23.1413 62.1503 23.1169C62.1535 23.1273 62.16 23.1343 62.1666 23.1483C62.1926 23.0785 62.1665 23.0402 62.1373 23.0332C62.1308 23.0123 62.1178 22.9879 62.095 22.953C62.2154 23.1029 62.2251 22.8764 62.326 23.1064C62.4431 22.9879 62.4431 22.702 62.5212 22.5556C62.583 22.6672 62.6025 22.7857 62.5863 22.8485L62.6513 22.7648C62.7229 22.9356 62.6448 22.8868 62.6351 22.9321C62.8498 23.1622 62.7197 22.5591 62.9409 22.7578L62.9084 22.6114L62.9246 22.6289C62.8954 22.5591 62.8791 22.4476 62.8856 22.4162C62.9637 22.5557 63.0287 22.7578 63.0808 22.723C63.1849 22.845 63.1784 22.5905 63.2012 22.4824C63.1589 22.472 63.1329 22.3849 63.1264 22.3256C63.1524 22.3082 63.2305 22.4476 63.2272 22.3709L63.3151 22.5696C63.224 22.3883 63.302 22.3291 63.276 22.2419C63.3541 22.3814 63.2858 22.3918 63.3281 22.5068C63.4322 22.4336 63.3801 22.4685 63.4842 22.3953C63.481 22.214 63.3931 22.2106 63.3443 22.0223C63.3801 21.9561 63.3736 21.7922 63.4842 21.8829L63.3899 21.7156C63.4289 21.5308 63.4973 21.5203 63.6404 21.6633C63.6957 20.7604 63.5135 20.2515 63.3248 19.9656C63.1361 19.6798 62.9344 19.6205 62.9344 19.6205C62.4821 19.373 62.5602 19.9586 62.2772 20.2654L62.2804 20.2549Z" fill="#20BB65"/>
<path d="M47.7758 28.9377L47.7266 28.8708C47.7397 28.906 47.7528 28.9341 47.7758 28.9377Z" fill="#20BB65"/>
<path d="M47.3044 26.4555C46.9595 26.4799 46.7611 26.1523 46.478 26.4172C46.3121 26.4451 46.1722 26.588 46.0323 26.6891C46.0485 26.9958 45.8338 26.7658 45.8208 27.0307L45.7362 26.8843C45.7329 26.9749 45.7134 27.0411 45.6581 26.9679L45.6451 26.9226C45.6386 27.0586 45.567 27.0063 45.5638 27.0725L45.5507 27.0272L45.5052 27.0691L45.4922 26.9993C45.4564 27.1562 45.3783 27.1911 45.2905 27.1597L45.3588 27.3479C45.1408 27.1875 45.2124 27.6059 44.9976 27.4002L44.9846 27.3549C44.9749 27.9231 44.604 27.1109 44.5812 27.6547C44.5812 27.5884 44.5389 27.5606 44.5259 27.5118C44.4608 27.5954 44.386 27.6582 44.5031 28.0347C44.4413 28.0521 44.4185 27.9335 44.3632 27.7906C44.4153 27.9545 44.386 28.0416 44.3437 28.0695V27.9963L44.2298 28.1009L44.3567 28.4007C44.2591 28.3379 44.2168 28.0277 44.1745 28.1287L44.2591 28.3867C44.1452 28.3728 43.963 28.0033 43.8101 27.8464C43.3839 27.8813 43.1757 28.69 42.6681 28.3693L42.59 28.181C42.4924 27.9022 42.6226 28.6377 42.525 28.3798V28.5261C42.4957 28.4808 42.4534 28.4355 42.4534 28.3623C42.4111 28.3623 42.4241 28.4111 42.4241 28.5087L42.3265 28.3484C42.128 28.2682 42.1053 28.6551 41.9231 28.6481C41.614 28.3623 41.3537 28.8259 41.204 29.0944C41.0413 29.6242 40.3386 28.6272 40.1889 29.2233C40.1661 29.1885 40.1694 29.2861 40.1792 29.3175L39.8896 29.3802C39.8896 29.3802 38.5068 29.7672 40.2833 31.7332L40.2963 31.796C40.4948 31.8901 40.6021 31.8866 40.6086 31.538C40.7485 31.911 40.7453 31.531 40.8201 31.6426L40.8266 31.674C40.8266 31.3463 41.0967 31.8483 41.0999 31.552C41.1064 31.5833 41.1389 31.6879 41.1194 31.7018C41.1682 31.6286 41.2301 31.5136 41.3081 31.7332C41.4448 31.6182 41.6953 31.6391 41.6823 31.2522L41.6953 31.3149C41.6758 31.0569 41.7571 31.2522 41.7831 31.1092C41.7962 31.1371 41.8059 31.1511 41.8092 31.1615C41.7962 30.9036 41.9784 31.0569 41.9946 30.9384L42.0434 31.0849L42.154 31.0046L42.0987 30.9907C41.9849 30.5794 42.2744 31.2103 42.2777 30.914C42.3785 30.9349 42.1801 30.0111 42.3298 30.1785C42.3102 29.9728 42.3916 30.4992 42.4078 30.3319C42.4762 30.541 42.4209 30.4748 42.4924 30.6352C42.5217 30.5131 42.6616 30.8129 42.6909 30.6421L42.7462 30.806C42.7462 30.4713 43 30.9524 42.9739 30.6456C43.0325 30.4748 43.1984 31.1092 43.1984 30.7467L43.3091 30.9524C43.3644 30.9733 43.2537 30.67 43.3383 30.7572C43.3806 30.8966 43.436 30.8443 43.449 30.9907C43.6312 31.1685 43.5791 30.5968 43.8459 30.9106C43.7906 30.6282 43.9175 30.7606 43.8752 30.548C43.9175 30.6665 44.0313 30.5131 44.0281 30.799C44.0281 30.8234 44.0151 30.8234 43.9988 30.7781L44.0411 30.9419C44.2233 31.2138 44.142 30.7188 44.2396 30.7328C44.1973 30.6875 44.168 30.7153 44.155 30.5968L44.2396 30.5898L44.2656 30.7328L44.4055 30.7676L44.3372 30.6038C44.4218 30.67 44.5324 30.9489 44.5194 30.684C44.5064 30.541 44.3925 30.4783 44.4348 30.4016C44.5487 30.4887 44.7178 30.6177 44.8285 30.6352C44.7601 30.4504 44.7862 30.4469 44.8024 30.3981L44.8577 30.562C44.887 30.297 45.0106 30.9106 45.0562 30.6909L45.0855 30.8094L45.0009 30.4574C44.9879 30.0983 45.1603 30.7781 45.1213 30.297C45.0887 30.3389 44.9846 29.9415 45.0595 29.9938L45.0985 30.1576C45.1148 30.1123 45.1018 30.0425 45.131 30.0704C45.1408 30.1611 45.1961 30.304 45.2286 30.2621L45.2644 30.4713L45.2482 30.1506C45.362 30.3005 45.3881 30.0495 45.4824 30.2656C45.4824 30.2656 45.6451 30.3284 45.5963 30.0739C45.6191 30.2343 45.7069 30.2691 45.746 30.4539C45.7232 30.2691 45.7752 30.0913 45.8728 30.2621V30.2866C46.0746 30.4225 46.0355 29.938 46.2372 30.1192C46.1689 29.931 46.273 30.0112 46.1754 29.7706C46.2307 29.4813 46.5789 30.175 46.3836 29.4046C46.4324 29.3419 46.5138 29.5545 46.5561 29.5824V29.6277C46.6472 29.5231 46.6797 29.5057 46.7708 29.4918C46.7903 29.4046 46.683 29.0491 46.7871 29.1083C46.8066 29.2547 46.8294 29.2199 46.8587 29.2094C46.8489 29.2373 46.8587 29.2896 46.927 29.3698C46.9172 29.3244 46.9172 29.2965 46.9172 29.2721C46.9205 29.2826 46.9237 29.2896 46.9302 29.307C46.9628 29.2408 46.94 29.1989 46.9107 29.1885C46.9042 29.1676 46.8945 29.1397 46.8749 29.1048C46.9823 29.2652 47.0083 29.0421 47.0897 29.2791C47.2133 29.1711 47.2361 28.8887 47.3272 28.7527C47.3792 28.8713 47.3857 28.9898 47.3695 29.049L47.4378 28.9724C47.4931 29.1501 47.4215 29.0909 47.4085 29.1362C47.6005 29.3837 47.5224 28.7737 47.7241 28.9933L47.7046 28.8434L47.7176 28.8643C47.6948 28.7911 47.6883 28.6795 47.6981 28.6516C47.7632 28.798 47.8119 29.0072 47.8673 28.9758C47.9616 29.1083 47.9746 28.8538 48.0072 28.7493C47.9649 28.7353 47.9486 28.6447 47.9453 28.5854C47.9714 28.568 48.0397 28.7179 48.0397 28.6412L48.108 28.8469C48.0332 28.6551 48.1145 28.6063 48.0983 28.5192C48.1633 28.6656 48.0983 28.6691 48.1243 28.7876C48.2349 28.7248 48.1796 28.7562 48.2902 28.6935C48.3032 28.5157 48.2154 28.5017 48.1861 28.3065C48.2284 28.2473 48.2349 28.08 48.339 28.1845L48.2609 28.0067C48.3195 27.8255 48.3878 27.8255 48.5147 27.9859C48.801 26.2011 48.0202 25.8734 48.0202 25.8734C47.5875 25.5771 47.6037 26.1697 47.2914 26.4485L47.3044 26.4555Z" fill="#20BB65"/>
<path d="M32.5063 34.6855L32.457 34.6187C32.4702 34.6538 32.4866 34.682 32.5063 34.6855Z" fill="#20BB65"/>
<path d="M31.9601 32.2206C31.6119 32.2555 31.4037 31.9383 31.1272 32.2137C30.9612 32.2485 30.8246 32.3984 30.6879 32.5065C30.714 32.8097 30.4895 32.5936 30.4862 32.8586L30.3951 32.7156C30.3951 32.8063 30.3789 32.876 30.3203 32.8028L30.3073 32.7575C30.3073 32.8934 30.2324 32.8446 30.2324 32.9109L30.2162 32.8655L30.1706 32.9074L30.1576 32.8376C30.1251 32.9945 30.0503 33.0363 29.9592 33.0084L30.034 33.1932C29.8095 33.0468 29.8973 33.4581 29.6728 33.2664L29.6566 33.2211C29.6728 33.7893 29.2629 32.998 29.2629 33.5418C29.2629 33.4756 29.2173 33.4477 29.2011 33.4023C29.1393 33.4895 29.0644 33.5557 29.2011 33.9252C29.1393 33.9461 29.11 33.8311 29.0482 33.6917C29.11 33.8521 29.0839 33.9427 29.0417 33.9705V33.8974L28.931 34.0089L29.0709 34.3017C28.9701 34.2425 28.9115 33.9392 28.8757 34.0403L28.9733 34.2913C28.8594 34.2843 28.6577 33.9253 28.4951 33.7788C28.0656 33.8416 27.9029 34.6643 27.3726 34.3819L27.2815 34.2006C27.1676 33.9287 27.3433 34.6538 27.2294 34.4028L27.2359 34.5492C27.2034 34.5039 27.1579 34.4621 27.1546 34.3924C27.1123 34.3993 27.1286 34.4446 27.1351 34.5422L27.0277 34.3889C26.8227 34.3261 26.826 34.7131 26.6405 34.72C26.3087 34.4586 26.0777 34.9466 25.9475 35.229C25.8272 35.7728 25.0366 34.849 24.9357 35.4556C24.9097 35.4207 24.9227 35.5218 24.9357 35.5532L24.6494 35.6473C24.6494 35.6473 24.3078 35.7833 24.2167 36.1388C24.1223 36.4944 24.285 37.0661 25.2578 37.948L25.2773 38.0108C25.4823 38.084 25.5864 38.07 25.5604 37.7249C25.7328 38.084 25.6938 37.704 25.7783 37.8051L25.7881 37.8365C25.7588 37.5123 26.0679 37.9829 26.0484 37.6901C26.0582 37.7214 26.0972 37.8225 26.0809 37.8365C26.1232 37.7598 26.1753 37.6377 26.2696 37.8504C26.3933 37.7249 26.6405 37.7214 26.5982 37.338L26.6145 37.4007C26.5755 37.1463 26.6698 37.3345 26.6828 37.1881C26.6991 37.2159 26.7089 37.2264 26.7121 37.2404C26.6796 36.9859 26.8715 37.1219 26.878 37.0033L26.9399 37.1428L27.044 37.0556L26.9887 37.0452C26.8455 36.6478 27.1774 37.2473 27.1611 36.9545C27.262 36.9685 26.9952 36.0656 27.1611 36.219C27.1286 36.0168 27.2457 36.5327 27.249 36.3654C27.3335 36.5676 27.2717 36.5049 27.3531 36.6617C27.3726 36.5362 27.532 36.8256 27.5483 36.6547L27.6133 36.8116C27.5906 36.4769 27.8736 36.9406 27.8281 36.6338C27.8736 36.456 28.0819 37.0765 28.0591 36.721L28.1827 36.9197C28.2413 36.9336 28.1079 36.6408 28.199 36.7244C28.251 36.8604 28.3031 36.8046 28.3259 36.9475C28.5178 37.1114 28.43 36.5466 28.713 36.843C28.6415 36.5641 28.7749 36.6896 28.7196 36.4804C28.7684 36.5955 28.8725 36.4351 28.8887 36.721C28.8887 36.7454 28.8757 36.7454 28.8595 36.7001L28.9115 36.8604C29.1067 37.1218 28.9961 36.6303 29.097 36.6408C29.0514 36.599 29.0254 36.6268 29.0059 36.5083L29.0905 36.4978L29.1262 36.6373L29.2694 36.6652L29.1913 36.5083C29.2792 36.5676 29.4061 36.8395 29.3768 36.578C29.354 36.4351 29.2401 36.3793 29.2792 36.3027C29.3963 36.3828 29.5687 36.5048 29.6826 36.5118C29.6045 36.3305 29.6305 36.327 29.6435 36.2782L29.7086 36.4386C29.7249 36.1702 29.8778 36.7767 29.9103 36.5571L29.9429 36.6721L29.842 36.3236C29.8095 35.9645 30.0145 36.6373 29.9526 36.1562C29.9234 36.2016 29.7997 35.8076 29.8746 35.8599L29.9201 36.0203C29.9331 35.975 29.9201 35.9087 29.9494 35.9331C29.9656 36.0238 30.0275 36.1632 30.0568 36.1179L30.1023 36.3236L30.0698 36.0064C30.1901 36.1493 30.2032 35.8983 30.3073 36.1074C30.3073 36.1074 30.47 36.1632 30.4081 35.9087C30.4374 36.0691 30.5285 36.097 30.5741 36.2817C30.5415 36.1005 30.5871 35.9192 30.6912 36.083V36.1074C30.8994 36.2329 30.8376 35.7554 31.0458 35.9227C30.971 35.7379 31.0751 35.8111 30.971 35.5776C31.0165 35.2847 31.3875 35.9645 31.163 35.2046C31.2085 35.1383 31.2964 35.3475 31.3419 35.3754V35.4207C31.433 35.3126 31.4623 35.2917 31.5501 35.2743C31.5664 35.1836 31.446 34.8386 31.5501 34.8908C31.5762 35.0372 31.5957 34.9989 31.625 34.9885C31.6152 35.0163 31.625 35.0686 31.6965 35.1453C31.6868 35.1 31.6835 35.0721 31.6835 35.0477C31.6868 35.0582 31.6933 35.0652 31.6965 35.0826C31.7258 35.0163 31.7031 34.9745 31.6738 34.9641C31.6673 34.9432 31.6542 34.9152 31.6347 34.8804C31.7453 35.0372 31.7649 34.8142 31.856 35.0477C31.9764 34.9362 31.9894 34.6503 32.0707 34.5109C32.126 34.6259 32.139 34.7444 32.1227 34.8072L32.1911 34.7305C32.2529 34.9048 32.1781 34.849 32.165 34.8943C32.3635 35.1383 32.2659 34.5283 32.4741 34.741L32.4481 34.5945L32.4644 34.6155C32.4384 34.5423 32.4286 34.4342 32.4383 34.4028C32.5099 34.5492 32.562 34.7549 32.614 34.72C32.7116 34.849 32.7149 34.5945 32.7474 34.4899C32.7051 34.476 32.6856 34.3889 32.6824 34.3296C32.7084 34.3122 32.78 34.4586 32.7767 34.3854L32.8516 34.5911C32.7735 34.4028 32.8516 34.3505 32.832 34.2634C32.9004 34.4098 32.832 34.4133 32.8678 34.5283C32.9752 34.4621 32.9231 34.4969 33.0305 34.4307C33.037 34.2494 32.9524 34.2425 32.9166 34.0473C32.9556 33.9845 32.9589 33.8207 33.063 33.9183L32.9784 33.744C33.0305 33.5627 33.0988 33.5592 33.2322 33.7161C33.4762 31.9243 32.6856 31.6175 32.6856 31.6175C32.2431 31.3352 32.2724 31.9278 31.9633 32.2172L31.9601 32.2206Z" fill="#20BB65"/>
<path d="M18.0741 42.0464L18.0117 41.9937C18.0314 42.0253 18.0511 42.0499 18.0741 42.0464Z" fill="#20BB65"/>
<path d="M13.2188 46.0681C13.2188 46.0681 13.2224 46.079 13.2261 46.0863C13.2261 46.079 13.2224 46.0718 13.2188 46.0681Z" fill="#20BB65"/>
<path d="M15.8587 40.3385C15.8587 40.3385 15.8587 40.3243 15.8516 40.3171V40.3385H15.8587Z" fill="#20BB65"/>
<path d="M17.0747 39.7526C16.733 39.8642 16.4663 39.6062 16.2418 39.9408C16.0823 40.0175 15.975 40.1987 15.8578 40.3382C15.9457 40.6309 15.6757 40.4741 15.731 40.7355L15.6138 40.6205C15.6301 40.7111 15.6301 40.7808 15.5553 40.725L15.5325 40.6832C15.5585 40.8157 15.4739 40.7878 15.4902 40.854L15.4674 40.8122L15.4316 40.8645L15.4024 40.8017C15.4024 40.9621 15.3373 41.0213 15.2429 41.0213L15.3568 41.1816C15.103 41.098 15.2787 41.4779 15.0152 41.3524L14.9892 41.3106C15.1291 41.8578 14.5499 41.2025 14.6736 41.7323C14.6573 41.6661 14.6085 41.6557 14.5825 41.6138C14.5434 41.7184 14.4849 41.802 14.7061 42.1227C14.6508 42.1575 14.5955 42.0565 14.5011 41.938C14.5987 42.0774 14.5955 42.1715 14.5597 42.2098L14.5402 42.1401L14.4588 42.2796L14.6671 42.5235C14.5532 42.4956 14.4263 42.2168 14.4133 42.3283L14.5695 42.5445C14.4556 42.5689 14.1725 42.283 13.9773 42.1889C13.5674 42.3806 13.6194 43.2276 13.0338 43.1265L12.8971 42.9801C12.7117 42.7571 13.0761 43.3949 12.8971 43.1927L12.9427 43.3287C12.9004 43.2973 12.8451 43.2729 12.8223 43.2067C12.7833 43.2276 12.8126 43.2659 12.8418 43.3566L12.6954 43.2485C12.4774 43.2589 12.5881 43.6284 12.4091 43.6981C12.0154 43.5692 11.9243 44.1164 11.8885 44.437C11.9406 44.9947 10.8962 44.4231 10.9873 45.0435C10.9515 45.0226 10.9938 45.1097 11.0166 45.1341L10.7726 45.3397C10.7726 45.3397 10.4928 45.6082 10.5286 45.9811C10.5578 46.3575 10.9255 46.8037 12.1261 47.2428L12.1651 47.2916C12.3766 47.2812 12.4677 47.2324 12.3213 46.9221C12.6011 47.1905 12.4384 46.8559 12.549 46.9187L12.5685 46.9431C12.4319 46.6538 12.8711 46.9744 12.7572 46.713C12.7768 46.7374 12.8451 46.8176 12.8353 46.8385C12.8483 46.7549 12.8548 46.6224 13.011 46.7862C13.0826 46.6259 13.3071 46.5388 13.1444 46.1972L13.1802 46.2494C13.0598 46.0229 13.2095 46.1693 13.1769 46.0264C13.1997 46.0473 13.2127 46.0543 13.2192 46.0647C13.1086 45.8382 13.3299 45.9009 13.3006 45.7859L13.4014 45.8975L13.473 45.7789L13.4177 45.7894C13.1607 45.4618 13.6585 45.9183 13.5511 45.65C13.6487 45.629 13.1281 44.8622 13.3266 44.9529C13.2355 44.7716 13.499 45.2248 13.4535 45.0609C13.5934 45.2248 13.5186 45.1864 13.6389 45.3084C13.6194 45.1829 13.8569 45.406 13.8211 45.2387L13.9285 45.3677C13.8114 45.0575 14.2116 45.4095 14.0782 45.1341C14.0717 44.9529 14.4426 45.4792 14.3189 45.1446L14.4914 45.2944C14.5499 45.2944 14.345 45.054 14.4523 45.1028C14.5402 45.2178 14.5727 45.1481 14.6345 45.277C14.859 45.3781 14.6183 44.8658 14.9664 45.0644C14.8232 44.8204 14.9827 44.9006 14.8753 44.7159C14.9534 44.81 15.0054 44.6288 15.0998 44.8971C15.1063 44.918 15.0933 44.925 15.0672 44.8867L15.1583 45.0261C15.4121 45.2213 15.1779 44.7856 15.2722 44.7647C15.2202 44.7368 15.2006 44.7716 15.1518 44.6636L15.2267 44.6287L15.2982 44.7507L15.4381 44.7368L15.3243 44.6078C15.4219 44.6392 15.6106 44.8658 15.5162 44.6253C15.4577 44.4963 15.334 44.4719 15.3503 44.3882C15.4804 44.4335 15.6789 44.5033 15.7863 44.4789C15.6659 44.3255 15.6919 44.315 15.6887 44.2628L15.7895 44.3987C15.7375 44.1373 16.0368 44.6775 16.0075 44.458L16.0693 44.559L15.8871 44.2523C15.7668 43.9177 16.1279 44.5068 15.949 44.0641C15.9327 44.1129 15.718 43.7713 15.8025 43.7992L15.8871 43.9421C15.8871 43.8968 15.8579 43.8341 15.8937 43.848C15.9294 43.9317 16.0238 44.0501 16.04 44.0014L16.1344 44.1861L16.0238 43.8898C16.1734 43.9944 16.1246 43.7539 16.2743 43.9282C16.2743 43.9282 16.4402 43.9386 16.3231 43.7121C16.3914 43.8585 16.4825 43.8619 16.5704 44.0292C16.4988 43.8619 16.4955 43.6772 16.6354 43.8131L16.642 43.8341C16.8697 43.9038 16.7005 43.4576 16.9348 43.5726C16.8209 43.4123 16.9348 43.4576 16.7851 43.259C16.7623 42.9662 17.2699 43.5378 16.886 42.8511C16.9153 42.7779 17.0454 42.9592 17.0942 42.9732L17.104 43.0185C17.1658 42.893 17.1886 42.8651 17.2731 42.8302C17.2699 42.7396 17.0812 42.4294 17.1918 42.4573C17.2471 42.5933 17.2601 42.5514 17.2829 42.534C17.2796 42.5654 17.3024 42.6142 17.387 42.6699C17.3675 42.6281 17.361 42.6002 17.3545 42.5758C17.361 42.5863 17.3675 42.5932 17.374 42.6037C17.387 42.5305 17.3577 42.4991 17.3285 42.4957C17.3187 42.4747 17.3024 42.4538 17.2731 42.4224C17.413 42.5514 17.3838 42.3284 17.5204 42.534C17.6115 42.3981 17.566 42.1192 17.6213 41.9624C17.6994 42.0635 17.7351 42.175 17.7286 42.2377L17.7774 42.1471C17.8718 42.304 17.7904 42.2656 17.7872 42.3144C18.028 42.5061 17.8132 41.938 18.054 42.0983L18.0019 41.9589L18.0215 41.9763C17.9824 41.9101 17.9499 41.8055 17.9531 41.7742C18.0507 41.8996 18.1418 42.0913 18.1874 42.046C18.3045 42.1506 18.2622 41.9031 18.272 41.7916C18.2297 41.7881 18.1939 41.7044 18.1776 41.6487C18.2004 41.6278 18.2948 41.7532 18.2817 41.6835L18.3924 41.8683C18.2785 41.701 18.3468 41.6347 18.3143 41.5511C18.4086 41.68 18.3435 41.6975 18.3989 41.8055C18.49 41.7184 18.4444 41.7637 18.5355 41.6765C18.5095 41.4988 18.4216 41.5058 18.3533 41.3246C18.3794 41.2549 18.3533 41.0945 18.4737 41.1677L18.3598 41.0144C18.3793 40.8261 18.4444 40.8087 18.6038 40.9341C18.5615 40.0314 18.3436 39.54 18.1288 39.2786C17.9108 39.0172 17.6994 38.9858 17.6994 38.9858C17.2081 38.8011 17.335 39.3832 17.0812 39.7352L17.0747 39.7526Z" fill="#20BB65"/>
<path d="M7.8168 54.332L7.73828 54.325C7.771 54.339 7.80044 54.346 7.8168 54.332Z" fill="#20BB65"/>
<path d="M5.64648 60.5745C5.64648 60.5745 5.65712 60.582 5.66067 60.5858C5.65712 60.5782 5.65003 60.5745 5.64648 60.5745Z" fill="#20BB65"/>
<path d="M5.08734 54.2212C5.08734 54.2212 5.07713 54.2102 5.07031 54.2065L5.08393 54.2212H5.08734Z" fill="#20BB65"/>
<path d="M5.78979 53.025C5.56855 53.3177 5.21064 53.2585 5.20088 53.6698C5.10653 53.8231 5.11305 54.0392 5.08702 54.217C5.31151 54.4087 5.00568 54.4331 5.18462 54.6213L5.02846 54.5934C5.09027 54.6561 5.12607 54.7154 5.03497 54.7154L4.99267 54.6945C5.08377 54.7886 4.99917 54.813 5.04472 54.8618L5.00242 54.8409V54.9071L4.94386 54.8723C5.02845 55.0047 5.00242 55.0953 4.92109 55.1441L5.10003 55.2138C4.843 55.2905 5.18462 55.5031 4.89831 55.5484L4.85601 55.5275C5.25294 55.9074 4.43306 55.6843 4.80396 56.0608C4.75841 56.0154 4.70962 56.0329 4.66732 56.012C4.68684 56.12 4.68033 56.2246 5.0252 56.3675C4.99917 56.4302 4.89831 56.3745 4.76166 56.3291C4.91458 56.3919 4.95688 56.4721 4.94712 56.5243L4.89507 56.479V56.6428L5.19113 56.73C5.08377 56.7718 4.83324 56.608 4.87879 56.7056L5.11631 56.7997C5.03172 56.8833 4.65105 56.7997 4.43957 56.8311C4.18905 57.2145 4.6478 57.9046 4.09469 58.1381L3.90924 58.0893C3.64245 57.9987 4.26388 58.3437 4.01336 58.2671L4.11747 58.3577C4.06541 58.3542 4.00685 58.3612 3.95479 58.3159C3.93202 58.3542 3.9743 58.3716 4.04263 58.4309L3.86369 58.4169C3.68149 58.5389 3.9548 58.7968 3.83442 58.9502C3.43423 59.0443 3.61643 59.5566 3.7303 59.8494C4.02962 60.306 2.8616 60.3374 3.21949 60.8254C3.1772 60.8254 3.25529 60.8811 3.28782 60.8881L3.16419 61.1844C3.16419 61.1844 3.03728 61.5503 3.22924 61.8605C3.41795 62.1707 3.92876 62.4042 5.18788 62.1951L5.24318 62.2195C5.42863 62.101 5.4872 62.0104 5.22366 61.8048C5.58806 61.8989 5.29849 61.6828 5.42538 61.6828L5.45467 61.6967C5.20415 61.5085 5.74098 61.5678 5.51974 61.3935C5.54577 61.4074 5.64663 61.4388 5.64338 61.4632C5.61735 61.3795 5.56529 61.2575 5.77677 61.3238C5.77026 61.1425 5.92968 60.9439 5.63035 60.7278L5.68568 60.7557C5.48071 60.6197 5.67591 60.665 5.58156 60.5605C5.61084 60.5674 5.62385 60.5675 5.63687 60.5709C5.43515 60.428 5.65965 60.3688 5.58156 60.2816L5.72146 60.3269L5.72798 60.1841L5.68242 60.2224C5.30826 60.0725 5.9492 60.2049 5.73447 60.0272C5.8093 59.9575 5.00243 59.5671 5.21717 59.5392C5.05449 59.4312 5.49372 59.6821 5.37659 59.5671C5.57505 59.6368 5.49045 59.6403 5.65313 59.6821C5.5783 59.5845 5.88739 59.6473 5.78002 59.5218L5.93293 59.5741C5.68566 59.3685 6.19649 59.4521 5.95247 59.2883C5.86137 59.1349 6.43073 59.3859 6.16394 59.1628L6.38518 59.1977C6.43398 59.1628 6.14441 59.0687 6.26154 59.0548C6.39168 59.1071 6.38843 59.0269 6.5023 59.1035C6.74306 59.0617 6.29082 58.755 6.68775 58.7306C6.44699 58.6017 6.6227 58.5808 6.4405 58.4832C6.55112 58.5215 6.51207 58.3333 6.7203 58.5145C6.73657 58.5285 6.73005 58.5424 6.68775 58.525L6.83417 58.5947C7.14651 58.6156 6.73332 58.3751 6.8049 58.3054C6.74633 58.3124 6.74957 58.3507 6.65197 58.288L6.70078 58.2148L6.82116 58.281L6.93502 58.1904L6.77235 58.145C6.87321 58.1172 7.14326 58.2008 6.94479 58.0475C6.83092 57.9673 6.71703 58.0196 6.68775 57.9394C6.82115 57.9011 7.02288 57.8488 7.10421 57.7651C6.92527 57.7059 6.94153 57.678 6.9155 57.6362L7.06843 57.6955C6.89599 57.5038 7.41655 57.7896 7.28641 57.6188L7.38727 57.671L7.08144 57.5142C6.81465 57.2946 7.4133 57.5909 7.0424 57.319C7.05216 57.3713 6.70078 57.2005 6.78537 57.1761L6.92527 57.2493C6.90575 57.2075 6.84719 57.1726 6.88298 57.1657C6.95455 57.2145 7.0912 57.2633 7.08144 57.211L7.25388 57.3155L7.01311 57.1273C7.19205 57.1273 7.02938 56.953 7.24411 57.0123C7.24411 57.0123 7.39052 56.9217 7.17904 56.7997C7.30918 56.8833 7.39052 56.8345 7.54669 56.9251C7.40028 56.8241 7.30919 56.6707 7.49139 56.7021L7.50765 56.716C7.7354 56.6428 7.36774 56.3605 7.62477 56.3187C7.44908 56.249 7.56946 56.2211 7.34172 56.1409C7.17579 55.9074 7.88831 56.0887 7.22134 55.7366C7.20832 55.6565 7.41004 55.7331 7.45884 55.7157L7.48813 55.7471C7.47512 55.6042 7.48163 55.5693 7.53368 55.4891C7.48488 55.4159 7.16928 55.2661 7.27664 55.2242C7.39377 55.3079 7.38077 55.2626 7.39378 55.2347C7.4068 55.2626 7.44909 55.2905 7.54995 55.287C7.51416 55.2626 7.49139 55.2452 7.47512 55.2277C7.48488 55.2312 7.49464 55.2347 7.50765 55.2417C7.48162 55.172 7.43933 55.165 7.4133 55.179C7.39378 55.1685 7.36776 55.1615 7.33197 55.1511C7.51416 55.1755 7.37752 55.0047 7.5955 55.0953C7.60201 54.928 7.4198 54.7189 7.38401 54.5586C7.50114 54.5969 7.589 54.6701 7.61828 54.7259L7.61177 54.6213C7.77119 54.6945 7.68334 54.7119 7.70611 54.7537C8.00544 54.7711 7.53369 54.4226 7.82 54.4122L7.70285 54.3285H7.72563C7.65731 54.3006 7.57922 54.2309 7.56295 54.203C7.70936 54.2518 7.88181 54.3529 7.89808 54.2902C8.05099 54.3076 7.88506 54.1264 7.83626 54.0288C7.80047 54.0497 7.72563 54.0043 7.68333 53.966C7.68984 53.9346 7.83625 53.9834 7.78745 53.9312L7.97616 54.0183C7.79396 53.9451 7.81673 53.851 7.74515 53.8022C7.89156 53.851 7.84601 53.9068 7.94687 53.9625C7.97941 53.8336 7.96315 53.8998 7.99568 53.7708C7.88181 53.6384 7.81349 53.6976 7.66058 53.5896C7.64756 53.5164 7.5402 53.3979 7.6801 53.3875L7.50439 53.3282C7.4198 53.1609 7.46535 53.1051 7.66381 53.1156C7.15626 52.3941 6.71703 52.1188 6.40144 52.0316C6.08259 51.9515 5.89389 52.049 5.89389 52.049C5.39284 52.1919 5.80279 52.5893 5.77677 53.0319L5.78979 53.025Z" fill="#20BB65"/>
<path d="M3.5668 70.7065L3.48828 70.7241C3.52427 70.7276 3.55371 70.7241 3.5668 70.7065Z" fill="#20BB65"/>
<path d="M3.37109 77.3115C3.37109 77.3115 3.38133 77.3115 3.38814 77.3188C3.38133 77.3151 3.3745 77.3115 3.37109 77.3115Z" fill="#20BB65"/>
<path d="M0.932091 71.4772C0.932091 71.4772 0.922101 71.4701 0.912109 71.4666L0.932091 71.4772Z" fill="#20BB65"/>
<path d="M1.27309 70.0967C1.13969 70.4522 0.781802 70.5115 0.885915 70.9088C0.840366 71.09 0.905421 71.2922 0.93145 71.4735C1.19824 71.585 0.915187 71.707 1.13968 71.829L0.980261 71.8534C1.05509 71.8952 1.10715 71.9405 1.0193 71.9684L0.973747 71.9614C1.08762 72.0242 1.01281 72.0764 1.07137 72.1043L1.02581 72.0974L1.04208 72.1601L0.977004 72.1427C1.09413 72.2437 1.09738 72.3344 1.03557 72.411L1.22428 72.418C1.00304 72.5784 1.39021 72.669 1.12993 72.8084H1.08438C1.56915 73.0315 0.726493 73.0977 1.19175 73.3312C1.13318 73.3033 1.09414 73.3382 1.04859 73.3312C1.0974 73.4288 1.12342 73.5299 1.49107 73.5508C1.48456 73.617 1.37394 73.5996 1.22753 73.6031C1.39021 73.6101 1.45527 73.6728 1.46178 73.7251L1.39996 73.6972L1.44877 73.854L1.75786 73.8366C1.66676 73.9133 1.38371 73.8436 1.45528 73.9237L1.70905 73.9342C1.65699 74.0422 1.26982 74.0945 1.07786 74.1991C0.954228 74.6557 1.59844 75.1506 1.14945 75.5689L0.957483 75.5863C0.677679 75.5932 1.37069 75.7013 1.11041 75.7187L1.23728 75.7675C1.18848 75.7815 1.13319 75.8093 1.07137 75.7884C1.06161 75.8337 1.10716 75.8338 1.19175 75.8686L1.0193 75.9174C0.885906 76.0987 1.22102 76.2485 1.15594 76.4367C0.807816 76.6738 1.14293 77.0955 1.3414 77.329C1.76761 77.6497 0.680931 78.1132 1.17872 78.4409C1.13968 78.4548 1.23078 78.4792 1.26332 78.4757L1.2438 78.8033C1.2438 78.8033 1.24379 79.2007 1.52685 79.4168C1.80666 79.6364 2.36302 79.6573 3.46922 78.9881H3.53104C3.66444 78.8103 3.69045 78.7058 3.37812 78.6117C3.75227 78.5629 3.4074 78.4722 3.52778 78.4234H3.55706C3.26424 78.3433 3.78155 78.1969 3.51801 78.1167C3.5473 78.1167 3.65141 78.1167 3.65791 78.1376C3.60586 78.0679 3.51801 77.9773 3.736 77.9564C3.67093 77.7891 3.75879 77.5486 3.40741 77.4545H3.46922C3.23172 77.4092 3.43016 77.3813 3.30978 77.315C3.33907 77.3116 3.35209 77.3046 3.36511 77.3046C3.13085 77.2454 3.32281 77.1059 3.2187 77.0536L3.36185 77.0432L3.32281 76.9073L3.29352 76.9596C2.89334 76.9561 3.5408 76.848 3.28051 76.7574C3.32932 76.6633 2.4476 76.5901 2.63956 76.489C2.45085 76.4472 2.94215 76.5239 2.799 76.4576C3.00722 76.4507 2.92913 76.4855 3.09506 76.4646C2.9942 76.3984 3.30329 76.3496 3.16339 76.2694L3.32607 76.2625C3.03 76.1579 3.53754 76.0568 3.25448 75.9871C3.12108 75.8756 3.73275 75.9069 3.41716 75.7954L3.63514 75.7501C3.67093 75.7013 3.36509 75.7152 3.47246 75.6595C3.60911 75.6595 3.5831 75.5898 3.71324 75.6211C3.92797 75.4991 3.4074 75.3702 3.7718 75.2099C3.50501 75.1715 3.66443 75.0913 3.46271 75.0635C3.57984 75.0635 3.48547 74.8997 3.736 74.9938C3.75552 75.0007 3.75228 75.0147 3.70673 75.0147L3.86615 75.0286C4.16872 74.9415 3.70348 74.8578 3.75228 74.7672C3.70022 74.7951 3.71323 74.8299 3.60261 74.8021L3.62539 74.7184L3.75877 74.7393L3.84011 74.6138L3.6742 74.6278C3.75879 74.5685 4.04184 74.5546 3.80758 74.4779C3.67744 74.4431 3.5831 74.5302 3.53104 74.464C3.64817 74.3838 3.8206 74.2653 3.87266 74.1607C3.68721 74.1607 3.6937 74.1363 3.65791 74.105H3.82059C3.59935 73.9865 4.17848 74.0806 4.00279 73.9621L4.11667 73.976L3.77829 73.9342C3.45945 73.8192 4.11667 73.8958 3.68395 73.7634C3.70998 73.8087 3.32606 73.7669 3.39764 73.7181L3.5538 73.739C3.52126 73.7077 3.45619 73.6937 3.49198 73.6763C3.57657 73.6972 3.71975 73.6972 3.69372 73.6519L3.88892 73.6902L3.60587 73.5926C3.77505 73.5369 3.57008 73.4218 3.79132 73.4079C3.79132 73.4079 3.90519 73.2754 3.66443 73.2301C3.81409 73.2685 3.87265 73.1953 4.04834 73.2266C3.88241 73.1813 3.74902 73.0663 3.93122 73.035L3.95074 73.0454C4.1427 72.9025 3.71323 72.7596 3.94748 72.6341C3.75878 72.6272 3.86615 72.5609 3.62539 72.5609C3.39764 72.3936 4.13293 72.3344 3.39438 72.2193C3.35859 72.1496 3.57332 72.1531 3.61562 72.1218L3.65466 72.1427C3.6026 72.0137 3.59936 71.9754 3.62213 71.8847C3.55381 71.8325 3.21219 71.7941 3.30003 71.7175C3.43343 71.7558 3.41065 71.7175 3.4139 71.6896C3.43342 71.7105 3.48223 71.721 3.57983 71.6896C3.53754 71.6791 3.5115 71.6686 3.49198 71.6582C3.50174 71.6582 3.51151 71.6582 3.52453 71.6582C3.48223 71.6024 3.43668 71.6059 3.41716 71.6303C3.39763 71.6303 3.36835 71.6268 3.3293 71.6303C3.5115 71.592 3.32932 71.477 3.56683 71.4944C3.52453 71.334 3.29352 71.1946 3.21544 71.0517C3.33907 71.0517 3.43994 71.0935 3.48549 71.1354L3.4497 71.0378C3.62214 71.0587 3.54404 71.1005 3.57658 71.1354C3.86939 71.0552 3.31956 70.8775 3.5896 70.7764L3.4562 70.7345H3.47897C3.4074 70.7206 3.30978 70.6823 3.29026 70.6579C3.44318 70.6579 3.63839 70.6997 3.63514 70.637C3.7848 70.6056 3.57659 70.4836 3.50501 70.4069C3.47573 70.4383 3.39439 70.4174 3.34233 70.3965C3.34233 70.3651 3.49525 70.3651 3.43018 70.3303L3.63514 70.3546C3.44318 70.3442 3.43668 70.2431 3.35534 70.2222C3.50825 70.2222 3.47899 70.2884 3.59286 70.3128C3.58961 70.1804 3.59285 70.2466 3.58635 70.1176C3.43994 70.0305 3.39113 70.1037 3.2187 70.0479C3.18616 69.9817 3.04951 69.9015 3.17965 69.8493H2.99746C2.87057 69.7133 2.89985 69.6471 3.09506 69.5948C2.41507 69.0616 1.92054 68.9326 1.59518 68.95C1.26983 68.9639 1.11365 69.1208 1.11365 69.1208C0.671166 69.4171 1.17222 69.675 1.26657 70.1072L1.27309 70.0967Z" fill="#20BB65"/>
<path d="M4.97644 87.4612L4.91016 87.5109C4.94329 87.5002 4.96981 87.4825 4.97644 87.4612Z" fill="#20BB65"/>
<path d="M2.64682 87.8865C2.65984 88.2699 2.354 88.479 2.60127 88.8031C2.63055 88.9879 2.76396 89.1482 2.85831 89.305C3.14462 89.2911 2.93314 89.5281 3.18367 89.5421L3.05026 89.6327C3.13485 89.6362 3.19992 89.6571 3.1316 89.7198L3.0893 89.7337C3.21619 89.7407 3.16739 89.8209 3.23246 89.8244L3.19016 89.8383L3.2292 89.8906L3.16415 89.9045C3.31055 89.9463 3.34634 90.03 3.32031 90.1276L3.49599 90.0509C3.35609 90.2949 3.74327 90.2078 3.56107 90.4483L3.51877 90.4622C4.0491 90.4622 3.30728 90.8874 3.81809 90.8979C3.75302 90.8979 3.73026 90.9467 3.68796 90.9641C3.7693 91.0303 3.83112 91.114 4.17599 90.9676C4.19551 91.0338 4.08815 91.0652 3.95801 91.1314C4.10767 91.0652 4.19226 91.0965 4.22154 91.1384H4.15321L4.25733 91.2603L4.53061 91.107C4.47856 91.2185 4.19225 91.2778 4.2866 91.3196L4.52086 91.215C4.51436 91.337 4.18249 91.5566 4.0491 91.7379C4.11417 92.2084 4.89177 92.3722 4.64776 92.9543L4.48182 93.0554C4.2313 93.1878 4.90152 92.9787 4.67377 93.1076L4.81043 93.0937C4.77139 93.1285 4.73235 93.1808 4.66728 93.1843C4.67704 93.2296 4.71608 93.2122 4.80718 93.2018L4.67053 93.3237C4.62173 93.5503 4.98286 93.5364 4.99912 93.735C4.77463 94.1045 5.24315 94.3415 5.51645 94.4635C6.0305 94.5646 5.22363 95.4743 5.80276 95.5475C5.77348 95.5788 5.86457 95.5579 5.89385 95.5405L6.00448 95.8437C6.00448 95.8437 6.16064 96.2027 6.50226 96.2724C6.84388 96.3456 7.35469 96.1156 8.0965 95.0072L8.1518 94.9828C8.20386 94.7597 8.18434 94.6517 7.86549 94.7075C8.18434 94.4983 7.83621 94.5681 7.92731 94.4705L7.9566 94.4565C7.65727 94.5158 8.07373 94.1498 7.80043 94.1951C7.82972 94.1846 7.92081 94.1324 7.93382 94.1498C7.86224 94.1115 7.74512 94.0662 7.93382 93.9511C7.81019 93.8291 7.79391 93.5712 7.43928 93.6444L7.4946 93.62C7.26035 93.6792 7.42953 93.5643 7.29288 93.5608C7.31566 93.5433 7.32866 93.5329 7.33842 93.5259C7.10416 93.5782 7.22131 93.3656 7.11069 93.3656L7.23756 93.2924L7.14973 93.1878L7.14321 93.2471C6.77882 93.4213 7.32215 93.0345 7.0521 93.0693C7.05861 92.9648 6.23222 93.2924 6.36561 93.1111C6.18016 93.1564 6.65519 93.0066 6.49902 93.01C6.68447 92.9125 6.62915 92.9787 6.77231 92.8846C6.65518 92.8706 6.91872 92.6859 6.75604 92.6755L6.8992 92.5988C6.59011 92.6371 7.00981 92.3165 6.72675 92.3827C6.56082 92.3409 7.13345 92.0969 6.79834 92.1352L6.98054 91.9958C6.99355 91.9365 6.72351 92.0829 6.79834 91.9888C6.92523 91.9296 6.86992 91.8773 7.00331 91.8459C7.15298 91.6368 6.62915 91.7518 6.8992 91.4451C6.64217 91.5287 6.75605 91.3858 6.56084 91.4486C6.66495 91.3928 6.51529 91.2882 6.78208 91.2638C6.80485 91.2638 6.80485 91.2778 6.76256 91.2952L6.91221 91.236C7.15297 91.0234 6.69747 91.1523 6.70723 91.0477C6.66819 91.0965 6.69422 91.1209 6.58685 91.1453L6.57384 91.0582L6.70399 91.0164L6.73001 90.8665L6.58359 90.9536C6.63891 90.8595 6.88943 90.7236 6.64867 90.7585C6.51527 90.7829 6.46648 90.9048 6.39165 90.8665C6.46323 90.7445 6.57709 90.5563 6.58685 90.4413C6.41767 90.5284 6.41442 90.497 6.36887 90.4866L6.51854 90.4169C6.27127 90.4064 6.83412 90.2357 6.62915 90.2043L6.73652 90.1694L6.41117 90.2775C6.07931 90.3123 6.70398 90.0927 6.25824 90.1659C6.30054 90.1973 5.9329 90.3298 5.9817 90.2496L6.13137 90.2008C6.08907 90.1869 6.02726 90.2008 6.05003 90.1694C6.13462 90.152 6.26476 90.0893 6.22571 90.0579L6.41768 90.0091L6.1216 90.0439C6.25499 89.9185 6.02399 89.9045 6.22246 89.793C6.22246 89.793 6.27451 89.6222 6.04026 89.685C6.18992 89.6536 6.21595 89.5595 6.38839 89.5107C6.21595 89.5421 6.05328 89.4967 6.20945 89.3887H6.23223C6.35586 89.1726 5.90688 89.2318 6.07281 89.0157C5.89712 89.0924 5.96868 88.9844 5.75069 89.0889C5.48065 89.0366 6.1281 88.6602 5.40907 88.8798C5.35051 88.831 5.54898 88.7439 5.57501 88.6951H5.6173C5.5197 88.601 5.50343 88.5661 5.49041 88.4755C5.40582 88.4581 5.08047 88.5696 5.13253 88.4616C5.26918 88.4407 5.23664 88.4162 5.22688 88.3849C5.2529 88.3953 5.30171 88.3849 5.37655 88.3152C5.33425 88.3256 5.30821 88.3256 5.28544 88.3256C5.2952 88.3222 5.30172 88.3187 5.31798 88.3117C5.25617 88.2803 5.22037 88.3012 5.20736 88.3326C5.18783 88.3396 5.16181 88.35 5.12927 88.371C5.28219 88.2594 5.07397 88.2315 5.29521 88.1444C5.1976 88.0154 4.93081 87.991 4.80718 87.8934C4.9178 87.8377 5.02841 87.8342 5.08372 87.8551L5.01541 87.7819C5.18134 87.7261 5.12602 87.7993 5.16831 87.8167C5.40582 87.6181 4.83645 87.6913 5.04468 87.4856L4.90478 87.5031L4.9243 87.4891C4.85598 87.5135 4.75186 87.517 4.72258 87.5066C4.86248 87.4403 5.0577 87.395 5.03167 87.3392C5.15531 87.2451 4.92105 87.2242 4.8267 87.1859C4.81043 87.2277 4.72908 87.2452 4.67377 87.2452C4.66076 87.2173 4.80068 87.151 4.73235 87.1476L4.92756 87.0813C4.74536 87.1545 4.70632 87.0639 4.62172 87.0813C4.76163 87.0186 4.76163 87.0883 4.87225 87.0604C4.8202 86.9419 4.84621 87.0012 4.79415 86.8862C4.62822 86.8687 4.61195 86.9559 4.42976 86.9803C4.37445 86.935 4.22154 86.921 4.3224 86.8164L4.15321 86.8931C3.98728 86.8234 3.99053 86.7502 4.1467 86.6213C3.32356 86.4191 2.82252 86.5097 2.5297 86.6631C2.23688 86.8164 2.15228 87.029 2.15228 87.029C1.85296 87.4926 2.41257 87.517 2.66309 87.876L2.64682 87.8865Z" fill="#20BB65"/>
<path d="M12.739 102.079L12.6992 102.154C12.7257 102.129 12.7456 102.1 12.739 102.079Z" fill="#20BB65"/>
<path d="M17.1465 106.722C17.1465 106.722 17.1567 106.715 17.1635 106.711C17.1567 106.711 17.1499 106.718 17.1465 106.722Z" fill="#20BB65"/>
<path d="M11.4907 104.683C11.4907 104.683 11.4807 104.686 11.4707 104.69L11.4907 104.683Z" fill="#20BB65"/>
<path d="M10.7707 103.48C10.9269 103.825 10.7251 104.146 11.07 104.334C11.1644 104.491 11.3465 104.578 11.4897 104.679C11.7467 104.543 11.6426 104.85 11.8736 104.756L11.7858 104.899C11.8671 104.868 11.9289 104.857 11.8899 104.944L11.8541 104.976C11.9745 104.927 11.9582 105.021 12.0168 104.997L11.981 105.028L12.0363 105.059L11.981 105.098C12.1306 105.073 12.1957 105.133 12.2055 105.234L12.3389 105.091C12.2998 105.373 12.6219 105.129 12.5438 105.429L12.5081 105.46C12.9928 105.23 12.4723 105.938 12.944 105.732C12.8855 105.76 12.8822 105.812 12.8464 105.847C12.9473 105.875 13.0319 105.924 13.2954 105.645C13.3377 105.697 13.2499 105.77 13.1555 105.885C13.2694 105.763 13.3572 105.753 13.3995 105.784L13.3377 105.816L13.4776 105.882L13.6728 105.627C13.6631 105.749 13.4223 105.927 13.5264 105.924L13.7054 105.729C13.7444 105.844 13.5166 106.185 13.4581 106.405C13.6891 106.809 14.4602 106.638 14.4407 107.273L14.3235 107.436C14.1381 107.663 14.6847 107.189 14.5187 107.405L14.6391 107.339C14.6163 107.388 14.6001 107.45 14.5383 107.482C14.561 107.52 14.5936 107.485 14.6749 107.44L14.5903 107.611C14.6229 107.837 14.9515 107.677 15.0393 107.855C14.9612 108.29 15.4753 108.311 15.7714 108.318C16.2822 108.203 15.8494 109.367 16.409 109.204C16.3928 109.242 16.4709 109.19 16.4904 109.162L16.6986 109.399C16.6986 109.399 16.9654 109.667 17.3038 109.601C17.6454 109.535 18.0456 109.12 18.3547 107.799L18.397 107.754C18.3677 107.524 18.3124 107.433 18.0326 107.611C18.257 107.29 17.9577 107.489 18.0065 107.363L18.0293 107.339C17.7723 107.51 18.0293 107.008 17.7951 107.158C17.8178 107.137 17.8829 107.053 17.9057 107.063C17.8243 107.056 17.7007 107.063 17.8374 106.879C17.6779 106.816 17.5738 106.579 17.268 106.788L17.3135 106.743C17.1151 106.893 17.2322 106.718 17.1053 106.767C17.1216 106.743 17.1281 106.725 17.1346 106.718C16.9329 106.861 16.9687 106.617 16.8645 106.659L16.9589 106.541L16.8418 106.478L16.858 106.537C16.5815 106.847 16.9491 106.269 16.7116 106.408C16.6823 106.307 16.0284 106.945 16.0902 106.725C15.934 106.844 16.3212 106.509 16.1781 106.579C16.3147 106.412 16.2887 106.495 16.3863 106.352C16.2724 106.387 16.4514 106.108 16.2984 106.164L16.4058 106.032C16.1325 106.196 16.4058 105.725 16.1683 105.899C16.0024 105.931 16.4416 105.471 16.1455 105.641L16.2626 105.439C16.2529 105.376 16.0577 105.627 16.0902 105.505C16.1846 105.397 16.1162 105.373 16.2268 105.289C16.2887 105.035 15.8462 105.356 15.9828 104.958C15.7746 105.143 15.8267 104.962 15.6705 105.101C15.7486 105.007 15.5696 104.972 15.8071 104.84C15.8267 104.829 15.8332 104.84 15.8006 104.875L15.9178 104.76C16.0609 104.463 15.69 104.77 15.6607 104.672C15.6412 104.732 15.677 104.746 15.5859 104.815L15.5436 104.739L15.6477 104.648L15.6152 104.498L15.5111 104.638C15.5273 104.53 15.7095 104.296 15.4981 104.428C15.3842 104.509 15.3809 104.641 15.3029 104.634C15.3256 104.488 15.3614 104.272 15.3256 104.16C15.202 104.31 15.1857 104.286 15.1402 104.293L15.2508 104.167C15.0165 104.258 15.4753 103.867 15.2736 103.923L15.3582 103.843L15.1011 104.08C14.8083 104.251 15.3029 103.787 14.9189 104.042C14.9677 104.052 14.6814 104.327 14.6944 104.233L14.8148 104.125C14.7725 104.129 14.7172 104.171 14.727 104.132C14.7985 104.08 14.8929 103.968 14.8474 103.954L15.0068 103.829L14.7465 103.986C14.8246 103.812 14.6066 103.899 14.7465 103.714C14.7465 103.714 14.7335 103.533 14.5383 103.693C14.6651 103.602 14.6554 103.505 14.7953 103.386C14.6489 103.487 14.4797 103.515 14.5838 103.348L14.6033 103.338C14.6359 103.087 14.2454 103.331 14.317 103.062C14.1836 103.205 14.2097 103.076 14.047 103.268C13.7769 103.338 14.2324 102.714 13.6566 103.219C13.585 103.198 13.7314 103.034 13.7379 102.978L13.7769 102.961C13.6533 102.912 13.624 102.891 13.5785 102.811C13.4971 102.829 13.2369 103.076 13.2466 102.951C13.3637 102.87 13.3247 102.864 13.3052 102.843C13.3345 102.843 13.3735 102.811 13.4158 102.714C13.38 102.741 13.3572 102.752 13.3344 102.762C13.341 102.755 13.3475 102.748 13.3572 102.738C13.2889 102.735 13.2629 102.773 13.2629 102.804C13.2466 102.818 13.2271 102.839 13.2043 102.874C13.3019 102.707 13.1002 102.769 13.2694 102.595C13.1295 102.518 12.879 102.609 12.7293 102.574C12.8106 102.477 12.9115 102.424 12.9701 102.417L12.879 102.379C13.0091 102.257 12.9863 102.348 13.0319 102.344C13.175 102.062 12.6805 102.372 12.7944 102.093L12.674 102.17L12.687 102.149C12.6317 102.201 12.5406 102.25 12.5113 102.25C12.6154 102.128 12.7748 102.003 12.7293 101.961C12.8074 101.821 12.5861 101.905 12.482 101.912C12.482 101.957 12.4137 102.006 12.3649 102.034C12.3421 102.013 12.4462 101.891 12.3812 101.919L12.5341 101.773C12.3942 101.919 12.3259 101.853 12.2543 101.905C12.3584 101.786 12.3844 101.853 12.4755 101.78C12.3812 101.696 12.43 101.738 12.3356 101.654C12.1762 101.71 12.1957 101.797 12.0395 101.898C11.9712 101.881 11.8248 101.933 11.8769 101.793L11.7532 101.936C11.5743 101.947 11.5515 101.877 11.6459 101.689C10.8195 101.867 10.3965 102.166 10.185 102.435C9.9768 102.703 9.97682 102.933 9.97682 102.933C9.87921 103.484 10.3998 103.261 10.7609 103.48H10.7707Z" fill="#20BB65"/>
<path d="M25.0437 112.738L25.0273 112.822C25.0437 112.79 25.0535 112.759 25.0437 112.738Z" fill="#20BB65"/>
<path d="M30.6035 115.712C30.6035 115.712 30.6106 115.704 30.6177 115.697C30.6106 115.701 30.6071 115.708 30.6035 115.712Z" fill="#20BB65"/>
<path d="M24.6401 115.631C24.6401 115.631 24.6299 115.638 24.623 115.645L24.6401 115.631Z" fill="#20BB65"/>
<path d="M23.6052 114.746C23.8557 115.014 23.7581 115.39 24.142 115.446C24.2754 115.561 24.4739 115.582 24.6398 115.628C24.8415 115.411 24.8318 115.736 25.027 115.568L24.9847 115.732C25.0498 115.673 25.1083 115.645 25.0986 115.739L25.0758 115.781C25.1734 115.694 25.1864 115.788 25.2385 115.746L25.2157 115.788L25.2775 115.798L25.2385 115.854C25.3719 115.781 25.4499 115.812 25.4922 115.906L25.5768 115.725C25.6191 116.007 25.8566 115.666 25.8664 115.976L25.8436 116.018C26.2373 115.638 25.9445 116.485 26.3316 116.13C26.2828 116.175 26.2959 116.227 26.2731 116.269C26.3772 116.262 26.4715 116.279 26.6407 115.927C26.696 115.962 26.6342 116.063 26.5757 116.203C26.6505 116.046 26.7286 116.011 26.7774 116.025L26.7286 116.074L26.8815 116.088L26.9954 115.781C27.0214 115.903 26.8424 116.147 26.9401 116.112L27.0539 115.868C27.1223 115.966 27.0051 116.363 27.0116 116.593C27.3435 116.9 28.03 116.485 28.1894 117.095L28.1243 117.287C28.0137 117.562 28.3976 116.935 28.3033 117.193L28.3977 117.088C28.3879 117.14 28.3911 117.207 28.3423 117.255C28.3749 117.283 28.3977 117.242 28.4595 117.172L28.4269 117.36C28.5213 117.566 28.7881 117.304 28.9215 117.447C28.967 117.886 29.4615 117.743 29.7446 117.653C30.2001 117.381 30.1058 118.629 30.5938 118.298C30.5873 118.34 30.6491 118.266 30.6588 118.231L30.9191 118.395C30.9191 118.395 31.2445 118.57 31.5536 118.399C31.8627 118.228 32.136 117.712 32.0741 116.349L32.1034 116.293C32.0123 116.084 31.9342 116.011 31.7162 116.269C31.8431 115.892 31.6121 116.178 31.6252 116.042L31.6414 116.014C31.4397 116.258 31.5503 115.697 31.3649 115.913C31.3811 115.885 31.4202 115.784 31.443 115.788C31.3616 115.805 31.2445 115.851 31.3258 115.631C31.1566 115.621 30.9907 115.425 30.7565 115.722L30.7857 115.666C30.6361 115.872 30.7012 115.666 30.5938 115.756C30.6035 115.729 30.6035 115.711 30.6101 115.697C30.4571 115.896 30.4246 115.652 30.3367 115.725L30.3921 115.582L30.2619 115.561L30.2944 115.614C30.1155 115.997 30.3075 115.328 30.1188 115.537C30.0602 115.45 29.6177 116.265 29.6145 116.035C29.4973 116.199 29.7739 115.757 29.6568 115.868C29.7414 115.666 29.7381 115.753 29.7934 115.586C29.6958 115.652 29.7869 115.331 29.6568 115.436L29.7218 115.275C29.5071 115.516 29.6373 114.983 29.4583 115.227C29.3054 115.31 29.5982 114.728 29.3639 114.986L29.4192 114.756C29.3932 114.7 29.2761 115 29.2729 114.875C29.3347 114.742 29.2598 114.739 29.3444 114.624C29.3314 114.362 28.9995 114.812 29.0191 114.387C28.8727 114.631 28.8727 114.439 28.762 114.624C28.8076 114.509 28.6286 114.533 28.8206 114.327C28.8369 114.31 28.8466 114.32 28.8271 114.366L28.9052 114.216C28.9573 113.885 28.6905 114.299 28.6319 114.216C28.6319 114.278 28.6677 114.282 28.5994 114.376L28.5376 114.317L28.6124 114.195L28.5408 114.062L28.4822 114.23C28.466 114.122 28.5733 113.839 28.4107 114.034C28.3261 114.146 28.3618 114.275 28.2838 114.296C28.2642 114.149 28.235 113.93 28.1666 113.836C28.0918 114.02 28.069 114 28.03 114.024L28.0983 113.867C27.9031 114.031 28.2252 113.508 28.0495 113.627L28.1081 113.522L27.9291 113.832C27.6981 114.094 28.0365 113.487 27.7437 113.853C27.7925 113.846 27.6005 114.205 27.5843 114.111L27.6656 113.968C27.6266 113.986 27.5875 114.045 27.5843 114.003C27.6363 113.93 27.6949 113.79 27.6461 113.794L27.76 113.62L27.5582 113.857C27.581 113.668 27.3988 113.818 27.4769 113.599C27.4769 113.599 27.4118 113.431 27.2719 113.648C27.363 113.519 27.3272 113.428 27.4281 113.271C27.3207 113.414 27.1646 113.498 27.2134 113.306L27.2296 113.292C27.1841 113.041 26.888 113.404 26.875 113.125C26.7904 113.306 26.7774 113.173 26.6798 113.41C26.4455 113.564 26.6895 112.821 26.2926 113.494C26.2178 113.501 26.3089 113.292 26.2991 113.24L26.3316 113.212C26.1982 113.212 26.1657 113.198 26.0974 113.135C26.0226 113.18 25.8501 113.501 25.8208 113.383C25.9087 113.268 25.8696 113.274 25.8436 113.261C25.8696 113.25 25.8989 113.205 25.9119 113.1C25.8859 113.139 25.8664 113.156 25.8501 113.173C25.8566 113.163 25.8566 113.156 25.8664 113.142C25.8013 113.163 25.7883 113.205 25.7981 113.236C25.7883 113.254 25.7753 113.281 25.7623 113.32C25.8046 113.128 25.6321 113.257 25.7428 113.034C25.5866 113.006 25.3751 113.18 25.2222 113.198C25.271 113.076 25.3491 112.992 25.4011 112.968L25.3035 112.961C25.3914 112.797 25.3979 112.895 25.4369 112.877C25.4857 112.56 25.1116 113.024 25.1343 112.72L25.0433 112.835L25.0497 112.811C25.014 112.877 24.9391 112.957 24.9131 112.968C24.9749 112.818 25.0888 112.644 25.0335 112.619C25.066 112.459 24.8806 112.616 24.783 112.657C24.7992 112.699 24.7472 112.773 24.7081 112.814C24.6788 112.804 24.7407 112.654 24.6886 112.699L24.7895 112.508C24.7016 112.692 24.617 112.658 24.565 112.727C24.6268 112.577 24.6724 112.633 24.7374 112.529C24.6235 112.48 24.6788 112.504 24.565 112.455C24.4316 112.563 24.4771 112.64 24.36 112.79C24.2917 112.797 24.168 112.898 24.1745 112.748L24.0997 112.926C23.9338 112.996 23.8882 112.94 23.9208 112.731C23.192 113.187 22.8894 113.623 22.7723 113.951C22.6551 114.278 22.7267 114.495 22.7267 114.495C22.8016 115.045 23.2213 114.655 23.628 114.732L23.6052 114.746Z" fill="#20BB65"/>
<path d="M39.1242 118.948L39.1172 119.029C39.1277 118.994 39.1312 118.963 39.1242 118.948Z" fill="#20BB65"/>
<path d="M42.1641 119.706C42.1641 119.706 42.1677 119.695 42.1713 119.688C42.1677 119.695 42.1641 119.698 42.1641 119.706Z" fill="#20BB65"/>
<path d="M38.9429 121.723C38.9429 121.723 38.9392 121.734 38.9355 121.741L38.9465 121.723H38.9429Z" fill="#20BB65"/>
<path d="M38.3631 121.33C38.503 121.472 38.4575 121.849 38.6657 121.751C38.7405 121.804 38.8479 121.744 38.939 121.723C39.0464 121.448 39.0464 121.748 39.1472 121.521L39.1244 121.689C39.1602 121.612 39.1928 121.56 39.1863 121.654L39.1733 121.699C39.2253 121.584 39.2351 121.664 39.2611 121.605L39.2481 121.654L39.2806 121.64L39.2611 121.706C39.3327 121.588 39.375 121.591 39.3977 121.661L39.44 121.462C39.4661 121.703 39.5897 121.305 39.5995 121.584L39.5864 121.633C39.7979 121.138 39.6483 122.023 39.8532 121.556C39.8272 121.615 39.8337 121.657 39.824 121.706C39.8793 121.661 39.9313 121.643 40.0192 121.256C40.0484 121.27 40.0192 121.385 39.9866 121.535C40.0257 121.364 40.068 121.302 40.094 121.298L40.068 121.361L40.1493 121.323L40.2079 120.998C40.2241 121.099 40.1298 121.389 40.1818 121.323L40.2404 121.058C40.2794 121.124 40.2176 121.532 40.2241 121.741C40.4063 121.908 40.774 121.284 40.8618 121.8L40.826 122.002C40.7675 122.295 40.9725 121.584 40.9204 121.856L40.9724 121.727C40.9692 121.779 40.9692 121.838 40.9432 121.901C40.9627 121.919 40.9725 121.87 41.005 121.786L40.9887 121.974C41.0408 122.135 41.1839 121.8 41.2523 121.894C41.2783 122.288 41.5418 121.995 41.6947 121.821C41.9355 121.42 41.8899 122.626 42.1502 122.163C42.1502 122.204 42.1795 122.114 42.186 122.082L42.3259 122.156C42.3259 122.156 42.4984 122.222 42.661 121.971C42.8237 121.72 42.9669 121.148 42.9311 119.876L42.9473 119.813C42.8985 119.642 42.8562 119.597 42.7424 119.907C42.8074 119.513 42.6871 119.851 42.6936 119.723L42.7001 119.691C42.596 119.984 42.6513 119.419 42.5537 119.681C42.5602 119.649 42.5829 119.541 42.596 119.538C42.5537 119.58 42.4918 119.656 42.5341 119.426C42.443 119.468 42.3552 119.339 42.2316 119.691L42.2478 119.628C42.1698 119.869 42.2023 119.656 42.147 119.775C42.1502 119.743 42.1535 119.729 42.1535 119.716C42.0721 119.953 42.0526 119.733 42.0071 119.831L42.0364 119.677L41.9648 119.698L41.9811 119.736C41.8867 120.151 41.9875 119.465 41.8867 119.723C41.8542 119.66 41.6231 120.57 41.6199 120.353C41.5581 120.542 41.7045 120.04 41.6427 120.183C41.6882 119.967 41.685 120.05 41.7143 119.876C41.6622 119.97 41.7077 119.642 41.6394 119.778L41.672 119.607C41.5581 119.904 41.6232 119.363 41.5288 119.649C41.4475 119.775 41.6004 119.14 41.4767 119.458L41.506 119.224C41.4898 119.182 41.4312 119.499 41.4279 119.384C41.4605 119.241 41.4214 119.262 41.4637 119.13C41.454 118.889 41.2783 119.419 41.2848 119.022C41.2067 119.297 41.2067 119.123 41.1481 119.329C41.1742 119.207 41.0766 119.29 41.1774 119.036C41.1872 119.015 41.1904 119.022 41.1774 119.067L41.2197 118.903C41.2457 118.579 41.1058 119.057 41.0733 118.997C41.0733 119.057 41.0928 119.046 41.057 119.158L41.0213 119.126L41.0603 118.987L41.0213 118.889L40.992 119.064C40.9822 118.966 41.0375 118.67 40.9529 118.907C40.9074 119.039 40.9269 119.147 40.8846 119.193C40.8716 119.064 40.8553 118.872 40.8163 118.809C40.7772 119.004 40.7642 118.994 40.7447 119.029L40.7805 118.858C40.6764 119.078 40.8456 118.482 40.7512 118.656L40.7838 118.541L40.6894 118.889C40.5658 119.21 40.7447 118.534 40.5885 118.977C40.6146 118.952 40.5137 119.349 40.5039 119.269L40.5462 119.109C40.5235 119.14 40.5039 119.207 40.5039 119.172C40.5332 119.085 40.5625 118.935 40.5365 118.959L40.5983 118.76L40.4909 119.05C40.5007 118.868 40.4031 119.074 40.4454 118.841C40.4454 118.841 40.4063 118.712 40.3348 118.959C40.3836 118.806 40.3608 118.736 40.4161 118.558C40.3575 118.729 40.2762 118.861 40.299 118.67L40.3087 118.649C40.2827 118.436 40.1233 118.879 40.1135 118.628C40.0712 118.823 40.0615 118.708 40.0094 118.959C39.8825 119.189 40.0094 118.419 39.7979 119.182C39.7556 119.214 39.8044 118.99 39.7979 118.949L39.8142 118.91C39.7426 118.959 39.7231 118.959 39.6841 118.931C39.645 119.001 39.5539 119.356 39.5376 119.259C39.5832 119.119 39.5637 119.14 39.5474 119.137C39.5637 119.116 39.5767 119.067 39.5832 118.966C39.5702 119.008 39.5604 119.036 39.5507 119.057C39.5507 119.046 39.5539 119.036 39.5572 119.022C39.5214 119.064 39.5149 119.109 39.5214 119.133C39.5149 119.154 39.5084 119.182 39.5019 119.224C39.5214 119.032 39.4303 119.217 39.4856 118.973C39.401 119.008 39.2871 119.248 39.2025 119.325C39.2285 119.196 39.2676 119.092 39.2969 119.046L39.2416 119.081C39.2871 118.9 39.2904 118.984 39.3132 118.952C39.3359 118.645 39.1375 119.214 39.144 118.928L39.0952 119.067V119.043C39.0789 119.119 39.0398 119.217 39.0236 119.238C39.0561 119.078 39.1147 118.875 39.0821 118.875C39.0984 118.719 38.9976 118.931 38.9455 119.008C38.9553 119.039 38.9292 119.126 38.9065 119.179C38.8902 119.179 38.9227 119.022 38.8935 119.085L38.9455 118.872C38.8999 119.074 38.8511 119.078 38.8251 119.161C38.8577 119.001 38.8837 119.032 38.9162 118.914C38.8511 118.914 38.8837 118.914 38.8219 118.917C38.7503 119.067 38.7763 119.119 38.7145 119.301C38.6754 119.336 38.6104 119.475 38.6104 119.336L38.5713 119.527C38.4802 119.656 38.4542 119.625 38.4705 119.426C37.6766 120.838 37.8425 121.49 37.8425 121.49C37.8946 121.954 38.1191 121.431 38.3436 121.336L38.3631 121.33Z" fill="#20BB65"/>
</svg>
