<svg width="170" height="54" viewBox="0 0 170 54" fill="none" xmlns="http://www.w3.org/2000/svg">
<path d="M2.8608 1.68677L2.78711 1.70043C2.82235 1.70043 2.85119 1.69706 2.8608 1.68677Z" fill="#20BB65"/>
<path d="M0.34363 2.26348C0.34363 2.26348 0.330689 2.26348 0.324219 2.26001H0.34363V2.26348Z" fill="#20BB65"/>
<path d="M0.537306 1.52106C0.443817 1.71103 0.0988817 1.76976 0.240727 1.9701C0.214937 2.06681 0.298756 2.17046 0.343889 2.26372C0.617908 2.29826 0.350333 2.38806 0.582443 2.42951L0.42769 2.45717C0.50506 2.47098 0.559875 2.49168 0.479281 2.5124H0.434144C0.553422 2.53312 0.482509 2.56764 0.54376 2.57801H0.498623L0.521191 2.61258H0.456712C0.582438 2.65057 0.592113 2.69889 0.540533 2.74379L0.727516 2.72659C0.52442 2.83366 0.914479 2.83707 0.672698 2.93724H0.62758C1.12726 3.00286 0.301972 3.13412 0.779087 3.19975C0.72106 3.19284 0.682374 3.21358 0.637241 3.21703C0.695269 3.26193 0.727498 3.31026 1.09178 3.27572C1.09178 3.31026 0.97896 3.31715 0.840339 3.33442C1.00153 3.31715 1.06923 3.34136 1.08212 3.36899L1.01764 3.36207L1.07889 3.4346L1.3787 3.38628C1.29488 3.43809 1.0112 3.43808 1.08857 3.46917L1.34002 3.44151C1.29488 3.50368 0.920937 3.58317 0.743631 3.66261C0.663037 3.91821 1.33035 4.07365 0.92416 4.36033L0.737177 4.40174C0.466382 4.45355 1.14982 4.39141 0.898364 4.44323H1.02732C0.978966 4.46395 0.93061 4.48808 0.866135 4.48463C0.859687 4.50881 0.904821 4.50192 0.988639 4.50537L0.824224 4.56061C0.708169 4.67804 1.04666 4.6953 0.9983 4.80583C0.675925 4.99235 1.03054 5.15468 1.24331 5.23412C1.67851 5.30666 0.656582 5.78678 1.15949 5.84895C1.12403 5.86622 1.21107 5.85586 1.24331 5.84895V6.02511C1.24331 6.02511 1.27231 6.2358 1.556 6.27724C1.83969 6.3256 2.36839 6.17715 3.39677 5.57615L3.45479 5.56232C3.57407 5.44489 3.59341 5.38957 3.29038 5.42065C3.64822 5.31013 3.31296 5.34817 3.42256 5.29636L3.45157 5.28944C3.16465 5.32053 3.6579 5.13051 3.4 5.15469C3.42901 5.14778 3.52894 5.12366 3.53539 5.13057C3.48381 5.10985 3.39355 5.08566 3.60309 5.03039C3.53217 4.96822 3.60309 4.83698 3.25815 4.86806L3.31618 4.85769C3.08407 4.88532 3.27426 4.83002 3.15176 4.82312C3.17755 4.81621 3.19368 4.80928 3.20335 4.80583C2.97124 4.82655 3.14853 4.72293 3.0486 4.71602L3.18722 4.68153L3.1421 4.6263L3.1163 4.65733C2.72945 4.73332 3.34841 4.55716 3.09051 4.56407C3.13242 4.51225 2.26846 4.6435 2.44899 4.55715C2.26201 4.57097 2.74881 4.51574 2.60051 4.51229C2.80361 4.47084 2.72945 4.50188 2.89064 4.46043C2.78748 4.44661 3.08728 4.36723 2.94544 4.35342L3.10342 4.3223C2.80683 4.32575 3.29684 4.18756 3.01637 4.20483C2.87775 4.1772 3.48059 4.084 3.16144 4.08745L3.37097 4.02868C3.40321 4.00104 3.10664 4.05983 3.20658 4.01493C3.34198 3.99421 3.30973 3.96306 3.43868 3.95615C3.64178 3.86635 3.12276 3.89059 3.4677 3.75588C3.20335 3.78006 3.35486 3.71786 3.15499 3.73513C3.26782 3.71441 3.16466 3.65571 3.41934 3.66261C3.43868 3.66261 3.43867 3.66954 3.39354 3.67644L3.5515 3.65916C3.84164 3.57281 3.38065 3.60733 3.41934 3.55552C3.36776 3.57624 3.38388 3.59001 3.27749 3.59347L3.29361 3.55206L3.42579 3.54169L3.4967 3.47263L3.33552 3.50374C3.41611 3.46229 3.69013 3.41739 3.45802 3.41394C3.32585 3.41394 3.24202 3.46915 3.18722 3.44497C3.2936 3.3897 3.4548 3.3137 3.49993 3.25844C3.31618 3.28607 3.32263 3.27225 3.28395 3.25844L3.44191 3.23778C3.21624 3.21014 3.79008 3.17906 3.60955 3.14797L3.72237 3.14105L3.38711 3.16517C3.06473 3.15136 3.71592 3.10302 3.28072 3.09957C3.30973 3.11684 2.92933 3.14794 2.99703 3.1134L3.15176 3.10302C3.11952 3.09266 3.05184 3.09264 3.08407 3.08228C3.16789 3.08228 3.30973 3.06506 3.28072 3.04433L3.47414 3.03742L3.18722 3.02705C3.35163 2.98214 3.13887 2.95104 3.35486 2.91995C3.35486 2.91995 3.4548 2.84743 3.21624 2.85089C3.36453 2.85089 3.41933 2.80948 3.59341 2.80603C3.42578 2.80603 3.28394 2.7645 3.46125 2.72996H3.48059C3.6579 2.64707 3.22269 2.62641 3.43868 2.54352C3.2517 2.55733 3.35164 2.51588 3.1163 2.54352C2.87775 2.48825 3.59342 2.39149 2.85841 2.40531C2.8165 2.37422 3.02927 2.35697 3.06473 2.3397L3.10342 2.34661C3.04217 2.29135 3.03248 2.27405 3.0486 2.22915C2.97768 2.20842 2.63597 2.21882 2.71656 2.17737C2.85196 2.18428 2.82616 2.17044 2.82616 2.15317C2.84873 2.16353 2.89708 2.16352 2.98735 2.13934C2.94544 2.13934 2.91966 2.13588 2.89709 2.13242C2.90676 2.13242 2.91643 2.13242 2.92932 2.13242C2.88097 2.10825 2.83907 2.11515 2.81973 2.12551C2.80038 2.12551 2.77137 2.12552 2.7359 2.13242C2.90999 2.10134 2.72301 2.05989 2.95512 2.04953C2.89709 1.977 2.6553 1.92871 2.56504 1.86309C2.68432 1.85272 2.79071 1.86648 2.83907 1.88375L2.79393 1.83888C2.96801 1.83888 2.89386 1.86301 2.92932 1.87683C3.20979 1.82157 2.64887 1.76976 2.90355 1.70759L2.76813 1.69376H2.7907C2.71978 1.69376 2.61985 1.67654 2.59729 1.66618C2.7488 1.65582 2.94545 1.66615 2.93578 1.63507C3.08084 1.61089 2.86486 1.56597 2.78104 1.53489C2.75525 1.55216 2.67143 1.54525 2.61985 1.53834C2.61341 1.52107 2.76492 1.51422 2.70045 1.50385H2.90355C2.71334 1.50731 2.69722 1.46236 2.6134 1.45545C2.76492 1.44854 2.74235 1.47966 2.85518 1.48657C2.83584 1.4244 2.8455 1.45547 2.82616 1.3933C2.67464 1.35876 2.63275 1.39329 2.45544 1.37947C2.41676 1.34839 2.27491 1.31729 2.39741 1.28621L2.21689 1.29312C2.07826 1.2344 2.10082 1.19991 2.28457 1.16537C1.556 0.930494 1.05633 0.878681 0.737177 0.902859C0.418026 0.923583 0.282637 1.01333 0.282637 1.01333C-0.120332 1.18948 0.401912 1.30345 0.540533 1.52106H0.537306Z" fill="#20BB65"/>
<path d="M7.34062 12.1338L7.30859 12.2093C7.33102 12.1818 7.34703 12.1544 7.34062 12.1338Z" fill="#20BB65"/>
<path d="M12.3398 15.5525C12.3398 15.5525 12.3467 15.5457 12.3536 15.5388C12.3467 15.5422 12.3433 15.5457 12.3398 15.5525Z" fill="#20BB65"/>
<path d="M6.46344 14.876C6.46344 14.876 6.45374 14.8829 6.44727 14.8864L6.46668 14.876H6.46344Z" fill="#20BB65"/>
<path d="M5.56353 13.7711C5.76662 14.0923 5.60866 14.4514 5.98584 14.5896C6.10512 14.7312 6.29854 14.8003 6.46295 14.8763C6.69506 14.7002 6.64347 15.0214 6.85946 14.8901L6.79498 15.0456C6.86913 15.0007 6.93039 14.98 6.90783 15.0732L6.8788 15.1112C6.98841 15.0421 6.99164 15.1388 7.04644 15.1043L7.01742 15.1423L7.07867 15.1629L7.03356 15.2113C7.1754 15.1595 7.25276 15.2079 7.28177 15.3046L7.38493 15.1388C7.39461 15.4255 7.66863 15.125 7.64928 15.4324L7.62026 15.4704C8.05547 15.1492 7.67508 15.9505 8.10062 15.65C8.04904 15.688 8.05547 15.7432 8.02968 15.7812C8.13284 15.7847 8.22956 15.8158 8.43265 15.4877C8.48423 15.5291 8.41332 15.6224 8.3424 15.7537C8.42944 15.6086 8.51325 15.5809 8.56161 15.6016L8.51002 15.6431L8.65832 15.6777L8.80016 15.3875C8.81628 15.5084 8.61641 15.7329 8.71634 15.7087L8.85174 15.4808C8.91299 15.5844 8.76147 15.9644 8.7518 16.1923C9.06128 16.5377 9.77373 16.1854 9.89945 16.8002L9.82209 16.9867C9.69636 17.2492 10.1154 16.6586 10.0058 16.9072L10.1058 16.814C10.0929 16.8658 10.0929 16.9314 10.0413 16.9763C10.0735 17.0074 10.0961 16.966 10.1638 16.9038L10.1219 17.0903C10.2057 17.3045 10.4894 17.0558 10.6119 17.2078C10.6377 17.6499 11.1438 17.529 11.4275 17.4565C11.8885 17.2009 11.7596 18.4443 12.2592 18.1231C12.2528 18.1645 12.3141 18.092 12.3269 18.0609L12.5848 18.2302C12.5848 18.2302 12.9072 18.4098 13.2135 18.244C13.523 18.0816 13.7938 17.567 13.7583 16.2199L13.7873 16.1647C13.7035 15.954 13.6293 15.8849 13.4101 16.137C13.5455 15.764 13.3102 16.0438 13.3263 15.9125L13.3424 15.8849C13.1393 16.1232 13.2651 15.5705 13.0781 15.7812C13.0942 15.7536 13.1361 15.6569 13.1587 15.6569C13.0813 15.6742 12.962 15.7157 13.0491 15.5015C12.8847 15.4842 12.7331 15.2908 12.4946 15.5775L12.5268 15.5222C12.3753 15.7225 12.4462 15.5222 12.3366 15.6085C12.3463 15.5809 12.3495 15.5637 12.3527 15.5533C12.198 15.7467 12.1754 15.5015 12.0852 15.5706L12.1464 15.4324L12.0207 15.4048L12.0497 15.4566C11.8595 15.8261 12.0755 15.1733 11.8821 15.3771C11.8305 15.2908 11.3566 16.0783 11.3663 15.8469C11.2438 16.0023 11.5371 15.5809 11.4146 15.6845C11.5081 15.4876 11.4984 15.5775 11.5597 15.4117C11.4598 15.4739 11.5661 15.163 11.4372 15.2562L11.5081 15.1043C11.2825 15.3322 11.4436 14.8141 11.2534 15.0456C11.1019 15.1181 11.4211 14.562 11.1793 14.8038L11.247 14.5792C11.2244 14.524 11.0923 14.8107 11.0987 14.6863C11.1664 14.5585 11.0987 14.5516 11.1857 14.4446C11.1922 14.1855 10.8376 14.6138 10.8891 14.1959C10.728 14.4273 10.7441 14.2373 10.6248 14.41C10.6796 14.2995 10.5055 14.3133 10.7054 14.1234C10.7215 14.1096 10.7312 14.1199 10.7054 14.1613L10.7924 14.0197C10.873 13.6985 10.5797 14.0888 10.5313 14.0024C10.5249 14.0646 10.5603 14.0681 10.4862 14.1579L10.4314 14.0957L10.512 13.9817L10.4539 13.847L10.383 14.0059C10.3798 13.8954 10.5088 13.6294 10.3347 13.809C10.2412 13.9126 10.2637 14.0404 10.1864 14.0542C10.1799 13.9092 10.1735 13.6916 10.1219 13.5949C10.0316 13.7676 10.0123 13.7469 9.97039 13.7676L10.0542 13.619C9.85111 13.7641 10.2122 13.2771 10.0349 13.3807L10.1026 13.284L9.89945 13.5707C9.65122 13.8056 10.0413 13.2426 9.71892 13.5741C9.76728 13.5741 9.54162 13.9023 9.5384 13.8125L9.6351 13.6812C9.5932 13.6951 9.55129 13.7468 9.55451 13.7088C9.61254 13.6432 9.68669 13.512 9.63833 13.512L9.76729 13.353L9.54808 13.5638C9.59321 13.3807 9.39655 13.5154 9.49971 13.3047C9.49971 13.3047 9.4578 13.1355 9.29984 13.3289C9.403 13.2115 9.38043 13.1217 9.49648 12.9801C9.37398 13.1113 9.21926 13.1735 9.29018 12.9939L9.30629 12.9801C9.29662 12.7383 8.96457 13.0526 8.99358 12.7797C8.8872 12.9455 8.89366 12.8142 8.76793 13.0318C8.51971 13.1493 8.86465 12.4654 8.38431 13.0664C8.31339 13.063 8.43265 12.873 8.42943 12.8212L8.4649 12.797C8.33918 12.7763 8.31015 12.759 8.25535 12.6899C8.17798 12.7244 7.96199 13.0077 7.95232 12.8868C8.05548 12.7901 8.01679 12.7901 7.99423 12.7728C8.02324 12.7659 8.05547 12.7279 8.08448 12.6278C8.05547 12.6588 8.03291 12.6761 8.01357 12.6899C8.02002 12.6795 8.02324 12.6726 8.03291 12.6622C7.96521 12.6726 7.94587 12.7141 7.95232 12.7418C7.93942 12.759 7.9233 12.7832 7.90395 12.8177C7.97488 12.6381 7.79113 12.7348 7.93297 12.5379C7.79113 12.4861 7.55902 12.6174 7.41073 12.6105C7.47843 12.5034 7.56868 12.4343 7.62349 12.4205L7.53001 12.3997C7.64284 12.2581 7.62994 12.3514 7.67185 12.341C7.77824 12.0474 7.33659 12.4274 7.41718 12.1373L7.30757 12.2305L7.31725 12.2064C7.26889 12.2651 7.18507 12.3238 7.15606 12.3307C7.2431 12.1994 7.38817 12.0544 7.33659 12.0198C7.40106 11.8713 7.19152 11.9887 7.09158 12.0095C7.09803 12.0509 7.03355 12.1096 6.98842 12.1441C6.96263 12.1269 7.0529 11.9957 6.99487 12.0302L7.13026 11.8679C7.00776 12.0268 6.93684 11.975 6.87237 12.0337C6.96263 11.9024 6.99165 11.9645 7.07547 11.8816C6.97875 11.8125 7.02711 11.8472 6.93039 11.7781C6.7821 11.8541 6.80789 11.9369 6.66282 12.0543C6.59512 12.044 6.45649 12.1131 6.49518 11.9749L6.38558 12.1304C6.2115 12.1615 6.18248 12.0958 6.25985 11.9024C5.46358 12.1614 5.06062 12.4861 4.87687 12.7728C4.68989 13.056 4.71889 13.2874 4.71889 13.2874C4.6802 13.8574 5.18634 13.588 5.57319 13.7711H5.56353Z" fill="#20BB65"/>
<path d="M21.3105 18.8542L21.3174 18.937C21.3243 18.9025 21.3278 18.868 21.3105 18.8542Z" fill="#20BB65"/>
<path d="M27.3359 20.0983C27.3359 20.0983 27.3395 20.0875 27.3467 20.0803C27.3395 20.0875 27.3395 20.0911 27.3359 20.0983Z" fill="#20BB65"/>
<path d="M21.6733 21.7241C21.6733 21.7241 21.6658 21.7353 21.6621 21.7427L21.677 21.7241H21.6733Z" fill="#20BB65"/>
<path d="M20.4755 21.1996C20.7785 21.3792 20.7849 21.7661 21.1589 21.7039C21.3136 21.773 21.5038 21.7315 21.6715 21.7246C21.8069 21.4586 21.881 21.7695 22.0197 21.5519V21.7212C22.068 21.6452 22.1164 21.6003 22.1292 21.6935L22.1164 21.7384C22.1873 21.6279 22.2227 21.7108 22.2582 21.6555L22.2453 21.7039L22.3066 21.697L22.284 21.7626C22.3904 21.6521 22.4742 21.6624 22.5354 21.7384L22.5677 21.5416C22.6773 21.7972 22.8159 21.4034 22.903 21.6935L22.8933 21.7419C23.1705 21.2617 23.106 22.1564 23.3801 21.7039C23.3446 21.7592 23.3704 21.8075 23.3607 21.8559C23.4542 21.8179 23.5509 21.8075 23.6251 21.4207C23.6863 21.4379 23.6509 21.5519 23.6315 21.7039C23.6638 21.5347 23.7282 21.4759 23.7766 21.4759L23.7411 21.5381L23.8894 21.5105L23.9217 21.1858C23.9765 21.2929 23.8669 21.5795 23.9507 21.5174L23.999 21.2514C24.0893 21.3239 24.0732 21.7384 24.1377 21.9526C24.5213 22.1495 25.0693 21.5588 25.3659 22.0976L25.3498 22.3014C25.3079 22.595 25.5239 21.8904 25.4948 22.1632L25.5593 22.0389C25.5625 22.0942 25.5787 22.1529 25.5464 22.2151C25.5851 22.2324 25.5948 22.1874 25.6367 22.1045L25.6496 22.2945C25.785 22.4672 25.9784 22.139 26.1364 22.2427C26.2782 22.6502 26.7134 22.3774 26.9616 22.2151C27.3324 21.8317 27.5194 23.0578 27.9094 22.6054C27.9127 22.6468 27.9546 22.5605 27.9578 22.5259L28.2415 22.6123C28.2415 22.6123 28.5864 22.6952 28.8411 22.4534C29.0958 22.2116 29.2505 21.6451 28.8927 20.3499L28.9088 20.2877C28.7766 20.1081 28.6831 20.0597 28.5316 20.3637C28.5703 19.9665 28.4091 20.3015 28.393 20.1703L28.3994 20.1392C28.2608 20.4259 28.2415 19.856 28.1125 20.1116C28.119 20.0805 28.1383 19.9734 28.1609 19.97C28.0867 20.008 27.9836 20.0805 28.0126 19.8525C27.845 19.8871 27.6419 19.742 27.4871 20.0908L27.5033 20.0287C27.4098 20.267 27.4227 20.0529 27.3388 20.1669C27.3388 20.1358 27.3388 20.1185 27.3388 20.1081C27.2389 20.3395 27.1486 20.115 27.0841 20.2083L27.1035 20.0563L26.9713 20.0702L27.0132 20.1116C26.9326 20.526 26.9584 19.8318 26.8263 20.0874C26.7489 20.0183 26.52 20.9232 26.462 20.7022C26.3878 20.8887 26.549 20.3913 26.462 20.5295C26.4942 20.3119 26.5135 20.3983 26.5232 20.2221C26.4458 20.3154 26.4587 19.9803 26.3588 20.115L26.3814 19.9458C26.2331 20.2359 26.2299 19.6902 26.117 19.97C25.9913 20.0909 26.1299 19.4553 25.9687 19.7662V19.5279C25.9268 19.483 25.8849 19.8007 25.8559 19.6833C25.8817 19.5382 25.8108 19.5555 25.8624 19.4242C25.785 19.179 25.5787 19.7006 25.4916 19.2896C25.411 19.5624 25.3659 19.3828 25.3047 19.5865C25.3208 19.4622 25.1564 19.5382 25.2885 19.2896C25.2982 19.2688 25.3111 19.2757 25.3014 19.324L25.3401 19.1583C25.3079 18.8267 25.1564 19.2999 25.079 19.2342C25.0951 19.293 25.1306 19.286 25.0886 19.3966L25.0145 19.3586L25.0564 19.2204L24.9533 19.1134L24.9404 19.2896C24.8985 19.1894 24.9307 18.8923 24.8243 19.1238C24.7695 19.255 24.8372 19.3689 24.7663 19.4104C24.7115 19.2757 24.6277 19.0754 24.5406 19.0063C24.5148 19.2032 24.489 19.1893 24.4568 19.2239L24.4858 19.0546C24.3407 19.2688 24.5148 18.6747 24.3794 18.8405L24.4084 18.723L24.3182 19.0684C24.1634 19.3828 24.3343 18.7092 24.1473 19.141C24.1925 19.1202 24.099 19.5175 24.0603 19.4346L24.1022 19.2757C24.0667 19.3034 24.0474 19.369 24.0345 19.3344C24.0667 19.2515 24.0861 19.0996 24.0409 19.1203L24.1054 18.9234L23.9732 19.2067C23.9475 19.0201 23.8121 19.217 23.8314 18.9821C23.8314 18.9821 23.725 18.8405 23.6476 19.0857C23.7024 18.9338 23.6444 18.8612 23.6992 18.6816C23.6315 18.8509 23.5058 18.9752 23.5058 18.7784L23.5187 18.7576C23.4123 18.5331 23.2221 18.9648 23.1383 18.7023C23.106 18.8992 23.0577 18.7784 23.0255 19.0305C22.8417 19.2446 22.8836 18.4674 22.6805 19.2273C22.6096 19.2549 22.6451 19.0305 22.6225 18.9821L22.6451 18.9441C22.5193 18.9787 22.4839 18.9787 22.4033 18.9441C22.3453 19.0098 22.2646 19.3655 22.2066 19.2619C22.2614 19.1272 22.226 19.1444 22.197 19.1375C22.2195 19.1202 22.2356 19.0684 22.2195 18.9648C22.2066 19.0063 22.1905 19.0339 22.1776 19.0546C22.1776 19.0443 22.1776 19.0339 22.1841 19.0201C22.126 19.0581 22.126 19.1065 22.1422 19.1307C22.1357 19.1514 22.1325 19.179 22.1325 19.2204C22.1228 19.0235 21.9939 19.1998 22.039 18.9545C21.8843 18.9752 21.7295 19.2032 21.5909 19.2688C21.6038 19.141 21.6554 19.0374 21.7005 18.9959L21.607 19.0201C21.6457 18.8405 21.6779 18.9268 21.7102 18.8992C21.6747 18.5814 21.4394 19.1376 21.3813 18.8405L21.3265 18.9752V18.9511C21.3072 19.0271 21.2588 19.1237 21.2363 19.141C21.2556 18.9786 21.3169 18.7784 21.2589 18.7749C21.246 18.6126 21.1106 18.8163 21.0332 18.8854C21.059 18.9199 21.03 19.0063 21.0042 19.0546C20.9751 19.0546 20.9945 18.8923 20.9558 18.9545L21.0009 18.7438C20.9655 18.9476 20.8752 18.9372 20.8462 19.0236C20.8655 18.8612 20.9236 18.8993 20.9558 18.7853C20.8365 18.7749 20.8946 18.7784 20.7753 18.768C20.6754 18.9096 20.7398 18.9717 20.6689 19.1479C20.6044 19.1755 20.5174 19.3068 20.4819 19.1652L20.4593 19.3586C20.3207 19.4761 20.2659 19.438 20.2401 19.2273C19.6728 19.8836 19.5019 20.3914 19.4793 20.7368C19.4568 21.0822 19.5793 21.2652 19.5793 21.2652C19.792 21.7661 20.0854 21.2652 20.4884 21.2134L20.4755 21.1996Z" fill="#20BB65"/>
<path d="M36.9023 21.3513L36.9216 21.434C36.9216 21.3961 36.9216 21.3651 36.9023 21.3513Z" fill="#20BB65"/>
<path d="M43.0625 21.7737C43.0625 21.7737 43.0662 21.7626 43.0699 21.7551C43.0662 21.7626 43.0625 21.7663 43.0625 21.7737Z" fill="#20BB65"/>
<path d="M37.6475 24.1313C37.6475 24.1313 37.6441 24.1417 37.6406 24.1521L37.651 24.1313H37.6475Z" fill="#20BB65"/>
<path d="M36.4089 23.8036C36.7312 23.9314 36.7893 24.3113 37.1439 24.1904C37.3051 24.2353 37.4856 24.1628 37.6468 24.1318C37.7435 23.8485 37.8563 24.1455 37.9627 23.9072L37.9853 24.0764C38.0207 23.997 38.0626 23.9418 38.0884 24.035L38.082 24.0833C38.1368 23.9625 38.1851 24.0419 38.2109 23.9797L38.2045 24.0281L38.2625 24.0108L38.2496 24.0799C38.3399 23.9521 38.4237 23.9521 38.4914 24.0177L38.4979 23.8174C38.6397 24.0523 38.7235 23.6447 38.846 23.921L38.8396 23.9693C39.0523 23.4547 39.0975 24.3493 39.3135 23.8623C39.2877 23.9245 39.3135 23.9659 39.3135 24.0143C39.4005 23.9625 39.494 23.9417 39.5198 23.548C39.581 23.5583 39.5617 23.6758 39.5585 23.8278C39.5681 23.6551 39.6262 23.5894 39.6745 23.5791L39.6487 23.6447L39.7906 23.5964L39.7841 23.2682C39.8518 23.3684 39.7777 23.6654 39.8518 23.5929L39.868 23.3235C39.9647 23.3857 39.9969 23.7967 40.0839 24.0005C40.4837 24.1455 40.9608 23.4858 41.309 23.9866L41.3154 24.1904C41.3057 24.4875 41.4444 23.7587 41.4444 24.035L41.4959 23.9037C41.5056 23.9555 41.5282 24.0143 41.5024 24.0799C41.5411 24.0937 41.5475 24.0454 41.5798 23.9591L41.612 24.1455C41.7635 24.2975 41.9215 23.9521 42.0859 24.035C42.2696 24.4219 42.6694 24.1006 42.8983 23.9141C43.2271 23.4893 43.5301 24.6878 43.8718 24.1974C43.8815 24.2388 43.9105 24.1456 43.9138 24.1145L44.2007 24.1732C44.2007 24.1732 45.5965 24.3562 44.6391 21.8521L44.6488 21.7899C44.4973 21.6241 44.4005 21.5861 44.278 21.9038C44.278 21.5066 44.1523 21.8555 44.1201 21.7242L44.1265 21.6932C44.0169 21.9937 43.9428 21.4272 43.8364 21.6967C43.8428 21.6656 43.8493 21.555 43.8686 21.5515C43.7977 21.5999 43.7042 21.6829 43.7074 21.4514C43.543 21.5032 43.327 21.3823 43.2045 21.7484L43.2142 21.6863C43.1433 21.9315 43.1368 21.7174 43.0659 21.8417C43.0659 21.8106 43.0595 21.7968 43.0627 21.783C42.9853 22.0248 42.8757 21.8106 42.8177 21.9142V21.7588L42.692 21.7865L42.7371 21.821C42.6984 22.2423 42.6533 21.5515 42.5469 21.821C42.4631 21.7622 42.3244 22.688 42.2471 22.4773C42.1923 22.6707 42.3019 22.1595 42.231 22.308C42.2406 22.087 42.2696 22.1733 42.26 21.9937C42.1923 22.0938 42.1697 21.7622 42.0827 21.9073L42.0891 21.7346C41.9698 22.042 41.9118 21.4963 41.828 21.7934C41.7152 21.9281 41.7861 21.2787 41.6604 21.6068L41.6313 21.372C41.5862 21.3305 41.583 21.6552 41.5379 21.5378C41.5507 21.3927 41.4798 21.4169 41.5185 21.2787C41.4153 21.0439 41.2638 21.5861 41.1349 21.1924C41.0865 21.4756 41.0188 21.2994 40.9801 21.5136C40.9834 21.3892 40.8254 21.4825 40.9286 21.22C40.9382 21.1992 40.9511 21.2027 40.9479 21.2511L40.9672 21.0818C40.8995 20.7572 40.7996 21.2476 40.7158 21.1924C40.7384 21.2511 40.7738 21.2373 40.7448 21.3513L40.6674 21.3236L40.6932 21.182L40.5804 21.0922L40.5868 21.2684C40.5353 21.1751 40.532 20.8745 40.4514 21.1198C40.4128 21.2579 40.4934 21.3616 40.4257 21.4099C40.3547 21.2856 40.2484 21.0956 40.1516 21.0369C40.1516 21.2338 40.1226 21.2269 40.0904 21.2649L40.0968 21.0922C39.9776 21.3236 40.0807 20.7122 39.9647 20.8953L39.9808 20.7778L39.9292 21.1336C39.8131 21.4652 39.9002 20.7744 39.7648 21.2303C39.8099 21.2027 39.7616 21.6103 39.7132 21.5309L39.7358 21.3651C39.7068 21.3996 39.6907 21.4652 39.6745 21.4307C39.6971 21.3409 39.7003 21.1889 39.6552 21.2165L39.6971 21.0128L39.5971 21.3132C39.5488 21.1302 39.436 21.3478 39.4263 21.1095C39.4263 21.1095 39.3038 20.9851 39.2554 21.2372C39.2909 21.0818 39.2232 21.0128 39.2554 20.8297C39.2103 21.0058 39.1007 21.1474 39.0717 20.9505L39.0814 20.9299C38.946 20.7226 38.8106 21.1786 38.6945 20.9299C38.6881 21.1302 38.6236 21.0162 38.6236 21.2718C38.4688 21.5136 38.4108 20.733 38.3044 21.517C38.24 21.555 38.2432 21.3271 38.2142 21.2822L38.2335 21.2407C38.111 21.296 38.0755 21.2995 37.9917 21.2753C37.9434 21.3478 37.9079 21.7139 37.837 21.6172C37.8725 21.4756 37.837 21.4997 37.8112 21.4963C37.8305 21.4756 37.8402 21.4238 37.8112 21.3201C37.8015 21.365 37.7919 21.3927 37.7822 21.4134C37.7822 21.403 37.7822 21.3926 37.7822 21.3788C37.7306 21.4272 37.7338 21.4721 37.7564 21.4928C37.7564 21.5136 37.7564 21.5447 37.7564 21.5826C37.7209 21.3892 37.6145 21.5827 37.6274 21.334C37.4759 21.3789 37.3534 21.6276 37.2245 21.7139C37.2212 21.5827 37.2567 21.4721 37.2986 21.4272L37.2084 21.4652C37.2245 21.2821 37.2664 21.365 37.2954 21.3305C37.2148 21.0231 37.0601 21.6103 36.9601 21.3236L36.9247 21.4686L36.9182 21.4445C36.9118 21.5205 36.8763 21.6241 36.857 21.6483C36.8537 21.4859 36.886 21.2787 36.828 21.2822C36.7925 21.1233 36.6861 21.3478 36.6184 21.4272C36.6506 21.4583 36.6313 21.5447 36.612 21.5999C36.583 21.5999 36.5765 21.441 36.5475 21.5067L36.5636 21.2891C36.5604 21.4929 36.4669 21.5032 36.4508 21.5896C36.4476 21.4272 36.5088 21.4549 36.5249 21.334C36.4024 21.3443 36.4637 21.3374 36.3444 21.3478C36.267 21.5067 36.3379 21.555 36.2928 21.7415C36.2316 21.7795 36.1639 21.9246 36.1123 21.7865V21.9799C35.9994 22.1181 35.935 22.0904 35.8802 21.8901C34.9517 23.3788 35.5288 24.0143 35.5288 24.0143C35.8092 24.4702 36.0188 23.9245 36.4056 23.8105L36.4089 23.8036Z" fill="#20BB65"/>
<path d="M52.7246 22.1489L52.747 22.2279C52.747 22.1901 52.7406 22.1592 52.7246 22.1489Z" fill="#20BB65"/>
<path d="M58.9102 22.1951C58.9102 22.1951 58.9139 22.184 58.9176 22.1765C58.9139 22.184 58.9102 22.1877 58.9102 22.1951Z" fill="#20BB65"/>
<path d="M53.63 24.8704C53.63 24.8704 53.6265 24.8842 53.623 24.8912L53.63 24.8704Z" fill="#20BB65"/>
<path d="M52.3791 24.6361C52.7047 24.7362 52.7853 25.1127 53.1303 24.9642C53.2915 24.9953 53.4688 24.9123 53.6267 24.8674C53.7073 24.5773 53.8363 24.8675 53.9298 24.6222L53.962 24.788C53.9942 24.7051 54.0297 24.6499 54.0619 24.7397V24.788C54.1071 24.6637 54.1586 24.7396 54.1812 24.6775V24.7259L54.236 24.7051L54.2263 24.7742C54.3101 24.6429 54.3908 24.636 54.4617 24.6947V24.4944C54.61 24.7189 54.6744 24.3044 54.8098 24.5738V24.6222C54.9904 24.0972 55.0838 24.9848 55.274 24.4875C55.2515 24.5496 55.2837 24.5912 55.2805 24.6395C55.3643 24.5842 55.4546 24.5531 55.461 24.1594C55.5223 24.1663 55.5094 24.2837 55.5158 24.4357C55.5158 24.263 55.5706 24.1905 55.619 24.1836L55.5964 24.2492L55.735 24.1905L55.7125 23.8658C55.7834 23.9591 55.7254 24.263 55.7963 24.1836V23.9141C55.8995 23.9694 55.9543 24.3769 56.0478 24.5773C56.4507 24.6982 56.8956 24.0143 57.2663 24.4944L57.2825 24.6982C57.2857 24.9952 57.3888 24.2596 57.4017 24.5359L57.4469 24.4011C57.4598 24.4529 57.4856 24.5116 57.463 24.5773C57.5049 24.5876 57.5049 24.5393 57.5339 24.453L57.5758 24.6361C57.7338 24.7811 57.8724 24.4288 58.04 24.5013C58.2399 24.8812 58.6235 24.5393 58.8427 24.339C59.1522 23.9003 59.5068 25.085 59.826 24.5807C59.8357 24.6222 59.8615 24.5289 59.8615 24.4944L60.1516 24.5393C60.1516 24.5393 61.5507 24.6706 60.4933 22.201L60.4998 22.1353C60.3418 21.9765 60.2451 21.9419 60.1355 22.2631C60.1193 21.8659 60.0065 22.2217 59.9711 22.0904V22.0594C59.8776 22.3633 59.7776 21.8037 59.6841 22.0766C59.6874 22.0455 59.6906 21.935 59.7099 21.9281C59.6422 21.9764 59.5487 22.0662 59.5455 21.8348C59.3843 21.8935 59.1619 21.7831 59.0555 22.1526L59.062 22.0869C59.0007 22.3356 58.9846 22.1215 58.9201 22.2493C58.9169 22.2182 58.9137 22.2044 58.9137 22.1906C58.8492 22.4358 58.7267 22.2251 58.6751 22.3322V22.1768L58.5462 22.2113L58.5945 22.2458C58.5752 22.6672 58.501 21.9799 58.4043 22.2527C58.3173 22.1975 58.2238 23.1301 58.1335 22.9229C58.0884 23.1198 58.1722 22.6017 58.1077 22.7536C58.1077 22.5326 58.14 22.6154 58.1239 22.4393C58.0594 22.5429 58.0207 22.2113 57.9433 22.3598V22.1871C57.8369 22.5014 57.7531 21.9591 57.6822 22.2562C57.5758 22.3978 57.6177 21.745 57.5049 22.08L57.4662 21.8486C57.4211 21.8106 57.4307 22.1319 57.3792 22.0213C57.3824 21.8763 57.3147 21.9039 57.3469 21.7657C57.2309 21.5343 57.1084 22.087 56.9569 21.7001C56.9214 21.9834 56.844 21.8141 56.8182 22.0283C56.8182 21.9039 56.6635 22.0075 56.7538 21.7381C56.7602 21.7174 56.7731 21.7208 56.7731 21.7692L56.786 21.6C56.7022 21.2787 56.6248 21.7726 56.5378 21.7243C56.5636 21.7795 56.5958 21.7658 56.5732 21.8832L56.4926 21.859L56.512 21.7174L56.3927 21.6345L56.4088 21.8106C56.3508 21.7208 56.3347 21.4203 56.2637 21.669C56.2315 21.8072 56.3153 21.9074 56.2541 21.9626C56.1767 21.8418 56.0606 21.6587 55.9607 21.6069C55.9672 21.8038 55.9414 21.7968 55.9124 21.8383V21.6656C55.8028 21.9039 55.8769 21.2856 55.7705 21.4756L55.7802 21.3547L55.7479 21.714C55.648 22.0525 55.6996 21.3581 55.59 21.821C55.6319 21.7933 55.6061 22.201 55.5545 22.125L55.5706 21.9592C55.5416 21.9937 55.532 22.0628 55.5126 22.0283C55.532 21.9384 55.5255 21.7864 55.4836 21.8141L55.5158 21.6069L55.432 21.9108C55.374 21.7312 55.274 21.9558 55.2515 21.7209C55.2515 21.7209 55.1225 21.6034 55.0871 21.859C55.1161 21.7001 55.0452 21.638 55.0677 21.4515C55.0323 21.6311 54.9291 21.7761 54.8904 21.5861L54.8969 21.5654C54.7518 21.3685 54.639 21.8314 54.5068 21.5896C54.5068 21.7899 54.4423 21.6794 54.4552 21.935C54.3134 22.1871 54.2102 21.4134 54.149 22.201C54.0845 22.2424 54.078 22.0145 54.0458 21.973L54.0619 21.9315C53.9427 21.9937 53.9072 22.0006 53.8202 21.9833C53.775 22.0593 53.7621 22.4254 53.6847 22.3356C53.7138 22.1906 53.6815 22.2182 53.6493 22.2182C53.6686 22.1941 53.6751 22.1423 53.6396 22.0455C53.6332 22.0904 53.6235 22.1181 53.6171 22.1423C53.6171 22.1319 53.6171 22.1215 53.6171 22.1077C53.5687 22.1595 53.5751 22.2044 53.5977 22.2252C53.5977 22.2459 53.5977 22.277 53.6041 22.315C53.5558 22.125 53.4623 22.3253 53.4591 22.0766C53.3108 22.1318 53.2012 22.3909 53.0754 22.4842C53.0626 22.3564 53.0948 22.2424 53.1303 22.1906L53.0432 22.2355C53.0464 22.049 53.0948 22.1284 53.1238 22.0939C53.0271 21.7934 52.9046 22.3909 52.7886 22.1146L52.7595 22.2596L52.7531 22.2355C52.7531 22.3115 52.7241 22.4185 52.7047 22.4427C52.6918 22.2804 52.7144 22.0697 52.6531 22.08C52.608 21.9246 52.5177 22.156 52.4533 22.2424C52.4855 22.27 52.4726 22.3598 52.4597 22.4151C52.4307 22.4185 52.4146 22.2596 52.392 22.3287V22.1111C52.4017 22.3149 52.3114 22.3322 52.2985 22.422C52.2856 22.2596 52.3469 22.2838 52.3566 22.1629C52.2341 22.1802 52.2953 22.1733 52.176 22.1906C52.1083 22.3529 52.1825 22.3978 52.1502 22.5878C52.0922 22.6292 52.0342 22.7812 51.9729 22.65L51.989 22.8434C51.8794 22.992 51.815 22.9677 51.7473 22.7708C50.9188 24.3355 51.5345 24.9192 51.5345 24.9192C51.8408 25.351 52.0148 24.788 52.392 24.643L52.3791 24.6361Z" fill="#20BB65"/>
<path d="M68.5977 22.1973L68.6233 22.2762C68.6233 22.2384 68.6169 22.2076 68.5977 22.1973Z" fill="#20BB65"/>
<path d="M74.7969 22.077C74.7969 22.077 74.8005 22.0663 74.8041 22.0591C74.8005 22.0663 74.7969 22.0734 74.7969 22.077Z" fill="#20BB65"/>
<path d="M69.5772 24.8911C69.5772 24.8911 69.5738 24.905 69.5703 24.9119L69.5772 24.8911Z" fill="#20BB65"/>
<path d="M68.3233 24.6912C68.6522 24.7845 68.7424 25.1576 69.0841 24.9987C69.2453 25.0263 69.4194 24.9365 69.5774 24.8916C69.6483 24.598 69.7869 24.8847 69.874 24.6395L69.9094 24.8052C69.9384 24.7223 69.9739 24.6636 70.0061 24.7534V24.8018C70.048 24.674 70.1028 24.7499 70.1254 24.6878V24.7362L70.1802 24.7154L70.1705 24.7845C70.2479 24.6498 70.3317 24.6394 70.4059 24.7016L70.3962 24.5012C70.5542 24.7223 70.6057 24.3079 70.7508 24.5704V24.6187C70.9217 24.0868 71.0345 24.9745 71.2118 24.4702C71.1892 24.5324 71.2215 24.5738 71.2215 24.6222C71.3053 24.5634 71.3956 24.5324 71.3923 24.1386C71.4536 24.1421 71.4439 24.2595 71.4536 24.4114C71.4536 24.2387 71.5052 24.1662 71.5503 24.1558L71.5277 24.2215L71.6631 24.1593L71.6309 23.8346C71.705 23.9279 71.6535 24.2318 71.7244 24.1524V23.883C71.8211 23.9348 71.8856 24.3424 71.9855 24.5393C72.3917 24.6498 72.8172 23.9521 73.2009 24.4218L73.2202 24.6256C73.2299 24.9227 73.3169 24.187 73.3363 24.4598L73.3782 24.3251C73.3911 24.3769 73.4169 24.4356 73.3975 24.5012C73.4394 24.5116 73.4394 24.4633 73.4652 24.3735L73.5103 24.5566C73.6715 24.6982 73.8037 24.3389 73.9713 24.408C74.1776 24.781 74.5548 24.4288 74.7708 24.225C75.0706 23.7794 75.4478 24.9503 75.7573 24.4391C75.767 24.4805 75.7928 24.3873 75.7928 24.3527L76.0829 24.3908C76.0829 24.3908 77.4852 24.484 76.3827 22.0455L76.3891 21.9799C76.2279 21.8244 76.128 21.7933 76.0249 22.118C76.0023 21.7208 75.8959 22.08 75.8572 21.9522V21.9211C75.7702 22.2285 75.6574 21.669 75.5703 21.9453C75.5703 21.9142 75.5735 21.8037 75.5961 21.7968C75.5284 21.8486 75.4381 21.9384 75.4285 21.707C75.2673 21.7692 75.0416 21.6655 74.9449 22.0386L74.9514 21.973C74.8966 22.2251 74.8772 22.011 74.8127 22.1388C74.8095 22.1077 74.8031 22.0938 74.8031 22.08C74.7418 22.3287 74.6161 22.1215 74.5645 22.2286L74.5581 22.0731L74.4323 22.1111L74.4807 22.1422C74.471 22.5671 74.3808 21.8797 74.2905 22.1526C74.2035 22.1008 74.1261 23.0333 74.0326 22.8296C73.9939 23.0264 74.0648 22.5083 74.0036 22.6603C73.9971 22.4393 74.0326 22.5221 74.0132 22.3459C73.952 22.453 73.9069 22.1214 73.8295 22.2734L73.823 22.1007C73.7263 22.415 73.6296 21.8762 73.5652 22.1767C73.462 22.3218 73.4878 21.669 73.3846 22.004L73.3395 21.7726C73.2911 21.7346 73.3105 22.0593 73.2557 21.9453C73.2557 21.8002 73.188 21.8279 73.217 21.6897C73.0977 21.4617 72.9849 22.0179 72.8237 21.6345C72.7947 21.9212 72.7141 21.7519 72.6915 21.966C72.6851 21.8417 72.5368 21.9488 72.6206 21.6793C72.627 21.6586 72.6399 21.6621 72.6399 21.7105L72.6496 21.5412C72.5561 21.2234 72.4916 21.7208 72.4046 21.6724C72.4304 21.7277 72.4658 21.7139 72.4433 21.8278L72.3627 21.8072L72.3788 21.6655L72.2563 21.5826L72.2757 21.7588C72.2144 21.669 72.1918 21.3685 72.1274 21.6206C72.0983 21.7588 72.1854 21.8555 72.1274 21.9142C72.0468 21.7968 71.9275 21.6171 71.8243 21.5653C71.8372 21.7622 71.8082 21.7554 71.7824 21.7968L71.776 21.6241C71.6728 21.8659 71.7308 21.2476 71.6277 21.4376L71.6341 21.3167L71.6115 21.6759C71.5213 22.0178 71.5567 21.3201 71.4568 21.7864C71.4987 21.7553 71.4826 22.1663 71.4278 22.0903L71.4375 21.9246C71.4085 21.9591 71.402 22.0282 71.3827 21.9971C71.3988 21.9073 71.3891 21.7553 71.3472 21.783L71.373 21.5757L71.2988 21.8832C71.2344 21.707 71.1409 21.9315 71.1119 21.6966C71.1119 21.6966 70.9797 21.5826 70.9507 21.8417C70.9765 21.6828 70.9023 21.6241 70.9217 21.4341C70.8894 21.6137 70.7895 21.7622 70.7476 21.5722L70.754 21.5515C70.6025 21.3581 70.5026 21.8244 70.364 21.5861C70.3736 21.7864 70.2995 21.6793 70.322 21.9315C70.1866 22.1871 70.0641 21.4168 70.0222 22.2044C69.961 22.2493 69.9449 22.0213 69.9126 21.9799L69.9288 21.9384C69.8127 22.004 69.7772 22.0144 69.6902 21.9971C69.6483 22.0731 69.6451 22.4427 69.5645 22.3529C69.587 22.2078 69.558 22.2355 69.5258 22.2355C69.5451 22.2113 69.5484 22.1595 69.5097 22.0628C69.5032 22.1077 69.4968 22.1352 69.4903 22.1594C69.4903 22.149 69.4903 22.1387 69.4903 22.1249C69.442 22.1767 69.4516 22.2216 69.4742 22.2423C69.4742 22.263 69.4742 22.2941 69.4839 22.3321C69.4323 22.1456 69.342 22.346 69.3324 22.0973C69.1841 22.156 69.0841 22.4185 68.9616 22.5152C68.9455 22.3874 68.9745 22.2735 69.01 22.2216L68.9229 22.27C68.9229 22.0834 68.9713 22.1629 68.9971 22.1249C68.8907 21.8279 68.7875 22.4254 68.6618 22.1526L68.6393 22.2976L68.6328 22.2734C68.6328 22.3494 68.607 22.4565 68.5909 22.4807C68.5715 22.3184 68.5909 22.1076 68.5296 22.118C68.4813 21.9626 68.3942 22.1974 68.333 22.2872C68.3652 22.3149 68.3556 22.4047 68.3427 22.4599C68.3137 22.4669 68.2943 22.3045 68.2717 22.3736L68.2653 22.156C68.2782 22.3597 68.1879 22.3771 68.1783 22.4669C68.1589 22.3045 68.2234 22.3287 68.2298 22.2044C68.1106 22.2251 68.1686 22.2148 68.0493 22.2389C67.9848 22.4047 68.0622 22.4461 68.0332 22.6361C67.9752 22.681 67.9236 22.833 67.8559 22.7017L67.8785 22.8952C67.7721 23.0471 67.7076 23.0264 67.6334 22.8296C66.8501 24.4149 67.4851 24.9814 67.4851 24.9814C67.8043 25.4028 67.959 24.8397 68.333 24.6843L68.3233 24.6912Z" fill="#20BB65"/>
<path d="M84.502 21.9175L84.5276 21.9964C84.5276 21.9587 84.5212 21.9278 84.502 21.9175Z" fill="#20BB65"/>
<path d="M90.7109 21.7635C90.7109 21.7635 90.7147 21.7523 90.7184 21.7449C90.7147 21.7523 90.7109 21.7598 90.7109 21.7635Z" fill="#20BB65"/>
<path d="M85.505 24.6042C85.505 24.6042 85.5015 24.6181 85.498 24.6251L85.505 24.6042Z" fill="#20BB65"/>
<path d="M84.2481 24.4114C84.5769 24.5012 84.6704 24.8743 85.0089 24.7154C85.1733 24.743 85.3442 24.6532 85.5021 24.6048C85.573 24.3112 85.7117 24.5979 85.7955 24.3492L85.8342 24.515C85.8632 24.4321 85.8986 24.3734 85.9309 24.4633V24.5116C85.9728 24.3838 86.0276 24.4598 86.0469 24.3942V24.4425L86.1017 24.4183L86.0921 24.4874C86.1694 24.3527 86.2532 24.3423 86.3242 24.401L86.3145 24.2007C86.4725 24.4218 86.524 24.0038 86.6691 24.2664V24.3147C86.8367 23.7828 86.956 24.6705 87.1269 24.1627C87.1043 24.2249 87.1398 24.2663 87.1366 24.3147C87.2204 24.256 87.3074 24.2249 87.3042 23.8311C87.3655 23.8346 87.3558 23.952 87.3655 24.104C87.3622 23.9313 87.4138 23.8588 87.4622 23.8484L87.4428 23.914L87.5782 23.8519L87.546 23.5272C87.6201 23.6205 87.5718 23.9244 87.6395 23.845L87.633 23.5755C87.7329 23.6274 87.8007 24.0349 87.9006 24.2318C88.3068 24.3389 88.7291 23.6412 89.1159 24.1109L89.1353 24.3147C89.1482 24.6117 89.232 23.8726 89.2513 24.1489L89.2933 24.0142C89.3061 24.066 89.3319 24.1247 89.3126 24.1904C89.3545 24.2007 89.3545 24.1523 89.3803 24.0625L89.4286 24.2456C89.5898 24.3838 89.722 24.028 89.8896 24.0971C90.0992 24.4701 90.4731 24.1144 90.6891 23.9106C90.9889 23.4616 91.3693 24.6325 91.6756 24.1213C91.6853 24.1628 91.7111 24.0695 91.7111 24.035L92.0012 24.0694C92.0012 24.0694 93.4035 24.1559 92.2946 21.7208L92.301 21.6551C92.1398 21.4997 92.0399 21.4686 91.9367 21.7968C91.9109 21.3996 91.8078 21.7588 91.7659 21.631V21.5999C91.6788 21.9073 91.566 21.3477 91.4789 21.6241C91.4789 21.593 91.4789 21.4824 91.5047 21.4755C91.437 21.5273 91.3468 21.6171 91.3371 21.3857C91.1759 21.4513 90.9502 21.3477 90.8535 21.7173L90.86 21.6516C90.8052 21.9038 90.7858 21.6896 90.7214 21.8174C90.7181 21.7863 90.7117 21.7725 90.7117 21.7587C90.6504 22.0074 90.5247 21.8002 90.4731 21.9072L90.4667 21.7553L90.3377 21.7933L90.3861 21.8243C90.3764 22.2492 90.2862 21.5618 90.1959 21.8382C90.1089 21.7864 90.0347 22.7224 89.9412 22.5151C89.9025 22.7155 89.9735 22.1939 89.9122 22.3459C89.9058 22.1248 89.9412 22.2078 89.9187 22.0316C89.8574 22.1387 89.8123 21.8071 89.7349 21.9591L89.7284 21.7864C89.6317 22.1007 89.5318 21.5653 89.4706 21.8658C89.3674 22.0109 89.39 21.3581 89.2868 21.6966L89.2417 21.4651C89.1933 21.4271 89.2126 21.7518 89.1611 21.6378C89.1611 21.4927 89.0934 21.5238 89.1224 21.3822C88.9999 21.1542 88.8903 21.7138 88.7291 21.327C88.7001 21.6137 88.6195 21.4444 88.6001 21.6586C88.5937 21.5342 88.4454 21.6413 88.526 21.3719C88.5324 21.3512 88.5453 21.3546 88.5453 21.403L88.5518 21.2337C88.4583 20.9159 88.3938 21.4134 88.3068 21.365C88.3326 21.4203 88.368 21.4064 88.3455 21.5204L88.2649 21.4997L88.2778 21.3581L88.1553 21.2787L88.1746 21.4548C88.1133 21.365 88.0876 21.0679 88.0263 21.3166C87.9973 21.4548 88.0876 21.5515 88.0263 21.6102C87.9457 21.4928 87.8232 21.3132 87.7233 21.2614C87.7362 21.4583 87.7104 21.4513 87.6814 21.4928L87.6749 21.3201C87.5718 21.5618 87.6298 20.9436 87.5266 21.1335L87.5331 21.0127L87.5105 21.3719C87.4202 21.7139 87.4525 21.0161 87.3558 21.4824C87.3977 21.4513 87.3816 21.8624 87.33 21.7864L87.3397 21.6206C87.3106 21.6551 87.3042 21.7277 87.2849 21.6931C87.301 21.6033 87.2881 21.4513 87.2494 21.4789L87.2752 21.2717L87.201 21.5791C87.1366 21.403 87.0431 21.6275 87.0141 21.3926C87.0141 21.3926 86.8787 21.2821 86.8529 21.5377C86.8754 21.3788 86.8013 21.32 86.8206 21.1301C86.7884 21.3097 86.6917 21.4617 86.6465 21.2683L86.653 21.2475C86.4983 21.0541 86.4015 21.5204 86.2629 21.2856C86.2726 21.4859 86.1984 21.3788 86.221 21.631C86.0856 21.8866 85.9599 21.1163 85.9212 21.9072C85.86 21.9521 85.8438 21.7242 85.8084 21.6828L85.8213 21.6413C85.7052 21.7069 85.6698 21.7173 85.5827 21.7C85.5408 21.7795 85.5408 22.1456 85.4602 22.0558C85.4828 21.9107 85.4505 21.9383 85.4215 21.9383C85.4409 21.9142 85.4441 21.8624 85.4054 21.7656C85.4022 21.8105 85.3925 21.8382 85.3861 21.8624C85.3861 21.852 85.3861 21.8416 85.3861 21.8278C85.3377 21.8796 85.3474 21.9245 85.37 21.9453C85.37 21.966 85.3699 21.9971 85.3796 22.0351C85.3248 21.8486 85.2378 22.0489 85.2281 21.8002C85.0798 21.8624 84.9799 22.1214 84.8606 22.2216C84.8445 22.0938 84.8703 21.9798 84.9057 21.928L84.8187 21.9764C84.8187 21.7899 84.867 21.8692 84.8928 21.8313C84.7832 21.5342 84.6833 22.1352 84.5576 21.8624L84.535 22.0109L84.5285 21.9867C84.5285 22.0627 84.506 22.1698 84.4866 22.1939C84.4673 22.0316 84.4802 21.8209 84.4222 21.8347C84.3706 21.6793 84.2868 21.9141 84.2287 22.004C84.2642 22.0316 84.2545 22.1214 84.2416 22.1767C84.2126 22.1836 84.1901 22.0212 84.1707 22.0903L84.1643 21.8727C84.1804 22.0765 84.0901 22.0972 84.0805 22.1836C84.0611 22.0212 84.1256 22.0454 84.1288 21.9211C84.0095 21.9452 84.0675 21.9315 83.9483 21.9556C83.887 22.1214 83.9644 22.1594 83.9354 22.3528C83.8806 22.3977 83.8258 22.5497 83.7581 22.4184L83.7806 22.6119C83.6775 22.7638 83.613 22.7431 83.5356 22.5497C82.7652 24.1386 83.4067 24.7016 83.4067 24.7016C83.7291 25.123 83.8806 24.5565 84.2513 24.3976L84.2481 24.4114Z" fill="#20BB65"/>
<path d="M100.432 21.6445L100.457 21.7235C100.457 21.6857 100.451 21.6548 100.432 21.6445Z" fill="#20BB65"/>
<path d="M106.65 21.5872C106.65 21.5872 106.654 21.576 106.658 21.5686C106.654 21.576 106.65 21.5835 106.65 21.5872Z" fill="#20BB65"/>
<path d="M101.405 24.3486C101.405 24.3486 101.402 24.3625 101.398 24.3695L101.405 24.3486Z" fill="#20BB65"/>
<path d="M100.155 24.1351C100.484 24.2318 100.574 24.6048 100.912 24.4528C101.074 24.4839 101.248 24.3941 101.406 24.3492C101.48 24.0556 101.612 24.3457 101.702 24.097L101.738 24.2628C101.767 24.1799 101.802 24.1212 101.834 24.211V24.2593C101.876 24.135 101.931 24.2075 101.954 24.1453V24.1937L102.009 24.173L101.999 24.2421C102.076 24.1074 102.16 24.1005 102.234 24.1592L102.228 23.9589C102.382 24.1834 102.437 23.7655 102.579 24.0314V24.0797C102.75 23.5513 102.86 24.439 103.04 23.9347C103.018 23.9969 103.05 24.0383 103.05 24.0866C103.134 24.0279 103.224 24.0003 103.224 23.6031C103.285 23.6066 103.275 23.7275 103.282 23.8795C103.282 23.7068 103.333 23.6341 103.382 23.6238L103.359 23.6895L103.495 23.6307L103.466 23.306C103.54 23.3993 103.485 23.7032 103.556 23.6238V23.3544C103.656 23.4063 103.714 23.8172 103.814 24.0141C104.217 24.1281 104.649 23.4373 105.026 23.9105L105.042 24.1143C105.048 24.4114 105.145 23.6757 105.158 23.9485L105.203 23.8138C105.216 23.8656 105.242 23.9243 105.219 23.9899C105.261 24.0003 105.261 23.952 105.29 23.8622L105.335 24.0452C105.497 24.1869 105.629 23.831 105.8 23.9036C106.003 24.2766 106.38 23.9312 106.599 23.7274C106.909 23.2818 107.263 24.4597 107.579 23.952C107.589 23.9934 107.615 23.9002 107.615 23.8656L107.902 23.907C107.902 23.907 109.297 24.0141 108.243 21.5652L108.25 21.4996C108.092 21.3442 107.992 21.3097 107.882 21.6343C107.866 21.2371 107.753 21.5928 107.715 21.465V21.434C107.621 21.7414 107.521 21.1819 107.428 21.4547C107.431 21.4236 107.434 21.3131 107.453 21.3061C107.386 21.358 107.292 21.4443 107.289 21.2129C107.128 21.2751 106.902 21.168 106.796 21.5376L106.802 21.4719C106.744 21.7206 106.725 21.5099 106.66 21.6377C106.657 21.6066 106.651 21.5928 106.654 21.579C106.589 21.8243 106.467 21.617 106.415 21.7241V21.5687L106.283 21.6067L106.332 21.6377C106.315 22.0626 106.235 21.3718 106.141 21.6481C106.054 21.5963 105.964 22.5289 105.874 22.3217C105.832 22.5186 105.912 22.0005 105.848 22.1525C105.848 21.9314 105.877 22.0142 105.861 21.8381C105.796 21.9417 105.758 21.6136 105.68 21.7621V21.5894C105.577 21.9037 105.484 21.3649 105.416 21.6654C105.313 21.807 105.345 21.1542 105.235 21.4927L105.194 21.2613C105.145 21.2233 105.161 21.548 105.11 21.434C105.11 21.2889 105.045 21.3166 105.074 21.1784C104.955 20.9504 104.836 21.503 104.681 21.1196C104.649 21.4028 104.571 21.2371 104.546 21.4513C104.542 21.3269 104.391 21.4305 104.475 21.1611C104.481 21.1404 104.494 21.1439 104.494 21.1922L104.504 21.023C104.413 20.7052 104.342 21.1991 104.255 21.1507C104.281 21.206 104.317 21.1922 104.294 21.3061L104.214 21.2855L104.23 21.1438L104.107 21.0609L104.123 21.2371C104.065 21.1473 104.043 20.8468 103.975 21.099C103.946 21.2371 104.033 21.3372 103.969 21.3925C103.888 21.2716 103.769 21.092 103.669 21.0402C103.678 21.2371 103.653 21.2302 103.624 21.2717V21.099C103.514 21.3373 103.578 20.7225 103.472 20.9124L103.482 20.7915L103.456 21.1507C103.362 21.4927 103.401 20.795 103.298 21.2613C103.34 21.2302 103.321 21.6412 103.269 21.5652L103.282 21.3994C103.253 21.434 103.243 21.503 103.224 21.4685C103.24 21.3787 103.23 21.2267 103.188 21.2544L103.214 21.0471L103.137 21.3546C103.076 21.1784 102.979 21.3994 102.953 21.168C102.953 21.168 102.821 21.054 102.792 21.3096C102.818 21.1507 102.744 21.0886 102.763 20.9021C102.731 21.0817 102.627 21.2302 102.589 21.0402L102.595 21.0195C102.444 20.8226 102.341 21.2889 102.205 21.0506C102.212 21.2509 102.141 21.1404 102.16 21.396C102.021 21.6481 101.902 20.8779 101.857 21.6688C101.793 21.7103 101.78 21.4858 101.747 21.4444L101.764 21.4029C101.644 21.4685 101.612 21.4755 101.522 21.4582C101.48 21.5342 101.473 21.9002 101.396 21.8139C101.422 21.6688 101.39 21.6965 101.361 21.6965C101.38 21.6723 101.383 21.6205 101.344 21.5238C101.338 21.5687 101.332 21.5963 101.322 21.6205C101.322 21.6102 101.322 21.5998 101.322 21.5859C101.273 21.6378 101.283 21.6827 101.306 21.7034C101.306 21.7241 101.306 21.7552 101.315 21.7932C101.264 21.6067 101.174 21.807 101.164 21.5548C101.016 21.6135 100.912 21.8727 100.79 21.9694C100.774 21.8416 100.803 21.7276 100.838 21.6758L100.751 21.7241C100.751 21.5376 100.8 21.617 100.829 21.579C100.722 21.2785 100.616 21.8796 100.493 21.6032L100.471 21.7483L100.464 21.7241C100.464 21.8001 100.439 21.9072 100.422 21.9313C100.403 21.769 100.422 21.5583 100.361 21.5687C100.313 21.4132 100.226 21.6481 100.165 21.7344C100.2 21.7621 100.187 21.8519 100.174 21.9071C100.145 21.9141 100.126 21.7517 100.103 21.8208L100.097 21.6032C100.11 21.807 100.019 21.8243 100.01 21.9141C99.9904 21.7517 100.055 21.7759 100.061 21.655C99.9389 21.6757 100 21.6654 99.8808 21.6861C99.8164 21.8519 99.8937 21.8933 99.8647 22.0833C99.8067 22.1248 99.7551 22.2768 99.6874 22.149L99.71 22.3424C99.6036 22.4943 99.5391 22.4702 99.465 22.2767C98.6848 23.8552 99.3199 24.4286 99.3199 24.4286C99.6358 24.8534 99.7938 24.2905 100.165 24.1385L100.155 24.1351Z" fill="#20BB65"/>
<path d="M116.383 21.738L116.405 21.817C116.405 21.7792 116.399 21.7483 116.383 21.738Z" fill="#20BB65"/>
<path d="M122.611 21.9568C122.611 21.9568 122.615 21.9457 122.619 21.9382C122.615 21.9457 122.611 21.9494 122.611 21.9568Z" fill="#20BB65"/>
<path d="M117.267 24.4834C117.267 24.4834 117.263 24.4972 117.26 24.5041L117.27 24.4834H117.267Z" fill="#20BB65"/>
<path d="M116.028 24.2146C116.353 24.3251 116.431 24.7016 116.772 24.5635C116.933 24.6015 117.108 24.522 117.265 24.4806C117.349 24.1904 117.472 24.484 117.569 24.2422L117.598 24.408C117.63 24.3251 117.668 24.2699 117.697 24.3597V24.408C117.743 24.2836 117.794 24.3597 117.817 24.301V24.3493L117.868 24.3285L117.855 24.3977C117.939 24.2664 118.02 24.2629 118.091 24.3251V24.1248C118.239 24.3562 118.307 23.9417 118.439 24.2146V24.2629C118.629 23.7414 118.703 24.6326 118.9 24.1386C118.874 24.2008 118.906 24.2422 118.9 24.2906C118.987 24.2353 119.077 24.2111 119.09 23.8174C119.151 23.8243 119.135 23.9417 119.138 24.0937C119.145 23.921 119.2 23.8519 119.248 23.8416L119.226 23.9072L119.364 23.8554L119.348 23.5273C119.416 23.624 119.351 23.9245 119.425 23.8485L119.435 23.579C119.535 23.6378 119.577 24.0453 119.667 24.2491C120.064 24.3804 120.525 23.7103 120.879 24.1973L120.889 24.4011C120.886 24.6981 121.011 23.9659 121.015 24.2422L121.063 24.1075C121.073 24.1593 121.095 24.2181 121.073 24.2837C121.111 24.2975 121.115 24.2491 121.147 24.1593L121.182 24.3458C121.334 24.4943 121.485 24.1455 121.65 24.225C121.834 24.6084 122.227 24.2767 122.456 24.0868C122.785 23.6585 123.084 24.8501 123.42 24.3562C123.429 24.3976 123.458 24.3044 123.462 24.2698L123.745 24.3216C123.745 24.3216 125.135 24.4909 124.2 21.9971L124.209 21.9349C124.058 21.7726 123.961 21.7346 123.835 22.0524C123.835 21.6552 123.707 22.0075 123.678 21.8762L123.684 21.8451C123.571 22.1456 123.497 21.5826 123.391 21.852C123.397 21.821 123.403 21.7104 123.426 21.707C123.355 21.7554 123.258 21.8382 123.265 21.6068C123.1 21.6621 122.878 21.5446 122.759 21.9107L122.768 21.8486C122.698 22.0938 122.691 21.8831 122.617 22.0075C122.617 21.9764 122.61 21.9626 122.61 21.9488C122.536 22.194 122.42 21.9798 122.362 22.0834V21.928L122.237 21.9591L122.282 21.9936C122.246 22.415 122.198 21.7242 122.091 21.9936C122.008 21.9384 121.875 22.8641 121.795 22.6534C121.743 22.8503 121.846 22.3322 121.775 22.4841C121.782 22.2631 121.811 22.3459 121.801 22.1698C121.734 22.2734 121.708 21.9418 121.624 22.0869V21.9142C121.514 22.225 121.447 21.6794 121.366 21.9764C121.257 22.1146 121.318 21.4652 121.192 21.7968L121.16 21.5619C121.115 21.5239 121.115 21.8451 121.066 21.7311C121.076 21.586 121.005 21.6102 121.041 21.4755C120.931 21.2406 120.789 21.7898 120.65 21.3995C120.605 21.6828 120.534 21.51 120.502 21.7242C120.502 21.5999 120.347 21.6966 120.444 21.4307C120.454 21.4099 120.467 21.4134 120.463 21.4618L120.48 21.2924C120.402 20.9712 120.312 21.4617 120.228 21.4099C120.251 21.4686 120.286 21.4548 120.26 21.5688L120.18 21.5412L120.202 21.3995L120.083 21.3132L120.093 21.4893C120.038 21.3961 120.028 21.0956 119.951 21.3443C119.915 21.4825 119.999 21.5827 119.935 21.6345C119.861 21.5101 119.748 21.327 119.648 21.2683C119.648 21.4652 119.622 21.4583 119.593 21.4963V21.3236C119.48 21.5584 119.57 20.9436 119.458 21.1301L119.471 21.0093L119.429 21.3685C119.322 21.707 119.39 21.0092 119.267 21.4721C119.309 21.4444 119.274 21.852 119.226 21.7761L119.245 21.6103C119.216 21.6448 119.203 21.7139 119.184 21.6793C119.203 21.5895 119.2 21.4375 119.158 21.4651L119.193 21.258L119.103 21.5619C119.048 21.3823 118.942 21.5999 118.926 21.3651C118.926 21.3651 118.797 21.2441 118.758 21.4997C118.79 21.3408 118.719 21.2787 118.745 21.0922C118.707 21.2718 118.6 21.4133 118.565 21.2199L118.574 21.1993C118.429 20.9989 118.31 21.4582 118.181 21.213C118.181 21.4133 118.113 21.3028 118.123 21.5584C117.975 21.8036 117.884 21.0299 117.81 21.8175C117.746 21.8589 117.739 21.631 117.707 21.5895L117.723 21.5481C117.604 21.6068 117.569 21.6137 117.481 21.593C117.436 21.669 117.417 22.0351 117.343 21.9418C117.372 21.7968 117.34 21.8244 117.311 21.8209C117.33 21.8002 117.336 21.7449 117.301 21.6448C117.294 21.6897 117.285 21.7173 117.275 21.738C117.275 21.7277 117.275 21.7174 117.275 21.7035C117.224 21.7519 117.233 21.8002 117.256 21.8209C117.256 21.8416 117.256 21.8727 117.262 21.9107C117.217 21.7208 117.12 21.9177 117.12 21.669C116.972 21.7208 116.859 21.9764 116.734 22.0662C116.724 21.9384 116.756 21.8244 116.792 21.7761L116.705 21.8209C116.711 21.6344 116.756 21.7173 116.785 21.6793C116.688 21.3754 116.563 21.9695 116.447 21.6897L116.418 21.8348L116.411 21.8105C116.411 21.8865 116.379 21.9936 116.36 22.0178C116.347 21.8555 116.369 21.6448 116.308 21.6551C116.263 21.4962 116.169 21.7277 116.105 21.8105C116.137 21.8382 116.124 21.928 116.108 21.9832C116.079 21.9867 116.063 21.8244 116.04 21.8935V21.6759C116.05 21.8831 115.96 21.8934 115.947 21.9832C115.934 21.8209 115.995 21.8451 116.008 21.7242C115.886 21.738 115.947 21.7311 115.824 21.7484C115.757 21.9107 115.831 21.9557 115.795 22.1457C115.737 22.1871 115.679 22.3356 115.615 22.2009L115.631 22.3943C115.521 22.5394 115.457 22.5152 115.389 22.3184C114.564 23.8589 115.18 24.4598 115.18 24.4598C115.483 24.8985 115.654 24.3424 116.031 24.2077L116.028 24.2146Z" fill="#20BB65"/>
<path d="M132.348 22.7153L132.364 22.798C132.364 22.7601 132.364 22.7291 132.348 22.7153Z" fill="#20BB65"/>
<path d="M138.562 23.5594C138.562 23.5594 138.57 23.5482 138.574 23.5408C138.566 23.5482 138.566 23.5519 138.562 23.5594Z" fill="#20BB65"/>
<path d="M133.026 25.5161C133.026 25.5161 133.019 25.5264 133.016 25.5368L133.026 25.5161Z" fill="#20BB65"/>
<path d="M131.815 25.1573C132.131 25.2886 132.18 25.6719 132.528 25.558C132.683 25.6063 132.863 25.5407 133.024 25.5131C133.127 25.2333 133.231 25.5338 133.343 25.3024L133.36 25.4716C133.398 25.3922 133.44 25.3404 133.46 25.4337L133.453 25.482C133.511 25.3646 133.553 25.444 133.582 25.3853L133.576 25.4337L133.634 25.4198L133.618 25.4854C133.711 25.3646 133.792 25.3646 133.856 25.4337L133.872 25.2333C134.001 25.4751 134.101 25.0709 134.211 25.3507L134.204 25.3991C134.44 24.8948 134.436 25.7929 134.675 25.3197C134.646 25.3784 134.675 25.4233 134.665 25.4716C134.756 25.4267 134.846 25.4094 134.894 25.0191C134.955 25.0329 134.93 25.1469 134.92 25.2989C134.939 25.1262 135 25.0641 135.049 25.0606L135.02 25.1228L135.162 25.0848L135.175 24.7566C135.236 24.8602 135.146 25.1539 135.223 25.0848L135.255 24.8154C135.349 24.881 135.355 25.2955 135.426 25.5062C135.806 25.6754 136.322 25.0572 136.628 25.5856L136.619 25.7894C136.587 26.0829 136.78 25.3714 136.757 25.6443L136.819 25.5166C136.825 25.5718 136.841 25.6305 136.812 25.6927C136.851 25.71 136.857 25.6616 136.899 25.5787L136.915 25.7687C137.051 25.9345 137.235 25.6063 137.386 25.703C137.531 26.1071 137.947 25.8274 138.192 25.6685C138.563 25.2851 138.727 26.5113 139.111 26.0657C139.114 26.1071 139.156 26.0208 139.159 25.9863L139.433 26.0795C139.433 26.0795 139.768 26.1728 140.026 25.9414C140.281 25.71 140.474 25.1504 140.152 23.8413L140.171 23.7792C140.039 23.5927 139.946 23.5408 139.785 23.8413C139.833 23.4476 139.662 23.7757 139.646 23.641L139.656 23.6099C139.511 23.8932 139.498 23.3198 139.362 23.5754C139.372 23.5443 139.391 23.4372 139.414 23.4338C139.34 23.4718 139.233 23.5408 139.262 23.3129C139.091 23.3439 138.882 23.1954 138.721 23.5442L138.737 23.4821C138.64 23.717 138.656 23.5063 138.569 23.6203C138.569 23.5892 138.569 23.5719 138.569 23.5615C138.469 23.793 138.376 23.5685 138.308 23.6617L138.327 23.5098L138.195 23.5236L138.237 23.565C138.16 23.9795 138.179 23.2852 138.047 23.5408C137.966 23.4752 137.744 24.3801 137.686 24.1591C137.615 24.349 137.77 23.8482 137.686 23.9864C137.715 23.7688 137.734 23.8552 137.744 23.679C137.667 23.7723 137.673 23.4407 137.573 23.5754L137.592 23.4061C137.447 23.6997 137.431 23.1506 137.322 23.4372C137.199 23.5616 137.322 22.9226 137.167 23.2369L137.157 22.9986C137.115 22.9537 137.086 23.2749 137.048 23.1574C137.07 23.0124 136.999 23.0331 137.048 22.8984C136.961 22.6532 136.767 23.185 136.661 22.7775C136.59 23.0538 136.535 22.8742 136.48 23.0815C136.493 22.9571 136.325 23.04 136.448 22.7844C136.458 22.7637 136.471 22.7706 136.464 22.819L136.496 22.6532C136.448 22.325 136.313 22.8017 136.232 22.743C136.251 22.8017 136.287 22.7913 136.248 22.9053L136.171 22.8707L136.206 22.7326L136.097 22.6324L136.09 22.8086C136.042 22.7119 136.058 22.4114 135.961 22.6497C135.913 22.7844 135.987 22.8914 135.919 22.9398C135.855 22.8085 135.758 22.6152 135.665 22.5461C135.648 22.743 135.623 22.7326 135.59 22.7706L135.607 22.5979C135.471 22.8189 135.613 22.218 135.484 22.3907L135.507 22.2732L135.436 22.6255C135.3 22.9502 135.426 22.2628 135.265 22.7119C135.31 22.6877 135.239 23.0918 135.197 23.0089L135.229 22.8465C135.197 22.8776 135.178 22.9468 135.165 22.9088C135.194 22.8224 135.204 22.6704 135.158 22.6946L135.21 22.4908L135.094 22.7844C135.052 22.5979 134.93 22.8086 134.933 22.5737C134.933 22.5737 134.813 22.4424 134.752 22.6911C134.797 22.5357 134.73 22.4666 134.772 22.2836C134.717 22.4563 134.598 22.591 134.578 22.3941L134.588 22.3734C134.459 22.1592 134.301 22.6082 134.191 22.3526C134.175 22.553 134.117 22.4355 134.104 22.6911C133.937 22.926 133.904 22.1454 133.772 22.9226C133.705 22.9571 133.717 22.7291 133.688 22.6842L133.708 22.6463C133.582 22.6946 133.547 22.6981 133.46 22.6705C133.408 22.743 133.363 23.1057 133.292 23.0089C133.334 22.8673 133.298 22.8915 133.269 22.888C133.292 22.8673 133.302 22.8155 133.273 22.7119C133.263 22.7568 133.25 22.7844 133.24 22.8051C133.24 22.7948 133.24 22.7844 133.24 22.7706C133.186 22.8155 133.189 22.8604 133.211 22.8846C133.208 22.9053 133.208 22.9364 133.211 22.9778C133.179 22.7844 133.066 22.9744 133.086 22.7257C132.931 22.7671 132.799 23.0089 132.666 23.0918C132.666 22.9606 132.705 22.8535 132.747 22.8051L132.654 22.8432C132.673 22.6601 132.715 22.7429 132.744 22.7084C132.67 22.3975 132.499 22.9813 132.405 22.6946L132.367 22.8362L132.36 22.812C132.354 22.888 132.315 22.9917 132.296 23.0124C132.296 22.8501 132.331 22.6428 132.27 22.6463C132.238 22.4874 132.128 22.7084 132.057 22.7878C132.089 22.8189 132.07 22.9053 132.048 22.9605C132.019 22.9605 132.015 22.8016 131.986 22.8673L132.002 22.6497C131.996 22.8535 131.902 22.8604 131.883 22.9502C131.883 22.7878 131.944 22.8189 131.961 22.698C131.838 22.7049 131.899 22.7015 131.777 22.7084C131.696 22.8638 131.77 22.9157 131.722 23.1022C131.661 23.1367 131.593 23.2818 131.538 23.1471V23.3405C131.422 23.4787 131.358 23.451 131.306 23.2472C130.374 24.7325 130.948 25.3714 130.948 25.3714C131.219 25.8274 131.429 25.2851 131.809 25.1746L131.815 25.1573Z" fill="#20BB65"/>
<path d="M148.146 26.0237V26.1098C148.157 26.0754 148.16 26.0409 148.146 26.0237Z" fill="#20BB65"/>
<path d="M153.996 28.8243C153.996 28.8243 154.003 28.8174 154.01 28.814C154.003 28.814 154 28.8208 153.996 28.8243Z" fill="#20BB65"/>
<path d="M148.198 28.9143C148.198 28.9143 148.191 28.9255 148.184 28.9329L148.198 28.9143Z" fill="#20BB65"/>
<path d="M147.13 28.286C147.404 28.4829 147.369 28.8697 147.724 28.8387C147.862 28.9216 148.043 28.9008 148.201 28.9146C148.362 28.6659 148.388 28.9838 148.549 28.7869L148.526 28.9527C148.581 28.887 148.633 28.8456 148.629 28.9423L148.613 28.9872C148.697 28.887 148.717 28.9768 148.758 28.925L148.739 28.97H148.797L148.765 29.0321C148.881 28.9388 148.958 28.9596 149.003 29.0425L149.068 28.8525C149.129 29.1184 149.326 28.7558 149.358 29.0563L149.339 29.1012C149.684 28.6832 149.458 29.5432 149.8 29.1529C149.758 29.2013 149.771 29.2532 149.751 29.2946C149.845 29.2773 149.935 29.2842 150.083 28.925C150.135 28.9561 150.083 29.0597 150.032 29.2013C150.096 29.0425 150.17 28.9975 150.216 29.0079L150.17 29.0598H150.316L150.415 28.7523C150.444 28.8697 150.283 29.1219 150.374 29.0804L150.473 28.8317C150.544 28.9215 150.438 29.3222 150.448 29.5433C150.751 29.8162 151.408 29.3913 151.531 29.9958L151.46 30.1857C151.341 30.4516 151.734 29.8438 151.631 30.096L151.728 29.9958C151.715 30.0476 151.711 30.1098 151.666 30.1581C151.695 30.1857 151.718 30.1443 151.782 30.0787L151.74 30.2618C151.811 30.4655 152.079 30.2168 152.189 30.3618C152.185 30.7867 152.649 30.6762 152.927 30.6209C153.401 30.4102 153.091 31.5984 153.591 31.3463C153.578 31.3877 153.646 31.3256 153.665 31.2945L153.865 31.4948C153.865 31.4948 153.929 31.5501 154.029 31.595C154.129 31.6399 154.271 31.6744 154.429 31.6295C154.742 31.5328 155.17 31.146 155.406 29.8023L155.448 29.7539C155.399 29.5191 155.328 29.4258 155.061 29.6227C155.258 29.2842 154.971 29.5053 155.006 29.374L155.025 29.3498C154.78 29.5398 154.984 29.0114 154.758 29.1806C154.777 29.1564 154.835 29.0666 154.858 29.0735C154.771 29.0735 154.645 29.0908 154.758 28.8939C154.584 28.8421 154.432 28.6142 154.158 28.8698L154.197 28.8179C154.023 28.9941 154.11 28.8041 153.991 28.8732C154.003 28.8456 154.007 28.8283 154.013 28.8179C153.836 28.9906 153.829 28.7419 153.729 28.8041L153.8 28.6694L153.668 28.628L153.697 28.6832C153.484 29.039 153.736 28.4 153.523 28.5865C153.468 28.4898 152.962 29.2532 152.975 29.0252C152.846 29.1772 153.156 28.7627 153.03 28.8629C153.127 28.6694 153.12 28.7592 153.185 28.5969C153.081 28.6556 153.191 28.3448 153.056 28.4346L153.13 28.2826C152.898 28.5037 153.056 27.982 152.859 28.21C152.701 28.2791 153.017 27.723 152.769 27.9648L152.83 27.7368C152.801 27.6781 152.675 27.9717 152.675 27.8474C152.74 27.7196 152.666 27.7092 152.753 27.6021C152.74 27.3396 152.395 27.7679 152.411 27.3465C152.263 27.5848 152.259 27.3949 152.147 27.5745C152.195 27.4605 152.008 27.4812 152.201 27.2809C152.218 27.2636 152.227 27.274 152.208 27.3189L152.285 27.1738C152.33 26.8422 152.063 27.2532 151.998 27.1669C151.998 27.2291 152.04 27.2326 151.969 27.3258L151.902 27.2671L151.976 27.1462L151.895 27.0149L151.84 27.1807C151.821 27.0702 151.918 26.7905 151.757 26.9874C151.673 27.1013 151.718 27.2291 151.637 27.2498C151.608 27.1047 151.566 26.8837 151.489 26.7904C151.421 26.977 151.399 26.9563 151.357 26.9804L151.418 26.8215C151.225 26.9907 151.524 26.4588 151.35 26.5832L151.405 26.4761L151.244 26.7939C151.025 27.0633 151.328 26.445 151.051 26.8215C151.102 26.8146 150.928 27.1773 150.909 27.0874L150.983 26.9424C150.941 26.9631 150.909 27.0219 150.902 26.9804C150.951 26.9044 150.999 26.7628 150.951 26.7697L151.054 26.5901L150.864 26.8353C150.87 26.6453 150.696 26.8077 150.757 26.5797C150.757 26.5797 150.67 26.4174 150.551 26.6419C150.635 26.5072 150.586 26.4174 150.67 26.2551C150.573 26.407 150.422 26.5003 150.451 26.3068L150.467 26.2896C150.39 26.0444 150.125 26.4277 150.077 26.1549C150.016 26.3414 149.983 26.2136 149.913 26.4589C149.693 26.6385 149.842 25.8717 149.529 26.5901C149.455 26.6039 149.519 26.3863 149.5 26.338L149.529 26.3034C149.394 26.3172 149.358 26.3138 149.277 26.262C149.21 26.3172 149.084 26.6592 149.039 26.5452C149.11 26.4174 149.071 26.4312 149.042 26.4208C149.068 26.407 149.09 26.3587 149.084 26.2516C149.065 26.293 149.049 26.3138 149.032 26.3345C149.036 26.3241 149.036 26.3137 149.042 26.2999C148.978 26.331 148.971 26.3759 148.987 26.4036C148.978 26.4243 148.971 26.4519 148.965 26.4934C148.974 26.2965 148.823 26.4519 148.897 26.2136C148.736 26.2136 148.552 26.4209 148.407 26.4658C148.433 26.338 148.497 26.2413 148.546 26.2067L148.446 26.2205C148.504 26.0443 148.526 26.1377 148.565 26.1135C148.555 25.7923 148.265 26.3173 148.233 26.0168L148.165 26.148V26.1238C148.143 26.1964 148.085 26.2861 148.059 26.3034C148.091 26.1445 148.172 25.9511 148.11 25.9408C148.11 25.7784 147.956 25.9684 147.869 26.0306C147.894 26.0686 147.856 26.148 147.827 26.1998C147.795 26.1929 147.827 26.034 147.785 26.0927L147.846 25.8855C147.798 26.0858 147.704 26.0685 147.669 26.1514C147.698 25.9925 147.756 26.034 147.798 25.9235C147.675 25.9028 147.737 25.9131 147.614 25.8889C147.504 26.0236 147.566 26.0893 147.482 26.2585C147.414 26.2792 147.317 26.4036 147.292 26.2585L147.256 26.4485C147.111 26.5556 147.056 26.5141 147.04 26.3068C146.441 26.932 146.26 27.4328 146.221 27.7782C146.183 28.1237 146.289 28.3067 146.289 28.3067C146.46 28.811 146.763 28.3205 147.15 28.2998L147.13 28.286Z" fill="#20BB65"/>
<path d="M160.202 36.5813L160.135 36.6191C160.167 36.6088 160.196 36.595 160.202 36.5813Z" fill="#20BB65"/>
<path d="M157.956 37.2343C157.917 37.4139 157.595 37.5659 157.775 37.666C157.769 37.7455 157.866 37.7973 157.927 37.856C158.198 37.8111 157.953 37.9493 158.185 37.9251L158.04 37.9838C158.117 37.9769 158.175 37.9769 158.098 38.0149L158.053 38.0253C158.172 38.0149 158.111 38.0563 158.169 38.0528L158.123 38.0632L158.149 38.0839L158.085 38.0978C158.214 38.1012 158.23 38.1392 158.181 38.1841L158.362 38.1357C158.175 38.2601 158.559 38.191 158.33 38.3153L158.285 38.3257C158.784 38.2981 157.982 38.5295 158.456 38.5122C158.397 38.5122 158.362 38.5365 158.317 38.5468C158.378 38.5744 158.41 38.6124 158.771 38.5364C158.771 38.5675 158.662 38.5848 158.523 38.6159C158.681 38.5848 158.752 38.5952 158.765 38.6159H158.701L158.765 38.6746L159.062 38.602C158.981 38.6539 158.697 38.6815 158.778 38.7022L159.026 38.6538C158.987 38.7125 158.617 38.8128 158.439 38.8922C158.362 39.096 159.026 39.2203 158.604 39.4621L158.417 39.4932C158.143 39.5278 158.829 39.4932 158.575 39.5312L158.704 39.5381C158.655 39.5484 158.604 39.5692 158.539 39.5657C158.53 39.5865 158.575 39.583 158.662 39.5865L158.494 39.6244C158.368 39.7142 158.704 39.7488 158.642 39.8352C158.301 39.9595 158.633 40.1183 158.823 40.2185C159.242 40.3601 158.146 40.5674 158.62 40.709C158.581 40.7159 158.668 40.7262 158.701 40.7262L158.662 40.8679C158.662 40.8679 158.633 41.0371 158.891 41.1545C159.149 41.2651 159.693 41.3549 160.844 41.0785L160.906 41.0855C161.054 40.9957 161.089 40.937 160.783 40.8714C161.154 40.8645 160.822 40.7954 160.941 40.7746H160.97C160.683 40.7228 161.209 40.6572 160.951 40.6054C160.98 40.6054 161.083 40.6054 161.089 40.6192C161.044 40.5812 160.96 40.526 161.176 40.519C161.118 40.4258 161.215 40.2841 160.867 40.2392H160.928C160.696 40.2151 160.893 40.1978 160.773 40.1633C160.802 40.1633 160.815 40.1564 160.828 40.1564C160.596 40.1287 160.786 40.0493 160.686 40.0251L160.828 40.0148L160.793 39.9422L160.764 39.9733C160.37 39.9871 161.009 39.9007 160.751 39.8627C160.796 39.8075 159.926 39.8213 160.116 39.7592C159.929 39.7488 160.416 39.7591 160.274 39.7315C160.48 39.7142 160.403 39.7384 160.567 39.7142C160.467 39.6866 160.773 39.6382 160.632 39.6037L160.793 39.5865C160.496 39.5554 160.996 39.4552 160.712 39.4413C160.574 39.393 161.183 39.3516 160.864 39.3205L161.076 39.2721C161.109 39.241 160.809 39.2825 160.912 39.2411C161.047 39.2273 161.015 39.1892 161.147 39.1927C161.354 39.096 160.831 39.0891 161.18 38.9474C160.912 38.9647 161.064 38.8956 160.864 38.9094C160.98 38.8921 160.87 38.8162 161.128 38.83C161.151 38.83 161.147 38.8404 161.102 38.8473L161.26 38.83C161.547 38.7333 161.086 38.7575 161.125 38.6988C161.076 38.7229 161.093 38.7402 160.983 38.7436L160.996 38.6919L161.128 38.6815L161.196 38.5951L161.035 38.6297C161.112 38.5814 161.386 38.5226 161.151 38.5192C161.018 38.5226 160.938 38.5882 160.88 38.5606C160.983 38.4949 161.141 38.3948 161.18 38.3257C160.999 38.3637 161.002 38.3464 160.964 38.3361L161.122 38.305C160.889 38.2808 161.466 38.2152 161.28 38.1841L161.389 38.1703L161.057 38.2186C160.735 38.2221 161.379 38.1219 160.941 38.1426C160.973 38.1634 160.596 38.2256 160.657 38.1807L160.812 38.1565C160.777 38.1461 160.712 38.1564 160.741 38.1357C160.825 38.1288 160.964 38.0943 160.935 38.077L161.128 38.0563L160.841 38.0667C160.999 37.9941 160.783 37.9838 160.993 37.9216C160.993 37.9216 161.083 37.818 160.844 37.8526C160.993 37.8353 161.041 37.78 161.212 37.7524C161.044 37.7696 160.896 37.742 161.067 37.6764H161.086C161.247 37.5417 160.809 37.5831 161.009 37.4484C160.828 37.5002 160.918 37.4312 160.69 37.5002C160.445 37.483 161.125 37.2239 160.406 37.3897C160.358 37.3655 160.561 37.2998 160.593 37.2722H160.632C160.557 37.217 160.544 37.1997 160.548 37.1445C160.474 37.141 160.142 37.2343 160.209 37.1652C160.345 37.141 160.316 37.1306 160.309 37.1133C160.332 37.1168 160.38 37.1065 160.464 37.0581C160.422 37.0685 160.396 37.0685 160.374 37.0719C160.383 37.0719 160.393 37.065 160.406 37.0616C160.351 37.0478 160.312 37.065 160.299 37.0823C160.28 37.0892 160.254 37.0961 160.219 37.1133C160.38 37.0339 160.187 37.0374 160.409 36.9648C160.335 36.8958 160.087 36.913 159.98 36.875C160.093 36.8301 160.2 36.8094 160.248 36.8163L160.193 36.7818C160.358 36.7265 160.296 36.7783 160.335 36.7818C160.583 36.6333 160.032 36.7507 160.254 36.5987L160.119 36.6298L160.138 36.6194C160.071 36.6436 159.971 36.6608 159.948 36.6608C160.087 36.5987 160.277 36.5434 160.258 36.5124C160.387 36.4364 160.164 36.4606 160.077 36.4537C160.058 36.4813 159.977 36.5054 159.926 36.5158C159.916 36.502 160.054 36.4398 159.99 36.4502L160.18 36.3777C160.003 36.4537 159.971 36.4087 159.89 36.4329C160.029 36.3707 160.022 36.4122 160.129 36.3742C160.087 36.3155 160.109 36.3431 160.067 36.2844C159.913 36.3051 159.89 36.3604 159.716 36.4087C159.668 36.3914 159.526 36.4156 159.629 36.3362L159.465 36.4156C159.316 36.4122 159.323 36.3742 159.477 36.2637C158.717 36.3431 158.249 36.54 157.965 36.692C157.682 36.8474 157.579 36.9648 157.579 36.9648C157.256 37.2515 157.769 37.1134 157.956 37.2343Z" fill="#20BB65"/>
<path d="M152.043 42.3656C152.126 42.4275 152.213 42.283 152.187 42.3071C152.162 42.2486 152.069 42.3587 152.043 42.3656Z" fill="#00B14F"/>
<path d="M153.442 44.3416C153.422 44.4464 153.377 44.2647 153.442 44.3416Z" fill="#00B14F"/>
<path d="M154.146 45.4144C154.188 45.3903 154.223 45.294 154.265 45.2424L154.162 45.2012C154.162 45.2631 154.197 45.3594 154.143 45.4144H154.146Z" fill="#00B14F"/>
<path d="M154.268 45.2426L154.418 45.3045C154.351 45.1944 154.303 45.2013 154.268 45.2426Z" fill="#00B14F"/>
<path d="M154.47 45.8679L154.332 45.8748L154.554 45.8817L154.47 45.8679Z" fill="#00B14F"/>
<path d="M154.703 46.1511C154.593 46.1649 154.629 46.3238 154.545 46.31C154.616 46.3791 154.732 46.3964 154.835 46.4102C154.754 46.3722 154.713 46.2927 154.706 46.1511H154.703Z" fill="#00B14F"/>
<path d="M154.993 46.4408C154.952 46.4236 154.894 46.4168 154.836 46.4065C154.878 46.4271 154.929 46.4408 154.993 46.4408Z" fill="#00B14F"/>
<path d="M154.504 45.7048L154.578 45.5672C154.578 45.5672 154.555 45.5362 154.546 45.519C154.53 45.5466 154.481 45.6154 154.504 45.7014V45.7048Z" fill="#00B14F"/>
<path d="M154.58 45.5637C154.612 45.6223 154.638 45.6568 154.648 45.674C154.638 45.6602 154.619 45.6292 154.583 45.5637H154.58Z" fill="#00B14F"/>
<path d="M154.539 45.5089L154.55 45.5198C154.55 45.5198 154.561 45.498 154.539 45.5089Z" fill="#00B14F"/>
<path d="M154.457 45.2666L154.63 45.3354L154.563 45.1909C154.537 45.2184 154.512 45.2735 154.457 45.2666Z" fill="#00B14F"/>
<path d="M154.71 45.3704L154.633 45.3359L154.655 45.391L154.71 45.3704Z" fill="#00B14F"/>
<path d="M154.938 46.1436C155.024 46.1573 155.069 46.2123 155.127 46.2708C155.095 46.1814 155.053 46.0988 155.002 46.03C154.96 46.0472 154.877 46.0679 154.938 46.1436Z" fill="#00B14F"/>
<path d="M154.773 45.8544L154.791 45.8618C154.791 45.8618 154.791 45.8358 154.773 45.8544Z" fill="#00B14F"/>
<path d="M155.606 46.9247C155.606 46.9247 155.616 46.9073 155.619 46.897L155.6 46.9108L155.609 46.9247H155.606Z" fill="#00B14F"/>
<path d="M155.013 46.0022C154.993 45.93 154.945 45.9231 154.891 45.9197C154.929 45.9506 154.968 45.9851 155.003 46.0298C155.022 46.0229 155.032 46.0126 155.016 46.0022H155.013Z" fill="#00B14F"/>
<path d="M155.177 46.5786C155.177 46.5304 155.177 46.4857 155.168 46.4375C155.155 46.4925 155.142 46.5924 155.177 46.5786Z" fill="#00B14F"/>
<path d="M154.773 45.9023H154.762C154.752 45.937 154.762 45.9231 154.773 45.9023Z" fill="#00B14F"/>
<path d="M154.771 45.9021C154.807 45.9159 154.849 45.9159 154.89 45.9159C154.858 45.8918 154.823 45.8712 154.788 45.8574C154.788 45.8712 154.778 45.8883 154.771 45.8987V45.9021Z" fill="#00B14F"/>
<path d="M155.457 46.6553L155.409 46.6138C155.435 46.6863 155.425 46.7623 155.402 46.9039C155.512 46.9454 155.564 46.9316 155.602 46.9109L155.435 46.6518H155.464L155.457 46.6553Z" fill="#00B14F"/>
<path d="M155.568 46.9937L155.436 47.0662L155.681 47.042L155.568 46.9937Z" fill="#00B14F"/>
<path d="M155.666 47.318L155.775 47.3352L155.772 47.2422L155.666 47.318Z" fill="#00B14F"/>
<path d="M161.588 51.7908C161.762 51.7632 162.026 51.7287 161.91 51.6388L161.781 51.5732C161.723 51.6907 161.656 51.7563 161.591 51.7908H161.588Z" fill="#00B14F"/>
<path d="M157.766 49.8637C157.775 49.9742 157.801 50.0467 157.833 50.102C157.833 49.9604 157.872 49.8084 157.766 49.8637Z" fill="#00B14F"/>
<path d="M168.143 42.9698C168.149 42.9183 168.127 42.8977 168.085 42.9046C168.075 42.9561 168.088 42.987 168.143 42.9698Z" fill="#00B14F"/>
<path d="M157.834 50.1052C157.834 50.2084 157.863 50.3081 157.991 50.3185C157.991 50.2978 157.991 50.2806 157.991 50.2566C157.934 50.2187 157.879 50.1775 157.837 50.1052H157.834Z" fill="#00B14F"/>
<path d="M153.627 41.0984C153.656 41.0881 153.701 41.0881 153.746 41.0881C153.723 41.0778 153.688 41.0778 153.627 41.0984Z" fill="#00B14F"/>
<path d="M156.491 48.3267C156.472 48.3267 156.443 48.2783 156.491 48.3267Z" fill="#00B14F"/>
<path d="M156.479 48.2024C156.479 48.2334 156.485 48.2679 156.498 48.2989C156.498 48.2817 156.491 48.2506 156.479 48.2024Z" fill="#00B14F"/>
<path d="M156.437 48.2584C156.428 48.2339 156.421 48.2164 156.411 48.199C156.388 48.206 156.382 48.2234 156.437 48.2584Z" fill="#00B14F"/>
<path d="M156.553 48.399C156.527 48.368 156.511 48.337 156.498 48.2991C156.498 48.3163 156.498 48.3266 156.488 48.3266C156.501 48.3404 156.52 48.3611 156.549 48.399H156.553Z" fill="#00B14F"/>
<path d="M168.862 41.24L168.971 41.1882C168.655 41.1502 168.32 41.2746 168.027 41.3989C168.001 41.3644 168.127 41.3126 168.172 41.2884C167.811 41.1779 167.656 41.202 167.014 41.4576L167.124 41.2884C167.024 41.3367 166.902 41.2711 166.692 41.2124C166.489 41.1572 166.183 41.1123 165.896 41.2124C165.905 41.1917 165.925 41.1606 165.973 41.1365C165.809 41.1848 165.654 41.1813 165.486 41.1537C165.37 41.126 165.264 41.0812 165.161 41.0467C164.954 40.9776 164.78 40.9637 164.706 41.2746L164.445 41.4265C164.784 41.4783 164.394 41.6959 164.532 41.7995C164.4 41.834 164.19 41.6096 164.352 41.5785L164.377 41.6095C164.439 41.2849 163.958 41.4921 163.968 41.2711C163.301 41.2815 162.653 41.0984 162.031 41.0777L162.101 41.3298L161.885 41.3126C161.827 41.2539 161.811 41.1157 161.966 41.1261C161.885 40.981 161.705 41.2435 161.702 41.2988C161.399 41.1952 161.821 41.0052 161.731 40.9983L161.605 41.0155L161.634 41.0467C161.531 41.1503 161.521 41.2573 161.334 41.2435C161.215 41.1916 161.276 41.088 161.228 41.0777C161.228 41.0604 161.212 41.0501 161.157 41.0708L160.883 41.0467L160.983 41.2297C160.893 41.2746 160.625 41.2435 160.367 41.2573C160.106 41.2435 159.838 41.2746 159.748 41.2297L159.848 41.0467L159.574 41.0708C159.519 41.0535 159.503 41.0604 159.503 41.0777C159.458 41.088 159.516 41.1916 159.397 41.2435C159.21 41.2573 159.2 41.1468 159.097 41.0467L159.126 41.0155L159 40.9983C158.907 41.0052 159.332 41.1952 159.029 41.2988C159.026 41.2435 158.845 40.981 158.762 41.1261C158.871 41.1192 158.894 41.1847 158.874 41.2469C158.807 41.2262 158.733 41.2021 158.675 41.1434L158.694 41.0777C158.675 41.0777 158.655 41.0811 158.636 41.0811C158.626 41.0673 158.617 41.057 158.61 41.0432C158.62 41.057 158.623 41.0708 158.626 41.0846C158.359 41.0984 158.088 41.1364 157.814 41.1744C157.546 41.1468 157.253 41.0225 156.953 41.0605C156.947 41.1123 156.992 41.1848 156.953 41.2607C156.934 41.2607 156.911 41.2607 156.892 41.2607L156.692 40.9983C156.605 41.0259 156.608 41.3471 156.453 41.1365C156.476 41.1883 156.508 41.2642 156.45 41.2849C156.299 41.2331 156.144 41.2055 155.989 41.1917C155.905 40.9637 155.744 40.981 155.56 41.0397C155.457 41.0743 155.351 41.1192 155.235 41.1468C155.067 41.1745 154.912 41.1779 154.748 41.1295C154.796 41.1537 154.816 41.1848 154.825 41.2055C154.648 41.1433 154.464 41.1398 154.3 41.1606C154.139 41.1191 153.974 41.0536 153.816 40.95C153.936 41.0674 153.855 41.0811 153.765 41.0846C153.816 41.1088 153.778 41.209 153.775 41.2884C153.762 41.2918 153.749 41.2919 153.736 41.2953L153.407 41.0881C153.352 41.2711 153.136 41.1709 153.03 41.2365C152.865 41.2124 152.736 41.2366 152.556 41.2884C152.601 41.316 152.727 41.3644 152.701 41.3989C152.408 41.2746 152.072 41.1502 151.756 41.1882L151.866 41.24L151.418 41.2228L151.502 41.3471C152.005 41.5923 151.979 41.689 152.011 41.8478C152.037 41.9998 152.127 42.2312 152.611 42.4142C152.433 42.4246 152.62 42.7527 152.646 42.9012C152.675 42.9046 152.714 42.9185 152.765 42.9461C152.649 43.0186 152.791 43.1706 152.952 43.3018C153.12 43.4365 153.307 43.5505 153.362 43.6472C153.388 43.7922 153.265 43.768 153.127 43.7301C153.343 43.8406 153.417 44.034 153.484 44.2515C153.494 44.2826 153.504 44.3136 153.513 44.3447C153.501 44.3343 153.484 44.324 153.468 44.3068C153.468 44.324 153.465 44.3275 153.462 44.3379C153.475 44.3551 153.491 44.3759 153.513 44.4173C153.52 44.4104 153.523 44.4035 153.53 44.4C153.546 44.4553 153.562 44.5071 153.578 44.552C153.591 44.5865 153.604 44.6176 153.613 44.6417C153.617 44.6487 153.623 44.6487 153.629 44.6521C153.629 44.7074 153.658 44.7765 153.613 44.7696C153.723 44.8455 153.749 44.7937 153.771 44.6832C153.8 44.6625 153.833 44.6314 153.862 44.6037L153.913 44.6279C153.929 44.5934 153.965 44.5554 153.891 44.5796C153.907 44.5658 153.923 44.5554 153.942 44.5485C153.961 44.5865 153.962 44.621 153.952 44.6487L153.91 44.6279C153.9 44.6486 153.907 44.6625 153.945 44.6625C153.891 44.7937 153.639 44.8421 153.916 44.9422C153.91 44.8974 153.881 44.8317 153.92 44.8317C154.007 44.8904 154.397 44.7661 154.535 44.811C154.477 44.849 154.452 44.9215 154.319 44.8973C154.374 44.9042 154.442 44.9319 154.493 44.9284C154.551 45.0148 154.684 45.0424 154.787 45.0769C154.78 45.1218 154.774 45.1598 154.764 45.184C154.787 45.1529 154.803 45.1183 154.822 45.0873C154.912 45.1183 154.961 45.1598 154.861 45.2669L154.729 45.3532C155.122 45.5224 154.78 45.5259 155.158 45.7158L155.174 45.6951C155.254 45.8505 155.461 45.7952 155.315 46.0301L155.254 46.0059C155.306 46.0888 155.338 46.1302 155.37 46.1716C155.351 46.1716 155.332 46.1716 155.312 46.1613C155.515 46.3788 155.199 46.144 155.267 46.3685C155.216 46.3374 155.177 46.2994 155.145 46.2649C155.164 46.3201 155.177 46.3754 155.187 46.4307V46.4203C155.193 46.3961 155.199 46.3858 155.199 46.4065C155.199 46.4065 155.203 46.4065 155.206 46.4065C155.222 46.3962 155.238 46.3892 155.254 46.3823C155.283 46.4721 155.235 46.4169 155.206 46.4065C155.199 46.41 155.193 46.4134 155.187 46.4168L155.422 46.6068C155.399 46.5446 155.351 46.4825 155.254 46.3789C155.351 46.3443 155.444 46.3685 155.512 46.3339C155.519 46.3409 155.522 46.3478 155.531 46.3547C155.528 46.3892 155.564 46.4998 155.622 46.4894C155.544 46.5619 155.602 46.6759 155.683 46.7829C155.664 46.8209 155.644 46.8555 155.631 46.89C155.66 46.8693 155.693 46.8485 155.747 46.8554C155.818 46.9314 155.889 46.9936 155.915 47.0212C155.834 46.8658 155.954 46.8692 156.047 46.852C155.976 47.0454 156.005 47.1145 156.183 47.1421C156.118 47.2077 156.05 47.2768 155.999 47.3459C155.983 47.3252 155.973 47.3044 155.963 47.2802C155.889 47.4253 155.947 47.3701 155.944 47.4322C155.886 47.5393 155.873 47.6498 155.954 47.7672C155.957 47.7085 155.934 47.6394 155.992 47.6256C156.05 47.6117 156.044 47.7016 156.041 47.7326C156.086 47.7223 156.086 47.6602 156.125 47.6153C156.134 47.6291 156.144 47.6429 156.154 47.6567C156.141 47.7948 156.208 47.8501 156.289 47.9191C156.308 47.9813 156.325 48.0469 156.292 48.1782C156.341 48.1298 156.354 48.0435 156.421 48.192C156.441 48.1851 156.47 48.1816 156.486 48.1816C156.486 48.1885 156.486 48.1885 156.486 48.192V48.1782C156.486 48.1782 156.502 48.1782 156.486 48.1747C156.486 48.1264 156.495 48.078 156.515 48.0435C156.534 48.0401 156.557 48.0401 156.576 48.0435C156.499 48.1955 157.001 48.1333 156.676 48.2921C156.769 48.344 156.853 48.4164 156.937 48.4959C156.908 48.5995 156.898 48.6927 156.76 48.6098L156.873 48.7756C156.879 48.9241 156.95 49.0761 157.056 49.1175C157.089 49.2142 157.324 49.2039 157.185 49.2142L157.443 49.4076L157.417 49.4353C157.588 49.6978 157.985 49.791 157.991 50.2537C158.081 50.3124 158.181 50.3712 158.252 50.5404L158.175 50.6509C158.288 50.7303 158.317 51.0584 158.452 51.0204C158.365 51.1965 158.436 51.3243 158.568 51.4728C158.775 51.7249 159.007 51.9529 159.116 52.1532L159.216 52.0047C159.374 52.2361 159.558 52.4053 159.771 52.5814L159.787 52.4709C159.822 52.5434 159.858 52.6229 159.896 52.7058C160.029 52.9924 160.196 53.317 160.348 53.3308C160.348 53.3308 160.348 53.3308 160.348 53.3342C160.351 53.3342 160.354 53.3342 160.357 53.3342C160.361 53.3342 160.364 53.3342 160.367 53.3342C160.367 53.3342 160.367 53.3342 160.367 53.3308C160.519 53.3135 160.686 52.989 160.818 52.7058C160.963 52.3984 161.07 52.1325 161.257 52.0807C161.302 51.9287 161.36 51.8872 161.428 51.8561C161.421 51.8665 161.418 51.8769 161.415 51.8872C161.424 51.8803 161.434 51.8666 161.444 51.8493C161.489 51.832 161.537 51.8147 161.589 51.7871C161.537 51.7974 161.492 51.8078 161.46 51.8251C161.512 51.7491 161.586 51.6213 161.64 51.4867L161.779 51.5661C161.779 51.5661 161.789 51.5488 161.795 51.5384C161.921 51.4694 161.808 51.3968 161.682 51.3623C161.705 51.2898 161.715 51.2242 161.715 51.162C161.969 51.2518 161.789 50.9202 162.056 51.0204C161.989 50.8857 162.237 50.6129 162.053 50.3918C162.082 50.4126 162.111 50.4057 162.085 50.4437C162.166 50.3884 162.25 50.3331 162.24 50.2157L162.417 50.3159L162.337 49.9705C162.508 49.9498 162.591 49.9567 162.633 50.157C162.633 49.7599 162.714 49.9014 162.688 49.5423L162.778 49.639C162.83 49.563 162.785 49.3316 162.901 49.3558C163.214 49.3558 163.539 48.5684 164.032 48.2991C163.678 48.1264 164.31 48.2161 164.097 48.0055C164.184 48.04 164.268 48.0159 164.278 48.1368C164.371 47.8639 164.632 47.9088 164.552 47.5945C164.639 47.6291 164.619 47.7292 164.677 47.743C164.677 47.7119 164.668 47.6221 164.726 47.6359C164.784 47.6497 164.761 47.7189 164.764 47.7776C164.919 47.5496 164.722 47.3424 164.535 47.1525C164.713 47.1248 164.742 47.0557 164.671 46.8623C164.764 46.8796 164.884 46.8762 164.803 47.0316C164.871 46.9625 165.251 46.6448 165.1 46.4998C165.158 46.5102 165.193 46.403 165.19 46.3651C165.328 46.2027 165.354 46.1993 165.467 46.0162L165.406 46.0404C165.264 45.8056 165.47 45.8609 165.548 45.7055L165.564 45.7261C165.938 45.5362 165.599 45.5328 165.993 45.3636L165.86 45.2772C165.625 45.0251 166.218 45.1356 166.257 44.8731H166.141C166.125 44.7039 166.699 44.9111 166.805 44.8386C166.844 44.8386 166.815 44.9042 166.808 44.9491C167.156 44.8247 166.676 44.7799 166.782 44.5554C166.895 44.5934 166.963 44.7868 167.076 44.6729C167.092 44.6729 167.101 44.6625 167.111 44.6452C167.121 44.621 167.134 44.5899 167.147 44.5554C167.179 44.4691 167.208 44.3586 167.243 44.255C167.311 44.0374 167.385 43.844 167.601 43.7335C167.463 43.775 167.337 43.7957 167.366 43.6506C167.421 43.5505 167.608 43.44 167.775 43.3053C167.94 43.174 168.078 43.0255 167.962 42.9496C168.014 42.9219 168.052 42.9081 168.082 42.9046C168.104 42.7561 168.294 42.4315 168.117 42.4177C168.601 42.2312 168.691 42.0032 168.717 41.8513C168.746 41.6924 168.723 41.5957 169.226 41.3505L169.31 41.2263L168.862 41.2435V41.24ZM156.347 46.9349C156.35 46.9141 156.354 46.8865 156.357 46.8623C156.318 46.9556 156.279 47.0246 156.231 47.0212L156.163 46.7691C156.225 46.7725 156.295 46.7864 156.363 46.776C156.363 46.8036 156.36 46.8347 156.357 46.8623C156.37 46.8347 156.383 46.8036 156.392 46.7725C156.412 46.7691 156.431 46.7588 156.45 46.7484L156.515 46.8348C156.473 46.9038 156.421 46.9487 156.347 46.9315V46.9349ZM157.179 47.7396C157.179 47.7396 157.172 47.743 157.169 47.7465C157.166 47.7361 157.159 47.7223 157.156 47.7119L157.179 47.743V47.7396ZM159.877 51.4142L159.906 51.4555C159.896 51.4901 159.884 51.5246 159.874 51.5592C159.874 51.5108 159.874 51.4625 159.874 51.4176L159.877 51.4142ZM160.802 51.459L160.831 51.4211C160.831 51.4625 160.831 51.5039 160.831 51.5453C160.822 51.5177 160.812 51.4866 160.806 51.4555L160.802 51.459ZM154.564 44.8731C154.564 44.8731 154.564 44.8696 154.564 44.8662C154.564 44.8662 154.564 44.8662 154.564 44.8731ZM157.034 48.8447C157.034 48.8447 157.04 48.8447 157.043 48.8447C157.063 48.9759 157.056 48.9275 157.034 48.8447ZM160.386 53.2721C160.386 53.2721 160.393 53.2548 160.396 53.2445L160.383 53.279C160.383 53.279 160.367 53.2998 160.357 53.3067C160.348 53.2998 160.338 53.2894 160.332 53.279L160.319 53.2445C160.319 53.2445 160.325 53.2617 160.328 53.2721C160.303 53.241 160.277 53.1996 160.27 53.1409C160.277 53.1513 160.287 53.1616 160.293 53.1719C160.312 53.203 160.328 53.2376 160.348 53.2652C160.351 53.2617 160.354 53.2548 160.357 53.2514C160.361 53.2548 160.364 53.2617 160.367 53.2652C160.386 53.2341 160.403 53.203 160.422 53.1719C160.428 53.1616 160.438 53.1547 160.444 53.1409C160.438 53.1996 160.412 53.241 160.386 53.2721ZM161.196 41.1399L161.237 41.1848C161.141 41.2331 161.167 41.1883 161.196 41.1399ZM162.105 49.7392L162.208 49.6045L162.33 49.9326C162.282 49.8739 162.198 49.8082 162.105 49.7426V49.7392ZM164.481 47.0212C164.435 47.0246 164.397 46.9556 164.355 46.8623C164.355 46.89 164.358 46.9141 164.365 46.9349C164.319 46.9452 164.281 46.928 164.248 46.9004L164.329 46.7967C164.339 46.8175 164.348 46.8416 164.355 46.8623C164.355 46.8347 164.352 46.8002 164.348 46.7691L164.384 46.7208C164.458 46.7277 164.523 46.7311 164.558 46.7277L164.477 47.0212H164.481Z" fill="#00B14F"/>
<path d="M156.018 47.805L156.136 47.8978C156.088 47.8462 156.101 47.8016 156.098 47.7568C156.072 47.7844 156.046 47.8394 156.018 47.805Z" fill="#00B14F"/>
<path d="M156.707 48.4371C156.707 48.3752 156.559 48.5231 156.582 48.4646C156.418 48.53 156.932 48.5953 156.707 48.4371Z" fill="#00B14F"/>
<path d="M153.145 40.9048L153.014 40.8291L153.097 40.9495L153.145 40.9048Z" fill="#00B14F"/>
<path d="M152.89 41.1633L152.862 40.9397L152.781 41.1427C152.81 41.1324 152.868 41.1151 152.89 41.1633Z" fill="#00B14F"/>
<path d="M152.565 42.9698C152.619 42.9835 152.632 42.9561 152.622 42.9046C152.578 42.8977 152.555 42.9183 152.565 42.9698Z" fill="#00B14F"/>
</svg>
