<svg width="149" height="59" viewBox="0 0 149 59" fill="none" xmlns="http://www.w3.org/2000/svg">
<path d="M3.46406 0.517578L3.39258 0.541968C3.42831 0.535006 3.45756 0.528021 3.46406 0.517578Z" fill="#20BB65"/>
<path d="M4.30273 3.47968C4.30273 3.47968 4.31281 3.47967 4.31952 3.47607C4.31281 3.47607 4.30945 3.47608 4.30273 3.47968Z" fill="#20BB65"/>
<path d="M1.12568 0.701912C1.05746 0.910764 0.719592 1.02562 0.891778 1.2101C0.878783 1.31453 0.979496 1.40854 1.03473 1.49556C1.31087 1.48511 1.06071 1.62083 1.29788 1.62779L1.14843 1.68354C1.22965 1.68354 1.28487 1.69394 1.2069 1.73223L1.16141 1.7392C1.28162 1.7392 1.21989 1.78798 1.28162 1.78798L1.23615 1.79835L1.26213 1.82622L1.19717 1.83667C1.33037 1.85756 1.34659 1.90285 1.30111 1.96202L1.48306 1.91324C1.29788 2.05596 1.68448 1.99335 1.46032 2.13955L1.41483 2.14992C1.91839 2.12555 1.12568 2.40756 1.60975 2.38667C1.54802 2.38667 1.51879 2.41796 1.4733 2.43189C1.53828 2.46669 1.57726 2.51192 1.93463 2.4075C1.93788 2.4423 1.83067 2.47017 1.69422 2.51542C1.85016 2.47017 1.92164 2.4806 1.94113 2.50497L1.87615 2.51194L1.95087 2.57465L2.24002 2.47021C2.16529 2.53635 1.88266 2.59201 1.96713 2.60941L2.21079 2.53284C2.1783 2.60246 1.81768 2.75561 1.65524 2.87048C1.6195 3.14894 2.31149 3.1698 1.96062 3.54226L1.7852 3.62239C1.52529 3.7303 2.19128 3.52834 1.95412 3.63276L2.08083 3.60846C2.03534 3.63282 1.99312 3.66762 1.92814 3.68154C1.92814 3.70939 1.97036 3.69198 2.05483 3.67457L1.90215 3.76508C1.81118 3.90779 2.14905 3.85553 2.12306 3.97736C1.84042 4.23495 2.22702 4.31851 2.44794 4.35332C2.89303 4.32896 1.98012 5.03559 2.49018 4.98686C2.45769 5.01123 2.54216 4.98336 2.5714 4.96595L2.61038 5.14C2.61038 5.14 2.68185 5.34189 2.96774 5.31752C3.25688 5.30012 3.7442 5.02166 4.63112 4.18973L4.68637 4.16186C4.78058 4.01914 4.78707 3.95996 4.49468 4.06438C4.82281 3.86946 4.50118 3.98783 4.60189 3.91125L4.63112 3.89731C4.35498 3.99477 4.80331 3.69547 4.55315 3.77902C4.57915 3.76509 4.67337 3.71631 4.68311 3.72327C4.62788 3.71631 4.53367 3.71636 4.7286 3.60846C4.64738 3.56321 4.69286 3.4205 4.35823 3.53189L4.41346 3.5075C4.18929 3.58756 4.36797 3.4901 4.24777 3.51098C4.27376 3.49706 4.28676 3.49007 4.29651 3.48311C4.07234 3.55621 4.22828 3.41353 4.12756 3.43441L4.26078 3.3717L4.20553 3.32649L4.18604 3.36133C3.81893 3.52493 4.39721 3.21157 4.1438 3.27771C4.17629 3.21853 3.34786 3.53882 3.5103 3.41351C3.32837 3.4692 3.7962 3.30909 3.65325 3.33694C3.84493 3.24992 3.77995 3.29862 3.92939 3.22204C3.82543 3.23249 4.10482 3.08626 3.96187 3.10715L4.11132 3.04103C3.81893 3.11065 4.27701 2.86698 4.00411 2.94704C3.86116 2.94704 4.43945 2.73126 4.12756 2.80088L4.32575 2.69992C4.35175 2.66511 4.0691 2.78696 4.16006 2.72082C4.29002 2.67209 4.25428 2.65119 4.38098 2.61638C4.56616 2.48411 4.0561 2.61636 4.37773 2.41795C4.12107 2.49801 4.25751 2.40755 4.06584 2.46324C4.17629 2.42147 4.06259 2.38315 4.31275 2.3379C4.33224 2.33441 4.33223 2.34139 4.28675 2.35532L4.43945 2.30662C4.71235 2.16391 4.26077 2.29263 4.29326 2.23694C4.24777 2.26478 4.26402 2.27877 4.15681 2.30314L4.16655 2.25784L4.29651 2.2196L4.35498 2.13955L4.19905 2.20218C4.27052 2.14649 4.53692 2.04552 4.30301 2.09425C4.17306 2.1221 4.09834 2.19171 4.03986 2.17779C4.13732 2.10469 4.28351 1.99681 4.31925 1.93763C4.14057 2.00029 4.14381 1.98284 4.10482 1.98284L4.26078 1.93066C4.03011 1.94807 4.59864 1.80532 4.41346 1.81228L4.52393 1.78449L4.1958 1.87152C3.87416 1.92025 4.51093 1.74965 4.07884 1.8297C4.11133 1.84015 3.73771 1.94107 3.79943 1.89582L3.95214 1.85758C3.9164 1.8541 3.85141 1.86801 3.88065 1.85061C3.96512 1.83321 4.10158 1.79145 4.06909 1.77753L4.26078 1.73571L3.97488 1.78101C4.13082 1.70443 3.91639 1.71831 4.12431 1.64521C4.12431 1.64521 4.21204 1.55475 3.97488 1.60697C4.12432 1.57912 4.16981 1.53037 4.34199 1.49556C4.17306 1.52688 4.03011 1.513 4.19905 1.44686H4.21854C4.38423 1.33199 3.94563 1.38769 4.15031 1.27282C3.96837 1.32155 4.05934 1.26235 3.82868 1.32848C3.58177 1.31456 4.28352 1.09874 3.55254 1.23798C3.50706 1.21709 3.71498 1.16487 3.75071 1.1405H3.7897C3.71822 1.09525 3.70847 1.08131 3.71821 1.03258C3.64349 1.02561 3.30562 1.09175 3.38034 1.03606C3.51679 1.02214 3.49081 1.01174 3.48756 0.994335C3.5103 0.997815 3.55903 0.994297 3.64675 0.956008C3.60451 0.962969 3.57851 0.962976 3.55577 0.962976C3.56552 0.962976 3.57528 0.959489 3.58827 0.956008C3.53629 0.942084 3.49405 0.956021 3.4778 0.969945C3.45831 0.973426 3.43232 0.980408 3.39333 0.99085C3.56227 0.931676 3.3706 0.921206 3.60126 0.875955C3.53628 0.8133 3.28614 0.806307 3.18868 0.757575C3.30563 0.729729 3.41608 0.726312 3.46482 0.736755L3.41608 0.701912C3.58826 0.674066 3.52004 0.708888 3.55577 0.715849C3.82542 0.618386 3.2634 0.656685 3.5103 0.55226L3.37384 0.562712L3.39658 0.555744C3.32511 0.566186 3.2244 0.569674 3.19841 0.562712C3.34786 0.531385 3.54604 0.510506 3.5298 0.48266C3.66949 0.437409 3.44857 0.426891 3.3641 0.406006C3.34136 0.426891 3.25689 0.43388 3.20167 0.43388C3.19517 0.419957 3.34461 0.388667 3.27638 0.385186L3.4778 0.353827C3.28613 0.385155 3.26664 0.343378 3.18217 0.346859C3.33162 0.319012 3.31538 0.353814 3.42908 0.33989C3.40309 0.280716 3.41609 0.312044 3.3901 0.252869C3.23416 0.238946 3.19842 0.284234 3.01973 0.291196C2.9775 0.26683 2.83129 0.256391 2.94825 0.207659L2.76957 0.238932C2.62337 0.200643 2.64288 0.162391 2.82156 0.103216C2.06459 -0.029056 1.55777 -0.0185829 1.24263 0.0475533C0.9275 0.110209 0.800802 0.221596 0.800802 0.221596C0.417444 0.461775 0.956741 0.503511 1.12243 0.708881L1.12568 0.701912Z" fill="#20BB65"/>
<path d="M10.3268 10.0413L10.3105 10.1248C10.3268 10.0935 10.3365 10.0621 10.3268 10.0413Z" fill="#20BB65"/>
<path d="M16.252 12.8551C16.252 12.8551 16.2597 12.8475 16.2635 12.8398C16.2558 12.8437 16.252 12.8513 16.252 12.8551Z" fill="#20BB65"/>
<path d="M9.99335 12.9651C9.99335 12.9651 9.98328 12.9723 9.97656 12.9795L9.99335 12.9651Z" fill="#20BB65"/>
<path d="M8.85506 12.0252C9.12796 12.3072 9.037 12.697 9.44959 12.7666C9.59904 12.8885 9.81022 12.9198 9.9889 12.9685C10.1936 12.7527 10.2001 13.0834 10.395 12.9129L10.3593 13.08C10.4275 13.0208 10.486 12.9929 10.4795 13.0904L10.4567 13.1321C10.5574 13.0451 10.5769 13.1391 10.6257 13.0939L10.6029 13.1356L10.6679 13.1461L10.6289 13.2017C10.7654 13.1252 10.8531 13.1635 10.8986 13.2575L10.9765 13.073C11.0383 13.3584 11.2689 13.0138 11.3014 13.3271L11.2787 13.3689C11.6718 12.979 11.4184 13.8422 11.8017 13.4767C11.753 13.522 11.7725 13.5777 11.7497 13.6195C11.857 13.6091 11.9609 13.6265 12.1169 13.2645C12.1753 13.2993 12.1169 13.4036 12.0681 13.5463C12.1363 13.3862 12.2176 13.348 12.2695 13.3619L12.2208 13.4141L12.38 13.428L12.4775 13.1147C12.5132 13.2365 12.3443 13.4907 12.445 13.4524L12.5457 13.2017C12.6269 13.2992 12.5327 13.703 12.5587 13.9327C12.9323 14.2356 13.6211 13.7866 13.842 14.3922L13.79 14.5906C13.6958 14.8725 14.0466 14.2252 13.9687 14.4862L14.0596 14.3783C14.0531 14.434 14.0596 14.4967 14.0174 14.5523C14.0564 14.5802 14.0726 14.5349 14.1343 14.4653L14.1181 14.6568C14.2351 14.8587 14.495 14.5802 14.6444 14.7194C14.7321 15.1615 15.2422 14.984 15.5281 14.8795C15.9797 14.5732 15.9992 15.8402 16.48 15.4678C16.48 15.513 16.5352 15.4295 16.545 15.3982L16.8341 15.5444C16.8341 15.5444 17.1947 15.6941 17.4969 15.5026C17.8022 15.3112 18.0394 14.7716 17.8412 13.4106L17.8672 13.3515C17.7535 13.1461 17.6626 13.0835 17.4611 13.355C17.5586 12.9686 17.3442 13.2714 17.3442 13.1321L17.3572 13.1009C17.172 13.3619 17.2337 12.7876 17.0583 13.0173C17.0713 12.9895 17.107 12.885 17.1297 12.885C17.0485 12.9094 16.9283 12.9616 16.9933 12.7388C16.8146 12.7388 16.6229 12.5543 16.4085 12.8711L16.4345 12.8119C16.298 13.0277 16.3468 12.8189 16.2428 12.9164C16.2493 12.885 16.2493 12.8711 16.2526 12.8571C16.1129 13.066 16.0544 12.8224 15.9699 12.9024L16.0154 12.7563L15.8757 12.7423L15.9114 12.791C15.762 13.1878 15.8984 12.5021 15.7198 12.7284C15.6515 12.6448 15.2617 13.4942 15.2389 13.261C15.1317 13.4315 15.3819 12.9721 15.2682 13.0904C15.3364 12.8816 15.3429 12.972 15.3851 12.798C15.2877 12.8711 15.3559 12.5439 15.2292 12.6553L15.2812 12.4917C15.0765 12.7493 15.1675 12.2028 15.0018 12.4604C14.8523 12.5509 15.1058 11.9522 14.8848 12.2237L14.9238 11.9869C14.8913 11.9312 14.7939 12.2411 14.7809 12.1158C14.8329 11.98 14.7581 11.98 14.8328 11.8617C14.8004 11.6006 14.4885 12.0705 14.4755 11.6423C14.3423 11.8929 14.3293 11.7015 14.2286 11.8929C14.2676 11.7746 14.0856 11.8094 14.2643 11.5936C14.2806 11.5762 14.2903 11.5866 14.2741 11.6319L14.3455 11.4787C14.3748 11.1446 14.1311 11.5762 14.0629 11.4927C14.0661 11.5553 14.1051 11.5553 14.0434 11.6563L13.9752 11.6006L14.0434 11.4752L13.9589 11.3465L13.9102 11.5171C13.8875 11.4057 13.9784 11.1202 13.8225 11.3221C13.7413 11.437 13.7867 11.5658 13.7088 11.5901C13.6763 11.4439 13.634 11.2246 13.5561 11.1341C13.4911 11.3221 13.4683 11.3012 13.4261 11.3291L13.4878 11.169C13.2962 11.343 13.5951 10.8035 13.4229 10.9323L13.4781 10.8244L13.3157 11.1411C13.0947 11.4126 13.4034 10.7896 13.124 11.169C13.176 11.162 12.9973 11.5275 12.9745 11.4335L13.0525 11.2873C13.0103 11.3047 12.9745 11.3674 12.9713 11.3256C13.0233 11.2525 13.072 11.1097 13.0233 11.1132L13.1305 10.9357L12.9356 11.1794C12.9486 10.988 12.7666 11.1481 12.8348 10.9218C12.8348 10.9218 12.7569 10.7547 12.6269 10.974C12.7146 10.8418 12.6724 10.7512 12.7666 10.5911C12.6627 10.7408 12.51 10.8244 12.549 10.6329L12.5652 10.6155C12.5067 10.3683 12.2176 10.7373 12.1948 10.4554C12.1169 10.6399 12.0974 10.5041 12.0064 10.7443C11.7692 10.901 11.9934 10.1526 11.61 10.8348C11.5321 10.8418 11.6198 10.6329 11.61 10.5772L11.6425 10.5494C11.5061 10.5494 11.4703 10.5355 11.3989 10.4728C11.3241 10.5181 11.1585 10.8418 11.1227 10.7199C11.2104 10.6051 11.1682 10.612 11.1422 10.5946C11.1682 10.5841 11.1975 10.5389 11.2072 10.431C11.1812 10.4693 11.1617 10.4902 11.1455 10.5041C11.1487 10.4936 11.152 10.4867 11.1617 10.4728C11.0935 10.4937 11.0805 10.5389 11.0935 10.5668C11.0837 10.5877 11.0707 10.612 11.061 10.6503C11.0967 10.4589 10.9245 10.5876 11.0318 10.3614C10.8726 10.3335 10.6582 10.5041 10.499 10.5215C10.5444 10.3997 10.6257 10.3162 10.6809 10.2918L10.5802 10.2848C10.6679 10.1212 10.6744 10.2187 10.7166 10.2013C10.7621 9.88453 10.3852 10.3475 10.4047 10.0377L10.3138 10.1525L10.3203 10.1282C10.2845 10.1943 10.2098 10.2709 10.1806 10.2848C10.2423 10.1351 10.3593 9.9611 10.3008 9.93674C10.3333 9.77662 10.1416 9.92981 10.0441 9.9681C10.0604 10.0099 10.0084 10.0829 9.96616 10.1212C9.93692 10.1073 9.99864 9.96109 9.94342 10.0063L10.0474 9.81836C9.95966 10.0028 9.86869 9.96459 9.81671 10.0342C9.88168 9.88454 9.92716 9.94369 9.99214 9.84275C9.87518 9.79054 9.93366 9.81491 9.81671 9.7627C9.67701 9.86712 9.72575 9.94716 9.6023 10.0899C9.53082 10.0899 9.40411 10.1909 9.41061 10.0377L9.33264 10.2152C9.16045 10.2814 9.11497 10.2187 9.15071 10.0098C8.39374 10.4275 8.06237 10.8418 7.93892 11.1655C7.81546 11.4892 7.89343 11.7155 7.89343 11.7155C7.9779 12.2933 8.42947 11.9208 8.86156 12.0287L8.85506 12.0252Z" fill="#20BB65"/>
<path d="M26.2109 15.6313L26.2239 15.7149C26.2304 15.6766 26.2304 15.6453 26.2109 15.6313Z" fill="#20BB65"/>
<path d="M32.7441 16.7426C32.7441 16.7426 32.7513 16.7318 32.7549 16.7246C32.7477 16.7318 32.7477 16.7354 32.7441 16.7426Z" fill="#20BB65"/>
<path d="M26.7549 18.5137C26.7549 18.5137 26.7477 18.5245 26.7441 18.5317L26.7585 18.5137H26.7549Z" fill="#20BB65"/>
<path d="M25.4536 18.0298C25.7882 18.1968 25.8142 18.5901 26.2073 18.5101C26.3763 18.5762 26.5777 18.5275 26.7531 18.5136C26.8831 18.2386 26.9773 18.5519 27.1137 18.3291L27.1235 18.4997C27.169 18.4231 27.2177 18.3744 27.2372 18.4683L27.2275 18.517C27.2957 18.4022 27.3412 18.4857 27.3736 18.43L27.3639 18.4788L27.4256 18.4683L27.4029 18.5345C27.5101 18.4196 27.6011 18.4266 27.666 18.4997L27.692 18.2978C27.822 18.5519 27.9487 18.1516 28.0559 18.4405L28.0461 18.4893C28.319 17.9985 28.2898 18.8999 28.5627 18.437C28.5302 18.4962 28.5562 18.5415 28.5465 18.5902C28.6439 18.5484 28.7446 18.538 28.8064 18.1447C28.8714 18.1621 28.8421 18.2769 28.8259 18.43C28.8519 18.2595 28.9201 18.1968 28.9721 18.1968L28.9396 18.2595L29.0955 18.2282L29.115 17.8974C29.1767 18.0053 29.076 18.2978 29.1605 18.2317L29.1995 17.9636C29.297 18.0367 29.3002 18.4545 29.3749 18.6703C29.7908 18.8582 30.356 18.2525 30.6907 18.7886L30.6809 18.994C30.6484 19.2898 30.8531 18.5763 30.8304 18.8513L30.8953 18.7224C30.9018 18.7781 30.9213 18.8373 30.8888 18.9C30.9311 18.9174 30.9376 18.8686 30.9831 18.7851L31.0026 18.9765C31.1553 19.1471 31.3469 18.8164 31.5191 18.9139C31.6848 19.3212 32.1396 19.0392 32.3995 18.8756C32.7861 18.4822 33.0201 19.718 33.4229 19.2585C33.4294 19.3003 33.4684 19.2133 33.4716 19.1785L33.777 19.2655C33.777 19.2655 35.2585 19.5857 34.417 16.975L34.4333 16.9124C34.2838 16.7314 34.1831 16.6827 34.0304 16.9925C34.0597 16.5922 33.8972 16.9333 33.8745 16.7975L33.881 16.7662C33.7413 17.0586 33.7023 16.4808 33.5691 16.7419C33.5756 16.7105 33.5918 16.6026 33.6146 16.5991C33.5366 16.6409 33.4294 16.714 33.4521 16.4808C33.2735 16.5156 33.0493 16.3764 32.8934 16.7279L32.9096 16.6653C32.8154 16.9055 32.8251 16.6896 32.7374 16.808C32.7374 16.7766 32.7374 16.7593 32.7374 16.7488C32.6367 16.9855 32.5327 16.7592 32.4645 16.8532L32.4808 16.7L32.3411 16.714L32.3866 16.7558C32.3118 17.177 32.3183 16.4773 32.1851 16.7349C32.1007 16.6688 31.883 17.5842 31.8148 17.3615C31.7433 17.5529 31.8992 17.0482 31.8083 17.1874C31.8342 16.9681 31.8602 17.0551 31.8635 16.8776C31.7823 16.9716 31.7855 16.6374 31.6815 16.7731L31.701 16.6026C31.5516 16.8984 31.5289 16.345 31.4184 16.6339C31.2884 16.7592 31.4151 16.1153 31.2527 16.432L31.2397 16.1919C31.1942 16.1466 31.165 16.4703 31.126 16.3485C31.1488 16.2023 31.074 16.2197 31.126 16.0874C31.0351 15.8403 30.8304 16.3694 30.7232 15.9587C30.6484 16.2371 30.59 16.0526 30.5315 16.2615C30.5445 16.1361 30.369 16.2163 30.5022 15.9622C30.512 15.9413 30.525 15.9482 30.5185 15.9969L30.5542 15.8298C30.5087 15.4957 30.3625 15.976 30.2781 15.9134C30.2976 15.9725 30.3366 15.9656 30.2943 16.077L30.2131 16.0387L30.2521 15.8994L30.1384 15.7951L30.1286 15.9726C30.0799 15.8717 30.1026 15.5688 29.9954 15.8089C29.9434 15.9412 30.0182 16.0561 29.9467 16.0979C29.8817 15.9656 29.7843 15.7637 29.6868 15.6941C29.6673 15.8925 29.6413 15.882 29.6056 15.9169L29.6283 15.7463C29.4789 15.9656 29.6446 15.3635 29.5049 15.534L29.5341 15.4156L29.4496 15.7672C29.2969 16.0874 29.4496 15.4017 29.2677 15.8473C29.3164 15.8264 29.232 16.2267 29.1865 16.1432L29.2255 15.9796C29.1897 16.0074 29.1702 16.077 29.154 16.0387C29.1865 15.9517 29.1995 15.7985 29.154 15.8194L29.2157 15.6176L29.0858 15.9064C29.05 15.7184 28.9136 15.9204 28.9233 15.6837C28.9233 15.6837 28.8031 15.5445 28.7317 15.7951C28.7836 15.6419 28.7187 15.5688 28.7674 15.3843C28.7024 15.5583 28.5757 15.6836 28.5627 15.4852L28.5757 15.4643C28.449 15.2416 28.2638 15.6802 28.1631 15.4191C28.1371 15.6175 28.0819 15.4957 28.0592 15.7533C27.874 15.976 27.8772 15.1894 27.6985 15.9622C27.6238 15.99 27.6498 15.7638 27.6238 15.7185L27.6466 15.6802C27.5134 15.722 27.4744 15.722 27.3867 15.6837C27.3282 15.7498 27.2599 16.1118 27.1917 16.0108C27.2437 15.8716 27.2047 15.8925 27.1722 15.8856C27.195 15.8682 27.2112 15.816 27.1852 15.7115C27.1722 15.7568 27.1592 15.7812 27.1462 15.802C27.1462 15.7916 27.1462 15.7811 27.1527 15.7672C27.0943 15.809 27.0943 15.8542 27.1137 15.8786C27.1072 15.8995 27.1073 15.9274 27.1073 15.9691C27.0845 15.7707 26.9546 15.9517 26.9935 15.7046C26.8279 15.7324 26.6752 15.9656 26.529 16.0352C26.5355 15.9064 26.5874 15.7985 26.6329 15.7568L26.5322 15.7846C26.5647 15.6001 26.6037 15.6906 26.6362 15.6593C26.581 15.3425 26.36 15.9099 26.2821 15.6106L26.2301 15.7498V15.7254C26.2138 15.802 26.1651 15.8995 26.1424 15.9203C26.1521 15.7567 26.2106 15.5513 26.1424 15.5479C26.1196 15.3843 25.9864 15.5966 25.9052 15.6697C25.9344 15.7045 25.9052 15.7916 25.8825 15.8438C25.85 15.8438 25.8597 15.6802 25.824 15.7428L25.8597 15.527C25.8337 15.7324 25.7363 15.7289 25.7103 15.8124C25.72 15.6488 25.785 15.6871 25.8142 15.5653C25.6843 15.5583 25.7493 15.5653 25.6193 15.5548C25.5218 15.7045 25.5933 15.7602 25.5283 15.9412C25.4601 15.9691 25.3756 16.1084 25.3302 15.9656L25.3172 16.1605C25.1775 16.2858 25.1125 16.2476 25.0735 16.0387C24.5082 16.7244 24.3588 17.2466 24.3555 17.5947C24.3523 17.9427 24.492 18.1237 24.492 18.1237C24.7486 18.618 25.028 18.0994 25.4536 18.0332V18.0298Z" fill="#20BB65"/>
<path d="M43.0703 17.9878L43.0898 18.0713C43.0898 18.033 43.0898 18.0017 43.0703 17.9878Z" fill="#20BB65"/>
<path d="M49.6992 18.5244C49.6992 18.5244 49.7028 18.5135 49.7064 18.5063C49.7028 18.5135 49.6992 18.5172 49.6992 18.5244Z" fill="#20BB65"/>
<path d="M43.8648 20.7935C43.8648 20.7935 43.8573 20.8047 43.8535 20.816L43.8648 20.7935Z" fill="#20BB65"/>
<path d="M42.5384 20.4593C42.8827 20.5881 42.9445 20.971 43.3246 20.8492C43.4968 20.8944 43.6884 20.8248 43.8639 20.7934C43.9678 20.508 44.0881 20.8074 44.205 20.5707L44.2277 20.7413C44.2667 20.6612 44.3122 20.6055 44.3382 20.6995L44.3317 20.7482C44.3902 20.6264 44.4422 20.7064 44.4714 20.6438L44.4649 20.6925L44.5266 20.6752L44.5104 20.7448C44.6078 20.6194 44.6956 20.6159 44.7703 20.6855L44.78 20.4837C44.9295 20.7239 45.0237 20.3097 45.1536 20.5916L45.1471 20.6403C45.3778 20.1251 45.42 21.0267 45.654 20.5394C45.6247 20.5985 45.654 20.6438 45.6507 20.6925C45.7449 20.6438 45.8456 20.6194 45.8749 20.2261C45.9398 20.2366 45.9204 20.3548 45.9171 20.508C45.9301 20.3339 45.9918 20.2678 46.0438 20.2609L46.0146 20.3271L46.1673 20.2818V19.9511C46.2355 20.0521 46.1543 20.3514 46.2323 20.2783L46.2517 20.0068C46.3557 20.0694 46.3882 20.4871 46.4759 20.696C46.9015 20.8491 47.4213 20.1982 47.7884 20.7099V20.9153C47.7787 21.2147 47.9346 20.4837 47.9314 20.7622L47.9898 20.6299C47.9996 20.6855 48.0223 20.7447 47.9931 20.8074C48.0353 20.8213 48.0418 20.7725 48.0776 20.6855L48.11 20.8735C48.2725 21.0336 48.4414 20.6855 48.6169 20.776C48.8085 21.1728 49.2406 20.8596 49.4875 20.6786C49.8481 20.2609 50.1535 21.4792 50.5271 20.9988C50.5369 21.0406 50.5694 20.9501 50.5726 20.9153L50.8813 20.9849C50.8813 20.9849 52.3725 21.2286 51.3913 18.6632L51.4043 18.6005C51.2451 18.4265 51.1412 18.3847 51.0047 18.7015C51.0112 18.3012 50.8683 18.6492 50.839 18.517L50.8455 18.4857C50.7221 18.785 50.6506 18.2107 50.5337 18.4787C50.5401 18.4474 50.5499 18.3359 50.5726 18.3325C50.4979 18.3777 50.3939 18.4578 50.4037 18.2246C50.2283 18.2699 49.9943 18.1411 49.8579 18.5031L49.8709 18.4404C49.7897 18.6875 49.7864 18.4717 49.7084 18.5935C49.7084 18.5622 49.702 18.5483 49.7052 18.5344C49.6207 18.778 49.5038 18.5553 49.4388 18.6562L49.4453 18.4996L49.3056 18.5239L49.3543 18.5623C49.3056 18.9869 49.2699 18.2873 49.1529 18.5553C49.0652 18.4926 48.9027 19.422 48.8215 19.2062C48.7631 19.4011 48.8833 18.8859 48.8053 19.0321C48.8183 18.8093 48.8475 18.8964 48.841 18.7189C48.7663 18.8198 48.7468 18.4822 48.6526 18.6249L48.6623 18.4508C48.5324 18.7572 48.4739 18.2072 48.3797 18.4996C48.2562 18.6319 48.3407 17.981 48.201 18.3082L48.1718 18.0714C48.1263 18.0296 48.1165 18.3534 48.0678 18.2351C48.0808 18.0889 48.0061 18.1132 48.0483 17.974C47.9411 17.7338 47.7722 18.2803 47.6357 17.8765C47.5805 18.1585 47.509 17.9809 47.4668 18.1933C47.47 18.0679 47.3011 18.1584 47.4148 17.8974C47.4245 17.8765 47.4375 17.88 47.4343 17.9287L47.457 17.7616C47.3856 17.4344 47.2751 17.9218 47.1841 17.8661C47.2069 17.9253 47.2459 17.9113 47.2134 18.0262L47.1289 17.9948L47.1581 17.8521L47.0347 17.7582V17.9357C46.9827 17.8382 46.9827 17.5354 46.895 17.7825C46.8528 17.9183 46.9372 18.0261 46.8657 18.0749C46.791 17.9461 46.6773 17.7547 46.5766 17.692C46.5701 17.8904 46.5441 17.8835 46.5116 17.9217L46.5214 17.7477C46.3882 17.9774 46.5084 17.3649 46.3817 17.5459L46.4012 17.4275L46.3427 17.786C46.2127 18.1202 46.3167 17.424 46.1673 17.88C46.2128 17.8557 46.1575 18.2629 46.1088 18.1828L46.1348 18.0157C46.1023 18.0471 46.0861 18.1167 46.0698 18.0818C46.0958 17.9948 46.0991 17.8417 46.0503 17.8661L46.0958 17.6607L45.9886 17.9601C45.9366 17.7756 45.8164 17.9914 45.8067 17.7547C45.8067 17.7547 45.6735 17.6259 45.6215 17.8835C45.6637 17.7269 45.589 17.6572 45.628 17.4727C45.576 17.6502 45.459 17.7895 45.4298 17.5946L45.4395 17.5737C45.2966 17.3648 45.1439 17.8208 45.0204 17.5702C45.0107 17.7721 44.9425 17.6572 44.9425 17.9148C44.7735 18.155 44.7151 17.3717 44.5981 18.1584C44.5266 18.1967 44.5331 17.967 44.5006 17.9217L44.5201 17.88C44.3869 17.9357 44.3512 17.9391 44.2602 17.9113C44.2083 17.9844 44.1693 18.3499 44.0913 18.2559C44.1303 18.1132 44.0913 18.1376 44.0621 18.1341C44.0848 18.1132 44.0945 18.061 44.0621 17.9566C44.0523 18.0018 44.0426 18.0297 44.0296 18.0506C44.0296 18.0401 44.0296 18.0297 44.0296 18.0157C43.9743 18.0645 43.9776 18.1097 44.0003 18.1306C44.0003 18.1515 43.9971 18.1828 44.0003 18.2211C43.9613 18.0262 43.8476 18.2211 43.8606 17.9705C43.6982 18.0158 43.565 18.2663 43.4253 18.3499C43.422 18.2176 43.461 18.1063 43.5033 18.061L43.4058 18.0993C43.422 17.9148 43.4675 17.9984 43.5 17.9636C43.4155 17.6538 43.2466 18.2455 43.1394 17.9566L43.1004 18.1028L43.0939 18.0784C43.0874 18.1549 43.0484 18.2594 43.0289 18.2838C43.0257 18.1202 43.0614 17.9113 42.9964 17.9148C42.9575 17.7547 42.8438 17.981 42.7723 18.061C42.8048 18.0924 42.7853 18.1794 42.7658 18.2351C42.7333 18.2351 42.73 18.0749 42.6976 18.1411L42.7138 17.9217C42.7073 18.1271 42.6098 18.1376 42.5903 18.2246C42.5871 18.061 42.6521 18.0889 42.6716 17.967C42.5416 17.9775 42.6066 17.9705 42.4766 17.981C42.3922 18.1411 42.4701 18.1898 42.4214 18.3778C42.3564 18.416 42.285 18.5622 42.2265 18.4265L42.233 18.6214C42.1063 18.7606 42.038 18.7328 41.9796 18.5309C40.9854 20.0381 41.6092 20.6717 41.6092 20.6717C41.9081 21.1277 42.1323 20.5811 42.5481 20.4628L42.5384 20.4593Z" fill="#20BB65"/>
<path d="M60.0918 19.269L60.1145 19.3526C60.1145 19.3143 60.1113 19.283 60.0918 19.269Z" fill="#20BB65"/>
<path d="M66.7539 19.621C66.7539 19.621 66.7575 19.6102 66.7611 19.603C66.7575 19.6102 66.7539 19.6138 66.7539 19.621Z" fill="#20BB65"/>
<path d="M60.9724 22.0537C60.9724 22.0537 60.9686 22.0649 60.9648 22.0762L60.9761 22.0537H60.9724Z" fill="#20BB65"/>
<path d="M59.6396 21.7542C59.9872 21.8725 60.0619 22.2554 60.4355 22.1232C60.6077 22.1649 60.7994 22.0884 60.9716 22.0536C61.069 21.7646 61.1957 22.0605 61.3029 21.8203L61.3322 21.9874C61.3679 21.9038 61.4102 21.8516 61.4394 21.9421V21.9908C61.4914 21.869 61.5434 21.9457 61.5693 21.883V21.9317L61.6246 21.9143L61.6116 21.984C61.7058 21.8552 61.7935 21.8516 61.8682 21.9178V21.7159C62.0274 21.9526 62.1087 21.5348 62.2451 21.8133V21.8621C62.4595 21.34 62.5212 22.2415 62.7454 21.7472C62.7162 21.8099 62.7519 21.8516 62.7454 21.9003C62.8396 21.8481 62.9371 21.8238 62.9598 21.427C63.0248 21.4374 63.0086 21.5558 63.0086 21.709C63.0183 21.5349 63.0768 21.4653 63.1288 21.4583L63.1028 21.5245L63.2522 21.4722L63.2392 21.1415C63.314 21.239 63.2392 21.5418 63.3172 21.4687L63.3302 21.1973C63.4342 21.2565 63.4764 21.6707 63.5706 21.8795C63.9995 22.0222 64.4998 21.3539 64.8831 21.8551L64.8896 22.0605C64.8831 22.3599 65.0228 21.6254 65.0261 21.9038L65.0813 21.7716C65.091 21.8273 65.117 21.883 65.091 21.9491C65.1333 21.963 65.1365 21.9143 65.1723 21.8273L65.208 22.0152C65.3737 22.1684 65.5361 21.8203 65.7116 21.9038C65.9097 22.2937 66.3353 21.97 66.579 21.782C66.9299 21.3539 67.258 22.5652 67.6219 22.0744C67.6316 22.1162 67.6641 22.0222 67.6641 21.9908L67.9727 22.0501C67.9727 22.0501 69.4704 22.252 68.4471 19.7144L68.4568 19.6517C68.2944 19.4846 68.1904 19.4429 68.0572 19.7631C68.0572 19.3628 67.9207 19.7144 67.8883 19.5821L67.8948 19.5508C67.7778 19.8536 67.6933 19.2827 67.5829 19.5508C67.5894 19.5194 67.5959 19.4081 67.6186 19.4046C67.5439 19.4498 67.4399 19.5334 67.4464 19.3002C67.271 19.3524 67.0338 19.2306 66.9039 19.5961L66.9136 19.5334C66.8389 19.7806 66.8291 19.5647 66.7512 19.69C66.7512 19.6587 66.7447 19.6448 66.7447 19.6309C66.6635 19.8746 66.54 19.6587 66.4815 19.7596V19.603L66.3451 19.6309L66.3938 19.6657C66.3548 20.0903 66.3028 19.3942 66.1891 19.6657C66.0982 19.6065 65.9552 20.5394 65.8707 20.3271C65.8155 20.522 65.926 20.0068 65.8513 20.1565C65.861 19.9337 65.8902 20.0207 65.8805 19.8397C65.809 19.9406 65.7798 19.6065 65.6888 19.7527L65.6953 19.5786C65.5719 19.8884 65.5004 19.3384 65.4127 19.6378C65.2925 19.7735 65.3639 19.1192 65.2275 19.4534L65.195 19.2166C65.1463 19.1748 65.1463 19.502 65.0943 19.3837C65.104 19.2375 65.0293 19.2619 65.0683 19.1226C64.9546 18.8859 64.7954 19.4359 64.6524 19.0356C64.6005 19.321 64.5257 19.1436 64.49 19.3594C64.49 19.2341 64.3243 19.328 64.4315 19.0635C64.4413 19.0426 64.4543 19.0461 64.451 19.0948L64.4705 18.9243C64.3925 18.5971 64.2886 19.0913 64.2009 19.0356C64.2269 19.0948 64.2626 19.0809 64.2334 19.1958L64.1489 19.1679L64.1749 19.0252L64.0514 18.9347L64.0612 19.1123C64.0027 19.0183 63.9962 18.7154 63.9117 18.9625C63.8727 19.1018 63.9605 19.2062 63.889 19.2549C63.811 19.1296 63.6941 18.9416 63.5869 18.8825C63.5869 19.0844 63.5576 19.074 63.5251 19.1123L63.5316 18.9382C63.4049 19.1714 63.5089 18.5553 63.3854 18.7398L63.4017 18.6179L63.3529 18.9765C63.2327 19.3141 63.3172 18.6145 63.1775 19.0774C63.223 19.0496 63.1775 19.4603 63.1288 19.3802L63.1515 19.2131C63.119 19.2479 63.106 19.3176 63.0865 19.2793C63.1093 19.1888 63.1093 19.0356 63.0606 19.0635L63.1028 18.8546L63.0021 19.1575C62.9468 18.973 62.8299 19.1923 62.8136 18.9556C62.8136 18.9556 62.6772 18.8338 62.6317 19.0879C62.6674 18.9277 62.5927 18.8651 62.6252 18.6772C62.5797 18.8547 62.4628 18.9973 62.4303 18.8024L62.44 18.7815C62.2906 18.5761 62.1509 19.0356 62.0209 18.7885C62.0177 18.9904 61.9462 18.8755 61.9527 19.1331C61.7903 19.3767 61.709 18.597 61.6116 19.3872C61.5401 19.4255 61.5401 19.1958 61.5076 19.154L61.5271 19.1123C61.3972 19.1714 61.3582 19.1749 61.2672 19.1505C61.2152 19.2236 61.1892 19.5926 61.1113 19.4986C61.147 19.3524 61.1113 19.3802 61.0788 19.3767C61.1015 19.3558 61.108 19.3002 61.0723 19.1993C61.0625 19.2445 61.0528 19.2723 61.043 19.2932C61.043 19.2827 61.043 19.2724 61.043 19.2584C60.9878 19.3072 60.9943 19.3524 61.0171 19.3733C61.0171 19.3942 61.0171 19.4255 61.0203 19.4637C60.9748 19.2723 60.8676 19.4672 60.8741 19.2166C60.7117 19.2653 60.585 19.5195 60.4485 19.61C60.442 19.4812 60.4778 19.3663 60.5167 19.3176L60.4193 19.3594C60.429 19.1714 60.4777 19.2549 60.5102 19.2201C60.416 18.9138 60.2633 19.509 60.1496 19.2236L60.1139 19.3698L60.1074 19.3454C60.1041 19.422 60.0684 19.5264 60.0489 19.5508C60.0392 19.3872 60.0684 19.1784 60.0034 19.1819C59.9612 19.0217 59.854 19.2515 59.7825 19.335C59.8182 19.3628 59.802 19.4533 59.7825 19.509C59.75 19.5125 59.7403 19.3489 59.711 19.4185L59.7208 19.1993C59.7208 19.4081 59.6233 19.4185 59.6071 19.5056C59.5973 19.342 59.6656 19.3698 59.6785 19.248C59.5486 19.2619 59.6136 19.255 59.4836 19.2689C59.4057 19.429 59.4836 19.4777 59.4414 19.6657C59.3764 19.7039 59.3114 19.8537 59.2465 19.7179L59.2595 19.9128C59.136 20.0555 59.0678 20.0311 59.0028 19.8292C58.0639 21.3643 58.7072 21.9805 58.7072 21.9805C59.0223 22.4295 59.227 21.8725 59.6331 21.7437L59.6396 21.7542Z" fill="#20BB65"/>
<path d="M77.1797 20.2539L77.2024 20.3374C77.2024 20.2992 77.1992 20.2678 77.1797 20.2539Z" fill="#20BB65"/>
<path d="M83.8535 20.6513C83.8535 20.6513 83.8571 20.6405 83.8607 20.6333C83.8571 20.6405 83.8535 20.6441 83.8535 20.6513Z" fill="#20BB65"/>
<path d="M78.0583 23.042C78.0583 23.042 78.0545 23.0533 78.0508 23.0645L78.062 23.042H78.0583Z" fill="#20BB65"/>
<path d="M76.7281 22.7358C77.0757 22.8576 77.1472 23.2406 77.5208 23.1083C77.693 23.1501 77.8847 23.0734 78.0569 23.0421C78.1543 22.7532 78.281 23.0526 78.3882 22.8124L78.4175 22.9829C78.4565 22.8994 78.4954 22.8472 78.5247 22.9377V22.9864C78.5767 22.8646 78.6287 22.9412 78.6546 22.882V22.9308L78.7099 22.9133L78.6969 22.9829C78.7911 22.8542 78.8788 22.8507 78.9535 22.9168V22.7149C79.1127 22.9516 79.1972 22.5374 79.3304 22.8124V22.8611C79.5448 22.3424 79.6065 23.244 79.8307 22.7498C79.8015 22.8124 79.834 22.8542 79.8307 22.9029C79.9249 22.8507 80.0224 22.8263 80.0451 22.4295C80.1101 22.4399 80.0906 22.5583 80.0906 22.7114C80.1004 22.5374 80.1621 22.4678 80.2141 22.4608L80.1881 22.5269L80.3375 22.4782L80.3278 22.1476C80.3992 22.2485 80.3278 22.5479 80.4058 22.4748L80.4187 22.2032C80.5227 22.2624 80.5649 22.6801 80.6559 22.8855C81.0815 23.0282 81.5883 22.3668 81.9652 22.8715L81.9717 23.0769C81.9619 23.3763 82.1081 22.6418 82.1081 22.9203L82.1633 22.788C82.1731 22.8437 82.1991 22.8994 82.1698 22.9655C82.2121 22.9794 82.2153 22.9308 82.2543 22.8437L82.29 23.0316C82.4525 23.1883 82.6182 22.8368 82.7969 22.9238C82.9918 23.3171 83.4174 22.9934 83.6675 22.8089C84.0249 22.3842 84.3368 23.5956 84.7039 23.1083C84.7136 23.1501 84.7461 23.0596 84.7494 23.0248L85.0548 23.0874C85.0548 23.0874 86.5492 23.2963 85.5616 20.7552L85.5746 20.6925C85.4154 20.522 85.3114 20.4837 85.1717 20.8004C85.1782 20.4001 85.0353 20.7517 85.0028 20.6194L85.0093 20.5882C84.8858 20.891 84.8111 20.3201 84.6941 20.5882C84.7006 20.5568 84.7104 20.4454 84.7331 20.4419C84.6584 20.4872 84.5512 20.5707 84.561 20.3375C84.3823 20.3862 84.1484 20.2644 84.0152 20.6299L84.0281 20.5673C83.9502 20.8144 83.9437 20.5986 83.8657 20.7239C83.8657 20.6925 83.8592 20.6787 83.8625 20.6647C83.778 20.9084 83.6578 20.689 83.5961 20.7935L83.6026 20.6369L83.4629 20.6647L83.5116 20.6995C83.4694 21.1241 83.4239 20.4245 83.3069 20.696C83.216 20.6368 83.0633 21.5697 82.982 21.3539C82.9236 21.5489 83.0405 21.0337 82.9625 21.1834C82.9723 20.9606 83.0015 21.0476 82.995 20.8666C82.9203 20.9675 82.8976 20.6333 82.8034 20.7761L82.8098 20.602C82.6831 20.9118 82.6182 20.3619 82.5272 20.6578C82.407 20.7935 82.4817 20.1391 82.3453 20.4698L82.3128 20.2331C82.2641 20.1913 82.2608 20.5185 82.2121 20.4002C82.2251 20.254 82.1471 20.2784 82.1893 20.1391C82.0756 19.9024 81.9132 20.4489 81.7702 20.0486C81.7182 20.334 81.6435 20.1565 81.6046 20.3688C81.6046 20.2435 81.4389 20.3375 81.5493 20.0729C81.5591 20.052 81.5721 20.0555 81.5688 20.1043L81.5883 19.9337C81.5136 19.6065 81.4064 20.1008 81.3154 20.0451C81.3414 20.1043 81.3771 20.0904 81.3479 20.2052L81.2634 20.1774L81.2894 20.0347L81.166 19.9442L81.1725 20.1217C81.114 20.0277 81.1107 19.7249 81.023 19.972C80.984 20.1113 81.0685 20.2156 81.0003 20.2644C80.9223 20.1391 80.8053 19.9477 80.7014 19.8885C80.7014 20.0869 80.6721 20.0799 80.6397 20.1182L80.6462 19.9442C80.5162 20.1774 80.6267 19.5613 80.5 19.7457L80.5162 19.6274L80.4642 19.9859C80.3408 20.3235 80.4285 19.6239 80.2888 20.0834C80.3343 20.0555 80.2888 20.4663 80.2368 20.3862L80.2596 20.2192C80.2271 20.254 80.2141 20.3201 80.1946 20.2853C80.2173 20.1948 80.2173 20.0417 80.1718 20.0695L80.2141 19.8641L80.1101 20.1669C80.0549 19.9824 79.9379 20.2018 79.9217 19.9651C79.9217 19.9651 79.7852 19.8397 79.7397 20.0973C79.7787 19.9407 79.7008 19.8711 79.7365 19.6866C79.691 19.8641 79.574 20.0068 79.5383 19.8119L79.5481 19.791C79.3986 19.5822 79.2589 20.0451 79.1257 19.7945C79.1225 19.9964 79.051 19.8815 79.0542 20.1391C78.8918 20.3828 78.8106 19.5996 78.7131 20.3897C78.6416 20.428 78.6416 20.1983 78.6092 20.1565L78.6286 20.1147C78.4987 20.1704 78.4597 20.1774 78.3655 20.1531C78.3135 20.2262 78.2875 20.5951 78.2063 20.5011C78.242 20.3549 78.2063 20.3828 78.1738 20.3793C78.1966 20.3584 78.2031 20.3027 78.1673 20.2017C78.1576 20.247 78.1478 20.2749 78.1381 20.2957C78.1381 20.2853 78.1381 20.2748 78.1381 20.2609C78.0828 20.3096 78.0894 20.3549 78.1121 20.3758C78.1121 20.3967 78.1121 20.428 78.1153 20.4698C78.0699 20.2783 77.9627 20.4698 77.9692 20.2192C77.8067 20.2679 77.68 20.5185 77.5436 20.609C77.5371 20.4767 77.5728 20.3654 77.615 20.3166L77.5176 20.3584C77.5273 20.1704 77.576 20.254 77.6085 20.2192C77.5143 19.9094 77.3616 20.5046 77.2447 20.2192L77.2089 20.3653L77.2024 20.3409C77.1992 20.4175 77.1634 20.522 77.1439 20.5463C77.1342 20.3827 77.1635 20.1739 77.0985 20.1774C77.0562 20.0172 76.949 20.247 76.8775 20.3306C76.9133 20.3619 76.897 20.4489 76.8775 20.5046C76.8451 20.5046 76.8353 20.3445 76.8061 20.4141L76.8158 20.1948C76.8158 20.4036 76.7184 20.4106 76.7021 20.5011C76.6924 20.3375 76.7606 20.3654 76.7736 20.2436C76.6436 20.254 76.7086 20.2505 76.5787 20.2609C76.5007 20.421 76.5787 20.4698 76.5364 20.6578C76.4714 20.696 76.4065 20.8457 76.3415 20.7099L76.3545 20.9049C76.231 21.0476 76.1628 21.0232 76.0978 20.8213C75.1622 22.3494 75.8054 22.9725 75.8054 22.9725C76.1206 23.425 76.322 22.8681 76.7314 22.7428L76.7281 22.7358Z" fill="#20BB65"/>
<path d="M94.2852 21.5278L94.3046 21.6114C94.3046 21.5731 94.3046 21.5418 94.2852 21.5278Z" fill="#20BB65"/>
<path d="M100.951 22.228C100.951 22.228 100.955 22.2172 100.962 22.21C100.955 22.2172 100.955 22.2208 100.951 22.228Z" fill="#20BB65"/>
<path d="M95.0718 24.3579C95.0718 24.3579 95.0643 24.3692 95.0605 24.3804L95.0718 24.3579Z" fill="#20BB65"/>
<path d="M93.7586 23.9922C94.0998 24.128 94.1614 24.5144 94.5351 24.3995C94.704 24.4483 94.8957 24.3821 95.0679 24.3542C95.1751 24.0688 95.2888 24.3752 95.4058 24.1385L95.4285 24.309C95.4675 24.229 95.513 24.1767 95.5357 24.2707L95.5292 24.3195C95.5877 24.1977 95.6364 24.2812 95.6689 24.2185L95.6624 24.2672L95.7241 24.2533L95.7079 24.323C95.8054 24.1977 95.8931 24.2011 95.9645 24.2672L95.9775 24.0654C96.1237 24.309 96.2212 23.8982 96.3447 24.1802L96.3382 24.229C96.5753 23.7208 96.6013 24.6223 96.845 24.142C96.8157 24.2011 96.845 24.2464 96.8385 24.2951C96.9327 24.2464 97.0334 24.2289 97.0691 23.8321C97.1341 23.846 97.1114 23.9609 97.1049 24.1141C97.1211 23.94 97.1828 23.8739 97.2381 23.8704L97.2088 23.9331L97.3615 23.8913V23.5606C97.433 23.6615 97.3453 23.961 97.4265 23.8913L97.4525 23.6198C97.5532 23.686 97.5792 24.1002 97.6636 24.3125C98.0827 24.4761 98.6155 23.8356 98.9664 24.3542V24.5596C98.9404 24.8555 99.1191 24.1315 99.1061 24.41L99.1678 24.2812C99.1743 24.3368 99.1971 24.396 99.1678 24.4587C99.2101 24.4761 99.2166 24.4273 99.2556 24.3403L99.2816 24.5283C99.4375 24.6919 99.6194 24.3508 99.7884 24.4413C99.9638 24.8416 100.406 24.5387 100.659 24.3647C101.036 23.9574 101.289 25.1792 101.679 24.7093C101.686 24.7511 101.725 24.6606 101.728 24.6258L102.03 24.7023C102.03 24.7023 103.511 24.9774 102.654 22.398L102.67 22.3353C102.517 22.1613 102.417 22.1126 102.261 22.4258C102.287 22.0255 102.128 22.3702 102.102 22.2379L102.108 22.2066C101.972 22.5025 101.923 21.9281 101.793 22.1926C101.799 22.1613 101.816 22.0534 101.838 22.05C101.76 22.0917 101.65 22.1683 101.673 21.9385C101.491 21.9803 101.26 21.848 101.111 22.2031L101.124 22.1405C101.033 22.3841 101.039 22.1683 100.951 22.2866C100.951 22.2553 100.948 22.2414 100.951 22.2275C100.857 22.4677 100.747 22.2448 100.679 22.3423L100.692 22.1892L100.552 22.2101L100.601 22.2483C100.539 22.6695 100.526 21.9699 100.396 22.2345C100.308 22.1718 100.113 23.0942 100.039 22.8749C99.9703 23.0698 100.113 22.5581 100.029 22.7008C100.048 22.4781 100.074 22.5651 100.078 22.3876C99.9995 22.4851 99.9898 22.1509 99.8923 22.2901L99.9053 22.1161C99.7624 22.4189 99.7234 21.8655 99.6194 22.1579C99.4927 22.2867 99.5967 21.6392 99.444 21.9629L99.4213 21.7262C99.3758 21.6844 99.3563 22.0082 99.3108 21.8899C99.3303 21.7437 99.2523 21.7645 99.2978 21.6288C99.1938 21.3851 99.0086 21.9281 98.8819 21.5209C98.817 21.8028 98.752 21.6218 98.7033 21.8341C98.7098 21.7088 98.5376 21.7959 98.6578 21.5348C98.6675 21.5139 98.6805 21.5208 98.6773 21.5661L98.7065 21.399C98.6448 21.0683 98.5181 21.5556 98.4271 21.4965C98.4499 21.5556 98.4889 21.5452 98.4531 21.6601L98.3687 21.6288L98.4011 21.4895L98.2809 21.392V21.5696C98.2257 21.4721 98.2355 21.1693 98.138 21.4129C98.0925 21.5487 98.1737 21.6566 98.1023 21.7054C98.0308 21.5766 97.9203 21.3816 97.8164 21.3155C97.8066 21.5139 97.7806 21.5035 97.7449 21.5418L97.7579 21.3677C97.6214 21.594 97.7514 20.9848 97.6182 21.1623L97.6409 21.0439L97.576 21.4025C97.4395 21.7332 97.5532 21.037 97.3973 21.493C97.446 21.4686 97.381 21.8759 97.3355 21.7959L97.3648 21.6323C97.3323 21.6636 97.3128 21.7332 97.2965 21.6949C97.3225 21.6079 97.329 21.4547 97.2803 21.4791L97.3291 21.2737L97.2153 21.5696C97.1666 21.3851 97.0399 21.5975 97.0367 21.3573C97.0367 21.3573 96.9067 21.2284 96.8482 21.4791C96.8904 21.3224 96.819 21.2528 96.858 21.0683C96.806 21.2459 96.6825 21.3816 96.6565 21.1832L96.6663 21.1623C96.5233 20.9465 96.3674 21.4025 96.2439 21.1484C96.2309 21.3503 96.166 21.2319 96.1627 21.4895C95.9905 21.7262 95.9353 20.9395 95.8119 21.7262C95.7404 21.761 95.7469 21.5313 95.7176 21.486L95.7371 21.4478C95.6039 21.5 95.5682 21.5034 95.474 21.4721C95.4187 21.5452 95.3797 21.9107 95.305 21.8132C95.344 21.6705 95.305 21.6949 95.2758 21.6914C95.2985 21.6705 95.3083 21.6183 95.2758 21.5139C95.266 21.5591 95.2531 21.587 95.2433 21.6079C95.2433 21.5974 95.2433 21.587 95.2433 21.573C95.1848 21.6183 95.1913 21.6671 95.2141 21.6879C95.2141 21.7088 95.2108 21.7402 95.2141 21.7819C95.1751 21.587 95.0614 21.7785 95.0744 21.5278C94.9119 21.5696 94.7755 21.8167 94.6358 21.9002C94.6325 21.7679 94.6715 21.6566 94.7138 21.6114L94.6163 21.6496C94.6325 21.4651 94.678 21.5487 94.7105 21.5139C94.626 21.2006 94.4539 21.7889 94.3466 21.5L94.3077 21.6426L94.3012 21.6183C94.2947 21.6949 94.2557 21.7993 94.2362 21.8202C94.2297 21.6566 94.2687 21.4478 94.2037 21.4513C94.1647 21.2911 94.051 21.5139 93.9763 21.5939C94.0088 21.6253 93.9925 21.7123 93.9698 21.768C93.9373 21.768 93.9308 21.6044 93.9016 21.674L93.9178 21.4547C93.9146 21.6636 93.8139 21.667 93.7944 21.7541C93.7879 21.5905 93.8561 21.6218 93.8756 21.5C93.7456 21.5069 93.8106 21.5 93.6774 21.5104C93.5962 21.667 93.6742 21.7192 93.6254 21.9072C93.5604 21.942 93.489 22.0882 93.4305 21.949L93.437 22.1439C93.3103 22.2832 93.2421 22.2518 93.1836 22.0465C92.2057 23.5328 92.8327 24.1872 92.8327 24.1872C93.1316 24.6536 93.3493 24.1071 93.7586 23.9992V23.9922Z" fill="#20BB65"/>
<path d="M111.348 23.8044L111.361 23.888C111.367 23.8497 111.364 23.8184 111.348 23.8044Z" fill="#20BB65"/>
<path d="M117.945 25.246C117.945 25.246 117.953 25.2352 117.956 25.228C117.949 25.2316 117.945 25.2388 117.945 25.246Z" fill="#20BB65"/>
<path d="M111.898 26.6831C111.898 26.6831 111.89 26.6938 111.887 26.701L111.901 26.6831H111.898Z" fill="#20BB65"/>
<path d="M110.627 26.2131C110.955 26.3732 110.984 26.7631 111.364 26.6795C111.53 26.7422 111.725 26.6934 111.897 26.6795C112.027 26.4045 112.114 26.7178 112.251 26.495L112.257 26.6656C112.303 26.589 112.352 26.5403 112.368 26.6377L112.358 26.6864C112.426 26.5715 112.469 26.6586 112.504 26.5994L112.495 26.6482L112.556 26.6377L112.534 26.7038C112.641 26.589 112.728 26.5995 112.793 26.6726L112.823 26.4741C112.943 26.7282 113.079 26.3314 113.177 26.6238L113.167 26.6726C113.45 26.1887 113.391 27.0902 113.674 26.6342C113.638 26.6899 113.664 26.7386 113.654 26.7874C113.752 26.7491 113.853 26.7421 113.927 26.3523C113.989 26.3731 113.957 26.4846 113.937 26.6377C113.97 26.4672 114.038 26.408 114.09 26.408L114.054 26.4672L114.207 26.4393L114.239 26.1121C114.298 26.22 114.184 26.5089 114.272 26.4463L114.324 26.1782C114.418 26.2548 114.402 26.6725 114.463 26.8918C114.86 27.1007 115.451 26.5263 115.743 27.0868L115.717 27.2922C115.665 27.5846 115.916 26.8849 115.873 27.1598L115.948 27.038C115.948 27.0937 115.964 27.1563 115.929 27.2155C115.968 27.2364 115.981 27.1912 116.029 27.1077L116.036 27.299C116.172 27.48 116.387 27.1668 116.546 27.2782C116.672 27.6994 117.14 27.4592 117.41 27.3234C117.829 26.9719 117.927 28.2249 118.365 27.8177C118.365 27.8629 118.414 27.7759 118.424 27.7446L118.71 27.8665C118.71 27.8665 119.06 27.9953 119.35 27.7899C119.639 27.581 119.879 27.0415 119.622 25.6875L119.645 25.6283C119.518 25.4264 119.421 25.3637 119.226 25.6491C119.304 25.2558 119.099 25.5726 119.09 25.4334L119.103 25.402C118.93 25.6735 118.953 25.0957 118.791 25.3359C118.8 25.3046 118.83 25.2002 118.852 25.2002C118.768 25.2315 118.651 25.2906 118.7 25.0609C118.515 25.0748 118.3 24.9042 118.108 25.2384L118.131 25.1793C118.014 25.4055 118.044 25.1931 117.943 25.301C117.943 25.2697 117.943 25.2523 117.949 25.2419C117.826 25.4647 117.741 25.228 117.663 25.315L117.693 25.1618H117.55L117.592 25.207C117.481 25.6178 117.546 24.9217 117.391 25.1653C117.309 25.0887 117.014 25.9798 116.965 25.7536C116.877 25.9381 117.075 25.4473 116.975 25.5795C117.02 25.3637 117.036 25.4508 117.056 25.2732C116.968 25.3603 116.994 25.0261 116.88 25.1514L116.913 24.9808C116.737 25.2628 116.757 24.7093 116.624 24.9843C116.484 25.0957 116.656 24.4657 116.471 24.7651V24.5248C116.432 24.4761 116.38 24.7964 116.348 24.6711C116.38 24.5284 116.302 24.5388 116.364 24.41C116.286 24.1559 116.045 24.671 115.958 24.2498C115.864 24.5213 115.815 24.3369 115.747 24.5388C115.766 24.4169 115.584 24.4796 115.73 24.236C115.743 24.2151 115.756 24.222 115.747 24.2707L115.792 24.1071C115.763 23.773 115.587 24.2394 115.503 24.1698C115.519 24.2324 115.558 24.2255 115.513 24.3334L115.431 24.2916L115.477 24.1559L115.363 24.0445L115.347 24.222C115.302 24.1176 115.337 23.8182 115.217 24.048C115.159 24.1768 115.23 24.2951 115.152 24.3334C115.09 24.1977 114.999 23.9888 114.902 23.9122C114.873 24.1106 114.847 24.0967 114.808 24.128L114.837 23.9575C114.678 24.1663 114.866 23.5745 114.717 23.7381L114.749 23.6233L114.652 23.9714C114.486 24.2847 114.665 23.6059 114.463 24.041C114.515 24.0201 114.411 24.4205 114.372 24.3334L114.418 24.1732C114.382 24.2011 114.356 24.2673 114.343 24.229C114.379 24.1455 114.398 23.9923 114.346 24.0097L114.415 23.8113L114.272 24.0932C114.239 23.9017 114.093 24.1002 114.109 23.8635C114.109 23.8635 113.989 23.7208 113.911 23.9644C113.97 23.8148 113.901 23.7381 113.96 23.5571C113.892 23.7277 113.755 23.8495 113.745 23.6511L113.758 23.6303C113.635 23.404 113.437 23.8391 113.336 23.5711C113.307 23.7695 113.252 23.6476 113.222 23.9017C113.031 24.121 113.044 23.3344 112.852 24.1036C112.777 24.1315 112.803 23.9053 112.777 23.8565L112.8 23.8182C112.664 23.8565 112.625 23.8565 112.534 23.8182C112.472 23.8843 112.404 24.2464 112.335 24.142C112.387 24.0027 112.348 24.0236 112.316 24.0166C112.339 23.9992 112.355 23.947 112.332 23.8426C112.319 23.8878 112.306 23.9122 112.293 23.9331C112.293 23.9226 112.293 23.9123 112.3 23.8983C112.238 23.9401 112.241 23.9853 112.261 24.0097C112.254 24.0305 112.254 24.0584 112.254 24.1002C112.231 23.9018 112.101 24.0828 112.137 23.8321C111.968 23.86 111.812 24.0932 111.666 24.1628C111.673 24.0305 111.721 23.9262 111.77 23.8844L111.669 23.9122C111.702 23.7277 111.741 23.8182 111.777 23.7869C111.715 23.4702 111.497 24.041 111.413 23.7416L111.361 23.8809V23.8565C111.344 23.9331 111.299 24.0341 111.276 24.055C111.283 23.8914 111.338 23.686 111.273 23.6825C111.247 23.5189 111.117 23.7312 111.036 23.8078C111.068 23.8426 111.042 23.9297 111.016 23.9819C110.984 23.9819 110.99 23.8183 110.955 23.8809L110.987 23.6651C110.968 23.8704 110.867 23.8705 110.841 23.954C110.847 23.7904 110.912 23.8252 110.942 23.7069C110.808 23.7034 110.877 23.7069 110.743 23.6999C110.649 23.8496 110.724 23.9052 110.659 24.0897C110.591 24.121 110.51 24.2603 110.461 24.1176L110.451 24.3125C110.315 24.4413 110.25 24.4065 110.204 24.1976C109.116 25.6109 109.691 26.3036 109.691 26.3036C109.954 26.7874 110.211 26.2583 110.627 26.1817V26.2131Z" fill="#20BB65"/>
<path d="M128.005 28.8516L127.998 28.9386C128.012 28.9038 128.019 28.8724 128.005 28.8516Z" fill="#20BB65"/>
<path d="M133.957 32.5728C133.957 32.5728 133.967 32.5692 133.974 32.562C133.967 32.562 133.96 32.5692 133.957 32.5728Z" fill="#20BB65"/>
<path d="M127.843 31.7859C127.843 31.7859 127.833 31.7967 127.83 31.8003L127.847 31.7859H127.843Z" fill="#20BB65"/>
<path d="M126.757 31.0027C127.034 31.2394 126.965 31.6258 127.342 31.6432C127.482 31.7442 127.674 31.7511 127.839 31.7859C128.031 31.5562 128.034 31.8834 128.219 31.7024L128.18 31.8694C128.242 31.8103 128.301 31.7755 128.291 31.8694L128.268 31.9112C128.362 31.8207 128.379 31.9112 128.427 31.8694L128.405 31.9112L128.466 31.9181L128.427 31.9739C128.557 31.8938 128.639 31.9286 128.677 32.0191L128.759 31.8381C128.804 32.1166 129.038 31.7789 129.048 32.0852L129.025 32.127C129.421 31.7511 129.119 32.59 129.509 32.2454C129.46 32.2872 129.47 32.3428 129.447 32.3846C129.548 32.3811 129.642 32.402 129.828 32.0574C129.88 32.0957 129.815 32.1932 129.753 32.3289C129.834 32.1758 129.915 32.1445 129.964 32.1619L129.912 32.2071L130.065 32.2315L130.195 31.9321C130.217 32.0539 130.026 32.2871 130.126 32.2593L130.253 32.0226C130.318 32.127 130.178 32.5169 130.169 32.7431C130.464 33.0634 131.195 32.7362 131.273 33.3697L131.182 33.5507C131.033 33.8048 131.501 33.2443 131.367 33.4845L131.475 33.3975C131.458 33.4497 131.449 33.5124 131.397 33.5542C131.426 33.589 131.452 33.5472 131.523 33.4915L131.462 33.6725C131.517 33.8918 131.822 33.6829 131.923 33.8465C131.884 34.2816 132.381 34.2399 132.673 34.233C133.187 34.0937 132.764 35.2598 133.307 35.0857C133.288 35.124 133.366 35.0718 133.388 35.0474L133.58 35.2877C133.58 35.2877 133.642 35.3538 133.746 35.4164C133.846 35.4791 133.989 35.5383 134.161 35.5209C134.496 35.4756 134.974 35.1484 135.334 33.8083L135.38 33.7665C135.351 33.5159 135.286 33.4114 134.99 33.5646C135.224 33.2513 134.905 33.4288 134.954 33.3035L134.977 33.2827C134.707 33.4358 134.964 32.9276 134.714 33.0668C134.736 33.0459 134.805 32.9624 134.827 32.9763C134.736 32.9624 134.603 32.959 134.74 32.7745C134.561 32.6944 134.425 32.4333 134.116 32.6491L134.158 32.6039C133.96 32.757 134.067 32.576 133.937 32.6282C133.95 32.6004 133.957 32.5865 133.963 32.5761C133.765 32.7257 133.775 32.4647 133.668 32.5134L133.752 32.3881L133.616 32.3255L133.642 32.3846C133.388 32.7118 133.703 32.1026 133.466 32.2558C133.417 32.1479 132.82 32.844 132.855 32.6143C132.709 32.7466 133.067 32.3776 132.924 32.4577C133.044 32.2767 133.028 32.3637 133.109 32.2106C132.995 32.2523 133.138 31.9564 132.985 32.0226L133.076 31.8799C132.813 32.0679 133.021 31.5596 132.8 31.7615C132.628 31.8068 133.008 31.2881 132.725 31.4935L132.807 31.2707C132.784 31.2081 132.625 31.4866 132.638 31.3578C132.719 31.2359 132.638 31.2151 132.738 31.1211C132.745 30.8496 132.349 31.2359 132.397 30.8078C132.222 31.0271 132.232 30.8356 132.102 30.9992C132.16 30.8913 131.962 30.8809 132.183 30.7103C132.202 30.6964 132.212 30.7103 132.186 30.7486L132.28 30.6128C132.355 30.2821 132.037 30.6581 131.981 30.5606C131.981 30.6268 132.017 30.6337 131.939 30.7207L131.874 30.6477L131.962 30.5362L131.887 30.3866L131.816 30.5467C131.803 30.4318 131.93 30.1604 131.741 30.3344C131.644 30.4354 131.679 30.5746 131.592 30.5815C131.575 30.4284 131.546 30.1986 131.475 30.0907C131.39 30.2682 131.368 30.2473 131.322 30.2647L131.4 30.1116C131.182 30.2543 131.54 29.7566 131.348 29.8575L131.413 29.76L131.215 30.0559C130.961 30.2961 131.332 29.7113 131.01 30.0559C131.065 30.0559 130.854 30.4005 130.838 30.3031L130.929 30.1639C130.883 30.1778 130.844 30.2334 130.841 30.1916C130.9 30.122 130.961 29.9863 130.906 29.9863L131.03 29.8192L130.812 30.042C130.835 29.8505 130.636 29.9898 130.718 29.767C130.718 29.767 130.64 29.5895 130.494 29.7984C130.591 29.673 130.546 29.5756 130.649 29.4224C130.536 29.5616 130.37 29.6347 130.412 29.4433L130.429 29.4294C130.367 29.1683 130.058 29.5198 130.026 29.2344C129.944 29.4154 129.922 29.2797 129.828 29.5199C129.584 29.6695 129.795 28.9177 129.412 29.5964C129.331 29.5999 129.415 29.3911 129.402 29.3354L129.434 29.3075C129.292 29.3005 129.253 29.2901 129.171 29.2274C129.097 29.2727 128.937 29.6034 128.895 29.4815C128.98 29.3632 128.937 29.3702 128.908 29.3563C128.937 29.3458 128.963 29.3006 128.967 29.1927C128.944 29.231 128.924 29.2519 128.905 29.2693C128.908 29.2588 128.911 29.2483 128.918 29.2344C128.846 29.2553 128.837 29.3006 128.853 29.3319C128.843 29.3528 128.833 29.3771 128.824 29.4189C128.85 29.2205 128.677 29.3562 128.772 29.1265C128.603 29.1021 128.392 29.2866 128.232 29.3145C128.268 29.1892 128.343 29.0987 128.398 29.0708H128.291C128.366 28.9003 128.382 28.9977 128.424 28.9768C128.437 28.6496 128.093 29.1439 128.076 28.8307L127.995 28.9524V28.9281C127.969 28.9978 127.901 29.0813 127.872 29.0952C127.917 28.9386 128.018 28.7541 127.953 28.7332C127.966 28.5661 127.787 28.7401 127.69 28.7923C127.713 28.8341 127.667 28.9107 127.631 28.9559C127.599 28.9455 127.644 28.7889 127.592 28.8446L127.674 28.6427C127.609 28.8376 127.511 28.8098 127.466 28.8863C127.508 28.7297 127.566 28.7819 127.618 28.6706C127.488 28.6323 127.553 28.6496 127.423 28.6113C127.297 28.7332 127.358 28.8063 127.255 28.9699C127.183 28.9838 127.069 29.0952 127.053 28.9456L127.001 29.1335C126.839 29.224 126.783 29.1752 126.783 28.9629C126.101 29.5164 125.874 30.0002 125.806 30.3448C125.741 30.6859 125.838 30.8878 125.838 30.8878C125.981 31.4169 126.338 30.9644 126.751 30.9957L126.757 31.0027Z" fill="#20BB65"/>
<path d="M139.703 41.5291L139.635 41.5639C139.667 41.5535 139.696 41.543 139.703 41.5291Z" fill="#20BB65"/>
<path d="M137.402 42.0163C137.353 42.1973 137.019 42.3295 137.194 42.4479C137.181 42.5314 137.279 42.5906 137.337 42.6568C137.613 42.6289 137.36 42.7542 137.594 42.7473L137.444 42.7995C137.525 42.7995 137.581 42.7995 137.499 42.8343L137.454 42.8448C137.574 42.8448 137.509 42.8795 137.571 42.8795L137.525 42.8865L137.551 42.9074L137.486 42.9178C137.616 42.9318 137.629 42.9701 137.581 43.0153L137.766 42.9735C137.571 43.0884 137.961 43.0431 137.727 43.158L137.681 43.165C138.185 43.165 137.37 43.3599 137.847 43.3669C137.789 43.3669 137.753 43.3877 137.707 43.3947C137.766 43.426 137.802 43.4678 138.169 43.4086C138.169 43.4399 138.058 43.4505 137.915 43.4783C138.074 43.4539 138.146 43.4678 138.159 43.4922H138.094L138.159 43.5514L138.461 43.4922C138.38 43.5444 138.091 43.5583 138.172 43.5827L138.422 43.5444C138.38 43.6036 138.003 43.6871 137.821 43.7602C137.737 43.969 138.403 44.1187 137.974 44.3519L137.785 44.3763C137.509 44.4041 138.201 44.3903 137.945 44.4216L138.074 44.432C138.026 44.4425 137.974 44.4598 137.909 44.4529C137.899 44.4738 137.945 44.4703 138.029 44.4773L137.857 44.5121C137.73 44.5991 138.065 44.6443 138.003 44.7348C137.655 44.8567 137.987 45.0238 138.182 45.1317C138.601 45.2814 137.496 45.4798 137.971 45.6329C137.932 45.6364 138.019 45.6503 138.052 45.6503L138.013 45.7965C138.013 45.7965 137.984 45.9706 138.243 46.0889C138.503 46.2038 139.052 46.2908 140.212 46.0158L140.274 46.0227C140.423 45.9357 140.459 45.8766 140.15 45.807C140.524 45.8 140.189 45.7304 140.31 45.713H140.339C140.05 45.6573 140.579 45.5981 140.323 45.5459C140.352 45.5459 140.456 45.5459 140.462 45.5598C140.417 45.5216 140.332 45.4658 140.55 45.4624C140.492 45.3684 140.589 45.2326 140.241 45.1804H140.303C140.069 45.156 140.267 45.1386 140.147 45.1038C140.176 45.1038 140.189 45.0969 140.202 45.0969C139.969 45.0655 140.163 44.9889 140.063 44.9645L140.206 44.9577L140.17 44.8845L140.141 44.9124C139.744 44.9193 140.388 44.8462 140.128 44.8044C140.176 44.7487 139.296 44.7488 139.488 44.6861C139.299 44.6722 139.79 44.6861 139.647 44.6618C139.855 44.6478 139.777 44.6722 139.943 44.6513C139.842 44.62 140.15 44.5782 140.008 44.5434L140.17 44.5294C139.871 44.4911 140.375 44.4042 140.092 44.3833C139.956 44.3345 140.566 44.3032 140.248 44.2649L140.466 44.2232C140.498 44.1918 140.196 44.2231 140.3 44.1883C140.436 44.1779 140.407 44.1396 140.537 44.1466C140.748 44.0561 140.222 44.0352 140.576 43.9064C140.306 43.9134 140.462 43.8507 140.261 43.8577C140.378 43.8437 140.271 43.7637 140.527 43.7881C140.547 43.7881 140.547 43.7985 140.501 43.802L140.661 43.7915C140.953 43.7045 140.488 43.7149 140.527 43.6557C140.475 43.6766 140.492 43.6975 140.384 43.6941L140.401 43.6454L140.534 43.6384L140.602 43.5584L140.44 43.5896C140.521 43.5444 140.797 43.4956 140.56 43.4852C140.427 43.4852 140.342 43.5479 140.287 43.5165C140.394 43.4574 140.557 43.3634 140.596 43.2938C140.41 43.3251 140.417 43.3077 140.378 43.2973L140.537 43.2729C140.306 43.2416 140.888 43.1963 140.7 43.1615L140.813 43.151L140.475 43.1859C140.15 43.1789 140.803 43.1023 140.362 43.1093C140.391 43.1302 140.011 43.1754 140.076 43.1336L140.232 43.1163C140.196 43.1058 140.131 43.1093 140.163 43.0919C140.248 43.0919 140.388 43.0606 140.358 43.0397L140.553 43.0258H140.264C140.423 42.9596 140.209 42.9387 140.423 42.8865C140.423 42.8865 140.518 42.789 140.277 42.8134C140.427 42.803 140.479 42.7508 140.654 42.7299C140.485 42.7403 140.339 42.7055 140.511 42.6463H140.531C140.7 42.521 140.254 42.5419 140.462 42.4201C140.277 42.4619 140.371 42.3992 140.137 42.4583C139.891 42.427 140.589 42.2078 139.858 42.3366C139.813 42.3087 140.021 42.2565 140.053 42.2286H140.092C140.021 42.173 140.008 42.1555 140.014 42.0998C139.939 42.0894 139.601 42.1659 139.673 42.0998C139.809 42.0824 139.78 42.072 139.777 42.0546C139.8 42.0616 139.852 42.0546 139.936 42.0093C139.894 42.0163 139.868 42.0163 139.845 42.0163C139.855 42.0163 139.865 42.0128 139.878 42.0093C139.826 41.9919 139.783 42.0093 139.767 42.0232C139.748 42.0267 139.722 42.0337 139.686 42.0476C139.852 41.978 139.657 41.9711 139.884 41.9119C139.813 41.8388 139.562 41.8388 139.458 41.7935C139.575 41.7552 139.683 41.7448 139.731 41.7517L139.676 41.7135C139.845 41.6682 139.78 41.7135 139.816 41.7239C140.076 41.5917 139.514 41.6752 139.748 41.5394L139.611 41.5603L139.634 41.5499C139.562 41.5708 139.465 41.5812 139.439 41.5777C139.582 41.5255 139.777 41.4837 139.761 41.4524C139.894 41.3863 139.673 41.3933 139.582 41.3828C139.562 41.4072 139.478 41.4246 139.426 41.4315C139.416 41.4176 139.559 41.3654 139.494 41.3689L139.692 41.3097C139.507 41.3723 139.481 41.3236 139.397 41.341C139.54 41.2888 139.53 41.3306 139.64 41.3028C139.605 41.2401 139.621 41.2714 139.585 41.2088C139.426 41.2192 139.4 41.2714 139.225 41.3062C139.179 41.2853 139.033 41.2992 139.143 41.2261L138.971 41.2923C138.822 41.2784 138.831 41.2366 138.997 41.1426C138.227 41.16 137.743 41.3132 137.444 41.442C137.145 41.5742 137.038 41.6891 137.038 41.6891C136.694 41.9571 137.22 41.8631 137.402 42.0023V42.0163Z" fill="#20BB65"/>
<path d="M130.932 47.5227C131.016 47.5854 131.104 47.4392 131.078 47.4636C131.052 47.4044 130.958 47.5157 130.932 47.5227Z" fill="#00B14F"/>
<path d="M132.341 49.5146C132.321 49.6214 132.275 49.4362 132.341 49.5146Z" fill="#00B14F"/>
<path d="M133.05 50.5966C133.092 50.5723 133.128 50.4748 133.17 50.4226L133.066 50.3809C133.066 50.4435 133.102 50.5409 133.047 50.5966H133.05Z" fill="#00B14F"/>
<path d="M133.172 50.4226L133.325 50.4852C133.256 50.3739 133.208 50.3808 133.172 50.4226Z" fill="#00B14F"/>
<path d="M133.378 51.0525L133.238 51.0595L133.462 51.0664L133.378 51.0525Z" fill="#00B14F"/>
<path d="M133.612 51.3379C133.502 51.3518 133.538 51.5119 133.453 51.498C133.525 51.5676 133.642 51.585 133.746 51.599C133.664 51.5607 133.622 51.4806 133.616 51.3379H133.612Z" fill="#00B14F"/>
<path d="M133.903 51.6302C133.861 51.6128 133.803 51.6059 133.744 51.5955C133.786 51.6163 133.838 51.6302 133.903 51.6302Z" fill="#00B14F"/>
<path d="M133.41 50.8889L133.485 50.7496C133.485 50.7496 133.462 50.7183 133.452 50.7009C133.436 50.7288 133.387 50.7984 133.41 50.8854V50.8889Z" fill="#00B14F"/>
<path d="M133.488 50.7461C133.521 50.8053 133.547 50.8401 133.557 50.8575C133.547 50.8436 133.527 50.8122 133.492 50.7461H133.488Z" fill="#00B14F"/>
<path d="M133.445 50.6907L133.457 50.7023C133.457 50.7023 133.468 50.6792 133.445 50.6907Z" fill="#00B14F"/>
<path d="M133.365 50.4467L133.541 50.5163L133.472 50.3701C133.446 50.398 133.42 50.4536 133.365 50.4467Z" fill="#00B14F"/>
<path d="M133.617 50.5512L133.539 50.5164L133.562 50.572L133.617 50.5512Z" fill="#00B14F"/>
<path d="M133.848 51.331C133.936 51.3449 133.981 51.4005 134.04 51.4597C134.007 51.3692 133.965 51.2857 133.913 51.2161C133.871 51.2335 133.786 51.2544 133.848 51.331Z" fill="#00B14F"/>
<path d="M133.684 51.0387L133.7 51.0459C133.7 51.0459 133.7 51.0207 133.684 51.0387Z" fill="#00B14F"/>
<path d="M134.52 52.1187C134.52 52.1187 134.53 52.1006 134.534 52.0898L134.514 52.1043L134.524 52.1187H134.52Z" fill="#00B14F"/>
<path d="M133.922 51.188C133.903 51.1149 133.854 51.108 133.799 51.1045C133.838 51.1358 133.877 51.1707 133.913 51.2159C133.932 51.2089 133.942 51.1985 133.925 51.188H133.922Z" fill="#00B14F"/>
<path d="M134.09 51.7695C134.09 51.7207 134.09 51.6754 134.08 51.6267C134.067 51.6824 134.054 51.7834 134.09 51.7695Z" fill="#00B14F"/>
<path d="M133.681 51.0872H133.67C133.66 51.1247 133.67 51.1097 133.681 51.0872Z" fill="#00B14F"/>
<path d="M133.68 51.0872C133.715 51.1011 133.758 51.1011 133.8 51.1011C133.767 51.0768 133.732 51.0559 133.696 51.042C133.696 51.0559 133.686 51.0733 133.68 51.0837V51.0872Z" fill="#00B14F"/>
<path d="M134.372 51.846L134.323 51.8042C134.349 51.8773 134.339 51.9539 134.316 52.0966C134.427 52.1384 134.479 52.1245 134.518 52.1036L134.349 51.8425H134.378L134.372 51.846Z" fill="#00B14F"/>
<path d="M134.483 52.1873L134.35 52.2603L134.597 52.236L134.483 52.1873Z" fill="#00B14F"/>
<path d="M134.582 52.5146L134.693 52.532L134.689 52.438L134.582 52.5146Z" fill="#00B14F"/>
<path d="M140.551 57.022C140.726 56.9941 140.993 56.9594 140.876 56.8689L140.746 56.8027C140.687 56.9211 140.619 56.9872 140.554 57.022H140.551Z" fill="#00B14F"/>
<path d="M136.697 55.0798C136.707 55.1912 136.733 55.2643 136.766 55.32C136.766 55.1773 136.804 55.0241 136.697 55.0798Z" fill="#00B14F"/>
<path d="M147.156 48.1325C147.162 48.0798 147.139 48.0587 147.097 48.0658C147.087 48.1185 147.1 48.1501 147.156 48.1325Z" fill="#00B14F"/>
<path d="M136.766 55.3235C136.766 55.4279 136.795 55.5288 136.925 55.5393C136.925 55.5184 136.925 55.501 136.925 55.4766C136.866 55.4383 136.811 55.3966 136.769 55.3235H136.766Z" fill="#00B14F"/>
<path d="M132.525 46.2453C132.555 46.2349 132.6 46.2349 132.646 46.2349C132.623 46.2244 132.587 46.2245 132.525 46.2453Z" fill="#00B14F"/>
<path d="M135.416 53.5317C135.396 53.5317 135.366 53.4813 135.416 53.5317Z" fill="#00B14F"/>
<path d="M135.402 53.4055C135.402 53.4368 135.409 53.4717 135.422 53.503C135.422 53.4856 135.415 53.4542 135.402 53.4055Z" fill="#00B14F"/>
<path d="M135.36 53.4618C135.35 53.4372 135.343 53.4197 135.333 53.4021C135.31 53.4091 135.304 53.4267 135.36 53.4618Z" fill="#00B14F"/>
<path d="M135.475 53.6039C135.449 53.5726 135.433 53.5412 135.42 53.5029C135.42 53.5203 135.42 53.5307 135.41 53.5307C135.423 53.5446 135.443 53.5656 135.472 53.6039H135.475Z" fill="#00B14F"/>
<path d="M147.88 46.388L147.99 46.3359C147.672 46.2976 147.334 46.4229 147.039 46.5482C147.013 46.5134 147.139 46.4612 147.185 46.4368C146.821 46.3254 146.665 46.3498 146.018 46.6074L146.129 46.4368C146.028 46.4856 145.905 46.4194 145.694 46.3603C145.489 46.3046 145.18 46.2593 144.891 46.3603C144.901 46.3394 144.92 46.308 144.969 46.2837C144.803 46.3324 144.647 46.3289 144.479 46.301C144.362 46.2732 144.254 46.228 144.15 46.1932C143.942 46.1236 143.767 46.1096 143.692 46.4229L143.429 46.576C143.77 46.6282 143.377 46.8476 143.517 46.952C143.384 46.9868 143.173 46.7606 143.335 46.7292L143.361 46.7605C143.423 46.4333 142.939 46.6422 142.948 46.4194C142.276 46.4298 141.623 46.2453 140.996 46.2245L141.067 46.4785L140.85 46.4612C140.791 46.402 140.775 46.2628 140.931 46.2732C140.85 46.127 140.668 46.3916 140.664 46.4473C140.359 46.3428 140.785 46.1514 140.694 46.1444L140.567 46.1618L140.596 46.1932C140.492 46.2976 140.483 46.4054 140.294 46.3915C140.174 46.3393 140.236 46.2349 140.187 46.2245C140.187 46.207 140.171 46.1966 140.115 46.2175L139.839 46.1932L139.94 46.3777C139.849 46.4229 139.579 46.3915 139.319 46.4055C139.056 46.3915 138.787 46.4229 138.696 46.3777L138.796 46.1932L138.52 46.2175C138.465 46.2001 138.449 46.207 138.449 46.2245C138.403 46.2349 138.462 46.3393 138.342 46.3915C138.153 46.4054 138.143 46.2941 138.039 46.1932L138.069 46.1618L137.942 46.1444C137.848 46.1514 138.277 46.3428 137.971 46.4473C137.968 46.3916 137.786 46.127 137.702 46.2732C137.812 46.2663 137.835 46.3324 137.815 46.395C137.747 46.3741 137.672 46.3498 137.614 46.2907L137.633 46.2245C137.614 46.2245 137.594 46.2279 137.575 46.2279C137.565 46.214 137.555 46.2036 137.549 46.1897C137.559 46.2036 137.562 46.2175 137.565 46.2314C137.295 46.2453 137.023 46.2836 136.746 46.3219C136.477 46.2941 136.181 46.1688 135.879 46.2071C135.872 46.2593 135.918 46.3324 135.879 46.4089C135.859 46.4089 135.837 46.4089 135.817 46.4089L135.616 46.1444C135.528 46.1722 135.531 46.496 135.375 46.2837C135.398 46.3359 135.431 46.4125 135.372 46.4333C135.219 46.3811 135.063 46.3533 134.908 46.3393C134.823 46.1096 134.661 46.127 134.475 46.1862C134.372 46.221 134.264 46.2663 134.147 46.2941C133.978 46.322 133.822 46.3254 133.657 46.2767C133.706 46.3011 133.725 46.3324 133.735 46.3533C133.556 46.2906 133.371 46.2871 133.205 46.308C133.043 46.2662 132.877 46.2001 132.718 46.0957C132.838 46.2141 132.757 46.2279 132.666 46.2314C132.718 46.2558 132.679 46.3568 132.676 46.4368C132.663 46.4403 132.65 46.4403 132.637 46.4438L132.305 46.2349C132.25 46.4194 132.032 46.3184 131.925 46.3846C131.759 46.3602 131.63 46.3846 131.448 46.4368C131.493 46.4647 131.62 46.5134 131.594 46.5482C131.298 46.4229 130.96 46.2976 130.642 46.3359L130.752 46.388L130.301 46.3707L130.385 46.496C130.892 46.7431 130.866 46.8406 130.899 47.0007C130.925 47.1538 131.016 47.3871 131.503 47.5716C131.324 47.582 131.513 47.9127 131.539 48.0623C131.568 48.0658 131.607 48.0798 131.659 48.1076C131.542 48.1807 131.685 48.3339 131.847 48.4662C132.016 48.6019 132.205 48.7168 132.26 48.8143C132.286 48.9605 132.162 48.9361 132.023 48.8978C132.24 49.0092 132.315 49.2041 132.383 49.4234C132.393 49.4547 132.403 49.486 132.412 49.5173C132.4 49.5069 132.383 49.4965 132.367 49.4791C132.367 49.4965 132.364 49.5 132.361 49.5104C132.374 49.5278 132.39 49.5487 132.412 49.5905C132.419 49.5835 132.422 49.5766 132.429 49.5731C132.445 49.6288 132.461 49.681 132.477 49.7262C132.49 49.761 132.503 49.7923 132.513 49.8167C132.516 49.8237 132.523 49.8237 132.529 49.8272C132.529 49.8829 132.559 49.9525 132.513 49.9455C132.624 50.0221 132.65 49.9699 132.672 49.8585C132.702 49.8376 132.734 49.8062 132.763 49.7784L132.815 49.8028C132.832 49.768 132.867 49.7297 132.793 49.7541C132.809 49.7402 132.825 49.7297 132.845 49.7227C132.864 49.761 132.864 49.7958 132.854 49.8237L132.812 49.8028C132.802 49.8237 132.809 49.8376 132.848 49.8376C132.793 49.9699 132.539 50.0186 132.819 50.1196C132.812 50.0743 132.783 50.0082 132.822 50.0082C132.91 50.0674 133.303 49.942 133.442 49.9873C133.384 50.0256 133.358 50.0987 133.225 50.0743C133.28 50.0813 133.348 50.1091 133.4 50.1056C133.459 50.1927 133.592 50.2205 133.696 50.2553C133.689 50.3006 133.683 50.3389 133.673 50.3632C133.696 50.3319 133.712 50.2971 133.731 50.2658C133.822 50.2971 133.871 50.3389 133.77 50.4468L133.637 50.5338C134.034 50.7043 133.689 50.7078 134.069 50.8993L134.086 50.8784C134.167 51.035 134.375 50.9793 134.229 51.216L134.167 51.1916C134.219 51.2752 134.251 51.3169 134.284 51.3587C134.264 51.3587 134.245 51.3587 134.225 51.3483C134.43 51.5675 134.112 51.3309 134.18 51.5571C134.128 51.5258 134.089 51.4875 134.056 51.4527C134.076 51.5084 134.089 51.5641 134.099 51.6198V51.6093C134.105 51.5849 134.112 51.5746 134.112 51.5955C134.112 51.5955 134.115 51.5955 134.118 51.5955C134.134 51.585 134.151 51.578 134.167 51.5711C134.196 51.6616 134.147 51.6059 134.118 51.5955C134.112 51.5989 134.105 51.6024 134.099 51.6058L134.336 51.7973C134.313 51.7346 134.264 51.672 134.167 51.5676C134.264 51.5328 134.359 51.5571 134.427 51.5223C134.433 51.5293 134.436 51.5362 134.446 51.5432C134.443 51.578 134.479 51.6894 134.537 51.679C134.459 51.7521 134.518 51.8669 134.599 51.9748C134.579 52.0131 134.56 52.0479 134.547 52.0827C134.576 52.0619 134.609 52.0409 134.664 52.0479C134.735 52.1245 134.807 52.1871 134.833 52.215C134.752 52.0583 134.872 52.0618 134.966 52.0444C134.895 52.2393 134.924 52.309 135.103 52.3368C135.038 52.403 134.969 52.4726 134.917 52.5422C134.901 52.5214 134.891 52.5004 134.882 52.476C134.807 52.6222 134.865 52.5666 134.862 52.6293C134.804 52.7372 134.791 52.8485 134.872 52.9669C134.875 52.9077 134.852 52.8381 134.911 52.8241C134.969 52.8102 134.963 52.9007 134.96 52.9321C135.005 52.9216 135.005 52.859 135.044 52.8138C135.054 52.8277 135.063 52.8416 135.073 52.8555C135.06 52.9947 135.128 53.0504 135.21 53.12C135.229 53.1827 135.245 53.2488 135.213 53.3811C135.262 53.3324 135.275 53.2454 135.343 53.395C135.362 53.3881 135.392 53.3846 135.408 53.3846C135.408 53.3915 135.408 53.3916 135.408 53.395V53.3811C135.408 53.3811 135.424 53.3811 135.408 53.3776C135.408 53.3289 135.418 53.2802 135.437 53.2454C135.457 53.2419 135.479 53.2419 135.499 53.2454C135.421 53.3985 135.928 53.3359 135.6 53.496C135.694 53.5482 135.778 53.6213 135.863 53.7013C135.833 53.8057 135.824 53.8997 135.684 53.8162L135.798 53.9833C135.804 54.133 135.876 54.2861 135.983 54.3279C136.015 54.4253 136.253 54.4149 136.113 54.4254L136.373 54.6203L136.347 54.6482C136.519 54.9127 136.919 55.0067 136.925 55.4731C137.016 55.5323 137.117 55.5915 137.188 55.762L137.11 55.8734C137.224 55.9534 137.253 56.2841 137.39 56.2458C137.302 56.4234 137.373 56.5522 137.507 56.7018C137.715 56.9559 137.948 57.1857 138.059 57.3876L138.16 57.2379C138.319 57.4711 138.504 57.6417 138.718 57.8192L138.735 57.7078C138.77 57.7809 138.806 57.861 138.845 57.9445C138.978 58.2334 139.147 58.5606 139.3 58.5745C139.3 58.5745 139.3 58.5745 139.3 58.578C139.303 58.578 139.306 58.578 139.31 58.578C139.313 58.578 139.316 58.578 139.319 58.578C139.319 58.578 139.319 58.578 139.319 58.5745C139.472 58.5571 139.641 58.23 139.774 57.9445C139.92 57.6347 140.028 57.3667 140.216 57.3145C140.262 57.1613 140.32 57.1195 140.388 57.0882C140.382 57.0986 140.379 57.1091 140.375 57.1195C140.385 57.1126 140.395 57.0987 140.405 57.0813C140.45 57.0639 140.499 57.0464 140.551 57.0186C140.499 57.029 140.453 57.0395 140.421 57.0569C140.473 56.9803 140.547 56.8515 140.603 56.7158L140.742 56.7958C140.742 56.7958 140.752 56.7784 140.759 56.768C140.885 56.6983 140.772 56.6252 140.645 56.5904C140.668 56.5173 140.677 56.4513 140.677 56.3886C140.934 56.4791 140.752 56.1449 141.022 56.2458C140.954 56.1101 141.204 55.8351 141.019 55.6123C141.048 55.6332 141.077 55.6263 141.051 55.6646C141.132 55.6089 141.217 55.5531 141.207 55.4348L141.386 55.5357L141.304 55.1876C141.477 55.1668 141.561 55.1737 141.603 55.3756C141.603 54.9753 141.685 55.118 141.659 54.756L141.75 54.8535C141.802 54.7769 141.756 54.5437 141.873 54.568C142.188 54.568 142.516 53.7745 143.013 53.503C142.656 53.3289 143.293 53.4194 143.078 53.2071C143.166 53.2419 143.25 53.2175 143.26 53.3394C143.354 53.0644 143.618 53.1096 143.536 52.7929C143.624 52.8277 143.605 52.9286 143.663 52.9425C143.663 52.9112 143.653 52.8207 143.712 52.8346C143.77 52.8485 143.748 52.9182 143.751 52.9774C143.907 52.7476 143.709 52.5387 143.52 52.3473C143.699 52.3195 143.728 52.2498 143.657 52.0549C143.751 52.0723 143.871 52.0688 143.79 52.2254C143.858 52.1558 144.241 51.8356 144.089 51.6895C144.147 51.6999 144.183 51.5919 144.18 51.5537C144.319 51.3901 144.345 51.3866 144.459 51.2021L144.397 51.2265C144.254 50.9898 144.462 51.0455 144.54 50.8888L144.556 50.9097C144.933 50.7182 144.592 50.7148 144.989 50.5442L144.855 50.4572C144.618 50.2031 145.216 50.3144 145.255 50.0499H145.138C145.122 49.8793 145.7 50.0882 145.807 50.0151C145.846 50.0151 145.817 50.0812 145.811 50.1265C146.161 50.0012 145.677 49.9559 145.785 49.7297C145.898 49.768 145.966 49.9629 146.08 49.8481C146.096 49.8481 146.106 49.8376 146.116 49.8202C146.126 49.7958 146.139 49.7645 146.152 49.7297C146.184 49.6427 146.213 49.5313 146.249 49.4269C146.317 49.2076 146.392 49.0127 146.61 48.9013C146.47 48.9431 146.343 48.9639 146.373 48.8178C146.428 48.7168 146.616 48.6054 146.785 48.4697C146.951 48.3374 147.091 48.1877 146.974 48.1111C147.026 48.0833 147.065 48.0693 147.094 48.0658C147.117 47.9162 147.308 47.589 147.13 47.5751C147.617 47.3871 147.708 47.1573 147.734 47.0042C147.763 46.844 147.74 46.7466 148.247 46.4995L148.332 46.3742L147.88 46.3915V46.388ZM135.268 52.128C135.271 52.1071 135.275 52.0792 135.278 52.0549C135.239 52.1489 135.2 52.2185 135.151 52.215L135.083 51.9609C135.145 51.9644 135.216 51.9783 135.284 51.9679C135.284 51.9957 135.281 52.027 135.278 52.0549C135.291 52.027 135.304 51.9957 135.314 51.9644C135.333 51.9609 135.353 51.9505 135.372 51.9401L135.437 52.0271C135.395 52.0967 135.343 52.142 135.268 52.1246V52.128ZM136.106 52.939C136.106 52.939 136.1 52.9425 136.097 52.946C136.093 52.9356 136.087 52.9216 136.084 52.9112L136.106 52.9425V52.939ZM138.826 56.6427L138.855 56.6844C138.845 56.7192 138.832 56.7541 138.822 56.7889C138.822 56.7401 138.822 56.6914 138.822 56.6462L138.826 56.6427ZM139.758 56.6879L139.787 56.6497C139.787 56.6914 139.787 56.7332 139.787 56.7749C139.777 56.7471 139.768 56.7158 139.761 56.6844L139.758 56.6879ZM133.472 50.0499C133.472 50.0499 133.472 50.0464 133.472 50.0429C133.472 50.0429 133.472 50.0429 133.472 50.0499ZM135.96 54.0529C135.96 54.0529 135.967 54.0529 135.97 54.0529C135.989 54.1852 135.983 54.1364 135.96 54.0529ZM139.339 58.5154C139.339 58.5154 139.345 58.4979 139.349 58.4875L139.336 58.5223C139.336 58.5223 139.319 58.5432 139.31 58.5502C139.3 58.5432 139.29 58.5328 139.284 58.5223L139.271 58.4875C139.271 58.4875 139.277 58.5049 139.28 58.5154C139.254 58.484 139.228 58.4423 139.222 58.3831C139.228 58.3936 139.238 58.404 139.245 58.4144C139.264 58.4457 139.28 58.4805 139.3 58.5084C139.303 58.5049 139.306 58.4979 139.31 58.4944C139.313 58.4979 139.316 58.5049 139.319 58.5084C139.339 58.4771 139.355 58.4457 139.375 58.4144C139.381 58.404 139.391 58.397 139.397 58.3831C139.391 58.4423 139.365 58.484 139.339 58.5154ZM140.154 46.2872L140.197 46.3324C140.099 46.3811 140.125 46.3359 140.154 46.2872ZM141.071 54.9545L141.174 54.8187L141.298 55.1494C141.249 55.0902 141.165 55.0241 141.071 54.9579V54.9545ZM143.465 52.215C143.419 52.2185 143.38 52.1489 143.338 52.0549C143.338 52.0827 143.341 52.1071 143.348 52.128C143.302 52.1384 143.263 52.121 143.231 52.0932L143.312 51.9888C143.322 52.0096 143.332 52.034 143.338 52.0549C143.338 52.027 143.335 51.9922 143.332 51.9609L143.367 51.9122C143.442 51.9192 143.507 51.9226 143.543 51.9192L143.462 52.215H143.465Z" fill="#00B14F"/>
<path d="M134.938 53.0052L135.058 53.0992C135.009 53.047 135.022 53.0018 135.019 52.9565C134.993 52.9844 134.967 53.04 134.938 53.0052Z" fill="#00B14F"/>
<path d="M135.633 53.6421C135.633 53.5795 135.483 53.7292 135.506 53.67C135.34 53.7361 135.86 53.8022 135.633 53.6421Z" fill="#00B14F"/>
<path d="M132.041 46.0504L131.908 45.9739L131.993 46.0957L132.041 46.0504Z" fill="#00B14F"/>
<path d="M131.786 46.3117L131.757 46.0854L131.676 46.2908C131.705 46.2804 131.763 46.2629 131.786 46.3117Z" fill="#00B14F"/>
<path d="M131.457 48.1328C131.513 48.1468 131.526 48.1187 131.516 48.066C131.47 48.059 131.447 48.0801 131.457 48.1328Z" fill="#00B14F"/>
</svg>
