<svg width="90" height="10" viewBox="0 0 90 10" fill="none" xmlns="http://www.w3.org/2000/svg">
<g opacity="0.57">
<path d="M0.949219 8.37296C1.22435 8.55649 1.69686 8.57386 2.14545 8.60502C1.80153 8.42842 1.43369 8.35219 0.949219 8.37296Z" fill="#43C554"/>
<path d="M2.15312 8.6084H2.15886C2.15313 8.6084 2.1474 8.6084 2.14453 8.6084C2.1474 8.6084 2.15026 8.6084 2.15312 8.6117V8.6084Z" fill="#43C554"/>
<path d="M89.1823 0.266602C89.0716 0.270064 88.943 0.273537 88.8145 0.277C88.9371 0.283926 89.0627 0.283915 89.1823 0.266602Z" fill="#43C554"/>
<path d="M23.8829 9.12096L23.9516 8.81619C25.0163 8.80926 24.2626 9.16594 25.2465 9.08976C25.6323 8.65692 26.8824 9.1313 27.2203 8.90276C27.2114 8.93739 27.6958 8.95125 27.6629 9.0863C27.8095 8.85083 28.1594 9.03095 28.4614 8.97208C28.5721 8.90629 28.3807 8.90277 28.2969 8.83006L28.9937 8.74695C29.2659 8.82313 29.3317 8.96162 29.0386 8.98586C30.8569 9.06897 39.5923 9.28367 41.5511 9.16593C41.2999 8.98933 40.6928 9.11054 40.4656 8.83006C40.9829 8.67423 41.2282 8.88544 41.4555 8.71922C41.6558 9.13475 42.5949 8.81618 42.9866 9.23864L43.1362 9.00319L43.3933 9.14522C45.6722 8.89936 43.9137 9.02396 45.9323 9.07936C47.1016 9.04127 47.6579 8.71579 48.3069 8.83699C48.2112 8.83699 47.951 8.6916 48.256 8.62927C48.3069 8.83704 49.0634 8.48035 49.21 8.68811C49.5061 8.66041 50.466 8.68809 50.143 8.40414C50.3075 8.54611 51.1629 8.60149 50.6545 8.72269C50.9445 8.72961 51.2227 8.77124 51.432 8.70891L51.0612 8.62927C52.0391 8.58772 52.5714 8.8058 53.2054 8.54955L52.8435 8.4388C53.4267 8.42149 53.9171 8.39723 54.1444 8.67771L53.5463 8.76428C54.5153 8.75736 55.0984 8.73658 55.9059 8.58768L55.6188 8.58075C56.6476 8.30026 62.0276 8.06479 62.9726 7.71505L62.536 7.50041L63.3494 7.31687C63.2537 7.31687 62.9577 8.01975 62.8769 7.9505C64.6234 7.92972 73.7058 7.75315 75.3177 7.89859C75.9696 8.01633 75.4343 8.24144 75.4283 8.27606C76.2208 8.19296 75.7693 8.04748 76.4421 8.0648C76.6246 8.10289 76.4033 8.2345 76.3016 8.26566C76.5977 8.24143 76.8698 8.31409 76.8937 8.21367C76.5259 8.13403 76.6814 7.86739 76.5259 7.69079L77.3931 7.71159L77.3543 7.88126C77.5486 7.88472 77.8447 7.41722 78.6941 7.50725C80.1295 7.57997 81.6876 7.51769 83.1321 7.55578C83.1111 7.6562 82.8061 7.71849 82.504 7.77736C82.6984 7.78082 82.9915 7.75663 83.1709 7.82935C82.821 7.64929 83.775 7.70813 83.5029 7.63195C84.5586 7.21642 85.9282 7.59388 86.8613 7.30994C86.942 6.93596 88.856 0.900343 88.856 0.457109C89.1461 0.464034 89.4332 0.470926 89.5229 0.509017C89.4481 0.405134 88.8799 0.356648 88.5749 0.415515L88.5241 0.65451C87.8273 0.737617 88.3596 0.5125 87.6807 0.529813C87.6448 0.335899 88.2699 0.294349 88.8201 0.273572C88.3237 0.252795 87.8303 0.110785 87.6269 0.322014C87.1604 0.24237 87.6777 0.0831064 87.1185 0C86.7177 0.058867 86.1944 0.249367 85.7338 0.135095L85.7428 0.100434C84.6273 -0.100407 84.0352 0.398245 83.0124 0.200868L83.1231 0.135095C82.7612 0.0242867 82.0524 0.173192 81.4005 0.0554584C81.5859 0.0935488 81.7474 0.235468 81.3556 0.259708C80.608 0.138511 80.0966 0.259731 79.5494 0.110832L79.026 0.301301C76.4212 0.266674 66.1337 0.547175 63.5169 0.57834L63.6186 0.547144C59.6321 0.647564 51.447 0.637186 47.3289 0.903819C46.6919 0.71683 45.8127 0.761826 45.1488 0.709884C45.5196 0.786065 45.391 0.921143 45.1039 0.914218C43.0793 0.893441 44.9664 1.04229 42.9178 1.1254C40.5583 1.302 31.5297 1.11155 29.4363 0.952261C28.3119 1.22928 26.9063 1.0215 25.8058 1.1981L25.9164 1.13233C24.7322 1.23621 18.0333 0.986936 16.6576 1.08736L16.843 1.1254C15.6438 1.29854 15.8083 0.997314 14.8603 0.903819C14.9859 1.21201 13.9572 1.39206 13.5654 1.41284L13.5803 1.3436C12.9882 1.39554 11.6514 1.66557 10.6735 1.71059L10.7124 1.54091C9.89893 1.72444 8.36776 1.6483 7.78161 1.66908C6.44483 1.59982 4.37835 1.30544 2.58998 1.53398L1.43264 1.05269L1.26217 1.10114C1.26217 1.10114 -0.594974 6.93943 1.76758 8.18256L1.7287 8.35223L2.19523 8.33144C2.75446 8.41454 3.01464 8.21714 2.97576 8.38681L2.20718 8.3661C2.76941 8.41458 2.37766 8.50459 2.16234 8.60154C2.39859 8.61886 2.62587 8.63617 2.81428 8.68811C2.92493 8.62232 2.73353 8.61884 2.64381 8.58075C2.94586 8.52188 3.36754 8.36262 3.73837 8.4388C4.31555 8.45265 3.77426 8.71231 4.44714 8.72962C7.99694 8.85774 11.4361 9.05168 15.0248 9.01013C15.1055 9.07938 15.0098 9.07939 14.9052 9.11056C15.9848 9.03784 16.9477 9.06204 17.9316 8.98586C18.2038 9.06204 18.2785 9.166 18.3593 9.23526C18.1978 9.09328 23.7931 9.07594 23.8829 9.11403V9.12096Z" fill="#43C554"/>
</g>
</svg>
