<svg width="111" height="99" viewBox="0 0 111 99" fill="none" xmlns="http://www.w3.org/2000/svg">
<path d="M2.60928 0.598633L2.54102 0.616046C2.57353 0.616046 2.59953 0.609083 2.60928 0.598633Z" fill="#20BB65"/>
<path d="M0.428542 0.584752C0.353762 0.762412 0.0286212 0.832068 0.171678 1.00624C0.15217 1.09682 0.233458 1.18042 0.278976 1.26402C0.535827 1.28144 0.291985 1.3755 0.50657 1.40337L0.363512 1.43471C0.438292 1.44516 0.4903 1.4591 0.41227 1.48348H0.370001C0.480545 1.5009 0.418773 1.53575 0.474045 1.54272H0.431776L0.451283 1.57406H0.389508C0.509806 1.60541 0.51956 1.64722 0.47079 1.69251L0.646372 1.67161C0.457798 1.77263 0.821934 1.76566 0.597595 1.8632H0.555327C1.02351 1.91197 0.256213 2.04782 0.701639 2.09659C0.646367 2.08962 0.613863 2.11052 0.568345 2.11749C0.623617 2.15581 0.652877 2.20109 0.994262 2.16278C0.994262 2.19413 0.890208 2.20109 0.756905 2.22199C0.906464 2.20457 0.971494 2.222 0.984499 2.24986H0.925978L0.984499 2.30908L1.26736 2.26032C1.18933 2.30909 0.922734 2.31257 0.994262 2.34044L1.22835 2.31256C1.18933 2.37178 0.834949 2.44495 0.669134 2.5181C0.594354 2.74801 1.2186 2.88735 0.831698 3.14513L0.656116 3.17996C0.399264 3.22176 1.04303 3.17996 0.805682 3.22176H0.925978C0.88046 3.23918 0.834952 3.26009 0.773177 3.26009C0.766675 3.28448 0.808933 3.27751 0.886964 3.28099L0.730909 3.32975C0.620365 3.43425 0.935733 3.45516 0.886964 3.5527C0.578092 3.71294 0.90648 3.86273 1.09831 3.94634C1.50472 4.03342 0.519565 4.41662 0.984499 4.49674C0.948735 4.51067 1.03326 4.50719 1.06253 4.50022L1.05278 4.65697C1.05278 4.65697 1.06254 4.84508 1.32265 4.9043C1.58275 4.96701 2.08993 4.8834 3.09458 4.39919L3.14987 4.39224C3.27016 4.28773 3.28967 4.23548 3.00355 4.23896C3.34494 4.15884 3.0263 4.16929 3.13359 4.12749H3.16286C2.89301 4.12749 3.36444 3.98465 3.12059 3.98814C3.14661 3.98465 3.2409 3.96724 3.25065 3.97421C3.20189 3.94983 3.11734 3.92195 3.31566 3.88015C3.25064 3.81396 3.32542 3.68855 2.99704 3.699L3.05231 3.69205C2.83122 3.7025 3.0133 3.6607 2.89951 3.65024C2.92552 3.64328 2.93853 3.63978 2.94829 3.6363C2.73045 3.64326 2.89952 3.55271 2.80523 3.54226L2.93852 3.51787L2.89951 3.46212L2.87349 3.49C2.5061 3.54573 3.09458 3.4029 2.85073 3.39942C2.88975 3.35065 2.07694 3.44472 2.24925 3.36808C2.07368 3.37505 2.52886 3.3402 2.39231 3.32975C2.58414 3.29839 2.5126 3.32278 2.66541 3.29143C2.57112 3.27401 2.85399 3.20784 2.71744 3.19042L2.86701 3.16603C2.58739 3.15906 3.04908 3.04062 2.78572 3.05107C2.65567 3.01972 3.22139 2.94656 2.92553 2.93959L3.12385 2.88735C3.15311 2.85949 2.87351 2.90826 2.96779 2.86994C3.09459 2.85252 3.06533 2.82116 3.18562 2.81768C3.37745 2.73059 2.88975 2.74453 3.21488 2.6226C2.96453 2.6435 3.10759 2.58428 2.92227 2.59822C3.02956 2.5808 2.93203 2.52157 3.16937 2.52854C3.18888 2.52854 3.18562 2.53552 3.14336 2.54249L3.28967 2.52505C3.56278 2.44493 3.1271 2.46932 3.16612 2.42055C3.11735 2.43797 3.13359 2.45538 3.0328 2.45887L3.04908 2.41707L3.17263 2.41011L3.23764 2.34393L3.08484 2.37178C3.15962 2.33346 3.41971 2.28817 3.19862 2.28469C3.07507 2.28469 2.99705 2.34044 2.94503 2.31605C3.04582 2.2638 3.19537 2.18715 3.23764 2.13141C3.06532 2.15928 3.07182 2.14535 3.0328 2.13141L3.18237 2.11051C2.96779 2.08613 3.50749 2.05131 3.33843 2.01996L3.44247 2.01299L3.1271 2.03737C2.82473 2.02692 3.43597 1.97467 3.02306 1.97119C3.04907 1.9886 2.69468 2.01995 2.75645 1.9886L2.90276 1.97816C2.87025 1.96771 2.80847 1.97117 2.83773 1.95724C2.91577 1.95724 3.04907 1.93634 3.01981 1.91892L3.20188 1.91197L2.93201 1.905C3.08483 1.85623 2.88651 1.83185 3.08809 1.79701C3.08809 1.79701 3.18237 1.72386 2.95803 1.73082C3.09784 1.73082 3.14661 1.68901 3.31243 1.67856C3.15312 1.67856 3.01981 1.64374 3.18562 1.60542H3.20513C3.37095 1.51833 2.96128 1.50787 3.16286 1.42078C2.99055 1.44169 3.08158 1.39641 2.8605 1.42776C2.63616 1.37899 3.30267 1.26055 2.6134 1.30236C2.57438 1.27449 2.77272 1.2501 2.80523 1.23268H2.84099C2.77921 1.18391 2.77272 1.1665 2.78572 1.12469C2.71745 1.11076 2.39881 1.13164 2.47034 1.08636C2.59714 1.08636 2.57438 1.07592 2.57113 1.05851C2.59063 1.06547 2.63941 1.06547 2.72395 1.03761C2.68493 1.03761 2.65892 1.0376 2.63941 1.03412C2.64917 1.03412 2.65566 1.03412 2.67192 1.03412C2.6264 1.01322 2.58738 1.02018 2.56787 1.03412C2.54836 1.03412 2.52236 1.03759 2.48985 1.04456C2.65241 1.00624 2.47359 0.974906 2.69142 0.954004C2.63615 0.884334 2.40532 0.849495 2.31754 0.797242C2.42808 0.783308 2.52886 0.79026 2.57438 0.804194L2.53211 0.765881C2.69468 0.75543 2.62641 0.783304 2.65892 0.793755C2.91577 0.724084 2.3923 0.706656 2.62639 0.630018H2.49635L2.51586 0.619579C2.44758 0.623062 2.35655 0.619569 2.33379 0.609118C2.47359 0.5917 2.65891 0.588233 2.64915 0.560365C2.78246 0.529013 2.57764 0.497662 2.49961 0.473277C2.47685 0.490695 2.39881 0.490687 2.34679 0.487203C2.34029 0.473269 2.48008 0.455857 2.42156 0.44889L2.6134 0.434942C2.43457 0.45236 2.41831 0.407089 2.34028 0.407089C2.48008 0.389672 2.46383 0.424499 2.56787 0.421016C2.54836 0.361796 2.55813 0.393148 2.53537 0.333928C2.38906 0.309543 2.35654 0.351356 2.18748 0.344389C2.14846 0.31652 2.01516 0.299103 2.12896 0.257301L1.95988 0.278201C1.82658 0.232915 1.84608 0.198064 2.01515 0.152778C1.31938 -0.014431 0.847939 -0.0213963 0.552072 0.0238894C0.256206 0.0656917 0.132664 0.156265 0.132664 0.156265C-0.234731 0.344375 0.262721 0.407082 0.402526 0.595192L0.428542 0.584752Z" fill="#20BB65"/>
<path d="M5.50799 11.5508L5.45508 11.6075C5.48484 11.5897 5.50469 11.5685 5.50799 11.5508Z" fill="#20BB65"/>
<path d="M8.77148 16.4034C8.77148 16.4034 8.78112 16.3999 8.78755 16.3965C8.78112 16.3965 8.77791 16.3999 8.77148 16.4034Z" fill="#20BB65"/>
<path d="M3.45902 12.4008C3.53705 12.7492 3.29647 13 3.57608 13.2473C3.6346 13.411 3.78741 13.5295 3.90121 13.6514C4.15806 13.5782 4.01174 13.8395 4.23933 13.7977L4.13529 13.9092C4.21332 13.8953 4.2751 13.8987 4.22308 13.9719L4.18732 13.9928C4.30437 13.9719 4.27509 14.0555 4.33361 14.045L4.29785 14.0659L4.34338 14.1043L4.28811 14.1286C4.42792 14.1356 4.47994 14.2018 4.47344 14.2959L4.61647 14.1879C4.53519 14.4387 4.87009 14.275 4.74979 14.5362L4.71403 14.5606C5.19197 14.4387 4.60673 14.9926 5.07166 14.8881C5.01314 14.902 5.00338 14.9508 4.96762 14.9752C5.0554 15.017 5.12693 15.0796 5.40979 14.8706C5.43905 14.9264 5.34803 14.9786 5.24399 15.0692C5.36754 14.9751 5.44882 14.9821 5.48458 15.017L5.42606 15.0344L5.54636 15.118L5.76419 14.9194C5.73818 15.0309 5.49108 15.1493 5.58537 15.1667L5.77719 15.0204C5.79669 15.1319 5.53984 15.4071 5.45206 15.5987C5.60812 16.0098 6.33966 15.9714 6.24212 16.5532L6.11208 16.6856C5.91375 16.8667 6.47622 16.5114 6.2974 16.6856L6.4177 16.6403C6.38844 16.6821 6.36567 16.7343 6.30715 16.7587C6.3234 16.797 6.35917 16.7691 6.43721 16.7413L6.33967 16.8841C6.33967 17.1001 6.6648 16.9991 6.72332 17.1733C6.59977 17.5634 7.07445 17.654 7.34431 17.6958C7.8255 17.654 7.3053 18.6746 7.84176 18.591C7.82226 18.6259 7.90028 18.5841 7.91979 18.5632L8.08886 18.807C8.08886 18.807 8.30994 19.0857 8.62857 19.0578C8.95045 19.0334 9.35035 18.6886 9.76652 17.5077L9.81204 17.4693C9.80879 17.2568 9.76651 17.1698 9.49666 17.3056C9.734 17.0339 9.44138 17.1872 9.49666 17.0792L9.51942 17.0618C9.26582 17.1942 9.55519 16.7587 9.32435 16.8737C9.34711 16.8562 9.41862 16.7866 9.43488 16.797C9.3601 16.7831 9.24956 16.7726 9.39261 16.6229C9.25606 16.5462 9.18778 16.3233 8.88541 16.48L8.93094 16.4452C8.73261 16.5601 8.86267 16.4138 8.73912 16.4452C8.75538 16.4243 8.76512 16.4104 8.77163 16.4034C8.5733 16.5114 8.63508 16.2919 8.53429 16.3198L8.63182 16.2222L8.53103 16.1526L8.53754 16.2083C8.24818 16.4556 8.65457 15.9749 8.42048 16.0759C8.40423 15.9784 7.73447 16.4835 7.81575 16.2884C7.65643 16.3755 8.05309 16.1212 7.91328 16.1665C8.05959 16.0307 8.02384 16.1038 8.13113 15.9854C8.02384 16.0028 8.22215 15.7729 8.07585 15.8042L8.18965 15.6997C7.9198 15.8147 8.2319 15.421 7.99131 15.5499C7.83525 15.5569 8.29695 15.1946 8.00758 15.313L8.14088 15.1458C8.14088 15.0901 7.92954 15.2887 7.97506 15.1842C8.07585 15.1006 8.01734 15.0657 8.13113 15.0065C8.22217 14.787 7.77673 15.0169 7.9588 14.6756C7.74422 14.8149 7.819 14.6581 7.65644 14.7626C7.74097 14.6895 7.58491 14.6338 7.819 14.5467C7.83851 14.5397 7.84175 14.5536 7.80924 14.578L7.93279 14.4909C8.10511 14.2436 7.72471 14.47 7.7117 14.376C7.68569 14.4282 7.71497 14.4457 7.62068 14.4944L7.59466 14.4213L7.70196 14.3551L7.69545 14.2157L7.58166 14.3272C7.61418 14.2297 7.8125 14.0485 7.60117 14.1391C7.48738 14.1948 7.46461 14.3133 7.39308 14.2959C7.43535 14.1705 7.50037 13.9789 7.48736 13.8709C7.35081 13.9858 7.3443 13.9614 7.29878 13.9614L7.4191 13.8639C7.19476 13.9127 7.66945 13.627 7.47762 13.6514L7.56865 13.5922L7.29878 13.7664C7.00617 13.8778 7.52638 13.533 7.13947 13.7037C7.18174 13.7211 6.87938 13.9231 6.90539 13.843L7.0322 13.7629C6.99318 13.7629 6.93791 13.7908 6.95091 13.7559C7.02244 13.7211 7.12973 13.634 7.08746 13.6166L7.25003 13.526L6.98993 13.627C7.08747 13.4842 6.87613 13.526 7.0322 13.3832C7.0322 13.3832 7.04845 13.2194 6.84687 13.3309C6.97692 13.2682 6.98342 13.1777 7.12973 13.0975C6.98342 13.1672 6.82411 13.1637 6.94441 13.0313H6.96391C7.03544 12.8084 6.64528 12.9617 6.75257 12.7318C6.60951 12.8363 6.65504 12.7248 6.47622 12.8711C6.21937 12.885 6.73957 12.4078 6.13158 12.7596C6.06981 12.7283 6.23237 12.6063 6.24863 12.5611L6.28764 12.5541C6.1836 12.4879 6.16085 12.4635 6.13484 12.3834C6.05681 12.3834 5.7772 12.5576 5.80971 12.4496C5.93001 12.4008 5.89423 12.3869 5.88123 12.3625C5.90724 12.366 5.94951 12.3451 6.00478 12.2685C5.96902 12.2859 5.943 12.2928 5.9235 12.2963C5.93325 12.2894 5.93651 12.2859 5.94951 12.2789C5.88774 12.2615 5.85848 12.2928 5.85523 12.3207C5.83898 12.3311 5.81621 12.3451 5.7902 12.3695C5.90725 12.2371 5.71541 12.258 5.90074 12.1326C5.79019 12.0385 5.5431 12.0734 5.4163 12.0107C5.50733 11.9375 5.60812 11.9096 5.66014 11.9166L5.58537 11.8644C5.72518 11.7807 5.68941 11.8574 5.72843 11.8644C5.9105 11.6379 5.40655 11.8226 5.56261 11.5926L5.43906 11.6379L5.45531 11.6205C5.39679 11.6554 5.3025 11.6797 5.27649 11.6762C5.39354 11.5892 5.56261 11.509 5.52685 11.4638C5.62439 11.3558 5.4098 11.3836 5.31551 11.3697C5.30901 11.4115 5.23422 11.4394 5.18545 11.4533C5.16919 11.4289 5.28625 11.3418 5.22123 11.3558L5.38705 11.2582C5.23424 11.3592 5.1822 11.2896 5.11068 11.3175C5.22772 11.2304 5.23748 11.2966 5.33502 11.2513C5.26999 11.1572 5.3025 11.2025 5.23423 11.1084C5.08142 11.1259 5.07817 11.2095 4.91886 11.2652C4.86034 11.2338 4.72053 11.2513 4.79206 11.1398L4.65225 11.2408C4.48969 11.2095 4.48318 11.1433 4.60348 10.997C3.82317 10.9726 3.37774 11.1433 3.13389 11.3384C2.89004 11.53 2.84779 11.7424 2.84779 11.7424C2.65272 12.2232 3.16642 12.1396 3.45578 12.4217L3.45902 12.4008Z" fill="#20BB65"/>
<path d="M15.5136 22.4543L15.4941 22.531C15.5104 22.5031 15.5202 22.4718 15.5136 22.4543Z" fill="#20BB65"/>
<path d="M20.502 25.3768C20.502 25.3768 20.5088 25.3699 20.5157 25.363C20.5088 25.3665 20.5054 25.3699 20.502 25.3768Z" fill="#20BB65"/>
<path d="M15.0207 25.1157C15.0207 25.1157 15.011 25.1226 15.0078 25.126L15.0239 25.1157H15.0207Z" fill="#20BB65"/>
<path d="M14.1001 24.2553C14.3179 24.5166 14.2139 24.8615 14.565 24.9276C14.6853 25.0391 14.8674 25.067 15.017 25.1158C15.212 24.9207 15.1925 25.2238 15.3746 25.074L15.3291 25.2238C15.3909 25.1715 15.4461 25.1471 15.4331 25.2342L15.4104 25.2725C15.5046 25.1959 15.5144 25.283 15.5599 25.2447L15.5372 25.283L15.5924 25.2969L15.5534 25.3457C15.6802 25.2795 15.7518 25.3143 15.7843 25.4014L15.8688 25.2377C15.8981 25.4989 16.1289 25.1924 16.1289 25.4815L16.1061 25.5198C16.4833 25.1785 16.1842 25.9553 16.5516 25.6383C16.506 25.6766 16.5158 25.7289 16.493 25.7672C16.5873 25.7637 16.6751 25.7846 16.8442 25.4606C16.893 25.4955 16.8344 25.586 16.7759 25.7149C16.8507 25.5721 16.9255 25.5408 16.9677 25.5547L16.9222 25.6L17.062 25.6209L17.1791 25.3422C17.1986 25.4537 17.0263 25.6766 17.1173 25.6452L17.2311 25.4223C17.2929 25.5164 17.1693 25.8821 17.1661 26.0911C17.4619 26.3838 18.1057 26.0215 18.2325 26.5928L18.1642 26.7704C18.0504 27.0213 18.4276 26.4534 18.33 26.6868L18.4211 26.5928C18.4113 26.6415 18.4113 26.7008 18.3658 26.7461C18.3951 26.7739 18.4145 26.7356 18.4763 26.6729L18.4406 26.8471C18.5218 27.0421 18.7754 26.8053 18.8925 26.9411C18.9185 27.3487 19.3802 27.2303 19.6435 27.1571C20.0727 26.9167 19.9394 28.0733 20.4011 27.7772C20.3946 27.8155 20.4531 27.7493 20.4629 27.7179L20.697 27.8747C20.697 27.8747 20.9896 28.0454 21.2789 27.8956C21.5683 27.7493 21.8381 27.2756 21.8284 26.011L21.8577 25.9588C21.7829 25.7602 21.7113 25.6905 21.5033 25.9239C21.6333 25.5791 21.409 25.8368 21.4252 25.7114L21.4415 25.6836C21.2497 25.9065 21.37 25.3875 21.1912 25.5825C21.2074 25.5582 21.2464 25.4641 21.2692 25.4676C21.1944 25.4815 21.0839 25.5198 21.1651 25.3213C21.0091 25.3039 20.8628 25.1192 20.6384 25.391L20.6677 25.3387C20.5246 25.5233 20.5897 25.3387 20.4889 25.4153C20.4986 25.3875 20.4986 25.3735 20.5051 25.3631C20.3588 25.5442 20.3361 25.3143 20.2515 25.3805L20.3068 25.2481L20.1865 25.2238L20.2125 25.2725C20.0369 25.6209 20.2353 25.0078 20.0532 25.1994C20.0044 25.1158 19.5688 25.8612 19.572 25.6452C19.4582 25.7916 19.7281 25.391 19.6175 25.492C19.7021 25.3074 19.6956 25.3875 19.7508 25.2342C19.6566 25.2934 19.7508 25.0008 19.6305 25.0914L19.6956 24.9451C19.4875 25.1645 19.6273 24.6699 19.455 24.8928C19.3119 24.966 19.6013 24.4365 19.3769 24.6664L19.4355 24.4539C19.4127 24.4016 19.2957 24.6768 19.2989 24.5584C19.3607 24.4365 19.2924 24.433 19.3737 24.3285C19.3737 24.0881 19.0518 24.4922 19.0811 24.1021C18.938 24.325 18.9445 24.1474 18.8372 24.3146C18.886 24.2101 18.7202 24.2275 18.899 24.0428C18.9153 24.0289 18.9217 24.0359 18.9022 24.0777L18.9803 23.9418C19.0388 23.6388 18.7787 24.015 18.7299 23.9348C18.7299 23.9941 18.7624 23.9975 18.6942 24.0811L18.6389 24.0254L18.7104 23.9139L18.6486 23.7885L18.5901 23.9418C18.5804 23.8408 18.6877 23.583 18.5316 23.7572C18.4503 23.8582 18.4796 23.9801 18.4048 23.9941C18.3918 23.8582 18.3723 23.6562 18.3138 23.5656C18.239 23.7328 18.2195 23.7154 18.1805 23.7328L18.2487 23.59C18.0634 23.7363 18.3788 23.2625 18.213 23.367L18.2715 23.273L18.0959 23.5551C17.8748 23.7885 18.2065 23.2381 17.9236 23.5691C17.9691 23.5656 17.7773 23.8896 17.7675 23.8025L17.8488 23.6736C17.8098 23.6875 17.7741 23.7398 17.7741 23.7049C17.8261 23.6388 17.8846 23.5133 17.8391 23.5133L17.9496 23.3566L17.7545 23.5691C17.7838 23.3949 17.6082 23.5308 17.6895 23.3252C17.6895 23.3252 17.6342 23.1685 17.5009 23.3635C17.592 23.2451 17.5595 23.1615 17.657 23.0187C17.553 23.1476 17.4066 23.2207 17.4587 23.0466L17.4749 23.0326C17.4424 22.8027 17.1563 23.1267 17.1563 22.8654C17.0718 23.0291 17.0653 22.9072 16.9645 23.1232C16.7434 23.259 16.997 22.5798 16.6068 23.1894C16.5386 23.1894 16.6296 23.0013 16.6231 22.9525L16.6524 22.9281C16.5321 22.9211 16.4996 22.9107 16.441 22.8515C16.3728 22.8898 16.2004 23.1824 16.1777 23.0709C16.2655 22.9664 16.2264 22.9734 16.2037 22.956C16.2297 22.949 16.259 22.9072 16.272 22.8097C16.246 22.8445 16.2264 22.8619 16.2102 22.8759C16.2167 22.8654 16.2167 22.8584 16.2264 22.848C16.1647 22.8654 16.1517 22.9037 16.1582 22.9316C16.1484 22.949 16.1354 22.9734 16.1224 23.0082C16.1679 22.8306 16.0054 22.9455 16.1159 22.7435C15.9761 22.7121 15.7713 22.8654 15.6314 22.8794C15.6802 22.7714 15.755 22.6947 15.807 22.6738L15.7192 22.6668C15.807 22.5205 15.807 22.6076 15.846 22.5937C15.9046 22.3011 15.5404 22.7191 15.5762 22.4369L15.4884 22.538L15.4949 22.5136C15.4591 22.5763 15.3876 22.6425 15.3616 22.6529C15.4234 22.5171 15.5372 22.3603 15.4852 22.3359C15.5209 22.1896 15.3453 22.3255 15.2543 22.3603C15.2673 22.3986 15.2153 22.4648 15.1795 22.4996C15.1535 22.4892 15.2185 22.3533 15.1665 22.3951L15.2673 22.221C15.1795 22.3882 15.1015 22.3533 15.0495 22.416C15.1145 22.2802 15.1503 22.3324 15.2153 22.2419C15.1145 22.1931 15.1633 22.2175 15.0625 22.1687C14.9357 22.2628 14.9714 22.3359 14.8576 22.4683C14.7926 22.4683 14.6756 22.5588 14.6886 22.423L14.6106 22.5832C14.4545 22.6425 14.4155 22.5867 14.4577 22.3951C13.7652 22.7853 13.4628 23.1754 13.3426 23.4715C13.219 23.7676 13.2775 23.9697 13.2775 23.9697C13.323 24.4852 13.7295 24.1404 14.1001 24.2309V24.2553Z" fill="#20BB65"/>
<path d="M28.7988 28.9233V29.0035C28.8093 28.9686 28.8128 28.9408 28.7988 28.9233Z" fill="#20BB65"/>
<path d="M34.3086 30.6163C34.3086 30.6163 34.3155 30.6094 34.3189 30.6025C34.312 30.606 34.312 30.6129 34.3086 30.6163Z" fill="#20BB65"/>
<path d="M28.9263 31.6299C28.9263 31.6299 28.9195 31.6402 28.916 31.6471L28.9298 31.6299H28.9263Z" fill="#20BB65"/>
<path d="M27.8558 31.0448C28.1256 31.2364 28.1029 31.5952 28.4508 31.5673C28.5906 31.644 28.7694 31.6196 28.9254 31.63C29.0685 31.3932 29.114 31.6893 29.2603 31.4977L29.2473 31.6579C29.2961 31.5917 29.3449 31.5534 29.3481 31.6405L29.3351 31.6823C29.4099 31.5847 29.4359 31.6649 29.4717 31.6161L29.4587 31.6579H29.5139L29.4879 31.7136C29.5952 31.6196 29.67 31.6335 29.722 31.7136L29.7675 31.5325C29.8521 31.7798 30.0081 31.4245 30.0666 31.7032L30.0537 31.745C30.3463 31.3235 30.2162 32.1491 30.5088 31.752C30.4731 31.8007 30.4926 31.846 30.4796 31.8913C30.5706 31.8634 30.6584 31.8634 30.7559 31.5081C30.8112 31.529 30.7689 31.6335 30.7397 31.7729C30.7819 31.6161 30.847 31.5673 30.8925 31.5708L30.8567 31.6231L30.9965 31.6091L31.0518 31.3095C31.0941 31.4141 30.9705 31.6718 31.0518 31.6196L31.1168 31.3757C31.1948 31.4524 31.1493 31.8356 31.1883 32.0446C31.5297 32.2606 32.0857 31.7589 32.3165 32.2919L32.284 32.48C32.2223 32.7483 32.4791 32.1108 32.4303 32.3616L32.5019 32.2501C32.5019 32.3024 32.5116 32.3581 32.4758 32.4138C32.5116 32.4347 32.5214 32.3929 32.5701 32.3198V32.4974C32.6807 32.6681 32.8855 32.386 33.0221 32.494C33.1196 32.8876 33.5455 32.6751 33.7894 32.5462C34.1665 32.2222 34.2348 33.3823 34.6347 33.0026C34.6347 33.0444 34.6802 32.9642 34.6867 32.9329L34.9403 33.0409C34.9403 33.0409 35.2557 33.1523 35.5093 32.9503C35.7661 32.7482 35.958 32.2362 35.7369 30.9926L35.7564 30.9368C35.6491 30.7557 35.5646 30.7034 35.3988 30.9717C35.467 30.6059 35.2915 30.902 35.285 30.7766L35.2947 30.7487C35.1419 31.003 35.1712 30.47 35.0281 30.6964C35.0379 30.6686 35.0639 30.571 35.0834 30.5676C35.0119 30.5954 34.9111 30.6547 34.9566 30.4422C34.8005 30.4561 34.6217 30.3063 34.4461 30.6163L34.4656 30.5606C34.3584 30.7731 34.3909 30.5745 34.3031 30.6721C34.3063 30.6442 34.3031 30.6268 34.3096 30.6163C34.199 30.8253 34.134 30.6024 34.0625 30.686L34.095 30.5467H33.9714L34.0072 30.5885C33.8967 30.9682 33.9812 30.3237 33.8349 30.5501C33.7699 30.4805 33.4805 31.3026 33.4447 31.0901C33.3602 31.2573 33.552 30.8079 33.461 30.9299C33.5098 30.7313 33.5195 30.8114 33.5455 30.6477C33.4642 30.7278 33.5033 30.4178 33.3992 30.5327L33.435 30.376C33.2724 30.6337 33.3147 30.1217 33.1879 30.376C33.0611 30.477 33.2431 29.8953 33.0676 30.1705L33.0839 29.951C33.0513 29.9057 32.9895 30.1983 32.9668 30.0834C33.0026 29.951 32.9343 29.9614 32.9961 29.843C32.944 29.6061 32.7099 30.0729 32.6644 29.6828C32.5669 29.9301 32.5376 29.7559 32.4661 29.944C32.4921 29.8325 32.3328 29.8848 32.4726 29.6653C32.4856 29.6479 32.4954 29.6549 32.4824 29.6967L32.5311 29.5469C32.5311 29.2369 32.3491 29.6618 32.284 29.5957C32.2938 29.6549 32.3263 29.6479 32.2808 29.7489L32.2157 29.7071L32.2645 29.5817L32.1767 29.4737L32.1507 29.6375C32.1215 29.5399 32.1735 29.2647 32.0564 29.4703C31.9947 29.5887 32.0499 29.7002 31.9817 29.7315C31.9394 29.6026 31.8809 29.4075 31.8028 29.3309C31.7638 29.5121 31.7411 29.4981 31.7053 29.526L31.7443 29.3692C31.5915 29.5539 31.8028 29.0174 31.663 29.1602L31.7021 29.0557L31.5882 29.3727C31.4192 29.6514 31.6305 29.0383 31.4224 29.4285C31.4679 29.4145 31.3476 29.7733 31.3184 29.6932L31.3704 29.5469C31.3379 29.5713 31.3119 29.6305 31.3021 29.5957C31.3379 29.519 31.3704 29.3797 31.3249 29.3936L31.3997 29.2159L31.2534 29.4668C31.2436 29.2891 31.1006 29.4633 31.1396 29.2438C31.1396 29.2438 31.0518 29.1045 30.9608 29.324C31.0225 29.1881 30.9738 29.1149 31.0388 28.9512C30.964 29.1045 30.8372 29.209 30.8502 29.0244L30.8632 29.0069C30.7819 28.7875 30.5706 29.1742 30.5121 28.9233C30.4666 29.1045 30.4308 28.986 30.382 29.2194C30.1934 29.4041 30.2942 28.683 30.0439 29.3727C29.9756 29.3936 30.0244 29.1846 30.0081 29.1393L30.0309 29.108C29.9106 29.1323 29.8781 29.1289 29.8066 29.0871C29.748 29.1428 29.6472 29.4703 29.5985 29.3658C29.6602 29.2438 29.6245 29.2578 29.5985 29.2473C29.6212 29.2334 29.6407 29.1881 29.631 29.0871C29.6147 29.1254 29.5985 29.1498 29.5855 29.1672C29.5855 29.1567 29.5887 29.1498 29.5952 29.1358C29.5399 29.1672 29.5334 29.209 29.5497 29.2334C29.5432 29.2543 29.5367 29.2787 29.5334 29.317C29.5367 29.1324 29.4034 29.2856 29.4652 29.0592C29.3189 29.0662 29.1595 29.2647 29.023 29.3135C29.0457 29.1951 29.101 29.101 29.1465 29.0662L29.0588 29.0801C29.1108 28.9164 29.1303 29 29.166 28.9756C29.1563 28.676 28.8994 29.1776 28.8637 28.8955L28.8019 29.0174V28.993C28.7824 29.0627 28.7304 29.1463 28.7076 29.1637C28.7369 29.0139 28.8084 28.8328 28.7531 28.8223C28.7531 28.6691 28.6133 28.8502 28.5353 28.9094C28.558 28.9443 28.5223 29.0209 28.4963 29.0662C28.467 29.0627 28.4963 28.9129 28.4573 28.9686L28.5158 28.7736C28.4703 28.9582 28.3857 28.9442 28.3532 29.0209C28.3825 28.8711 28.4312 28.9129 28.4735 28.8049C28.363 28.784 28.4183 28.7945 28.3077 28.777C28.2069 28.9025 28.2622 28.9652 28.1809 29.1254C28.1191 29.1463 28.0281 29.2613 28.0053 29.1254L27.9696 29.303C27.833 29.4041 27.7843 29.3623 27.7745 29.1637C27.2023 29.735 27.0104 30.1948 26.9649 30.5188C26.9194 30.8393 27.0202 31.0204 27.0202 31.0204C27.1828 31.5012 27.4884 31.0553 27.8623 31.0413L27.8558 31.0448Z" fill="#20BB65"/>
<path d="M43.084 32.7341L43.0944 32.8142C43.1014 32.7794 43.1014 32.7481 43.084 32.7341Z" fill="#20BB65"/>
<path d="M48.7715 33.7477C48.7715 33.7477 48.7749 33.7374 48.7784 33.7305C48.7749 33.7374 48.7715 33.7408 48.7715 33.7477Z" fill="#20BB65"/>
<path d="M43.5298 35.4023C43.5298 35.4023 43.523 35.4127 43.5195 35.4196L43.5298 35.4023Z" fill="#20BB65"/>
<path d="M42.405 34.9706C42.6912 35.1204 42.7139 35.4826 43.052 35.406C43.1983 35.4652 43.3707 35.4165 43.5267 35.406C43.6438 35.1517 43.7218 35.4408 43.8421 35.2283L43.8486 35.3886C43.8909 35.3154 43.9331 35.2701 43.9461 35.3607L43.9364 35.406C43.9982 35.298 44.0339 35.3781 44.0664 35.3224L44.0567 35.3677L44.112 35.3572L44.0925 35.42C44.1867 35.312 44.2648 35.3189 44.3233 35.3851L44.3493 35.2005C44.4598 35.4339 44.5736 35.0611 44.6647 35.3294L44.6549 35.3747C44.8988 34.9183 44.8598 35.7544 45.1036 35.3224C45.0743 35.3747 45.0971 35.4199 45.0873 35.4652C45.1751 35.4269 45.2629 35.413 45.3214 35.0507C45.3767 35.0646 45.3507 35.1726 45.3344 35.3154C45.3605 35.1552 45.419 35.0995 45.4645 35.096L45.4352 35.1552L45.5718 35.1238L45.5945 34.8173C45.6466 34.9148 45.5523 35.1865 45.6303 35.1273L45.6693 34.8765C45.7539 34.9427 45.7474 35.3294 45.8091 35.5314C46.1668 35.7056 46.6675 35.1413 46.9503 35.6429L46.9373 35.8345C46.9016 36.1097 47.0966 35.4443 47.0706 35.7021L47.1291 35.5837C47.1324 35.6359 47.1487 35.6917 47.1194 35.7509C47.1552 35.7683 47.1617 35.723 47.2039 35.6464L47.2169 35.824C47.347 35.9808 47.5193 35.6743 47.6656 35.7683C47.8022 36.148 48.2021 35.8867 48.4329 35.7369C48.7775 35.3747 48.9531 36.5207 49.314 36.0992C49.3173 36.141 49.3563 36.0574 49.3595 36.0261L49.6229 36.1062C49.6229 36.1062 50.9039 36.4162 50.2341 33.9847L50.2504 33.9255C50.1236 33.7583 50.039 33.7095 49.896 33.9952C49.9318 33.6224 49.7822 33.9394 49.766 33.814L49.7724 33.7862C49.6456 34.0544 49.6229 33.5214 49.5026 33.7618C49.5091 33.7339 49.5253 33.6329 49.5481 33.6294C49.4798 33.6643 49.3823 33.7339 49.4083 33.5179C49.2522 33.5493 49.0604 33.4169 48.9141 33.7444L48.9304 33.6851C48.8426 33.9081 48.8556 33.7095 48.7775 33.814C48.7775 33.7862 48.7775 33.7688 48.7775 33.7583C48.6865 33.9778 48.5987 33.7653 48.537 33.8558L48.5532 33.713L48.4297 33.7269L48.4687 33.7653C48.3971 34.1554 48.4167 33.504 48.2931 33.7444C48.2216 33.6817 48.0103 34.5317 47.955 34.3261C47.8867 34.5038 48.033 34.0335 47.955 34.1659C47.9842 33.9603 48.0005 34.0439 48.0103 33.8767C47.9387 33.9638 47.9452 33.6503 47.8542 33.7792L47.8737 33.619C47.7371 33.8942 47.7306 33.3786 47.6266 33.6468C47.5096 33.7618 47.6331 33.1626 47.4868 33.4587L47.4803 33.2358C47.4413 33.194 47.4088 33.4936 47.3795 33.3821C47.4023 33.2462 47.3372 33.2636 47.3828 33.1382C47.308 32.9083 47.1194 33.3995 47.0316 33.0163C46.9601 33.2741 46.9146 33.1034 46.8593 33.2985C46.8723 33.1835 46.7195 33.2532 46.8365 33.0198C46.8463 32.9989 46.8593 33.0059 46.8495 33.0511L46.882 32.8979C46.8463 32.5878 46.7097 33.0337 46.6382 32.9745C46.6545 33.0303 46.687 33.0233 46.6512 33.1243L46.5797 33.0895L46.6155 32.9606L46.5179 32.863L46.5082 33.0302C46.4659 32.9362 46.4919 32.6575 46.3944 32.877C46.3456 33.0024 46.4106 33.1069 46.3456 33.1452C46.2903 33.0198 46.209 32.8352 46.1245 32.769C46.105 32.9536 46.079 32.9432 46.0497 32.9745L46.0725 32.8143C45.9392 33.0163 46.092 32.4589 45.9684 32.6157L45.9945 32.5077L45.9164 32.8352C45.7799 33.1348 45.9229 32.4973 45.7571 32.9083C45.7994 32.8874 45.7181 33.2602 45.6823 33.1835L45.7181 33.0337C45.6856 33.0616 45.6661 33.1243 45.6563 33.0895C45.6856 33.0094 45.7018 32.8665 45.6563 32.8874L45.7116 32.6993L45.5945 32.9675C45.5653 32.7934 45.4417 32.9815 45.4547 32.762C45.4547 32.762 45.3507 32.6331 45.2857 32.8665C45.3344 32.7237 45.2759 32.654 45.3247 32.4868C45.2662 32.6471 45.1524 32.7655 45.1426 32.5809L45.1524 32.5635C45.0451 32.3579 44.8793 32.7655 44.7915 32.5251C44.7655 32.7098 44.7199 32.5983 44.6939 32.8352C44.5281 33.0442 44.5444 32.3126 44.3753 33.0302C44.3103 33.0581 44.3363 32.8456 44.3135 32.8038L44.333 32.769C44.216 32.8073 44.1835 32.8073 44.1055 32.776C44.0534 32.8387 43.9884 33.1766 43.9299 33.079C43.9754 32.9501 43.9429 32.9675 43.9169 32.9641C43.9364 32.9466 43.9527 32.8979 43.9299 32.8003C43.9169 32.8421 43.9071 32.8665 43.8941 32.8839C43.8941 32.8735 43.8941 32.8665 43.8974 32.8491C43.8453 32.8874 43.8454 32.9327 43.8616 32.9536C43.8584 32.9745 43.8551 32.9989 43.8551 33.0407C43.8388 32.8596 43.7218 33.0268 43.7576 32.7969C43.6145 32.8247 43.4747 33.0442 43.3479 33.1104C43.3544 32.9885 43.3999 32.8909 43.4422 32.8491L43.3544 32.877C43.3837 32.7063 43.4162 32.7864 43.4487 32.7585C43.4032 32.4624 43.2049 32.9954 43.1398 32.7202L43.0943 32.8491V32.8247C43.0781 32.8979 43.0358 32.9884 43.0163 33.0093C43.026 32.8561 43.0781 32.668 43.0195 32.6645C43 32.5112 42.883 32.7098 42.8114 32.7794C42.8375 32.8108 42.8115 32.8909 42.7919 32.9397C42.7627 32.9397 42.7724 32.7864 42.7399 32.8456L42.7724 32.6436C42.7497 32.8352 42.6651 32.8317 42.6391 32.9118C42.6489 32.7585 42.7042 32.7934 42.7302 32.6819C42.6164 32.6784 42.6749 32.6819 42.5611 32.6749C42.4766 32.8143 42.5383 32.8665 42.4798 33.0372C42.4213 33.0651 42.3433 33.194 42.3075 33.0616L42.2945 33.2428C42.1709 33.3612 42.1157 33.3263 42.0832 33.1347C41.0883 34.4306 41.5695 35.0786 41.5695 35.0786C41.7873 35.5314 42.0344 35.0472 42.4018 34.9775L42.405 34.9706Z" fill="#20BB65"/>
<path d="M57.7227 35.0474L57.7356 35.124C57.7389 35.0892 57.7357 35.0578 57.7227 35.0474Z" fill="#20BB65"/>
<path d="M63.4746 35.6881C63.4746 35.6881 63.4781 35.6778 63.4815 35.6709C63.4781 35.6778 63.4746 35.6812 63.4746 35.6881Z" fill="#20BB65"/>
<path d="M58.335 37.6738C58.335 37.6738 58.3316 37.6842 58.3281 37.691L58.3384 37.6738H58.335Z" fill="#20BB65"/>
<path d="M57.1902 37.3325C57.486 37.4579 57.5283 37.8167 57.8599 37.7122C58.0095 37.7575 58.1786 37.6948 58.3314 37.6704C58.4322 37.4056 58.5264 37.6878 58.6337 37.4718L58.65 37.6286C58.6858 37.5554 58.7248 37.5067 58.7475 37.5903L58.741 37.6356C58.7963 37.5241 58.8385 37.5972 58.8646 37.5415L58.8581 37.5868L58.9133 37.5728L58.8971 37.6356C58.9849 37.5206 59.0629 37.5206 59.1247 37.5868L59.1377 37.3987C59.2612 37.6251 59.3555 37.2419 59.4596 37.5067L59.4531 37.5519C59.6709 37.0782 59.6774 37.9177 59.8985 37.4683C59.8725 37.5241 59.8985 37.5659 59.892 37.6112C59.9765 37.5659 60.061 37.5485 60.1001 37.1827C60.1553 37.1931 60.1358 37.3046 60.1261 37.444C60.1423 37.2837 60.1976 37.221 60.2431 37.2175L60.2171 37.2767L60.3504 37.2384L60.3569 36.9319C60.4155 37.0259 60.3374 37.3046 60.4089 37.2384L60.435 36.9876C60.5227 37.0468 60.539 37.4335 60.6105 37.6321C60.9779 37.7819 61.4461 37.1897 61.7517 37.6704V37.862C61.7289 38.1372 61.885 37.4649 61.8753 37.7226L61.9273 37.6007C61.9338 37.653 61.9533 37.7087 61.9273 37.7679C61.963 37.7819 61.9695 37.7366 62.0053 37.6565L62.0281 37.8341C62.1646 37.9839 62.324 37.6669 62.4735 37.754C62.6263 38.1267 63.0132 37.8446 63.2343 37.6808C63.5594 37.3011 63.7903 38.4402 64.1284 38.0013C64.1349 38.0431 64.1674 37.956 64.1707 37.9247L64.434 37.9943C64.434 37.9943 65.7248 38.2521 64.9477 35.8485L64.9607 35.7893C64.8274 35.6256 64.7396 35.5838 64.6096 35.8729C64.6291 35.5002 64.4926 35.8206 64.4698 35.6952L64.4763 35.6639C64.3592 35.9391 64.3137 35.4061 64.2064 35.6499C64.2129 35.6221 64.2227 35.5176 64.2455 35.5141C64.1772 35.5524 64.0862 35.6256 64.0992 35.4096C63.9431 35.4479 63.7447 35.326 63.6179 35.6569L63.631 35.5977C63.5529 35.8241 63.5562 35.6256 63.4847 35.737C63.4847 35.7092 63.4814 35.6918 63.4847 35.6813C63.4034 35.9042 63.3091 35.6987 63.2506 35.7893L63.2603 35.6465L63.14 35.6674L63.1823 35.7022C63.1303 36.0958 63.1173 35.4444 63.0067 35.6917C62.932 35.6325 62.7629 36.493 62.6978 36.2909C62.6393 36.4721 62.7629 35.9948 62.6881 36.1307C62.7076 35.9251 62.7271 36.0053 62.7303 35.838C62.6621 35.9286 62.6556 35.6186 62.5678 35.7475L62.5808 35.5872C62.4572 35.8694 62.4247 35.3573 62.3337 35.629C62.2231 35.751 62.3142 35.1448 62.1841 35.4479L62.1679 35.2284C62.1289 35.1901 62.1093 35.4897 62.0736 35.3782C62.0898 35.2424 62.0248 35.2633 62.0639 35.1344C61.9761 34.908 61.8135 35.4131 61.7062 35.0334C61.6477 35.2946 61.5924 35.1274 61.5501 35.326C61.5566 35.211 61.4071 35.2911 61.5144 35.0473C61.5241 35.0264 61.5339 35.0334 61.5306 35.0786L61.5566 34.9219C61.5046 34.6153 61.3908 35.0682 61.316 35.0125C61.3355 35.0682 61.3681 35.0577 61.3356 35.1622L61.264 35.1309L61.2933 34.9985L61.1892 34.9079V35.0752C61.1405 34.9846 61.1502 34.7024 61.0657 34.9288C61.0234 35.0543 61.095 35.1553 61.0332 35.2006C60.9714 35.0787 60.8804 34.8975 60.7926 34.8383C60.7828 35.0229 60.7568 35.0159 60.7276 35.0473L60.7406 34.887C60.6203 35.0995 60.7406 34.5317 60.6235 34.6955L60.643 34.584L60.5812 34.9149C60.4609 35.2215 60.5682 34.577 60.4252 34.9985C60.4675 34.9741 60.4057 35.3538 60.3667 35.2772L60.3959 35.1239C60.3667 35.1553 60.3504 35.218 60.3374 35.1831C60.3634 35.103 60.3699 34.9602 60.3276 34.9811L60.3732 34.7895L60.2691 35.0647C60.2301 34.894 60.1163 35.0891 60.1163 34.8696C60.1163 34.8696 60.0058 34.7477 59.9538 34.9846C59.9928 34.8383 59.931 34.7756 59.97 34.6014C59.9212 34.7651 59.814 34.8905 59.7945 34.7094L59.8042 34.6885C59.6839 34.4899 59.5408 34.9114 59.44 34.6746C59.427 34.8627 59.3718 34.7512 59.362 34.9916C59.2092 35.211 59.18 34.483 59.0532 35.211C58.9914 35.2424 59.0011 35.0299 58.9751 34.9881L58.9946 34.9497C58.8776 34.9985 58.8451 35.002 58.767 34.9741C58.7183 35.0403 58.676 35.3817 58.611 35.2911C58.65 35.1588 58.6175 35.1797 58.5882 35.1762C58.6077 35.1553 58.6175 35.1065 58.5915 35.0125C58.5817 35.0543 58.572 35.0786 58.5622 35.0995C58.5622 35.0891 58.5622 35.0821 58.5622 35.0647C58.5102 35.1065 58.5135 35.1518 58.533 35.1727C58.5297 35.1936 58.5297 35.2215 58.533 35.2598C58.5037 35.0786 58.3996 35.2598 58.4191 35.0229C58.2761 35.0612 58.1525 35.2911 58.029 35.3678C58.029 35.2459 58.068 35.1448 58.107 35.0995L58.0225 35.1344C58.042 34.9637 58.081 35.0403 58.107 35.009C58.042 34.7198 57.8794 35.2633 57.7949 34.995L57.7559 35.1274V35.103C57.7429 35.1762 57.7071 35.2702 57.6876 35.2911C57.6876 35.1379 57.7266 34.9463 57.6714 34.9463C57.6421 34.7965 57.5381 35.0055 57.4698 35.0786C57.499 35.1065 57.4795 35.1901 57.46 35.2424C57.4308 35.2424 57.4307 35.0926 57.4047 35.1553L57.4243 34.9532C57.4145 35.1448 57.33 35.1518 57.3105 35.2319C57.3105 35.0786 57.369 35.1065 57.3885 34.995C57.2747 35.002 57.33 34.995 57.2162 35.0055C57.1381 35.1518 57.2064 35.1971 57.1576 35.3713C57.0991 35.4061 57.0341 35.5385 56.9853 35.4096V35.5907C56.8683 35.7196 56.813 35.6917 56.7675 35.5002C55.8636 36.8796 56.3871 37.4823 56.3871 37.4823C56.6342 37.9142 56.8455 37.4091 57.2064 37.3081L57.1902 37.3325Z" fill="#20BB65"/>
<path d="M72.4824 36.6357L72.4987 36.7124C72.4987 36.6775 72.4987 36.6462 72.4824 36.6357Z" fill="#20BB65"/>
<path d="M78.2637 37.172C78.2637 37.172 78.2671 37.1617 78.2706 37.1548C78.2671 37.1617 78.2637 37.1651 78.2637 37.172Z" fill="#20BB65"/>
<path d="M73.1573 39.252C73.1573 39.252 73.1538 39.2623 73.1504 39.2692L73.1607 39.252H73.1573Z" fill="#20BB65"/>
<path d="M72.0117 38.9349C72.3076 39.0568 72.3596 39.4121 72.688 39.3007C72.8375 39.3425 73.0034 39.2798 73.1562 39.2519C73.2505 38.9872 73.3512 39.2658 73.452 39.0464L73.4716 39.2031C73.5073 39.1265 73.5463 39.0777 73.5659 39.1648L73.5593 39.2101C73.6114 39.0986 73.6536 39.1718 73.6796 39.1161L73.6731 39.1613L73.7252 39.1474L73.7121 39.2101C73.7967 39.0917 73.8747 39.0917 73.9365 39.1544L73.9462 38.9663C74.073 39.1892 74.1576 38.806 74.2681 39.0673L74.2616 39.1126C74.4697 38.6353 74.4925 39.4748 74.7038 39.022C74.6778 39.0777 74.7038 39.1195 74.6973 39.1648C74.7786 39.1195 74.8664 39.0986 74.8989 38.7329C74.9541 38.7433 74.9346 38.8513 74.9314 38.9941C74.9444 38.8339 74.9996 38.7712 75.0452 38.7642L75.0192 38.8234L75.1525 38.7816V38.4751C75.2143 38.5691 75.1395 38.8478 75.211 38.7816L75.2305 38.5308C75.3183 38.59 75.341 38.9767 75.4158 39.1718C75.7832 39.3146 76.2416 38.712 76.5538 39.1892V39.3808C76.5343 39.6595 76.6838 38.9802 76.6773 39.238L76.7293 39.1161C76.7358 39.1648 76.7554 39.2206 76.7293 39.2833C76.7651 39.2972 76.7716 39.2519 76.8041 39.1718L76.8301 39.346C76.9667 39.4923 77.1227 39.1753 77.2723 39.2554C77.4283 39.6246 77.812 39.3355 78.0299 39.1683C78.3517 38.7816 78.5858 39.9172 78.9207 39.4714C78.9272 39.5097 78.9597 39.4261 78.963 39.3947L79.2263 39.4609C79.2263 39.4609 80.5171 39.6943 79.7335 37.3081L79.7465 37.2489C79.6132 37.0886 79.5222 37.0468 79.3954 37.3394C79.4116 36.9667 79.2784 37.2907 79.2556 37.1653L79.2621 37.1339C79.1483 37.4126 79.0995 36.8796 78.989 37.127C78.9955 37.0991 79.0052 36.9946 79.0247 36.9911C78.9565 37.0329 78.8654 37.1061 78.8784 36.8901C78.7224 36.9319 78.5208 36.8134 78.394 37.1479L78.407 37.0886C78.3322 37.3151 78.3322 37.1165 78.2607 37.228C78.2607 37.2001 78.2574 37.1862 78.2607 37.1722C78.1794 37.3952 78.0819 37.1897 78.0266 37.2837L78.0364 37.1409L77.9128 37.1618L77.9551 37.1966C77.9063 37.5903 77.8868 36.9388 77.7795 37.1862C77.7015 37.1269 77.5421 37.9909 77.4771 37.7888C77.4218 37.97 77.5389 37.4927 77.4674 37.6286C77.4836 37.4231 77.5064 37.5032 77.5064 37.336C77.4381 37.4266 77.4284 37.1165 77.3438 37.2489L77.3536 37.0886C77.2333 37.3708 77.1943 36.8587 77.1065 37.1339C76.996 37.2559 77.0837 36.6532 76.9537 36.9563L76.9342 36.7368C76.8952 36.6985 76.8789 36.9981 76.8399 36.8901C76.8561 36.7542 76.7878 36.7751 76.8269 36.6497C76.7358 36.4268 76.5798 36.9319 76.466 36.5557C76.4107 36.8169 76.3522 36.6532 76.3132 36.8518C76.3197 36.7368 76.1701 36.8204 76.2742 36.5766C76.2839 36.5557 76.2937 36.5626 76.2904 36.6079L76.3132 36.4512C76.2579 36.1446 76.1506 36.6009 76.0726 36.5452C76.0921 36.6009 76.1246 36.5905 76.0953 36.695L76.0205 36.6671L76.0466 36.5348L75.9425 36.4477V36.6149C75.897 36.5243 75.9003 36.2421 75.819 36.4721C75.78 36.6009 75.8515 36.6985 75.7897 36.7438C75.7247 36.6253 75.6304 36.4442 75.5426 36.3885C75.5361 36.5731 75.5101 36.5661 75.4809 36.6009L75.4906 36.4407C75.3703 36.6532 75.4841 36.0854 75.3703 36.2526L75.3898 36.1411L75.3345 36.4755C75.2175 36.7856 75.315 36.1376 75.1785 36.5626C75.2207 36.5382 75.1655 36.9179 75.1232 36.8448L75.1492 36.6915C75.12 36.7229 75.1037 36.7856 75.0907 36.7507C75.1134 36.6671 75.1199 36.5278 75.0777 36.5487L75.1199 36.3571L75.0224 36.6358C74.9802 36.4651 74.8696 36.6636 74.8664 36.4442C74.8664 36.4442 74.7526 36.3257 74.7038 36.5626C74.7428 36.4163 74.6778 36.3536 74.7135 36.1794C74.668 36.3432 74.5607 36.4721 74.538 36.2909L74.5477 36.27C74.4242 36.0749 74.2876 36.4964 74.1836 36.263C74.1738 36.4512 74.1153 36.3432 74.112 36.5835C73.9625 36.8065 73.917 36.0749 73.8064 36.8065C73.7447 36.8413 73.7512 36.6288 73.7252 36.587L73.7414 36.5487C73.6276 36.5975 73.5919 36.6009 73.5138 36.5766C73.4683 36.6427 73.4326 36.9841 73.3643 36.8971C73.4 36.7647 73.3643 36.7856 73.3415 36.7821C73.361 36.7612 73.3708 36.7124 73.3415 36.6184C73.3317 36.6602 73.322 36.6845 73.3122 36.7054C73.3122 36.695 73.3122 36.6845 73.3122 36.6706C73.2635 36.7159 73.2667 36.7577 73.2862 36.7786C73.2862 36.7995 73.283 36.8274 73.2862 36.8657C73.2537 36.6845 73.1529 36.8657 73.1659 36.6323C73.0229 36.6741 72.9058 36.904 72.7823 36.9841C72.7823 36.8622 72.8148 36.7577 72.8538 36.7159L72.7693 36.7507C72.7855 36.5766 72.8245 36.6567 72.8538 36.6253C72.7823 36.3362 72.6295 36.8831 72.5384 36.6184L72.5027 36.7542V36.7298C72.4929 36.803 72.4571 36.8971 72.4409 36.9214C72.4376 36.7682 72.4702 36.5731 72.4149 36.5766C72.3824 36.4268 72.2816 36.6358 72.2166 36.7124C72.2458 36.7403 72.2296 36.8239 72.2101 36.8762C72.1808 36.8762 72.1775 36.7264 72.1515 36.7891L72.1645 36.587C72.158 36.7786 72.0735 36.7856 72.0573 36.8692C72.054 36.7159 72.1125 36.7438 72.1288 36.6323C72.015 36.6393 72.0702 36.6358 71.9564 36.6427C71.8849 36.789 71.9499 36.8343 71.9077 37.012C71.8524 37.0468 71.7874 37.1827 71.7386 37.0538V37.2349C71.6313 37.3638 71.5728 37.3394 71.5208 37.1479C70.6559 38.5447 71.1957 39.1404 71.1957 39.1404C71.4525 39.5689 71.6476 39.0568 72.0052 38.9488L72.0117 38.9349Z" fill="#20BB65"/>
<path d="M87.3105 38.2417L87.3235 38.3183C87.3268 38.2835 87.3236 38.2521 87.3105 38.2417Z" fill="#20BB65"/>
<path d="M93.1094 39.3248C93.1094 39.3248 93.1163 39.3179 93.1197 39.311C93.1128 39.3145 93.1128 39.3214 93.1094 39.3248Z" fill="#20BB65"/>
<path d="M87.8599 40.8857C87.8599 40.8857 87.8531 40.8961 87.8496 40.903L87.8599 40.8857Z" fill="#20BB65"/>
<path d="M86.744 40.5129C87.0333 40.6453 87.0691 41.0041 87.3942 40.91C87.5373 40.9588 87.7064 40.903 87.8559 40.8856C87.96 40.6244 88.0445 40.91 88.1583 40.6975L88.168 40.8543C88.207 40.7811 88.2461 40.7324 88.2623 40.8195L88.2558 40.8647C88.3143 40.7533 88.3501 40.8334 88.3794 40.7776L88.3729 40.8229L88.4249 40.8125L88.4086 40.8752C88.4997 40.7637 88.5745 40.7672 88.633 40.8369L88.6557 40.6488C88.7663 40.8787 88.8736 40.5025 88.9646 40.7707L88.9549 40.816C89.1889 40.3562 89.1564 41.1922 89.3938 40.7567C89.3645 40.8125 89.3873 40.8543 89.3808 40.8996C89.4653 40.8613 89.5498 40.8473 89.6084 40.4816C89.6636 40.4955 89.6344 40.6035 89.6214 40.7463C89.6474 40.5861 89.7059 40.5303 89.7514 40.5268L89.7221 40.5861L89.8555 40.5547L89.8782 40.2482C89.9302 40.3457 89.836 40.6174 89.9107 40.5582L89.9498 40.3074C90.0343 40.3736 90.0245 40.7602 90.083 40.9623C90.4277 41.1365 90.9316 40.5826 91.1885 41.0912L91.169 41.2793C91.1235 41.5545 91.338 40.8961 91.3023 41.1504L91.3641 41.0354C91.3641 41.0877 91.3803 41.1434 91.3478 41.1992C91.3803 41.2166 91.3901 41.1748 91.4323 41.0981L91.4388 41.2758C91.5526 41.4395 91.7412 41.1399 91.8745 41.241C91.9818 41.6241 92.3785 41.3907 92.6125 41.2619C92.9799 40.9309 93.0287 42.0875 93.4091 41.7112C93.4091 41.753 93.4546 41.6729 93.4611 41.6416L93.6952 41.7565C93.6952 41.7565 93.9813 41.875 94.2382 41.6938C94.4885 41.5057 94.7584 41.025 94.5958 39.757L94.6186 39.7012C94.5113 39.5097 94.4235 39.4504 94.2414 39.7082C94.3227 39.3459 94.1309 39.6316 94.1277 39.5062L94.1374 39.4783C93.9749 39.7256 94.0106 39.1927 93.8578 39.4156C93.8675 39.3877 93.8968 39.2902 93.9163 39.2902C93.8415 39.3181 93.7342 39.3703 93.783 39.1613C93.6172 39.1718 93.4254 39.0185 93.2498 39.325L93.2693 39.2693C93.162 39.4818 93.1913 39.2832 93.1002 39.3808C93.1002 39.3529 93.1002 39.3355 93.1067 39.325C92.9962 39.534 92.9247 39.3146 92.8531 39.3982L92.8824 39.2588H92.7556L92.7946 39.3041C92.6938 39.6873 92.7556 39.0394 92.6158 39.2658C92.5443 39.1961 92.2809 40.0287 92.2386 39.8197C92.1606 39.9904 92.3362 39.534 92.2451 39.6594C92.2842 39.4574 92.3004 39.541 92.3167 39.3738C92.2386 39.4539 92.2614 39.1439 92.1639 39.2623L92.1931 39.1056C92.0403 39.3703 92.0566 38.8582 91.9363 39.1195C91.8127 39.2275 91.9623 38.6353 91.7997 38.9209V38.698C91.764 38.6527 91.7185 38.9523 91.6892 38.8373C91.7185 38.705 91.6469 38.7154 91.7022 38.5935C91.6306 38.3601 91.4226 38.8443 91.3445 38.4576C91.2665 38.7119 91.221 38.5412 91.1625 38.7328C91.1787 38.6179 91.0194 38.6841 91.1462 38.4541C91.156 38.4367 91.169 38.4402 91.1592 38.4855L91.1982 38.3322C91.1657 38.0222 91.0194 38.4646 90.9446 38.4019C90.9609 38.4576 90.9934 38.4507 90.9544 38.5552L90.8829 38.5203L90.9219 38.3914L90.8211 38.2939L90.8081 38.4576C90.7658 38.3636 90.7951 38.0849 90.691 38.3009C90.6423 38.4228 90.7073 38.5308 90.639 38.5691C90.5838 38.4437 90.4992 38.2556 90.4147 38.1894C90.3919 38.374 90.3692 38.3636 90.3366 38.3949L90.3594 38.2347C90.2228 38.4367 90.3789 37.8794 90.2521 38.0361L90.2781 37.9281L90.1968 38.2556C90.057 38.5552 90.2001 37.9177 90.031 38.3287C90.0733 38.3078 89.9952 38.6841 89.9562 38.6039L89.992 38.4541C89.9595 38.482 89.94 38.5447 89.927 38.5099C89.9562 38.4298 89.9692 38.2869 89.927 38.3078L89.9823 38.1197L89.862 38.388C89.8295 38.2138 89.7059 38.4054 89.7156 38.1824C89.7156 38.1824 89.6084 38.0535 89.5434 38.2869C89.5921 38.1441 89.5303 38.0744 89.5759 37.9072C89.5173 38.0675 89.4035 38.1894 89.3905 38.0048L89.4003 37.9874C89.2865 37.7818 89.1239 38.1964 89.0296 37.956C89.0101 38.1406 88.9581 38.0292 88.9386 38.2695C88.776 38.482 88.7695 37.7505 88.62 38.4716C88.5549 38.5029 88.5744 38.2904 88.5484 38.2451L88.568 38.2103C88.4477 38.2521 88.4151 38.2556 88.3371 38.2242C88.2851 38.2904 88.2331 38.6283 88.1713 38.5343C88.2135 38.4019 88.1811 38.4228 88.1518 38.4193C88.1713 38.4019 88.1843 38.3531 88.1616 38.2556C88.1518 38.2974 88.1388 38.3218 88.129 38.3427C88.129 38.3322 88.129 38.3253 88.1323 38.3078C88.0802 38.3496 88.0835 38.3914 88.0998 38.4123C88.0965 38.4332 88.0933 38.4611 88.0965 38.4994C88.0737 38.3183 87.9632 38.489 87.9892 38.2591C87.8429 38.2939 87.7129 38.5169 87.5893 38.59C87.5893 38.4681 87.6316 38.3671 87.6706 38.3253L87.5828 38.3566C87.6056 38.1859 87.6413 38.266 87.6706 38.2347C87.6088 37.9421 87.4365 38.482 87.3552 38.2103L87.3129 38.3427V38.3183C87.2999 38.3914 87.2609 38.4855 87.2414 38.5064C87.2414 38.3531 87.287 38.1615 87.2284 38.1615C87.2024 38.0117 87.0919 38.2173 87.0236 38.2869C87.0529 38.3183 87.0301 38.3984 87.0106 38.4507C86.9813 38.4507 86.9846 38.3009 86.9553 38.3601L86.9781 38.1581C86.9651 38.3496 86.8805 38.3531 86.8578 38.4332C86.8578 38.28 86.9163 38.3113 86.9391 38.1999C86.8253 38.1999 86.8805 38.1999 86.7667 38.2033C86.6887 38.3462 86.7537 38.3949 86.7049 38.5691C86.6464 38.6005 86.5782 38.7363 86.5327 38.6039V38.7851C86.4156 38.9105 86.3571 38.8826 86.3116 38.691C85.4012 40.0531 85.9214 40.6697 85.9214 40.6697C86.162 41.1051 86.3701 40.6035 86.731 40.5129H86.744Z" fill="#20BB65"/>
<path d="M101.258 44.3237L101.229 44.3969C101.251 44.3725 101.264 44.3446 101.258 44.3237Z" fill="#20BB65"/>
<path d="M105.244 49.1172C105.244 49.1172 105.254 49.1172 105.26 49.1138C105.254 49.1138 105.247 49.1138 105.244 49.1172Z" fill="#20BB65"/>
<path d="M100.286 46.8215C100.286 46.8215 100.276 46.825 100.27 46.8318L100.286 46.8215Z" fill="#20BB65"/>
<path d="M99.6024 45.8671C99.7682 46.1423 99.5992 46.4593 99.9081 46.5707C99.9958 46.6961 100.155 46.7519 100.285 46.8216C100.51 46.6753 100.422 46.9539 100.627 46.8494L100.545 46.9818C100.617 46.947 100.672 46.933 100.636 47.0132L100.607 47.0445C100.714 46.9923 100.698 47.0759 100.753 47.0515L100.721 47.0828L100.77 47.1072L100.721 47.1455C100.854 47.1107 100.913 47.1595 100.919 47.25L101.039 47.1142C100.994 47.3685 101.29 47.1351 101.209 47.4068L101.176 47.4382C101.621 47.2187 101.118 47.8597 101.547 47.6681C101.491 47.6924 101.485 47.7412 101.452 47.7691C101.54 47.79 101.612 47.8353 101.869 47.5879C101.901 47.6367 101.82 47.6994 101.726 47.8039C101.836 47.6959 101.917 47.689 101.953 47.7168L101.898 47.7412L102.018 47.8039L102.213 47.581C102.197 47.6924 101.966 47.8422 102.057 47.8422L102.233 47.675C102.259 47.783 102.025 48.0791 101.95 48.2707C102.106 48.626 102.821 48.5424 102.707 49.1033L102.577 49.2322C102.379 49.4098 102.935 49.0545 102.756 49.2252L102.873 49.1799C102.844 49.2182 102.818 49.2705 102.759 49.2949C102.772 49.3332 102.808 49.3053 102.886 49.274L102.782 49.4133C102.769 49.6154 103.088 49.5143 103.13 49.685C102.971 50.0508 103.413 50.1448 103.667 50.2145C104.148 50.225 103.465 51.1237 103.985 51.1133C103.959 51.1411 104.04 51.1133 104.066 51.0993L104.17 51.3536C104.17 51.3536 104.31 51.6497 104.619 51.695C104.925 51.7368 105.419 51.5557 106.079 50.4932L106.131 50.4688C106.17 50.2493 106.144 50.1448 105.845 50.211C106.131 49.9985 105.809 50.0752 105.884 49.9811L105.91 49.9672C105.634 50.0368 105.994 49.6606 105.744 49.7199C105.77 49.7059 105.851 49.6537 105.868 49.6676C105.793 49.6328 105.679 49.5979 105.845 49.476C105.712 49.3645 105.669 49.1102 105.344 49.2182L105.393 49.1904C105.182 49.2705 105.325 49.1451 105.195 49.1555C105.214 49.1346 105.224 49.1242 105.234 49.1172C105.022 49.1938 105.104 48.9779 105 48.9918L105.107 48.9047L105.009 48.8141V48.8734C104.704 49.0893 105.146 48.6469 104.899 48.7201C104.886 48.6156 104.177 49.058 104.275 48.8699C104.112 48.9465 104.522 48.7201 104.379 48.7549C104.531 48.6295 104.492 48.7027 104.606 48.5912C104.499 48.5982 104.707 48.3787 104.554 48.3996L104.671 48.3021C104.392 48.3961 104.717 48.0164 104.47 48.1314C104.31 48.1279 104.782 47.783 104.486 47.884L104.622 47.7133C104.622 47.6541 104.405 47.8492 104.453 47.7447C104.557 47.6611 104.492 47.6228 104.609 47.567C104.694 47.3371 104.242 47.5636 104.411 47.2082C104.196 47.3476 104.265 47.1838 104.105 47.2918C104.187 47.2152 104.021 47.156 104.258 47.0654C104.278 47.0585 104.284 47.0724 104.252 47.1002L104.372 47.0097C104.531 46.7484 104.151 46.9853 104.131 46.8843C104.109 46.94 104.141 46.9574 104.05 47.0097L104.014 46.9296L104.122 46.8564L104.102 46.7101L103.995 46.8285C104.018 46.7275 104.203 46.5255 103.995 46.6265C103.884 46.6892 103.875 46.8146 103.797 46.8007C103.826 46.6648 103.868 46.4628 103.839 46.3478C103.715 46.4767 103.702 46.4523 103.657 46.4558L103.767 46.3478C103.543 46.4105 103.988 46.0831 103.797 46.1144L103.881 46.0482L103.628 46.2503C103.345 46.3861 103.826 45.9855 103.452 46.1945C103.497 46.2085 103.218 46.4488 103.234 46.3617L103.351 46.2677C103.309 46.2677 103.257 46.3025 103.267 46.2677C103.335 46.2259 103.429 46.1214 103.384 46.1075L103.536 45.9995L103.286 46.1318C103.361 45.9716 103.153 46.0378 103.286 45.8706C103.286 45.8706 103.273 45.6929 103.088 45.8357C103.208 45.7556 103.198 45.6581 103.332 45.557C103.192 45.6476 103.033 45.665 103.127 45.5083L103.146 45.5013C103.169 45.2609 102.802 45.4804 102.86 45.2226C102.74 45.3585 102.759 45.2331 102.61 45.4142C102.359 45.4769 102.756 44.8847 102.233 45.3689C102.164 45.3515 102.294 45.1913 102.298 45.139L102.333 45.1216C102.213 45.0763 102.184 45.0554 102.135 44.9823C102.057 45.0032 101.83 45.2435 101.83 45.1286C101.937 45.0485 101.898 45.045 101.875 45.0241C101.901 45.0241 101.94 44.9892 101.969 44.8952C101.937 44.923 101.914 44.9335 101.895 44.9439C101.901 44.937 101.904 44.93 101.914 44.9196C101.849 44.9196 101.826 44.9544 101.83 44.9857C101.817 44.9997 101.8 45.0206 101.781 45.0519C101.859 44.8882 101.673 44.9579 101.82 44.7837C101.683 44.7175 101.452 44.8185 101.309 44.8011C101.378 44.7036 101.465 44.6444 101.521 44.6339L101.43 44.6061C101.54 44.4806 101.527 44.5677 101.569 44.5608C101.673 44.2821 101.241 44.6165 101.316 44.3413L101.212 44.4249L101.222 44.404C101.176 44.4597 101.095 44.512 101.069 44.519C101.15 44.3936 101.287 44.2612 101.238 44.2263C101.293 44.0835 101.095 44.188 100.997 44.2054C101.007 44.2472 100.945 44.303 100.903 44.3343C100.877 44.3169 100.958 44.1915 100.903 44.2263L101.026 44.0696C100.916 44.2229 100.841 44.1706 100.783 44.2263C100.864 44.1009 100.896 44.1602 100.971 44.08C100.87 44.0104 100.922 44.0452 100.822 43.979C100.682 44.0522 100.711 44.1323 100.581 44.2472C100.516 44.2403 100.389 44.3099 100.418 44.1741L100.324 44.3239C100.162 44.3622 100.129 44.303 100.188 44.1184C99.4594 44.4249 99.1342 44.7942 98.9847 45.0728C98.8351 45.355 98.8611 45.5536 98.8611 45.5536C98.8318 46.0482 99.2578 45.7451 99.5959 45.874L99.6024 45.8671Z" fill="#20BB65"/>
<path d="M108.94 58.3242L108.875 58.366C108.908 58.3591 108.934 58.3451 108.94 58.3242Z" fill="#20BB65"/>
<path d="M109.51 64.7163C109.51 64.7163 109.519 64.7198 109.526 64.7232C109.519 64.7198 109.516 64.7163 109.51 64.7163Z" fill="#20BB65"/>
<path d="M106.785 59.7349C106.785 59.7349 106.775 59.7349 106.766 59.7314H106.785V59.7349Z" fill="#20BB65"/>
<path d="M106.756 58.54C106.736 58.864 106.428 59.0138 106.619 59.2959C106.619 59.4492 106.72 59.5955 106.785 59.7314C107.049 59.7523 106.818 59.923 107.042 59.9683L106.905 60.024C106.983 60.0414 107.036 60.0658 106.964 60.1076L106.922 60.1146C107.036 60.139 106.98 60.1982 107.036 60.2086H106.993L107.019 60.2609H106.957C107.084 60.3166 107.101 60.3933 107.058 60.4699L107.231 60.4385C107.055 60.6127 107.422 60.6162 107.208 60.7799H107.166C107.647 60.8914 106.883 61.0865 107.338 61.2049C107.283 61.191 107.25 61.2258 107.208 61.2293C107.266 61.3025 107.302 61.3861 107.644 61.3477C107.644 61.407 107.539 61.407 107.409 61.4279C107.559 61.4104 107.627 61.4558 107.64 61.501L107.582 61.4871L107.644 61.6125L107.926 61.5568C107.852 61.6369 107.582 61.609 107.657 61.6682L107.891 61.6439C107.852 61.7449 107.5 61.8355 107.335 61.9435C107.263 62.3301 107.884 62.7133 107.481 63.0965L107.305 63.1174C107.045 63.1313 107.692 63.2045 107.452 63.2254L107.572 63.2637C107.526 63.2776 107.478 63.302 107.419 63.2846C107.409 63.3229 107.452 63.3229 107.53 63.3473L107.37 63.3926C107.247 63.5458 107.562 63.6713 107.5 63.8315C107.172 64.0231 107.474 64.3854 107.644 64.6014C108.027 64.9149 106.977 65.211 107.406 65.5315C107.37 65.5384 107.448 65.5698 107.481 65.5698L107.429 65.8415C107.429 65.8415 107.38 66.1724 107.604 66.4023C107.829 66.6288 108.33 66.789 109.445 66.3466L109.5 66.3605C109.65 66.2107 109.689 66.1062 109.412 65.9739C109.76 65.9808 109.458 65.8415 109.572 65.8136L109.601 65.8206C109.341 65.7022 109.835 65.629 109.601 65.5175C109.627 65.5245 109.724 65.5315 109.728 65.5524C109.689 65.4792 109.614 65.3782 109.815 65.3852C109.77 65.2145 109.874 64.9811 109.552 64.8626L109.607 64.8731C109.389 64.8034 109.578 64.793 109.467 64.7198C109.493 64.7198 109.506 64.7128 109.52 64.7128C109.305 64.6397 109.49 64.5178 109.399 64.462H109.533L109.503 64.3297L109.474 64.3784C109.103 64.3575 109.708 64.2809 109.467 64.1833C109.513 64.0928 108.7 63.9987 108.879 63.9082C108.707 63.8664 109.162 63.9465 109.029 63.8803C109.22 63.8803 109.149 63.9116 109.305 63.8942C109.214 63.8315 109.503 63.7862 109.373 63.7061H109.523C109.246 63.6016 109.718 63.5006 109.454 63.4344C109.328 63.3299 109.9 63.3508 109.604 63.2463L109.806 63.1975C109.838 63.1487 109.555 63.1696 109.653 63.1139C109.78 63.1139 109.754 63.0408 109.877 63.0686C110.072 62.9362 109.585 62.8317 109.916 62.6541C109.666 62.6297 109.812 62.5426 109.624 62.5252C109.731 62.5147 109.633 62.3614 109.874 62.4381C109.893 62.4451 109.89 62.459 109.848 62.459H109.994C110.271 62.351 109.832 62.3023 109.871 62.2082C109.822 62.2396 109.838 62.2744 109.737 62.2569L109.754 62.1698L109.88 62.1803L109.945 62.0479L109.793 62.0758C109.867 62.0096 110.128 61.9678 109.906 61.9121C109.783 61.8912 109.705 61.9852 109.65 61.926C109.75 61.8354 109.897 61.6996 109.936 61.5881C109.763 61.6125 109.767 61.5881 109.731 61.5602L109.88 61.5428C109.663 61.4488 110.206 61.4697 110.03 61.3756H110.134H109.819C109.513 61.306 110.124 61.2885 109.711 61.2189C109.741 61.2607 109.383 61.2746 109.445 61.2154H109.591C109.559 61.1875 109.497 61.184 109.526 61.1597C109.607 61.1701 109.737 61.1457 109.708 61.1039L109.893 61.1144L109.62 61.0621C109.77 60.982 109.565 60.9019 109.763 60.8496C109.763 60.8496 109.848 60.6998 109.624 60.6963C109.763 60.7068 109.809 60.6232 109.975 60.6232C109.815 60.6058 109.676 60.5187 109.835 60.4525L109.854 60.4595C110.004 60.2783 109.588 60.2261 109.776 60.0519C109.604 60.0832 109.689 59.9961 109.471 60.0519C109.237 59.9439 109.88 59.714 109.194 59.7767C109.149 59.7175 109.344 59.6722 109.373 59.6339L109.412 59.6443C109.337 59.5328 109.328 59.498 109.328 59.404C109.253 59.3691 108.938 59.4214 108.999 59.3273C109.129 59.3273 109.1 59.3029 109.094 59.2716C109.116 59.2855 109.165 59.2855 109.24 59.2298C109.201 59.2298 109.175 59.2298 109.152 59.2228C109.162 59.2228 109.168 59.2158 109.181 59.2158C109.129 59.174 109.09 59.1914 109.077 59.2158C109.058 59.2158 109.035 59.2263 108.999 59.2402C109.152 59.1566 108.964 59.0974 109.178 59.0486C109.1 58.9058 108.863 58.8466 108.755 58.7386C108.863 58.7003 108.967 58.7072 109.016 58.7386L108.957 58.6585C109.116 58.6236 109.058 58.6898 109.097 58.7107C109.334 58.547 108.798 58.5505 109.009 58.3728H108.879L108.898 58.3624C108.833 58.3763 108.736 58.3728 108.713 58.3589C108.846 58.3101 109.032 58.2857 109.012 58.2265C109.136 58.1464 108.918 58.1046 108.83 58.0593C108.814 58.0976 108.736 58.1081 108.684 58.1046C108.674 58.0767 108.807 58.0245 108.742 58.014L108.928 57.9653C108.755 58.021 108.723 57.9339 108.645 57.9409C108.778 57.8886 108.775 57.9583 108.879 57.9409C108.833 57.8225 108.856 57.8817 108.814 57.7632C108.661 57.7354 108.642 57.8189 108.473 57.8294C108.424 57.7806 108.284 57.7597 108.382 57.6657L108.222 57.7284C108.069 57.6587 108.073 57.589 108.222 57.4741C107.461 57.2685 107 57.373 106.727 57.5089C106.454 57.6482 106.366 57.8224 106.366 57.8224C106.073 58.2056 106.584 58.2161 106.785 58.5331L106.756 58.54Z" fill="#20BB65"/>
<path d="M107.674 74.5054H107.6C107.629 74.5158 107.658 74.5193 107.674 74.5054Z" fill="#20BB65"/>
<path d="M105.105 80.26C105.105 80.26 105.112 80.2669 105.116 80.2738C105.116 80.2669 105.109 80.2635 105.105 80.26Z" fill="#20BB65"/>
<path d="M105.149 74.4667C105.149 74.4667 105.138 74.4563 105.135 74.4529L105.149 74.4667Z" fill="#20BB65"/>
<path d="M105.724 73.4253C105.545 73.69 105.21 73.6413 105.226 73.9931C105.148 74.1255 105.161 74.3066 105.148 74.4634C105.36 74.6341 105.08 74.648 105.249 74.8152L105.103 74.7874C105.161 74.8431 105.194 74.8953 105.109 74.8918L105.07 74.871C105.155 74.9581 105.077 74.9754 105.119 75.0172L105.08 74.9964V75.0521L105.025 75.0172C105.103 75.1357 105.08 75.2123 105.005 75.2541L105.168 75.3238C104.934 75.3761 105.246 75.5851 104.983 75.606L104.944 75.5851C105.301 75.9439 104.553 75.6896 104.885 76.0449C104.843 75.9996 104.801 76.0136 104.762 75.9927C104.775 76.0902 104.765 76.1773 105.077 76.3375C105.048 76.3898 104.96 76.3305 104.836 76.2783C104.973 76.348 105.009 76.4211 104.999 76.4699L104.953 76.4246L104.947 76.5674L105.213 76.6754C105.109 76.6998 104.892 76.5291 104.927 76.6232L105.139 76.7312C105.057 76.7973 104.713 76.6824 104.518 76.6824C104.267 76.9785 104.622 77.6508 104.092 77.7658L103.929 77.6891C103.698 77.5637 104.222 77.9713 104.004 77.8633L104.089 77.9608C104.043 77.9469 103.988 77.9434 103.945 77.8946C103.919 77.9225 103.955 77.9469 104.011 78.0131L103.851 77.9678C103.672 78.0375 103.887 78.3127 103.754 78.4207C103.38 78.4137 103.471 78.8909 103.516 79.1696C103.702 79.6469 102.655 79.3542 102.879 79.8628C102.843 79.8489 102.899 79.9186 102.925 79.936L102.752 80.1485C102.752 80.1485 102.56 80.4132 102.651 80.7337C102.746 81.0507 103.116 81.4443 104.29 81.6359L104.332 81.6743C104.531 81.622 104.612 81.5523 104.43 81.2911C104.729 81.4792 104.527 81.2005 104.641 81.2354L104.664 81.2562C104.488 81.0194 104.957 81.211 104.801 80.995C104.823 81.0124 104.901 81.0716 104.895 81.0925C104.895 81.0089 104.875 80.8835 105.048 80.995C105.083 80.8243 105.282 80.6745 105.057 80.4063L105.103 80.4446C104.947 80.2704 105.113 80.3575 105.051 80.239C105.077 80.2495 105.09 80.253 105.1 80.26C104.947 80.0858 105.161 80.0753 105.109 79.9813L105.226 80.051L105.262 79.9221L105.213 79.9499C104.901 79.7339 105.461 79.9917 105.298 79.7792C105.379 79.727 104.716 79.2114 104.914 79.2289C104.784 79.1 105.142 79.4135 105.054 79.2846C105.223 79.3856 105.145 79.3752 105.285 79.4413C105.236 79.3368 105.506 79.4553 105.428 79.3159L105.561 79.3926C105.37 79.1592 105.825 79.3229 105.626 79.1243C105.565 78.9676 106.049 79.2915 105.844 79.0407L106.043 79.1069C106.095 79.0825 105.841 78.9502 105.948 78.9536C106.059 79.0233 106.069 78.9467 106.163 79.0372C106.394 79.0303 106.02 78.675 106.39 78.7028C106.186 78.5461 106.351 78.5496 106.195 78.4346C106.293 78.4834 106.28 78.3022 106.452 78.4973C106.465 78.5147 106.455 78.5252 106.42 78.5008L106.546 78.5844C106.836 78.6401 106.481 78.3614 106.56 78.3022C106.504 78.3022 106.501 78.3406 106.42 78.2709L106.472 78.2047L106.576 78.2813L106.693 78.2047L106.546 78.1455C106.644 78.1281 106.885 78.236 106.719 78.0688C106.625 77.9817 106.507 78.02 106.494 77.9399C106.621 77.919 106.816 77.8842 106.901 77.8076C106.742 77.7344 106.758 77.7135 106.738 77.6682L106.875 77.7344C106.732 77.5359 107.19 77.8528 107.086 77.6752L107.177 77.7344L106.907 77.5602C106.68 77.3338 107.21 77.6543 106.888 77.3686C106.894 77.4209 106.579 77.2328 106.66 77.2154L106.787 77.2955C106.771 77.2537 106.722 77.2189 106.755 77.2154C106.82 77.2676 106.943 77.3199 106.937 77.2711L107.089 77.3791L106.881 77.1805C107.047 77.1945 106.911 77.0133 107.106 77.083C107.106 77.083 107.252 77.0029 107.06 76.874C107.177 76.9611 107.255 76.9158 107.395 77.0064C107.265 76.9019 107.19 76.7521 107.359 76.7869L107.372 76.8008C107.587 76.7311 107.259 76.4525 107.502 76.4141C107.34 76.3445 107.454 76.3166 107.242 76.24C107.093 76.017 107.756 76.1877 107.142 75.8533C107.132 75.7767 107.317 75.8498 107.363 75.8324L107.392 75.8603C107.385 75.7244 107.392 75.6896 107.437 75.6095C107.392 75.5398 107.099 75.4039 107.197 75.3621C107.307 75.4388 107.294 75.397 107.307 75.3691C107.32 75.3935 107.359 75.4179 107.454 75.4179C107.418 75.397 107.398 75.3795 107.382 75.3621C107.392 75.3656 107.398 75.3691 107.411 75.3726C107.389 75.3064 107.346 75.2994 107.324 75.3134C107.307 75.3029 107.281 75.2959 107.246 75.289C107.418 75.3064 107.285 75.1497 107.489 75.2298C107.496 75.0661 107.324 74.8779 107.285 74.7281C107.395 74.7595 107.476 74.8257 107.506 74.8745L107.496 74.7734C107.645 74.8361 107.567 74.857 107.587 74.8953C107.867 74.8953 107.415 74.5888 107.681 74.5644L107.571 74.4912H107.593C107.528 74.4669 107.454 74.4076 107.437 74.3798C107.574 74.4146 107.743 74.5017 107.753 74.439C107.896 74.4425 107.733 74.2822 107.681 74.1951C107.649 74.2195 107.577 74.1812 107.535 74.1464C107.541 74.115 107.678 74.1499 107.629 74.1046L107.808 74.1708C107.636 74.1185 107.652 74.0245 107.58 73.9861C107.72 74.021 107.681 74.0732 107.779 74.122C107.802 74.0001 107.788 74.0593 107.811 73.9374C107.697 73.8224 107.639 73.8851 107.489 73.7945C107.473 73.7249 107.366 73.6273 107.493 73.603L107.327 73.5646C107.236 73.4183 107.272 73.3626 107.457 73.3522C106.924 72.7391 106.485 72.5509 106.186 72.5056C105.886 72.4604 105.721 72.5579 105.721 72.5579C105.278 72.7112 105.701 73.0247 105.711 73.4114L105.724 73.4253Z" fill="#20BB65"/>
<path d="M99.2486 87.9687L99.1836 87.9304C99.2064 87.9548 99.2291 87.9722 99.2486 87.9687Z" fill="#20BB65"/>
<path d="M94.5957 91.9331C94.5957 91.9331 94.5957 91.9434 94.5991 91.9503C94.5991 91.9434 94.5991 91.9365 94.5957 91.9331Z" fill="#20BB65"/>
<path d="M96.9991 86.7354C96.9991 86.7354 96.9956 86.7251 96.9922 86.7183L96.9991 86.7354Z" fill="#20BB65"/>
<path d="M97.9506 86.0703C97.6775 86.2236 97.3979 86.0215 97.2678 86.3455C97.1443 86.4291 97.0792 86.5998 97.0012 86.7321C97.1215 86.9864 96.8646 86.868 96.9459 87.0944L96.8289 87.0004C96.8549 87.077 96.8647 87.1432 96.7931 87.0979L96.7671 87.0631C96.8094 87.1815 96.7313 87.1606 96.7509 87.2198L96.7249 87.185L96.6988 87.2338L96.6663 87.178C96.6891 87.3244 96.6371 87.3801 96.5525 87.3801L96.6696 87.5194C96.4355 87.4567 96.6306 87.7876 96.3867 87.6866L96.3607 87.6518C96.533 88.143 95.9673 87.5612 96.1169 88.0385C96.0974 87.9792 96.0518 87.9688 96.0291 87.934C96.0031 88.028 95.9575 88.1047 96.1721 88.3938C96.1266 88.4286 96.0681 88.3346 95.9803 88.2266C96.0746 88.352 96.0746 88.4356 96.0486 88.4739L96.0291 88.4112L95.9641 88.5366L96.1591 88.7596C96.0551 88.7352 95.9316 88.4774 95.9218 88.5784L96.0681 88.777C95.9673 88.7979 95.7039 88.5331 95.5284 88.4426C95.1805 88.5924 95.226 89.3657 94.7026 89.2194L94.5855 89.0731C94.4294 88.8502 94.735 89.4632 94.5855 89.2647L94.6213 89.3936C94.5855 89.3587 94.5367 89.3309 94.5205 89.2682C94.4847 89.2821 94.5075 89.3204 94.5335 89.404L94.4067 89.2891C94.2181 89.2682 94.2962 89.6165 94.1369 89.6548C93.802 89.4772 93.6914 89.9474 93.6199 90.2226C93.5971 90.7382 92.768 89.9928 92.7648 90.5536C92.7388 90.5257 92.7615 90.6128 92.7778 90.6407L92.5372 90.7521C92.5372 90.7521 92.2543 90.9019 92.2088 91.2364C92.1666 91.5673 92.3421 92.0933 93.324 92.8039L93.3468 92.8597C93.5484 92.905 93.6459 92.8771 93.5874 92.5601C93.7824 92.8701 93.7109 92.5217 93.802 92.6054L93.8149 92.6332C93.7532 92.3371 94.0946 92.7273 94.0458 92.4591C94.0588 92.4869 94.1076 92.574 94.0913 92.5914C94.1238 92.5148 94.1563 92.3929 94.2701 92.574C94.3742 92.4347 94.6083 92.3929 94.514 92.0445L94.54 92.1003C94.4685 91.8703 94.5823 92.0271 94.5758 91.8913C94.592 91.9122 94.605 91.9226 94.6115 91.9331C94.5432 91.7031 94.7416 91.7972 94.7318 91.6857L94.8098 91.8042L94.8944 91.7031H94.8391C94.6473 91.3652 95.0472 91.8564 94.9854 91.5882C95.0797 91.5777 94.6896 90.8044 94.8619 90.9159C94.7969 90.7382 94.9919 91.1876 94.9659 91.0308C95.0764 91.198 95.0114 91.1562 95.1122 91.2816C95.1122 91.1632 95.3073 91.3966 95.2943 91.2364L95.3821 91.3652C95.304 91.0657 95.6454 91.4245 95.5479 91.1562C95.5577 90.9855 95.86 91.5046 95.7755 91.1806L95.9283 91.3339C95.9835 91.3339 95.808 91.097 95.9088 91.1528C95.9803 91.2677 96.0193 91.2015 96.0681 91.3269C96.2794 91.4314 96.0844 90.9368 96.4062 91.1318C96.2827 90.895 96.4322 90.9751 96.3412 90.8009C96.4095 90.8915 96.4712 90.7208 96.546 90.9751C96.5525 90.996 96.5395 91.0029 96.5135 90.9646L96.5948 91.097C96.8321 91.2816 96.6273 90.8671 96.7216 90.8462C96.6728 90.8218 96.6533 90.8532 96.6111 90.7521L96.6858 90.7173L96.7476 90.8357L96.8842 90.8218L96.7769 90.6999C96.8712 90.7312 97.0467 90.9403 96.9655 90.7103C96.9134 90.5884 96.7964 90.571 96.8159 90.4909C96.9395 90.5292 97.128 90.5919 97.232 90.564C97.1182 90.4247 97.141 90.4108 97.141 90.3655L97.2353 90.4909C97.1865 90.247 97.4694 90.7452 97.4466 90.5362L97.5052 90.6302L97.3328 90.348C97.2191 90.038 97.5669 90.5779 97.3946 90.1669C97.3783 90.2157 97.1735 89.9022 97.2516 89.9231L97.3328 90.0519C97.3328 90.0067 97.3036 89.9509 97.3394 89.9649C97.3751 90.0415 97.4661 90.146 97.4824 90.1007L97.5734 90.2714L97.4662 89.9962C97.6092 90.0868 97.5604 89.8604 97.7068 90.0136C97.7068 90.0136 97.8693 90.0102 97.749 89.8046C97.8173 89.937 97.9051 89.9335 97.9929 90.0833C97.9181 89.93 97.9116 89.7593 98.0481 89.8673L98.0546 89.8882C98.2757 89.9266 98.0936 89.5224 98.3277 89.6026C98.2107 89.4632 98.3245 89.4946 98.1652 89.3239C98.1229 89.0522 98.6464 89.5225 98.2335 88.9268C98.2562 88.8536 98.3928 89.0069 98.4415 89.0139L98.4545 89.0522C98.5033 88.9268 98.5228 88.8989 98.5976 88.8502C98.5846 88.7665 98.3765 88.5053 98.4838 88.5122C98.5488 88.6307 98.5586 88.5924 98.5781 88.5715C98.5781 88.5993 98.6041 88.6411 98.6886 88.683C98.6659 88.6481 98.6561 88.6237 98.6496 88.5993C98.6561 88.6063 98.6626 88.6133 98.6724 88.6237C98.6789 88.554 98.6464 88.5297 98.6171 88.5297C98.6041 88.5122 98.5879 88.4948 98.5586 88.4704C98.7049 88.568 98.6529 88.3624 98.8024 88.5331C98.874 88.3903 98.7959 88.1395 98.8252 87.9862C98.9097 88.0664 98.9585 88.1639 98.9617 88.2231L98.9943 88.129C99.1048 88.2579 99.0235 88.2371 99.0268 88.2823C99.2771 88.4147 99.0008 87.927 99.2479 88.0315L99.1796 87.9131L99.1991 87.9235C99.1536 87.8713 99.108 87.7807 99.1048 87.7493C99.2121 87.8469 99.3259 88.0036 99.3616 87.9549C99.4884 88.028 99.4104 87.8051 99.4007 87.7041C99.3616 87.711 99.3161 87.6414 99.2901 87.5926C99.3064 87.5682 99.4169 87.6657 99.3909 87.5995L99.5242 87.7459C99.3909 87.617 99.4429 87.5403 99.3974 87.4707C99.508 87.5682 99.4494 87.5961 99.5177 87.6866C99.5892 87.5856 99.5535 87.6379 99.625 87.5369C99.5697 87.3801 99.4917 87.4079 99.3974 87.2547C99.4104 87.185 99.3551 87.0457 99.4787 87.0875L99.3454 86.9725C99.3259 86.7984 99.3811 86.767 99.5502 86.8436C99.3291 86.0389 99.017 85.6592 98.7699 85.4746C98.5196 85.29 98.3342 85.3004 98.3342 85.3004C97.8758 85.2273 98.1196 85.708 97.9668 86.0599L97.9506 86.0703Z" fill="#20BB65"/>
<path d="M86.2233 96.2073L86.1777 96.1445C86.1875 96.1759 86.2037 96.2038 86.2233 96.2073Z" fill="#20BB65"/>
<path d="M80.4492 97.6809C80.4492 97.6809 80.4492 97.6913 80.4492 97.6981C80.4492 97.6913 80.4527 97.6878 80.4492 97.6809Z" fill="#20BB65"/>
<path d="M85.8042 93.8977C85.4953 93.9117 85.323 93.6016 85.0759 93.835C84.9296 93.8524 84.806 93.9778 84.6792 94.0614C84.6857 94.3436 84.5004 94.1207 84.4841 94.3645L84.4159 94.2252C84.4094 94.3088 84.3931 94.368 84.3443 94.2983L84.3346 94.2531C84.3248 94.3785 84.2631 94.3262 84.2566 94.3889L84.2468 94.3436L84.2045 94.3785L84.198 94.3122C84.159 94.4516 84.0908 94.4795 84.0127 94.4446L84.0647 94.6258C83.8794 94.462 83.9217 94.8522 83.7428 94.6467L83.7331 94.6014C83.6941 95.1239 83.4112 94.3401 83.3592 94.8383C83.3657 94.7756 83.3299 94.7477 83.3202 94.7024C83.2584 94.7755 83.1869 94.8243 83.2682 95.1796C83.2129 95.1901 83.1999 95.0786 83.1609 94.9428C83.1967 95.0995 83.1641 95.1762 83.1251 95.1971L83.1316 95.1309L83.0211 95.2145L83.1089 95.5071C83.0243 95.4374 83.0113 95.1483 82.9658 95.2354L83.0211 95.4827C82.9203 95.4583 82.787 95.096 82.6634 94.9358C82.2895 94.9149 82.0229 95.6325 81.6068 95.2667L81.558 95.0821C81.5027 94.8104 81.5385 95.5036 81.48 95.2528L81.4637 95.3852C81.4442 95.3399 81.4117 95.2911 81.4214 95.2249C81.3824 95.2214 81.3922 95.2667 81.3791 95.3538L81.3109 95.1901C81.1483 95.0856 81.0833 95.4374 80.9207 95.3991C80.6867 95.0856 80.4005 95.4618 80.2282 95.6813C80.0039 96.1376 79.5454 95.0891 79.3211 95.5942C79.3081 95.5559 79.2951 95.6464 79.2984 95.6778L79.035 95.6708C79.035 95.6708 78.7196 95.6813 78.5473 95.9634C78.3782 96.2456 78.3327 96.7995 78.9472 97.8898V97.9491C79.1098 98.0779 79.2106 98.0989 79.2821 97.7853C79.3374 98.1546 79.4089 97.8062 79.4577 97.9247V97.956C79.5162 97.6599 79.6755 98.1685 79.734 97.9038C79.734 97.9351 79.7438 98.0362 79.7243 98.0431C79.7828 97.9874 79.8608 97.8933 79.8933 98.1058C80.0396 98.0257 80.2705 98.0954 80.3225 97.7366V97.7958C80.3485 97.5554 80.3908 97.7505 80.4363 97.6216C80.4428 97.6495 80.4493 97.6634 80.4493 97.6738C80.4785 97.437 80.6216 97.6077 80.6574 97.5032L80.6802 97.646L80.7972 97.5937L80.7484 97.5693C80.7062 97.1757 80.8752 97.7992 80.9273 97.531C81.0183 97.5658 80.9663 96.688 81.0801 96.8657C81.0898 96.6741 81.0931 97.1687 81.1288 97.0189C81.1646 97.221 81.1223 97.1513 81.1613 97.3115C81.2036 97.2036 81.2914 97.5032 81.3434 97.3499L81.3727 97.5066C81.4214 97.2001 81.5873 97.6808 81.6068 97.3917C81.6815 97.2419 81.7531 97.848 81.8018 97.5171L81.8799 97.7226C81.9319 97.747 81.8669 97.4544 81.9319 97.5484C81.9514 97.6843 82.0132 97.6425 82.0067 97.7784C82.1562 97.9665 82.1757 97.4335 82.3903 97.7574C82.3741 97.4892 82.4749 97.6286 82.4619 97.4265C82.4879 97.538 82.6114 97.4126 82.5789 97.6773C82.5789 97.6982 82.5626 97.6983 82.5561 97.653L82.5756 97.8097C82.7154 98.0849 82.6959 97.6146 82.787 97.6425C82.7512 97.5972 82.7219 97.6181 82.7219 97.5066H82.8032L82.813 97.6425L82.943 97.6913L82.8943 97.5345C82.9658 97.6042 83.0438 97.8724 83.0601 97.6286C83.0601 97.4962 82.9625 97.423 83.0113 97.3603C83.1088 97.4509 83.2552 97.5937 83.3592 97.6146C83.3104 97.437 83.3397 97.437 83.3592 97.3917L83.395 97.5484C83.447 97.3046 83.5055 97.8829 83.5706 97.6843L83.5868 97.7958L83.5413 97.4614C83.5608 97.1269 83.6616 97.7749 83.6681 97.3255C83.6356 97.3638 83.5738 96.9841 83.6356 97.0399L83.6583 97.1931C83.6778 97.1548 83.6713 97.0886 83.6973 97.1165C83.6973 97.2036 83.7396 97.3394 83.7721 97.3011L83.7884 97.4962L83.8014 97.2001C83.8957 97.3464 83.9412 97.12 84.0127 97.3255C84.0127 97.3255 84.1623 97.3952 84.133 97.1548C84.1428 97.3046 84.224 97.3429 84.2435 97.5171C84.237 97.3464 84.2988 97.1862 84.3801 97.3499V97.3708C84.5622 97.5101 84.5557 97.0573 84.7378 97.2384C84.6857 97.0607 84.7768 97.1374 84.702 96.9145C84.7703 96.6497 85.0596 97.315 84.9198 96.587C84.9686 96.5313 85.0336 96.7333 85.0726 96.7612V96.803C85.1637 96.7124 85.1929 96.695 85.2775 96.6845C85.3002 96.6044 85.2157 96.27 85.31 96.3292C85.323 96.4686 85.3457 96.4337 85.3717 96.4268C85.3587 96.4546 85.3685 96.5034 85.427 96.58C85.4205 96.5382 85.4205 96.5103 85.4238 96.486C85.4238 96.4964 85.4303 96.5034 85.4335 96.5173C85.466 96.4581 85.4465 96.4198 85.4205 96.4058C85.4173 96.3849 85.4075 96.3606 85.3913 96.3257C85.4856 96.479 85.5181 96.2735 85.5863 96.4929C85.7066 96.3954 85.7359 96.1341 85.8237 96.0087C85.8692 96.1202 85.8724 96.2317 85.8529 96.2874L85.9212 96.2178C85.97 96.385 85.9049 96.3292 85.8887 96.371C86.0642 96.6079 86.0057 96.0366 86.1878 96.2456L86.1716 96.1063L86.1846 96.1272C86.1618 96.0575 86.1586 95.9565 86.1683 95.9286C86.2268 96.0679 86.2691 96.2595 86.3211 96.2317C86.4057 96.3536 86.4252 96.1202 86.4544 96.0227C86.4154 96.0087 86.4024 95.9251 86.3992 95.8694C86.4252 95.8555 86.4837 95.9913 86.4869 95.9216L86.5487 96.1132C86.4804 95.9356 86.5584 95.8903 86.5422 95.8067C86.604 95.9425 86.539 95.946 86.565 96.0575C86.669 95.9983 86.617 96.0296 86.721 95.9704C86.734 95.8032 86.6527 95.7927 86.6267 95.6116C86.6657 95.5559 86.6723 95.4026 86.7666 95.4966L86.6918 95.3329C86.7438 95.1657 86.8056 95.1622 86.9259 95.312C87.0462 94.4829 86.9161 93.9987 86.7633 93.7166C86.6105 93.4344 86.4382 93.3578 86.4382 93.3578C86.0513 93.0826 86.0805 93.6295 85.8009 93.8768L85.8042 93.8977Z" fill="#20BB65"/>
<path d="M71.8078 97.9389L71.8008 97.8623C71.8008 97.8971 71.8008 97.9285 71.8078 97.9389Z" fill="#20BB65"/>
<path d="M68.8116 97.5835C68.8116 97.5835 68.8116 97.5938 68.8047 97.6007C68.8047 97.5938 68.8081 97.5904 68.8116 97.5835Z" fill="#20BB65"/>
<path d="M71.5659 95.3678C71.5659 95.3678 71.5659 95.3575 71.5694 95.3506L71.5625 95.3678H71.5659Z" fill="#20BB65"/>
<path d="M72.1187 95.6258C71.9756 95.5213 71.9626 95.1694 71.7968 95.2949C71.7253 95.26 71.6408 95.3332 71.5627 95.368C71.5042 95.6362 71.4685 95.361 71.4067 95.5875V95.4307C71.3839 95.5074 71.3612 95.5596 71.3547 95.4725L71.3612 95.4272C71.3287 95.5422 71.3124 95.469 71.2962 95.5282L71.3026 95.4829L71.2766 95.5004L71.2864 95.4376C71.2376 95.5561 71.1986 95.5631 71.1726 95.5004L71.1563 95.6885C71.1043 95.4725 71.0425 95.8557 71.0003 95.6014L71.0068 95.5561C70.8767 96.0403 70.9125 95.2043 70.7824 95.6641C70.7987 95.6083 70.7889 95.5666 70.7922 95.5213C70.7467 95.5701 70.7044 95.5944 70.6654 95.9602C70.6361 95.9532 70.6556 95.8417 70.6654 95.6989C70.6491 95.8591 70.6166 95.9219 70.5939 95.9288L70.6101 95.8696L70.5418 95.9149L70.5224 96.218C70.4996 96.1274 70.5549 95.8487 70.5158 95.9149L70.4898 96.1657C70.4475 96.11 70.4638 95.7268 70.4411 95.5352C70.2688 95.4028 69.9924 96.0159 69.8753 95.5491L69.8916 95.361C69.9241 95.0858 69.7908 95.7616 69.8168 95.5073L69.781 95.6293C69.781 95.5805 69.7778 95.5248 69.794 95.4655C69.7778 95.4516 69.7713 95.4969 69.7453 95.577V95.4028C69.6933 95.26 69.586 95.5805 69.5177 95.5004C69.4722 95.1381 69.2576 95.4307 69.1275 95.5979C68.926 95.9846 68.9259 94.8629 68.7114 95.3088C68.7114 95.2704 68.6886 95.3541 68.6821 95.3854L68.5553 95.3227C68.5553 95.3227 68.4025 95.267 68.2594 95.5039C68.1196 95.7407 67.9831 96.2737 68.0513 97.4546L68.0384 97.5139C68.0904 97.6741 68.1326 97.7124 68.2334 97.4233C68.1847 97.7925 68.2887 97.472 68.2887 97.594L68.2822 97.6253C68.3732 97.3501 68.3407 97.8761 68.4252 97.6323C68.4187 97.6601 68.4025 97.7612 68.3927 97.7647C68.4318 97.7229 68.4903 97.6497 68.4578 97.8657C68.5455 97.8239 68.6398 97.9423 68.7374 97.6079L68.7244 97.6671C68.7862 97.4407 68.7667 97.6392 68.8154 97.5278C68.8154 97.5556 68.8122 97.5696 68.8122 97.5835C68.8772 97.3606 68.9064 97.5626 68.9454 97.4686L68.926 97.6114L68.991 97.587L68.9715 97.5522C69.0365 97.162 68.9845 97.8065 69.0625 97.5591C69.0983 97.6149 69.2608 96.7579 69.2771 96.9565C69.3226 96.7754 69.2186 97.2526 69.2673 97.1167C69.2413 97.3223 69.2348 97.2421 69.2218 97.4058C69.2641 97.3153 69.2413 97.6218 69.2999 97.4894L69.2803 97.6497C69.3681 97.3675 69.3454 97.8727 69.4137 97.6009C69.4819 97.4755 69.3844 98.0782 69.4787 97.7751L69.4722 97.9946C69.4917 98.0329 69.5209 97.7333 69.5339 97.8413C69.5144 97.9771 69.5502 97.9528 69.5209 98.0817C69.5502 98.3046 69.6738 97.796 69.703 98.1653C69.7518 97.904 69.7713 98.0643 69.807 97.8692C69.794 97.9841 69.8786 97.897 69.807 98.1443C69.8005 98.1652 69.794 98.1583 69.8005 98.113L69.7778 98.2697C69.7843 98.5728 69.8753 98.1165 69.9111 98.1688C69.9046 98.1165 69.8851 98.1269 69.9111 98.0189L69.9469 98.0468L69.9241 98.1792L69.9729 98.2628L69.9826 98.0991C70.0021 98.1861 69.9794 98.4683 70.0379 98.2384C70.0671 98.1095 70.0379 98.0155 70.0737 97.9667C70.0997 98.0851 70.1354 98.2593 70.181 98.315C70.1972 98.1304 70.2102 98.1374 70.2265 98.1025L70.2102 98.2628C70.2882 98.0468 70.1907 98.6181 70.2622 98.4474L70.246 98.5589L70.298 98.2245C70.3793 97.9144 70.2882 98.5589 70.3858 98.1339C70.363 98.1583 70.415 97.7786 70.4313 97.8517L70.4085 98.005C70.4248 97.9736 70.4378 97.911 70.4443 97.9423C70.428 98.0259 70.4151 98.1652 70.4378 98.1443L70.4021 98.336L70.4703 98.0573C70.4833 98.2279 70.5516 98.0259 70.5418 98.2454C70.5418 98.2454 70.5939 98.3603 70.6361 98.1235C70.6069 98.2698 70.6361 98.3325 70.6101 98.5032C70.6426 98.3359 70.7077 98.2071 70.7077 98.3882L70.7011 98.4091C70.7564 98.6007 70.8507 98.1722 70.8962 98.4021C70.9125 98.214 70.9352 98.322 70.9515 98.0817C71.0393 97.8552 71.0295 98.5798 71.1206 97.8448C71.1563 97.8099 71.1401 98.0224 71.1531 98.0607L71.1433 98.0991C71.2051 98.0433 71.2246 98.0398 71.2636 98.0607C71.2929 97.9911 71.3254 97.6497 71.3547 97.7368C71.3319 97.8727 71.3482 97.8483 71.3612 97.8483C71.3514 97.8692 71.3417 97.9179 71.3547 98.012C71.3612 97.9702 71.3677 97.9458 71.3742 97.9249C71.3742 97.9353 71.3742 97.9423 71.3742 97.9598C71.4034 97.9145 71.4002 97.8726 71.3937 97.8517C71.3937 97.8308 71.3969 97.803 71.3969 97.7647C71.4067 97.9423 71.4652 97.7577 71.449 97.9946C71.5237 97.9458 71.5952 97.7124 71.6635 97.6253C71.6635 97.7472 71.6375 97.8517 71.618 97.897L71.6635 97.8552C71.6505 98.0294 71.631 97.9528 71.6148 97.9876C71.644 98.2733 71.7416 97.7194 71.7806 97.9806L71.8033 97.8448V97.8692C71.8098 97.796 71.8326 97.6985 71.8424 97.6776C71.8391 97.8274 71.8163 98.0259 71.8424 98.0189C71.8554 98.1653 71.9139 97.9528 71.9496 97.8727C71.9366 97.8448 71.9496 97.7612 71.9561 97.7089C71.9724 97.7054 71.9692 97.8552 71.9854 97.7925L71.9724 97.9946C71.9822 97.803 72.0244 97.7925 72.0374 97.7089C72.0374 97.8587 72.0049 97.8378 71.9952 97.9493C72.0537 97.9354 72.0244 97.9423 72.0862 97.9284C72.1285 97.7786 72.0927 97.7368 72.122 97.5591C72.1512 97.5208 72.187 97.3815 72.2097 97.5069V97.3257C72.2715 97.1899 72.3008 97.2108 72.3235 97.3989C72.5609 96.6778 72.6096 96.1762 72.5999 95.8557C72.5934 95.5352 72.5284 95.3958 72.5284 95.3958C72.4113 94.9848 72.304 95.5073 72.122 95.6327L72.1187 95.6258Z" fill="#20BB65"/>
</svg>
