<svg width="100" height="40" viewBox="0 0 100 40" fill="none" xmlns="http://www.w3.org/2000/svg">
<path d="M99.5421 3.46106L99.4668 3.43652C99.4963 3.45757 99.5224 3.47158 99.5421 3.46106Z" fill="#ACDE45"/>
<path d="M95.002 8.49707C95.002 8.49707 95.0053 8.50717 95.0087 8.51393C95.0087 8.50717 95.0087 8.50045 95.002 8.49707Z" fill="#ACDE45"/>
<path d="M96.9301 2.61455C96.9301 2.61455 96.9233 2.60441 96.9199 2.59766L96.9301 2.61455Z" fill="#ACDE45"/>
<path d="M97.8205 1.74147C97.5586 1.95551 97.2247 1.80019 97.1462 2.16266C97.0283 2.27313 96.9891 2.46298 96.9301 2.61487C97.1004 2.85652 96.8058 2.78057 96.9301 3.00496L96.7894 2.92557C96.8319 3.00151 96.8516 3.06708 96.7665 3.03256L96.7337 3.0015C96.7959 3.11888 96.7108 3.11197 96.7403 3.1672L96.7075 3.13614L96.6879 3.19484L96.6453 3.14305C96.6912 3.29149 96.6453 3.36051 96.5537 3.37777L96.701 3.5055C96.4424 3.47788 96.701 3.79549 96.4227 3.7299L96.39 3.69538C96.6453 4.18558 95.9546 3.66433 96.1871 4.14072C96.1576 4.08203 96.1085 4.07857 96.0757 4.04405C96.0594 4.14761 96.0234 4.2339 96.2918 4.50317C96.246 4.54459 96.174 4.45486 96.0627 4.35821C96.1805 4.47558 96.1936 4.56532 96.1674 4.60675L96.1379 4.54459L96.0856 4.68959L96.3278 4.89326C96.2132 4.8829 96.043 4.63437 96.0495 4.74138L96.2329 4.92777C96.1281 4.96574 95.8106 4.72758 95.6109 4.66199C95.2606 4.87257 95.4014 5.68381 94.822 5.60441L94.6812 5.46632C94.4848 5.25229 94.8875 5.85985 94.7009 5.66998L94.7565 5.80117C94.714 5.7701 94.6583 5.74594 94.6321 5.68381C94.5961 5.70452 94.6256 5.73905 94.6616 5.82535L94.5143 5.71832C94.3081 5.72177 94.4357 6.08078 94.2622 6.14292C93.8825 5.99793 93.8137 6.51232 93.7646 6.81265C93.7908 7.36499 92.8186 6.67801 92.871 7.27177C92.8382 7.24415 92.871 7.33736 92.8906 7.36153L92.6418 7.50999C92.6418 7.50999 92.3505 7.7033 92.3308 8.06232C92.3145 8.41789 92.5535 8.9564 93.6926 9.59504L93.7221 9.65028C93.9447 9.671 94.0527 9.63302 93.9578 9.29816C94.2 9.60195 94.092 9.24295 94.1967 9.31889L94.2131 9.34649C94.1182 9.03926 94.5274 9.41209 94.4455 9.13247C94.4619 9.16008 94.5241 9.24639 94.5077 9.2671C94.5372 9.1808 94.5601 9.04617 94.7009 9.22568C94.7991 9.06343 95.0544 8.98749 94.9169 8.63193L94.9497 8.68713C94.8482 8.45239 94.989 8.60431 94.966 8.45932C94.9857 8.48003 94.9988 8.49039 95.0086 8.50074C94.9137 8.266 95.1362 8.33847 95.1166 8.2211L95.2116 8.33501L95.2934 8.21765L95.2344 8.22801C94.9889 7.89316 95.4767 8.36263 95.3817 8.08646C95.4865 8.0623 94.9791 7.29247 95.1788 7.38567C95.0904 7.20616 95.349 7.65496 95.3032 7.49271C95.4407 7.65841 95.3654 7.61697 95.4865 7.7378C95.4701 7.61352 95.7091 7.83101 95.6796 7.66186L95.7909 7.78959C95.6764 7.48235 96.0856 7.81376 95.9481 7.54105C95.9415 7.35808 96.3278 7.86554 96.2001 7.53413L96.3835 7.67223C96.4456 7.66532 96.2296 7.43747 96.3409 7.48234C96.4326 7.59281 96.4686 7.51686 96.534 7.64458C96.7763 7.72398 96.5111 7.22343 96.881 7.38567C96.7206 7.15438 96.8941 7.21652 96.773 7.04046C96.8581 7.12677 96.9072 6.93347 97.0153 7.19583C97.0251 7.21655 97.0119 7.22344 96.9792 7.18892L97.0807 7.3201C97.359 7.4789 97.0905 7.06812 97.1887 7.03359C97.1331 7.01288 97.1167 7.05086 97.0578 6.95075L97.1331 6.90241L97.2149 7.01632L97.3622 6.97835L97.2313 6.86786C97.336 6.88512 97.5521 7.07846 97.4375 6.85062C97.3688 6.7298 97.2378 6.7298 97.2477 6.64005C97.3884 6.66076 97.6012 6.69529 97.7125 6.64696C97.5717 6.51578 97.5979 6.49849 97.5914 6.45016L97.7092 6.56753C97.6274 6.31552 97.9973 6.79883 97.9482 6.57789L98.0235 6.66765L97.8009 6.39492C97.6405 6.08078 98.0857 6.59861 97.8434 6.19126C97.8336 6.24649 97.5685 5.94618 97.6569 5.95654L97.7616 6.08081C97.7616 6.03248 97.719 5.97724 97.755 5.98759C97.8041 6.06354 97.9154 6.16019 97.9253 6.10495L98.0464 6.27065L97.8958 5.9945C98.0628 6.06355 97.9809 5.83223 98.161 5.96686C98.161 5.96686 98.3377 5.93237 98.1806 5.7356C98.2723 5.86332 98.3672 5.8426 98.4851 5.98759C98.3836 5.83915 98.3541 5.65617 98.5178 5.74938L98.5276 5.77011C98.7731 5.77011 98.521 5.3731 98.7862 5.41108C98.6389 5.2868 98.7665 5.29715 98.5734 5.14526C98.4916 4.86563 99.1267 5.25917 98.5898 4.71029C98.6029 4.62743 98.7764 4.76553 98.8255 4.76208L98.8451 4.8035C98.8811 4.65851 98.8975 4.624 98.9695 4.55841C98.9433 4.47211 98.6782 4.23738 98.796 4.22357C98.8877 4.33749 98.8877 4.29261 98.9073 4.26499C98.9106 4.29606 98.9466 4.33404 99.0448 4.36166C99.0154 4.32714 98.999 4.30294 98.9892 4.28223C98.999 4.28913 99.0055 4.2926 99.0154 4.30296C99.0088 4.22701 98.9695 4.2063 98.94 4.2132C98.9237 4.19939 98.9008 4.18213 98.868 4.16487C99.0415 4.23736 98.9532 4.0337 99.143 4.18214C99.1987 4.01299 99.0743 3.76442 99.0808 3.59871C99.1856 3.6643 99.2543 3.75752 99.2674 3.82311L99.2871 3.71612C99.4245 3.83004 99.3362 3.82657 99.346 3.87144C99.6373 3.95775 99.2576 3.4986 99.5424 3.55383L99.4475 3.44339L99.4704 3.4503C99.4115 3.40542 99.3493 3.31908 99.3394 3.28802C99.4737 3.36741 99.621 3.50898 99.6537 3.4503C99.8043 3.49863 99.6799 3.28113 99.6537 3.17411C99.6111 3.18792 99.5489 3.12577 99.5162 3.0809C99.5293 3.04983 99.6635 3.12926 99.6242 3.06712L99.7945 3.19139C99.6308 3.08437 99.6733 2.99116 99.6111 2.92902C99.7453 3.00497 99.6897 3.05328 99.7781 3.12923C99.837 3.00496 99.8076 3.06708 99.8665 2.94626C99.7781 2.79437 99.6995 2.83926 99.5718 2.70117C99.5718 2.62523 99.49 2.49061 99.6308 2.50442L99.4671 2.41466C99.4147 2.23515 99.4671 2.18681 99.6602 2.23169C99.274 1.43425 98.8615 1.1132 98.5636 0.975115C98.2625 0.840482 98.066 0.888812 98.066 0.888812C97.5685 0.912977 97.922 1.3583 97.8271 1.7553L97.8205 1.74147Z" fill="#ACDE45"/>
<path d="M86.3095 14.0826L86.2539 14.0205C86.2703 14.055 86.2866 14.0791 86.3095 14.0826Z" fill="#ACDE45"/>
<path d="M85.5883 11.6975C85.2511 11.7562 85.0253 11.4559 84.7798 11.7389C84.6194 11.7804 84.4982 11.9323 84.3706 12.0427C84.4131 12.3396 84.1807 12.1324 84.1938 12.3948L84.0988 12.2568C84.1021 12.3465 84.089 12.4121 84.0301 12.3431L84.0137 12.2982C84.0203 12.4328 83.9417 12.3845 83.945 12.4535L83.9286 12.4086L83.8861 12.4501L83.8697 12.3845C83.8468 12.5398 83.7715 12.5812 83.6831 12.5536L83.7617 12.7366C83.5358 12.595 83.634 12.999 83.4081 12.8125L83.3918 12.7677C83.4179 13.3269 83.0022 12.5467 83.0121 13.0852C83.0121 13.0196 82.9662 12.9955 82.9498 12.9472C82.8909 13.0335 82.8189 13.0991 82.9564 13.4615C82.8975 13.4823 82.8647 13.3683 82.8058 13.2302C82.868 13.389 82.8418 13.4754 82.8025 13.5064V13.4374L82.6913 13.5444L82.832 13.8344C82.7305 13.7757 82.6749 13.4753 82.6389 13.5754L82.7338 13.824C82.6192 13.8136 82.4228 13.4581 82.2624 13.3131C81.8467 13.3614 81.6666 14.1692 81.1527 13.8654L81.0708 13.6825C80.9661 13.4098 81.1167 14.1312 81.0119 13.8792V14.0208C80.9858 13.9759 80.9432 13.931 80.9432 13.862C80.9006 13.8654 80.917 13.9103 80.917 14.007L80.8155 13.8516C80.6191 13.7757 80.606 14.1589 80.4227 14.152C80.1117 13.8723 79.8596 14.3314 79.7123 14.5973C79.5519 15.122 78.8514 14.1313 78.7041 14.7147C78.6812 14.6767 78.6844 14.7768 78.6943 14.8078L78.4062 14.8631C78.4062 14.8631 78.0625 14.9528 77.9348 15.2877C77.8072 15.6225 77.8857 16.2094 78.7663 17.1967L78.7794 17.2589C78.9823 17.3555 79.0904 17.3555 79.1002 17.0069C79.2344 17.3797 79.241 16.9999 79.3162 17.1104L79.3228 17.1415C79.3261 16.817 79.5945 17.3141 79.6043 17.0241C79.6109 17.0552 79.6403 17.1588 79.6207 17.1726C79.6731 17.1035 79.7385 16.9861 79.8105 17.2036C79.9513 17.0897 80.2067 17.1104 80.1968 16.7238L80.2099 16.7859C80.1903 16.5305 80.2721 16.7238 80.2983 16.5788C80.3114 16.6064 80.3212 16.6202 80.3245 16.6306C80.3114 16.3751 80.498 16.527 80.5144 16.4096L80.5667 16.5546L80.6813 16.4752L80.6256 16.4614C80.5078 16.0575 80.8024 16.6755 80.809 16.3855C80.9105 16.4027 80.7009 15.4948 80.8548 15.6571C80.8319 15.4569 80.9203 15.9747 80.9334 15.8055C81.0054 16.0126 80.9497 15.947 81.0217 16.1058C81.0512 15.985 81.1952 16.2784 81.2247 16.1093L81.2836 16.2681C81.2836 15.9367 81.5455 16.4096 81.5128 16.1024C81.5684 15.9298 81.7485 16.5546 81.7452 16.1956L81.863 16.3958C81.922 16.4131 81.8008 16.1162 81.8892 16.2025C81.935 16.3406 81.9907 16.2854 82.0071 16.4269C82.1969 16.5961 82.1315 16.0299 82.413 16.3337C82.3508 16.0541 82.4817 16.1818 82.4359 15.9746C82.4817 16.0886 82.593 15.9332 82.5996 16.2163C82.5996 16.2405 82.5865 16.2405 82.5701 16.1956L82.6159 16.3579C82.8091 16.6202 82.7142 16.1335 82.8156 16.1438C82.7698 16.1024 82.7436 16.13 82.7273 16.0127L82.8124 16.0023L82.8451 16.1404L82.9924 16.168L82.9171 16.0127C83.0055 16.0748 83.1299 16.344 83.107 16.0851C83.0873 15.9436 82.9695 15.8884 83.0121 15.8124C83.1299 15.8918 83.3067 16.0126 83.4245 16.0195C83.346 15.84 83.3754 15.8366 83.3885 15.7848L83.4507 15.9436C83.4703 15.6778 83.6209 16.2785 83.6569 16.0575L83.6897 16.1714L83.5915 15.8262C83.5653 15.4707 83.7682 16.1369 83.706 15.6605C83.6766 15.7054 83.5522 15.3188 83.6307 15.3671L83.6766 15.5259C83.693 15.481 83.6766 15.412 83.706 15.4361C83.7224 15.5259 83.7813 15.664 83.814 15.6191L83.8599 15.8228L83.8304 15.5086C83.9548 15.6467 83.9679 15.4016 84.0759 15.6053C84.0759 15.6053 84.2462 15.6571 84.184 15.4051C84.2167 15.5639 84.3084 15.588 84.3542 15.771C84.3214 15.5915 84.3673 15.412 84.4753 15.5708V15.5949C84.6946 15.7123 84.6259 15.2359 84.8419 15.3982C84.7634 15.2187 84.8714 15.2877 84.7601 15.0599C84.7994 14.7699 85.1987 15.4258 84.9499 14.6801C84.9958 14.6145 85.0907 14.8148 85.1366 14.8389V14.8838C85.2282 14.7733 85.2577 14.7492 85.3493 14.7284C85.3624 14.6387 85.2282 14.3004 85.3395 14.3487C85.3722 14.4937 85.3919 14.4557 85.4181 14.4419C85.4083 14.473 85.4246 14.5213 85.4966 14.5938C85.4835 14.5489 85.4835 14.5213 85.4803 14.4972C85.4835 14.5075 85.4901 14.5144 85.4966 14.5282C85.5228 14.4592 85.4966 14.4212 85.4672 14.4143C85.4606 14.3936 85.4475 14.3694 85.4246 14.3349C85.5457 14.4833 85.5556 14.259 85.657 14.4834C85.7749 14.3625 85.7749 14.0829 85.8534 13.9379C85.9156 14.0484 85.9353 14.1658 85.9189 14.2279L85.9844 14.1451C86.0564 14.3142 85.9779 14.2659 85.968 14.3107C86.1841 14.5351 86.0531 13.9414 86.279 14.1347L86.2463 13.9897L86.2626 14.007C86.2299 13.9379 86.2168 13.8275 86.2233 13.7998C86.3052 13.9379 86.3706 14.1381 86.423 14.1002C86.5311 14.2175 86.5212 13.969 86.5441 13.8585C86.5016 13.8481 86.4754 13.7653 86.4656 13.7066C86.4918 13.6859 86.5736 13.824 86.5671 13.7515L86.6587 13.9483C86.5638 13.7687 86.6424 13.7101 86.6195 13.6272C86.7013 13.7653 86.6325 13.7757 86.6751 13.8861C86.7798 13.8102 86.7275 13.8481 86.8322 13.7722C86.8257 13.5927 86.7373 13.5927 86.6882 13.4063C86.7242 13.3407 86.7144 13.1784 86.8289 13.2647L86.7308 13.1025C86.77 12.9195 86.8355 12.9057 86.9861 13.0473C87.0287 12.1532 86.8355 11.6561 86.6391 11.3764C86.4427 11.1003 86.243 11.0416 86.243 11.0416C85.788 10.8034 85.8764 11.3799 85.5981 11.6837L85.5883 11.6975Z" fill="#ACDE45"/>
<path d="M70.648 19.5272L70.6055 19.4546C70.6153 19.4891 70.6284 19.5202 70.648 19.5272Z" fill="#ACDE45"/>
<path d="M64.3984 20.9766C64.3984 20.9766 64.3984 20.9867 64.3984 20.9934C64.3984 20.9867 64.4018 20.9799 64.3984 20.9766Z" fill="#ACDE45"/>
<path d="M70.3984 17.0379C70.0547 17.0241 69.8845 16.6823 69.5833 16.9136C69.4164 16.9239 69.2658 17.0482 69.1184 17.1311C69.1054 17.4349 68.9122 17.1863 68.8762 17.4452L68.8075 17.2933C68.7944 17.3831 68.7715 17.4452 68.7224 17.3658L68.7158 17.3175C68.6962 17.4521 68.6307 17.39 68.6209 17.4556L68.6111 17.4072L68.562 17.4417V17.3727C68.5063 17.5211 68.4245 17.5488 68.3426 17.5073L68.3885 17.7006C68.1888 17.5177 68.2182 17.9354 68.0251 17.711L68.0186 17.6627C67.9498 18.2185 67.6683 17.3762 67.5865 17.9078C67.5963 17.8422 67.557 17.8111 67.5472 17.7628C67.4752 17.8387 67.3933 17.8871 67.4686 18.2702C67.4064 18.2772 67.3933 18.1598 67.3573 18.0148C67.3933 18.184 67.3541 18.2634 67.3082 18.2875L67.318 18.2185L67.1936 18.3082L67.2853 18.6189C67.1936 18.543 67.1871 18.2357 67.1347 18.329L67.1903 18.5913C67.079 18.5637 66.9383 18.177 66.8041 18.0044C66.3785 17.9803 66.0806 18.7501 65.6125 18.3669L65.5569 18.1736C65.4947 17.8871 65.5372 18.6258 65.4718 18.36L65.4521 18.5016C65.4292 18.4532 65.3932 18.4014 65.403 18.3324C65.3605 18.3324 65.3703 18.3773 65.3572 18.4705L65.2786 18.3013C65.092 18.1943 65.0233 18.574 64.8433 18.5361C64.5716 18.2116 64.2573 18.6293 64.074 18.8709C63.8448 19.368 63.2752 18.2875 63.0526 18.8468C63.0363 18.8088 63.0265 18.9055 63.0297 18.94L62.7351 18.9572C62.7351 18.9572 61.3111 19.1229 62.8071 21.3185V21.3841C62.997 21.5049 63.105 21.5187 63.1574 21.1804C63.2458 21.567 63.2949 21.1942 63.3571 21.3116V21.3426C63.4029 21.0216 63.6059 21.5532 63.6517 21.2632C63.6517 21.2943 63.6713 21.4013 63.6517 21.4117C63.7106 21.3495 63.7892 21.2425 63.835 21.4669C63.9889 21.3737 64.2344 21.4324 64.2737 21.0492V21.1148C64.2933 20.8593 64.349 21.063 64.3915 20.9249C64.4013 20.9526 64.4079 20.9663 64.4112 20.9802C64.4308 20.7247 64.5945 20.9042 64.6272 20.7903L64.6599 20.9387L64.7811 20.8766L64.7254 20.8559C64.6632 20.4382 64.8727 21.0941 64.9153 20.8075C65.0135 20.8421 64.9316 19.91 65.0593 20.093C65.0659 19.8893 65.0822 20.414 65.1182 20.2518C65.1608 20.4658 65.115 20.3933 65.1641 20.5625C65.2099 20.4485 65.3114 20.7592 65.3605 20.597L65.3965 20.7627C65.439 20.4347 65.6322 20.9422 65.6453 20.6349C65.7238 20.4727 65.8122 21.1182 65.858 20.7661L65.9464 20.9836C66.0021 21.0112 65.9268 20.6971 65.9988 20.7972C66.025 20.9422 66.0872 20.8973 66.0839 21.0389C66.2476 21.2356 66.2607 20.6695 66.4931 21.0147C66.4735 20.7282 66.5848 20.8766 66.5684 20.6626C66.5979 20.7834 66.7288 20.6488 66.6928 20.9284C66.6895 20.9526 66.6764 20.9491 66.6666 20.9042L66.6895 21.0699C66.8401 21.3633 66.8172 20.8628 66.9154 20.8904C66.8794 20.8421 66.8467 20.8628 66.8467 20.7454H66.9318L66.9416 20.8938L67.0791 20.9491L67.0267 20.7799C67.1052 20.8559 67.1838 21.1424 67.2035 20.8835C67.2035 20.742 67.102 20.666 67.1511 20.597C67.2525 20.6971 67.4097 20.8455 67.521 20.8732C67.4719 20.6833 67.5013 20.6833 67.521 20.6384L67.557 20.8041C67.6192 20.5452 67.6716 21.1631 67.7403 20.956L67.7534 21.0734L67.7109 20.7178C67.7403 20.3623 67.8352 21.0527 67.8483 20.5763C67.8123 20.6143 67.7534 20.2104 67.8189 20.2725L67.8385 20.4382C67.8614 20.3968 67.8549 20.3277 67.8811 20.3553C67.8811 20.4451 67.9204 20.5935 67.9564 20.5555L67.9694 20.7661L67.9891 20.4486C68.0873 20.6074 68.1397 20.3691 68.2117 20.5901C68.2117 20.5901 68.3688 20.6695 68.3459 20.414C68.3525 20.5763 68.4376 20.6177 68.454 20.8041C68.454 20.6212 68.5227 20.452 68.6045 20.6315V20.6557C68.7944 20.811 68.8042 20.3346 68.9908 20.5349C68.9449 20.3415 69.0366 20.4313 68.9679 20.1862C69.0563 19.9066 69.3312 20.6315 69.2167 19.8513C69.2723 19.7961 69.3312 20.0136 69.3705 20.0446L69.364 20.0895C69.4687 19.9998 69.5015 19.9825 69.5964 19.9791C69.6259 19.8928 69.5538 19.5372 69.652 19.6028C69.6586 19.7512 69.6848 19.7167 69.7142 19.7098C69.7012 19.7374 69.7044 19.7892 69.7666 19.8755C69.7633 19.8306 69.7666 19.803 69.7666 19.7754C69.7666 19.7857 69.7732 19.7961 69.7764 19.8099C69.8157 19.7478 69.7961 19.7063 69.7699 19.6925C69.7666 19.6718 69.7568 19.6442 69.7437 19.6062C69.8354 19.7754 69.8845 19.5579 69.9434 19.7996C70.0809 19.7063 70.13 19.4302 70.2314 19.3059C70.274 19.4267 70.2675 19.5441 70.2446 19.6028L70.3231 19.5337C70.3624 19.7132 70.2969 19.6511 70.2773 19.6925C70.4475 19.9583 70.4279 19.3473 70.6079 19.5855L70.6014 19.4371L70.6145 19.4578C70.5981 19.3819 70.6014 19.2748 70.6145 19.2438C70.6668 19.3957 70.693 19.6062 70.7519 19.5786C70.8338 19.7167 70.8698 19.4682 70.9156 19.368C70.8763 19.3508 70.8665 19.261 70.8698 19.2023C70.8992 19.1885 70.9516 19.3404 70.9582 19.2679L71.0105 19.4785C70.9549 19.2817 71.04 19.2438 71.0334 19.154C71.0858 19.3059 71.0171 19.299 71.0334 19.4198C71.1513 19.368 71.0924 19.3956 71.2102 19.3439C71.2397 19.1678 71.1513 19.1471 71.1415 18.9538C71.1906 18.8985 71.2102 18.7363 71.3052 18.8468L71.2397 18.6638C71.3117 18.4912 71.3805 18.4946 71.4983 18.6638C71.9337 16.9343 71.1775 16.5407 71.1775 16.5407C70.7749 16.2059 70.7421 16.7928 70.405 17.031L70.3984 17.0379Z" fill="#ACDE45"/>
<path d="M54.5516 22.7509L54.5156 22.6748C54.5222 22.7129 54.532 22.7405 54.5516 22.7509Z" fill="#ACDE45"/>
<path d="M48.2534 23.7969C48.2534 23.7969 48.2534 23.807 48.25 23.8138C48.25 23.807 48.2534 23.8003 48.2534 23.7969Z" fill="#ACDE45"/>
<path d="M53.1816 20.2414C53.1816 20.2414 53.1816 20.2276 53.1851 20.2207V20.2414H53.1816Z" fill="#ACDE45"/>
<path d="M54.4821 20.2518C54.1351 20.2104 53.991 19.8548 53.6702 20.0585C53.5 20.055 53.3396 20.169 53.1858 20.238C53.153 20.5383 52.9762 20.276 52.9206 20.5314L52.8617 20.3726C52.842 20.4589 52.8159 20.5211 52.77 20.4382L52.7635 20.3899C52.734 20.5211 52.6718 20.4555 52.6587 20.5211L52.6522 20.4727L52.5998 20.5038V20.4348C52.5376 20.5797 52.4558 20.6004 52.3739 20.5521L52.4099 20.7489C52.2201 20.5521 52.2233 20.9733 52.0433 20.7316L52.0367 20.6833C51.9353 21.2322 51.6996 20.3726 51.5883 20.8973C51.6014 20.8317 51.5621 20.7972 51.5588 20.7489C51.4835 20.818 51.3951 20.8628 51.4508 21.2529C51.3886 21.2564 51.3821 21.139 51.3526 20.9905C51.3788 21.1597 51.3329 21.2391 51.2871 21.2598L51.3002 21.1908L51.1693 21.2702L51.2446 21.5878C51.1562 21.5084 51.1693 21.1977 51.1104 21.2874L51.1496 21.5532C51.0416 21.5187 50.9205 21.1252 50.7928 20.9422C50.3673 20.8939 50.0268 21.643 49.5751 21.2357L49.5292 21.0389C49.4801 20.7489 49.4867 21.4877 49.4343 21.2219L49.4081 21.3634C49.3885 21.3116 49.3525 21.2598 49.3656 21.1908C49.323 21.1873 49.3296 21.2356 49.3132 21.3254L49.2445 21.1494C49.0611 21.0354 48.976 21.4083 48.796 21.3634C48.5374 21.0251 48.2035 21.429 48.0103 21.6637C47.7615 22.1505 47.2312 21.0458 46.9857 21.5981C46.9694 21.5601 46.9563 21.6568 46.9595 21.6879L46.6616 21.6948C46.6616 21.6948 45.2279 21.8122 46.6453 24.0595V24.1251C46.8286 24.2528 46.9334 24.2735 46.9988 23.9318C47.0708 24.3218 47.1363 23.9525 47.192 24.0733V24.1044C47.2476 23.7868 47.4309 24.3219 47.4866 24.0388C47.4866 24.0699 47.4997 24.1803 47.48 24.1872C47.5422 24.1251 47.6241 24.025 47.6601 24.2528C47.8172 24.1665 48.0594 24.2355 48.1118 23.8524V23.9179C48.138 23.6625 48.1871 23.8696 48.2362 23.7315C48.2428 23.7626 48.2526 23.7764 48.2526 23.7867C48.282 23.5347 48.4392 23.7177 48.4752 23.6073L48.5014 23.7591L48.6258 23.7039L48.5734 23.6798C48.5308 23.2586 48.7076 23.9249 48.7632 23.6418C48.8582 23.6798 48.8189 22.7477 48.94 22.9341C48.9564 22.7304 48.9466 23.2586 48.9924 23.0963C49.0251 23.3138 48.9826 23.2379 49.0219 23.407C49.071 23.2931 49.1593 23.6107 49.2183 23.4519L49.2445 23.6211C49.3034 23.2966 49.4703 23.8144 49.4965 23.5071C49.5816 23.3518 49.6406 23.9974 49.7028 23.6487L49.778 23.8696C49.8304 23.9007 49.7715 23.5831 49.8402 23.6867C49.8566 23.8317 49.9221 23.7902 49.9122 23.9318C50.0628 24.1389 50.1086 23.5727 50.3182 23.9318C50.3116 23.6452 50.4131 23.8006 50.4098 23.5865C50.4327 23.7074 50.5702 23.5797 50.5211 23.8593C50.5179 23.8834 50.5015 23.88 50.4982 23.8316L50.5113 24.0008C50.6455 24.3011 50.6488 23.8006 50.7437 23.8351C50.711 23.7833 50.6783 23.804 50.6848 23.6867L50.7699 23.697V23.8385L50.9074 23.9007L50.8648 23.7315C50.9369 23.8109 51.0023 24.1044 51.0351 23.8454C51.0449 23.7039 50.9434 23.6211 50.9991 23.5555C51.0973 23.6625 51.2413 23.8213 51.3526 23.8558C51.3133 23.6625 51.3428 23.6659 51.3657 23.6211L51.3952 23.7902C51.4704 23.5382 51.4901 24.1562 51.5686 23.9525L51.5752 24.0733L51.5523 23.7143C51.6014 23.3622 51.657 24.056 51.6963 23.5831C51.657 23.6176 51.621 23.2137 51.6832 23.2793L51.693 23.445C51.7159 23.407 51.716 23.3345 51.7421 23.3656C51.7389 23.4554 51.7683 23.6038 51.8076 23.5693V23.7799L51.8469 23.4657C51.9353 23.6314 52.0007 23.3967 52.0629 23.6211C52.0629 23.6211 52.2135 23.7108 52.207 23.4554C52.2037 23.6176 52.2855 23.6659 52.2921 23.8524C52.3019 23.6694 52.3805 23.5072 52.4525 23.6901V23.7143C52.6293 23.8834 52.6685 23.407 52.8388 23.6211C52.8028 23.4243 52.8911 23.5209 52.8388 23.2724C52.9435 22.9997 53.1727 23.7419 53.1072 22.9583C53.1661 22.9065 53.2119 23.1274 53.2512 23.1619L53.2414 23.2068C53.3527 23.124 53.3854 23.1102 53.4771 23.1136C53.5098 23.0308 53.464 22.6683 53.5557 22.7442C53.5524 22.8927 53.5786 22.8616 53.6113 22.8547C53.5949 22.8789 53.5982 22.9341 53.6506 23.0238C53.6506 22.979 53.6539 22.9513 53.6571 22.9272C53.6571 22.9375 53.6604 22.9479 53.6637 22.9617C53.7062 22.903 53.6899 22.8581 53.6637 22.8443C53.6637 22.8236 53.6539 22.796 53.6408 22.7546C53.7193 22.9306 53.7848 22.72 53.8274 22.9651C53.9681 22.8823 54.0369 22.613 54.1482 22.4957C54.1809 22.6199 54.1678 22.7373 54.1416 22.7925L54.2235 22.7304C54.2497 22.9134 54.1874 22.8443 54.1678 22.8858C54.3184 23.1654 54.3413 22.5578 54.505 22.8064V22.6579L54.5214 22.6821C54.5083 22.6061 54.5213 22.4991 54.5344 22.4715C54.577 22.6269 54.5901 22.8374 54.649 22.8167C54.721 22.9617 54.7734 22.7166 54.8258 22.6234C54.7865 22.6027 54.7865 22.5129 54.7898 22.4542C54.8192 22.4439 54.8618 22.5993 54.8749 22.5268L54.9109 22.7408C54.8683 22.5406 54.9567 22.5095 54.9567 22.4197C54.9993 22.5751 54.9305 22.5647 54.9404 22.6855C55.0615 22.6441 54.9993 22.6648 55.1204 22.6268C55.1597 22.4542 55.0779 22.4266 55.0811 22.2333C55.1335 22.1815 55.1662 22.0228 55.2513 22.1401L55.2022 21.9537C55.2874 21.788 55.3561 21.7983 55.4576 21.9813C56.0272 20.3036 55.3037 19.8375 55.3037 19.8375C54.9207 19.4682 54.8422 20.0481 54.4886 20.2587L54.4821 20.2518Z" fill="#ACDE45"/>
<path d="M38.4032 25.3368L38.3672 25.2607C38.3737 25.2988 38.3836 25.3265 38.4032 25.3368Z" fill="#ACDE45"/>
<path d="M32.1387 26.4448C32.1387 26.4448 32.1387 26.4549 32.1387 26.4617C32.1387 26.4549 32.142 26.4482 32.1387 26.4448Z" fill="#ACDE45"/>
<path d="M37.041 22.8371C37.041 22.8371 37.041 22.8233 37.0445 22.8164V22.8371H37.041Z" fill="#ACDE45"/>
<path d="M38.3447 22.8339C37.9977 22.7959 37.8537 22.4404 37.5296 22.651C37.3594 22.651 37.1957 22.7649 37.0419 22.8374C37.0091 23.1377 36.8291 22.8788 36.7767 23.1343L36.7178 22.9789C36.6982 23.0652 36.672 23.1274 36.6261 23.0445L36.6196 22.9962C36.5901 23.1274 36.5279 23.0618 36.5148 23.1274L36.5083 23.079L36.4559 23.1101V23.0411C36.3937 23.1861 36.3119 23.2102 36.23 23.1619L36.266 23.3586C36.0729 23.1653 36.0795 23.5831 35.8961 23.3483L35.8896 23.3C35.7881 23.8523 35.5492 22.9927 35.4411 23.5209C35.4542 23.4553 35.4149 23.4208 35.4084 23.3725C35.3331 23.445 35.2447 23.4898 35.3036 23.8765C35.2414 23.8834 35.2349 23.7625 35.2022 23.6141C35.2283 23.7832 35.1858 23.8627 35.14 23.8834L35.1531 23.8143L35.0221 23.8972L35.1007 24.2113C35.0123 24.1319 35.0221 23.8247 34.9632 23.9144L35.0058 24.1802C34.8945 24.1457 34.7733 23.7522 34.6424 23.5761C34.2136 23.5347 33.8797 24.2873 33.4214 23.8834L33.3723 23.6866C33.3166 23.3966 33.3363 24.1354 33.2773 23.8695L33.2544 24.0111C33.2348 23.9628 33.1988 23.911 33.2086 23.8419C33.166 23.8385 33.1726 23.8868 33.1562 23.98L33.0842 23.8074C32.8976 23.6935 32.8191 24.0663 32.6357 24.0249C32.3706 23.6901 32.0399 24.0974 31.8501 24.3322C31.6111 24.8189 31.0546 23.7246 30.8157 24.2769C30.7993 24.2389 30.7862 24.3356 30.7927 24.3667L30.4916 24.377C30.4916 24.377 29.0545 24.5082 30.5407 26.7348V26.8004C30.7305 26.9282 30.8353 26.9454 30.8909 26.6071C30.9728 26.9937 31.0284 26.6244 31.0874 26.7452V26.7762C31.1365 26.4586 31.3329 26.9903 31.3787 26.7072C31.3787 26.7383 31.3951 26.8453 31.3787 26.8556C31.4376 26.7935 31.5162 26.6934 31.562 26.9178C31.7159 26.8315 31.9614 26.8971 32.004 26.5139V26.5795C32.0269 26.324 32.0792 26.5311 32.1251 26.3931C32.1349 26.4207 32.1414 26.4379 32.1414 26.4483C32.1676 26.1963 32.3247 26.3793 32.3608 26.2653L32.3902 26.4172L32.5146 26.3585L32.4622 26.3344C32.4099 25.9167 32.603 26.5795 32.6521 26.2929C32.747 26.3309 32.6881 25.3989 32.8125 25.5853C32.8256 25.3816 32.8256 25.9098 32.8649 25.7475C32.9009 25.965 32.8551 25.8891 32.9009 26.0582C32.9467 25.9443 33.0416 26.2619 33.0973 26.1031L33.1268 26.2722C33.1791 25.9477 33.3559 26.4621 33.3756 26.1549C33.4574 25.9961 33.5261 26.6451 33.585 26.2964L33.6636 26.5173C33.716 26.5449 33.6538 26.2308 33.7225 26.3344C33.7422 26.4793 33.8076 26.4379 33.7978 26.5795C33.9517 26.7832 33.9877 26.217 34.2037 26.5726C34.1939 26.286 34.2987 26.4414 34.2889 26.2239C34.3118 26.3447 34.4492 26.217 34.4034 26.4966C34.4001 26.5208 34.3838 26.5173 34.3772 26.469L34.3936 26.6381C34.5311 26.935 34.5278 26.4379 34.6228 26.4725C34.5868 26.4207 34.5573 26.4414 34.5606 26.324L34.6457 26.3309L34.6522 26.4725L34.7864 26.5346L34.7439 26.3655C34.8159 26.4449 34.8846 26.7348 34.9141 26.4759C34.9239 26.3344 34.8224 26.2515 34.8748 26.1859C34.973 26.2895 35.1203 26.4483 35.2284 26.4828C35.1891 26.2895 35.2153 26.2929 35.2382 26.2481L35.2676 26.4172C35.3396 26.1652 35.3658 26.7832 35.4444 26.576L35.4542 26.6968L35.428 26.3378C35.4739 25.9857 35.5361 26.6796 35.5721 26.2032C35.5328 26.2377 35.4935 25.8338 35.559 25.8994L35.5721 26.0651C35.595 26.0272 35.595 25.9546 35.6179 25.9857C35.6146 26.0754 35.6441 26.2239 35.6834 26.1894V26.4L35.7194 26.0858C35.8078 26.2515 35.8732 26.0133 35.9322 26.2412C35.9322 26.2412 36.0827 26.3309 36.0729 26.072C36.0729 26.2342 36.1515 26.2791 36.1613 26.469C36.1678 26.286 36.2497 26.1238 36.3184 26.3068V26.3309C36.4952 26.4966 36.5312 26.0237 36.7014 26.2343C36.6654 26.0375 36.7538 26.1342 36.6982 25.8856C36.7996 25.6129 37.0321 26.3516 36.9633 25.568C37.0222 25.5162 37.0681 25.7371 37.1041 25.7717L37.0943 25.8165C37.2056 25.7337 37.2383 25.7199 37.3299 25.7234C37.3627 25.6405 37.3168 25.278 37.4085 25.3505C37.4052 25.499 37.4314 25.4679 37.4642 25.461C37.4478 25.4852 37.4511 25.5404 37.5034 25.6302C37.5034 25.5853 37.5035 25.5576 37.51 25.5335C37.51 25.5438 37.5133 25.5542 37.5165 25.568C37.5591 25.5093 37.5427 25.4644 37.5165 25.4506C37.5165 25.4299 37.5067 25.4023 37.4936 25.3609C37.5722 25.5369 37.6344 25.3229 37.6769 25.568C37.8177 25.4851 37.8864 25.2124 37.9977 25.0951C38.0305 25.2193 38.0174 25.3367 37.9879 25.3919L38.0698 25.3298C38.0959 25.5128 38.0338 25.4437 38.0141 25.4852C38.1614 25.7613 38.1876 25.1538 38.3513 25.4023V25.2538L38.3677 25.278C38.3546 25.2021 38.3677 25.0916 38.384 25.064C38.4233 25.2193 38.4364 25.4299 38.4953 25.4092C38.5673 25.5542 38.6197 25.3091 38.6721 25.2124C38.6328 25.1917 38.6328 25.102 38.6393 25.0433C38.6688 25.0329 38.7114 25.1883 38.7245 25.1158L38.7572 25.3298C38.7147 25.1296 38.8063 25.0985 38.803 25.0088C38.8423 25.1641 38.7768 25.1538 38.7867 25.2746C38.9045 25.2332 38.8456 25.2538 38.9667 25.2124C39.0093 25.0398 38.9241 25.0122 38.9307 24.8189C38.9831 24.7671 39.0158 24.6083 39.1009 24.7257L39.0518 24.5393C39.1402 24.3736 39.2057 24.3839 39.3072 24.5634C39.8898 22.8719 39.1729 22.4162 39.1729 22.4162C38.7932 22.0503 38.7081 22.6337 38.3513 22.8477L38.3447 22.8339Z" fill="#ACDE45"/>
<path d="M22.4117 28.4197L22.3691 28.3472C22.379 28.3817 22.392 28.4128 22.4117 28.4197Z" fill="#ACDE45"/>
<path d="M22.1762 25.9304C21.8227 25.9166 21.6524 25.5748 21.3415 25.8096C21.1712 25.8199 21.0141 25.9511 20.8635 26.0339C20.8537 26.3377 20.654 26.0926 20.618 26.3515L20.546 26.1996C20.5329 26.2894 20.51 26.3516 20.4576 26.2756L20.4478 26.2273C20.4314 26.3619 20.3594 26.3032 20.3529 26.3688L20.343 26.3205L20.2907 26.355L20.2841 26.2859C20.235 26.4344 20.1532 26.4655 20.0648 26.4275L20.1172 26.6208C19.9077 26.4448 19.9469 26.8624 19.744 26.645L19.7342 26.5966C19.6818 27.1559 19.3675 26.3239 19.302 26.8624C19.3086 26.7969 19.2661 26.7658 19.2562 26.7174C19.1842 26.7968 19.1024 26.8487 19.1973 27.2318C19.1351 27.2422 19.1187 27.1283 19.0729 26.9833C19.1155 27.149 19.0795 27.2318 19.0336 27.256L19.0402 27.187L18.9158 27.2836L19.0205 27.5908C18.9256 27.5218 18.906 27.2146 18.8536 27.3078L18.9191 27.5667C18.8045 27.5425 18.6474 27.1662 18.5001 27.004C18.0614 27.0109 17.8028 27.798 17.3052 27.4562L17.2365 27.2664C17.1514 26.9833 17.2463 27.7186 17.1612 27.4597L17.1514 27.6012C17.1252 27.5529 17.0826 27.508 17.0892 27.439C17.0466 27.439 17.0564 27.4873 17.0531 27.5805L16.9615 27.4182C16.7618 27.3319 16.7225 27.7117 16.5359 27.6979C16.2315 27.4044 15.9434 27.8532 15.783 28.119C15.603 28.6403 14.909 27.6392 14.7421 28.2295C14.7191 28.195 14.7224 28.2916 14.7322 28.3227L14.4343 28.3848C14.4343 28.3848 14.0775 28.4815 13.9499 28.8233C13.8189 29.165 13.9302 29.7415 14.8174 30.715L14.8304 30.7771C15.0301 30.8703 15.1349 30.8703 15.1414 30.5251C15.2756 30.8945 15.2789 30.5217 15.3509 30.6287L15.3575 30.6598C15.3575 30.3387 15.6226 30.8324 15.6292 30.5459C15.6357 30.5769 15.6652 30.6805 15.6455 30.6943C15.6946 30.6252 15.7601 30.5114 15.8321 30.7288C15.9696 30.6184 16.2151 30.646 16.2086 30.2628L16.2184 30.3249C16.2053 30.0695 16.2806 30.2663 16.3101 30.1247C16.3232 30.1523 16.3297 30.1661 16.333 30.1765C16.3264 29.921 16.5032 30.0798 16.5228 29.9624L16.5687 30.1074L16.6832 30.035L16.6276 30.0177C16.5261 29.6103 16.7945 30.2421 16.8076 29.9521C16.9058 29.9763 16.7389 29.058 16.8829 29.2271C16.8698 29.0235 16.932 29.5448 16.9549 29.3791C17.0171 29.5896 16.9648 29.5206 17.027 29.6828C17.0597 29.562 17.1874 29.8658 17.2234 29.7001L17.2725 29.8624C17.2856 29.531 17.518 30.0211 17.5049 29.7139C17.5704 29.5482 17.7079 30.1799 17.7242 29.8278L17.8257 30.0384C17.8814 30.0591 17.7832 29.7553 17.8617 29.8485C17.8977 29.9901 17.9566 29.9417 17.9632 30.0833C18.1367 30.2697 18.1105 29.7036 18.3593 30.0281C18.32 29.745 18.4378 29.8865 18.4084 29.6725C18.4444 29.7898 18.5655 29.6483 18.5491 29.9314C18.5491 29.9555 18.5328 29.9556 18.523 29.9072L18.5557 30.0729C18.7226 30.3526 18.667 29.8589 18.7619 29.883C18.7226 29.8382 18.6932 29.8623 18.6866 29.7415H18.7717L18.7914 29.883L18.9289 29.9279L18.87 29.7622C18.9485 29.8313 19.0435 30.1144 19.0467 29.8554C19.0402 29.7139 18.9321 29.6414 18.9813 29.5724C19.0893 29.6656 19.2497 29.8071 19.3577 29.8313C19.2988 29.6414 19.3282 29.6414 19.3446 29.5965L19.3904 29.7622C19.4363 29.5033 19.5214 30.1144 19.577 29.9038L19.5967 30.0211L19.5378 29.6656C19.5476 29.31 19.6752 29.997 19.6654 29.5171C19.6327 29.5551 19.5541 29.1581 19.6229 29.2168L19.649 29.3791C19.6687 29.3376 19.6622 29.2686 19.6883 29.2962C19.6949 29.386 19.7374 29.5309 19.7734 29.493L19.7964 29.7001V29.3825C19.9044 29.5379 19.9437 29.2962 20.0255 29.5137C20.0255 29.5137 20.1826 29.5896 20.1499 29.3342C20.163 29.4964 20.2481 29.5344 20.271 29.7208C20.2612 29.5378 20.3267 29.3687 20.4118 29.5447V29.5689C20.6016 29.7173 20.5984 29.2409 20.785 29.4377C20.7326 29.2478 20.8275 29.3342 20.7522 29.0891C20.8308 28.8095 21.1189 29.524 20.9879 28.7507C21.0403 28.6921 21.1025 28.9096 21.145 28.9406L21.1385 28.9855C21.24 28.8923 21.2727 28.8751 21.3644 28.8716C21.3906 28.7853 21.3153 28.4297 21.4135 28.4953C21.42 28.6437 21.4462 28.6092 21.4757 28.6023C21.4626 28.6299 21.4691 28.6817 21.5281 28.768C21.5248 28.7231 21.5281 28.6955 21.5281 28.6679C21.5281 28.6783 21.5346 28.6886 21.5379 28.7024C21.5739 28.6403 21.5575 28.5989 21.5281 28.5851C21.5248 28.5643 21.5149 28.5367 21.4986 28.4987C21.5902 28.6679 21.6361 28.4504 21.6983 28.6921C21.8325 28.5989 21.8783 28.3227 21.9798 28.1984C22.0224 28.3192 22.0191 28.4366 21.9929 28.4953L22.0682 28.4297C22.1074 28.6092 22.042 28.5471 22.0223 28.5885C22.1893 28.8543 22.1696 28.2468 22.3497 28.4815L22.3432 28.3331L22.3562 28.3538C22.3399 28.2778 22.3431 28.1708 22.3562 28.1398C22.4086 28.2916 22.4348 28.5022 22.4937 28.4781C22.5756 28.6161 22.6116 28.371 22.6541 28.2709C22.6149 28.2536 22.605 28.1639 22.6083 28.1052C22.6378 28.0914 22.6901 28.2433 22.6967 28.1708L22.7458 28.3814C22.6901 28.1846 22.7785 28.1466 22.7687 28.0569C22.8211 28.2088 22.7523 28.2019 22.7687 28.3227C22.8833 28.2744 22.8276 28.2985 22.9422 28.2502C22.9717 28.0741 22.8866 28.0534 22.8767 27.8601C22.9258 27.8049 22.9488 27.6426 23.0404 27.7565L22.9782 27.5736C23.0535 27.401 23.1222 27.4079 23.2335 27.5839C23.7082 25.8648 22.9586 25.4505 22.9586 25.4505C22.5527 25.1088 22.5036 25.6957 22.1566 25.9339L22.1762 25.9304Z" fill="#ACDE45"/>
<path d="M7.39095 34.1635L7.33203 34.1084C7.35167 34.1394 7.37131 34.1635 7.39095 34.1635Z" fill="#ACDE45"/>
<path d="M2.70898 38.1924C2.70898 38.1924 2.71575 38.2025 2.71912 38.2092C2.71912 38.2025 2.71236 38.1958 2.70898 38.1924Z" fill="#ACDE45"/>
<path d="M5.19681 32.4235C5.19681 32.4235 5.19681 32.4097 5.19336 32.4028V32.4235H5.19681Z" fill="#ACDE45"/>
<path d="M6.46033 31.8611C6.10679 31.9612 5.84491 31.6988 5.60267 32.0337C5.43572 32.1027 5.32115 32.2891 5.20003 32.4238C5.28187 32.7137 5.01017 32.5549 5.05927 32.8173L4.94141 32.7034C4.95778 32.7931 4.95451 32.8622 4.87922 32.8104L4.85632 32.769C4.88251 32.9036 4.79411 32.8725 4.80721 32.9416L4.78429 32.9001L4.74501 32.9554L4.71554 32.8932C4.71554 33.0555 4.64681 33.1142 4.54861 33.1107L4.66317 33.2695C4.40129 33.1901 4.58133 33.5664 4.3129 33.4422L4.28671 33.4007C4.42747 33.9462 3.83497 33.2972 3.96264 33.8288C3.94627 33.7632 3.8939 33.7528 3.86771 33.7148C3.82843 33.8184 3.76623 33.9047 3.99211 34.2189C3.93646 34.2569 3.87753 34.1567 3.7826 34.0428C3.88408 34.1774 3.87753 34.2706 3.84479 34.312L3.82515 34.243L3.74332 34.3846L3.9561 34.6193C3.84153 34.5951 3.7073 34.3224 3.69421 34.4329L3.8546 34.6435C3.74003 34.6746 3.4487 34.3984 3.24901 34.3155C2.83 34.5261 2.90857 35.365 2.30952 35.3132L2.16548 35.1785C1.9658 34.968 2.36518 35.579 2.17531 35.3926L2.22768 35.5237C2.18185 35.4961 2.1262 35.4754 2.10001 35.4098C2.06073 35.434 2.09019 35.4685 2.1262 35.5583L1.97234 35.4616C1.74974 35.4927 1.8807 35.8552 1.70393 35.9415C1.29474 35.8517 1.23581 36.4144 1.22599 36.7389C1.27509 37.0185 1.01976 37.0358 0.777517 37.0772C0.535277 37.1186 0.28649 37.1704 0.368328 37.4707C0.329046 37.4535 0.38142 37.5363 0.407608 37.557L0.185012 37.8022C0.185012 37.8022 0.119547 37.8781 0.0671705 38.0058C0.0147943 38.1336 -0.0244958 38.3062 0.0180598 38.4857C0.0966241 38.8585 0.535279 39.2141 1.78249 39.4592L1.82832 39.5006C2.03455 39.4592 2.11312 39.4039 1.9298 39.1243C2.24078 39.3453 2.03455 39.0449 2.1524 39.0898L2.17531 39.1105C2.00182 38.8481 2.47647 39.1071 2.32916 38.8654C2.35207 38.8861 2.43063 38.9551 2.42408 38.9759C2.42408 38.893 2.41754 38.7653 2.59103 38.9068C2.64014 38.7446 2.84964 38.641 2.65323 38.3234L2.69579 38.3717C2.55503 38.1646 2.7187 38.2889 2.6696 38.1577C2.69251 38.175 2.70888 38.1819 2.71543 38.1888C2.58122 37.9782 2.8071 38.0196 2.76454 37.9092L2.87583 38.0093L2.93475 37.8885L2.87911 37.9023C2.59431 37.6054 3.12789 38.0093 3.00022 37.7538C3.09188 37.7262 2.51575 37.0185 2.71871 37.091C2.61395 36.9219 2.91183 37.343 2.85291 37.1877C3.00349 37.3396 2.92495 37.3051 3.05589 37.4155C3.02643 37.2947 3.27848 37.4984 3.23265 37.3361L3.35049 37.4535C3.20973 37.1601 3.63202 37.4742 3.48144 37.2153C3.4618 37.0392 3.86443 37.5294 3.7204 37.2118L3.90372 37.3499C3.95937 37.3465 3.74005 37.1221 3.85135 37.167C3.94301 37.274 3.97245 37.2084 4.0412 37.3292C4.27034 37.419 3.99865 36.9288 4.35218 37.1083C4.19506 36.8736 4.35873 36.9495 4.24415 36.7734C4.32599 36.8632 4.36855 36.6837 4.4733 36.946C4.48312 36.9667 4.47004 36.9737 4.44058 36.9357L4.53878 37.0703C4.80066 37.2533 4.54205 36.8355 4.63698 36.8148C4.5846 36.7907 4.56823 36.8252 4.51258 36.7217L4.58461 36.6837L4.6599 36.8011L4.79738 36.7838L4.67954 36.6595C4.77774 36.6871 4.97416 36.9046 4.87268 36.6733C4.81049 36.5491 4.68608 36.5283 4.69918 36.4455C4.83012 36.4869 5.02653 36.549 5.13128 36.5283C5.00689 36.3799 5.0298 36.3695 5.02653 36.3212L5.13128 36.4524C5.06909 36.1969 5.38335 36.7217 5.34734 36.5076L5.40952 36.6077L5.21967 36.3108C5.09201 35.9829 5.46518 36.5594 5.27532 36.1279C5.25895 36.1762 5.03962 35.8413 5.12473 35.869L5.20984 36.007C5.20984 35.9622 5.18038 35.9 5.21312 35.9173C5.2524 36.0001 5.34734 36.1141 5.36043 36.0658L5.45863 36.2487L5.34407 35.9587C5.49465 36.0623 5.439 35.8241 5.59286 35.9933C5.59286 35.9933 5.75652 36.0036 5.63867 35.7827C5.70742 35.9276 5.79908 35.9311 5.88746 36.0934C5.81217 35.9277 5.8089 35.7481 5.94638 35.8793L5.95294 35.9001C6.17554 35.9726 6.00204 35.5307 6.24101 35.6446C6.12643 35.4858 6.241 35.5341 6.09042 35.3339C6.0675 35.0439 6.57162 35.6135 6.1919 34.9334C6.22136 34.861 6.34903 35.0439 6.39813 35.0577L6.40796 35.1026C6.47016 34.9783 6.49307 34.9541 6.57491 34.9196C6.57164 34.8299 6.38831 34.5227 6.49961 34.5503C6.55198 34.6849 6.56509 34.6469 6.59127 34.6297C6.588 34.6607 6.61092 34.7091 6.69275 34.7678C6.67311 34.7263 6.66655 34.6987 6.66001 34.6745C6.66655 34.6849 6.6731 34.6918 6.67965 34.7056C6.69274 34.6331 6.66329 34.6021 6.63383 34.5986C6.62401 34.5779 6.60763 34.5572 6.58144 34.5261C6.71893 34.6538 6.69274 34.4364 6.82696 34.64C6.91862 34.5088 6.87934 34.2327 6.93827 34.0808C7.01356 34.1809 7.04629 34.2948 7.03974 34.3569L7.08883 34.2706C7.18049 34.4294 7.09866 34.388 7.09539 34.4329C7.33108 34.6331 7.12813 34.0635 7.3671 34.2292L7.31798 34.0912L7.33435 34.1084C7.29507 34.0428 7.26888 33.9358 7.27215 33.9047C7.36381 34.0325 7.45219 34.2223 7.49802 34.1843C7.6126 34.2913 7.5766 34.0463 7.58969 33.9392C7.54714 33.9323 7.51439 33.8495 7.5013 33.7942C7.52422 33.7735 7.61587 33.9047 7.60278 33.8322L7.70753 34.0186C7.59951 33.8495 7.67154 33.7874 7.6388 33.7045C7.73046 33.8357 7.66498 33.8495 7.71409 33.9565C7.80902 33.8771 7.75991 33.9151 7.85485 33.8357C7.8352 33.6596 7.74681 33.6631 7.68462 33.4836C7.71408 33.418 7.69117 33.2557 7.81229 33.3351L7.70426 33.1798C7.73044 32.9934 7.79919 32.9795 7.95305 33.1142C7.95305 32.2201 7.75664 31.723 7.55041 31.4537C7.34418 31.1845 7.13139 31.1465 7.13139 31.1465C6.63709 30.9463 6.73858 31.5262 6.46688 31.868L6.46033 31.8611Z" fill="#ACDE45"/>
</svg>
